{
	"asset":{
		"generator":"Khronos glTF Blender I/O v4.2.57",
		"version":"2.0"
	},
	"extensionsUsed":[
		"KHR_materials_specular"
	],
	"scene":0,
	"scenes":[
		{
			"name":"Scene",
			"nodes":[
				4
			]
		}
	],
	"nodes":[
		{
			"mesh":0,
			"name":"Cylinder.003_desk_lamp_0"
		},
		{
			"children":[
				0
			],
			"name":"Cylinder.003",
			"scale":[
				100,
				99.99999237060547,
				99.99999237060547
			],
			"translation":[
				0.44369474053382874,
				14.10873031616211,
				0.23258328437805176
			]
		},
		{
			"children":[
				1
			],
			"name":"RootNode"
		},
		{
			"children":[
				2
			],
			"name":"desk_lamp.fbx",
			"rotation":[
				0.70710688829422,
				0,
				0,
				0.7071066498756409
			],
			"scale":[
				0.009999999776482582,
				0.010000000707805157,
				0.010000000707805157
			]
		},
		{
			"children":[
				3
			],
			"name":"Sketchfab_model",
			"rotation":[
				-0.70710688829422,
				0,
				0,
				0.7071066498756409
			]
		}
	],
	"materials":[
		{
			"doubleSided":true,
			"extensions":{
				"KHR_materials_specular":{
					"specularFactor":0
				}
			},
			"name":"desk_lamp",
			"pbrMetallicRoughness":{
				"baseColorTexture":{
					"index":0
				},
				"metallicRoughnessTexture":{
					"index":1
				}
			}
		}
	],
	"meshes":[
		{
			"name":"Cylinder.003_desk_lamp_0",
			"primitives":[
				{
					"attributes":{
						"POSITION":0,
						"NORMAL":1,
						"TEXCOORD_0":2,
						"TEXCOORD_1":3,
						"TEXCOORD_2":4
					},
					"indices":5,
					"material":0
				}
			]
		}
	],
	"textures":[
		{
			"sampler":0,
			"source":0
		},
		{
			"sampler":0,
			"source":1
		}
	],
	"images":[
		{
			"mimeType":"image/png",
			"name":"tx_brush_desklampColor",
			"uri":"tx_brush_desklampColor.png"
		},
		{
			"mimeType":"image/png",
			"name":"tx_brush_desklampmetal",
			"uri":"tx_brush_desklampmetal.png"
		}
	],
	"accessors":[
		{
			"bufferView":0,
			"componentType":5126,
			"count":2466,
			"max":[
				0.0655328631401062,
				0.06336235255002975,
				0.07770770788192749
			],
			"min":[
				-0.04918201267719269,
				-0.14099633693695068,
				-0.0867510661482811
			],
			"type":"VEC3"
		},
		{
			"bufferView":1,
			"componentType":5126,
			"count":2466,
			"type":"VEC3"
		},
		{
			"bufferView":2,
			"componentType":5126,
			"count":2466,
			"type":"VEC2"
		},
		{
			"bufferView":3,
			"componentType":5126,
			"count":2466,
			"type":"VEC2"
		},
		{
			"bufferView":4,
			"componentType":5126,
			"count":2466,
			"type":"VEC2"
		},
		{
			"bufferView":5,
			"componentType":5123,
			"count":9744,
			"type":"SCALAR"
		}
	],
	"bufferViews":[
		{
			"buffer":0,
			"byteLength":29592,
			"byteOffset":0,
			"target":34962
		},
		{
			"buffer":0,
			"byteLength":29592,
			"byteOffset":29592,
			"target":34962
		},
		{
			"buffer":0,
			"byteLength":19728,
			"byteOffset":59184,
			"target":34962
		},
		{
			"buffer":0,
			"byteLength":19728,
			"byteOffset":78912,
			"target":34962
		},
		{
			"buffer":0,
			"byteLength":19728,
			"byteOffset":98640,
			"target":34962
		},
		{
			"buffer":0,
			"byteLength":19488,
			"byteOffset":118368,
			"target":34963
		}
	],
	"samplers":[
		{
			"magFilter":9729,
			"minFilter":9987
		}
	],
	"buffers":[
		{
			"byteLength":137856,
			"uri":"mdl_brush_desklamp.bin"
		}
	]
}
