{
	"asset":{
		"generator":"Khronos glTF Blender I/O v4.2.57",
		"version":"2.0"
	},
	"extensionsUsed":[
		"KHR_materials_specular",
		"KHR_materials_ior"
	],
	"scene":0,
	"scenes":[
		{
			"name":"Scene",
			"nodes":[
				0
			]
		}
	],
	"nodes":[
		{
			"mesh":0,
			"name":"ballerina"
		}
	],
	"materials":[
		{
			"doubleSided":true,
			"extensions":{
				"KHR_materials_specular":{
					"specularFactor":0.16507935523986816,
					"specularColorFactor":[
						2.0,
						2.0,
						2.0
					]
				},
				"KHR_materials_ior":{
					"ior":1.4500000476837158
				}
			},
			"name":"06 - Default.002",
			"pbrMetallicRoughness":{
				"baseColorFactor":[
					0.6149019598960876,
					0.6149019598960876,
					0.699999988079071,
					1
				],
				"metallicFactor":0,
				"metallicRoughnessTexture":{
					"index":0
				}
			}
		}
	],
	"meshes":[
		{
			"name":"Mesh.004",
			"primitives":[
				{
					"attributes":{
						"POSITION":0,
						"NORMAL":1,
						"TEXCOORD_0":2,
						"TEXCOORD_1":3,
						"TEXCOORD_2":4,
						"TEXCOORD_3":5,
						"TEXCOORD_4":6,
						"TEXCOORD_5":7,
						"TEXCOORD_6":8,
						"TEXCOORD_7":9
					},
					"indices":10,
					"material":0
				}
			]
		}
	],
	"textures":[
		{
			"sampler":0,
			"source":0
		}
	],
	"images":[
		{
			"mimeType":"image/png",
			"name":"tx_wollo_ballerinaporcelainRoughness",
			"uri":"tx_wollo_ballerinaporcelainRoughness.png"
		}
	],
	"accessors":[
		{
			"bufferView":0,
			"componentType":5126,
			"count":1538,
			"max":[
				0.23753796517848969,
				0.3445817530155182,
				0.21200105547904968
			],
			"min":[
				-0.22152531147003174,
				-0.47409552335739136,
				-0.1981770098209381
			],
			"type":"VEC3"
		},
		{
			"bufferView":1,
			"componentType":5126,
			"count":1538,
			"type":"VEC3"
		},
		{
			"bufferView":2,
			"componentType":5126,
			"count":1538,
			"type":"VEC2"
		},
		{
			"bufferView":3,
			"componentType":5126,
			"count":1538,
			"type":"VEC2"
		},
		{
			"bufferView":4,
			"componentType":5126,
			"count":1538,
			"type":"VEC2"
		},
		{
			"bufferView":5,
			"componentType":5126,
			"count":1538,
			"type":"VEC2"
		},
		{
			"bufferView":6,
			"componentType":5126,
			"count":1538,
			"type":"VEC2"
		},
		{
			"bufferView":7,
			"componentType":5126,
			"count":1538,
			"type":"VEC2"
		},
		{
			"bufferView":8,
			"componentType":5126,
			"count":1538,
			"type":"VEC2"
		},
		{
			"bufferView":9,
			"componentType":5126,
			"count":1538,
			"type":"VEC2"
		},
		{
			"bufferView":10,
			"componentType":5123,
			"count":6495,
			"type":"SCALAR"
		}
	],
	"bufferViews":[
		{
			"buffer":0,
			"byteLength":18456,
			"byteOffset":0,
			"target":34962
		},
		{
			"buffer":0,
			"byteLength":18456,
			"byteOffset":18456,
			"target":34962
		},
		{
			"buffer":0,
			"byteLength":12304,
			"byteOffset":36912,
			"target":34962
		},
		{
			"buffer":0,
			"byteLength":12304,
			"byteOffset":49216,
			"target":34962
		},
		{
			"buffer":0,
			"byteLength":12304,
			"byteOffset":61520,
			"target":34962
		},
		{
			"buffer":0,
			"byteLength":12304,
			"byteOffset":73824,
			"target":34962
		},
		{
			"buffer":0,
			"byteLength":12304,
			"byteOffset":86128,
			"target":34962
		},
		{
			"buffer":0,
			"byteLength":12304,
			"byteOffset":98432,
			"target":34962
		},
		{
			"buffer":0,
			"byteLength":12304,
			"byteOffset":110736,
			"target":34962
		},
		{
			"buffer":0,
			"byteLength":12304,
			"byteOffset":123040,
			"target":34962
		},
		{
			"buffer":0,
			"byteLength":12990,
			"byteOffset":135344,
			"target":34963
		}
	],
	"samplers":[
		{
			"magFilter":9729,
			"minFilter":9987
		}
	],
	"buffers":[
		{
			"byteLength":148336,
			"uri":"ballerina.bin"
		}
	]
}
