{
	"asset":{
		"generator":"Khronos glTF Blender I/O v3.6.27",
		"version":"2.0"
	},
	"extensionsUsed":[
		"KHR_materials_specular"
	],
	"scene":0,
	"scenes":[
		{
			"name":"Scene",
			"nodes":[
				0
			]
		}
	],
	"nodes":[
		{
			"mesh":0,
			"name":"tree.008",
			"rotation":[
				0.6219467520713806,
				0.08302953839302063,
				-0.01823699288070202,
				0.7784315943717957
			],
			"scale":[
				0.12360986322164536,
				0.16059857606887817,
				0.1605985462665558
			],
			"translation":[
				5.09779167175293,
				1.1118439435958862,
				5.399781227111816
			]
		}
	],
	"materials":[
		{
			"alphaCutoff":0.5,
			"alphaMode":"MASK",
			"doubleSided":true,
			"extensions":{
				"KHR_materials_specular":{
					"specularColorTexture":{
						"index":0
					}
				}
			},
			"name":"tree",
			"pbrMetallicRoughness":{
				"baseColorTexture":{
					"index":1
				},
				"metallicFactor":0
			}
		},
		{
			"doubleSided":true,
			"extensions":{
				"KHR_materials_specular":{
					"specularColorTexture":{
						"index":2
					},
					"specularColorFactor":[
						1.0366972684860227,
						1,
						1
					]
				}
			},
			"name":"simple rock wall",
			"normalTexture":{
				"index":3,
				"scale":0.4000000059604645
			},
			"pbrMetallicRoughness":{
				"baseColorTexture":{
					"index":4
				},
				"metallicFactor":0
			}
		},
		{
			"doubleSided":true,
			"extensions":{
				"KHR_materials_specular":{
					"specularColorTexture":{
						"index":5
					},
					"specularColorFactor":[
						1.8888889551162718,
						1.1666666269302366,
						1
					]
				}
			},
			"name":"grass_terrace",
			"normalTexture":{
				"index":6,
				"scale":2
			},
			"pbrMetallicRoughness":{
				"baseColorTexture":{
					"index":7
				},
				"metallicFactor":0
			}
		}
	],
	"meshes":[
		{
			"name":"Plane.012",
			"primitives":[
				{
					"attributes":{
						"POSITION":0,
						"NORMAL":1,
						"TEXCOORD_0":2
					},
					"indices":3,
					"material":0
				},
				{
					"attributes":{
						"POSITION":4,
						"NORMAL":5,
						"TEXCOORD_0":6
					},
					"indices":7,
					"material":1
				},
				{
					"attributes":{
						"POSITION":8,
						"NORMAL":9,
						"TEXCOORD_0":10
					},
					"indices":11,
					"material":2
				}
			]
		}
	],
	"textures":[
		{
			"sampler":0,
			"source":0
		},
		{
			"sampler":0,
			"source":1
		},
		{
			"sampler":0,
			"source":2
		},
		{
			"sampler":0,
			"source":3
		},
		{
			"sampler":0,
			"source":4
		},
		{
			"sampler":0,
			"source":5
		},
		{
			"sampler":0,
			"source":6
		},
		{
			"sampler":0,
			"source":7
		}
	],
	"images":[
		{
			"mimeType":"image/png",
			"name":"Image",
			"uri":"Image.png"
		},
		{
			"mimeType":"image/png",
			"name":"hello_little_tree",
			"uri":"hello_little_tree.png"
		},
		{
			"mimeType":"image/png",
			"name":"Image",
			"uri":"Image-1.png"
		},
		{
			"mimeType":"image/png",
			"name":"newstonewall_normal",
			"uri":"newstonewall_normal.png"
		},
		{
			"mimeType":"image/png",
			"name":"new_stone_2",
			"uri":"new_stone_2.png"
		},
		{
			"mimeType":"image/png",
			"name":"Image",
			"uri":"Image-2.png"
		},
		{
			"mimeType":"image/png",
			"name":"newgrass_normal",
			"uri":"newgrass_normal.png"
		},
		{
			"mimeType":"image/jpeg",
			"name":"150_alpine_green_grass_texture-seamless",
			"uri":"150_alpine_green_grass_texture-seamless.jpg"
		}
	],
	"accessors":[
		{
			"bufferView":0,
			"componentType":5126,
			"count":192,
			"max":[
				8.204425811767578,
				31.83477020263672,
				3.5466299057006836
			],
			"min":[
				-41.06092834472656,
				-20.315608978271484,
				-12.899707794189453
			],
			"type":"VEC3"
		},
		{
			"bufferView":1,
			"componentType":5126,
			"count":192,
			"type":"VEC3"
		},
		{
			"bufferView":2,
			"componentType":5126,
			"count":192,
			"type":"VEC2"
		},
		{
			"bufferView":3,
			"componentType":5123,
			"count":288,
			"type":"SCALAR"
		},
		{
			"bufferView":4,
			"componentType":5126,
			"count":24238,
			"max":[
				18.40920639038086,
				45.85905075073242,
				18.899904251098633
			],
			"min":[
				-47.09627151489258,
				-43.58075714111328,
				-13.877096176147461
			],
			"type":"VEC3"
		},
		{
			"bufferView":5,
			"componentType":5126,
			"count":24238,
			"type":"VEC3"
		},
		{
			"bufferView":6,
			"componentType":5126,
			"count":24238,
			"type":"VEC2"
		},
		{
			"bufferView":7,
			"componentType":5123,
			"count":29547,
			"type":"SCALAR"
		},
		{
			"bufferView":8,
			"componentType":5126,
			"count":413,
			"max":[
				18.40920639038086,
				45.85905075073242,
				16.137205123901367
			],
			"min":[
				-64.0556869506836,
				-42.938804626464844,
				-13.144588470458984
			],
			"type":"VEC3"
		},
		{
			"bufferView":9,
			"componentType":5126,
			"count":413,
			"type":"VEC3"
		},
		{
			"bufferView":10,
			"componentType":5126,
			"count":413,
			"type":"VEC2"
		},
		{
			"bufferView":11,
			"componentType":5123,
			"count":1008,
			"type":"SCALAR"
		}
	],
	"bufferViews":[
		{
			"buffer":0,
			"byteLength":2304,
			"byteOffset":0,
			"target":34962
		},
		{
			"buffer":0,
			"byteLength":2304,
			"byteOffset":2304,
			"target":34962
		},
		{
			"buffer":0,
			"byteLength":1536,
			"byteOffset":4608,
			"target":34962
		},
		{
			"buffer":0,
			"byteLength":576,
			"byteOffset":6144,
			"target":34963
		},
		{
			"buffer":0,
			"byteLength":290856,
			"byteOffset":6720,
			"target":34962
		},
		{
			"buffer":0,
			"byteLength":290856,
			"byteOffset":297576,
			"target":34962
		},
		{
			"buffer":0,
			"byteLength":193904,
			"byteOffset":588432,
			"target":34962
		},
		{
			"buffer":0,
			"byteLength":59094,
			"byteOffset":782336,
			"target":34963
		},
		{
			"buffer":0,
			"byteLength":4956,
			"byteOffset":841432,
			"target":34962
		},
		{
			"buffer":0,
			"byteLength":4956,
			"byteOffset":846388,
			"target":34962
		},
		{
			"buffer":0,
			"byteLength":3304,
			"byteOffset":851344,
			"target":34962
		},
		{
			"buffer":0,
			"byteLength":2016,
			"byteOffset":854648,
			"target":34963
		}
	],
	"samplers":[
		{
			"magFilter":9729,
			"minFilter":9987
		}
	],
	"buffers":[
		{
			"byteLength":856664,
			"uri":"mdl_franch_CITY.bin"
		}
	]
}
