{
	"asset":{
		"generator":"Khronos glTF Blender I/O v4.0.44",
		"version":"2.0"
	},
	"extensionsUsed":[
		"KHR_materials_emissive_strength"
	],
	"scene":0,
	"scenes":[
		{
			"name":"Scene",
			"nodes":[
				8,
				13
			]
		}
	],
	"nodes":[
		{
			"mesh":0,
			"name":"1 - Chain LP_bronze_0"
		},
		{
			"children":[
				0
			],
			"name":"1 - Chain LP",
			"rotation":[
				-0.70710688829422,
				0,
				0,
				0.7071066498756409
			],
			"scale":[
				100,
				99.99998474121094,
				99.99998474121094
			]
		},
		{
			"mesh":1,
			"name":"1 - Frames_bronze_0"
		},
		{
			"children":[
				2
			],
			"name":"1 - Frames",
			"rotation":[
				-0.70710688829422,
				0,
				0,
				0.7071066498756409
			],
			"scale":[
				100,
				99.99998474121094,
				99.99998474121094
			]
		},
		{
			"mesh":2,
			"name":"1 - Glass_glass_0"
		},
		{
			"children":[
				4
			],
			"name":"1 - Glass",
			"rotation":[
				-0.70710688829422,
				0,
				0,
				0.7071066498756409
			],
			"scale":[
				100,
				99.99998474121094,
				99.99998474121094
			]
		},
		{
			"children":[
				1,
				3,
				5
			],
			"name":"RootNode"
		},
		{
			"children":[
				6
			],
			"name":"64dbb8e9f39b45d4872b0d9bf25a29ff.fbx",
			"rotation":[
				0.70710688829422,
				0,
				0,
				0.7071066498756409
			],
			"scale":[
				0.009999999776482582,
				0.009999999776482582,
				0.009999999776482582
			]
		},
		{
			"children":[
				7
			],
			"name":"Sketchfab_model",
			"rotation":[
				-0.70710688829422,
				0,
				0,
				0.7071066498756409
			]
		},
		{
			"mesh":3,
			"name":"1 - Chain LP_bronze_0.001"
		},
		{
			"children":[
				9
			],
			"name":"1 - Chain LP.001",
			"rotation":[
				-0.70710688829422,
				0,
				0,
				0.7071066498756409
			],
			"scale":[
				100,
				99.99998474121094,
				99.99998474121094
			]
		},
		{
			"children":[
				10
			],
			"name":"RootNode.001"
		},
		{
			"children":[
				11
			],
			"name":"64dbb8e9f39b45d4872b0d9bf25a29ff.fbx.001",
			"rotation":[
				0.70710688829422,
				0,
				0,
				0.7071066498756409
			],
			"scale":[
				0.009999999776482582,
				0.009999999776482582,
				0.009999999776482582
			]
		},
		{
			"children":[
				12
			],
			"name":"Sketchfab_model.001",
			"rotation":[
				-0.70710688829422,
				0,
				0,
				0.7071066498756409
			],
			"translation":[
				0,
				3.0734665393829346,
				0
			]
		}
	],
	"materials":[
		{
			"doubleSided":true,
			"name":"bronze.006",
			"normalTexture":{
				"index":0
			},
			"pbrMetallicRoughness":{
				"baseColorTexture":{
					"index":1
				},
				"metallicRoughnessTexture":{
					"index":2
				}
			}
		},
		{
			"emissiveFactor":[
				1,
				1,
				1
			],
			"emissiveTexture":{
				"index":3
			},
			"extensions":{
				"KHR_materials_emissive_strength":{
					"emissiveStrength":10
				}
			},
			"name":"glass.003",
			"normalTexture":{
				"index":4
			},
			"pbrMetallicRoughness":{
				"baseColorTexture":{
					"index":5
				},
				"metallicRoughnessTexture":{
					"index":6
				}
			}
		},
		{
			"doubleSided":true,
			"name":"bronze.007",
			"normalTexture":{
				"index":7
			},
			"pbrMetallicRoughness":{
				"baseColorTexture":{
					"index":8
				},
				"metallicRoughnessTexture":{
					"index":9
				}
			}
		}
	],
	"meshes":[
		{
			"name":"1 - Chain LP_bronze_0.006",
			"primitives":[
				{
					"attributes":{
						"POSITION":0,
						"NORMAL":1,
						"TEXCOORD_0":2
					},
					"indices":3,
					"material":0
				}
			]
		},
		{
			"name":"1 - Frames_bronze_0.003",
			"primitives":[
				{
					"attributes":{
						"POSITION":4,
						"NORMAL":5,
						"TEXCOORD_0":6
					},
					"indices":7,
					"material":0
				}
			]
		},
		{
			"name":"1 - Glass_glass_0.003",
			"primitives":[
				{
					"attributes":{
						"POSITION":8,
						"NORMAL":9,
						"TEXCOORD_0":10
					},
					"indices":11,
					"material":1
				}
			]
		},
		{
			"name":"1 - Chain LP_bronze_0.007",
			"primitives":[
				{
					"attributes":{
						"POSITION":12,
						"NORMAL":13,
						"TEXCOORD_0":14
					},
					"indices":15,
					"material":2
				}
			]
		}
	],
	"textures":[
		{
			"sampler":0,
			"source":0
		},
		{
			"sampler":0,
			"source":1
		},
		{
			"sampler":0,
			"source":2
		},
		{
			"sampler":0,
			"source":3
		},
		{
			"sampler":0,
			"source":4
		},
		{
			"sampler":0,
			"source":5
		},
		{
			"sampler":0,
			"source":6
		},
		{
			"sampler":0,
			"source":0
		},
		{
			"sampler":0,
			"source":1
		},
		{
			"sampler":0,
			"source":2
		}
	],
	"images":[
		{
			"mimeType":"image/png",
			"name":"bronze_normal",
			"uri":"bronze_normal.png"
		},
		{
			"mimeType":"image/png",
			"name":"bronze_baseColor",
			"uri":"bronze_baseColor.png"
		},
		{
			"mimeType":"image/png",
			"name":"bronze_metallicRoughness",
			"uri":"bronze_metallicRoughness.png"
		},
		{
			"mimeType":"image/png",
			"name":"glass_emissive",
			"uri":"glass_emissive.png"
		},
		{
			"mimeType":"image/png",
			"name":"glass_normal",
			"uri":"glass_normal.png"
		},
		{
			"mimeType":"image/png",
			"name":"glass_baseColor",
			"uri":"glass_baseColor.png"
		},
		{
			"mimeType":"image/png",
			"name":"glass_metallicRoughness",
			"uri":"glass_metallicRoughness.png"
		}
	],
	"accessors":[
		{
			"bufferView":0,
			"componentType":5126,
			"count":3538,
			"max":[
				0.07039699703454971,
				0.07039675861597061,
				4.5104875564575195
			],
			"min":[
				-0.07039699703454971,
				-0.07039724290370941,
				1.36457097530365
			],
			"type":"VEC3"
		},
		{
			"bufferView":1,
			"componentType":5126,
			"count":3538,
			"type":"VEC3"
		},
		{
			"bufferView":2,
			"componentType":5126,
			"count":3538,
			"type":"VEC2"
		},
		{
			"bufferView":3,
			"componentType":5123,
			"count":17994,
			"type":"SCALAR"
		},
		{
			"bufferView":4,
			"componentType":5126,
			"count":2558,
			"max":[
				0.5193259716033936,
				0.5159624814987183,
				1.3893287181854248
			],
			"min":[
				-0.511530876159668,
				-0.5153244733810425,
				-1.3905458450317383
			],
			"type":"VEC3"
		},
		{
			"bufferView":5,
			"componentType":5126,
			"count":2558,
			"type":"VEC3"
		},
		{
			"bufferView":6,
			"componentType":5126,
			"count":2558,
			"type":"VEC2"
		},
		{
			"bufferView":7,
			"componentType":5123,
			"count":9729,
			"type":"SCALAR"
		},
		{
			"bufferView":8,
			"componentType":5126,
			"count":1111,
			"max":[
				0.9724157452583313,
				0.9724151492118835,
				0.7027390599250793
			],
			"min":[
				-0.9724151492118835,
				-0.9724154472351074,
				-0.7027390599250793
			],
			"type":"VEC3"
		},
		{
			"bufferView":9,
			"componentType":5126,
			"count":1111,
			"type":"VEC3"
		},
		{
			"bufferView":10,
			"componentType":5126,
			"count":1111,
			"type":"VEC2"
		},
		{
			"bufferView":11,
			"componentType":5123,
			"count":6144,
			"type":"SCALAR"
		},
		{
			"bufferView":12,
			"componentType":5126,
			"count":2847,
			"max":[
				0.07039699703454971,
				0.07039675861597061,
				4.505690574645996
			],
			"min":[
				-0.07039699703454971,
				-0.07039724290370941,
				1.36457097530365
			],
			"type":"VEC3"
		},
		{
			"bufferView":13,
			"componentType":5126,
			"count":2847,
			"type":"VEC3"
		},
		{
			"bufferView":14,
			"componentType":5126,
			"count":2847,
			"type":"VEC2"
		},
		{
			"bufferView":15,
			"componentType":5123,
			"count":14061,
			"type":"SCALAR"
		}
	],
	"bufferViews":[
		{
			"buffer":0,
			"byteLength":42456,
			"byteOffset":0,
			"target":34962
		},
		{
			"buffer":0,
			"byteLength":42456,
			"byteOffset":42456,
			"target":34962
		},
		{
			"buffer":0,
			"byteLength":28304,
			"byteOffset":84912,
			"target":34962
		},
		{
			"buffer":0,
			"byteLength":35988,
			"byteOffset":113216,
			"target":34963
		},
		{
			"buffer":0,
			"byteLength":30696,
			"byteOffset":149204,
			"target":34962
		},
		{
			"buffer":0,
			"byteLength":30696,
			"byteOffset":179900,
			"target":34962
		},
		{
			"buffer":0,
			"byteLength":20464,
			"byteOffset":210596,
			"target":34962
		},
		{
			"buffer":0,
			"byteLength":19458,
			"byteOffset":231060,
			"target":34963
		},
		{
			"buffer":0,
			"byteLength":13332,
			"byteOffset":250520,
			"target":34962
		},
		{
			"buffer":0,
			"byteLength":13332,
			"byteOffset":263852,
			"target":34962
		},
		{
			"buffer":0,
			"byteLength":8888,
			"byteOffset":277184,
			"target":34962
		},
		{
			"buffer":0,
			"byteLength":12288,
			"byteOffset":286072,
			"target":34963
		},
		{
			"buffer":0,
			"byteLength":34164,
			"byteOffset":298360,
			"target":34962
		},
		{
			"buffer":0,
			"byteLength":34164,
			"byteOffset":332524,
			"target":34962
		},
		{
			"buffer":0,
			"byteLength":22776,
			"byteOffset":366688,
			"target":34962
		},
		{
			"buffer":0,
			"byteLength":28122,
			"byteOffset":389464,
			"target":34963
		}
	],
	"samplers":[
		{
			"magFilter":9729,
			"minFilter":9987
		}
	],
	"buffers":[
		{
			"byteLength":417588,
			"uri":"green_chandelier.bin"
		}
	]
}
