{
	"asset":{
		"generator":"Khronos glTF Blender I/O v4.1.63",
		"version":"2.0"
	},
	"scene":0,
	"scenes":[
		{
			"name":"Scene",
			"nodes":[
				4
			]
		}
	],
	"nodes":[
		{
			"name":"Object_3"
		},
		{
			"mesh":0,
			"name":"Object_6"
		},
		{
			"name":"Object_8"
		},
		{
			"children":[
				0,
				1,
				2
			],
			"name":"sketch.obj.cleaner.materialmerger.gles"
		},
		{
			"children":[
				3
			],
			"name":"Sketchfab_model",
			"rotation":[
				0,
				-0.7071068286895752,
				-0.7071068286895752,
				1.00153539642818e-16
			]
		}
	],
	"materials":[
		{
			"alphaCutoff":0.38834714889526367,
			"alphaMode":"MASK",
			"name":"diffuse.002",
			"normalTexture":{
				"index":0
			},
			"pbrMetallicRoughness":{
				"baseColorTexture":{
					"index":1
				},
				"metallicFactor":0,
				"metallicRoughnessTexture":{
					"index":2
				}
			}
		}
	],
	"meshes":[
		{
			"name":"Object_4.002",
			"primitives":[
				{
					"attributes":{
						"POSITION":0,
						"NORMAL":1,
						"TEXCOORD_0":2
					},
					"indices":3,
					"material":0
				}
			]
		}
	],
	"textures":[
		{
			"sampler":0,
			"source":0
		},
		{
			"sampler":0,
			"source":1
		},
		{
			"sampler":0,
			"source":2
		}
	],
	"images":[
		{
			"mimeType":"image/png",
			"name":"diffuse_normal",
			"uri":"diffuse_normal.png"
		},
		{
			"mimeType":"image/png",
			"name":"diffuse_baseColor",
			"uri":"diffuse_baseColor.png"
		},
		{
			"mimeType":"image/png",
			"name":"diffuse_metallicRoughness",
			"uri":"diffuse_metallicRoughness.png"
		}
	],
	"accessors":[
		{
			"bufferView":0,
			"componentType":5126,
			"count":13122,
			"max":[
				8.838902473449707,
				6.87413215637207,
				24.82931900024414
			],
			"min":[
				-10.12316608428955,
				-6.54516077041626,
				-9.023927167572249e-14
			],
			"type":"VEC3"
		},
		{
			"bufferView":1,
			"componentType":5126,
			"count":13122,
			"type":"VEC3"
		},
		{
			"bufferView":2,
			"componentType":5126,
			"count":13122,
			"type":"VEC2"
		},
		{
			"bufferView":3,
			"componentType":5123,
			"count":23436,
			"type":"SCALAR"
		}
	],
	"bufferViews":[
		{
			"buffer":0,
			"byteLength":157464,
			"byteOffset":0,
			"target":34962
		},
		{
			"buffer":0,
			"byteLength":157464,
			"byteOffset":157464,
			"target":34962
		},
		{
			"buffer":0,
			"byteLength":104976,
			"byteOffset":314928,
			"target":34962
		},
		{
			"buffer":0,
			"byteLength":46872,
			"byteOffset":419904,
			"target":34963
		}
	],
	"samplers":[
		{
			"magFilter":9729,
			"minFilter":9987
		}
	],
	"buffers":[
		{
			"byteLength":466776,
			"uri":"mdl_wollo_rothenburg_2.bin"
		}
	]
}
