{
	"asset":{
		"generator":"Khronos glTF Blender I/O v4.0.44",
		"version":"2.0"
	},
	"scene":0,
	"scenes":[
		{
			"name":"Scene",
			"nodes":[
				20
			]
		}
	],
	"nodes":[
		{
			"mesh":0,
			"name":"Radio_1_Low_Material.001_0"
		},
		{
			"children":[
				0
			],
			"name":"Radio_1_Low",
			"rotation":[
				-0.70710688829422,
				0,
				0,
				0.7071066498756409
			],
			"scale":[
				100,
				99.99999237060547,
				99.99999237060547
			],
			"translation":[
				-1.581856608390808,
				8.5,
				0
			]
		},
		{
			"mesh":1,
			"name":"Radio_2_Low.002_Material.001_0"
		},
		{
			"children":[
				2
			],
			"name":"Radio_2_Low.002",
			"rotation":[
				-0.70710688829422,
				0,
				0,
				0.7071066498756409
			],
			"scale":[
				100,
				99.99999237060547,
				99.99999237060547
			],
			"translation":[
				-0.3780186176300049,
				9.20888614654541,
				0.44722557067871094
			]
		},
		{
			"mesh":2,
			"name":"Radio_3_Low.003_Material.001_0"
		},
		{
			"children":[
				4
			],
			"name":"Radio_3_Low.003",
			"rotation":[
				-0.70710688829422,
				0,
				0,
				0.7071066498756409
			],
			"scale":[
				100,
				99.99999237060547,
				99.99999237060547
			],
			"translation":[
				-0.3780186176300049,
				8.5,
				-0.03929845616221428
			]
		},
		{
			"mesh":3,
			"name":"Radio_4_Low.002_Material.001_0"
		},
		{
			"children":[
				6
			],
			"name":"Radio_4_Low.002",
			"rotation":[
				-0.70710688829422,
				0,
				0,
				0.7071066498756409
			],
			"scale":[
				100,
				99.99999237060547,
				99.99999237060547
			],
			"translation":[
				-4.354093074798584,
				5.321295738220215,
				0
			]
		},
		{
			"mesh":4,
			"name":"Radio_5_Low.001_Material.001_0"
		},
		{
			"children":[
				8
			],
			"name":"Radio_5_Low.001",
			"rotation":[
				-0.70710688829422,
				0,
				0,
				0.7071066498756409
			],
			"scale":[
				100,
				99.99999237060547,
				99.99999237060547
			],
			"translation":[
				1.3237887620925903,
				17.430936813354492,
				0
			]
		},
		{
			"mesh":5,
			"name":"Radio_5_Low.006_Material.001_0"
		},
		{
			"children":[
				10
			],
			"name":"Radio_5_Low.006",
			"rotation":[
				0,
				0.7071066498756409,
				0,
				0.70710688829422
			],
			"scale":[
				99.99999237060547,
				99.99999237060547,
				99.99998474121094
			],
			"translation":[
				1.6178287267684937,
				14.9346284866333,
				7.456060409545898
			]
		},
		{
			"mesh":6,
			"name":"Radio_6_Low.004_Material.001_0"
		},
		{
			"children":[
				12
			],
			"name":"Radio_6_Low.004",
			"rotation":[
				-0.70710688829422,
				0,
				0,
				0.7071066498756409
			],
			"scale":[
				100,
				99.99999237060547,
				99.99999237060547
			],
			"translation":[
				1.3237887620925903,
				17.430936813354492,
				0
			]
		},
		{
			"mesh":7,
			"name":"Radio_7_Low_Material.001_0"
		},
		{
			"children":[
				14
			],
			"name":"Radio_7_Low",
			"rotation":[
				-0.70710688829422,
				0,
				0,
				0.7071066498756409
			],
			"scale":[
				100,
				99.99999237060547,
				99.99999237060547
			],
			"translation":[
				-0.5652047395706177,
				8.265850067138672,
				0.44722557067871094
			]
		},
		{
			"mesh":8,
			"name":"Radio_Low_Material.001_0"
		},
		{
			"children":[
				16
			],
			"name":"Radio_Low",
			"rotation":[
				-0.70710688829422,
				0,
				0,
				0.7071066498756409
			],
			"scale":[
				100,
				99.99999237060547,
				99.99999237060547
			],
			"translation":[
				-0.3780186176300049,
				8.265850067138672,
				0.44722557067871094
			]
		},
		{
			"children":[
				1,
				3,
				5,
				7,
				9,
				11,
				13,
				15,
				17
			],
			"name":"RootNode"
		},
		{
			"children":[
				18
			],
			"name":"dc7c9c4efc1346e09f709e56df9bceb8.fbx",
			"rotation":[
				0.70710688829422,
				0,
				0,
				0.7071066498756409
			],
			"scale":[
				0.009999999776482582,
				0.010000000707805157,
				0.010000000707805157
			]
		},
		{
			"children":[
				19
			],
			"name":"Sketchfab_model",
			"rotation":[
				-0.70710688829422,
				0,
				0,
				0.7071066498756409
			]
		}
	],
	"materials":[
		{
			"alphaMode":"BLEND",
			"doubleSided":true,
			"name":"Material.111",
			"normalTexture":{
				"index":0
			},
			"pbrMetallicRoughness":{
				"baseColorTexture":{
					"index":1
				},
				"metallicRoughnessTexture":{
					"index":2
				}
			}
		}
	],
	"meshes":[
		{
			"name":"Radio_1_Low_Material.001_0.003",
			"primitives":[
				{
					"attributes":{
						"POSITION":0,
						"NORMAL":1,
						"TEXCOORD_0":2,
						"TEXCOORD_1":3
					},
					"indices":4,
					"material":0
				}
			]
		},
		{
			"name":"Radio_2_Low.002_Material.001_0.003",
			"primitives":[
				{
					"attributes":{
						"POSITION":5,
						"NORMAL":6,
						"TEXCOORD_0":7,
						"TEXCOORD_1":8
					},
					"indices":9,
					"material":0
				}
			]
		},
		{
			"name":"Radio_3_Low.003_Material.001_0.003",
			"primitives":[
				{
					"attributes":{
						"POSITION":10,
						"NORMAL":11,
						"TEXCOORD_0":12,
						"TEXCOORD_1":13
					},
					"indices":14,
					"material":0
				}
			]
		},
		{
			"name":"Radio_4_Low.002_Material.001_0.003",
			"primitives":[
				{
					"attributes":{
						"POSITION":15,
						"NORMAL":16,
						"TEXCOORD_0":17,
						"TEXCOORD_1":18
					},
					"indices":19,
					"material":0
				}
			]
		},
		{
			"name":"Radio_5_Low.001_Material.001_0.003",
			"primitives":[
				{
					"attributes":{
						"POSITION":20,
						"NORMAL":21,
						"TEXCOORD_0":22,
						"TEXCOORD_1":23
					},
					"indices":24,
					"material":0
				}
			]
		},
		{
			"name":"Radio_5_Low.006_Material.001_0.003",
			"primitives":[
				{
					"attributes":{
						"POSITION":25,
						"NORMAL":26,
						"TEXCOORD_0":27,
						"TEXCOORD_1":28
					},
					"indices":29,
					"material":0
				}
			]
		},
		{
			"name":"Radio_6_Low.004_Material.001_0.003",
			"primitives":[
				{
					"attributes":{
						"POSITION":30,
						"NORMAL":31,
						"TEXCOORD_0":32,
						"TEXCOORD_1":33
					},
					"indices":34,
					"material":0
				}
			]
		},
		{
			"name":"Radio_7_Low_Material.001_0.003",
			"primitives":[
				{
					"attributes":{
						"POSITION":35,
						"NORMAL":36,
						"TEXCOORD_0":37,
						"TEXCOORD_1":38
					},
					"indices":39,
					"material":0
				}
			]
		},
		{
			"name":"Radio_Low_Material.001_0.003",
			"primitives":[
				{
					"attributes":{
						"POSITION":40,
						"NORMAL":41,
						"TEXCOORD_0":42,
						"TEXCOORD_1":43
					},
					"indices":44,
					"material":0
				}
			]
		}
	],
	"textures":[
		{
			"sampler":0,
			"source":0
		},
		{
			"sampler":0,
			"source":1
		},
		{
			"sampler":0,
			"source":2
		}
	],
	"images":[
		{
			"mimeType":"image/png",
			"name":"Image_2",
			"uri":"Image_2.png"
		},
		{
			"mimeType":"image/png",
			"name":"Image_0",
			"uri":"Image_0.png"
		},
		{
			"mimeType":"image/png",
			"name":"Image_1",
			"uri":"Image_1.png"
		}
	],
	"accessors":[
		{
			"bufferView":0,
			"componentType":5126,
			"count":112,
			"max":[
				0.052468299865722656,
				0.05299508944153786,
				0.06855819374322891
			],
			"min":[
				0.049452848732471466,
				-0.10244078934192657,
				-0.07041551172733307
			],
			"type":"VEC3"
		},
		{
			"bufferView":1,
			"componentType":5126,
			"count":112,
			"type":"VEC3"
		},
		{
			"bufferView":2,
			"componentType":5126,
			"count":112,
			"type":"VEC2"
		},
		{
			"bufferView":3,
			"componentType":5126,
			"count":112,
			"type":"VEC2"
		},
		{
			"bufferView":4,
			"componentType":5123,
			"count":486,
			"type":"SCALAR"
		},
		{
			"bufferView":5,
			"componentType":5126,
			"count":40,
			"max":[
				0.01679552160203457,
				0.12725301086902618,
				0.03705405443906784
			],
			"min":[
				-0.01669279858469963,
				-0.12725301086902618,
				-0.037154506891965866
			],
			"type":"VEC3"
		},
		{
			"bufferView":6,
			"componentType":5126,
			"count":40,
			"type":"VEC3"
		},
		{
			"bufferView":7,
			"componentType":5126,
			"count":40,
			"type":"VEC2"
		},
		{
			"bufferView":8,
			"componentType":5126,
			"count":40,
			"type":"VEC2"
		},
		{
			"bufferView":9,
			"componentType":5123,
			"count":132,
			"type":"SCALAR"
		},
		{
			"bufferView":10,
			"componentType":5126,
			"count":174,
			"max":[
				0.013528846204280853,
				0.11228174716234207,
				0.12648576498031616
			],
			"min":[
				-0.013600839301943779,
				-0.12155576795339584,
				0.040299415588378906
			],
			"type":"VEC3"
		},
		{
			"bufferView":11,
			"componentType":5126,
			"count":174,
			"type":"VEC3"
		},
		{
			"bufferView":12,
			"componentType":5126,
			"count":174,
			"type":"VEC2"
		},
		{
			"bufferView":13,
			"componentType":5126,
			"count":174,
			"type":"VEC2"
		},
		{
			"bufferView":14,
			"componentType":5123,
			"count":672,
			"type":"SCALAR"
		},
		{
			"bufferView":15,
			"componentType":5126,
			"count":32,
			"max":[
				0.002218590583652258,
				0.07354629784822464,
				0.021280363202095032
			],
			"min":[
				-0.00026719924062490463,
				-0.07354629784822464,
				-0.021280363202095032
			],
			"type":"VEC3"
		},
		{
			"bufferView":16,
			"componentType":5126,
			"count":32,
			"type":"VEC3"
		},
		{
			"bufferView":17,
			"componentType":5126,
			"count":32,
			"type":"VEC2"
		},
		{
			"bufferView":18,
			"componentType":5126,
			"count":32,
			"type":"VEC2"
		},
		{
			"bufferView":19,
			"componentType":5123,
			"count":72,
			"type":"SCALAR"
		},
		{
			"bufferView":20,
			"componentType":5126,
			"count":40,
			"max":[
				0.00547558581456542,
				0.03322306647896767,
				0.006343872286379337
			],
			"min":[
				-0.00547558581456542,
				-0.03277141600847244,
				0.003444117959588766
			],
			"type":"VEC3"
		},
		{
			"bufferView":21,
			"componentType":5126,
			"count":40,
			"type":"VEC3"
		},
		{
			"bufferView":22,
			"componentType":5126,
			"count":40,
			"type":"VEC2"
		},
		{
			"bufferView":23,
			"componentType":5126,
			"count":40,
			"type":"VEC2"
		},
		{
			"bufferView":24,
			"componentType":5123,
			"count":102,
			"type":"SCALAR"
		},
		{
			"bufferView":25,
			"componentType":5126,
			"count":36,
			"max":[
				0.013219255022704601,
				0.023794105276465416,
				0.002786649391055107
			],
			"min":[
				-0.018126724287867546,
				0.01575668528676033,
				-0.0027345512062311172
			],
			"type":"VEC3"
		},
		{
			"bufferView":26,
			"componentType":5126,
			"count":36,
			"type":"VEC3"
		},
		{
			"bufferView":27,
			"componentType":5126,
			"count":36,
			"type":"VEC2"
		},
		{
			"bufferView":28,
			"componentType":5126,
			"count":36,
			"type":"VEC2"
		},
		{
			"bufferView":29,
			"componentType":5123,
			"count":90,
			"type":"SCALAR"
		},
		{
			"bufferView":30,
			"componentType":5126,
			"count":68,
			"max":[
				0.009144414216279984,
				0.054831910878419876,
				0.004093531984835863
			],
			"min":[
				-0.009144414216279984,
				-0.054831910878419876,
				-0.005091512575745583
			],
			"type":"VEC3"
		},
		{
			"bufferView":31,
			"componentType":5126,
			"count":68,
			"type":"VEC3"
		},
		{
			"bufferView":32,
			"componentType":5126,
			"count":68,
			"type":"VEC2"
		},
		{
			"bufferView":33,
			"componentType":5126,
			"count":68,
			"type":"VEC2"
		},
		{
			"bufferView":34,
			"componentType":5123,
			"count":192,
			"type":"SCALAR"
		},
		{
			"bufferView":35,
			"componentType":5126,
			"count":18,
			"max":[
				0.04464438185095787,
				0.09820711612701416,
				0.06825780868530273
			],
			"min":[
				0.04464437812566757,
				0.024675454944372177,
				-0.0016749575734138489
			],
			"type":"VEC3"
		},
		{
			"bufferView":36,
			"componentType":5126,
			"count":18,
			"type":"VEC3"
		},
		{
			"bufferView":37,
			"componentType":5126,
			"count":18,
			"type":"VEC2"
		},
		{
			"bufferView":38,
			"componentType":5126,
			"count":18,
			"type":"VEC2"
		},
		{
			"bufferView":39,
			"componentType":5123,
			"count":24,
			"type":"SCALAR"
		},
		{
			"bufferView":40,
			"componentType":5126,
			"count":297,
			"max":[
				0.044676028192043304,
				0.12128641456365585,
				0.08659335970878601
			],
			"min":[
				-0.03758028522133827,
				-0.12128641456365585,
				-0.08684153109788895
			],
			"type":"VEC3"
		},
		{
			"bufferView":41,
			"componentType":5126,
			"count":297,
			"type":"VEC3"
		},
		{
			"bufferView":42,
			"componentType":5126,
			"count":297,
			"type":"VEC2"
		},
		{
			"bufferView":43,
			"componentType":5126,
			"count":297,
			"type":"VEC2"
		},
		{
			"bufferView":44,
			"componentType":5123,
			"count":756,
			"type":"SCALAR"
		}
	],
	"bufferViews":[
		{
			"buffer":0,
			"byteLength":1344,
			"byteOffset":0,
			"target":34962
		},
		{
			"buffer":0,
			"byteLength":1344,
			"byteOffset":1344,
			"target":34962
		},
		{
			"buffer":0,
			"byteLength":896,
			"byteOffset":2688,
			"target":34962
		},
		{
			"buffer":0,
			"byteLength":896,
			"byteOffset":3584,
			"target":34962
		},
		{
			"buffer":0,
			"byteLength":972,
			"byteOffset":4480,
			"target":34963
		},
		{
			"buffer":0,
			"byteLength":480,
			"byteOffset":5452,
			"target":34962
		},
		{
			"buffer":0,
			"byteLength":480,
			"byteOffset":5932,
			"target":34962
		},
		{
			"buffer":0,
			"byteLength":320,
			"byteOffset":6412,
			"target":34962
		},
		{
			"buffer":0,
			"byteLength":320,
			"byteOffset":6732,
			"target":34962
		},
		{
			"buffer":0,
			"byteLength":264,
			"byteOffset":7052,
			"target":34963
		},
		{
			"buffer":0,
			"byteLength":2088,
			"byteOffset":7316,
			"target":34962
		},
		{
			"buffer":0,
			"byteLength":2088,
			"byteOffset":9404,
			"target":34962
		},
		{
			"buffer":0,
			"byteLength":1392,
			"byteOffset":11492,
			"target":34962
		},
		{
			"buffer":0,
			"byteLength":1392,
			"byteOffset":12884,
			"target":34962
		},
		{
			"buffer":0,
			"byteLength":1344,
			"byteOffset":14276,
			"target":34963
		},
		{
			"buffer":0,
			"byteLength":384,
			"byteOffset":15620,
			"target":34962
		},
		{
			"buffer":0,
			"byteLength":384,
			"byteOffset":16004,
			"target":34962
		},
		{
			"buffer":0,
			"byteLength":256,
			"byteOffset":16388,
			"target":34962
		},
		{
			"buffer":0,
			"byteLength":256,
			"byteOffset":16644,
			"target":34962
		},
		{
			"buffer":0,
			"byteLength":144,
			"byteOffset":16900,
			"target":34963
		},
		{
			"buffer":0,
			"byteLength":480,
			"byteOffset":17044,
			"target":34962
		},
		{
			"buffer":0,
			"byteLength":480,
			"byteOffset":17524,
			"target":34962
		},
		{
			"buffer":0,
			"byteLength":320,
			"byteOffset":18004,
			"target":34962
		},
		{
			"buffer":0,
			"byteLength":320,
			"byteOffset":18324,
			"target":34962
		},
		{
			"buffer":0,
			"byteLength":204,
			"byteOffset":18644,
			"target":34963
		},
		{
			"buffer":0,
			"byteLength":432,
			"byteOffset":18848,
			"target":34962
		},
		{
			"buffer":0,
			"byteLength":432,
			"byteOffset":19280,
			"target":34962
		},
		{
			"buffer":0,
			"byteLength":288,
			"byteOffset":19712,
			"target":34962
		},
		{
			"buffer":0,
			"byteLength":288,
			"byteOffset":20000,
			"target":34962
		},
		{
			"buffer":0,
			"byteLength":180,
			"byteOffset":20288,
			"target":34963
		},
		{
			"buffer":0,
			"byteLength":816,
			"byteOffset":20468,
			"target":34962
		},
		{
			"buffer":0,
			"byteLength":816,
			"byteOffset":21284,
			"target":34962
		},
		{
			"buffer":0,
			"byteLength":544,
			"byteOffset":22100,
			"target":34962
		},
		{
			"buffer":0,
			"byteLength":544,
			"byteOffset":22644,
			"target":34962
		},
		{
			"buffer":0,
			"byteLength":384,
			"byteOffset":23188,
			"target":34963
		},
		{
			"buffer":0,
			"byteLength":216,
			"byteOffset":23572,
			"target":34962
		},
		{
			"buffer":0,
			"byteLength":216,
			"byteOffset":23788,
			"target":34962
		},
		{
			"buffer":0,
			"byteLength":144,
			"byteOffset":24004,
			"target":34962
		},
		{
			"buffer":0,
			"byteLength":144,
			"byteOffset":24148,
			"target":34962
		},
		{
			"buffer":0,
			"byteLength":48,
			"byteOffset":24292,
			"target":34963
		},
		{
			"buffer":0,
			"byteLength":3564,
			"byteOffset":24340,
			"target":34962
		},
		{
			"buffer":0,
			"byteLength":3564,
			"byteOffset":27904,
			"target":34962
		},
		{
			"buffer":0,
			"byteLength":2376,
			"byteOffset":31468,
			"target":34962
		},
		{
			"buffer":0,
			"byteLength":2376,
			"byteOffset":33844,
			"target":34962
		},
		{
			"buffer":0,
			"byteLength":1512,
			"byteOffset":36220,
			"target":34963
		}
	],
	"samplers":[
		{
			"magFilter":9729,
			"minFilter":9987
		}
	],
	"buffers":[
		{
			"byteLength":37732,
			"uri":"old_radio_player.bin"
		}
	]
}
