{
	"asset":{
		"generator":"Khronos glTF Blender I/O v4.1.63",
		"version":"2.0"
	},
	"scene":0,
	"scenes":[
		{
			"name":"Scene",
			"nodes":[
				5
			]
		}
	],
	"nodes":[
		{
			"mesh":0,
			"name":"SM_Wig_01a_MI_Wig_01a_0"
		},
		{
			"mesh":1,
			"name":"SM_Wig_01a_MI_Wig_01b_0"
		},
		{
			"children":[
				0,
				1
			],
			"name":"SM_Wig_01a",
			"rotation":[
				-0.70710688829422,
				0,
				0,
				0.7071066498756409
			]
		},
		{
			"children":[
				2
			],
			"name":"RootNode"
		},
		{
			"children":[
				3
			],
			"name":"uploads_files_2348854_SM_Wig_01a.fbx",
			"rotation":[
				0.70710688829422,
				0,
				0,
				0.7071066498756409
			],
			"scale":[
				0.009999999776482582,
				0.010000000707805157,
				0.010000000707805157
			]
		},
		{
			"children":[
				4
			],
			"name":"Sketchfab_model",
			"rotation":[
				-0.70710688829422,
				0,
				0,
				0.7071066498756409
			]
		}
	],
	"materials":[
		{
			"doubleSided":true,
			"name":"MI_Wig_01a",
			"normalTexture":{
				"index":0
			},
			"pbrMetallicRoughness":{
				"baseColorFactor":[
					0.2158609926700592,
					0.2158609926700592,
					0.2158609926700592,
					1
				],
				"metallicRoughnessTexture":{
					"index":1
				}
			}
		},
		{
			"doubleSided":true,
			"name":"MI_Wig_01b",
			"normalTexture":{
				"index":2
			},
			"occlusionTexture":{
				"index":3
			},
			"pbrMetallicRoughness":{
				"baseColorFactor":[
					0.6358071565628052,
					0.6358071565628052,
					0.6358071565628052,
					1
				],
				"metallicFactor":0,
				"metallicRoughnessTexture":{
					"index":3
				}
			}
		}
	],
	"meshes":[
		{
			"name":"SM_Wig_01a_MI_Wig_01a_0",
			"primitives":[
				{
					"attributes":{
						"POSITION":0,
						"NORMAL":1,
						"TEXCOORD_0":2,
						"TEXCOORD_1":3
					},
					"indices":4,
					"material":0
				}
			]
		},
		{
			"name":"SM_Wig_01a_MI_Wig_01b_0",
			"primitives":[
				{
					"attributes":{
						"POSITION":5,
						"NORMAL":6,
						"TEXCOORD_0":7,
						"TEXCOORD_1":8
					},
					"indices":9,
					"material":1
				}
			]
		}
	],
	"textures":[
		{
			"sampler":0,
			"source":0
		},
		{
			"sampler":0,
			"source":1
		},
		{
			"sampler":0,
			"source":0
		},
		{
			"sampler":0,
			"source":2
		}
	],
	"images":[
		{
			"mimeType":"image/png",
			"name":"MI_Wig_01a_normal",
			"uri":"MI_Wig_01a_normal.png"
		},
		{
			"mimeType":"image/png",
			"name":"MI_Wig_01a_metallicRoughness",
			"uri":"MI_Wig_01a_metallicRoughness.png"
		},
		{
			"mimeType":"image/png",
			"name":"MI_Wig_01b_metallicRoughness",
			"uri":"MI_Wig_01b_metallicRoughness.png"
		}
	],
	"accessors":[
		{
			"bufferView":0,
			"componentType":5126,
			"count":2992,
			"max":[
				11.76476764678955,
				16.720611572265625,
				3.488485336303711
			],
			"min":[
				-12.208541870117188,
				-11.260578155517578,
				-28.41100311279297
			],
			"type":"VEC3"
		},
		{
			"bufferView":1,
			"componentType":5126,
			"count":2992,
			"type":"VEC3"
		},
		{
			"bufferView":2,
			"componentType":5126,
			"count":2992,
			"type":"VEC2"
		},
		{
			"bufferView":3,
			"componentType":5126,
			"count":2992,
			"type":"VEC2"
		},
		{
			"bufferView":4,
			"componentType":5123,
			"count":15054,
			"type":"SCALAR"
		},
		{
			"bufferView":5,
			"componentType":5126,
			"count":2900,
			"max":[
				11.894705772399902,
				16.852998733520508,
				3.6195240020751953
			],
			"min":[
				-12.338479995727539,
				-11.391468048095703,
				-28.54169464111328
			],
			"type":"VEC3"
		},
		{
			"bufferView":6,
			"componentType":5126,
			"count":2900,
			"type":"VEC3"
		},
		{
			"bufferView":7,
			"componentType":5126,
			"count":2900,
			"type":"VEC2"
		},
		{
			"bufferView":8,
			"componentType":5126,
			"count":2900,
			"type":"VEC2"
		},
		{
			"bufferView":9,
			"componentType":5123,
			"count":14742,
			"type":"SCALAR"
		}
	],
	"bufferViews":[
		{
			"buffer":0,
			"byteLength":35904,
			"byteOffset":0,
			"target":34962
		},
		{
			"buffer":0,
			"byteLength":35904,
			"byteOffset":35904,
			"target":34962
		},
		{
			"buffer":0,
			"byteLength":23936,
			"byteOffset":71808,
			"target":34962
		},
		{
			"buffer":0,
			"byteLength":23936,
			"byteOffset":95744,
			"target":34962
		},
		{
			"buffer":0,
			"byteLength":30108,
			"byteOffset":119680,
			"target":34963
		},
		{
			"buffer":0,
			"byteLength":34800,
			"byteOffset":149788,
			"target":34962
		},
		{
			"buffer":0,
			"byteLength":34800,
			"byteOffset":184588,
			"target":34962
		},
		{
			"buffer":0,
			"byteLength":23200,
			"byteOffset":219388,
			"target":34962
		},
		{
			"buffer":0,
			"byteLength":23200,
			"byteOffset":242588,
			"target":34962
		},
		{
			"buffer":0,
			"byteLength":29484,
			"byteOffset":265788,
			"target":34963
		}
	],
	"samplers":[
		{
			"magFilter":9729,
			"minFilter":9987
		}
	],
	"buffers":[
		{
			"byteLength":295272,
			"uri":"wig.bin"
		}
	]
}
