{
	"asset":{
		"generator":"Khronos glTF Blender I/O v4.0.44",
		"version":"2.0"
	},
	"scene":0,
	"scenes":[
		{
			"name":"Scene",
			"nodes":[
				4
			]
		}
	],
	"nodes":[
		{
			"mesh":0,
			"name":"suitcase-sketchfab-texturing-challenge_01 - Default_0"
		},
		{
			"children":[
				0
			],
			"name":"suitcase-sketchfab-texturing-challenge",
			"rotation":[
				-0.70710688829422,
				0,
				0,
				0.7071066498756409
			]
		},
		{
			"children":[
				1
			],
			"name":"RootNode"
		},
		{
			"children":[
				2
			],
			"name":"22d367505f994fb6922552775016965c.fbx",
			"rotation":[
				0.70710688829422,
				0,
				0,
				0.7071066498756409
			]
		},
		{
			"children":[
				3
			],
			"name":"Sketchfab_model",
			"rotation":[
				-0.70710688829422,
				0,
				0,
				0.7071066498756409
			],
			"scale":[
				0.009879653342068195,
				0.00987965427339077,
				0.00987965427339077
			]
		}
	],
	"materials":[
		{
			"doubleSided":true,
			"name":"01_-_Default.003",
			"normalTexture":{
				"index":0
			},
			"occlusionTexture":{
				"index":1
			},
			"pbrMetallicRoughness":{
				"baseColorTexture":{
					"index":2
				},
				"metallicFactor":0.9263103008270264,
				"metallicRoughnessTexture":{
					"index":1
				},
				"roughnessFactor":0.8571279048919678
			}
		}
	],
	"meshes":[
		{
			"name":"suitcase-sketchfab-texturing-challenge_01 - Default_0.003",
			"primitives":[
				{
					"attributes":{
						"POSITION":0,
						"NORMAL":1,
						"TEXCOORD_0":2
					},
					"indices":3,
					"material":0
				}
			]
		}
	],
	"textures":[
		{
			"sampler":0,
			"source":0
		},
		{
			"sampler":0,
			"source":1
		},
		{
			"sampler":0,
			"source":2
		}
	],
	"images":[
		{
			"mimeType":"image/png",
			"name":"Image_2",
			"uri":"Image_2.png"
		},
		{
			"mimeType":"image/png",
			"name":"Image_1",
			"uri":"Image_1.png"
		},
		{
			"mimeType":"image/png",
			"name":"Image_0",
			"uri":"Image_0.png"
		}
	],
	"accessors":[
		{
			"bufferView":0,
			"componentType":5126,
			"count":1480,
			"max":[
				26.013839721679688,
				19.5507755279541,
				9.736907958984375
			],
			"min":[
				-25.208662033081055,
				-22.89019775390625,
				-9.182111740112305
			],
			"type":"VEC3"
		},
		{
			"bufferView":1,
			"componentType":5126,
			"count":1480,
			"type":"VEC3"
		},
		{
			"bufferView":2,
			"componentType":5126,
			"count":1480,
			"type":"VEC2"
		},
		{
			"bufferView":3,
			"componentType":5123,
			"count":6612,
			"type":"SCALAR"
		}
	],
	"bufferViews":[
		{
			"buffer":0,
			"byteLength":17760,
			"byteOffset":0,
			"target":34962
		},
		{
			"buffer":0,
			"byteLength":17760,
			"byteOffset":17760,
			"target":34962
		},
		{
			"buffer":0,
			"byteLength":11840,
			"byteOffset":35520,
			"target":34962
		},
		{
			"buffer":0,
			"byteLength":13224,
			"byteOffset":47360,
			"target":34963
		}
	],
	"samplers":[
		{
			"magFilter":9729,
			"minFilter":9987
		}
	],
	"buffers":[
		{
			"byteLength":60584,
			"uri":"texturing_suitcase_challenge.bin"
		}
	]
}
