{
	"asset":{
		"generator":"Khronos glTF Blender I/O v3.6.27",
		"version":"2.0"
	},
	"scene":0,
	"scenes":[
		{
			"name":"Scene",
			"nodes":[
				5
			]
		}
	],
	"nodes":[
		{
			"mesh":0,
			"name":"Box001_01 - Default_0",
			"translation":[
				0,
				0,
				-6.669317372143269e-06
			]
		},
		{
			"children":[
				0
			],
			"name":"Object_4",
			"translation":[
				-6.477598190307617,
				7.145627975463867,
				-71.49747467041016
			]
		},
		{
			"children":[
				1
			],
			"name":"Box001",
			"rotation":[
				-0.70710688829422,
				0,
				0,
				0.7071066498756409
			]
		},
		{
			"children":[
				2
			],
			"name":"RootNode"
		},
		{
			"children":[
				3
			],
			"name":"inca.FBX",
			"rotation":[
				0.70710688829422,
				0,
				0,
				0.7071066498756409
			]
		},
		{
			"children":[
				4
			],
			"name":"Sketchfab_model",
			"rotation":[
				-0.70710688829422,
				0,
				0,
				0.7071066498756409
			]
		}
	],
	"materials":[
		{
			"doubleSided":true,
			"emissiveFactor":[
				1,
				1,
				1
			],
			"emissiveTexture":{
				"index":0
			},
			"name":"01_-_Default",
			"pbrMetallicRoughness":{
				"baseColorTexture":{
					"index":1
				},
				"metallicFactor":0,
				"roughnessFactor":0.8929713368415833
			}
		}
	],
	"meshes":[
		{
			"name":"Box001_01 - Default_0",
			"primitives":[
				{
					"attributes":{
						"POSITION":0,
						"NORMAL":1,
						"TEXCOORD_0":2
					},
					"indices":3,
					"material":0
				}
			]
		}
	],
	"textures":[
		{
			"sampler":0,
			"source":0
		},
		{
			"sampler":0,
			"source":0
		}
	],
	"images":[
		{
			"mimeType":"image/jpeg",
			"name":"01_-_Default_baseColor",
			"uri":"01_-_Default_baseColor.jpg"
		}
	],
	"accessors":[
		{
			"bufferView":0,
			"componentType":5126,
			"count":18717,
			"max":[
				46.539188385009766,
				32.73490524291992,
				131.22186279296875
			],
			"min":[
				-33.58399200439453,
				-47.026161193847656,
				11.773086547851562
			],
			"type":"VEC3"
		},
		{
			"bufferView":1,
			"componentType":5126,
			"count":18717,
			"type":"VEC3"
		},
		{
			"bufferView":2,
			"componentType":5126,
			"count":18717,
			"type":"VEC2"
		},
		{
			"bufferView":3,
			"componentType":5123,
			"count":27708,
			"type":"SCALAR"
		}
	],
	"bufferViews":[
		{
			"buffer":0,
			"byteLength":224604,
			"byteOffset":0,
			"target":34962
		},
		{
			"buffer":0,
			"byteLength":224604,
			"byteOffset":224604,
			"target":34962
		},
		{
			"buffer":0,
			"byteLength":149736,
			"byteOffset":449208,
			"target":34962
		},
		{
			"buffer":0,
			"byteLength":55416,
			"byteOffset":598944,
			"target":34963
		}
	],
	"samplers":[
		{
			"magFilter":9729,
			"minFilter":9987
		}
	],
	"buffers":[
		{
			"byteLength":654360,
			"uri":"mdl_franch_incastatue.bin"
		}
	]
}
