{
	"asset":{
		"generator":"Khronos glTF Blender I/O v4.1.63",
		"version":"2.0"
	},
	"extensionsUsed":[
		"KHR_materials_specular",
		"KHR_materials_sheen"
	],
	"scene":0,
	"scenes":[
		{
			"name":"Scene",
			"nodes":[
				37,
				38,
				39,
				40,
				41,
				42,
				43,
				44,
				45,
				46
			]
		}
	],
	"nodes":[
		{
			"name":"SM_notebook_papers.105_1",
			"translation":[
				0.0040723239071667194,
				9.862819570116699e-05,
				-5.902751217945479e-05
			]
		},
		{
			"name":"SM_notebook_papers.106_2",
			"translation":[
				0.0040723239071667194,
				9.862819570116699e-05,
				-5.902751217945479e-05
			]
		},
		{
			"name":"SM_notebook_papers.107_3",
			"translation":[
				0.0040723239071667194,
				9.862819570116699e-05,
				-5.902751217945479e-05
			]
		},
		{
			"name":"SM_notebook_papers.108_4",
			"translation":[
				0.0040723239071667194,
				9.862819570116699e-05,
				-5.902751217945479e-05
			]
		},
		{
			"name":"SM_notebook_papers.109_5",
			"translation":[
				0.0040723239071667194,
				9.862819570116699e-05,
				-5.902751217945479e-05
			]
		},
		{
			"name":"SM_notebook_papers.110_6",
			"translation":[
				0.0040723239071667194,
				9.862819570116699e-05,
				-5.902751217945479e-05
			]
		},
		{
			"name":"SM_notebook_papers.111_7",
			"translation":[
				0.0040723239071667194,
				9.862819570116699e-05,
				-5.902751217945479e-05
			]
		},
		{
			"name":"SM_notebook_papers.112_8",
			"translation":[
				0.0040723239071667194,
				9.862819570116699e-05,
				-5.902751217945479e-05
			]
		},
		{
			"name":"SM_notebook_papers.113_9",
			"translation":[
				0.0040723239071667194,
				9.862819570116699e-05,
				-5.902751217945479e-05
			]
		},
		{
			"name":"SM_notebook_papers.114_10",
			"translation":[
				0.0040723239071667194,
				9.862819570116699e-05,
				-5.902751217945479e-05
			]
		},
		{
			"name":"SM_notebook_papers.115_11",
			"translation":[
				0.0040723239071667194,
				9.862819570116699e-05,
				-5.902751217945479e-05
			]
		},
		{
			"name":"SM_notebook_papers.116_12",
			"translation":[
				0.0040723239071667194,
				9.862819570116699e-05,
				-5.902751217945479e-05
			]
		},
		{
			"name":"SM_notebook_papers.117_13",
			"translation":[
				0.0040723239071667194,
				9.862819570116699e-05,
				-5.902751217945479e-05
			]
		},
		{
			"name":"SM_notebook_papers.118_14",
			"translation":[
				0.0040723239071667194,
				9.862819570116699e-05,
				-5.902751217945479e-05
			]
		},
		{
			"name":"SM_notebook_papers.119_15",
			"translation":[
				0.0040723239071667194,
				9.862819570116699e-05,
				-5.902751217945479e-05
			]
		},
		{
			"name":"SM_notebook_papers.120_16",
			"translation":[
				0.0040723239071667194,
				9.862819570116699e-05,
				-5.902751217945479e-05
			]
		},
		{
			"name":"SM_notebook_papers.121_17",
			"translation":[
				0.0040723239071667194,
				9.862819570116699e-05,
				-5.902751217945479e-05
			]
		},
		{
			"name":"SM_notebook_papers.122_18",
			"translation":[
				0.0040723239071667194,
				9.862819570116699e-05,
				-5.902751217945479e-05
			]
		},
		{
			"name":"SM_notebook_papers.123_19",
			"translation":[
				0.0040723239071667194,
				9.862819570116699e-05,
				-5.902751217945479e-05
			]
		},
		{
			"name":"SM_notebook_papers.124_20",
			"translation":[
				0.0040723239071667194,
				9.862819570116699e-05,
				-5.902751217945479e-05
			]
		},
		{
			"name":"SM_notebook_papers.125_21",
			"translation":[
				0.0040723239071667194,
				9.862819570116699e-05,
				-5.902751217945479e-05
			]
		},
		{
			"name":"SM_notebook_papers.126_22",
			"translation":[
				0.0040723239071667194,
				9.862819570116699e-05,
				-5.902751217945479e-05
			]
		},
		{
			"name":"SM_notebook_papers.127_23",
			"translation":[
				0.0040723239071667194,
				9.862819570116699e-05,
				-5.902751217945479e-05
			]
		},
		{
			"name":"SM_notebook_papers.128_24",
			"translation":[
				0.0040723239071667194,
				9.862819570116699e-05,
				-5.902751217945479e-05
			]
		},
		{
			"name":"SM_notebook_papers.129_25",
			"translation":[
				0.0040723239071667194,
				9.862819570116699e-05,
				-5.902751217945479e-05
			]
		},
		{
			"name":"SM_notebook_papers.130_26",
			"translation":[
				0.0040723239071667194,
				9.862819570116699e-05,
				-5.902751217945479e-05
			]
		},
		{
			"name":"SM_notebook_papers.131_27",
			"translation":[
				0.0040723239071667194,
				9.862819570116699e-05,
				-5.902751217945479e-05
			]
		},
		{
			"name":"SM_notebook_papers.132_28",
			"translation":[
				0.0040723239071667194,
				9.862819570116699e-05,
				-5.902751217945479e-05
			]
		},
		{
			"name":"SM_notebook_papers.133_29",
			"translation":[
				0.0040723239071667194,
				9.862819570116699e-05,
				-5.902751217945479e-05
			]
		},
		{
			"name":"SM_notebook_papers.134_30",
			"translation":[
				0.0040723239071667194,
				9.862819570116699e-05,
				-5.902751217945479e-05
			]
		},
		{
			"name":"SM_notebook_papers.135_31",
			"translation":[
				0.0040723239071667194,
				9.862819570116699e-05,
				-5.902751217945479e-05
			]
		},
		{
			"name":"SM_notebook_papers.136_32",
			"translation":[
				0.0040723239071667194,
				9.862819570116699e-05,
				-5.902751217945479e-05
			]
		},
		{
			"name":"SM_notebook_papers.137_33",
			"translation":[
				0.0040723239071667194,
				9.862819570116699e-05,
				-5.902751217945479e-05
			]
		},
		{
			"name":"SM_notebook_papers.138_34",
			"translation":[
				0.0040723239071667194,
				9.862819570116699e-05,
				-5.902751217945479e-05
			]
		},
		{
			"name":"SM_notebook_papers.139_35",
			"translation":[
				0.0040723239071667194,
				9.862819570116699e-05,
				-5.902751217945479e-05
			]
		},
		{
			"children":[
				0,
				1,
				2,
				3,
				4,
				5,
				6,
				7,
				8,
				9,
				10,
				11,
				12,
				13,
				14,
				15,
				16,
				17,
				18,
				19,
				20,
				21,
				22,
				23,
				24,
				25,
				26,
				27,
				28,
				29,
				30,
				31,
				32,
				33,
				34
			],
			"name":"GLTF_SceneRootNode",
			"rotation":[
				0.70710688829422,
				0,
				0,
				0.7071066498756409
			]
		},
		{
			"children":[
				35
			],
			"name":"root"
		},
		{
			"children":[
				36
			],
			"name":"Sketchfab_model",
			"rotation":[
				1,
				0,
				0,
				0
			],
			"translation":[
				-0.005087800789624453,
				0.11447549611330032,
				0.01144756656140089
			]
		},
		{
			"mesh":0,
			"name":"Cube.001",
			"rotation":[
				0,
				0,
				-1,
				0
			],
			"scale":[
				-0.12845946848392487,
				-0.0005000000237487257,
				-0.15149392187595367
			],
			"translation":[
				-0.0007055933820083737,
				0.10654796659946442,
				0.14996947348117828
			]
		},
		{
			"mesh":1,
			"name":"Plane",
			"rotation":[
				0,
				0,
				-1,
				4.371138828673793e-08
			],
			"scale":[
				0.11423883587121964,
				0.11423883587121964,
				0.13454796373844147
			],
			"translation":[
				0,
				0.10590650886297226,
				0.15398304164409637
			]
		},
		{
			"mesh":2,
			"name":"Plane.001",
			"scale":[
				0.11423883587121964,
				0.11423883587121964,
				0.13454796373844147
			],
			"translation":[
				0,
				0.10733245313167572,
				0.15398304164409637
			]
		},
		{
			"mesh":3,
			"name":"Cube.002",
			"scale":[
				0.01829334907233715,
				0.001027161837555468,
				0.01829334907233715
			],
			"translation":[
				0.09519488364458084,
				0.10660261660814285,
				0.03717085346579552
			]
		},
		{
			"mesh":4,
			"name":"Cube.003",
			"rotation":[
				0,
				0.7071068286895752,
				0,
				0.7071067094802856
			],
			"scale":[
				0.0182933509349823,
				0.001027161837555468,
				0.0182933509349823
			],
			"translation":[
				-0.096067875623703,
				0.10660261660814285,
				0.03722171485424042
			]
		},
		{
			"mesh":5,
			"name":"Cube.004",
			"rotation":[
				0,
				-1,
				0,
				4.371138828673793e-08
			],
			"scale":[
				0.01829334907233715,
				0.001027161837555468,
				0.01829334907233715
			],
			"translation":[
				-0.09454070031642914,
				0.10660261660814285,
				0.27147337794303894
			]
		},
		{
			"mesh":6,
			"name":"Cube.005",
			"rotation":[
				0,
				-0.7071068286895752,
				0,
				0.7071067094802856
			],
			"scale":[
				0.0182933509349823,
				0.001027161837555468,
				0.0182933509349823
			],
			"translation":[
				0.09504864364862442,
				0.10660261660814285,
				0.27060943841934204
			]
		},
		{
			"mesh":7,
			"name":"Plane.002",
			"rotation":[
				0,
				0,
				-1,
				6.016303011335822e-10
			],
			"scale":[
				0.11423883587121964,
				0.11423883587121964,
				0.13454796373844147
			],
			"translation":[
				0,
				0.10576020926237106,
				0.15398304164409637
			]
		},
		{
			"mesh":8,
			"name":"Plane.003",
			"rotation":[
				0,
				1,
				0,
				4.371138828673793e-08
			],
			"scale":[
				0.11423883587121964,
				0.11423883587121964,
				0.13454796373844147
			],
			"translation":[
				0,
				0.10797160118818283,
				0.15398304164409637
			]
		}
	],
	"materials":[
		{
			"doubleSided":true,
			"extensions":{
				"KHR_materials_specular":{
					"specularFactor":0
				}
			},
			"name":"BlackPage",
			"pbrMetallicRoughness":{
				"baseColorTexture":{
					"index":0
				},
				"metallicFactor":0
			}
		},
		{
			"alphaMode":"BLEND",
			"doubleSided":true,
			"name":"oldPaper",
			"pbrMetallicRoughness":{
				"baseColorTexture":{
					"index":1
				},
				"metallicFactor":0,
				"roughnessFactor":0.5
			}
		},
		{
			"alphaMode":"BLEND",
			"doubleSided":true,
			"extensions":{
				"KHR_materials_specular":{
					"specularFactor":0
				},
				"KHR_materials_sheen":{
					"sheenColorFactor":[
						1.0,
						1.0,
						1.0
					]
				}
			},
			"name":"oldPaper.001",
			"pbrMetallicRoughness":{
				"baseColorTexture":{
					"index":2
				},
				"metallicFactor":0,
				"roughnessFactor":0
			}
		},
		{
			"alphaMode":"BLEND",
			"doubleSided":true,
			"extensions":{
				"KHR_materials_specular":{
					"specularFactor":0
				},
				"KHR_materials_sheen":{
					"sheenColorFactor":[
						1.0,
						1.0,
						1.0
					]
				}
			},
			"name":"oldPaper.002",
			"pbrMetallicRoughness":{
				"baseColorTexture":{
					"index":3
				},
				"metallicFactor":0,
				"roughnessFactor":0
			}
		}
	],
	"meshes":[
		{
			"name":"Cube.002",
			"primitives":[
				{
					"attributes":{
						"POSITION":0,
						"NORMAL":1,
						"TEXCOORD_0":2
					},
					"indices":3,
					"material":0
				}
			]
		},
		{
			"name":"Plane",
			"primitives":[
				{
					"attributes":{
						"POSITION":4,
						"NORMAL":5,
						"TEXCOORD_0":6
					},
					"indices":7,
					"material":1
				}
			]
		},
		{
			"name":"Plane.001",
			"primitives":[
				{
					"attributes":{
						"POSITION":8,
						"NORMAL":9,
						"TEXCOORD_0":10
					},
					"indices":7,
					"material":1
				}
			]
		},
		{
			"name":"Cube.003",
			"primitives":[
				{
					"attributes":{
						"POSITION":11,
						"NORMAL":12,
						"TEXCOORD_0":13
					},
					"indices":14,
					"material":0
				}
			]
		},
		{
			"name":"Cube.007",
			"primitives":[
				{
					"attributes":{
						"POSITION":15,
						"NORMAL":16,
						"TEXCOORD_0":17
					},
					"indices":14,
					"material":0
				}
			]
		},
		{
			"name":"Cube.008",
			"primitives":[
				{
					"attributes":{
						"POSITION":18,
						"NORMAL":19,
						"TEXCOORD_0":20
					},
					"indices":14,
					"material":0
				}
			]
		},
		{
			"name":"Cube.009",
			"primitives":[
				{
					"attributes":{
						"POSITION":21,
						"NORMAL":22,
						"TEXCOORD_0":23
					},
					"indices":14,
					"material":0
				}
			]
		},
		{
			"name":"Plane.004",
			"primitives":[
				{
					"attributes":{
						"POSITION":24,
						"NORMAL":25,
						"TEXCOORD_0":26
					},
					"indices":7,
					"material":2
				}
			]
		},
		{
			"name":"Plane.006",
			"primitives":[
				{
					"attributes":{
						"POSITION":27,
						"NORMAL":28,
						"TEXCOORD_0":29
					},
					"indices":7,
					"material":3
				}
			]
		}
	],
	"textures":[
		{
			"sampler":0,
			"source":0
		},
		{
			"sampler":0,
			"source":1
		},
		{
			"sampler":0,
			"source":2
		},
		{
			"sampler":0,
			"source":3
		}
	],
	"images":[
		{
			"mimeType":"image/jpeg",
			"name":"black_paper",
			"uri":"tx_Robin_black_paper.jpg"
		},
		{
			"mimeType":"image/png",
			"name":"notebookpage",
			"uri":"tx_Robin_notebookpage.png"
		},
		{
			"mimeType":"image/png",
			"name":"backpage",
			"uri":"tx_Robin_backpage.png"
		},
		{
			"mimeType":"image/png",
			"name":"frontpage_png",
			"uri":"tx_Robin_frontpage_png.png"
		}
	],
	"accessors":[
		{
			"bufferView":0,
			"componentType":5126,
			"count":2692,
			"max":[
				1.0000001192092896,
				1,
				1
			],
			"min":[
				-1.0000001192092896,
				-1,
				-1.000000238418579
			],
			"type":"VEC3"
		},
		{
			"bufferView":1,
			"componentType":5126,
			"count":2692,
			"type":"VEC3"
		},
		{
			"bufferView":2,
			"componentType":5126,
			"count":2692,
			"type":"VEC2"
		},
		{
			"bufferView":3,
			"componentType":5123,
			"count":4740,
			"type":"SCALAR"
		},
		{
			"bufferView":4,
			"componentType":5126,
			"count":4,
			"max":[
				1,
				0,
				1
			],
			"min":[
				-1,
				0,
				-1
			],
			"type":"VEC3"
		},
		{
			"bufferView":5,
			"componentType":5126,
			"count":4,
			"type":"VEC3"
		},
		{
			"bufferView":6,
			"componentType":5126,
			"count":4,
			"type":"VEC2"
		},
		{
			"bufferView":7,
			"componentType":5123,
			"count":6,
			"type":"SCALAR"
		},
		{
			"bufferView":8,
			"componentType":5126,
			"count":4,
			"max":[
				1,
				0,
				1
			],
			"min":[
				-1,
				0,
				-1
			],
			"type":"VEC3"
		},
		{
			"bufferView":9,
			"componentType":5126,
			"count":4,
			"type":"VEC3"
		},
		{
			"bufferView":10,
			"componentType":5126,
			"count":4,
			"type":"VEC2"
		},
		{
			"bufferView":11,
			"componentType":5126,
			"count":18,
			"max":[
				0.9999997615814209,
				0.9999923706054688,
				0.9943804740905762
			],
			"min":[
				-0.9943807125091553,
				-1.0000076293945312,
				-1
			],
			"type":"VEC3"
		},
		{
			"bufferView":12,
			"componentType":5126,
			"count":18,
			"type":"VEC3"
		},
		{
			"bufferView":13,
			"componentType":5126,
			"count":18,
			"type":"VEC2"
		},
		{
			"bufferView":14,
			"componentType":5123,
			"count":24,
			"type":"SCALAR"
		},
		{
			"bufferView":15,
			"componentType":5126,
			"count":18,
			"max":[
				0.9999997615814209,
				0.9999923706054688,
				0.9943804740905762
			],
			"min":[
				-0.9943807125091553,
				-1.0000076293945312,
				-1
			],
			"type":"VEC3"
		},
		{
			"bufferView":16,
			"componentType":5126,
			"count":18,
			"type":"VEC3"
		},
		{
			"bufferView":17,
			"componentType":5126,
			"count":18,
			"type":"VEC2"
		},
		{
			"bufferView":18,
			"componentType":5126,
			"count":18,
			"max":[
				0.9999997615814209,
				0.9999923706054688,
				0.9943804740905762
			],
			"min":[
				-0.9943807125091553,
				-1.0000076293945312,
				-1
			],
			"type":"VEC3"
		},
		{
			"bufferView":19,
			"componentType":5126,
			"count":18,
			"type":"VEC3"
		},
		{
			"bufferView":20,
			"componentType":5126,
			"count":18,
			"type":"VEC2"
		},
		{
			"bufferView":21,
			"componentType":5126,
			"count":18,
			"max":[
				0.9999997615814209,
				0.9999923706054688,
				0.9943804740905762
			],
			"min":[
				-0.9943807125091553,
				-1.0000076293945312,
				-1
			],
			"type":"VEC3"
		},
		{
			"bufferView":22,
			"componentType":5126,
			"count":18,
			"type":"VEC3"
		},
		{
			"bufferView":23,
			"componentType":5126,
			"count":18,
			"type":"VEC2"
		},
		{
			"bufferView":24,
			"componentType":5126,
			"count":4,
			"max":[
				1,
				0,
				1
			],
			"min":[
				-1,
				0,
				-1
			],
			"type":"VEC3"
		},
		{
			"bufferView":25,
			"componentType":5126,
			"count":4,
			"type":"VEC3"
		},
		{
			"bufferView":26,
			"componentType":5126,
			"count":4,
			"type":"VEC2"
		},
		{
			"bufferView":27,
			"componentType":5126,
			"count":4,
			"max":[
				1,
				0,
				1
			],
			"min":[
				-1,
				0,
				-1
			],
			"type":"VEC3"
		},
		{
			"bufferView":28,
			"componentType":5126,
			"count":4,
			"type":"VEC3"
		},
		{
			"bufferView":29,
			"componentType":5126,
			"count":4,
			"type":"VEC2"
		}
	],
	"bufferViews":[
		{
			"buffer":0,
			"byteLength":32304,
			"byteOffset":0,
			"target":34962
		},
		{
			"buffer":0,
			"byteLength":32304,
			"byteOffset":32304,
			"target":34962
		},
		{
			"buffer":0,
			"byteLength":21536,
			"byteOffset":64608,
			"target":34962
		},
		{
			"buffer":0,
			"byteLength":9480,
			"byteOffset":86144,
			"target":34963
		},
		{
			"buffer":0,
			"byteLength":48,
			"byteOffset":95624,
			"target":34962
		},
		{
			"buffer":0,
			"byteLength":48,
			"byteOffset":95672,
			"target":34962
		},
		{
			"buffer":0,
			"byteLength":32,
			"byteOffset":95720,
			"target":34962
		},
		{
			"buffer":0,
			"byteLength":12,
			"byteOffset":95752,
			"target":34963
		},
		{
			"buffer":0,
			"byteLength":48,
			"byteOffset":95764,
			"target":34962
		},
		{
			"buffer":0,
			"byteLength":48,
			"byteOffset":95812,
			"target":34962
		},
		{
			"buffer":0,
			"byteLength":32,
			"byteOffset":95860,
			"target":34962
		},
		{
			"buffer":0,
			"byteLength":216,
			"byteOffset":95892,
			"target":34962
		},
		{
			"buffer":0,
			"byteLength":216,
			"byteOffset":96108,
			"target":34962
		},
		{
			"buffer":0,
			"byteLength":144,
			"byteOffset":96324,
			"target":34962
		},
		{
			"buffer":0,
			"byteLength":48,
			"byteOffset":96468,
			"target":34963
		},
		{
			"buffer":0,
			"byteLength":216,
			"byteOffset":96516,
			"target":34962
		},
		{
			"buffer":0,
			"byteLength":216,
			"byteOffset":96732,
			"target":34962
		},
		{
			"buffer":0,
			"byteLength":144,
			"byteOffset":96948,
			"target":34962
		},
		{
			"buffer":0,
			"byteLength":216,
			"byteOffset":97092,
			"target":34962
		},
		{
			"buffer":0,
			"byteLength":216,
			"byteOffset":97308,
			"target":34962
		},
		{
			"buffer":0,
			"byteLength":144,
			"byteOffset":97524,
			"target":34962
		},
		{
			"buffer":0,
			"byteLength":216,
			"byteOffset":97668,
			"target":34962
		},
		{
			"buffer":0,
			"byteLength":216,
			"byteOffset":97884,
			"target":34962
		},
		{
			"buffer":0,
			"byteLength":144,
			"byteOffset":98100,
			"target":34962
		},
		{
			"buffer":0,
			"byteLength":48,
			"byteOffset":98244,
			"target":34962
		},
		{
			"buffer":0,
			"byteLength":48,
			"byteOffset":98292,
			"target":34962
		},
		{
			"buffer":0,
			"byteLength":32,
			"byteOffset":98340,
			"target":34962
		},
		{
			"buffer":0,
			"byteLength":48,
			"byteOffset":98372,
			"target":34962
		},
		{
			"buffer":0,
			"byteLength":48,
			"byteOffset":98420,
			"target":34962
		},
		{
			"buffer":0,
			"byteLength":32,
			"byteOffset":98468,
			"target":34962
		}
	],
	"samplers":[
		{
			"magFilter":9729,
			"minFilter":9987
		}
	],
	"buffers":[
		{
			"byteLength":98500,
			"uri":"mdl_Robin_ScrapbookPage.bin"
		}
	]
}
