{
	"asset":{
		"generator":"Khronos glTF Blender I/O v4.1.63",
		"version":"2.0"
	},
	"extensionsUsed":[
		"KHR_materials_specular"
	],
	"scene":0,
	"scenes":[
		{
			"name":"Scene",
			"nodes":[
				1,
				3,
				5,
				7,
				12,
				13
			]
		}
	],
	"nodes":[
		{
			"name":"Notebook_Pages",
			"translation":[
				4.5000000682193786e-05,
				9.863026207312942e-05,
				-5.904678255319595e-05
			]
		},
		{
			"children":[
				0
			],
			"name":"Scrapbook_Cover",
			"rotation":[
				0,
				0,
				0.7071068286895752,
				0.7071068286895752
			],
			"translation":[
				0.0003901083837263286,
				0,
				0.008832988329231739
			]
		},
		{
			"name":"Notebook_Pages.001",
			"translation":[
				4.5000000682193786e-05,
				9.863026207312942e-05,
				-5.904678255319595e-05
			]
		},
		{
			"children":[
				2
			],
			"name":"Scrapbook_Cover.001",
			"rotation":[
				0,
				0,
				0.7071068286895752,
				0.7071068286895752
			],
			"translation":[
				0,
				0,
				0.008322716690599918
			]
		},
		{
			"name":"Notebook_Pages.002",
			"translation":[
				4.5000000682193786e-05,
				0,
				0
			]
		},
		{
			"children":[
				4
			],
			"name":"Scrapbook_Back_Cover",
			"translation":[
				0,
				-0.11880700290203094,
				0
			]
		},
		{
			"name":"Notebook_Pages.003",
			"translation":[
				4.5000000682193786e-05,
				9.863026207312942e-05,
				-5.904724821448326e-05
			]
		},
		{
			"children":[
				6
			],
			"name":"Scrapbook_Cover.002"
		},
		{
			"mesh":0,
			"name":"Binding_Gold_Trim",
			"rotation":[
				0,
				-0.7071069478988647,
				0,
				0.7071065902709961
			],
			"scale":[
				-2.850083827972412,
				-22.52629852294922,
				-0.9360241293907166
			],
			"translation":[
				0.0019688073080033064,
				-1.1068382263183594,
				-2.30609393119812
			]
		},
		{
			"children":[
				8
			],
			"mesh":1,
			"name":"Cover_Binding",
			"scale":[
				-0.1545654684305191,
				-0.0024262936785817146,
				-0.0225206408649683
			],
			"translation":[
				4.5000000682193786e-05,
				0.0018050000071525574,
				0.01969190128147602
			]
		},
		{
			"mesh":2,
			"name":"Cover_Main",
			"scale":[
				1.0282413959503174,
				1,
				1.4376322031021118
			],
			"translation":[
				4.499669375945814e-05,
				0.0018050000071525574,
				0.17859025299549103
			]
		},
		{
			"name":"Notebook_Pages.004",
			"translation":[
				4.5000000682193786e-05,
				9.863026207312942e-05,
				-5.904724821448326e-05
			]
		},
		{
			"children":[
				9,
				10,
				11
			],
			"name":"Scrapbook_Cover.003"
		},
		{
			"mesh":3,
			"name":"Cube",
			"rotation":[
				0,
				0,
				-1,
				0
			],
			"scale":[
				-0.12845946848392487,
				-0.0005000000237487257,
				-0.15149392187595367
			],
			"translation":[
				-0.0007055933820083737,
				0.0006426480249501765,
				0.14996947348117828
			]
		}
	],
	"materials":[
		{
			"alphaMode":"BLEND",
			"doubleSided":true,
			"extensions":{
				"KHR_materials_specular":{
					"specularColorFactor":[
						2.0,
						2.0,
						2.0
					]
				}
			},
			"name":"Binding_Gold_Trim.003",
			"normalTexture":{
				"index":0
			},
			"pbrMetallicRoughness":{
				"baseColorTexture":{
					"index":1
				},
				"metallicRoughnessTexture":{
					"index":2
				},
				"roughnessFactor":1.5
			}
		},
		{
			"doubleSided":true,
			"extensions":{
				"KHR_materials_specular":{
					"specularFactor":0
				}
			},
			"name":"Cover_Binding.004",
			"normalTexture":{
				"index":3
			},
			"pbrMetallicRoughness":{
				"baseColorTexture":{
					"index":4
				},
				"metallicFactor":0
			}
		},
		{
			"doubleSided":true,
			"extensions":{
				"KHR_materials_specular":{
					"specularFactor":0
				}
			},
			"name":"Cover_Main.003",
			"normalTexture":{
				"index":5,
				"scale":2
			},
			"pbrMetallicRoughness":{
				"baseColorTexture":{
					"index":6
				},
				"metallicRoughnessTexture":{
					"index":7
				},
				"roughnessFactor":1.5
			}
		},
		{
			"doubleSided":true,
			"extensions":{
				"KHR_materials_specular":{
					"specularFactor":0
				}
			},
			"name":"BlackPage",
			"pbrMetallicRoughness":{
				"baseColorTexture":{
					"index":8
				},
				"metallicFactor":0
			}
		}
	],
	"meshes":[
		{
			"name":"Plane.005",
			"primitives":[
				{
					"attributes":{
						"POSITION":0,
						"NORMAL":1,
						"TEXCOORD_0":2
					},
					"indices":3,
					"material":0
				}
			]
		},
		{
			"name":"Cube.001",
			"primitives":[
				{
					"attributes":{
						"POSITION":4,
						"NORMAL":5,
						"TEXCOORD_0":6
					},
					"indices":7,
					"material":1
				}
			]
		},
		{
			"name":"Object_5.001",
			"primitives":[
				{
					"attributes":{
						"POSITION":8,
						"NORMAL":9,
						"TEXCOORD_0":10,
						"TEXCOORD_1":11,
						"TEXCOORD_2":12,
						"TEXCOORD_3":13
					},
					"indices":14,
					"material":2
				}
			]
		},
		{
			"name":"Cube",
			"primitives":[
				{
					"attributes":{
						"POSITION":15,
						"NORMAL":16,
						"TEXCOORD_0":17
					},
					"indices":18,
					"material":3
				}
			]
		}
	],
	"textures":[
		{
			"sampler":0,
			"source":0
		},
		{
			"sampler":0,
			"source":1
		},
		{
			"sampler":0,
			"source":2
		},
		{
			"sampler":0,
			"source":3
		},
		{
			"sampler":0,
			"source":4
		},
		{
			"sampler":0,
			"source":5
		},
		{
			"sampler":0,
			"source":6
		},
		{
			"sampler":0,
			"source":7
		},
		{
			"sampler":0,
			"source":8
		}
	],
	"images":[
		{
			"mimeType":"image/png",
			"name":"booksidegold_Normal",
			"uri":"tx_Robin_booksidegold_Normal.png"
		},
		{
			"mimeType":"image/png",
			"name":"booksidegold_BaseColor",
			"uri":"tx_Robin_booksidegold_BaseColor.png"
		},
		{
			"mimeType":"image/png",
			"name":"booksidegold_Roughness",
			"uri":"tx_Robin_booksidegold_Roughness.png"
		},
		{
			"mimeType":"image/png",
			"name":"dark_leather_normal",
			"uri":"tx_Robin_dark_leather_normal.png"
		},
		{
			"mimeType":"image/png",
			"name":"dark_leather",
			"uri":"tx_Robin_dark_leather.png"
		},
		{
			"mimeType":"image/png",
			"name":"scrapbook_cover_Normal",
			"uri":"tx_Robin_scrapbook_cover_Normal.png"
		},
		{
			"mimeType":"image/png",
			"name":"scrapbook_cover_baseColor.png",
			"uri":"tx_Robin_scrapbook_cover_baseColor_png.png"
		},
		{
			"mimeType":"image/png",
			"name":"scrapbook_cover_Roughness",
			"uri":"tx_Robin_scrapbook_cover_Roughness.png"
		},
		{
			"mimeType":"image/jpeg",
			"name":"black_paper",
			"uri":"tx_Robin_black_paper.jpg"
		}
	],
	"accessors":[
		{
			"bufferView":0,
			"componentType":5126,
			"count":4,
			"max":[
				-0.4628557860851288,
				0,
				1.0000001192092896
			],
			"min":[
				-1,
				0,
				-1
			],
			"type":"VEC3"
		},
		{
			"bufferView":1,
			"componentType":5126,
			"count":4,
			"type":"VEC3"
		},
		{
			"bufferView":2,
			"componentType":5126,
			"count":4,
			"type":"VEC2"
		},
		{
			"bufferView":3,
			"componentType":5123,
			"count":6,
			"type":"SCALAR"
		},
		{
			"bufferView":4,
			"componentType":5126,
			"count":3877,
			"max":[
				1,
				0.9999999403953552,
				1
			],
			"min":[
				-1,
				-1,
				-0.9999999403953552
			],
			"type":"VEC3"
		},
		{
			"bufferView":5,
			"componentType":5126,
			"count":3877,
			"type":"VEC3"
		},
		{
			"bufferView":6,
			"componentType":5126,
			"count":3877,
			"type":"VEC2"
		},
		{
			"bufferView":7,
			"componentType":5123,
			"count":6180,
			"type":"SCALAR"
		},
		{
			"bufferView":8,
			"componentType":5126,
			"count":24,
			"max":[
				0.1485000103712082,
				0.0015737710054963827,
				0.10500001162290573
			],
			"min":[
				-0.1485000103712082,
				-0.0015737510984763503,
				-0.10500000417232513
			],
			"type":"VEC3"
		},
		{
			"bufferView":9,
			"componentType":5126,
			"count":24,
			"type":"VEC3"
		},
		{
			"bufferView":10,
			"componentType":5126,
			"count":24,
			"type":"VEC2"
		},
		{
			"bufferView":11,
			"componentType":5126,
			"count":24,
			"type":"VEC2"
		},
		{
			"bufferView":12,
			"componentType":5126,
			"count":24,
			"type":"VEC2"
		},
		{
			"bufferView":13,
			"componentType":5126,
			"count":24,
			"type":"VEC2"
		},
		{
			"bufferView":14,
			"componentType":5123,
			"count":132,
			"type":"SCALAR"
		},
		{
			"bufferView":15,
			"componentType":5126,
			"count":4634,
			"max":[
				1.0000001192092896,
				1,
				1
			],
			"min":[
				-1.0000001192092896,
				-1,
				-1.000000238418579
			],
			"type":"VEC3"
		},
		{
			"bufferView":16,
			"componentType":5126,
			"count":4634,
			"type":"VEC3"
		},
		{
			"bufferView":17,
			"componentType":5126,
			"count":4634,
			"type":"VEC2"
		},
		{
			"bufferView":18,
			"componentType":5123,
			"count":9546,
			"type":"SCALAR"
		}
	],
	"bufferViews":[
		{
			"buffer":0,
			"byteLength":48,
			"byteOffset":0,
			"target":34962
		},
		{
			"buffer":0,
			"byteLength":48,
			"byteOffset":48,
			"target":34962
		},
		{
			"buffer":0,
			"byteLength":32,
			"byteOffset":96,
			"target":34962
		},
		{
			"buffer":0,
			"byteLength":12,
			"byteOffset":128,
			"target":34963
		},
		{
			"buffer":0,
			"byteLength":46524,
			"byteOffset":140,
			"target":34962
		},
		{
			"buffer":0,
			"byteLength":46524,
			"byteOffset":46664,
			"target":34962
		},
		{
			"buffer":0,
			"byteLength":31016,
			"byteOffset":93188,
			"target":34962
		},
		{
			"buffer":0,
			"byteLength":12360,
			"byteOffset":124204,
			"target":34963
		},
		{
			"buffer":0,
			"byteLength":288,
			"byteOffset":136564,
			"target":34962
		},
		{
			"buffer":0,
			"byteLength":288,
			"byteOffset":136852,
			"target":34962
		},
		{
			"buffer":0,
			"byteLength":192,
			"byteOffset":137140,
			"target":34962
		},
		{
			"buffer":0,
			"byteLength":192,
			"byteOffset":137332,
			"target":34962
		},
		{
			"buffer":0,
			"byteLength":192,
			"byteOffset":137524,
			"target":34962
		},
		{
			"buffer":0,
			"byteLength":192,
			"byteOffset":137716,
			"target":34962
		},
		{
			"buffer":0,
			"byteLength":264,
			"byteOffset":137908,
			"target":34963
		},
		{
			"buffer":0,
			"byteLength":55608,
			"byteOffset":138172,
			"target":34962
		},
		{
			"buffer":0,
			"byteLength":55608,
			"byteOffset":193780,
			"target":34962
		},
		{
			"buffer":0,
			"byteLength":37072,
			"byteOffset":249388,
			"target":34962
		},
		{
			"buffer":0,
			"byteLength":19092,
			"byteOffset":286460,
			"target":34963
		}
	],
	"samplers":[
		{
			"magFilter":9729,
			"minFilter":9987
		}
	],
	"buffers":[
		{
			"byteLength":305552,
			"uri":"mdl_Robin_ScrapbookCover.bin"
		}
	]
}
