{
	"asset":{
		"generator":"Khronos glTF Blender I/O v4.2.57",
		"version":"2.0"
	},
	"extensionsUsed":[
		"KHR_materials_specular"
	],
	"scene":0,
	"scenes":[
		{
			"name":"Scene",
			"nodes":[
				1,
				4
			]
		}
	],
	"nodes":[
		{
			"name":"Guitar.obj.cleaner.materialmerger.gles"
		},
		{
			"children":[
				0
			],
			"name":"Sketchfab_model",
			"rotation":[
				-0.70710688829422,
				0,
				0,
				0.7071066498756409
			]
		},
		{
			"mesh":0,
			"name":"Object_10",
			"translation":[
				0,
				-13.598481178283691,
				-6.261238098144531
			]
		},
		{
			"children":[
				2
			],
			"name":"allflowersspot.obj.cleaner.materialmerger.gles"
		},
		{
			"children":[
				3
			],
			"name":"Sketchfab_model.001",
			"rotation":[
				-0.70710688829422,
				0,
				0,
				0.7071066498756409
			]
		}
	],
	"materials":[
		{
			"doubleSided":true,
			"name":"flower22",
			"pbrMetallicRoughness":{
				"baseColorTexture":{
					"index":0
				},
				"metallicFactor":0.9552100300788879,
				"roughnessFactor":0.8029743432998657
			}
		},
		{
			"doubleSided":true,
			"name":"flower33",
			"pbrMetallicRoughness":{
				"baseColorTexture":{
					"index":1
				},
				"metallicFactor":0.82124263048172,
				"roughnessFactor":0.7907954454421997
			}
		},
		{
			"doubleSided":true,
			"name":"leaves02",
			"pbrMetallicRoughness":{
				"baseColorTexture":{
					"index":2
				},
				"metallicFactor":0.7847060561180115,
				"roughnessFactor":0.9308523535728455
			}
		},
		{
			"doubleSided":true,
			"name":"stem11",
			"pbrMetallicRoughness":{
				"baseColorTexture":{
					"index":3
				},
				"metallicFactor":0.8273320198059082,
				"roughnessFactor":0.882136881351471
			}
		},
		{
			"doubleSided":true,
			"extensions":{
				"KHR_materials_specular":{
					"specularColorFactor":[
						1.0879461765289307,
						1.0088094472885132,
						1.003921627998352
					],
					"specularColorTexture":{
						"index":4
					}
				}
			},
			"name":"flower11",
			"pbrMetallicRoughness":{
				"baseColorTexture":{
					"index":5
				},
				"metallicFactor":0.7664377689361572,
				"roughnessFactor":0.7603483200073242
			}
		}
	],
	"meshes":[
		{
			"name":"Object_8",
			"primitives":[
				{
					"attributes":{
						"POSITION":0,
						"NORMAL":1,
						"TEXCOORD_0":2
					},
					"indices":3,
					"material":0
				},
				{
					"attributes":{
						"POSITION":4,
						"NORMAL":5,
						"TEXCOORD_0":6
					},
					"indices":7,
					"material":1
				},
				{
					"attributes":{
						"POSITION":8,
						"NORMAL":9,
						"TEXCOORD_0":10
					},
					"indices":11,
					"material":2
				},
				{
					"attributes":{
						"POSITION":12,
						"NORMAL":13,
						"TEXCOORD_0":14
					},
					"indices":15,
					"material":3
				},
				{
					"attributes":{
						"POSITION":16,
						"NORMAL":17,
						"TEXCOORD_0":18
					},
					"indices":19,
					"material":4
				}
			]
		}
	],
	"textures":[
		{
			"sampler":0,
			"source":0
		},
		{
			"sampler":0,
			"source":1
		},
		{
			"sampler":0,
			"source":2
		},
		{
			"sampler":0,
			"source":3
		},
		{
			"sampler":0,
			"source":4
		},
		{
			"sampler":0,
			"source":5
		}
	],
	"images":[
		{
			"mimeType":"image/png",
			"name":"flower22_baseColor",
			"uri":"flower22_baseColor.png"
		},
		{
			"mimeType":"image/png",
			"name":"flower33_baseColor",
			"uri":"flower33_baseColor.png"
		},
		{
			"mimeType":"image/png",
			"name":"leaves02_baseColor",
			"uri":"leaves02_baseColor.png"
		},
		{
			"mimeType":"image/png",
			"name":"stem11_baseColor",
			"uri":"stem11_baseColor.png"
		},
		{
			"mimeType":"image/png",
			"name":"Image",
			"uri":"Image.png"
		},
		{
			"mimeType":"image/png",
			"name":"flower11_baseColor",
			"uri":"flower11_baseColor.png"
		}
	],
	"accessors":[
		{
			"bufferView":0,
			"componentType":5126,
			"count":1032,
			"max":[
				4.913791656494141,
				19.380359649658203,
				15.809706687927246
			],
			"min":[
				-7.452332973480225,
				8.750100135803223,
				11.595677375793457
			],
			"type":"VEC3"
		},
		{
			"bufferView":1,
			"componentType":5126,
			"count":1032,
			"type":"VEC3"
		},
		{
			"bufferView":2,
			"componentType":5126,
			"count":1032,
			"type":"VEC2"
		},
		{
			"bufferView":3,
			"componentType":5123,
			"count":5520,
			"type":"SCALAR"
		},
		{
			"bufferView":4,
			"componentType":5126,
			"count":5097,
			"max":[
				5.271849155426025,
				19.73724365234375,
				15.850899696350098
			],
			"min":[
				-8.119417190551758,
				8.524139404296875,
				10.3812894821167
			],
			"type":"VEC3"
		},
		{
			"bufferView":5,
			"componentType":5126,
			"count":5097,
			"type":"VEC3"
		},
		{
			"bufferView":6,
			"componentType":5126,
			"count":5097,
			"type":"VEC2"
		},
		{
			"bufferView":7,
			"componentType":5123,
			"count":26826,
			"type":"SCALAR"
		},
		{
			"bufferView":8,
			"componentType":5126,
			"count":2259,
			"max":[
				5.52266263961792,
				21.180316925048828,
				12.994295120239258
			],
			"min":[
				-7.610334396362305,
				6.67804479598999,
				6.411056995391846
			],
			"type":"VEC3"
		},
		{
			"bufferView":9,
			"componentType":5126,
			"count":2259,
			"type":"VEC3"
		},
		{
			"bufferView":10,
			"componentType":5126,
			"count":2259,
			"type":"VEC2"
		},
		{
			"bufferView":11,
			"componentType":5123,
			"count":10914,
			"type":"SCALAR"
		},
		{
			"bufferView":12,
			"componentType":5126,
			"count":1777,
			"max":[
				4.675342559814453,
				20.54043197631836,
				14.922826766967773
			],
			"min":[
				-6.923941612243652,
				7.367053985595703,
				6.312920093536377
			],
			"type":"VEC3"
		},
		{
			"bufferView":13,
			"componentType":5126,
			"count":1777,
			"type":"VEC3"
		},
		{
			"bufferView":14,
			"componentType":5126,
			"count":1777,
			"type":"VEC2"
		},
		{
			"bufferView":15,
			"componentType":5123,
			"count":10182,
			"type":"SCALAR"
		},
		{
			"bufferView":16,
			"componentType":5126,
			"count":1461,
			"max":[
				4.361992359161377,
				18.837623596191406,
				15.583327293395996
			],
			"min":[
				-7.219635486602783,
				9.281391143798828,
				11.68954849243164
			],
			"type":"VEC3"
		},
		{
			"bufferView":17,
			"componentType":5126,
			"count":1461,
			"type":"VEC3"
		},
		{
			"bufferView":18,
			"componentType":5126,
			"count":1461,
			"type":"VEC2"
		},
		{
			"bufferView":19,
			"componentType":5123,
			"count":8154,
			"type":"SCALAR"
		}
	],
	"bufferViews":[
		{
			"buffer":0,
			"byteLength":12384,
			"byteOffset":0,
			"target":34962
		},
		{
			"buffer":0,
			"byteLength":12384,
			"byteOffset":12384,
			"target":34962
		},
		{
			"buffer":0,
			"byteLength":8256,
			"byteOffset":24768,
			"target":34962
		},
		{
			"buffer":0,
			"byteLength":11040,
			"byteOffset":33024,
			"target":34963
		},
		{
			"buffer":0,
			"byteLength":61164,
			"byteOffset":44064,
			"target":34962
		},
		{
			"buffer":0,
			"byteLength":61164,
			"byteOffset":105228,
			"target":34962
		},
		{
			"buffer":0,
			"byteLength":40776,
			"byteOffset":166392,
			"target":34962
		},
		{
			"buffer":0,
			"byteLength":53652,
			"byteOffset":207168,
			"target":34963
		},
		{
			"buffer":0,
			"byteLength":27108,
			"byteOffset":260820,
			"target":34962
		},
		{
			"buffer":0,
			"byteLength":27108,
			"byteOffset":287928,
			"target":34962
		},
		{
			"buffer":0,
			"byteLength":18072,
			"byteOffset":315036,
			"target":34962
		},
		{
			"buffer":0,
			"byteLength":21828,
			"byteOffset":333108,
			"target":34963
		},
		{
			"buffer":0,
			"byteLength":21324,
			"byteOffset":354936,
			"target":34962
		},
		{
			"buffer":0,
			"byteLength":21324,
			"byteOffset":376260,
			"target":34962
		},
		{
			"buffer":0,
			"byteLength":14216,
			"byteOffset":397584,
			"target":34962
		},
		{
			"buffer":0,
			"byteLength":20364,
			"byteOffset":411800,
			"target":34963
		},
		{
			"buffer":0,
			"byteLength":17532,
			"byteOffset":432164,
			"target":34962
		},
		{
			"buffer":0,
			"byteLength":17532,
			"byteOffset":449696,
			"target":34962
		},
		{
			"buffer":0,
			"byteLength":11688,
			"byteOffset":467228,
			"target":34962
		},
		{
			"buffer":0,
			"byteLength":16308,
			"byteOffset":478916,
			"target":34963
		}
	],
	"samplers":[
		{
			"magFilter":9729,
			"minFilter":9987
		}
	],
	"buffers":[
		{
			"byteLength":495224,
			"uri":"mdl_paprika_marigolds.bin"
		}
	]
}
