{
	"asset":{
		"generator":"Khronos glTF Blender I/O v4.0.44",
		"version":"2.0"
	},
	"extensionsUsed":[
		"KHR_materials_specular",
		"KHR_materials_ior"
	],
	"scene":0,
	"scenes":[
		{
			"name":"Scene",
			"nodes":[
				4
			]
		}
	],
	"nodes":[
		{
			"name":"pCube5"
		},
		{
			"mesh":0,
			"name":"defaultMaterial"
		},
		{
			"children":[
				1
			],
			"name":"polySurface2",
			"rotation":[
				0.03181389346718788,
				0.012156355194747448,
				0.35673126578330994,
				0.933586061000824
			],
			"translation":[
				3.805985927581787,
				0.661309003829956,
				-0.3754221200942993
			]
		},
		{
			"children":[
				0,
				2
			],
			"name":"Collada visual scene group",
			"rotation":[
				0.70710688829422,
				0,
				0,
				0.7071066498756409
			]
		},
		{
			"children":[
				3
			],
			"name":"Sketchfab_model",
			"rotation":[
				-0.5,
				0.5,
				0.5,
				0.5
			]
		}
	],
	"materials":[
		{
			"doubleSided":true,
			"extensions":{
				"KHR_materials_specular":{
					"specularFactor":0
				},
				"KHR_materials_ior":{
					"ior":1.4500000476837158
				}
			},
			"name":"Material.001",
			"normalTexture":{
				"index":0
			},
			"pbrMetallicRoughness":{
				"baseColorTexture":{
					"index":1
				},
				"metallicFactor":0,
				"roughnessFactor":0.75
			}
		},
		{
			"doubleSided":true,
			"extensions":{
				"KHR_materials_specular":{
					"specularFactor":0
				},
				"KHR_materials_ior":{
					"ior":1.4500000476837158
				}
			},
			"name":"Material.002",
			"normalTexture":{
				"index":2
			},
			"pbrMetallicRoughness":{
				"baseColorTexture":{
					"index":3
				},
				"metallicFactor":0,
				"roughnessFactor":0.75
			}
		}
	],
	"meshes":[
		{
			"name":"defaultMaterial.004",
			"primitives":[
				{
					"attributes":{
						"POSITION":0,
						"NORMAL":1,
						"TEXCOORD_0":2
					},
					"indices":3,
					"material":0
				},
				{
					"attributes":{
						"POSITION":4,
						"NORMAL":5,
						"TEXCOORD_0":6
					},
					"indices":7,
					"material":1
				}
			]
		}
	],
	"textures":[
		{
			"sampler":0,
			"source":0
		},
		{
			"sampler":0,
			"source":1
		},
		{
			"sampler":0,
			"source":2
		},
		{
			"sampler":0,
			"source":3
		}
	],
	"images":[
		{
			"mimeType":"image/png",
			"name":"pasted__blinn1_normal",
			"uri":"pasted__blinn1_normal.png"
		},
		{
			"mimeType":"image/png",
			"name":"pasted__blinn1_baseColor",
			"uri":"pasted__blinn1_baseColor.png"
		},
		{
			"mimeType":"image/png",
			"name":"pages_n",
			"uri":"pages_n.png"
		},
		{
			"mimeType":"image/png",
			"name":"pages_a",
			"uri":"pages_a.png"
		}
	],
	"accessors":[
		{
			"bufferView":0,
			"componentType":5126,
			"count":240,
			"max":[
				0.130048006772995,
				5.717421054840088,
				0.6252599954605103
			],
			"min":[
				-0.8425800204277039,
				5.31786584854126,
				-0.6652230024337769
			],
			"type":"VEC3"
		},
		{
			"bufferView":1,
			"componentType":5126,
			"count":240,
			"type":"VEC3"
		},
		{
			"bufferView":2,
			"componentType":5126,
			"count":240,
			"type":"VEC2"
		},
		{
			"bufferView":3,
			"componentType":5123,
			"count":600,
			"type":"SCALAR"
		},
		{
			"bufferView":4,
			"componentType":5126,
			"count":28,
			"max":[
				0.10963699966669083,
				5.717421054840088,
				0.5610060095787048
			],
			"min":[
				-0.826246976852417,
				5.3274970054626465,
				-0.5919219851493835
			],
			"type":"VEC3"
		},
		{
			"bufferView":5,
			"componentType":5126,
			"count":28,
			"type":"VEC3"
		},
		{
			"bufferView":6,
			"componentType":5126,
			"count":28,
			"type":"VEC2"
		},
		{
			"bufferView":7,
			"componentType":5123,
			"count":72,
			"type":"SCALAR"
		}
	],
	"bufferViews":[
		{
			"buffer":0,
			"byteLength":2880,
			"byteOffset":0,
			"target":34962
		},
		{
			"buffer":0,
			"byteLength":2880,
			"byteOffset":2880,
			"target":34962
		},
		{
			"buffer":0,
			"byteLength":1920,
			"byteOffset":5760,
			"target":34962
		},
		{
			"buffer":0,
			"byteLength":1200,
			"byteOffset":7680,
			"target":34963
		},
		{
			"buffer":0,
			"byteLength":336,
			"byteOffset":8880,
			"target":34962
		},
		{
			"buffer":0,
			"byteLength":336,
			"byteOffset":9216,
			"target":34962
		},
		{
			"buffer":0,
			"byteLength":224,
			"byteOffset":9552,
			"target":34962
		},
		{
			"buffer":0,
			"byteLength":144,
			"byteOffset":9776,
			"target":34963
		}
	],
	"samplers":[
		{
			"magFilter":9729,
			"minFilter":9987
		}
	],
	"buffers":[
		{
			"byteLength":9920,
			"uri":"book.bin"
		}
	]
}
