{
	"asset":{
		"generator":"Khronos glTF Blender I/O v4.0.44",
		"version":"2.0"
	},
	"extensionsUsed":[
		"KHR_materials_specular",
		"KHR_materials_ior"
	],
	"scene":0,
	"scenes":[
		{
			"name":"Scene",
			"nodes":[
				0
			]
		}
	],
	"nodes":[
		{
			"mesh":0,
			"name":"pCube5",
			"rotation":[
				0.7071068286895752,
				0,
				0,
				0.7071068286895752
			]
		}
	],
	"materials":[
		{
			"doubleSided":true,
			"extensions":{
				"KHR_materials_specular":{
					"specularFactor":0
				},
				"KHR_materials_ior":{
					"ior":1.4500000476837158
				}
			},
			"name":"lambert1",
			"normalTexture":{
				"index":0
			},
			"pbrMetallicRoughness":{
				"baseColorTexture":{
					"index":1
				},
				"metallicFactor":0,
				"roughnessFactor":0.75
			}
		}
	],
	"meshes":[
		{
			"name":"meshId0_name",
			"primitives":[
				{
					"attributes":{
						"POSITION":0,
						"NORMAL":1,
						"TEXCOORD_0":2
					},
					"indices":3,
					"material":0
				}
			]
		}
	],
	"textures":[
		{
			"sampler":0,
			"source":0
		},
		{
			"sampler":0,
			"source":1
		}
	],
	"images":[
		{
			"mimeType":"image/png",
			"name":"lambert1_normal",
			"uri":"lambert1_normal.png"
		},
		{
			"mimeType":"image/jpeg",
			"name":"lambert1_albedo",
			"uri":"lambert1_albedo.jpg"
		}
	],
	"accessors":[
		{
			"bufferView":0,
			"componentType":5126,
			"count":1658,
			"max":[
				1.0089349746704102,
				1.0089349746704102,
				0.31792300939559937
			],
			"min":[
				-1.0089349746704102,
				-1.0089349746704102,
				-5.060665130615234
			],
			"type":"VEC3"
		},
		{
			"bufferView":1,
			"componentType":5126,
			"count":1658,
			"type":"VEC3"
		},
		{
			"bufferView":2,
			"componentType":5126,
			"count":1658,
			"type":"VEC2"
		},
		{
			"bufferView":3,
			"componentType":5123,
			"count":4008,
			"type":"SCALAR"
		}
	],
	"bufferViews":[
		{
			"buffer":0,
			"byteLength":19896,
			"byteOffset":0,
			"target":34962
		},
		{
			"buffer":0,
			"byteLength":19896,
			"byteOffset":19896,
			"target":34962
		},
		{
			"buffer":0,
			"byteLength":13264,
			"byteOffset":39792,
			"target":34962
		},
		{
			"buffer":0,
			"byteLength":8016,
			"byteOffset":53056,
			"target":34963
		}
	],
	"samplers":[
		{
			"magFilter":9729,
			"minFilter":9987
		}
	],
	"buffers":[
		{
			"byteLength":61072,
			"uri":"stand.bin"
		}
	]
}
