{
	"asset":{
		"generator":"Khronos glTF Blender I/O v3.6.27",
		"version":"2.0"
	},
	"extensionsUsed":[
		"KHR_materials_ior"
	],
	"scene":0,
	"scenes":[
		{
			"name":"Scene",
			"nodes":[
				0,
				1
			]
		}
	],
	"nodes":[
		{
			"name":"SketchUp"
		},
		{
			"mesh":0,
			"name":"mountains",
			"rotation":[
				0,
				0.20089131593704224,
				0,
				0.9796135425567627
			],
			"scale":[
				11.071688652038574,
				11.071688652038574,
				11.071688652038574
			],
			"translation":[
				1.3948291540145874,
				-0.041844867169857025,
				0
			]
		}
	],
	"materials":[
		{
			"doubleSided":true,
			"extensions":{
				"KHR_materials_specular":{
					"specularColorFactor":[
						0,
						0,
						0
					]
				},
				"KHR_materials_ior":{
					"ior":1
				}
			},
			"name":"Material.001",
			"pbrMetallicRoughness":{
				"baseColorTexture":{
					"index":0
				},
				"metallicFactor":0
			}
		}
	],
	"meshes":[
		{
			"name":"Plane.001",
			"primitives":[
				{
					"attributes":{
						"POSITION":0,
						"NORMAL":1,
						"TEXCOORD_0":2
					},
					"indices":3,
					"material":0
				}
			]
		}
	],
	"textures":[
		{
			"sampler":0,
			"source":0
		}
	],
	"images":[
		{
			"mimeType":"image/png",
			"name":"newmountain",
			"uri":"newmountain.png"
		}
	],
	"accessors":[
		{
			"bufferView":0,
			"componentType":5126,
			"count":1184,
			"max":[
				0.6598894000053406,
				0.5740103125572205,
				0.5674256682395935
			],
			"min":[
				-0.8162158727645874,
				-0.3530835509300232,
				-0.13954870402812958
			],
			"type":"VEC3"
		},
		{
			"bufferView":1,
			"componentType":5126,
			"count":1184,
			"type":"VEC3"
		},
		{
			"bufferView":2,
			"componentType":5126,
			"count":1184,
			"type":"VEC2"
		},
		{
			"bufferView":3,
			"componentType":5123,
			"count":4506,
			"type":"SCALAR"
		}
	],
	"bufferViews":[
		{
			"buffer":0,
			"byteLength":14208,
			"byteOffset":0,
			"target":34962
		},
		{
			"buffer":0,
			"byteLength":14208,
			"byteOffset":14208,
			"target":34962
		},
		{
			"buffer":0,
			"byteLength":9472,
			"byteOffset":28416,
			"target":34962
		},
		{
			"buffer":0,
			"byteLength":9012,
			"byteOffset":37888,
			"target":34963
		}
	],
	"samplers":[
		{
			"magFilter":9729,
			"minFilter":9987
		}
	],
	"buffers":[
		{
			"byteLength":46900,
			"uri":"mdl_franch_mountain.bin"
		}
	]
}
