{
    "asset" : {
        "generator" : "Khronos glTF Blender I/O v3.4.50",
        "version" : "2.0"
    },
    "extensionsUsed" : [
        "KHR_materials_specular"
    ],
    "scene" : 0,
    "scenes" : [
        {
            "name" : "Scene",
            "nodes" : [
                2
            ]
        }
    ],
    "nodes" : [
        {
            "mesh" : 0,
            "name" : "Object_5",
            "translation" : [
                0,
                1.8624956607818604,
                -4.204723834991455
            ]
        },
        {
            "children" : [
                0
            ],
            "name" : "Stylized _Plant_Pack.obj.cleaner.materialmerger.gles"
        },
        {
            "children" : [
                1
            ],
            "name" : "Sketchfab_model",
            "rotation" : [
                -0.70710688829422,
                0,
                0,
                0.7071066498756409
            ]
        }
    ],
    "materials" : [
        {
            "doubleSided" : true,
            "emissiveFactor" : [
                0.20000000298023224,
                0.20000000298023224,
                0.20000000298023224
            ],
            "emissiveTexture" : {
                "index" : 0
            },
            "extensions" : {
                "KHR_materials_specular" : {
                    "specularColorTexture" : {
                        "index" : 1
                    },
                    "specularColorFactor" : [
                        1.333333373069763,
                        1.3529411554336546,
                        1
                    ]
                }
            },
            "name" : "White_Flower",
            "pbrMetallicRoughness" : {
                "baseColorTexture" : {
                    "index" : 2
                },
                "metallicFactor" : 0,
                "metallicRoughnessTexture" : {
                    "index" : 3
                }
            }
        }
    ],
    "meshes" : [
        {
            "name" : "Object_3",
            "primitives" : [
                {
                    "attributes" : {
                        "POSITION" : 0,
                        "TEXCOORD_0" : 1,
                        "NORMAL" : 2
                    },
                    "indices" : 3,
                    "material" : 0
                }
            ]
        }
    ],
    "textures" : [
        {
            "sampler" : 0,
            "source" : 0
        },
        {
            "sampler" : 0,
            "source" : 1
        },
        {
            "sampler" : 0,
            "source" : 0
        },
        {
            "sampler" : 0,
            "source" : 2
        }
    ],
    "images" : [
        {
            "mimeType" : "image/png",
            "name" : "White_Flower_baseColor",
            "uri" : "textures/White_Flower_baseColor.png"
        },
        {
            "mimeType" : "image/png",
            "name" : "Image",
            "uri" : "textures/Image.png"
        },
        {
            "mimeType" : "image/png",
            "name" : "White_Flower_metallicRoughness",
            "uri" : "textures/White_Flower_metallicRoughness.png"
        }
    ],
    "accessors" : [
        {
            "bufferView" : 0,
            "componentType" : 5126,
            "count" : 1339,
            "max" : [
                1.3361186981201172,
                -1.285014033317566,
                5.785040855407715
            ],
            "min" : [
                -1.1987719535827637,
                -2.4154019355773926,
                3.1996021270751953
            ],
            "type" : "VEC3"
        },
        {
            "bufferView" : 1,
            "componentType" : 5126,
            "count" : 1339,
            "type" : "VEC2"
        },
        {
            "bufferView" : 2,
            "componentType" : 5126,
            "count" : 1339,
            "type" : "VEC3"
        },
        {
            "bufferView" : 3,
            "componentType" : 5123,
            "count" : 4632,
            "type" : "SCALAR"
        }
    ],
    "bufferViews" : [
        {
            "buffer" : 0,
            "byteLength" : 16068,
            "byteOffset" : 0,
            "target" : 34962
        },
        {
            "buffer" : 0,
            "byteLength" : 10712,
            "byteOffset" : 16068,
            "target" : 34962
        },
        {
            "buffer" : 0,
            "byteLength" : 16068,
            "byteOffset" : 26780,
            "target" : 34962
        },
        {
            "buffer" : 0,
            "byteLength" : 9264,
            "byteOffset" : 42848,
            "target" : 34963
        }
    ],
    "samplers" : [
        {
            "magFilter" : 9729,
            "minFilter" : 9987
        }
    ],
    "buffers" : [
        {
            "byteLength" : 52112,
            "uri" : "mdl_paprika_daisy.bin"
        }
    ]
}
