{
	"asset":{
		"generator":"Khronos glTF Blender I/O v4.0.44",
		"version":"2.0"
	},
	"extensionsUsed":[
		"KHR_materials_specular",
		"KHR_materials_ior"
	],
	"scene":0,
	"scenes":[
		{
			"name":"Scene",
			"nodes":[
				0,
				1,
				2
			]
		}
	],
	"nodes":[
		{
			"mesh":0,
			"name":"goethe-body"
		},
		{
			"mesh":1,
			"name":"goethe-head1"
		},
		{
			"mesh":2,
			"name":"goethe-head2"
		}
	],
	"materials":[
		{
			"doubleSided":true,
			"extensions":{
				"KHR_materials_specular":{
					"specularFactor":0
				},
				"KHR_materials_ior":{
					"ior":1.4500000476837158
				}
			},
			"name":"Goethe-Schiller-Denkmal_Material_u1_v1.001",
			"pbrMetallicRoughness":{
				"baseColorTexture":{
					"index":0
				},
				"metallicFactor":0
			}
		}
	],
	"meshes":[
		{
			"name":"Goethe-Schiller-Denkmal.001",
			"primitives":[
				{
					"attributes":{
						"POSITION":0,
						"NORMAL":1,
						"TEXCOORD_0":2
					},
					"indices":3,
					"material":0
				}
			]
		},
		{
			"name":"Goethe-Schiller-Denkmal.002",
			"primitives":[
				{
					"attributes":{
						"POSITION":4,
						"NORMAL":5,
						"TEXCOORD_0":6
					},
					"indices":7,
					"material":0
				}
			]
		},
		{
			"name":"Goethe-Schiller-Denkmal.003",
			"primitives":[
				{
					"attributes":{
						"POSITION":8,
						"NORMAL":9,
						"TEXCOORD_0":10
					},
					"indices":11,
					"material":0
				}
			]
		}
	],
	"textures":[
		{
			"sampler":0,
			"source":0
		}
	],
	"images":[
		{
			"mimeType":"image/jpeg",
			"name":"goethe-1k",
			"uri":"goethe-1k.jpg"
		}
	],
	"accessors":[
		{
			"bufferView":0,
			"componentType":5126,
			"count":8492,
			"max":[
				0.6136701107025146,
				1.7650295495986938,
				0.32979586720466614
			],
			"min":[
				-0.7744694352149963,
				-0.013715210370719433,
				-0.653351366519928
			],
			"type":"VEC3"
		},
		{
			"bufferView":1,
			"componentType":5126,
			"count":8492,
			"type":"VEC3"
		},
		{
			"bufferView":2,
			"componentType":5126,
			"count":8492,
			"type":"VEC2"
		},
		{
			"bufferView":3,
			"componentType":5123,
			"count":21453,
			"type":"SCALAR"
		},
		{
			"bufferView":4,
			"componentType":5126,
			"count":2672,
			"max":[
				0.44895118474960327,
				1.9847975969314575,
				0.12268263101577759
			],
			"min":[
				0.2021905779838562,
				1.670049786567688,
				-0.13684824109077454
			],
			"type":"VEC3"
		},
		{
			"bufferView":5,
			"componentType":5126,
			"count":2672,
			"type":"VEC3"
		},
		{
			"bufferView":6,
			"componentType":5126,
			"count":2672,
			"type":"VEC2"
		},
		{
			"bufferView":7,
			"componentType":5123,
			"count":10389,
			"type":"SCALAR"
		},
		{
			"bufferView":8,
			"componentType":5126,
			"count":2580,
			"max":[
				-0.1317276656627655,
				1.976688027381897,
				0.06308014690876007
			],
			"min":[
				-0.38695475459098816,
				1.6400973796844482,
				-0.20495952665805817
			],
			"type":"VEC3"
		},
		{
			"bufferView":9,
			"componentType":5126,
			"count":2580,
			"type":"VEC3"
		},
		{
			"bufferView":10,
			"componentType":5126,
			"count":2580,
			"type":"VEC2"
		},
		{
			"bufferView":11,
			"componentType":5123,
			"count":10479,
			"type":"SCALAR"
		}
	],
	"bufferViews":[
		{
			"buffer":0,
			"byteLength":101904,
			"byteOffset":0,
			"target":34962
		},
		{
			"buffer":0,
			"byteLength":101904,
			"byteOffset":101904,
			"target":34962
		},
		{
			"buffer":0,
			"byteLength":67936,
			"byteOffset":203808,
			"target":34962
		},
		{
			"buffer":0,
			"byteLength":42906,
			"byteOffset":271744,
			"target":34963
		},
		{
			"buffer":0,
			"byteLength":32064,
			"byteOffset":314652,
			"target":34962
		},
		{
			"buffer":0,
			"byteLength":32064,
			"byteOffset":346716,
			"target":34962
		},
		{
			"buffer":0,
			"byteLength":21376,
			"byteOffset":378780,
			"target":34962
		},
		{
			"buffer":0,
			"byteLength":20778,
			"byteOffset":400156,
			"target":34963
		},
		{
			"buffer":0,
			"byteLength":30960,
			"byteOffset":420936,
			"target":34962
		},
		{
			"buffer":0,
			"byteLength":30960,
			"byteOffset":451896,
			"target":34962
		},
		{
			"buffer":0,
			"byteLength":20640,
			"byteOffset":482856,
			"target":34962
		},
		{
			"buffer":0,
			"byteLength":20958,
			"byteOffset":503496,
			"target":34963
		}
	],
	"samplers":[
		{
			"magFilter":9729,
			"minFilter":9987
		}
	],
	"buffers":[
		{
			"byteLength":524456,
			"uri":"goethe.bin"
		}
	]
}
