{
	"asset":{
		"generator":"Khronos glTF Blender I/O v4.3.47",
		"version":"2.0"
	},
	"scene":0,
	"scenes":[
		{
			"name":"Scene",
			"nodes":[
				0,
				1,
				2
			]
		}
	],
	"nodes":[
		{
			"mesh":0,
			"name":"Cutout.004",
			"translation":[
				0.445000022649765,
				0.20899923145771027,
				0
			]
		},
		{
			"mesh":1,
			"name":"Cutout.005",
			"translation":[
				0.34550002217292786,
				0.30768266320228577,
				-0.015549715608358383
			]
		},
		{
			"mesh":2,
			"name":"Cutout.006",
			"translation":[
				0.41750001907348633,
				0.4582497775554657,
				-0.012141010724008083
			]
		}
	],
	"materials":[
		{
			"doubleSided":true,
			"name":"lfg_logo_earth.png",
			"pbrMetallicRoughness":{
				"baseColorTexture":{
					"index":0
				},
				"metallicFactor":0,
				"roughnessFactor":0.5
			}
		},
		{
			"doubleSided":true,
			"name":"lfg_logo_earth_continents.png",
			"pbrMetallicRoughness":{
				"baseColorTexture":{
					"index":1
				},
				"metallicFactor":0,
				"roughnessFactor":0.5
			}
		},
		{
			"doubleSided":true,
			"name":"lfg_logo_text.png",
			"pbrMetallicRoughness":{
				"baseColorTexture":{
					"index":2
				},
				"metallicFactor":0,
				"roughnessFactor":0.5
			}
		}
	],
	"meshes":[
		{
			"name":"leafig_mesh.024",
			"primitives":[
				{
					"attributes":{
						"POSITION":0,
						"NORMAL":1,
						"TEXCOORD_0":2
					},
					"indices":3,
					"material":0
				}
			]
		},
		{
			"name":"leafig_mesh.025",
			"primitives":[
				{
					"attributes":{
						"POSITION":4,
						"NORMAL":5,
						"TEXCOORD_0":6
					},
					"indices":7,
					"material":1
				}
			]
		},
		{
			"name":"leafig_mesh.026",
			"primitives":[
				{
					"attributes":{
						"POSITION":8,
						"NORMAL":9,
						"TEXCOORD_0":10
					},
					"indices":11,
					"material":2
				}
			]
		}
	],
	"textures":[
		{
			"sampler":0,
			"source":0
		},
		{
			"sampler":0,
			"source":1
		},
		{
			"sampler":0,
			"source":2
		}
	],
	"images":[
		{
			"mimeType":"image/png",
			"name":"logo_earth",
			"uri":"logo_earth.png"
		},
		{
			"mimeType":"image/png",
			"name":"logo_earth_continents",
			"uri":"logo_earth_continents.png"
		},
		{
			"mimeType":"image/png",
			"name":"logo_text",
			"uri":"logo_text.png"
		}
	],
	"accessors":[
		{
			"bufferView":0,
			"componentType":5126,
			"count":654,
			"max":[
				0.3465002477169037,
				0.5825009346008301,
				0.0181894414126873
			],
			"min":[
				-0.2360006421804428,
				-1.4901161193847656e-08,
				0
			],
			"type":"VEC3"
		},
		{
			"bufferView":1,
			"componentType":5126,
			"count":654,
			"type":"VEC3"
		},
		{
			"bufferView":2,
			"componentType":5126,
			"count":654,
			"type":"VEC2"
		},
		{
			"bufferView":3,
			"componentType":5123,
			"count":1296,
			"type":"SCALAR"
		},
		{
			"bufferView":4,
			"componentType":5126,
			"count":900,
			"max":[
				0.4466932713985443,
				0.422120600938797,
				0.04544110968708992
			],
			"min":[
				-0.08720922470092773,
				-0.09937648475170135,
				0
			],
			"type":"VEC3"
		},
		{
			"bufferView":5,
			"componentType":5126,
			"count":900,
			"type":"VEC3"
		},
		{
			"bufferView":6,
			"componentType":5126,
			"count":900,
			"type":"VEC2"
		},
		{
			"bufferView":7,
			"componentType":5123,
			"count":1764,
			"type":"SCALAR"
		},
		{
			"bufferView":8,
			"componentType":5126,
			"count":1926,
			"max":[
				0.47474974393844604,
				0.13199999928474426,
				0.05273081362247467
			],
			"min":[
				-0.31925028562545776,
				-2.9802322387695312e-08,
				0
			],
			"type":"VEC3"
		},
		{
			"bufferView":9,
			"componentType":5126,
			"count":1926,
			"type":"VEC3"
		},
		{
			"bufferView":10,
			"componentType":5126,
			"count":1926,
			"type":"VEC2"
		},
		{
			"bufferView":11,
			"componentType":5123,
			"count":3696,
			"type":"SCALAR"
		}
	],
	"bufferViews":[
		{
			"buffer":0,
			"byteLength":7848,
			"byteOffset":0,
			"target":34962
		},
		{
			"buffer":0,
			"byteLength":7848,
			"byteOffset":7848,
			"target":34962
		},
		{
			"buffer":0,
			"byteLength":5232,
			"byteOffset":15696,
			"target":34962
		},
		{
			"buffer":0,
			"byteLength":2592,
			"byteOffset":20928,
			"target":34963
		},
		{
			"buffer":0,
			"byteLength":10800,
			"byteOffset":23520,
			"target":34962
		},
		{
			"buffer":0,
			"byteLength":10800,
			"byteOffset":34320,
			"target":34962
		},
		{
			"buffer":0,
			"byteLength":7200,
			"byteOffset":45120,
			"target":34962
		},
		{
			"buffer":0,
			"byteLength":3528,
			"byteOffset":52320,
			"target":34963
		},
		{
			"buffer":0,
			"byteLength":23112,
			"byteOffset":55848,
			"target":34962
		},
		{
			"buffer":0,
			"byteLength":23112,
			"byteOffset":78960,
			"target":34962
		},
		{
			"buffer":0,
			"byteLength":15408,
			"byteOffset":102072,
			"target":34962
		},
		{
			"buffer":0,
			"byteLength":7392,
			"byteOffset":117480,
			"target":34963
		}
	],
	"samplers":[
		{
			"magFilter":9729,
			"minFilter":9987
		}
	],
	"buffers":[
		{
			"byteLength":124872,
			"uri":"wcay_logo.bin"
		}
	]
}
