{
	"asset":{
		"generator":"Khronos glTF Blender I/O v4.0.44",
		"version":"2.0"
	},
	"extensionsUsed":[
		"KHR_materials_specular",
		"KHR_materials_ior"
	],
	"scene":0,
	"scenes":[
		{
			"name":"Scene",
			"nodes":[
				0,
				1
			]
		}
	],
	"nodes":[
		{
			"mesh":0,
			"name":"humboldt-body"
		},
		{
			"mesh":1,
			"name":"humboldt-head",
			"scale":[
				1.0221246480941772,
				1.0221246480941772,
				1.0221246480941772
			],
			"translation":[
				-0.08054541796445847,
				1.8450777530670166,
				-0.09969598054885864
			]
		}
	],
	"materials":[
		{
			"doubleSided":true,
			"extensions":{
				"KHR_materials_specular":{
					"specularFactor":0
				},
				"KHR_materials_ior":{
					"ior":1.4500000476837158
				}
			},
			"name":"humboldtlast.001",
			"normalTexture":{
				"index":0,
				"scale":0
			},
			"pbrMetallicRoughness":{
				"baseColorTexture":{
					"index":1
				},
				"metallicFactor":0
			}
		},
		{
			"doubleSided":true,
			"extensions":{
				"KHR_materials_specular":{
					"specularFactor":0
				},
				"KHR_materials_ior":{
					"ior":1.4500000476837158
				}
			},
			"name":"humboldtlast.002",
			"normalTexture":{
				"index":2,
				"scale":0
			},
			"pbrMetallicRoughness":{
				"baseColorTexture":{
					"index":3
				},
				"metallicFactor":0
			}
		}
	],
	"meshes":[
		{
			"name":"humboldtlast_0000000.001",
			"primitives":[
				{
					"attributes":{
						"POSITION":0,
						"NORMAL":1,
						"TEXCOORD_0":2
					},
					"indices":3,
					"material":0
				}
			]
		},
		{
			"name":"humboldtlast_0000000.002",
			"primitives":[
				{
					"attributes":{
						"POSITION":4,
						"NORMAL":5,
						"TEXCOORD_0":6
					},
					"indices":7,
					"material":1
				}
			]
		}
	],
	"textures":[
		{
			"sampler":0,
			"source":0
		},
		{
			"sampler":0,
			"source":1
		},
		{
			"sampler":0,
			"source":0
		},
		{
			"sampler":0,
			"source":1
		}
	],
	"images":[
		{
			"mimeType":"image/jpeg",
			"name":"humboldtlast_normal-2k",
			"uri":"humboldtlast_normal-2k.jpg"
		},
		{
			"mimeType":"image/jpeg",
			"name":"humboldtlast_diffuse-2k",
			"uri":"humboldtlast_diffuse-2k.jpg"
		}
	],
	"accessors":[
		{
			"bufferView":0,
			"componentType":5126,
			"count":7809,
			"max":[
				0.4387906789779663,
				1.8288168907165527,
				0.34880921244621277
			],
			"min":[
				-0.4712075889110565,
				0.00021355730132199824,
				-0.3319607973098755
			],
			"type":"VEC3"
		},
		{
			"bufferView":1,
			"componentType":5126,
			"count":7809,
			"type":"VEC3"
		},
		{
			"bufferView":2,
			"componentType":5126,
			"count":7809,
			"type":"VEC2"
		},
		{
			"bufferView":3,
			"componentType":5123,
			"count":21036,
			"type":"SCALAR"
		},
		{
			"bufferView":4,
			"componentType":5126,
			"count":3476,
			"max":[
				0.12653328478336334,
				0.15370579063892365,
				0.15551665425300598
			],
			"min":[
				-0.11758501082658768,
				-0.18378174304962158,
				-0.125448539853096
			],
			"type":"VEC3"
		},
		{
			"bufferView":5,
			"componentType":5126,
			"count":3476,
			"type":"VEC3"
		},
		{
			"bufferView":6,
			"componentType":5126,
			"count":3476,
			"type":"VEC2"
		},
		{
			"bufferView":7,
			"componentType":5123,
			"count":13254,
			"type":"SCALAR"
		}
	],
	"bufferViews":[
		{
			"buffer":0,
			"byteLength":93708,
			"byteOffset":0,
			"target":34962
		},
		{
			"buffer":0,
			"byteLength":93708,
			"byteOffset":93708,
			"target":34962
		},
		{
			"buffer":0,
			"byteLength":62472,
			"byteOffset":187416,
			"target":34962
		},
		{
			"buffer":0,
			"byteLength":42072,
			"byteOffset":249888,
			"target":34963
		},
		{
			"buffer":0,
			"byteLength":41712,
			"byteOffset":291960,
			"target":34962
		},
		{
			"buffer":0,
			"byteLength":41712,
			"byteOffset":333672,
			"target":34962
		},
		{
			"buffer":0,
			"byteLength":27808,
			"byteOffset":375384,
			"target":34962
		},
		{
			"buffer":0,
			"byteLength":26508,
			"byteOffset":403192,
			"target":34963
		}
	],
	"samplers":[
		{
			"magFilter":9729,
			"minFilter":9987
		}
	],
	"buffers":[
		{
			"byteLength":429700,
			"uri":"humboldt.bin"
		}
	]
}
