{
	"asset":{
		"generator":"Khronos glTF Blender I/O v4.1.63",
		"version":"2.0"
	},
	"scene":0,
	"scenes":[
		{
			"name":"Scene",
			"nodes":[
				4
			]
		}
	],
	"nodes":[
		{
			"mesh":0,
			"name":"Object_4"
		},
		{
			"children":[
				0
			],
			"name":"Aset_street__M_ui1ldhkba_LOD0_2",
			"rotation":[
				0.6532815098762512,
				0.27059805393218994,
				-0.27059808373451233,
				0.6532815098762512
			],
			"scale":[
				0.009999999776482582,
				0.009999999776482582,
				0.010000000707805157
			]
		},
		{
			"children":[
				1
			],
			"name":"GLTF_SceneRootNode",
			"rotation":[
				0.70710688829422,
				0,
				0,
				0.7071066498756409
			]
		},
		{
			"children":[
				2
			],
			"name":"root"
		},
		{
			"children":[
				3
			],
			"name":"Sketchfab_model",
			"rotation":[
				-0.70710688829422,
				0,
				0,
				0.7071066498756409
			]
		}
	],
	"materials":[
		{
			"doubleSided":true,
			"name":"Concrete_Plant_ui1ldhkba",
			"normalTexture":{
				"index":0
			},
			"pbrMetallicRoughness":{
				"baseColorTexture":{
					"index":1
				},
				"metallicFactor":0,
				"metallicRoughnessTexture":{
					"index":2
				}
			}
		}
	],
	"meshes":[
		{
			"name":"Object_0.007",
			"primitives":[
				{
					"attributes":{
						"POSITION":0,
						"NORMAL":1,
						"TEXCOORD_0":2,
						"TEXCOORD_1":3,
						"TEXCOORD_2":4,
						"TEXCOORD_3":5
					},
					"indices":6,
					"material":0
				}
			]
		}
	],
	"textures":[
		{
			"sampler":0,
			"source":0
		},
		{
			"sampler":0,
			"source":1
		},
		{
			"sampler":0,
			"source":2
		}
	],
	"images":[
		{
			"mimeType":"image/jpeg",
			"name":"Concrete_Plant_ui1ldhkba_normal",
			"uri":"Concrete_Plant_ui1ldhkba_normal.jpg"
		},
		{
			"mimeType":"image/jpeg",
			"name":"Concrete_Plant_ui1ldhkba_baseColor",
			"uri":"Concrete_Plant_ui1ldhkba_baseColor.jpg"
		},
		{
			"mimeType":"image/png",
			"name":"Concrete_Plant_ui1ldhkba_metallicRoughness",
			"uri":"Concrete_Plant_ui1ldhkba_metallicRoughness.png"
		}
	],
	"accessors":[
		{
			"bufferView":0,
			"componentType":5126,
			"count":1700,
			"max":[
				46.208133697509766,
				46.23027038574219,
				0.620686411857605
			],
			"min":[
				-45.17067337036133,
				-44.622711181640625,
				-72.6850357055664
			],
			"type":"VEC3"
		},
		{
			"bufferView":1,
			"componentType":5126,
			"count":1700,
			"type":"VEC3"
		},
		{
			"bufferView":2,
			"componentType":5126,
			"count":1700,
			"type":"VEC2"
		},
		{
			"bufferView":3,
			"componentType":5126,
			"count":1700,
			"type":"VEC2"
		},
		{
			"bufferView":4,
			"componentType":5126,
			"count":1700,
			"type":"VEC2"
		},
		{
			"bufferView":5,
			"componentType":5126,
			"count":1700,
			"type":"VEC2"
		},
		{
			"bufferView":6,
			"componentType":5123,
			"count":8199,
			"type":"SCALAR"
		}
	],
	"bufferViews":[
		{
			"buffer":0,
			"byteLength":20400,
			"byteOffset":0,
			"target":34962
		},
		{
			"buffer":0,
			"byteLength":20400,
			"byteOffset":20400,
			"target":34962
		},
		{
			"buffer":0,
			"byteLength":13600,
			"byteOffset":40800,
			"target":34962
		},
		{
			"buffer":0,
			"byteLength":13600,
			"byteOffset":54400,
			"target":34962
		},
		{
			"buffer":0,
			"byteLength":13600,
			"byteOffset":68000,
			"target":34962
		},
		{
			"buffer":0,
			"byteLength":13600,
			"byteOffset":81600,
			"target":34962
		},
		{
			"buffer":0,
			"byteLength":16398,
			"byteOffset":95200,
			"target":34963
		}
	],
	"samplers":[
		{
			"magFilter":9729,
			"minFilter":9987
		}
	],
	"buffers":[
		{
			"byteLength":111600,
			"uri":"scene.bin"
		}
	]
}
