{
	"asset":{
		"generator":"Khronos glTF Blender I/O v4.0.44",
		"version":"2.0"
	},
	"extensionsUsed":[
		"KHR_materials_specular",
		"KHR_materials_ior"
	],
	"scene":0,
	"scenes":[
		{
			"name":"Scene",
			"nodes":[
				4
			]
		}
	],
	"nodes":[
		{
			"mesh":0,
			"name":"Stereo textured mesh_Material0_0.001"
		},
		{
			"children":[
				0
			],
			"name":"Stereo textured mesh"
		},
		{
			"children":[
				1
			],
			"name":"RootNode"
		},
		{
			"children":[
				2
			],
			"name":"sketchfabTemp.obj.fbx",
			"rotation":[
				1,
				0,
				0,
				0
			]
		},
		{
			"children":[
				3
			],
			"name":"Sketchfab_model",
			"rotation":[
				-1,
				0,
				0,
				2.220446049250313e-16
			],
			"translation":[
				0,
				0.2020338773727417,
				-1.4803909063339233
			]
		}
	],
	"materials":[
		{
			"doubleSided":true,
			"extensions":{
				"KHR_materials_specular":{
					"specularColorFactor":[
						0.0,
						0.0,
						0.0
					]
				},
				"KHR_materials_ior":{
					"ior":1.4500000476837158
				}
			},
			"name":"Material.112",
			"pbrMetallicRoughness":{
				"baseColorTexture":{
					"index":0
				},
				"metallicFactor":0
			}
		}
	],
	"meshes":[
		{
			"name":"Stereo textured mesh_Material0_0.004",
			"primitives":[
				{
					"attributes":{
						"POSITION":0,
						"NORMAL":1,
						"TEXCOORD_0":2
					},
					"indices":3,
					"material":0
				}
			]
		}
	],
	"textures":[
		{
			"sampler":0,
			"source":0
		}
	],
	"images":[
		{
			"mimeType":"image/jpeg",
			"name":"Image_suitacse",
			"uri":"Image_suitacse.jpg"
		}
	],
	"accessors":[
		{
			"bufferView":0,
			"componentType":5126,
			"count":4745,
			"max":[
				5.0618391036987305,
				2.6995108127593994,
				5.6334710121154785
			],
			"min":[
				-4.7271409034729,
				-4.3852996826171875,
				-4.367382526397705
			],
			"type":"VEC3"
		},
		{
			"bufferView":1,
			"componentType":5126,
			"count":4745,
			"type":"VEC3"
		},
		{
			"bufferView":2,
			"componentType":5126,
			"count":4745,
			"type":"VEC2"
		},
		{
			"bufferView":3,
			"componentType":5123,
			"count":12900,
			"type":"SCALAR"
		}
	],
	"bufferViews":[
		{
			"buffer":0,
			"byteLength":56940,
			"byteOffset":0,
			"target":34962
		},
		{
			"buffer":0,
			"byteLength":56940,
			"byteOffset":56940,
			"target":34962
		},
		{
			"buffer":0,
			"byteLength":37960,
			"byteOffset":113880,
			"target":34962
		},
		{
			"buffer":0,
			"byteLength":25800,
			"byteOffset":151840,
			"target":34963
		}
	],
	"samplers":[
		{
			"magFilter":9729,
			"minFilter":9987
		}
	],
	"buffers":[
		{
			"byteLength":177640,
			"uri":"old_travel_case.bin"
		}
	]
}
