{
	"asset":{
		"generator":"Khronos glTF Blender I/O v4.0.44",
		"version":"2.0"
	},
	"scene":0,
	"scenes":[
		{
			"name":"Scene",
			"nodes":[
				0
			]
		}
	],
	"nodes":[
		{
			"mesh":0,
			"name":"Cylinder",
			"scale":[
				0.015678411349654198,
				0.0014494694769382477,
				0.015678411349654198
			]
		}
	],
	"materials":[
		{
			"doubleSided":true,
			"name":"Material.115",
			"pbrMetallicRoughness":{
				"baseColorTexture":{
					"index":0
				},
				"metallicFactor":0,
				"roughnessFactor":0.5
			}
		},
		{
			"doubleSided":true,
			"name":"Material.116",
			"normalTexture":{
				"index":1
			},
			"pbrMetallicRoughness":{
				"baseColorTexture":{
					"index":2
				},
				"metallicFactor":0,
				"metallicRoughnessTexture":{
					"index":3
				}
			}
		},
		{
			"doubleSided":true,
			"name":"Material.117",
			"pbrMetallicRoughness":{
				"baseColorFactor":[
					0,
					0,
					0,
					1
				],
				"metallicFactor":0,
				"roughnessFactor":0.5
			}
		}
	],
	"meshes":[
		{
			"name":"Cylinder.032",
			"primitives":[
				{
					"attributes":{
						"POSITION":0,
						"NORMAL":1,
						"TEXCOORD_0":2
					},
					"indices":3,
					"material":0
				},
				{
					"attributes":{
						"POSITION":4,
						"NORMAL":5,
						"TEXCOORD_0":6
					},
					"indices":7,
					"material":1
				},
				{
					"attributes":{
						"POSITION":8,
						"NORMAL":9,
						"TEXCOORD_0":10
					},
					"indices":11,
					"material":2
				}
			]
		}
	],
	"textures":[
		{
			"sampler":0,
			"source":0
		},
		{
			"sampler":0,
			"source":1
		},
		{
			"sampler":0,
			"source":2
		},
		{
			"sampler":0,
			"source":3
		}
	],
	"images":[
		{
			"mimeType":"image/png",
			"name":"Untitled_design_5",
			"uri":"Untitled_design_5.png"
		},
		{
			"mimeType":"image/png",
			"name":"Wood069_2K-PNG_NormalGL",
			"uri":"Wood069_2K-PNG_NormalGL.png"
		},
		{
			"mimeType":"image/png",
			"name":"Wood069_2K-PNG_Color",
			"uri":"Wood069_2K-PNG_Color.png"
		},
		{
			"mimeType":"image/png",
			"name":"Wood069_2K-PNG_Roughness",
			"uri":"Wood069_2K-PNG_Roughness.png"
		}
	],
	"accessors":[
		{
			"bufferView":0,
			"componentType":5126,
			"count":32,
			"max":[
				0.9053551554679871,
				1.0072604417800903,
				0.9053551554679871
			],
			"min":[
				-0.9053551554679871,
				1.0072604417800903,
				-0.9053551554679871
			],
			"type":"VEC3"
		},
		{
			"bufferView":1,
			"componentType":5126,
			"count":32,
			"type":"VEC3"
		},
		{
			"bufferView":2,
			"componentType":5126,
			"count":32,
			"type":"VEC2"
		},
		{
			"bufferView":3,
			"componentType":5123,
			"count":90,
			"type":"SCALAR"
		},
		{
			"bufferView":4,
			"componentType":5126,
			"count":376,
			"max":[
				1,
				1.2612665891647339,
				1
			],
			"min":[
				-1,
				-0.11776798963546753,
				-1
			],
			"type":"VEC3"
		},
		{
			"bufferView":5,
			"componentType":5126,
			"count":376,
			"type":"VEC3"
		},
		{
			"bufferView":6,
			"componentType":5126,
			"count":376,
			"type":"VEC2"
		},
		{
			"bufferView":7,
			"componentType":5123,
			"count":1050,
			"type":"SCALAR"
		},
		{
			"bufferView":8,
			"componentType":5126,
			"count":136,
			"max":[
				0.05838138982653618,
				1.2806202173233032,
				0.05838138982653618
			],
			"min":[
				-0.05838138982653618,
				0.9096702933311462,
				-0.05838138982653618
			],
			"type":"VEC3"
		},
		{
			"bufferView":9,
			"componentType":5126,
			"count":136,
			"type":"VEC3"
		},
		{
			"bufferView":10,
			"componentType":5126,
			"count":136,
			"type":"VEC2"
		},
		{
			"bufferView":11,
			"componentType":5123,
			"count":372,
			"type":"SCALAR"
		}
	],
	"bufferViews":[
		{
			"buffer":0,
			"byteLength":384,
			"byteOffset":0,
			"target":34962
		},
		{
			"buffer":0,
			"byteLength":384,
			"byteOffset":384,
			"target":34962
		},
		{
			"buffer":0,
			"byteLength":256,
			"byteOffset":768,
			"target":34962
		},
		{
			"buffer":0,
			"byteLength":180,
			"byteOffset":1024,
			"target":34963
		},
		{
			"buffer":0,
			"byteLength":4512,
			"byteOffset":1204,
			"target":34962
		},
		{
			"buffer":0,
			"byteLength":4512,
			"byteOffset":5716,
			"target":34962
		},
		{
			"buffer":0,
			"byteLength":3008,
			"byteOffset":10228,
			"target":34962
		},
		{
			"buffer":0,
			"byteLength":2100,
			"byteOffset":13236,
			"target":34963
		},
		{
			"buffer":0,
			"byteLength":1632,
			"byteOffset":15336,
			"target":34962
		},
		{
			"buffer":0,
			"byteLength":1632,
			"byteOffset":16968,
			"target":34962
		},
		{
			"buffer":0,
			"byteLength":1088,
			"byteOffset":18600,
			"target":34962
		},
		{
			"buffer":0,
			"byteLength":744,
			"byteOffset":19688,
			"target":34963
		}
	],
	"samplers":[
		{
			"magFilter":9729,
			"minFilter":9987
		}
	],
	"buffers":[
		{
			"byteLength":20432,
			"uri":"redwoodclock.bin"
		}
	]
}
