{
	"asset":{
		"generator":"Khronos glTF Blender I/O v4.0.44",
		"version":"2.0"
	},
	"extensionsUsed":[
		"KHR_materials_specular",
		"KHR_materials_ior"
	],
	"scene":0,
	"scenes":[
		{
			"name":"Scene",
			"nodes":[
				0
			]
		}
	],
	"nodes":[
		{
			"mesh":0,
			"name":"ballerina"
		}
	],
	"materials":[
		{
			"doubleSided":true,
			"extensions":{
				"KHR_materials_specular":{
					"specularColorFactor":[
						2.0,
						2.0,
						2.0
					]
				},
				"KHR_materials_ior":{
					"ior":1.4500000476837158
				}
			},
			"name":"06 - Default.002",
			"pbrMetallicRoughness":{
				"baseColorFactor":[
					0.6149019598960876,
					0.6149019598960876,
					0.699999988079071,
					1
				],
				"metallicFactor":0,
				"roughnessFactor":0.5527864098548889
			}
		}
	],
	"meshes":[
		{
			"name":"Mesh.004",
			"primitives":[
				{
					"attributes":{
						"POSITION":0,
						"NORMAL":1,
						"TEXCOORD_0":2,
						"TEXCOORD_1":3,
						"TEXCOORD_2":4,
						"TEXCOORD_3":5,
						"TEXCOORD_4":6,
						"TEXCOORD_5":7,
						"TEXCOORD_6":8,
						"TEXCOORD_7":9
					},
					"indices":10,
					"material":0
				}
			]
		}
	],
	"accessors":[
		{
			"bufferView":0,
			"componentType":5126,
			"count":1527,
			"max":[
				0.23753796517848969,
				0.3445817530155182,
				0.21200105547904968
			],
			"min":[
				-0.22152531147003174,
				-0.47409552335739136,
				-0.1981770098209381
			],
			"type":"VEC3"
		},
		{
			"bufferView":1,
			"componentType":5126,
			"count":1527,
			"type":"VEC3"
		},
		{
			"bufferView":2,
			"componentType":5126,
			"count":1527,
			"type":"VEC2"
		},
		{
			"bufferView":3,
			"componentType":5126,
			"count":1527,
			"type":"VEC2"
		},
		{
			"bufferView":4,
			"componentType":5126,
			"count":1527,
			"type":"VEC2"
		},
		{
			"bufferView":5,
			"componentType":5126,
			"count":1527,
			"type":"VEC2"
		},
		{
			"bufferView":6,
			"componentType":5126,
			"count":1527,
			"type":"VEC2"
		},
		{
			"bufferView":7,
			"componentType":5126,
			"count":1527,
			"type":"VEC2"
		},
		{
			"bufferView":8,
			"componentType":5126,
			"count":1527,
			"type":"VEC2"
		},
		{
			"bufferView":9,
			"componentType":5126,
			"count":1527,
			"type":"VEC2"
		},
		{
			"bufferView":10,
			"componentType":5123,
			"count":6495,
			"type":"SCALAR"
		}
	],
	"bufferViews":[
		{
			"buffer":0,
			"byteLength":18324,
			"byteOffset":0,
			"target":34962
		},
		{
			"buffer":0,
			"byteLength":18324,
			"byteOffset":18324,
			"target":34962
		},
		{
			"buffer":0,
			"byteLength":12216,
			"byteOffset":36648,
			"target":34962
		},
		{
			"buffer":0,
			"byteLength":12216,
			"byteOffset":48864,
			"target":34962
		},
		{
			"buffer":0,
			"byteLength":12216,
			"byteOffset":61080,
			"target":34962
		},
		{
			"buffer":0,
			"byteLength":12216,
			"byteOffset":73296,
			"target":34962
		},
		{
			"buffer":0,
			"byteLength":12216,
			"byteOffset":85512,
			"target":34962
		},
		{
			"buffer":0,
			"byteLength":12216,
			"byteOffset":97728,
			"target":34962
		},
		{
			"buffer":0,
			"byteLength":12216,
			"byteOffset":109944,
			"target":34962
		},
		{
			"buffer":0,
			"byteLength":12216,
			"byteOffset":122160,
			"target":34962
		},
		{
			"buffer":0,
			"byteLength":12990,
			"byteOffset":134376,
			"target":34963
		}
	],
	"buffers":[
		{
			"byteLength":147368,
			"uri":"ballerina.bin"
		}
	]
}
