{
    "asset" : {
        "generator" : "Khronos glTF Blender I/O v3.4.50",
        "version" : "2.0"
    },
    "scene" : 0,
    "scenes" : [
        {
            "name" : "Scene",
            "nodes" : [
                1,
                6
            ]
        }
    ],
    "nodes" : [
        {
            "name" : "ID1",
            "translation" : [
                0,
                -3.039836883544922e-06,
                -1.9397586584091187e-05
            ]
        },
        {
            "children" : [
                0
            ],
            "name" : "skp_camera_Last_Saved_SketchUp_View",
            "rotation" : [
                0.007086034398525953,
                -0.35136860609054565,
                -0.9360200762748718,
                0.018876681104302406
            ],
            "translation" : [
                2.089055061340332,
                267.8211975097656,
                277.55419921875
            ]
        },
        {
            "mesh" : 0,
            "name" : "FlowerPotCLP3_FlowerPotLP_0",
            "translation" : [
                0,
                -3.6091063022613525,
                0
            ]
        },
        {
            "children" : [
                2
            ],
            "name" : "FlowerPotCLP3",
            "rotation" : [
                -0.70710688829422,
                0,
                0,
                0.7071066498756409
            ],
            "scale" : [
                100,
                99.99998474121094,
                99.99998474121094
            ],
            "translation" : [
                -0.31578928232192993,
                103.12085723876953,
                -363.1811218261719
            ]
        },
        {
            "children" : [
                3
            ],
            "name" : "RootNode"
        },
        {
            "children" : [
                4
            ],
            "name" : "6edf1fda62b74879a47a8bb51e91e641.fbx",
            "rotation" : [
                0.70710688829422,
                0,
                0,
                0.7071066498756409
            ],
            "scale" : [
                0.009999999776482582,
                0.009999999776482582,
                0.009999999776482582
            ]
        },
        {
            "children" : [
                5
            ],
            "name" : "Sketchfab_model",
            "rotation" : [
                -0.70710688829422,
                0,
                0,
                0.7071066498756409
            ]
        }
    ],
    "materials" : [
        {
            "doubleSided" : true,
            "name" : "FlowerPotLP",
            "normalTexture" : {
                "index" : 0
            },
            "pbrMetallicRoughness" : {
                "baseColorTexture" : {
                    "index" : 1
                },
                "metallicFactor" : 0,
                "metallicRoughnessTexture" : {
                    "index" : 2
                }
            }
        }
    ],
    "meshes" : [
        {
            "name" : "FlowerPotCLP3_FlowerPotLP_0",
            "primitives" : [
                {
                    "attributes" : {
                        "POSITION" : 0,
                        "TEXCOORD_0" : 1,
                        "TEXCOORD_1" : 2,
                        "TEXCOORD_2" : 3,
                        "NORMAL" : 4
                    },
                    "indices" : 5,
                    "material" : 0
                }
            ]
        }
    ],
    "textures" : [
        {
            "sampler" : 0,
            "source" : 0
        },
        {
            "sampler" : 0,
            "source" : 1
        },
        {
            "sampler" : 0,
            "source" : 2
        }
    ],
    "images" : [
        {
            "mimeType" : "image/png",
            "name" : "FlowerPotLP_normal",
            "uri" : "textures/FlowerPotLP_normal.png"
        },
        {
            "mimeType" : "image/png",
            "name" : "FlowerPotLP_baseColor",
            "uri" : "textures/FlowerPotLP_baseColor.png"
        },
        {
            "mimeType" : "image/png",
            "name" : "FlowerPotLP_metallicRoughness",
            "uri" : "textures/FlowerPotLP_metallicRoughness.png"
        }
    ],
    "accessors" : [
        {
            "bufferView" : 0,
            "componentType" : 5126,
            "count" : 270,
            "max" : [
                0.7620217800140381,
                0.7620210647583008,
                0.3888968229293823
            ],
            "min" : [
                -0.7620217800140381,
                -0.7620222568511963,
                -1.0306316614151
            ],
            "type" : "VEC3"
        },
        {
            "bufferView" : 1,
            "componentType" : 5126,
            "count" : 270,
            "type" : "VEC2"
        },
        {
            "bufferView" : 2,
            "componentType" : 5126,
            "count" : 270,
            "type" : "VEC2"
        },
        {
            "bufferView" : 3,
            "componentType" : 5126,
            "count" : 270,
            "type" : "VEC2"
        },
        {
            "bufferView" : 4,
            "componentType" : 5126,
            "count" : 270,
            "type" : "VEC3"
        },
        {
            "bufferView" : 5,
            "componentType" : 5123,
            "count" : 1188,
            "type" : "SCALAR"
        }
    ],
    "bufferViews" : [
        {
            "buffer" : 0,
            "byteLength" : 3240,
            "byteOffset" : 0,
            "target" : 34962
        },
        {
            "buffer" : 0,
            "byteLength" : 2160,
            "byteOffset" : 3240,
            "target" : 34962
        },
        {
            "buffer" : 0,
            "byteLength" : 2160,
            "byteOffset" : 5400,
            "target" : 34962
        },
        {
            "buffer" : 0,
            "byteLength" : 2160,
            "byteOffset" : 7560,
            "target" : 34962
        },
        {
            "buffer" : 0,
            "byteLength" : 3240,
            "byteOffset" : 9720,
            "target" : 34962
        },
        {
            "buffer" : 0,
            "byteLength" : 2376,
            "byteOffset" : 12960,
            "target" : 34963
        }
    ],
    "samplers" : [
        {
            "magFilter" : 9729,
            "minFilter" : 9987
        }
    ],
    "buffers" : [
        {
            "byteLength" : 15336,
            "uri" : "mdl_paprika_pot2.bin"
        }
    ]
}
