{
	"asset":{
		"generator":"Khronos glTF Blender I/O v4.2.57",
		"version":"2.0"
	},
	"extensionsUsed":[
		"KHR_materials_specular"
	],
	"scene":0,
	"scenes":[
		{
			"name":"Scene",
			"nodes":[
				4,
				6
			]
		}
	],
	"nodes":[
		{
			"mesh":0,
			"name":"SM_Bathtub_Material #3_0"
		},
		{
			"children":[
				0
			],
			"name":"SM_Bathtub",
			"rotation":[
				-0.70710688829422,
				0,
				0,
				0.7071066498756409
			]
		},
		{
			"children":[
				1
			],
			"name":"RootNode"
		},
		{
			"children":[
				2
			],
			"name":"3ba11b40022544be82b717e64b4de3f7.fbx",
			"rotation":[
				0.70710688829422,
				0,
				0,
				0.7071066498756409
			]
		},
		{
			"children":[
				3
			],
			"name":"Sketchfab_model",
			"rotation":[
				-0.70710688829422,
				0,
				0,
				0.7071066498756409
			]
		},
		{
			"name":"salambo - CleanUp - LowPoly.obj.cleaner.materialmerger.gles"
		},
		{
			"children":[
				5
			],
			"name":"Sketchfab_model.001",
			"rotation":[
				-0.9032100439071655,
				0.0013980567455291748,
				0.42835596203804016,
				0.0268495362251997
			],
			"scale":[
				6.011635780334473,
				6.011634826660156,
				6.0116353034973145
			],
			"translation":[
				96.85548400878906,
				14.432525634765625,
				42.4958381652832
			]
		}
	],
	"materials":[
		{
			"doubleSided":true,
			"name":"Material_3",
			"normalTexture":{
				"index":0
			},
			"pbrMetallicRoughness":{
				"baseColorTexture":{
					"index":1
				},
				"metallicRoughnessTexture":{
					"index":2
				}
			}
		},
		{
			"alphaMode":"BLEND",
			"doubleSided":true,
			"extensions":{
				"KHR_materials_specular":{
					"specularColorFactor":[
						2.0,
						2.0,
						2.0
					]
				}
			},
			"name":"f_1Shape",
			"pbrMetallicRoughness":{
				"baseColorFactor":[
					1,
					1,
					1,
					0.699999988079071
				],
				"baseColorTexture":{
					"index":3
				},
				"roughnessFactor":0
			}
		}
	],
	"meshes":[
		{
			"name":"SM_Bathtub_Material #3_0",
			"primitives":[
				{
					"attributes":{
						"POSITION":0,
						"NORMAL":1,
						"TEXCOORD_0":2
					},
					"indices":3,
					"material":0
				},
				{
					"attributes":{
						"POSITION":4,
						"NORMAL":5,
						"TEXCOORD_0":6
					},
					"indices":7,
					"material":1
				}
			]
		}
	],
	"textures":[
		{
			"sampler":0,
			"source":0
		},
		{
			"sampler":0,
			"source":1
		},
		{
			"sampler":0,
			"source":2
		},
		{
			"sampler":0,
			"source":3
		}
	],
	"images":[
		{
			"mimeType":"image/png",
			"name":"Material_3_normal",
			"uri":"Material_3_normal.png"
		},
		{
			"mimeType":"image/jpeg",
			"name":"Material_3_baseColor",
			"uri":"Material_3_baseColor.jpg"
		},
		{
			"mimeType":"image/png",
			"name":"Material_3_metallicRoughness",
			"uri":"Material_3_metallicRoughness.png"
		},
		{
			"mimeType":"image/png",
			"name":"fountain_water",
			"uri":"fountain_water.png"
		}
	],
	"accessors":[
		{
			"bufferView":0,
			"componentType":5126,
			"count":1063,
			"max":[
				93.11890411376953,
				42.83754348754883,
				55.48381423950195
			],
			"min":[
				-93.11827087402344,
				-42.837554931640625,
				-0.09471295028924942
			],
			"type":"VEC3"
		},
		{
			"bufferView":1,
			"componentType":5126,
			"count":1063,
			"type":"VEC3"
		},
		{
			"bufferView":2,
			"componentType":5126,
			"count":1063,
			"type":"VEC2"
		},
		{
			"bufferView":3,
			"componentType":5123,
			"count":3630,
			"type":"SCALAR"
		},
		{
			"bufferView":4,
			"componentType":5126,
			"count":21,
			"max":[
				82.3431167602539,
				31.619884490966797,
				52.29615783691406
			],
			"min":[
				-82.30103302001953,
				-31.865428924560547,
				44.479164123535156
			],
			"type":"VEC3"
		},
		{
			"bufferView":5,
			"componentType":5126,
			"count":21,
			"type":"VEC3"
		},
		{
			"bufferView":6,
			"componentType":5126,
			"count":21,
			"type":"VEC2"
		},
		{
			"bufferView":7,
			"componentType":5123,
			"count":57,
			"type":"SCALAR"
		}
	],
	"bufferViews":[
		{
			"buffer":0,
			"byteLength":12756,
			"byteOffset":0,
			"target":34962
		},
		{
			"buffer":0,
			"byteLength":12756,
			"byteOffset":12756,
			"target":34962
		},
		{
			"buffer":0,
			"byteLength":8504,
			"byteOffset":25512,
			"target":34962
		},
		{
			"buffer":0,
			"byteLength":7260,
			"byteOffset":34016,
			"target":34963
		},
		{
			"buffer":0,
			"byteLength":252,
			"byteOffset":41276,
			"target":34962
		},
		{
			"buffer":0,
			"byteLength":252,
			"byteOffset":41528,
			"target":34962
		},
		{
			"buffer":0,
			"byteLength":168,
			"byteOffset":41780,
			"target":34962
		},
		{
			"buffer":0,
			"byteLength":114,
			"byteOffset":41948,
			"target":34963
		}
	],
	"samplers":[
		{
			"magFilter":9729,
			"minFilter":9987
		}
	],
	"buffers":[
		{
			"byteLength":42064,
			"uri":"mdl_wollo_bathtub.bin"
		}
	]
}
