{
	"asset":{
		"generator":"Khronos glTF Blender I/O v4.2.57",
		"version":"2.0"
	},
	"scene":0,
	"scenes":[
		{
			"name":"Scene",
			"nodes":[
				4
			]
		}
	],
	"nodes":[
		{
			"mesh":0,
			"name":"SM_Bathtub_Material #3_0"
		},
		{
			"children":[
				0
			],
			"name":"SM_Bathtub",
			"rotation":[
				-0.70710688829422,
				0,
				0,
				0.7071066498756409
			]
		},
		{
			"children":[
				1
			],
			"name":"RootNode"
		},
		{
			"children":[
				2
			],
			"name":"3ba11b40022544be82b717e64b4de3f7.fbx",
			"rotation":[
				0.70710688829422,
				0,
				0,
				0.7071066498756409
			]
		},
		{
			"children":[
				3
			],
			"name":"Sketchfab_model",
			"rotation":[
				-0.70710688829422,
				0,
				0,
				0.7071066498756409
			]
		}
	],
	"materials":[
		{
			"doubleSided":true,
			"name":"Material_3",
			"normalTexture":{
				"index":0
			},
			"pbrMetallicRoughness":{
				"baseColorTexture":{
					"index":1
				},
				"metallicRoughnessTexture":{
					"index":2
				}
			}
		}
	],
	"meshes":[
		{
			"name":"SM_Bathtub_Material #3_0",
			"primitives":[
				{
					"attributes":{
						"POSITION":0,
						"NORMAL":1,
						"TEXCOORD_0":2
					},
					"indices":3,
					"material":0
				}
			]
		}
	],
	"textures":[
		{
			"sampler":0,
			"source":0
		},
		{
			"sampler":0,
			"source":1
		},
		{
			"sampler":0,
			"source":2
		}
	],
	"images":[
		{
			"mimeType":"image/png",
			"name":"Material_3_normal",
			"uri":"Material_3_normal.png"
		},
		{
			"mimeType":"image/jpeg",
			"name":"Material_3_baseColor",
			"uri":"Material_3_baseColor.jpg"
		},
		{
			"mimeType":"image/png",
			"name":"Material_3_metallicRoughness",
			"uri":"Material_3_metallicRoughness.png"
		}
	],
	"accessors":[
		{
			"bufferView":0,
			"componentType":5126,
			"count":1041,
			"max":[
				93.11890411376953,
				42.83754348754883,
				55.48381423950195
			],
			"min":[
				-93.11827087402344,
				-42.837554931640625,
				-0.09471295028924942
			],
			"type":"VEC3"
		},
		{
			"bufferView":1,
			"componentType":5126,
			"count":1041,
			"type":"VEC3"
		},
		{
			"bufferView":2,
			"componentType":5126,
			"count":1041,
			"type":"VEC2"
		},
		{
			"bufferView":3,
			"componentType":5123,
			"count":3630,
			"type":"SCALAR"
		}
	],
	"bufferViews":[
		{
			"buffer":0,
			"byteLength":12492,
			"byteOffset":0,
			"target":34962
		},
		{
			"buffer":0,
			"byteLength":12492,
			"byteOffset":12492,
			"target":34962
		},
		{
			"buffer":0,
			"byteLength":8328,
			"byteOffset":24984,
			"target":34962
		},
		{
			"buffer":0,
			"byteLength":7260,
			"byteOffset":33312,
			"target":34963
		}
	],
	"samplers":[
		{
			"magFilter":9729,
			"minFilter":9987
		}
	],
	"buffers":[
		{
			"byteLength":40572,
			"uri":"mdl_wollo_bathtub.bin"
		}
	]
}
