{
	"asset":{
		"generator":"Khronos glTF Blender I/O v4.0.44",
		"version":"2.0"
	},
	"scene":0,
	"scenes":[
		{
			"name":"Scene",
			"nodes":[
				4
			]
		}
	],
	"nodes":[
		{
			"mesh":0,
			"name":"meshNode_Material_u1_v1_0"
		},
		{
			"children":[
				0
			],
			"name":"meshNode"
		},
		{
			"children":[
				1
			],
			"name":"RootNode"
		},
		{
			"children":[
				2
			],
			"name":"buddha_50s.fbx",
			"rotation":[
				-1,
				0,
				0,
				5.009636594444089e-10
			]
		},
		{
			"children":[
				3
			],
			"name":"Sketchfab_model",
			"rotation":[
				0.5026383996009827,
				0.4973476231098175,
				-0.5004124045372009,
				0.4995872676372528
			],
			"translation":[
				-0.01741170883178711,
				0.40897831320762634,
				-0.26368939876556396
			]
		}
	],
	"materials":[
		{
			"doubleSided":true,
			"name":"Material.001",
			"pbrMetallicRoughness":{
				"baseColorTexture":{
					"index":0
				},
				"metallicFactor":0,
				"roughnessFactor":0.5
			}
		}
	],
	"meshes":[
		{
			"name":"meshNode_Material_u1_v1_0",
			"primitives":[
				{
					"attributes":{
						"POSITION":0,
						"NORMAL":1,
						"TEXCOORD_0":2
					},
					"indices":3,
					"material":0
				}
			]
		}
	],
	"textures":[
		{
			"sampler":0,
			"source":0
		}
	],
	"images":[
		{
			"mimeType":"image/png",
			"name":"tx_hub_wood",
			"uri":"tx_hub_wood.png"
		}
	],
	"accessors":[
		{
			"bufferView":0,
			"componentType":5126,
			"count":36182,
			"max":[
				3.6761717796325684,
				7.246850967407227,
				16.842681884765625
			],
			"min":[
				-4.179594993591309,
				-7.434977054595947,
				-2.9531164169311523
			],
			"type":"VEC3"
		},
		{
			"bufferView":1,
			"componentType":5126,
			"count":36182,
			"type":"VEC3"
		},
		{
			"bufferView":2,
			"componentType":5126,
			"count":36182,
			"type":"VEC2"
		},
		{
			"bufferView":3,
			"componentType":5123,
			"count":117309,
			"type":"SCALAR"
		}
	],
	"bufferViews":[
		{
			"buffer":0,
			"byteLength":434184,
			"byteOffset":0,
			"target":34962
		},
		{
			"buffer":0,
			"byteLength":434184,
			"byteOffset":434184,
			"target":34962
		},
		{
			"buffer":0,
			"byteLength":289456,
			"byteOffset":868368,
			"target":34962
		},
		{
			"buffer":0,
			"byteLength":234618,
			"byteOffset":1157824,
			"target":34963
		}
	],
	"samplers":[
		{
			"magFilter":9729,
			"minFilter":9987
		}
	],
	"buffers":[
		{
			"byteLength":1392444,
			"uri":"md_namo_buddah.bin"
		}
	]
}
