{
	"asset":{
		"generator":"Khronos glTF Blender I/O v4.0.44",
		"version":"2.0"
	},
	"scene":0,
	"scenes":[
		{
			"name":"Scene",
			"nodes":[
				0,
				1,
				2,
				3
			]
		}
	],
	"nodes":[
		{
			"mesh":0,
			"name":"Cylinder.014",
			"scale":[
				0.5503206849098206,
				0.030786072835326195,
				0.5503206849098206
			],
			"translation":[
				0,
				0.6924117803573608,
				0
			]
		},
		{
			"name":"Empty.001",
			"rotation":[
				0,
				0.8660253882408142,
				0,
				0.4999999701976776
			]
		},
		{
			"mesh":1,
			"name":"Cube.052",
			"scale":[
				0.023298516869544983,
				0.2924627661705017,
				0.023298516869544983
			],
			"translation":[
				0,
				0.4119359850883484,
				0
			]
		},
		{
			"mesh":2,
			"name":"Cube.053"
		}
	],
	"materials":[
		{
			"doubleSided":true,
			"name":"kAWIARNIA",
			"pbrMetallicRoughness":{
				"baseColorTexture":{
					"index":0
				},
				"metallicFactor":0,
				"roughnessFactor":0.800000011920929
			}
		},
		{
			"doubleSided":true,
			"name":"kAWIARNIA",
			"pbrMetallicRoughness":{
				"baseColorTexture":{
					"index":1
				},
				"metallicFactor":0,
				"roughnessFactor":0.800000011920929
			}
		}
	],
	"meshes":[
		{
			"name":"Cylinder.014",
			"primitives":[
				{
					"attributes":{
						"POSITION":0,
						"NORMAL":1,
						"TEXCOORD_0":2
					},
					"indices":3,
					"material":0
				}
			]
		},
		{
			"name":"Cube.052",
			"primitives":[
				{
					"attributes":{
						"POSITION":4,
						"NORMAL":5,
						"TEXCOORD_0":6
					},
					"indices":7,
					"material":0
				}
			]
		},
		{
			"name":"Cube.055",
			"primitives":[
				{
					"attributes":{
						"POSITION":8,
						"NORMAL":9,
						"TEXCOORD_0":10
					},
					"indices":11,
					"material":1
				}
			]
		}
	],
	"textures":[
		{
			"sampler":0,
			"source":0
		},
		{
			"sampler":0,
			"source":0
		}
	],
	"images":[
		{
			"mimeType":"image/png",
			"name":"mdl_poland_flag",
			"uri":"mdl_poland_flag.png"
		}
	],
	"accessors":[
		{
			"bufferView":0,
			"componentType":5126,
			"count":98,
			"max":[
				1,
				1,
				1
			],
			"min":[
				-1,
				-1,
				-1
			],
			"type":"VEC3"
		},
		{
			"bufferView":1,
			"componentType":5126,
			"count":98,
			"type":"VEC3"
		},
		{
			"bufferView":2,
			"componentType":5126,
			"count":98,
			"type":"VEC2"
		},
		{
			"bufferView":3,
			"componentType":5123,
			"count":192,
			"type":"SCALAR"
		},
		{
			"bufferView":4,
			"componentType":5126,
			"count":50,
			"max":[
				2.3716001510620117,
				1,
				2.3716001510620117
			],
			"min":[
				-2.3716001510620117,
				-1,
				-2.3716001510620117
			],
			"type":"VEC3"
		},
		{
			"bufferView":5,
			"componentType":5126,
			"count":50,
			"type":"VEC3"
		},
		{
			"bufferView":6,
			"componentType":5126,
			"count":50,
			"type":"VEC2"
		},
		{
			"bufferView":7,
			"componentType":5123,
			"count":84,
			"type":"SCALAR"
		},
		{
			"bufferView":8,
			"componentType":5126,
			"count":252,
			"max":[
				0.15208610892295837,
				0.13892090320587158,
				0.17002850770950317
			],
			"min":[
				-0.15208613872528076,
				-0.0024769753217697144,
				-0.09601914882659912
			],
			"type":"VEC3"
		},
		{
			"bufferView":9,
			"componentType":5126,
			"count":252,
			"type":"VEC3"
		},
		{
			"bufferView":10,
			"componentType":5126,
			"count":252,
			"type":"VEC2"
		},
		{
			"bufferView":11,
			"componentType":5123,
			"count":450,
			"type":"SCALAR"
		}
	],
	"bufferViews":[
		{
			"buffer":0,
			"byteLength":1176,
			"byteOffset":0,
			"target":34962
		},
		{
			"buffer":0,
			"byteLength":1176,
			"byteOffset":1176,
			"target":34962
		},
		{
			"buffer":0,
			"byteLength":784,
			"byteOffset":2352,
			"target":34962
		},
		{
			"buffer":0,
			"byteLength":384,
			"byteOffset":3136,
			"target":34963
		},
		{
			"buffer":0,
			"byteLength":600,
			"byteOffset":3520,
			"target":34962
		},
		{
			"buffer":0,
			"byteLength":600,
			"byteOffset":4120,
			"target":34962
		},
		{
			"buffer":0,
			"byteLength":400,
			"byteOffset":4720,
			"target":34962
		},
		{
			"buffer":0,
			"byteLength":168,
			"byteOffset":5120,
			"target":34963
		},
		{
			"buffer":0,
			"byteLength":3024,
			"byteOffset":5288,
			"target":34962
		},
		{
			"buffer":0,
			"byteLength":3024,
			"byteOffset":8312,
			"target":34962
		},
		{
			"buffer":0,
			"byteLength":2016,
			"byteOffset":11336,
			"target":34962
		},
		{
			"buffer":0,
			"byteLength":900,
			"byteOffset":13352,
			"target":34963
		}
	],
	"samplers":[
		{
			"magFilter":9728,
			"minFilter":9984
		}
	],
	"buffers":[
		{
			"byteLength":14252,
			"uri":"mdl_poland_table.bin"
		}
	]
}
