{
	"asset":{
		"generator":"Khronos glTF Blender I/O v4.0.44",
		"version":"2.0"
	},
	"scene":0,
	"scenes":[
		{
			"name":"Scene",
			"nodes":[
				0
			]
		}
	],
	"nodes":[
		{
			"mesh":0,
			"name":"Plane.007",
			"rotation":[
				0,
				0,
				1,
				1.6292068494294654e-07
			]
		}
	],
	"materials":[
		{
			"doubleSided":true,
			"name":"Material",
			"pbrMetallicRoughness":{
				"baseColorTexture":{
					"index":0
				},
				"metallicFactor":0,
				"roughnessFactor":0.699999988079071
			}
		},
		{
			"doubleSided":true,
			"name":"Material.001",
			"pbrMetallicRoughness":{
				"baseColorTexture":{
					"index":1
				},
				"metallicFactor":0,
				"roughnessFactor":0.699999988079071
			}
		}
	],
	"meshes":[
		{
			"name":"Plane.007",
			"primitives":[
				{
					"attributes":{
						"POSITION":0,
						"NORMAL":1,
						"TEXCOORD_0":2
					},
					"indices":3,
					"material":0
				},
				{
					"attributes":{
						"POSITION":4,
						"NORMAL":5,
						"TEXCOORD_0":6
					},
					"indices":7,
					"material":1
				}
			]
		}
	],
	"textures":[
		{
			"sampler":0,
			"source":0
		},
		{
			"sampler":0,
			"source":1
		}
	],
	"images":[
		{
			"mimeType":"image/png",
			"name":"tx_poland_blabla",
			"uri":"tx_poland_blabla.png"
		},
		{
			"mimeType":"image/png",
			"name":"tx_poland_black",
			"uri":"tx_poland_black.png"
		}
	],
	"accessors":[
		{
			"bufferView":0,
			"componentType":5126,
			"count":10,
			"max":[
				0.10331070423126221,
				0.11245520412921906,
				0.030384210869669914
			],
			"min":[
				-0.36245524883270264,
				-0.11245513707399368,
				0.030384158715605736
			],
			"type":"VEC3"
		},
		{
			"bufferView":1,
			"componentType":5126,
			"count":10,
			"type":"VEC3"
		},
		{
			"bufferView":2,
			"componentType":5126,
			"count":10,
			"type":"VEC2"
		},
		{
			"bufferView":3,
			"componentType":5123,
			"count":24,
			"type":"SCALAR"
		},
		{
			"bufferView":4,
			"componentType":5126,
			"count":74,
			"max":[
				0.12499988079071045,
				0.12500011920928955,
				0.030384212732315063
			],
			"min":[
				-0.37500011920928955,
				-0.12500004470348358,
				-2.812578614452832e-08
			],
			"type":"VEC3"
		},
		{
			"bufferView":5,
			"componentType":5126,
			"count":74,
			"type":"VEC3"
		},
		{
			"bufferView":6,
			"componentType":5126,
			"count":74,
			"type":"VEC2"
		},
		{
			"bufferView":7,
			"componentType":5123,
			"count":204,
			"type":"SCALAR"
		}
	],
	"bufferViews":[
		{
			"buffer":0,
			"byteLength":120,
			"byteOffset":0,
			"target":34962
		},
		{
			"buffer":0,
			"byteLength":120,
			"byteOffset":120,
			"target":34962
		},
		{
			"buffer":0,
			"byteLength":80,
			"byteOffset":240,
			"target":34962
		},
		{
			"buffer":0,
			"byteLength":48,
			"byteOffset":320,
			"target":34963
		},
		{
			"buffer":0,
			"byteLength":888,
			"byteOffset":368,
			"target":34962
		},
		{
			"buffer":0,
			"byteLength":888,
			"byteOffset":1256,
			"target":34962
		},
		{
			"buffer":0,
			"byteLength":592,
			"byteOffset":2144,
			"target":34962
		},
		{
			"buffer":0,
			"byteLength":408,
			"byteOffset":2736,
			"target":34963
		}
	],
	"samplers":[
		{
			"magFilter":9729,
			"minFilter":9987
		}
	],
	"buffers":[
		{
			"byteLength":3144,
			"uri":"mdl_poland_poempieces_5.bin"
		}
	]
}
