{
	"asset":{
		"generator":"Khronos glTF Blender I/O v4.2.57",
		"version":"2.0"
	},
	"extensionsUsed":[
		"KHR_materials_transmission"
	],
	"scene":0,
	"scenes":[
		{
			"name":"Scene",
			"nodes":[
				3
			]
		}
	],
	"nodes":[
		{
			"mesh":0,
			"name":"Object_2",
			"scale":[
				0.39450526237487793,
				0.3945052921772003,
				0.39450526237487793
			],
			"translation":[
				0.00019653906929306686,
				0.0011938365641981363,
				0.054556190967559814
			]
		},
		{
			"mesh":1,
			"name":"Object_2.001",
			"scale":[
				0.37942272424697876,
				0.37942278385162354,
				0.37942278385162354
			],
			"translation":[
				0.00015916457050479949,
				0.0011824305402114987,
				0.05245598778128624
			]
		},
		{
			"children":[
				0,
				1
			],
			"name":"sticky hands and capsule.obj.cleaner.materialmerger.gles"
		},
		{
			"children":[
				2
			],
			"name":"Sketchfab_model",
			"rotation":[
				0.7003070116043091,
				0.09782732278108597,
				-0.11083796620368958,
				0.6983658671379089
			]
		}
	],
	"materials":[
		{
			"alphaMode":"BLEND",
			"doubleSided":true,
			"extensions":{
				"KHR_materials_transmission":{
					"transmissionFactor":0.6419036984443665
				}
			},
			"name":"Material.001",
			"pbrMetallicRoughness":{
				"baseColorFactor":[
					0.800000011920929,
					0.800000011920929,
					0.800000011920929,
					0.35809633135795593
				],
				"metallicFactor":0,
				"roughnessFactor":0.5139032602310181
			}
		}
	],
	"meshes":[
		{
			"name":"Object_0",
			"primitives":[
				{
					"attributes":{
						"POSITION":0,
						"NORMAL":1,
						"TEXCOORD_0":2
					},
					"indices":3,
					"material":0
				}
			]
		},
		{
			"name":"Object_0.001",
			"primitives":[
				{
					"attributes":{
						"POSITION":4,
						"NORMAL":5,
						"TEXCOORD_0":6
					},
					"indices":7,
					"material":0
				}
			]
		}
	],
	"accessors":[
		{
			"bufferView":0,
			"componentType":5126,
			"count":267,
			"max":[
				0.1257217824459076,
				0.12028549611568451,
				0.0386175662279129
			],
			"min":[
				-0.12076524645090103,
				-0.12644357979297638,
				-0.12816187739372253
			],
			"type":"VEC3"
		},
		{
			"bufferView":1,
			"componentType":5126,
			"count":267,
			"type":"VEC3"
		},
		{
			"bufferView":2,
			"componentType":5126,
			"count":267,
			"type":"VEC2"
		},
		{
			"bufferView":3,
			"componentType":5123,
			"count":1122,
			"type":"SCALAR"
		},
		{
			"bufferView":4,
			"componentType":5126,
			"count":267,
			"max":[
				0.1257217824459076,
				0.12028549611568451,
				0.0386175662279129
			],
			"min":[
				-0.12076524645090103,
				-0.12644357979297638,
				-0.12816187739372253
			],
			"type":"VEC3"
		},
		{
			"bufferView":5,
			"componentType":5126,
			"count":267,
			"type":"VEC3"
		},
		{
			"bufferView":6,
			"componentType":5126,
			"count":267,
			"type":"VEC2"
		},
		{
			"bufferView":7,
			"componentType":5123,
			"count":1122,
			"type":"SCALAR"
		}
	],
	"bufferViews":[
		{
			"buffer":0,
			"byteLength":3204,
			"byteOffset":0,
			"target":34962
		},
		{
			"buffer":0,
			"byteLength":3204,
			"byteOffset":3204,
			"target":34962
		},
		{
			"buffer":0,
			"byteLength":2136,
			"byteOffset":6408,
			"target":34962
		},
		{
			"buffer":0,
			"byteLength":2244,
			"byteOffset":8544,
			"target":34963
		},
		{
			"buffer":0,
			"byteLength":3204,
			"byteOffset":10788,
			"target":34962
		},
		{
			"buffer":0,
			"byteLength":3204,
			"byteOffset":13992,
			"target":34962
		},
		{
			"buffer":0,
			"byteLength":2136,
			"byteOffset":17196,
			"target":34962
		},
		{
			"buffer":0,
			"byteLength":2244,
			"byteOffset":19332,
			"target":34963
		}
	],
	"buffers":[
		{
			"byteLength":21576,
			"uri":"mdl_brush_capsule.bin"
		}
	]
}
