{
	"asset":{
		"generator":"Khronos glTF Blender I/O v4.2.57",
		"version":"2.0"
	},
	"extensionsUsed":[
		"KHR_materials_specular"
	],
	"scene":0,
	"scenes":[
		{
			"name":"Scene",
			"nodes":[
				4,
				16,
				17,
				18,
				23,
				35,
				36,
				37,
				42,
				54,
				55,
				56,
				57,
				58,
				59,
				60,
				61,
				62,
				63,
				64,
				65
			]
		}
	],
	"nodes":[
		{
			"name":"Object_4"
		},
		{
			"children":[
				0
			],
			"name":"CINEMA_4D_Editor"
		},
		{
			"name":"Patio_Umbrella"
		},
		{
			"children":[
				1,
				2
			],
			"name":"RootNode"
		},
		{
			"children":[
				3
			],
			"name":"341160703f034ac28bfef2e88535acf8.fbx"
		},
		{
			"name":"mesh_0_9"
		},
		{
			"children":[
				5
			],
			"name":"mesh_0_5_8"
		},
		{
			"children":[
				6
			],
			"name":"Flag ShapeKeys_2_4_7"
		},
		{
			"children":[
				7
			],
			"name":"GLTF_SceneRootNode_3_6"
		},
		{
			"children":[
				8
			],
			"name":"root_2_5"
		},
		{
			"children":[
				9
			],
			"name":"RootNode (model correction matrix)_1_4"
		},
		{
			"children":[
				10
			],
			"name":"RootNode (gltf orientation matrix)_0_3"
		},
		{
			"children":[
				11
			],
			"name":"GLTF_SceneRootNode_2"
		},
		{
			"children":[
				12
			],
			"name":"root_1"
		},
		{
			"children":[
				13
			],
			"name":"Sketchfab_model_0"
		},
		{
			"children":[
				14
			],
			"name":"GLTF_SceneRootNode"
		},
		{
			"children":[
				15
			],
			"name":"root"
		},
		{
			"name":"Plane.005"
		},
		{
			"name":"Plane.022"
		},
		{
			"name":"Object_4.001"
		},
		{
			"children":[
				19
			],
			"name":"CINEMA_4D_Editor.001"
		},
		{
			"name":"Patio_Umbrella.001"
		},
		{
			"children":[
				20,
				21
			],
			"name":"RootNode.001"
		},
		{
			"children":[
				22
			],
			"name":"341160703f034ac28bfef2e88535acf8.fbx.001"
		},
		{
			"name":"mesh_0_9.001"
		},
		{
			"children":[
				24
			],
			"name":"mesh_0_5_8.001"
		},
		{
			"children":[
				25
			],
			"name":"Flag ShapeKeys_2_4_7.001"
		},
		{
			"children":[
				26
			],
			"name":"GLTF_SceneRootNode_3_6.001"
		},
		{
			"children":[
				27
			],
			"name":"root_2_5.001"
		},
		{
			"children":[
				28
			],
			"name":"RootNode (model correction matrix)_1_4.001"
		},
		{
			"children":[
				29
			],
			"name":"RootNode (gltf orientation matrix)_0_3.001"
		},
		{
			"children":[
				30
			],
			"name":"GLTF_SceneRootNode_2.001"
		},
		{
			"children":[
				31
			],
			"name":"root_1.001"
		},
		{
			"children":[
				32
			],
			"name":"Sketchfab_model_0.001"
		},
		{
			"children":[
				33
			],
			"name":"GLTF_SceneRootNode.001"
		},
		{
			"children":[
				34
			],
			"name":"root.001"
		},
		{
			"name":"Plane.001"
		},
		{
			"name":"Plane.013"
		},
		{
			"name":"Object_4.002"
		},
		{
			"children":[
				38
			],
			"name":"CINEMA_4D_Editor.002"
		},
		{
			"name":"Patio_Umbrella.002"
		},
		{
			"children":[
				39,
				40
			],
			"name":"RootNode.002"
		},
		{
			"children":[
				41
			],
			"name":"341160703f034ac28bfef2e88535acf8.fbx.002"
		},
		{
			"name":"mesh_0_9.002"
		},
		{
			"children":[
				43
			],
			"name":"mesh_0_5_8.002"
		},
		{
			"children":[
				44
			],
			"name":"Flag ShapeKeys_2_4_7.002"
		},
		{
			"children":[
				45
			],
			"name":"GLTF_SceneRootNode_3_6.002"
		},
		{
			"children":[
				46
			],
			"name":"root_2_5.002"
		},
		{
			"children":[
				47
			],
			"name":"RootNode (model correction matrix)_1_4.002"
		},
		{
			"children":[
				48
			],
			"name":"RootNode (gltf orientation matrix)_0_3.002"
		},
		{
			"children":[
				49
			],
			"name":"GLTF_SceneRootNode_2.002"
		},
		{
			"children":[
				50
			],
			"name":"root_1.002"
		},
		{
			"children":[
				51
			],
			"name":"Sketchfab_model_0.002"
		},
		{
			"children":[
				52
			],
			"name":"GLTF_SceneRootNode.002"
		},
		{
			"children":[
				53
			],
			"name":"root.002"
		},
		{
			"mesh":0,
			"name":"Plane.019"
		},
		{
			"name":"Plane.020"
		},
		{
			"mesh":1,
			"name":"Plane.024"
		},
		{
			"name":"Plane.025"
		},
		{
			"mesh":2,
			"name":"Plane.033"
		},
		{
			"mesh":3,
			"name":"Plane.040"
		},
		{
			"mesh":4,
			"name":"Plane.037"
		},
		{
			"mesh":5,
			"name":"Plane.038"
		},
		{
			"mesh":6,
			"name":"Plane.045"
		},
		{
			"mesh":7,
			"name":"Plane.026"
		},
		{
			"mesh":8,
			"name":"Plane.027"
		}
	],
	"materials":[
		{
			"doubleSided":true,
			"extensions":{
				"KHR_materials_specular":{
					"specularFactor":0
				}
			},
			"name":"Material.026",
			"pbrMetallicRoughness":{
				"baseColorFactor":[
					0,
					0.7829172611236572,
					0.0034878167789429426,
					1
				],
				"metallicFactor":0,
				"roughnessFactor":0.5
			}
		},
		{
			"doubleSided":true,
			"extensions":{
				"KHR_materials_specular":{
					"specularFactor":0
				}
			},
			"name":"Material.027",
			"pbrMetallicRoughness":{
				"baseColorTexture":{
					"index":0
				},
				"metallicFactor":0,
				"roughnessFactor":0.5
			}
		},
		{
			"doubleSided":true,
			"name":"Material.029",
			"pbrMetallicRoughness":{
				"baseColorFactor":[
					0.285594642162323,
					0.285594642162323,
					0.285594642162323,
					1
				],
				"roughnessFactor":0.3041236996650696
			}
		},
		{
			"doubleSided":true,
			"extensions":{
				"KHR_materials_specular":{
					"specularFactor":0
				}
			},
			"name":"Material.031",
			"pbrMetallicRoughness":{
				"baseColorTexture":{
					"index":1
				},
				"metallicFactor":0,
				"roughnessFactor":0.5
			}
		},
		{
			"doubleSided":true,
			"extensions":{
				"KHR_materials_specular":{
					"specularFactor":0
				}
			},
			"name":"Material.033",
			"pbrMetallicRoughness":{
				"baseColorFactor":[
					0,
					0.04341422766447067,
					0.8002663850784302,
					1
				],
				"metallicFactor":0,
				"roughnessFactor":0.5
			}
		}
	],
	"meshes":[
		{
			"name":"Plane.117",
			"primitives":[
				{
					"attributes":{
						"POSITION":0,
						"NORMAL":1,
						"TEXCOORD_0":2
					},
					"indices":3,
					"material":0
				}
			]
		},
		{
			"name":"Plane.133",
			"primitives":[
				{
					"attributes":{
						"POSITION":4,
						"NORMAL":5,
						"TEXCOORD_0":6
					},
					"indices":7,
					"material":1
				},
				{
					"attributes":{
						"POSITION":8,
						"NORMAL":9,
						"TEXCOORD_0":10
					},
					"indices":11,
					"material":2
				}
			]
		},
		{
			"name":"Plane.154",
			"primitives":[
				{
					"attributes":{
						"POSITION":12,
						"NORMAL":13,
						"TEXCOORD_0":14
					},
					"indices":15,
					"material":3
				}
			]
		},
		{
			"name":"Plane.161",
			"primitives":[
				{
					"attributes":{
						"POSITION":16,
						"NORMAL":17,
						"TEXCOORD_0":18
					},
					"indices":19,
					"material":3
				}
			]
		},
		{
			"name":"Plane.166",
			"primitives":[
				{
					"attributes":{
						"POSITION":20,
						"NORMAL":21,
						"TEXCOORD_0":22
					},
					"indices":23,
					"material":4
				}
			]
		},
		{
			"name":"Plane.167",
			"primitives":[
				{
					"attributes":{
						"POSITION":24,
						"NORMAL":25,
						"TEXCOORD_0":26
					},
					"indices":27,
					"material":4
				}
			]
		},
		{
			"name":"Plane.172",
			"primitives":[
				{
					"attributes":{
						"POSITION":28,
						"NORMAL":29,
						"TEXCOORD_0":30
					},
					"indices":31,
					"material":4
				}
			]
		},
		{
			"name":"Plane.014",
			"primitives":[
				{
					"attributes":{
						"POSITION":32,
						"NORMAL":33,
						"TEXCOORD_0":34
					},
					"indices":35,
					"material":4
				}
			]
		},
		{
			"name":"Plane.015",
			"primitives":[
				{
					"attributes":{
						"POSITION":36,
						"NORMAL":37,
						"TEXCOORD_0":38
					},
					"indices":31,
					"material":4
				}
			]
		}
	],
	"textures":[
		{
			"sampler":0,
			"source":0
		},
		{
			"sampler":0,
			"source":1
		}
	],
	"images":[
		{
			"mimeType":"image/png",
			"name":"tx_brush_foodbanner",
			"uri":"tx_brush_foodbanner.png"
		},
		{
			"mimeType":"image/jpeg",
			"name":"tx_brush_freetownfresh",
			"uri":"tx_brush_freetownfresh.jpg"
		}
	],
	"accessors":[
		{
			"bufferView":0,
			"componentType":5126,
			"count":54,
			"max":[
				10.436168670654297,
				1.3482131958007812,
				1.0275297164916992
			],
			"min":[
				9.26566219329834,
				0.9863060116767883,
				-1.1660794019699097
			],
			"type":"VEC3"
		},
		{
			"bufferView":1,
			"componentType":5126,
			"count":54,
			"type":"VEC3"
		},
		{
			"bufferView":2,
			"componentType":5126,
			"count":54,
			"type":"VEC2"
		},
		{
			"bufferView":3,
			"componentType":5123,
			"count":156,
			"type":"SCALAR"
		},
		{
			"bufferView":4,
			"componentType":5126,
			"count":14,
			"max":[
				10.089404106140137,
				0.6418245434761047,
				2.05959153175354
			],
			"min":[
				9.679536819458008,
				0.18068867921829224,
				-1.159536361694336
			],
			"type":"VEC3"
		},
		{
			"bufferView":5,
			"componentType":5126,
			"count":14,
			"type":"VEC3"
		},
		{
			"bufferView":6,
			"componentType":5126,
			"count":14,
			"type":"VEC2"
		},
		{
			"bufferView":7,
			"componentType":5123,
			"count":24,
			"type":"SCALAR"
		},
		{
			"bufferView":8,
			"componentType":5126,
			"count":8,
			"max":[
				10.089404106140137,
				0.8526493310928345,
				2.05959153175354
			],
			"min":[
				9.679536819458008,
				0.6418245434761047,
				0.5405120253562927
			],
			"type":"VEC3"
		},
		{
			"bufferView":9,
			"componentType":5126,
			"count":8,
			"type":"VEC3"
		},
		{
			"bufferView":10,
			"componentType":5126,
			"count":8,
			"type":"VEC2"
		},
		{
			"bufferView":11,
			"componentType":5123,
			"count":12,
			"type":"SCALAR"
		},
		{
			"bufferView":12,
			"componentType":5126,
			"count":16,
			"max":[
				10.163219451904297,
				0.6418245434761047,
				6.010010719299316
			],
			"min":[
				9.679536819458008,
				0.18068867921829224,
				2.890695333480835
			],
			"type":"VEC3"
		},
		{
			"bufferView":13,
			"componentType":5126,
			"count":16,
			"type":"VEC3"
		},
		{
			"bufferView":14,
			"componentType":5126,
			"count":16,
			"type":"VEC2"
		},
		{
			"bufferView":15,
			"componentType":5123,
			"count":24,
			"type":"SCALAR"
		},
		{
			"bufferView":16,
			"componentType":5126,
			"count":67,
			"max":[
				12.848280906677246,
				1.3482131958007812,
				6.181464195251465
			],
			"min":[
				9.26566219329834,
				0.9863060116767883,
				2.7277333736419678
			],
			"type":"VEC3"
		},
		{
			"bufferView":17,
			"componentType":5126,
			"count":67,
			"type":"VEC3"
		},
		{
			"bufferView":18,
			"componentType":5126,
			"count":67,
			"type":"VEC2"
		},
		{
			"bufferView":19,
			"componentType":5123,
			"count":225,
			"type":"SCALAR"
		},
		{
			"bufferView":20,
			"componentType":5126,
			"count":20,
			"max":[
				12.665719032287598,
				0.6418245434761047,
				11.948800086975098
			],
			"min":[
				9.469745635986328,
				0.18068867921829224,
				9.113713264465332
			],
			"type":"VEC3"
		},
		{
			"bufferView":21,
			"componentType":5126,
			"count":20,
			"type":"VEC3"
		},
		{
			"bufferView":22,
			"componentType":5126,
			"count":20,
			"type":"VEC2"
		},
		{
			"bufferView":23,
			"componentType":5123,
			"count":33,
			"type":"SCALAR"
		},
		{
			"bufferView":24,
			"componentType":5126,
			"count":54,
			"max":[
				12.742889404296875,
				1.3482131958007812,
				12.393498420715332
			],
			"min":[
				9.28786563873291,
				0.9863060116767883,
				8.804966926574707
			],
			"type":"VEC3"
		},
		{
			"bufferView":25,
			"componentType":5126,
			"count":54,
			"type":"VEC3"
		},
		{
			"bufferView":26,
			"componentType":5126,
			"count":54,
			"type":"VEC2"
		},
		{
			"bufferView":27,
			"componentType":5123,
			"count":171,
			"type":"SCALAR"
		},
		{
			"bufferView":28,
			"componentType":5126,
			"count":54,
			"max":[
				12.742889404296875,
				1.3482131958007812,
				12.393498420715332
			],
			"min":[
				9.28786563873291,
				0.9863060116767883,
				8.804966926574707
			],
			"type":"VEC3"
		},
		{
			"bufferView":29,
			"componentType":5126,
			"count":54,
			"type":"VEC3"
		},
		{
			"bufferView":30,
			"componentType":5126,
			"count":54,
			"type":"VEC2"
		},
		{
			"bufferView":31,
			"componentType":5123,
			"count":171,
			"type":"SCALAR"
		},
		{
			"bufferView":32,
			"componentType":5126,
			"count":17,
			"max":[
				12.655755996704102,
				0.6418246030807495,
				-8.803847312927246
			],
			"min":[
				9.820669174194336,
				0.18068870902061462,
				-11.919976234436035
			],
			"type":"VEC3"
		},
		{
			"bufferView":33,
			"componentType":5126,
			"count":17,
			"type":"VEC3"
		},
		{
			"bufferView":34,
			"componentType":5126,
			"count":17,
			"type":"VEC2"
		},
		{
			"bufferView":35,
			"componentType":5123,
			"count":27,
			"type":"SCALAR"
		},
		{
			"bufferView":36,
			"componentType":5126,
			"count":54,
			"max":[
				13.100454330444336,
				1.3482131958007812,
				-8.621967315673828
			],
			"min":[
				9.511922836303711,
				0.9863060116767883,
				-12.076991081237793
			],
			"type":"VEC3"
		},
		{
			"bufferView":37,
			"componentType":5126,
			"count":54,
			"type":"VEC3"
		},
		{
			"bufferView":38,
			"componentType":5126,
			"count":54,
			"type":"VEC2"
		}
	],
	"bufferViews":[
		{
			"buffer":0,
			"byteLength":648,
			"byteOffset":0,
			"target":34962
		},
		{
			"buffer":0,
			"byteLength":648,
			"byteOffset":648,
			"target":34962
		},
		{
			"buffer":0,
			"byteLength":432,
			"byteOffset":1296,
			"target":34962
		},
		{
			"buffer":0,
			"byteLength":312,
			"byteOffset":1728,
			"target":34963
		},
		{
			"buffer":0,
			"byteLength":168,
			"byteOffset":2040,
			"target":34962
		},
		{
			"buffer":0,
			"byteLength":168,
			"byteOffset":2208,
			"target":34962
		},
		{
			"buffer":0,
			"byteLength":112,
			"byteOffset":2376,
			"target":34962
		},
		{
			"buffer":0,
			"byteLength":48,
			"byteOffset":2488,
			"target":34963
		},
		{
			"buffer":0,
			"byteLength":96,
			"byteOffset":2536,
			"target":34962
		},
		{
			"buffer":0,
			"byteLength":96,
			"byteOffset":2632,
			"target":34962
		},
		{
			"buffer":0,
			"byteLength":64,
			"byteOffset":2728,
			"target":34962
		},
		{
			"buffer":0,
			"byteLength":24,
			"byteOffset":2792,
			"target":34963
		},
		{
			"buffer":0,
			"byteLength":192,
			"byteOffset":2816,
			"target":34962
		},
		{
			"buffer":0,
			"byteLength":192,
			"byteOffset":3008,
			"target":34962
		},
		{
			"buffer":0,
			"byteLength":128,
			"byteOffset":3200,
			"target":34962
		},
		{
			"buffer":0,
			"byteLength":48,
			"byteOffset":3328,
			"target":34963
		},
		{
			"buffer":0,
			"byteLength":804,
			"byteOffset":3376,
			"target":34962
		},
		{
			"buffer":0,
			"byteLength":804,
			"byteOffset":4180,
			"target":34962
		},
		{
			"buffer":0,
			"byteLength":536,
			"byteOffset":4984,
			"target":34962
		},
		{
			"buffer":0,
			"byteLength":450,
			"byteOffset":5520,
			"target":34963
		},
		{
			"buffer":0,
			"byteLength":240,
			"byteOffset":5972,
			"target":34962
		},
		{
			"buffer":0,
			"byteLength":240,
			"byteOffset":6212,
			"target":34962
		},
		{
			"buffer":0,
			"byteLength":160,
			"byteOffset":6452,
			"target":34962
		},
		{
			"buffer":0,
			"byteLength":66,
			"byteOffset":6612,
			"target":34963
		},
		{
			"buffer":0,
			"byteLength":648,
			"byteOffset":6680,
			"target":34962
		},
		{
			"buffer":0,
			"byteLength":648,
			"byteOffset":7328,
			"target":34962
		},
		{
			"buffer":0,
			"byteLength":432,
			"byteOffset":7976,
			"target":34962
		},
		{
			"buffer":0,
			"byteLength":342,
			"byteOffset":8408,
			"target":34963
		},
		{
			"buffer":0,
			"byteLength":648,
			"byteOffset":8752,
			"target":34962
		},
		{
			"buffer":0,
			"byteLength":648,
			"byteOffset":9400,
			"target":34962
		},
		{
			"buffer":0,
			"byteLength":432,
			"byteOffset":10048,
			"target":34962
		},
		{
			"buffer":0,
			"byteLength":342,
			"byteOffset":10480,
			"target":34963
		},
		{
			"buffer":0,
			"byteLength":204,
			"byteOffset":10824,
			"target":34962
		},
		{
			"buffer":0,
			"byteLength":204,
			"byteOffset":11028,
			"target":34962
		},
		{
			"buffer":0,
			"byteLength":136,
			"byteOffset":11232,
			"target":34962
		},
		{
			"buffer":0,
			"byteLength":54,
			"byteOffset":11368,
			"target":34963
		},
		{
			"buffer":0,
			"byteLength":648,
			"byteOffset":11424,
			"target":34962
		},
		{
			"buffer":0,
			"byteLength":648,
			"byteOffset":12072,
			"target":34962
		},
		{
			"buffer":0,
			"byteLength":432,
			"byteOffset":12720,
			"target":34962
		}
	],
	"samplers":[
		{
			"magFilter":9729,
			"minFilter":9987
		}
	],
	"buffers":[
		{
			"byteLength":13152,
			"uri":"mdl_brush_SierraLeone.bin"
		}
	]
}
