{
	"asset":{
		"generator":"Khronos glTF Blender I/O v4.0.44",
		"version":"2.0"
	},
	"scene":0,
	"scenes":[
		{
			"name":"Scene",
			"nodes":[
				0,
				1,
				2,
				3
			]
		}
	],
	"nodes":[
		{
			"mesh":0,
			"name":"Cube.060",
			"translation":[
				0,
				0.7828406095504761,
				0
			]
		},
		{
			"mesh":1,
			"name":"Cylinder.015",
			"translation":[
				0,
				0.028972631320357323,
				0
			]
		},
		{
			"mesh":2,
			"name":"Cube.063",
			"translation":[
				0,
				1.9087073802947998,
				0.04867405444383621
			]
		},
		{
			"mesh":3,
			"name":"Cube.061",
			"translation":[
				0,
				1.8489981889724731,
				0
			]
		}
	],
	"materials":[
		{
			"doubleSided":true,
			"name":"Ramka",
			"pbrMetallicRoughness":{
				"baseColorTexture":{
					"index":0
				},
				"metallicFactor":0.6863636374473572,
				"roughnessFactor":0.800000011920929
			}
		}
	],
	"meshes":[
		{
			"name":"Cube.056",
			"primitives":[
				{
					"attributes":{
						"POSITION":0,
						"NORMAL":1,
						"TEXCOORD_0":2
					},
					"indices":3,
					"material":0
				}
			]
		},
		{
			"name":"Cylinder.015",
			"primitives":[
				{
					"attributes":{
						"POSITION":4,
						"NORMAL":5,
						"TEXCOORD_0":6
					},
					"indices":7,
					"material":0
				}
			]
		},
		{
			"name":"Cube.063",
			"primitives":[
				{
					"attributes":{
						"POSITION":8,
						"NORMAL":9,
						"TEXCOORD_0":10
					},
					"indices":11,
					"material":0
				}
			]
		},
		{
			"name":"Cube.064",
			"primitives":[
				{
					"attributes":{
						"POSITION":12,
						"NORMAL":13,
						"TEXCOORD_0":14
					},
					"indices":3,
					"material":0
				}
			]
		}
	],
	"textures":[
		{
			"sampler":0,
			"source":0
		}
	],
	"images":[
		{
			"mimeType":"image/png",
			"name":"mdl_poland_frame",
			"uri":"mdl_poland_frame.png"
		}
	],
	"accessors":[
		{
			"bufferView":0,
			"componentType":5126,
			"count":24,
			"max":[
				0.026412297040224075,
				1.167109727859497,
				0.026412297040224075
			],
			"min":[
				-0.026412297040224075,
				-0.7012299299240112,
				-0.026412297040224075
			],
			"type":"VEC3"
		},
		{
			"bufferView":1,
			"componentType":5126,
			"count":24,
			"type":"VEC3"
		},
		{
			"bufferView":2,
			"componentType":5126,
			"count":24,
			"type":"VEC2"
		},
		{
			"bufferView":3,
			"componentType":5123,
			"count":36,
			"type":"SCALAR"
		},
		{
			"bufferView":4,
			"componentType":5126,
			"count":116,
			"max":[
				0.2911619544029236,
				0.10227464884519577,
				0.2911619544029236
			],
			"min":[
				-0.2911619544029236,
				-0.026883844286203384,
				-0.2911619544029236
			],
			"type":"VEC3"
		},
		{
			"bufferView":5,
			"componentType":5126,
			"count":116,
			"type":"VEC3"
		},
		{
			"bufferView":6,
			"componentType":5126,
			"count":116,
			"type":"VEC2"
		},
		{
			"bufferView":7,
			"componentType":5123,
			"count":192,
			"type":"SCALAR"
		},
		{
			"bufferView":8,
			"componentType":5126,
			"count":104,
			"max":[
				0.5257718563079834,
				0.5934257507324219,
				0.04363273084163666
			],
			"min":[
				-0.5257718563079834,
				-0.5934257507324219,
				-0.04363273084163666
			],
			"type":"VEC3"
		},
		{
			"bufferView":9,
			"componentType":5126,
			"count":104,
			"type":"VEC3"
		},
		{
			"bufferView":10,
			"componentType":5126,
			"count":104,
			"type":"VEC2"
		},
		{
			"bufferView":11,
			"componentType":5123,
			"count":180,
			"type":"SCALAR"
		},
		{
			"bufferView":12,
			"componentType":5126,
			"count":24,
			"max":[
				0.12303896993398666,
				0.19980578124523163,
				0.011439178138971329
			],
			"min":[
				-0.12303896993398666,
				-0.12004851549863815,
				-0.05470454692840576
			],
			"type":"VEC3"
		},
		{
			"bufferView":13,
			"componentType":5126,
			"count":24,
			"type":"VEC3"
		},
		{
			"bufferView":14,
			"componentType":5126,
			"count":24,
			"type":"VEC2"
		}
	],
	"bufferViews":[
		{
			"buffer":0,
			"byteLength":288,
			"byteOffset":0,
			"target":34962
		},
		{
			"buffer":0,
			"byteLength":288,
			"byteOffset":288,
			"target":34962
		},
		{
			"buffer":0,
			"byteLength":192,
			"byteOffset":576,
			"target":34962
		},
		{
			"buffer":0,
			"byteLength":72,
			"byteOffset":768,
			"target":34963
		},
		{
			"buffer":0,
			"byteLength":1392,
			"byteOffset":840,
			"target":34962
		},
		{
			"buffer":0,
			"byteLength":1392,
			"byteOffset":2232,
			"target":34962
		},
		{
			"buffer":0,
			"byteLength":928,
			"byteOffset":3624,
			"target":34962
		},
		{
			"buffer":0,
			"byteLength":384,
			"byteOffset":4552,
			"target":34963
		},
		{
			"buffer":0,
			"byteLength":1248,
			"byteOffset":4936,
			"target":34962
		},
		{
			"buffer":0,
			"byteLength":1248,
			"byteOffset":6184,
			"target":34962
		},
		{
			"buffer":0,
			"byteLength":832,
			"byteOffset":7432,
			"target":34962
		},
		{
			"buffer":0,
			"byteLength":360,
			"byteOffset":8264,
			"target":34963
		},
		{
			"buffer":0,
			"byteLength":288,
			"byteOffset":8624,
			"target":34962
		},
		{
			"buffer":0,
			"byteLength":288,
			"byteOffset":8912,
			"target":34962
		},
		{
			"buffer":0,
			"byteLength":192,
			"byteOffset":9200,
			"target":34962
		}
	],
	"samplers":[
		{
			"magFilter":9728,
			"minFilter":9984
		}
	],
	"buffers":[
		{
			"byteLength":9392,
			"uri":"mdl_poland_frame_information.bin"
		}
	]
}
