{
	"asset":{
		"generator":"Khronos glTF Blender I/O v4.2.57",
		"version":"2.0"
	},
	"extensionsUsed":[
		"KHR_materials_specular",
		"KHR_materials_ior"
	],
	"scene":0,
	"scenes":[
		{
			"name":"Scene",
			"nodes":[
				0
			]
		}
	],
	"nodes":[
		{
			"mesh":0,
			"name":"Wall Textures Bake.001"
		}
	],
	"materials":[
		{
			"doubleSided":true,
			"name":"Wall bake.001",
			"pbrMetallicRoughness":{
				"baseColorTexture":{
					"index":0
				},
				"metallicFactor":0,
				"roughnessFactor":0.5
			}
		},
		{
			"doubleSided":true,
			"extensions":{
				"KHR_materials_specular":{
					"specularFactor":0
				},
				"KHR_materials_ior":{
					"ior":1
				}
			},
			"name":"Trim.001",
			"pbrMetallicRoughness":{
				"baseColorTexture":{
					"index":1
				},
				"metallicFactor":0,
				"roughnessFactor":0.8181818127632141
			}
		}
	],
	"meshes":[
		{
			"name":"Plane.069",
			"primitives":[
				{
					"attributes":{
						"POSITION":0,
						"NORMAL":1,
						"TEXCOORD_0":2
					},
					"indices":3,
					"material":0
				},
				{
					"attributes":{
						"POSITION":4,
						"NORMAL":5,
						"TEXCOORD_0":6
					},
					"indices":7,
					"material":1
				}
			]
		}
	],
	"textures":[
		{
			"sampler":0,
			"source":0
		},
		{
			"sampler":0,
			"source":1
		}
	],
	"images":[
		{
			"mimeType":"image/png",
			"name":"tx_hub_wallColor",
			"uri":"tx_hub_wallColor.png"
		},
		{
			"mimeType":"image/png",
			"name":"tx_hub_TrimWoodColor",
			"uri":"tx_hub_TrimWoodColor.png"
		}
	],
	"accessors":[
		{
			"bufferView":0,
			"componentType":5126,
			"count":280,
			"max":[
				6.095314025878906,
				10.348001480102539,
				6.00577974319458
			],
			"min":[
				-6.012714385986328,
				0.015981674194335938,
				-6.010201930999756
			],
			"type":"VEC3"
		},
		{
			"bufferView":1,
			"componentType":5126,
			"count":280,
			"type":"VEC3"
		},
		{
			"bufferView":2,
			"componentType":5126,
			"count":280,
			"type":"VEC2"
		},
		{
			"bufferView":3,
			"componentType":5123,
			"count":720,
			"type":"SCALAR"
		},
		{
			"bufferView":4,
			"componentType":5126,
			"count":837,
			"max":[
				5.937387943267822,
				9.830353736877441,
				6.015220642089844
			],
			"min":[
				-6.016245365142822,
				0.02146017551422119,
				5.776169776916504
			],
			"type":"VEC3"
		},
		{
			"bufferView":5,
			"componentType":5126,
			"count":837,
			"type":"VEC3"
		},
		{
			"bufferView":6,
			"componentType":5126,
			"count":837,
			"type":"VEC2"
		},
		{
			"bufferView":7,
			"componentType":5123,
			"count":1695,
			"type":"SCALAR"
		}
	],
	"bufferViews":[
		{
			"buffer":0,
			"byteLength":3360,
			"byteOffset":0,
			"target":34962
		},
		{
			"buffer":0,
			"byteLength":3360,
			"byteOffset":3360,
			"target":34962
		},
		{
			"buffer":0,
			"byteLength":2240,
			"byteOffset":6720,
			"target":34962
		},
		{
			"buffer":0,
			"byteLength":1440,
			"byteOffset":8960,
			"target":34963
		},
		{
			"buffer":0,
			"byteLength":10044,
			"byteOffset":10400,
			"target":34962
		},
		{
			"buffer":0,
			"byteLength":10044,
			"byteOffset":20444,
			"target":34962
		},
		{
			"buffer":0,
			"byteLength":6696,
			"byteOffset":30488,
			"target":34962
		},
		{
			"buffer":0,
			"byteLength":3390,
			"byteOffset":37184,
			"target":34963
		}
	],
	"samplers":[
		{
			"magFilter":9729,
			"minFilter":9987
		}
	],
	"buffers":[
		{
			"byteLength":40576,
			"uri":"mdl_hub_hubpicturewindows.bin"
		}
	]
}
