{
	"asset":{
		"generator":"Khronos glTF Blender I/O v4.2.57",
		"version":"2.0"
	},
	"extensionsUsed":[
		"KHR_materials_specular",
		"KHR_materials_ior"
	],
	"scene":0,
	"scenes":[
		{
			"name":"Scene",
			"nodes":[
				0,
				1,
				2
			]
		}
	],
	"nodes":[
		{
			"mesh":0,
			"name":"Correct"
		},
		{
			"mesh":1,
			"name":"Plane.001",
			"rotation":[
				0,
				0,
				0.8660253882408142,
				0.5
			]
		},
		{
			"mesh":2,
			"name":"Plane.002",
			"rotation":[
				0,
				0,
				-0.8660253882408142,
				0.4999999701976776
			]
		}
	],
	"materials":[
		{
			"alphaMode":"BLEND",
			"emissiveFactor":[
				1,
				1,
				1
			],
			"extensions":{
				"KHR_materials_specular":{
					"specularColorFactor":[
						0.0,
						0.0,
						0.0
					]
				},
				"KHR_materials_ior":{
					"ior":1.4500000476837158
				}
			},
			"name":"Emissive A",
			"pbrMetallicRoughness":{
				"baseColorTexture":{
					"index":0
				},
				"metallicFactor":0
			}
		}
	],
	"meshes":[
		{
			"name":"Plane",
			"primitives":[
				{
					"attributes":{
						"POSITION":0,
						"NORMAL":1,
						"TEXCOORD_0":2
					},
					"indices":3,
					"material":0
				}
			]
		},
		{
			"name":"Plane.001",
			"primitives":[
				{
					"attributes":{
						"POSITION":4,
						"NORMAL":5,
						"TEXCOORD_0":6
					},
					"indices":3,
					"material":0
				}
			]
		},
		{
			"name":"Plane.002",
			"primitives":[
				{
					"attributes":{
						"POSITION":7,
						"NORMAL":8,
						"TEXCOORD_0":9
					},
					"indices":3,
					"material":0
				}
			]
		}
	],
	"textures":[
		{
			"sampler":0,
			"source":0
		}
	],
	"images":[
		{
			"mimeType":"image/png",
			"name":"tx_brush_lionoutline",
			"uri":"tx_brush_lionoutline.png"
		}
	],
	"accessors":[
		{
			"bufferView":0,
			"componentType":5126,
			"count":124,
			"max":[
				1.1168328523635864,
				0.9565994739532471,
				1.3379108905792236
			],
			"min":[
				-0.8761706948280334,
				-0.7977036237716675,
				-1.0111238956451416
			],
			"type":"VEC3"
		},
		{
			"bufferView":1,
			"componentType":5126,
			"count":124,
			"type":"VEC3"
		},
		{
			"bufferView":2,
			"componentType":5126,
			"count":124,
			"type":"VEC2"
		},
		{
			"bufferView":3,
			"componentType":5123,
			"count":186,
			"type":"SCALAR"
		},
		{
			"bufferView":4,
			"componentType":5126,
			"count":124,
			"max":[
				1.1168328523635864,
				0.9565994739532471,
				1.3430259227752686
			],
			"min":[
				-0.9125082492828369,
				-0.8028215169906616,
				-1.0111238956451416
			],
			"type":"VEC3"
		},
		{
			"bufferView":5,
			"componentType":5126,
			"count":124,
			"type":"VEC3"
		},
		{
			"bufferView":6,
			"componentType":5126,
			"count":124,
			"type":"VEC2"
		},
		{
			"bufferView":7,
			"componentType":5126,
			"count":124,
			"max":[
				1.1168328523635864,
				0.9565994739532471,
				1.3430259227752686
			],
			"min":[
				-0.9125082492828369,
				-0.8028215169906616,
				-1.0111238956451416
			],
			"type":"VEC3"
		},
		{
			"bufferView":8,
			"componentType":5126,
			"count":124,
			"type":"VEC3"
		},
		{
			"bufferView":9,
			"componentType":5126,
			"count":124,
			"type":"VEC2"
		}
	],
	"bufferViews":[
		{
			"buffer":0,
			"byteLength":1488,
			"byteOffset":0,
			"target":34962
		},
		{
			"buffer":0,
			"byteLength":1488,
			"byteOffset":1488,
			"target":34962
		},
		{
			"buffer":0,
			"byteLength":992,
			"byteOffset":2976,
			"target":34962
		},
		{
			"buffer":0,
			"byteLength":372,
			"byteOffset":3968,
			"target":34963
		},
		{
			"buffer":0,
			"byteLength":1488,
			"byteOffset":4340,
			"target":34962
		},
		{
			"buffer":0,
			"byteLength":1488,
			"byteOffset":5828,
			"target":34962
		},
		{
			"buffer":0,
			"byteLength":992,
			"byteOffset":7316,
			"target":34962
		},
		{
			"buffer":0,
			"byteLength":1488,
			"byteOffset":8308,
			"target":34962
		},
		{
			"buffer":0,
			"byteLength":1488,
			"byteOffset":9796,
			"target":34962
		},
		{
			"buffer":0,
			"byteLength":992,
			"byteOffset":11284,
			"target":34962
		}
	],
	"samplers":[
		{
			"magFilter":9729,
			"minFilter":9987,
			"wrapS":33071,
			"wrapT":33071
		}
	],
	"buffers":[
		{
			"byteLength":12276,
			"uri":"mdl_brush_lionperspectiveA.bin"
		}
	]
}
