{
	"asset":{
		"generator":"Khronos glTF Blender I/O v4.2.57",
		"version":"2.0"
	},
	"extensionsUsed":[
		"KHR_materials_clearcoat",
		"KHR_materials_specular",
		"KHR_materials_ior"
	],
	"scene":0,
	"scenes":[
		{
			"name":"Scene",
			"nodes":[
				4,
				16,
				17,
				18
			]
		}
	],
	"nodes":[
		{
			"name":"Object_4"
		},
		{
			"children":[
				0
			],
			"name":"CINEMA_4D_Editor"
		},
		{
			"name":"Patio_Umbrella"
		},
		{
			"children":[
				1,
				2
			],
			"name":"RootNode"
		},
		{
			"children":[
				3
			],
			"name":"341160703f034ac28bfef2e88535acf8.fbx"
		},
		{
			"name":"mesh_0_9"
		},
		{
			"children":[
				5
			],
			"name":"mesh_0_5_8"
		},
		{
			"children":[
				6
			],
			"name":"Flag ShapeKeys_2_4_7"
		},
		{
			"children":[
				7
			],
			"name":"GLTF_SceneRootNode_3_6"
		},
		{
			"children":[
				8
			],
			"name":"root_2_5"
		},
		{
			"children":[
				9
			],
			"name":"RootNode (model correction matrix)_1_4"
		},
		{
			"children":[
				10
			],
			"name":"RootNode (gltf orientation matrix)_0_3"
		},
		{
			"children":[
				11
			],
			"name":"GLTF_SceneRootNode_2"
		},
		{
			"children":[
				12
			],
			"name":"root_1"
		},
		{
			"children":[
				13
			],
			"name":"Sketchfab_model_0"
		},
		{
			"children":[
				14
			],
			"name":"GLTF_SceneRootNode"
		},
		{
			"children":[
				15
			],
			"name":"root"
		},
		{
			"mesh":0,
			"name":"Plane.021"
		},
		{
			"name":"Plane.022"
		}
	],
	"materials":[
		{
			"doubleSided":true,
			"extensions":{
				"KHR_materials_clearcoat":{
					"clearcoatRoughnessFactor":0.83814936876297
				},
				"KHR_materials_specular":{
					"specularFactor":0,
					"specularColorFactor":[
						0.023713575676083565,
						0.023713575676083565,
						0.023713575676083565
					]
				},
				"KHR_materials_ior":{
					"ior":1
				}
			},
			"name":"Material.009",
			"pbrMetallicRoughness":{
				"baseColorTexture":{
					"index":0
				},
				"metallicFactor":0,
				"roughnessFactor":0.870481550693512
			}
		},
		{
			"doubleSided":true,
			"extensions":{
				"KHR_materials_specular":{
					"specularFactor":0,
					"specularColorFactor":[
						0.023713575676083565,
						0.023713575676083565,
						0.023713575676083565
					]
				},
				"KHR_materials_ior":{
					"ior":1.4500000476837158
				}
			},
			"name":"_Gazebo_1.002",
			"pbrMetallicRoughness":{
				"baseColorTexture":{
					"index":1
				},
				"metallicFactor":0,
				"roughnessFactor":0.8045454621315002
			}
		},
		{
			"doubleSided":true,
			"extensions":{
				"KHR_materials_specular":{
					"specularFactor":0
				}
			},
			"name":"pavers",
			"normalTexture":{
				"index":2
			},
			"pbrMetallicRoughness":{
				"baseColorTexture":{
					"index":3
				},
				"metallicFactor":0.48571428656578064
			}
		}
	],
	"meshes":[
		{
			"name":"Plane.136",
			"primitives":[
				{
					"attributes":{
						"POSITION":0,
						"NORMAL":1,
						"TEXCOORD_0":2
					},
					"indices":3,
					"material":0
				},
				{
					"attributes":{
						"POSITION":4,
						"NORMAL":5,
						"TEXCOORD_0":6
					},
					"indices":7,
					"material":1
				},
				{
					"attributes":{
						"POSITION":8,
						"NORMAL":9,
						"TEXCOORD_0":10
					},
					"indices":11,
					"material":2
				}
			]
		}
	],
	"textures":[
		{
			"sampler":0,
			"source":0
		},
		{
			"sampler":0,
			"source":1
		},
		{
			"sampler":0,
			"source":2
		},
		{
			"sampler":0,
			"source":3
		}
	],
	"images":[
		{
			"mimeType":"image/png",
			"name":"tx_brush_hutwoodColor",
			"uri":"tx_brush_hutwoodColor.png"
		},
		{
			"mimeType":"image/jpeg",
			"name":"tx_brush_hutthatchedroofColor",
			"uri":"tx_brush_hutthatchedroofColor.jpg"
		},
		{
			"mimeType":"image/png",
			"name":"tx_brush_PavingStones013Normal",
			"uri":"tx_brush_PavingStones013Normal.png"
		},
		{
			"mimeType":"image/png",
			"name":"tx_brush_PavingStones013Color",
			"uri":"tx_brush_PavingStones013Color.png"
		}
	],
	"accessors":[
		{
			"bufferView":0,
			"componentType":5126,
			"count":4991,
			"max":[
				1.3547838926315308,
				2.3607678413391113,
				1.312724232673645
			],
			"min":[
				-1.28484308719635,
				0.20910173654556274,
				-1.3269104957580566
			],
			"type":"VEC3"
		},
		{
			"bufferView":1,
			"componentType":5126,
			"count":4991,
			"type":"VEC3"
		},
		{
			"bufferView":2,
			"componentType":5126,
			"count":4991,
			"type":"VEC2"
		},
		{
			"bufferView":3,
			"componentType":5123,
			"count":11328,
			"type":"SCALAR"
		},
		{
			"bufferView":4,
			"componentType":5126,
			"count":188,
			"max":[
				1.3614000082015991,
				2.3159241676330566,
				1.3193398714065552
			],
			"min":[
				-1.291460633277893,
				1.655918836593628,
				-1.3335258960723877
			],
			"type":"VEC3"
		},
		{
			"bufferView":5,
			"componentType":5126,
			"count":188,
			"type":"VEC3"
		},
		{
			"bufferView":6,
			"componentType":5126,
			"count":188,
			"type":"VEC2"
		},
		{
			"bufferView":7,
			"componentType":5123,
			"count":240,
			"type":"SCALAR"
		},
		{
			"bufferView":8,
			"componentType":5126,
			"count":4,
			"max":[
				3.2599265575408936,
				0.02459191158413887,
				2.9443199634552
			],
			"min":[
				-3.2599265575408936,
				0.02459191158413887,
				-2.9443199634552
			],
			"type":"VEC3"
		},
		{
			"bufferView":9,
			"componentType":5126,
			"count":4,
			"type":"VEC3"
		},
		{
			"bufferView":10,
			"componentType":5126,
			"count":4,
			"type":"VEC2"
		},
		{
			"bufferView":11,
			"componentType":5123,
			"count":6,
			"type":"SCALAR"
		}
	],
	"bufferViews":[
		{
			"buffer":0,
			"byteLength":59892,
			"byteOffset":0,
			"target":34962
		},
		{
			"buffer":0,
			"byteLength":59892,
			"byteOffset":59892,
			"target":34962
		},
		{
			"buffer":0,
			"byteLength":39928,
			"byteOffset":119784,
			"target":34962
		},
		{
			"buffer":0,
			"byteLength":22656,
			"byteOffset":159712,
			"target":34963
		},
		{
			"buffer":0,
			"byteLength":2256,
			"byteOffset":182368,
			"target":34962
		},
		{
			"buffer":0,
			"byteLength":2256,
			"byteOffset":184624,
			"target":34962
		},
		{
			"buffer":0,
			"byteLength":1504,
			"byteOffset":186880,
			"target":34962
		},
		{
			"buffer":0,
			"byteLength":480,
			"byteOffset":188384,
			"target":34963
		},
		{
			"buffer":0,
			"byteLength":48,
			"byteOffset":188864,
			"target":34962
		},
		{
			"buffer":0,
			"byteLength":48,
			"byteOffset":188912,
			"target":34962
		},
		{
			"buffer":0,
			"byteLength":32,
			"byteOffset":188960,
			"target":34962
		},
		{
			"buffer":0,
			"byteLength":12,
			"byteOffset":188992,
			"target":34963
		}
	],
	"samplers":[
		{
			"magFilter":9729,
			"minFilter":9987
		}
	],
	"buffers":[
		{
			"byteLength":189004,
			"uri":"mdl_brush_courtyard.bin"
		}
	]
}
