{
	"asset":{
		"generator":"Khronos glTF Blender I/O v4.2.57",
		"version":"2.0"
	},
	"extensionsUsed":[
		"KHR_materials_specular"
	],
	"scene":0,
	"scenes":[
		{
			"name":"Scene",
			"nodes":[
				3
			]
		}
	],
	"nodes":[
		{
			"mesh":0,
			"name":"defaultMaterial"
		},
		{
			"children":[
				0
			],
			"name":"Cylinder.014",
			"rotation":[
				-0.70710688829422,
				0,
				0,
				0.7071066498756409
			],
			"scale":[
				100,
				99.99999237060547,
				99.99999237060547
			]
		},
		{
			"children":[
				1
			],
			"name":"Collada visual scene group",
			"rotation":[
				0.70710688829422,
				0,
				0,
				0.7071066498756409
			]
		},
		{
			"children":[
				2
			],
			"name":"Sketchfab_model",
			"rotation":[
				-0.70710688829422,
				0,
				0,
				0.7071066498756409
			]
		}
	],
	"materials":[
		{
			"doubleSided":true,
			"extensions":{
				"KHR_materials_specular":{
					"specularFactor":0
				}
			},
			"name":"material",
			"normalTexture":{
				"index":0,
				"scale":1.0000001192092896
			},
			"pbrMetallicRoughness":{
				"baseColorTexture":{
					"index":1
				},
				"metallicFactor":0,
				"roughnessFactor":0.7412698268890381
			}
		}
	],
	"meshes":[
		{
			"name":"defaultMaterial",
			"primitives":[
				{
					"attributes":{
						"POSITION":0,
						"NORMAL":1,
						"TEXCOORD_0":2
					},
					"indices":3,
					"material":0
				}
			]
		}
	],
	"textures":[
		{
			"sampler":0,
			"source":0
		},
		{
			"sampler":0,
			"source":1
		}
	],
	"images":[
		{
			"mimeType":"image/png",
			"name":"tx_hub_floorglobenormal",
			"uri":"tx_hub_floorglobenormal.png"
		},
		{
			"mimeType":"image/jpeg",
			"name":"tx_hub_floorglobeColor",
			"uri":"tx_hub_floorglobeColor.jpg"
		}
	],
	"accessors":[
		{
			"bufferView":0,
			"componentType":5126,
			"count":18728,
			"max":[
				0.3960219919681549,
				0.3968049883842468,
				1.3792270421981812
			],
			"min":[
				-0.3960219919681549,
				-0.3968049883842468,
				-0.002920999890193343
			],
			"type":"VEC3"
		},
		{
			"bufferView":1,
			"componentType":5126,
			"count":18728,
			"type":"VEC3"
		},
		{
			"bufferView":2,
			"componentType":5126,
			"count":18728,
			"type":"VEC2"
		},
		{
			"bufferView":3,
			"componentType":5123,
			"count":82713,
			"type":"SCALAR"
		}
	],
	"bufferViews":[
		{
			"buffer":0,
			"byteLength":224736,
			"byteOffset":0,
			"target":34962
		},
		{
			"buffer":0,
			"byteLength":224736,
			"byteOffset":224736,
			"target":34962
		},
		{
			"buffer":0,
			"byteLength":149824,
			"byteOffset":449472,
			"target":34962
		},
		{
			"buffer":0,
			"byteLength":165426,
			"byteOffset":599296,
			"target":34963
		}
	],
	"samplers":[
		{
			"magFilter":9729,
			"minFilter":9987
		}
	],
	"buffers":[
		{
			"byteLength":764724,
			"uri":"mdl_hub_floorglobe.bin"
		}
	]
}
