{
	"asset":{
		"generator":"Khronos glTF Blender I/O v4.0.44",
		"version":"2.0"
	},
	"scene":0,
	"scenes":[
		{
			"name":"Scene",
			"nodes":[
				16
			]
		}
	],
	"nodes":[
		{
			"name":"head",
			"rotation":[
				0.13870121538639069,
				-1.9282460073100083e-07,
				-1.0526958504897266e-07,
				0.9903342723846436
			],
			"scale":[
				1,
				0.9999999403953552,
				1
			],
			"translation":[
				0,
				1.5999999046325684,
				0
			]
		},
		{
			"name":"legfront.L",
			"rotation":[
				0.4999997615814209,
				-0.4999999403953552,
				-0.5000002384185791,
				0.5000000596046448
			],
			"translation":[
				0.5130844712257385,
				0.9358643293380737,
				-2.89513025109045e-07
			]
		},
		{
			"name":"legfront.R",
			"rotation":[
				0.5000000596046448,
				0.5000002384185791,
				0.5,
				0.4999997615814209
			],
			"scale":[
				1,
				0.9999999403953552,
				1
			],
			"translation":[
				-0.5130844712257385,
				0.9358643293380737,
				2.89513025109045e-07
			]
		},
		{
			"children":[
				0,
				1,
				2
			],
			"name":"spine.001",
			"rotation":[
				0,
				3.178649876645068e-08,
				0,
				1
			],
			"translation":[
				0,
				1.5999999046325684,
				0
			]
		},
		{
			"name":"legback.L",
			"rotation":[
				0.4999997317790985,
				-0.4999999403953552,
				-0.5000002384185791,
				0.5000000596046448
			],
			"translation":[
				0.5130844712257385,
				0.4358642101287842,
				-3.221313420453953e-07
			]
		},
		{
			"name":"legback.R",
			"rotation":[
				0.5000000596046448,
				0.5000002384185791,
				0.4999999403953552,
				0.4999997615814209
			],
			"scale":[
				1,
				0.9999999403953552,
				1
			],
			"translation":[
				-0.5130844712257385,
				0.4358642101287842,
				3.221313420453953e-07
			]
		},
		{
			"children":[
				3,
				4,
				5
			],
			"name":"spine",
			"rotation":[
				0.7071067690849304,
				-2.2197245641564223e-07,
				-2.2197245641564223e-07,
				0.7071067690849304
			],
			"translation":[
				0,
				0,
				-1.97283136844635
			]
		},
		{
			"name":"tail.003",
			"translation":[
				0,
				1,
				0
			]
		},
		{
			"children":[
				7
			],
			"name":"tail.001",
			"translation":[
				0,
				1,
				0
			]
		},
		{
			"children":[
				8
			],
			"name":"tail.002",
			"translation":[
				0,
				0.9999998807907104,
				0
			]
		},
		{
			"children":[
				9
			],
			"name":"tail",
			"rotation":[
				-0.7071067690849304,
				0,
				0,
				0.7071067690849304
			],
			"translation":[
				0,
				0,
				-1.97283136844635
			]
		},
		{
			"mesh":0,
			"name":"Cube",
			"skin":0
		},
		{
			"mesh":1,
			"name":"Cube.001",
			"skin":0
		},
		{
			"mesh":2,
			"name":"Cube.002",
			"skin":0
		},
		{
			"mesh":3,
			"name":"Cube.003",
			"skin":0
		},
		{
			"mesh":4,
			"name":"Cylinder",
			"skin":0
		},
		{
			"children":[
				11,
				12,
				13,
				14,
				15,
				6,
				10
			],
			"name":"Armature",
			"translation":[
				0,
				1.5970474481582642,
				0
			]
		}
	],
	"animations":[
		{
			"channels":[
				{
					"sampler":0,
					"target":{
						"node":6,
						"path":"translation"
					}
				},
				{
					"sampler":1,
					"target":{
						"node":6,
						"path":"rotation"
					}
				},
				{
					"sampler":2,
					"target":{
						"node":6,
						"path":"scale"
					}
				},
				{
					"sampler":3,
					"target":{
						"node":3,
						"path":"translation"
					}
				},
				{
					"sampler":4,
					"target":{
						"node":3,
						"path":"rotation"
					}
				},
				{
					"sampler":5,
					"target":{
						"node":3,
						"path":"scale"
					}
				},
				{
					"sampler":6,
					"target":{
						"node":0,
						"path":"translation"
					}
				},
				{
					"sampler":7,
					"target":{
						"node":0,
						"path":"rotation"
					}
				},
				{
					"sampler":8,
					"target":{
						"node":0,
						"path":"scale"
					}
				},
				{
					"sampler":9,
					"target":{
						"node":1,
						"path":"translation"
					}
				},
				{
					"sampler":10,
					"target":{
						"node":1,
						"path":"rotation"
					}
				},
				{
					"sampler":11,
					"target":{
						"node":1,
						"path":"scale"
					}
				},
				{
					"sampler":12,
					"target":{
						"node":2,
						"path":"translation"
					}
				},
				{
					"sampler":13,
					"target":{
						"node":2,
						"path":"rotation"
					}
				},
				{
					"sampler":14,
					"target":{
						"node":2,
						"path":"scale"
					}
				},
				{
					"sampler":15,
					"target":{
						"node":4,
						"path":"translation"
					}
				},
				{
					"sampler":16,
					"target":{
						"node":4,
						"path":"rotation"
					}
				},
				{
					"sampler":17,
					"target":{
						"node":4,
						"path":"scale"
					}
				},
				{
					"sampler":18,
					"target":{
						"node":5,
						"path":"translation"
					}
				},
				{
					"sampler":19,
					"target":{
						"node":5,
						"path":"rotation"
					}
				},
				{
					"sampler":20,
					"target":{
						"node":5,
						"path":"scale"
					}
				},
				{
					"sampler":21,
					"target":{
						"node":10,
						"path":"translation"
					}
				},
				{
					"sampler":22,
					"target":{
						"node":10,
						"path":"rotation"
					}
				},
				{
					"sampler":23,
					"target":{
						"node":10,
						"path":"scale"
					}
				},
				{
					"sampler":24,
					"target":{
						"node":9,
						"path":"translation"
					}
				},
				{
					"sampler":25,
					"target":{
						"node":9,
						"path":"rotation"
					}
				},
				{
					"sampler":26,
					"target":{
						"node":9,
						"path":"scale"
					}
				},
				{
					"sampler":27,
					"target":{
						"node":8,
						"path":"translation"
					}
				},
				{
					"sampler":28,
					"target":{
						"node":8,
						"path":"rotation"
					}
				},
				{
					"sampler":29,
					"target":{
						"node":8,
						"path":"scale"
					}
				},
				{
					"sampler":30,
					"target":{
						"node":7,
						"path":"translation"
					}
				},
				{
					"sampler":31,
					"target":{
						"node":7,
						"path":"rotation"
					}
				},
				{
					"sampler":32,
					"target":{
						"node":7,
						"path":"scale"
					}
				}
			],
			"name":"Walk",
			"samplers":[
				{
					"input":31,
					"interpolation":"STEP",
					"output":32
				},
				{
					"input":31,
					"interpolation":"STEP",
					"output":33
				},
				{
					"input":31,
					"interpolation":"STEP",
					"output":34
				},
				{
					"input":31,
					"interpolation":"STEP",
					"output":35
				},
				{
					"input":31,
					"interpolation":"STEP",
					"output":36
				},
				{
					"input":31,
					"interpolation":"STEP",
					"output":37
				},
				{
					"input":31,
					"interpolation":"STEP",
					"output":38
				},
				{
					"input":39,
					"interpolation":"LINEAR",
					"output":40
				},
				{
					"input":31,
					"interpolation":"STEP",
					"output":41
				},
				{
					"input":31,
					"interpolation":"STEP",
					"output":42
				},
				{
					"input":39,
					"interpolation":"LINEAR",
					"output":43
				},
				{
					"input":31,
					"interpolation":"STEP",
					"output":44
				},
				{
					"input":31,
					"interpolation":"STEP",
					"output":45
				},
				{
					"input":39,
					"interpolation":"LINEAR",
					"output":46
				},
				{
					"input":31,
					"interpolation":"STEP",
					"output":47
				},
				{
					"input":31,
					"interpolation":"STEP",
					"output":48
				},
				{
					"input":39,
					"interpolation":"LINEAR",
					"output":49
				},
				{
					"input":31,
					"interpolation":"STEP",
					"output":50
				},
				{
					"input":31,
					"interpolation":"STEP",
					"output":51
				},
				{
					"input":39,
					"interpolation":"LINEAR",
					"output":52
				},
				{
					"input":31,
					"interpolation":"STEP",
					"output":53
				},
				{
					"input":31,
					"interpolation":"STEP",
					"output":54
				},
				{
					"input":39,
					"interpolation":"LINEAR",
					"output":55
				},
				{
					"input":31,
					"interpolation":"STEP",
					"output":56
				},
				{
					"input":31,
					"interpolation":"STEP",
					"output":57
				},
				{
					"input":39,
					"interpolation":"LINEAR",
					"output":58
				},
				{
					"input":31,
					"interpolation":"STEP",
					"output":59
				},
				{
					"input":31,
					"interpolation":"STEP",
					"output":60
				},
				{
					"input":39,
					"interpolation":"LINEAR",
					"output":61
				},
				{
					"input":31,
					"interpolation":"STEP",
					"output":62
				},
				{
					"input":31,
					"interpolation":"STEP",
					"output":63
				},
				{
					"input":39,
					"interpolation":"LINEAR",
					"output":64
				},
				{
					"input":31,
					"interpolation":"STEP",
					"output":65
				}
			]
		}
	],
	"materials":[
		{
			"doubleSided":true,
			"name":"Material",
			"pbrMetallicRoughness":{
				"baseColorTexture":{
					"index":0
				},
				"metallicFactor":0,
				"roughnessFactor":0.8500000238418579
			}
		}
	],
	"meshes":[
		{
			"name":"Cube.001",
			"primitives":[
				{
					"attributes":{
						"POSITION":0,
						"NORMAL":1,
						"TEXCOORD_0":2,
						"JOINTS_0":3,
						"WEIGHTS_0":4
					},
					"indices":5,
					"material":0
				}
			]
		},
		{
			"name":"Cube.002",
			"primitives":[
				{
					"attributes":{
						"POSITION":7,
						"NORMAL":8,
						"TEXCOORD_0":9,
						"JOINTS_0":10,
						"WEIGHTS_0":11
					},
					"indices":12,
					"material":0
				}
			]
		},
		{
			"name":"Cube.003",
			"primitives":[
				{
					"attributes":{
						"POSITION":13,
						"NORMAL":14,
						"TEXCOORD_0":15,
						"JOINTS_0":16,
						"WEIGHTS_0":17
					},
					"indices":18,
					"material":0
				}
			]
		},
		{
			"name":"Cube",
			"primitives":[
				{
					"attributes":{
						"POSITION":19,
						"NORMAL":20,
						"TEXCOORD_0":21,
						"JOINTS_0":22,
						"WEIGHTS_0":23
					},
					"indices":24,
					"material":0
				}
			]
		},
		{
			"name":"Cylinder",
			"primitives":[
				{
					"attributes":{
						"POSITION":25,
						"NORMAL":26,
						"TEXCOORD_0":27,
						"JOINTS_0":28,
						"WEIGHTS_0":29
					},
					"indices":30,
					"material":0
				}
			]
		}
	],
	"textures":[
		{
			"sampler":0,
			"source":0
		}
	],
	"images":[
		{
			"mimeType":"image/png",
			"name":"mdl_poland_beaver",
			"uri":"mdl_poland_beaver.png"
		}
	],
	"skins":[
		{
			"inverseBindMatrices":6,
			"joints":[
				6,
				3,
				0,
				1,
				2,
				4,
				5,
				10,
				9,
				8,
				7
			],
			"name":"Armature"
		}
	],
	"accessors":[
		{
			"bufferView":0,
			"componentType":5126,
			"count":96,
			"max":[
				0.8343366384506226,
				1.6606874465942383,
				-2.2263600826263428
			],
			"min":[
				-0.8343366384506226,
				1.53340744972229,
				-6.012734413146973
			],
			"type":"VEC3"
		},
		{
			"bufferView":1,
			"componentType":5126,
			"count":96,
			"type":"VEC3"
		},
		{
			"bufferView":2,
			"componentType":5126,
			"count":96,
			"type":"VEC2"
		},
		{
			"bufferView":3,
			"componentType":5121,
			"count":96,
			"type":"VEC4"
		},
		{
			"bufferView":4,
			"componentType":5126,
			"count":96,
			"type":"VEC4"
		},
		{
			"bufferView":5,
			"componentType":5123,
			"count":180,
			"type":"SCALAR"
		},
		{
			"bufferView":6,
			"componentType":5126,
			"count":11,
			"type":"MAT4"
		},
		{
			"bufferView":7,
			"componentType":5126,
			"count":192,
			"max":[
				0.4488911032676697,
				1.885083556175232,
				2.065706491470337
			],
			"min":[
				-0.4488910436630249,
				1.6830390691757202,
				1.8636621236801147
			],
			"type":"VEC3"
		},
		{
			"bufferView":8,
			"componentType":5126,
			"count":192,
			"type":"VEC3"
		},
		{
			"bufferView":9,
			"componentType":5126,
			"count":192,
			"type":"VEC2"
		},
		{
			"bufferView":10,
			"componentType":5121,
			"count":192,
			"type":"VEC4"
		},
		{
			"bufferView":11,
			"componentType":5126,
			"count":192,
			"type":"VEC4"
		},
		{
			"bufferView":12,
			"componentType":5123,
			"count":288,
			"type":"SCALAR"
		},
		{
			"bufferView":13,
			"componentType":5126,
			"count":96,
			"max":[
				0.18044695258140564,
				1.556928277015686,
				2.7767415046691895
			],
			"min":[
				-0.18044695258140564,
				1.2850645780563354,
				2.5048775672912598
			],
			"type":"VEC3"
		},
		{
			"bufferView":14,
			"componentType":5126,
			"count":96,
			"type":"VEC3"
		},
		{
			"bufferView":15,
			"componentType":5126,
			"count":96,
			"type":"VEC2"
		},
		{
			"bufferView":16,
			"componentType":5121,
			"count":96,
			"type":"VEC4"
		},
		{
			"bufferView":17,
			"componentType":5126,
			"count":96,
			"type":"VEC4"
		},
		{
			"bufferView":18,
			"componentType":5123,
			"count":144,
			"type":"SCALAR"
		},
		{
			"bufferView":19,
			"componentType":5126,
			"count":120,
			"max":[
				0.10936629772186279,
				1.2545124292373657,
				2.727062940597534
			],
			"min":[
				-0.10936629772186279,
				1.0118944644927979,
				2.6328232288360596
			],
			"type":"VEC3"
		},
		{
			"bufferView":20,
			"componentType":5126,
			"count":120,
			"type":"VEC3"
		},
		{
			"bufferView":21,
			"componentType":5126,
			"count":120,
			"type":"VEC2"
		},
		{
			"bufferView":22,
			"componentType":5121,
			"count":120,
			"type":"VEC4"
		},
		{
			"bufferView":23,
			"componentType":5126,
			"count":120,
			"type":"VEC4"
		},
		{
			"bufferView":24,
			"componentType":5123,
			"count":192,
			"type":"SCALAR"
		},
		{
			"bufferView":25,
			"componentType":5126,
			"count":1493,
			"max":[
				1.103290319442749,
				2.5970473289489746,
				2.7175912857055664
			],
			"min":[
				-1.103290319442749,
				-0.015538930892944336,
				-2.2915947437286377
			],
			"type":"VEC3"
		},
		{
			"bufferView":26,
			"componentType":5126,
			"count":1493,
			"type":"VEC3"
		},
		{
			"bufferView":27,
			"componentType":5126,
			"count":1493,
			"type":"VEC2"
		},
		{
			"bufferView":28,
			"componentType":5121,
			"count":1493,
			"type":"VEC4"
		},
		{
			"bufferView":29,
			"componentType":5126,
			"count":1493,
			"type":"VEC4"
		},
		{
			"bufferView":30,
			"componentType":5123,
			"count":2472,
			"type":"SCALAR"
		},
		{
			"bufferView":31,
			"componentType":5126,
			"count":2,
			"max":[
				0.8333333333333334
			],
			"min":[
				0
			],
			"type":"SCALAR"
		},
		{
			"bufferView":32,
			"componentType":5126,
			"count":2,
			"type":"VEC3"
		},
		{
			"bufferView":33,
			"componentType":5126,
			"count":2,
			"type":"VEC4"
		},
		{
			"bufferView":34,
			"componentType":5126,
			"count":2,
			"type":"VEC3"
		},
		{
			"bufferView":35,
			"componentType":5126,
			"count":2,
			"type":"VEC3"
		},
		{
			"bufferView":36,
			"componentType":5126,
			"count":2,
			"type":"VEC4"
		},
		{
			"bufferView":37,
			"componentType":5126,
			"count":2,
			"type":"VEC3"
		},
		{
			"bufferView":38,
			"componentType":5126,
			"count":2,
			"type":"VEC3"
		},
		{
			"bufferView":39,
			"componentType":5126,
			"count":21,
			"max":[
				0.8333333333333334
			],
			"min":[
				0
			],
			"type":"SCALAR"
		},
		{
			"bufferView":40,
			"componentType":5126,
			"count":21,
			"type":"VEC4"
		},
		{
			"bufferView":41,
			"componentType":5126,
			"count":2,
			"type":"VEC3"
		},
		{
			"bufferView":42,
			"componentType":5126,
			"count":2,
			"type":"VEC3"
		},
		{
			"bufferView":43,
			"componentType":5126,
			"count":21,
			"type":"VEC4"
		},
		{
			"bufferView":44,
			"componentType":5126,
			"count":2,
			"type":"VEC3"
		},
		{
			"bufferView":45,
			"componentType":5126,
			"count":2,
			"type":"VEC3"
		},
		{
			"bufferView":46,
			"componentType":5126,
			"count":21,
			"type":"VEC4"
		},
		{
			"bufferView":47,
			"componentType":5126,
			"count":2,
			"type":"VEC3"
		},
		{
			"bufferView":48,
			"componentType":5126,
			"count":2,
			"type":"VEC3"
		},
		{
			"bufferView":49,
			"componentType":5126,
			"count":21,
			"type":"VEC4"
		},
		{
			"bufferView":50,
			"componentType":5126,
			"count":2,
			"type":"VEC3"
		},
		{
			"bufferView":51,
			"componentType":5126,
			"count":2,
			"type":"VEC3"
		},
		{
			"bufferView":52,
			"componentType":5126,
			"count":21,
			"type":"VEC4"
		},
		{
			"bufferView":53,
			"componentType":5126,
			"count":2,
			"type":"VEC3"
		},
		{
			"bufferView":54,
			"componentType":5126,
			"count":2,
			"type":"VEC3"
		},
		{
			"bufferView":55,
			"componentType":5126,
			"count":21,
			"type":"VEC4"
		},
		{
			"bufferView":56,
			"componentType":5126,
			"count":2,
			"type":"VEC3"
		},
		{
			"bufferView":57,
			"componentType":5126,
			"count":2,
			"type":"VEC3"
		},
		{
			"bufferView":58,
			"componentType":5126,
			"count":21,
			"type":"VEC4"
		},
		{
			"bufferView":59,
			"componentType":5126,
			"count":2,
			"type":"VEC3"
		},
		{
			"bufferView":60,
			"componentType":5126,
			"count":2,
			"type":"VEC3"
		},
		{
			"bufferView":61,
			"componentType":5126,
			"count":21,
			"type":"VEC4"
		},
		{
			"bufferView":62,
			"componentType":5126,
			"count":2,
			"type":"VEC3"
		},
		{
			"bufferView":63,
			"componentType":5126,
			"count":2,
			"type":"VEC3"
		},
		{
			"bufferView":64,
			"componentType":5126,
			"count":21,
			"type":"VEC4"
		},
		{
			"bufferView":65,
			"componentType":5126,
			"count":2,
			"type":"VEC3"
		}
	],
	"bufferViews":[
		{
			"buffer":0,
			"byteLength":1152,
			"byteOffset":0,
			"target":34962
		},
		{
			"buffer":0,
			"byteLength":1152,
			"byteOffset":1152,
			"target":34962
		},
		{
			"buffer":0,
			"byteLength":768,
			"byteOffset":2304,
			"target":34962
		},
		{
			"buffer":0,
			"byteLength":384,
			"byteOffset":3072,
			"target":34962
		},
		{
			"buffer":0,
			"byteLength":1536,
			"byteOffset":3456,
			"target":34962
		},
		{
			"buffer":0,
			"byteLength":360,
			"byteOffset":4992,
			"target":34963
		},
		{
			"buffer":0,
			"byteLength":704,
			"byteOffset":5352
		},
		{
			"buffer":0,
			"byteLength":2304,
			"byteOffset":6056,
			"target":34962
		},
		{
			"buffer":0,
			"byteLength":2304,
			"byteOffset":8360,
			"target":34962
		},
		{
			"buffer":0,
			"byteLength":1536,
			"byteOffset":10664,
			"target":34962
		},
		{
			"buffer":0,
			"byteLength":768,
			"byteOffset":12200,
			"target":34962
		},
		{
			"buffer":0,
			"byteLength":3072,
			"byteOffset":12968,
			"target":34962
		},
		{
			"buffer":0,
			"byteLength":576,
			"byteOffset":16040,
			"target":34963
		},
		{
			"buffer":0,
			"byteLength":1152,
			"byteOffset":16616,
			"target":34962
		},
		{
			"buffer":0,
			"byteLength":1152,
			"byteOffset":17768,
			"target":34962
		},
		{
			"buffer":0,
			"byteLength":768,
			"byteOffset":18920,
			"target":34962
		},
		{
			"buffer":0,
			"byteLength":384,
			"byteOffset":19688,
			"target":34962
		},
		{
			"buffer":0,
			"byteLength":1536,
			"byteOffset":20072,
			"target":34962
		},
		{
			"buffer":0,
			"byteLength":288,
			"byteOffset":21608,
			"target":34963
		},
		{
			"buffer":0,
			"byteLength":1440,
			"byteOffset":21896,
			"target":34962
		},
		{
			"buffer":0,
			"byteLength":1440,
			"byteOffset":23336,
			"target":34962
		},
		{
			"buffer":0,
			"byteLength":960,
			"byteOffset":24776,
			"target":34962
		},
		{
			"buffer":0,
			"byteLength":480,
			"byteOffset":25736,
			"target":34962
		},
		{
			"buffer":0,
			"byteLength":1920,
			"byteOffset":26216,
			"target":34962
		},
		{
			"buffer":0,
			"byteLength":384,
			"byteOffset":28136,
			"target":34963
		},
		{
			"buffer":0,
			"byteLength":17916,
			"byteOffset":28520,
			"target":34962
		},
		{
			"buffer":0,
			"byteLength":17916,
			"byteOffset":46436,
			"target":34962
		},
		{
			"buffer":0,
			"byteLength":11944,
			"byteOffset":64352,
			"target":34962
		},
		{
			"buffer":0,
			"byteLength":5972,
			"byteOffset":76296,
			"target":34962
		},
		{
			"buffer":0,
			"byteLength":23888,
			"byteOffset":82268,
			"target":34962
		},
		{
			"buffer":0,
			"byteLength":4944,
			"byteOffset":106156,
			"target":34963
		},
		{
			"buffer":0,
			"byteLength":8,
			"byteOffset":111100
		},
		{
			"buffer":0,
			"byteLength":24,
			"byteOffset":111108
		},
		{
			"buffer":0,
			"byteLength":32,
			"byteOffset":111132
		},
		{
			"buffer":0,
			"byteLength":24,
			"byteOffset":111164
		},
		{
			"buffer":0,
			"byteLength":24,
			"byteOffset":111188
		},
		{
			"buffer":0,
			"byteLength":32,
			"byteOffset":111212
		},
		{
			"buffer":0,
			"byteLength":24,
			"byteOffset":111244
		},
		{
			"buffer":0,
			"byteLength":24,
			"byteOffset":111268
		},
		{
			"buffer":0,
			"byteLength":84,
			"byteOffset":111292
		},
		{
			"buffer":0,
			"byteLength":336,
			"byteOffset":111376
		},
		{
			"buffer":0,
			"byteLength":24,
			"byteOffset":111712
		},
		{
			"buffer":0,
			"byteLength":24,
			"byteOffset":111736
		},
		{
			"buffer":0,
			"byteLength":336,
			"byteOffset":111760
		},
		{
			"buffer":0,
			"byteLength":24,
			"byteOffset":112096
		},
		{
			"buffer":0,
			"byteLength":24,
			"byteOffset":112120
		},
		{
			"buffer":0,
			"byteLength":336,
			"byteOffset":112144
		},
		{
			"buffer":0,
			"byteLength":24,
			"byteOffset":112480
		},
		{
			"buffer":0,
			"byteLength":24,
			"byteOffset":112504
		},
		{
			"buffer":0,
			"byteLength":336,
			"byteOffset":112528
		},
		{
			"buffer":0,
			"byteLength":24,
			"byteOffset":112864
		},
		{
			"buffer":0,
			"byteLength":24,
			"byteOffset":112888
		},
		{
			"buffer":0,
			"byteLength":336,
			"byteOffset":112912
		},
		{
			"buffer":0,
			"byteLength":24,
			"byteOffset":113248
		},
		{
			"buffer":0,
			"byteLength":24,
			"byteOffset":113272
		},
		{
			"buffer":0,
			"byteLength":336,
			"byteOffset":113296
		},
		{
			"buffer":0,
			"byteLength":24,
			"byteOffset":113632
		},
		{
			"buffer":0,
			"byteLength":24,
			"byteOffset":113656
		},
		{
			"buffer":0,
			"byteLength":336,
			"byteOffset":113680
		},
		{
			"buffer":0,
			"byteLength":24,
			"byteOffset":114016
		},
		{
			"buffer":0,
			"byteLength":24,
			"byteOffset":114040
		},
		{
			"buffer":0,
			"byteLength":336,
			"byteOffset":114064
		},
		{
			"buffer":0,
			"byteLength":24,
			"byteOffset":114400
		},
		{
			"buffer":0,
			"byteLength":24,
			"byteOffset":114424
		},
		{
			"buffer":0,
			"byteLength":336,
			"byteOffset":114448
		},
		{
			"buffer":0,
			"byteLength":24,
			"byteOffset":114784
		}
	],
	"samplers":[
		{
			"magFilter":9729,
			"minFilter":9987
		}
	],
	"buffers":[
		{
			"byteLength":114808,
			"uri":"mdl_poland_beaver.bin"
		}
	]
}
