{
	"asset":{
		"generator":"Khronos glTF Blender I/O v4.0.44",
		"version":"2.0"
	},
	"scene":0,
	"scenes":[
		{
			"name":"Scene",
			"nodes":[
				0,
				1,
				2,
				3,
				4
			]
		}
	],
	"nodes":[
		{
			"mesh":0,
			"name":"Cube.054",
			"translation":[
				0,
				0.38591551780700684,
				0
			]
		},
		{
			"mesh":1,
			"name":"Cube.055",
			"translation":[
				0,
				0.7917583584785461,
				-0.15520061552524567
			]
		},
		{
			"mesh":2,
			"name":"Cube.056",
			"translation":[
				0.12105461955070496,
				0.3621579110622406,
				0
			]
		},
		{
			"mesh":3,
			"name":"Cube.057",
			"translation":[
				0,
				0.7335871458053589,
				-0.2016495317220688
			]
		},
		{
			"mesh":4,
			"name":"Cube.059",
			"translation":[
				0,
				0.5507849454879761,
				-0.1865130513906479
			]
		}
	],
	"materials":[
		{
			"doubleSided":true,
			"name":"kAWIARNIA",
			"pbrMetallicRoughness":{
				"baseColorTexture":{
					"index":0
				},
				"metallicFactor":0,
				"roughnessFactor":0.800000011920929
			}
		}
	],
	"meshes":[
		{
			"name":"Cube.047",
			"primitives":[
				{
					"attributes":{
						"POSITION":0,
						"NORMAL":1,
						"TEXCOORD_0":2
					},
					"indices":3,
					"material":0
				}
			]
		},
		{
			"name":"Cube.059",
			"primitives":[
				{
					"attributes":{
						"POSITION":4,
						"NORMAL":5,
						"TEXCOORD_0":6
					},
					"indices":7,
					"material":0
				}
			]
		},
		{
			"name":"Cube.060",
			"primitives":[
				{
					"attributes":{
						"POSITION":8,
						"NORMAL":9,
						"TEXCOORD_0":10
					},
					"indices":11,
					"material":0
				}
			]
		},
		{
			"name":"Cube.057",
			"primitives":[
				{
					"attributes":{
						"POSITION":12,
						"NORMAL":13,
						"TEXCOORD_0":14
					},
					"indices":15,
					"material":0
				}
			]
		},
		{
			"name":"Cube.058",
			"primitives":[
				{
					"attributes":{
						"POSITION":16,
						"NORMAL":17,
						"TEXCOORD_0":18
					},
					"indices":15,
					"material":0
				}
			]
		}
	],
	"textures":[
		{
			"sampler":0,
			"source":0
		}
	],
	"images":[
		{
			"mimeType":"image/png",
			"name":"mdl_poland_flag",
			"uri":"mdl_poland_flag.png"
		}
	],
	"accessors":[
		{
			"bufferView":0,
			"componentType":5126,
			"count":72,
			"max":[
				0.19928409159183502,
				0.018685804679989815,
				0.19928409159183502
			],
			"min":[
				-0.19928409159183502,
				-0.018685804679989815,
				-0.19928409159183502
			],
			"type":"VEC3"
		},
		{
			"bufferView":1,
			"componentType":5126,
			"count":72,
			"type":"VEC3"
		},
		{
			"bufferView":2,
			"componentType":5126,
			"count":72,
			"type":"VEC2"
		},
		{
			"bufferView":3,
			"componentType":5123,
			"count":132,
			"type":"SCALAR"
		},
		{
			"bufferView":4,
			"componentType":5126,
			"count":128,
			"max":[
				0.21510137617588043,
				0.13868220150470734,
				0.007273482158780098
			],
			"min":[
				-0.21510137617588043,
				-0.400649756193161,
				-0.09190313518047333
			],
			"type":"VEC3"
		},
		{
			"bufferView":5,
			"componentType":5126,
			"count":128,
			"type":"VEC3"
		},
		{
			"bufferView":6,
			"componentType":5126,
			"count":128,
			"type":"VEC2"
		},
		{
			"bufferView":7,
			"componentType":5123,
			"count":192,
			"type":"SCALAR"
		},
		{
			"bufferView":8,
			"componentType":5126,
			"count":496,
			"max":[
				0.062390685081481934,
				0.014328312128782272,
				0.25561538338661194
			],
			"min":[
				-0.30449992418289185,
				-0.36442288756370544,
				-0.24453076720237732
			],
			"type":"VEC3"
		},
		{
			"bufferView":9,
			"componentType":5126,
			"count":496,
			"type":"VEC3"
		},
		{
			"bufferView":10,
			"componentType":5126,
			"count":496,
			"type":"VEC2"
		},
		{
			"bufferView":11,
			"componentType":5123,
			"count":744,
			"type":"SCALAR"
		},
		{
			"bufferView":12,
			"componentType":5126,
			"count":24,
			"max":[
				0.17927499115467072,
				0.04514242708683014,
				0.013330306857824326
			],
			"min":[
				-0.17927499115467072,
				-0.032567474991083145,
				-0.005568003747612238
			],
			"type":"VEC3"
		},
		{
			"bufferView":13,
			"componentType":5126,
			"count":24,
			"type":"VEC3"
		},
		{
			"bufferView":14,
			"componentType":5126,
			"count":24,
			"type":"VEC2"
		},
		{
			"bufferView":15,
			"componentType":5123,
			"count":36,
			"type":"SCALAR"
		},
		{
			"bufferView":16,
			"componentType":5126,
			"count":24,
			"max":[
				0.1618098020553589,
				0.03699202835559845,
				0.013330306857824326
			],
			"min":[
				-0.1618098020553589,
				-0.0337318554520607,
				-0.005568003747612238
			],
			"type":"VEC3"
		},
		{
			"bufferView":17,
			"componentType":5126,
			"count":24,
			"type":"VEC3"
		},
		{
			"bufferView":18,
			"componentType":5126,
			"count":24,
			"type":"VEC2"
		}
	],
	"bufferViews":[
		{
			"buffer":0,
			"byteLength":864,
			"byteOffset":0,
			"target":34962
		},
		{
			"buffer":0,
			"byteLength":864,
			"byteOffset":864,
			"target":34962
		},
		{
			"buffer":0,
			"byteLength":576,
			"byteOffset":1728,
			"target":34962
		},
		{
			"buffer":0,
			"byteLength":264,
			"byteOffset":2304,
			"target":34963
		},
		{
			"buffer":0,
			"byteLength":1536,
			"byteOffset":2568,
			"target":34962
		},
		{
			"buffer":0,
			"byteLength":1536,
			"byteOffset":4104,
			"target":34962
		},
		{
			"buffer":0,
			"byteLength":1024,
			"byteOffset":5640,
			"target":34962
		},
		{
			"buffer":0,
			"byteLength":384,
			"byteOffset":6664,
			"target":34963
		},
		{
			"buffer":0,
			"byteLength":5952,
			"byteOffset":7048,
			"target":34962
		},
		{
			"buffer":0,
			"byteLength":5952,
			"byteOffset":13000,
			"target":34962
		},
		{
			"buffer":0,
			"byteLength":3968,
			"byteOffset":18952,
			"target":34962
		},
		{
			"buffer":0,
			"byteLength":1488,
			"byteOffset":22920,
			"target":34963
		},
		{
			"buffer":0,
			"byteLength":288,
			"byteOffset":24408,
			"target":34962
		},
		{
			"buffer":0,
			"byteLength":288,
			"byteOffset":24696,
			"target":34962
		},
		{
			"buffer":0,
			"byteLength":192,
			"byteOffset":24984,
			"target":34962
		},
		{
			"buffer":0,
			"byteLength":72,
			"byteOffset":25176,
			"target":34963
		},
		{
			"buffer":0,
			"byteLength":288,
			"byteOffset":25248,
			"target":34962
		},
		{
			"buffer":0,
			"byteLength":288,
			"byteOffset":25536,
			"target":34962
		},
		{
			"buffer":0,
			"byteLength":192,
			"byteOffset":25824,
			"target":34962
		}
	],
	"samplers":[
		{
			"magFilter":9728,
			"minFilter":9984
		}
	],
	"buffers":[
		{
			"byteLength":26016,
			"uri":"mdl_poland_chair.bin"
		}
	]
}
