{
	"asset":{
		"generator":"Khronos glTF Blender I/O v4.2.57",
		"version":"2.0"
	},
	"scene":0,
	"scenes":[
		{
			"name":"Scene",
			"nodes":[
				1,
				3,
				5,
				6,
				8
			]
		}
	],
	"nodes":[
		{
			"mesh":0,
			"name":"c",
			"translation":[
				-1.5356756448745728,
				-0.2500019073486328,
				0.043097496032714844
			]
		},
		{
			"children":[
				0
			],
			"name":"c.001",
			"scale":[
				0.02539999969303608,
				0.02539999969303608,
				0.02539999969303608
			],
			"translation":[
				-0.04132666811347008,
				0.7196648120880127,
				0.3119032680988312
			]
		},
		{
			"mesh":1,
			"name":"e",
			"translation":[
				-29.598403930664062,
				-19.617630004882812,
				-19.969287872314453
			]
		},
		{
			"children":[
				2
			],
			"name":"e.001",
			"scale":[
				0.02539999969303608,
				0.02539999969303608,
				0.02539999969303608
			],
			"translation":[
				-0.02787075564265251,
				3.2020514011383057,
				0.15262869000434875
			]
		},
		{
			"mesh":2,
			"name":"d",
			"translation":[
				25.676990509033203,
				-11.472061157226562,
				-64.53702545166016
			]
		},
		{
			"children":[
				4
			],
			"name":"d.001",
			"scale":[
				0.02539999969303608,
				0.02539999969303608,
				0.02539999969303608
			],
			"translation":[
				0.9634473919868469,
				2.469731569290161,
				0.13458780944347382
			]
		},
		{
			"mesh":3,
			"name":"b",
			"rotation":[
				0.70710688829422,
				0,
				0,
				0.7071066498756409
			],
			"scale":[
				0.02539999969303608,
				0.025400003418326378,
				0.025400003418326378
			],
			"translation":[
				0.0024483122397214174,
				3.812072992324829,
				-0.7964296936988831
			]
		},
		{
			"mesh":4,
			"name":"a",
			"rotation":[
				0.5000000596046448,
				0.4999999403953552,
				-0.500000536441803,
				0.499999463558197
			],
			"scale":[
				1.1917799711227417,
				1,
				1
			],
			"translation":[
				-61.1143913269043,
				-2.288818359375e-05,
				-0.13411235809326172
			]
		},
		{
			"children":[
				7
			],
			"name":"a.001",
			"scale":[
				0.02539999969303608,
				0.02539999969303608,
				0.02539999969303608
			],
			"translation":[
				-0.04264109954237938,
				2.137511730194092,
				0.13830280303955078
			]
		}
	],
	"animations":[
		{
			"channels":[
				{
					"sampler":0,
					"target":{
						"node":7,
						"path":"translation"
					}
				},
				{
					"sampler":1,
					"target":{
						"node":7,
						"path":"rotation"
					}
				},
				{
					"sampler":2,
					"target":{
						"node":7,
						"path":"scale"
					}
				}
			],
			"name":"\u0e1d\u0e48\u0e32\u0e02\u0e32\u0e27\u0e2a\u0e35\u0e48\u0e21\u0e38\u0e21|Take 001|BaseLayer",
			"samplers":[
				{
					"input":20,
					"interpolation":"LINEAR",
					"output":21
				},
				{
					"input":20,
					"interpolation":"LINEAR",
					"output":22
				},
				{
					"input":20,
					"interpolation":"LINEAR",
					"output":23
				}
			]
		}
	],
	"materials":[
		{
			"doubleSided":true,
			"name":"Material.001",
			"pbrMetallicRoughness":{
				"baseColorTexture":{
					"index":0
				},
				"metallicFactor":0,
				"roughnessFactor":0.8929709792137146
			}
		}
	],
	"meshes":[
		{
			"name":"Mesh.050",
			"primitives":[
				{
					"attributes":{
						"POSITION":0,
						"NORMAL":1,
						"TEXCOORD_0":2
					},
					"indices":3,
					"material":0
				}
			]
		},
		{
			"name":"Mesh.113",
			"primitives":[
				{
					"attributes":{
						"POSITION":4,
						"NORMAL":5,
						"TEXCOORD_0":6
					},
					"indices":7,
					"material":0
				}
			]
		},
		{
			"name":"Mesh.168",
			"primitives":[
				{
					"attributes":{
						"POSITION":8,
						"NORMAL":9,
						"TEXCOORD_0":10
					},
					"indices":11,
					"material":0
				}
			]
		},
		{
			"name":"Mesh.221",
			"primitives":[
				{
					"attributes":{
						"POSITION":12,
						"NORMAL":13,
						"TEXCOORD_0":14
					},
					"indices":15,
					"material":0
				}
			]
		},
		{
			"name":"Mesh.226",
			"primitives":[
				{
					"attributes":{
						"POSITION":16,
						"NORMAL":17,
						"TEXCOORD_0":18
					},
					"indices":19,
					"material":0
				}
			]
		}
	],
	"textures":[
		{
			"sampler":0,
			"source":0
		}
	],
	"images":[
		{
			"mimeType":"image/jpeg",
			"name":"tx_namo_pavilion",
			"uri":"tx_namo_pavilion.jpg"
		}
	],
	"accessors":[
		{
			"bufferView":0,
			"componentType":5126,
			"count":2858,
			"max":[
				62.76405334472656,
				122.40522766113281,
				66.99337768554688
			],
			"min":[
				-59.79865646362305,
				-27.887941360473633,
				-80.70113372802734
			],
			"type":"VEC3"
		},
		{
			"bufferView":1,
			"componentType":5126,
			"count":2858,
			"type":"VEC3"
		},
		{
			"bufferView":2,
			"componentType":5126,
			"count":2858,
			"type":"VEC2"
		},
		{
			"bufferView":3,
			"componentType":5123,
			"count":3996,
			"type":"SCALAR"
		},
		{
			"bufferView":4,
			"componentType":5126,
			"count":192,
			"max":[
				61.08308410644531,
				44.79121398925781,
				57.23717498779297
			],
			"min":[
				-1.8862898349761963,
				-5.555938243865967,
				-17.298574447631836
			],
			"type":"VEC3"
		},
		{
			"bufferView":5,
			"componentType":5126,
			"count":192,
			"type":"VEC3"
		},
		{
			"bufferView":6,
			"componentType":5126,
			"count":192,
			"type":"VEC2"
		},
		{
			"bufferView":7,
			"componentType":5123,
			"count":504,
			"type":"SCALAR"
		},
		{
			"bufferView":8,
			"componentType":5126,
			"count":3200,
			"max":[
				2.2702760696411133,
				24.94021987915039,
				144.83773803710938
			],
			"min":[
				-132.46719360351562,
				-1.068166732788086,
				-15.901153564453125
			],
			"type":"VEC3"
		},
		{
			"bufferView":9,
			"componentType":5126,
			"count":3200,
			"type":"VEC3"
		},
		{
			"bufferView":10,
			"componentType":5126,
			"count":3200,
			"type":"VEC2"
		},
		{
			"bufferView":11,
			"componentType":5123,
			"count":6990,
			"type":"SCALAR"
		},
		{
			"bufferView":12,
			"componentType":5126,
			"count":943,
			"max":[
				32.650390625,
				75.27006530761719,
				49.857913970947266
			],
			"min":[
				-34.85283279418945,
				-0.3654719293117523,
				-4.741640090942383
			],
			"type":"VEC3"
		},
		{
			"bufferView":13,
			"componentType":5126,
			"count":943,
			"type":"VEC3"
		},
		{
			"bufferView":14,
			"componentType":5126,
			"count":943,
			"type":"VEC2"
		},
		{
			"bufferView":15,
			"componentType":5123,
			"count":1572,
			"type":"SCALAR"
		},
		{
			"bufferView":16,
			"componentType":5126,
			"count":112,
			"max":[
				61.82087326049805,
				122.9275131225586,
				1.9215450286865234
			],
			"min":[
				-62.046043395996094,
				-0.6987449526786804,
				-1.921732783317566
			],
			"type":"VEC3"
		},
		{
			"bufferView":17,
			"componentType":5126,
			"count":112,
			"type":"VEC3"
		},
		{
			"bufferView":18,
			"componentType":5126,
			"count":112,
			"type":"VEC2"
		},
		{
			"bufferView":19,
			"componentType":5123,
			"count":144,
			"type":"SCALAR"
		},
		{
			"bufferView":20,
			"componentType":5126,
			"count":1,
			"max":[
				0.16666666666666666
			],
			"min":[
				0.16666666666666666
			],
			"type":"SCALAR"
		},
		{
			"bufferView":21,
			"componentType":5126,
			"count":1,
			"type":"VEC3"
		},
		{
			"bufferView":22,
			"componentType":5126,
			"count":1,
			"type":"VEC4"
		},
		{
			"bufferView":23,
			"componentType":5126,
			"count":1,
			"type":"VEC3"
		}
	],
	"bufferViews":[
		{
			"buffer":0,
			"byteLength":34296,
			"byteOffset":0,
			"target":34962
		},
		{
			"buffer":0,
			"byteLength":34296,
			"byteOffset":34296,
			"target":34962
		},
		{
			"buffer":0,
			"byteLength":22864,
			"byteOffset":68592,
			"target":34962
		},
		{
			"buffer":0,
			"byteLength":7992,
			"byteOffset":91456,
			"target":34963
		},
		{
			"buffer":0,
			"byteLength":2304,
			"byteOffset":99448,
			"target":34962
		},
		{
			"buffer":0,
			"byteLength":2304,
			"byteOffset":101752,
			"target":34962
		},
		{
			"buffer":0,
			"byteLength":1536,
			"byteOffset":104056,
			"target":34962
		},
		{
			"buffer":0,
			"byteLength":1008,
			"byteOffset":105592,
			"target":34963
		},
		{
			"buffer":0,
			"byteLength":38400,
			"byteOffset":106600,
			"target":34962
		},
		{
			"buffer":0,
			"byteLength":38400,
			"byteOffset":145000,
			"target":34962
		},
		{
			"buffer":0,
			"byteLength":25600,
			"byteOffset":183400,
			"target":34962
		},
		{
			"buffer":0,
			"byteLength":13980,
			"byteOffset":209000,
			"target":34963
		},
		{
			"buffer":0,
			"byteLength":11316,
			"byteOffset":222980,
			"target":34962
		},
		{
			"buffer":0,
			"byteLength":11316,
			"byteOffset":234296,
			"target":34962
		},
		{
			"buffer":0,
			"byteLength":7544,
			"byteOffset":245612,
			"target":34962
		},
		{
			"buffer":0,
			"byteLength":3144,
			"byteOffset":253156,
			"target":34963
		},
		{
			"buffer":0,
			"byteLength":1344,
			"byteOffset":256300,
			"target":34962
		},
		{
			"buffer":0,
			"byteLength":1344,
			"byteOffset":257644,
			"target":34962
		},
		{
			"buffer":0,
			"byteLength":896,
			"byteOffset":258988,
			"target":34962
		},
		{
			"buffer":0,
			"byteLength":288,
			"byteOffset":259884,
			"target":34963
		},
		{
			"buffer":0,
			"byteLength":4,
			"byteOffset":260172
		},
		{
			"buffer":0,
			"byteLength":12,
			"byteOffset":260176
		},
		{
			"buffer":0,
			"byteLength":16,
			"byteOffset":260188
		},
		{
			"buffer":0,
			"byteLength":12,
			"byteOffset":260204
		}
	],
	"samplers":[
		{
			"magFilter":9729,
			"minFilter":9987
		}
	],
	"buffers":[
		{
			"byteLength":260216,
			"uri":"mdl_namo_pavilion.bin"
		}
	]
}
