{
	"asset":{
		"generator":"Khronos glTF Blender I/O v4.0.44",
		"version":"2.0"
	},
	"extensionsUsed":[
		"KHR_materials_specular"
	],
	"scene":0,
	"scenes":[
		{
			"name":"Scene",
			"nodes":[
				0
			]
		}
	],
	"nodes":[
		{
			"mesh":0,
			"name":"Newspaper"
		}
	],
	"materials":[
		{
			"doubleSided":true,
			"extensions":{
				"KHR_materials_specular":{
					"specularFactor":0
				}
			},
			"name":"Material_Newspaper_Stack",
			"normalTexture":{
				"index":0
			},
			"pbrMetallicRoughness":{
				"baseColorTexture":{
					"index":1
				},
				"metallicFactor":0,
				"roughnessFactor":0.75
			}
		}
	],
	"meshes":[
		{
			"name":"Mesh.001",
			"primitives":[
				{
					"attributes":{
						"POSITION":0,
						"NORMAL":1,
						"TEXCOORD_0":2
					},
					"indices":3,
					"material":0
				}
			]
		}
	],
	"textures":[
		{
			"sampler":0,
			"source":0
		},
		{
			"sampler":0,
			"source":1
		}
	],
	"images":[
		{
			"mimeType":"image/png",
			"name":"tx_brush_Paper003Normal",
			"uri":"tx_brush_Paper003Normal.png"
		},
		{
			"mimeType":"image/png",
			"name":"tx_hub_newspaperstack",
			"uri":"tx_hub_newspaperstack.png"
		}
	],
	"accessors":[
		{
			"bufferView":0,
			"componentType":5126,
			"count":573,
			"max":[
				0.13225620985031128,
				0.010315366089344025,
				0.0738956406712532
			],
			"min":[
				-0.12824326753616333,
				-0.00029664597241207957,
				-0.10798950493335724
			],
			"type":"VEC3"
		},
		{
			"bufferView":1,
			"componentType":5126,
			"count":573,
			"type":"VEC3"
		},
		{
			"bufferView":2,
			"componentType":5126,
			"count":573,
			"type":"VEC2"
		},
		{
			"bufferView":3,
			"componentType":5123,
			"count":1056,
			"type":"SCALAR"
		}
	],
	"bufferViews":[
		{
			"buffer":0,
			"byteLength":6876,
			"byteOffset":0,
			"target":34962
		},
		{
			"buffer":0,
			"byteLength":6876,
			"byteOffset":6876,
			"target":34962
		},
		{
			"buffer":0,
			"byteLength":4584,
			"byteOffset":13752,
			"target":34962
		},
		{
			"buffer":0,
			"byteLength":2112,
			"byteOffset":18336,
			"target":34963
		}
	],
	"samplers":[
		{
			"magFilter":9729,
			"minFilter":9987
		}
	],
	"buffers":[
		{
			"byteLength":20448,
			"uri":"mdl_brush_newsstack.bin"
		}
	]
}
