{
	"asset":{
		"generator":"Khronos glTF Blender I/O v4.2.57",
		"version":"2.0"
	},
	"extensionsUsed":[
		"KHR_materials_specular"
	],
	"scene":0,
	"scenes":[
		{
			"name":"Scene",
			"nodes":[
				0
			]
		}
	],
	"nodes":[
		{
			"mesh":0,
			"name":"Cube.007"
		}
	],
	"materials":[
		{
			"doubleSided":true,
			"name":"pergola.001",
			"normalTexture":{
				"index":0
			},
			"pbrMetallicRoughness":{
				"baseColorTexture":{
					"index":1
				},
				"metallicFactor":0,
				"roughnessFactor":0.7061855792999268
			}
		},
		{
			"doubleSided":true,
			"extensions":{
				"KHR_materials_specular":{
					"specularFactor":0
				}
			},
			"name":"Ground.001",
			"normalTexture":{
				"index":2
			},
			"pbrMetallicRoughness":{
				"baseColorTexture":{
					"index":3
				},
				"metallicFactor":0
			}
		},
		{
			"doubleSided":true,
			"name":"Material.005",
			"pbrMetallicRoughness":{
				"baseColorTexture":{
					"index":4
				},
				"metallicFactor":0,
				"metallicRoughnessTexture":{
					"index":5
				}
			}
		},
		{
			"doubleSided":true,
			"name":"Material.004",
			"normalTexture":{
				"index":6
			},
			"pbrMetallicRoughness":{
				"baseColorTexture":{
					"index":7
				},
				"metallicFactor":0,
				"roughnessFactor":0.5
			}
		}
	],
	"meshes":[
		{
			"name":"Cube.013",
			"primitives":[
				{
					"attributes":{
						"POSITION":0,
						"NORMAL":1,
						"TEXCOORD_0":2
					},
					"indices":3,
					"material":0
				},
				{
					"attributes":{
						"POSITION":4,
						"NORMAL":5,
						"TEXCOORD_0":6
					},
					"indices":7,
					"material":1
				},
				{
					"attributes":{
						"POSITION":8,
						"NORMAL":9,
						"TEXCOORD_0":10
					},
					"indices":11,
					"material":2
				},
				{
					"attributes":{
						"POSITION":12,
						"NORMAL":13,
						"TEXCOORD_0":14
					},
					"indices":15,
					"material":3
				}
			]
		}
	],
	"textures":[
		{
			"sampler":0,
			"source":0
		},
		{
			"sampler":0,
			"source":1
		},
		{
			"sampler":0,
			"source":2
		},
		{
			"sampler":0,
			"source":3
		},
		{
			"sampler":0,
			"source":4
		},
		{
			"sampler":0,
			"source":5
		},
		{
			"sampler":0,
			"source":6
		},
		{
			"sampler":0,
			"source":7
		}
	],
	"images":[
		{
			"mimeType":"image/png",
			"name":"tx_hub_pergolaNormal",
			"uri":"tx_hub_pergolaNormal.png"
		},
		{
			"mimeType":"image/png",
			"name":"tx_hub_pergolaColor",
			"uri":"tx_hub_pergolaColor.png"
		},
		{
			"mimeType":"image/png",
			"name":"tx_brush_Grass002_2K-PNG_NormalGL",
			"uri":"tx_brush_Grass002_2K-PNG_NormalGL.png"
		},
		{
			"mimeType":"image/png",
			"name":"tx_brush_Grass002_2K-PNG_Color",
			"uri":"tx_brush_Grass002_2K-PNG_Color.png"
		},
		{
			"mimeType":"image/png",
			"name":"tx_hub_patioColor",
			"uri":"tx_hub_patioColor.png"
		},
		{
			"mimeType":"image/png",
			"name":"tx_hub_patioNormalGL",
			"uri":"tx_hub_patioNormalGL.png"
		},
		{
			"mimeType":"image/png",
			"name":"tx_hub_patioaccentNormalGL",
			"uri":"tx_hub_patioaccentNormalGL.png"
		},
		{
			"mimeType":"image/png",
			"name":"tx_hub_patioaccentColor",
			"uri":"tx_hub_patioaccentColor.png"
		}
	],
	"accessors":[
		{
			"bufferView":0,
			"componentType":5126,
			"count":5126,
			"max":[
				27.05872344970703,
				6.303763389587402,
				48.36587142944336
			],
			"min":[
				-27.0648136138916,
				-0.3966951370239258,
				-16.3699951171875
			],
			"type":"VEC3"
		},
		{
			"bufferView":1,
			"componentType":5126,
			"count":5126,
			"type":"VEC3"
		},
		{
			"bufferView":2,
			"componentType":5126,
			"count":5126,
			"type":"VEC2"
		},
		{
			"bufferView":3,
			"componentType":5123,
			"count":8829,
			"type":"SCALAR"
		},
		{
			"bufferView":4,
			"componentType":5126,
			"count":80,
			"max":[
				90.8044662475586,
				8.69518756866455,
				92.93060302734375
			],
			"min":[
				-65.50576782226562,
				0,
				-16.57724380493164
			],
			"type":"VEC3"
		},
		{
			"bufferView":5,
			"componentType":5126,
			"count":80,
			"type":"VEC3"
		},
		{
			"bufferView":6,
			"componentType":5126,
			"count":80,
			"type":"VEC2"
		},
		{
			"bufferView":7,
			"componentType":5123,
			"count":234,
			"type":"SCALAR"
		},
		{
			"bufferView":8,
			"componentType":5126,
			"count":75,
			"max":[
				17.430755615234375,
				2.1875669956207275,
				11.48807430267334
			],
			"min":[
				-13.283930778503418,
				0,
				-5.755127906799316
			],
			"type":"VEC3"
		},
		{
			"bufferView":9,
			"componentType":5126,
			"count":75,
			"type":"VEC3"
		},
		{
			"bufferView":10,
			"componentType":5126,
			"count":75,
			"type":"VEC2"
		},
		{
			"bufferView":11,
			"componentType":5123,
			"count":144,
			"type":"SCALAR"
		},
		{
			"bufferView":12,
			"componentType":5126,
			"count":74,
			"max":[
				17.702789306640625,
				2.128795623779297,
				11.652666091918945
			],
			"min":[
				-13.283930778503418,
				1.783789873123169,
				-6.105555534362793
			],
			"type":"VEC3"
		},
		{
			"bufferView":13,
			"componentType":5126,
			"count":74,
			"type":"VEC3"
		},
		{
			"bufferView":14,
			"componentType":5126,
			"count":74,
			"type":"VEC2"
		},
		{
			"bufferView":15,
			"componentType":5123,
			"count":132,
			"type":"SCALAR"
		}
	],
	"bufferViews":[
		{
			"buffer":0,
			"byteLength":61512,
			"byteOffset":0,
			"target":34962
		},
		{
			"buffer":0,
			"byteLength":61512,
			"byteOffset":61512,
			"target":34962
		},
		{
			"buffer":0,
			"byteLength":41008,
			"byteOffset":123024,
			"target":34962
		},
		{
			"buffer":0,
			"byteLength":17658,
			"byteOffset":164032,
			"target":34963
		},
		{
			"buffer":0,
			"byteLength":960,
			"byteOffset":181692,
			"target":34962
		},
		{
			"buffer":0,
			"byteLength":960,
			"byteOffset":182652,
			"target":34962
		},
		{
			"buffer":0,
			"byteLength":640,
			"byteOffset":183612,
			"target":34962
		},
		{
			"buffer":0,
			"byteLength":468,
			"byteOffset":184252,
			"target":34963
		},
		{
			"buffer":0,
			"byteLength":900,
			"byteOffset":184720,
			"target":34962
		},
		{
			"buffer":0,
			"byteLength":900,
			"byteOffset":185620,
			"target":34962
		},
		{
			"buffer":0,
			"byteLength":600,
			"byteOffset":186520,
			"target":34962
		},
		{
			"buffer":0,
			"byteLength":288,
			"byteOffset":187120,
			"target":34963
		},
		{
			"buffer":0,
			"byteLength":888,
			"byteOffset":187408,
			"target":34962
		},
		{
			"buffer":0,
			"byteLength":888,
			"byteOffset":188296,
			"target":34962
		},
		{
			"buffer":0,
			"byteLength":592,
			"byteOffset":189184,
			"target":34962
		},
		{
			"buffer":0,
			"byteLength":264,
			"byteOffset":189776,
			"target":34963
		}
	],
	"samplers":[
		{
			"magFilter":9729,
			"minFilter":9987
		}
	],
	"buffers":[
		{
			"byteLength":190040,
			"uri":"mdl_brush_huboutdoor.bin"
		}
	]
}
