{
	"asset":{
		"generator":"Khronos glTF Blender I/O v4.0.44",
		"version":"2.0"
	},
	"scene":0,
	"scenes":[
		{
			"name":"Scene",
			"nodes":[
				0,
				1,
				2,
				3
			]
		}
	],
	"nodes":[
		{
			"mesh":0,
			"name":"Circle.004",
			"translation":[
				0,
				1.9661452770233154,
				0.03890345245599747
			]
		},
		{
			"name":"Empty",
			"rotation":[
				0,
				-0.5,
				0,
				0.8660253882408142
			],
			"translation":[
				0,
				1.8960418701171875,
				0
			]
		},
		{
			"mesh":1,
			"name":"Cylinder.007",
			"translation":[
				0,
				1.8844528198242188,
				-0.03766423836350441
			]
		},
		{
			"mesh":2,
			"name":"Cube.032",
			"rotation":[
				0,
				1,
				0,
				1.6292068494294654e-07
			],
			"translation":[
				0,
				1.8960418701171875,
				0
			]
		}
	],
	"materials":[
		{
			"doubleSided":true,
			"name":"Material.001",
			"pbrMetallicRoughness":{
				"baseColorTexture":{
					"index":0
				},
				"metallicFactor":0,
				"roughnessFactor":0.949999988079071
			}
		},
		{
			"doubleSided":true,
			"name":"Material.002",
			"pbrMetallicRoughness":{
				"baseColorTexture":{
					"index":1
				},
				"metallicFactor":0.6863636374473572,
				"roughnessFactor":0.800000011920929
			}
		},
		{
			"doubleSided":true,
			"name":"Material.002",
			"pbrMetallicRoughness":{
				"baseColorTexture":{
					"index":2
				},
				"metallicFactor":0.6863636374473572,
				"roughnessFactor":0.800000011920929
			}
		}
	],
	"meshes":[
		{
			"name":"Circle.004",
			"primitives":[
				{
					"attributes":{
						"POSITION":0,
						"NORMAL":1,
						"TEXCOORD_0":2
					},
					"indices":3,
					"material":0
				},
				{
					"attributes":{
						"POSITION":4,
						"NORMAL":5,
						"TEXCOORD_0":6
					},
					"indices":7,
					"material":1
				}
			]
		},
		{
			"name":"Cylinder.007",
			"primitives":[
				{
					"attributes":{
						"POSITION":8,
						"NORMAL":9,
						"TEXCOORD_0":10
					},
					"indices":11,
					"material":2
				}
			]
		},
		{
			"name":"Cube.030",
			"primitives":[
				{
					"attributes":{
						"POSITION":12,
						"NORMAL":13,
						"TEXCOORD_0":14
					},
					"indices":15,
					"material":1
				}
			]
		}
	],
	"textures":[
		{
			"sampler":0,
			"source":0
		},
		{
			"sampler":1,
			"source":1
		},
		{
			"sampler":1,
			"source":1
		}
	],
	"images":[
		{
			"mimeType":"image/png",
			"name":"mdl_poland_sklodowska",
			"uri":"mdl_poland_sklodowska.png"
		},
		{
			"mimeType":"image/png",
			"name":"mdl_poland_frame",
			"uri":"mdl_poland_frame.png"
		}
	],
	"accessors":[
		{
			"bufferView":0,
			"componentType":5126,
			"count":17,
			"max":[
				0.48045507073402405,
				0.5975604057312012,
				0.10050714015960693
			],
			"min":[
				-0.48045507073402405,
				-0.5924022197723389,
				-0.0629572868347168
			],
			"type":"VEC3"
		},
		{
			"bufferView":1,
			"componentType":5126,
			"count":17,
			"type":"VEC3"
		},
		{
			"bufferView":2,
			"componentType":5126,
			"count":17,
			"type":"VEC2"
		},
		{
			"bufferView":3,
			"componentType":5123,
			"count":48,
			"type":"SCALAR"
		},
		{
			"bufferView":4,
			"componentType":5126,
			"count":347,
			"max":[
				0.6000000238418579,
				0.7535617351531982,
				0.18701033294200897
			],
			"min":[
				-0.6000000238418579,
				-0.7416613101959229,
				-0.10053879767656326
			],
			"type":"VEC3"
		},
		{
			"bufferView":5,
			"componentType":5126,
			"count":347,
			"type":"VEC3"
		},
		{
			"bufferView":6,
			"componentType":5126,
			"count":347,
			"type":"VEC2"
		},
		{
			"bufferView":7,
			"componentType":5123,
			"count":912,
			"type":"SCALAR"
		},
		{
			"bufferView":8,
			"componentType":5126,
			"count":48,
			"max":[
				0.1658698320388794,
				0.2507217526435852,
				0.13232780992984772
			],
			"min":[
				-0.1658698320388794,
				-0.2507217824459076,
				-0.13232776522636414
			],
			"type":"VEC3"
		},
		{
			"bufferView":9,
			"componentType":5126,
			"count":48,
			"type":"VEC3"
		},
		{
			"bufferView":10,
			"componentType":5126,
			"count":48,
			"type":"VEC2"
		},
		{
			"bufferView":11,
			"componentType":5123,
			"count":84,
			"type":"SCALAR"
		},
		{
			"bufferView":12,
			"componentType":5126,
			"count":393,
			"max":[
				0.5285307168960571,
				0.0003254629555158317,
				0.5576703548431396
			],
			"min":[
				-0.5285308957099915,
				-1.895158290863037,
				-0.35777193307876587
			],
			"type":"VEC3"
		},
		{
			"bufferView":13,
			"componentType":5126,
			"count":393,
			"type":"VEC3"
		},
		{
			"bufferView":14,
			"componentType":5126,
			"count":393,
			"type":"VEC2"
		},
		{
			"bufferView":15,
			"componentType":5123,
			"count":612,
			"type":"SCALAR"
		}
	],
	"bufferViews":[
		{
			"buffer":0,
			"byteLength":204,
			"byteOffset":0,
			"target":34962
		},
		{
			"buffer":0,
			"byteLength":204,
			"byteOffset":204,
			"target":34962
		},
		{
			"buffer":0,
			"byteLength":136,
			"byteOffset":408,
			"target":34962
		},
		{
			"buffer":0,
			"byteLength":96,
			"byteOffset":544,
			"target":34963
		},
		{
			"buffer":0,
			"byteLength":4164,
			"byteOffset":640,
			"target":34962
		},
		{
			"buffer":0,
			"byteLength":4164,
			"byteOffset":4804,
			"target":34962
		},
		{
			"buffer":0,
			"byteLength":2776,
			"byteOffset":8968,
			"target":34962
		},
		{
			"buffer":0,
			"byteLength":1824,
			"byteOffset":11744,
			"target":34963
		},
		{
			"buffer":0,
			"byteLength":576,
			"byteOffset":13568,
			"target":34962
		},
		{
			"buffer":0,
			"byteLength":576,
			"byteOffset":14144,
			"target":34962
		},
		{
			"buffer":0,
			"byteLength":384,
			"byteOffset":14720,
			"target":34962
		},
		{
			"buffer":0,
			"byteLength":168,
			"byteOffset":15104,
			"target":34963
		},
		{
			"buffer":0,
			"byteLength":4716,
			"byteOffset":15272,
			"target":34962
		},
		{
			"buffer":0,
			"byteLength":4716,
			"byteOffset":19988,
			"target":34962
		},
		{
			"buffer":0,
			"byteLength":3144,
			"byteOffset":24704,
			"target":34962
		},
		{
			"buffer":0,
			"byteLength":1224,
			"byteOffset":27848,
			"target":34963
		}
	],
	"samplers":[
		{
			"magFilter":9729,
			"minFilter":9987
		},
		{
			"magFilter":9728,
			"minFilter":9984
		}
	],
	"buffers":[
		{
			"byteLength":29072,
			"uri":"mdl_poland_frame.bin"
		}
	]
}
