{
	"asset":{
		"generator":"Khronos glTF Blender I/O v4.2.57",
		"version":"2.0"
	},
	"extensionsUsed":[
		"KHR_materials_specular",
		"KHR_materials_ior"
	],
	"scene":0,
	"scenes":[
		{
			"name":"Scene",
			"nodes":[
				0
			]
		}
	],
	"nodes":[
		{
			"mesh":0,
			"name":"Wall Textures Bake.057"
		}
	],
	"materials":[
		{
			"doubleSided":true,
			"extensions":{
				"KHR_materials_specular":{
					"specularFactor":0
				},
				"KHR_materials_ior":{
					"ior":1
				}
			},
			"name":"Trim.001",
			"pbrMetallicRoughness":{
				"baseColorTexture":{
					"index":0
				},
				"metallicFactor":0,
				"roughnessFactor":0.8181818127632141
			}
		},
		{
			"doubleSided":true,
			"extensions":{
				"KHR_materials_specular":{
					"specularFactor":0
				}
			},
			"name":"Brick.001",
			"normalTexture":{
				"index":1,
				"scale":1.5
			},
			"pbrMetallicRoughness":{
				"baseColorTexture":{
					"index":2
				},
				"metallicFactor":0,
				"roughnessFactor":0.8227272629737854
			}
		},
		{
			"doubleSided":true,
			"name":"whitewall.001",
			"pbrMetallicRoughness":{
				"baseColorTexture":{
					"index":3
				},
				"metallicFactor":0,
				"roughnessFactor":0.5
			}
		},
		{
			"doubleSided":true,
			"extensions":{
				"KHR_materials_specular":{
					"specularFactor":0
				},
				"KHR_materials_ior":{
					"ior":1
				}
			},
			"name":"Trim",
			"pbrMetallicRoughness":{
				"baseColorTexture":{
					"index":4
				},
				"metallicFactor":0,
				"roughnessFactor":0.8181818127632141
			}
		},
		{
			"doubleSided":true,
			"extensions":{
				"KHR_materials_specular":{
					"specularFactor":0
				}
			},
			"name":"woodlight",
			"pbrMetallicRoughness":{
				"baseColorTexture":{
					"index":5
				},
				"metallicFactor":0,
				"roughnessFactor":0.7698413133621216
			}
		},
		{
			"doubleSided":true,
			"extensions":{
				"KHR_materials_specular":{
					"specularFactor":0
				}
			},
			"name":"Light Wood",
			"normalTexture":{
				"index":6
			},
			"pbrMetallicRoughness":{
				"baseColorTexture":{
					"index":7
				},
				"metallicFactor":0,
				"roughnessFactor":0.7727272510528564
			}
		}
	],
	"meshes":[
		{
			"name":"Plane.113",
			"primitives":[
				{
					"attributes":{
						"POSITION":0,
						"NORMAL":1,
						"TEXCOORD_0":2
					},
					"indices":3,
					"material":0
				},
				{
					"attributes":{
						"POSITION":4,
						"NORMAL":5,
						"TEXCOORD_0":6
					},
					"indices":7,
					"material":1
				},
				{
					"attributes":{
						"POSITION":8,
						"NORMAL":9,
						"TEXCOORD_0":10
					},
					"indices":11,
					"material":2
				},
				{
					"attributes":{
						"POSITION":12,
						"NORMAL":13,
						"TEXCOORD_0":14
					},
					"indices":15,
					"material":3
				},
				{
					"attributes":{
						"POSITION":16,
						"NORMAL":17,
						"TEXCOORD_0":18
					},
					"indices":19,
					"material":4
				},
				{
					"attributes":{
						"POSITION":20,
						"NORMAL":21,
						"TEXCOORD_0":22
					},
					"indices":23,
					"material":5
				}
			]
		}
	],
	"textures":[
		{
			"sampler":0,
			"source":0
		},
		{
			"sampler":0,
			"source":1
		},
		{
			"sampler":0,
			"source":2
		},
		{
			"sampler":0,
			"source":3
		},
		{
			"sampler":0,
			"source":0
		},
		{
			"sampler":0,
			"source":4
		},
		{
			"sampler":0,
			"source":5
		},
		{
			"sampler":0,
			"source":6
		}
	],
	"images":[
		{
			"mimeType":"image/png",
			"name":"tx_hub_TrimWoodColor",
			"uri":"tx_hub_TrimWoodColor.png"
		},
		{
			"mimeType":"image/jpeg",
			"name":"tx_hub_BricksNormal",
			"uri":"tx_hub_BricksNormal.jpg"
		},
		{
			"mimeType":"image/jpeg",
			"name":"tx_hub_BrickColor",
			"uri":"tx_hub_BrickColor.jpg"
		},
		{
			"mimeType":"image/png",
			"name":"tx_wollo_wallpaper_",
			"uri":"tx_wollo_wallpaper_.png"
		},
		{
			"mimeType":"image/jpeg",
			"name":"WoodFloor007_2K-JPG_Color",
			"uri":"WoodFloor007_2K-JPG_Color.jpg"
		},
		{
			"mimeType":"image/png",
			"name":"tx_hub_accentwoodNormal",
			"uri":"tx_hub_accentwoodNormal.png"
		},
		{
			"mimeType":"image/png",
			"name":"tx_hubAccentWoodColor",
			"uri":"tx_hubAccentWoodColor.png"
		}
	],
	"accessors":[
		{
			"bufferView":0,
			"componentType":5126,
			"count":214,
			"max":[
				-5.972567081451416,
				0.2410271167755127,
				5.976593971252441
			],
			"min":[
				-28.497039794921875,
				-6.444424152374268,
				-18.295759201049805
			],
			"type":"VEC3"
		},
		{
			"bufferView":1,
			"componentType":5126,
			"count":214,
			"type":"VEC3"
		},
		{
			"bufferView":2,
			"componentType":5126,
			"count":214,
			"type":"VEC2"
		},
		{
			"bufferView":3,
			"componentType":5123,
			"count":324,
			"type":"SCALAR"
		},
		{
			"bufferView":4,
			"componentType":5126,
			"count":19,
			"max":[
				-6.000416278839111,
				2.118905544281006,
				5.973802089691162
			],
			"min":[
				-24.13985252380371,
				-6.395905494689941,
				-5.979069709777832
			],
			"type":"VEC3"
		},
		{
			"bufferView":5,
			"componentType":5126,
			"count":19,
			"type":"VEC3"
		},
		{
			"bufferView":6,
			"componentType":5126,
			"count":19,
			"type":"VEC2"
		},
		{
			"bufferView":7,
			"componentType":5123,
			"count":24,
			"type":"SCALAR"
		},
		{
			"bufferView":8,
			"componentType":5126,
			"count":64,
			"max":[
				-6.053791522979736,
				0.024655818939208984,
				5.9415717124938965
			],
			"min":[
				-24.060916900634766,
				-6.395905494689941,
				-14.590291976928711
			],
			"type":"VEC3"
		},
		{
			"bufferView":9,
			"componentType":5126,
			"count":64,
			"type":"VEC3"
		},
		{
			"bufferView":10,
			"componentType":5126,
			"count":64,
			"type":"VEC2"
		},
		{
			"bufferView":11,
			"componentType":5123,
			"count":144,
			"type":"SCALAR"
		},
		{
			"bufferView":12,
			"componentType":5126,
			"count":48,
			"max":[
				-12.452306747436523,
				-6.335117340087891,
				5.95098876953125
			],
			"min":[
				-24.030838012695312,
				-6.335117340087891,
				-14.573015213012695
			],
			"type":"VEC3"
		},
		{
			"bufferView":13,
			"componentType":5126,
			"count":48,
			"type":"VEC3"
		},
		{
			"bufferView":14,
			"componentType":5126,
			"count":48,
			"type":"VEC2"
		},
		{
			"bufferView":15,
			"componentType":5123,
			"count":138,
			"type":"SCALAR"
		},
		{
			"bufferView":16,
			"componentType":5126,
			"count":9,
			"max":[
				-14.72866439819336,
				-6.335117340087891,
				-0.30195003747940063
			],
			"min":[
				-21.814041137695312,
				-6.335117340087891,
				-12.326390266418457
			],
			"type":"VEC3"
		},
		{
			"bufferView":17,
			"componentType":5126,
			"count":9,
			"type":"VEC3"
		},
		{
			"bufferView":18,
			"componentType":5126,
			"count":9,
			"type":"VEC2"
		},
		{
			"bufferView":19,
			"componentType":5123,
			"count":24,
			"type":"SCALAR"
		},
		{
			"bufferView":20,
			"componentType":5126,
			"count":32,
			"max":[
				-14.527807235717773,
				-6.335117340087891,
				-0.06828230619430542
			],
			"min":[
				-22.037540435791016,
				-6.335117340087891,
				-12.518224716186523
			],
			"type":"VEC3"
		},
		{
			"bufferView":21,
			"componentType":5126,
			"count":32,
			"type":"VEC3"
		},
		{
			"bufferView":22,
			"componentType":5126,
			"count":32,
			"type":"VEC2"
		},
		{
			"bufferView":23,
			"componentType":5123,
			"count":72,
			"type":"SCALAR"
		}
	],
	"bufferViews":[
		{
			"buffer":0,
			"byteLength":2568,
			"byteOffset":0,
			"target":34962
		},
		{
			"buffer":0,
			"byteLength":2568,
			"byteOffset":2568,
			"target":34962
		},
		{
			"buffer":0,
			"byteLength":1712,
			"byteOffset":5136,
			"target":34962
		},
		{
			"buffer":0,
			"byteLength":648,
			"byteOffset":6848,
			"target":34963
		},
		{
			"buffer":0,
			"byteLength":228,
			"byteOffset":7496,
			"target":34962
		},
		{
			"buffer":0,
			"byteLength":228,
			"byteOffset":7724,
			"target":34962
		},
		{
			"buffer":0,
			"byteLength":152,
			"byteOffset":7952,
			"target":34962
		},
		{
			"buffer":0,
			"byteLength":48,
			"byteOffset":8104,
			"target":34963
		},
		{
			"buffer":0,
			"byteLength":768,
			"byteOffset":8152,
			"target":34962
		},
		{
			"buffer":0,
			"byteLength":768,
			"byteOffset":8920,
			"target":34962
		},
		{
			"buffer":0,
			"byteLength":512,
			"byteOffset":9688,
			"target":34962
		},
		{
			"buffer":0,
			"byteLength":288,
			"byteOffset":10200,
			"target":34963
		},
		{
			"buffer":0,
			"byteLength":576,
			"byteOffset":10488,
			"target":34962
		},
		{
			"buffer":0,
			"byteLength":576,
			"byteOffset":11064,
			"target":34962
		},
		{
			"buffer":0,
			"byteLength":384,
			"byteOffset":11640,
			"target":34962
		},
		{
			"buffer":0,
			"byteLength":276,
			"byteOffset":12024,
			"target":34963
		},
		{
			"buffer":0,
			"byteLength":108,
			"byteOffset":12300,
			"target":34962
		},
		{
			"buffer":0,
			"byteLength":108,
			"byteOffset":12408,
			"target":34962
		},
		{
			"buffer":0,
			"byteLength":72,
			"byteOffset":12516,
			"target":34962
		},
		{
			"buffer":0,
			"byteLength":48,
			"byteOffset":12588,
			"target":34963
		},
		{
			"buffer":0,
			"byteLength":384,
			"byteOffset":12636,
			"target":34962
		},
		{
			"buffer":0,
			"byteLength":384,
			"byteOffset":13020,
			"target":34962
		},
		{
			"buffer":0,
			"byteLength":256,
			"byteOffset":13404,
			"target":34962
		},
		{
			"buffer":0,
			"byteLength":144,
			"byteOffset":13660,
			"target":34963
		}
	],
	"samplers":[
		{
			"magFilter":9729,
			"minFilter":9987
		}
	],
	"buffers":[
		{
			"byteLength":13804,
			"uri":"mdl_brush_hubbasement.bin"
		}
	]
}
