{
	"asset":{
		"generator":"Khronos glTF Blender I/O v4.2.57",
		"version":"2.0"
	},
	"extensionsUsed":[
		"KHR_materials_clearcoat",
		"KHR_materials_specular",
		"KHR_materials_ior"
	],
	"scene":0,
	"scenes":[
		{
			"name":"Scene",
			"nodes":[
				0
			]
		}
	],
	"nodes":[
		{
			"mesh":0,
			"name":"Plane.019",
			"rotation":[
				1,
				0,
				0,
				0
			],
			"translation":[
				-4.559845447540283,
				1.5382556915283203,
				-1.619091272354126
			]
		}
	],
	"materials":[
		{
			"doubleSided":true,
			"extensions":{
				"KHR_materials_clearcoat":{
					"clearcoatRoughnessFactor":0.83814936876297
				},
				"KHR_materials_specular":{
					"specularFactor":0,
					"specularColorFactor":[
						0.023713575676083565,
						0.023713575676083565,
						0.023713575676083565
					]
				},
				"KHR_materials_ior":{
					"ior":1
				}
			},
			"name":"Material.009",
			"pbrMetallicRoughness":{
				"baseColorTexture":{
					"index":0
				},
				"metallicFactor":0,
				"roughnessFactor":0.870481550693512
			}
		},
		{
			"doubleSided":true,
			"extensions":{
				"KHR_materials_specular":{
					"specularFactor":0,
					"specularColorFactor":[
						0.023713575676083565,
						0.023713575676083565,
						0.023713575676083565
					]
				},
				"KHR_materials_ior":{
					"ior":1.4500000476837158
				}
			},
			"name":"_Gazebo_1.002",
			"pbrMetallicRoughness":{
				"baseColorTexture":{
					"index":1
				},
				"metallicFactor":0,
				"roughnessFactor":0.8045454621315002
			}
		}
	],
	"meshes":[
		{
			"name":"Plane.013",
			"primitives":[
				{
					"attributes":{
						"POSITION":0,
						"NORMAL":1,
						"TEXCOORD_0":2
					},
					"indices":3,
					"material":0
				},
				{
					"attributes":{
						"POSITION":4,
						"NORMAL":5,
						"TEXCOORD_0":6
					},
					"indices":7,
					"material":1
				}
			]
		}
	],
	"textures":[
		{
			"sampler":0,
			"source":0
		},
		{
			"sampler":0,
			"source":1
		}
	],
	"images":[
		{
			"mimeType":"image/png",
			"name":"tx_brush_hutwoodColor",
			"uri":"tx_brush_hutwoodColor.png"
		},
		{
			"mimeType":"image/jpeg",
			"name":"tx_brush_hutthatchedroofColor",
			"uri":"tx_brush_hutthatchedroofColor.jpg"
		}
	],
	"accessors":[
		{
			"bufferView":0,
			"componentType":5126,
			"count":3993,
			"max":[
				0.06265217065811157,
				1.363858938217163,
				0.19443881511688232
			],
			"min":[
				-1.7493624687194824,
				-1.5018961429595947,
				-4.7873992919921875
			],
			"type":"VEC3"
		},
		{
			"bufferView":1,
			"componentType":5126,
			"count":3993,
			"type":"VEC3"
		},
		{
			"bufferView":2,
			"componentType":5126,
			"count":3993,
			"type":"VEC2"
		},
		{
			"bufferView":3,
			"componentType":5123,
			"count":4938,
			"type":"SCALAR"
		},
		{
			"bufferView":4,
			"componentType":5126,
			"count":308,
			"max":[
				0.06265217065811157,
				1.3577606678009033,
				0.19443881511688232
			],
			"min":[
				-1.7493624687194824,
				-1.3390681743621826,
				-3.7546167373657227
			],
			"type":"VEC3"
		},
		{
			"bufferView":5,
			"componentType":5126,
			"count":308,
			"type":"VEC3"
		},
		{
			"bufferView":6,
			"componentType":5126,
			"count":308,
			"type":"VEC2"
		},
		{
			"bufferView":7,
			"componentType":5123,
			"count":450,
			"type":"SCALAR"
		}
	],
	"bufferViews":[
		{
			"buffer":0,
			"byteLength":47916,
			"byteOffset":0,
			"target":34962
		},
		{
			"buffer":0,
			"byteLength":47916,
			"byteOffset":47916,
			"target":34962
		},
		{
			"buffer":0,
			"byteLength":31944,
			"byteOffset":95832,
			"target":34962
		},
		{
			"buffer":0,
			"byteLength":9876,
			"byteOffset":127776,
			"target":34963
		},
		{
			"buffer":0,
			"byteLength":3696,
			"byteOffset":137652,
			"target":34962
		},
		{
			"buffer":0,
			"byteLength":3696,
			"byteOffset":141348,
			"target":34962
		},
		{
			"buffer":0,
			"byteLength":2464,
			"byteOffset":145044,
			"target":34962
		},
		{
			"buffer":0,
			"byteLength":900,
			"byteOffset":147508,
			"target":34963
		}
	],
	"samplers":[
		{
			"magFilter":9729,
			"minFilter":9987
		}
	],
	"buffers":[
		{
			"byteLength":148408,
			"uri":"mdl_brush_stage.bin"
		}
	]
}
