{
	"asset":{
		"generator":"Khronos glTF Blender I/O v4.2.57",
		"version":"2.0"
	},
	"extensionsUsed":[
		"KHR_materials_specular"
	],
	"scene":0,
	"scenes":[
		{
			"name":"Scene",
			"nodes":[
				0,
				1
			]
		}
	],
	"nodes":[
		{
			"mesh":0,
			"name":"dress"
		},
		{
			"mesh":1,
			"name":"dress.001"
		}
	],
	"materials":[
		{
			"doubleSided":true,
			"extensions":{
				"KHR_materials_specular":{
					"specularFactor":0
				}
			},
			"name":"Patung",
			"pbrMetallicRoughness":{
				"baseColorTexture":{
					"index":0
				},
				"metallicFactor":0,
				"roughnessFactor":0.75
			}
		}
	],
	"meshes":[
		{
			"name":"Mesh.001",
			"primitives":[
				{
					"attributes":{
						"POSITION":0,
						"NORMAL":1,
						"TEXCOORD_0":2,
						"TEXCOORD_1":3
					},
					"indices":4,
					"material":0
				}
			]
		},
		{
			"name":"Mesh.002",
			"primitives":[
				{
					"attributes":{
						"POSITION":5,
						"NORMAL":6,
						"TEXCOORD_0":7,
						"TEXCOORD_1":8
					},
					"indices":9,
					"material":0
				}
			]
		}
	],
	"textures":[
		{
			"sampler":0,
			"source":0
		}
	],
	"images":[
		{
			"mimeType":"image/png",
			"name":"tx_brush_africanpattern1",
			"uri":"tx_brush_africanpattern1.png"
		}
	],
	"accessors":[
		{
			"bufferView":0,
			"componentType":5126,
			"count":660,
			"max":[
				0.38471031188964844,
				2.050093650817871,
				0.21224038302898407
			],
			"min":[
				-0.38471031188964844,
				0.09712684899568558,
				-0.21419505774974823
			],
			"type":"VEC3"
		},
		{
			"bufferView":1,
			"componentType":5126,
			"count":660,
			"type":"VEC3"
		},
		{
			"bufferView":2,
			"componentType":5126,
			"count":660,
			"type":"VEC2"
		},
		{
			"bufferView":3,
			"componentType":5126,
			"count":660,
			"type":"VEC2"
		},
		{
			"bufferView":4,
			"componentType":5123,
			"count":2916,
			"type":"SCALAR"
		},
		{
			"bufferView":5,
			"componentType":5126,
			"count":660,
			"max":[
				0.38471031188964844,
				2.050093650817871,
				0.21224038302898407
			],
			"min":[
				-0.38471031188964844,
				0.09712684899568558,
				-0.21419505774974823
			],
			"type":"VEC3"
		},
		{
			"bufferView":6,
			"componentType":5126,
			"count":660,
			"type":"VEC3"
		},
		{
			"bufferView":7,
			"componentType":5126,
			"count":660,
			"type":"VEC2"
		},
		{
			"bufferView":8,
			"componentType":5126,
			"count":660,
			"type":"VEC2"
		},
		{
			"bufferView":9,
			"componentType":5123,
			"count":2916,
			"type":"SCALAR"
		}
	],
	"bufferViews":[
		{
			"buffer":0,
			"byteLength":7920,
			"byteOffset":0,
			"target":34962
		},
		{
			"buffer":0,
			"byteLength":7920,
			"byteOffset":7920,
			"target":34962
		},
		{
			"buffer":0,
			"byteLength":5280,
			"byteOffset":15840,
			"target":34962
		},
		{
			"buffer":0,
			"byteLength":5280,
			"byteOffset":21120,
			"target":34962
		},
		{
			"buffer":0,
			"byteLength":5832,
			"byteOffset":26400,
			"target":34963
		},
		{
			"buffer":0,
			"byteLength":7920,
			"byteOffset":32232,
			"target":34962
		},
		{
			"buffer":0,
			"byteLength":7920,
			"byteOffset":40152,
			"target":34962
		},
		{
			"buffer":0,
			"byteLength":5280,
			"byteOffset":48072,
			"target":34962
		},
		{
			"buffer":0,
			"byteLength":5280,
			"byteOffset":53352,
			"target":34962
		},
		{
			"buffer":0,
			"byteLength":5832,
			"byteOffset":58632,
			"target":34963
		}
	],
	"samplers":[
		{
			"magFilter":9729,
			"minFilter":9987
		}
	],
	"buffers":[
		{
			"byteLength":64464,
			"uri":"mdl_brush_dress1.bin"
		}
	]
}
