{
	"asset":{
		"generator":"Khronos glTF Blender I/O v4.0.44",
		"version":"2.0"
	},
	"extensionsUsed":[
		"KHR_materials_emissive_strength"
	],
	"scene":0,
	"scenes":[
		{
			"name":"Scene",
			"nodes":[
				0,
				1
			]
		}
	],
	"nodes":[
		{
			"mesh":0,
			"name":"Cube.039"
		},
		{
			"mesh":1,
			"name":"Cube.040",
			"translation":[
				0,
				2.521317720413208,
				0
			]
		}
	],
	"materials":[
		{
			"doubleSided":true,
			"name":"Latarnia",
			"pbrMetallicRoughness":{
				"baseColorTexture":{
					"index":0
				},
				"metallicFactor":0,
				"roughnessFactor":0.8590909242630005
			}
		},
		{
			"doubleSided":true,
			"emissiveFactor":[
				1,
				0.8417323110432761,
				0
			],
			"extensions":{
				"KHR_materials_emissive_strength":{
					"emissiveStrength":1.141040951013565
				}
			},
			"name":"Latarnia.swiatlo",
			"pbrMetallicRoughness":{
				"baseColorFactor":[
					0.800000011920929,
					0.800000011920929,
					0.800000011920929,
					1
				],
				"metallicFactor":0,
				"roughnessFactor":0.8590909242630005
			}
		},
		{
			"doubleSided":true,
			"name":"Latarnia",
			"pbrMetallicRoughness":{
				"baseColorTexture":{
					"index":1
				},
				"metallicFactor":0,
				"roughnessFactor":0.8590909242630005
			}
		}
	],
	"meshes":[
		{
			"name":"Cube.039",
			"primitives":[
				{
					"attributes":{
						"POSITION":0,
						"NORMAL":1,
						"TEXCOORD_0":2
					},
					"indices":3,
					"material":0
				},
				{
					"attributes":{
						"POSITION":4,
						"NORMAL":5,
						"TEXCOORD_0":6
					},
					"indices":7,
					"material":1
				}
			]
		},
		{
			"name":"Cube.040",
			"primitives":[
				{
					"attributes":{
						"POSITION":8,
						"NORMAL":9,
						"TEXCOORD_0":10
					},
					"indices":11,
					"material":2
				}
			]
		}
	],
	"textures":[
		{
			"sampler":0,
			"source":0
		},
		{
			"sampler":0,
			"source":0
		}
	],
	"images":[
		{
			"mimeType":"image/png",
			"name":"mdl_poland_lantern_gray",
			"uri":"mdl_poland_lantern_gray.png"
		}
	],
	"accessors":[
		{
			"bufferView":0,
			"componentType":5126,
			"count":865,
			"max":[
				0.20269525051116943,
				2.4750494956970215,
				0.20322571694850922
			],
			"min":[
				-0.20269525051116943,
				0.0022329806815832853,
				-0.20322571694850922
			],
			"type":"VEC3"
		},
		{
			"bufferView":1,
			"componentType":5126,
			"count":865,
			"type":"VEC3"
		},
		{
			"bufferView":2,
			"componentType":5126,
			"count":865,
			"type":"VEC2"
		},
		{
			"bufferView":3,
			"componentType":5123,
			"count":2160,
			"type":"SCALAR"
		},
		{
			"bufferView":4,
			"componentType":5126,
			"count":24,
			"max":[
				0.16775040328502655,
				2.4750494956970215,
				0.16627410054206848
			],
			"min":[
				-0.16775040328502655,
				2.118426561355591,
				-0.16627410054206848
			],
			"type":"VEC3"
		},
		{
			"bufferView":5,
			"componentType":5126,
			"count":24,
			"type":"VEC3"
		},
		{
			"bufferView":6,
			"componentType":5126,
			"count":24,
			"type":"VEC2"
		},
		{
			"bufferView":7,
			"componentType":5123,
			"count":48,
			"type":"SCALAR"
		},
		{
			"bufferView":8,
			"componentType":5126,
			"count":104,
			"max":[
				0.22426007688045502,
				0.1824914962053299,
				0.22426007688045502
			],
			"min":[
				-0.22426007688045502,
				-0.056065019220113754,
				-0.22426007688045502
			],
			"type":"VEC3"
		},
		{
			"bufferView":9,
			"componentType":5126,
			"count":104,
			"type":"VEC3"
		},
		{
			"bufferView":10,
			"componentType":5126,
			"count":104,
			"type":"VEC2"
		},
		{
			"bufferView":11,
			"componentType":5123,
			"count":180,
			"type":"SCALAR"
		}
	],
	"bufferViews":[
		{
			"buffer":0,
			"byteLength":10380,
			"byteOffset":0,
			"target":34962
		},
		{
			"buffer":0,
			"byteLength":10380,
			"byteOffset":10380,
			"target":34962
		},
		{
			"buffer":0,
			"byteLength":6920,
			"byteOffset":20760,
			"target":34962
		},
		{
			"buffer":0,
			"byteLength":4320,
			"byteOffset":27680,
			"target":34963
		},
		{
			"buffer":0,
			"byteLength":288,
			"byteOffset":32000,
			"target":34962
		},
		{
			"buffer":0,
			"byteLength":288,
			"byteOffset":32288,
			"target":34962
		},
		{
			"buffer":0,
			"byteLength":192,
			"byteOffset":32576,
			"target":34962
		},
		{
			"buffer":0,
			"byteLength":96,
			"byteOffset":32768,
			"target":34963
		},
		{
			"buffer":0,
			"byteLength":1248,
			"byteOffset":32864,
			"target":34962
		},
		{
			"buffer":0,
			"byteLength":1248,
			"byteOffset":34112,
			"target":34962
		},
		{
			"buffer":0,
			"byteLength":832,
			"byteOffset":35360,
			"target":34962
		},
		{
			"buffer":0,
			"byteLength":360,
			"byteOffset":36192,
			"target":34963
		}
	],
	"samplers":[
		{
			"magFilter":9728,
			"minFilter":9984
		}
	],
	"buffers":[
		{
			"byteLength":36552,
			"uri":"mdl_poland_lantern.bin"
		}
	]
}
