{
	"asset":{
		"generator":"Khronos glTF Blender I/O v4.2.57",
		"version":"2.0"
	},
	"extensionsUsed":[
		"KHR_materials_specular"
	],
	"scene":0,
	"scenes":[
		{
			"name":"Scene",
			"nodes":[
				0,
				1,
				2,
				3
			]
		}
	],
	"nodes":[
		{
			"mesh":0,
			"name":"Sphere.001",
			"translation":[
				0,
				2.6987252235412598,
				0
			]
		},
		{
			"mesh":1,
			"name":"Sphere",
			"scale":[
				0.5736306309700012,
				0.9722583889961243,
				0.5736306309700012
			],
			"translation":[
				0,
				2.663585662841797,
				0
			]
		},
		{
			"mesh":2,
			"name":"Sphere.002",
			"translation":[
				12.161134719848633,
				2.226445436477661,
				0.4302952289581299
			]
		},
		{
			"mesh":3,
			"name":"Sphere.003",
			"scale":[
				0.5736306309700012,
				0.9722583889961243,
				0.5736306309700012
			],
			"translation":[
				12.161134719848633,
				2.1913058757781982,
				0.4302952289581299
			]
		}
	],
	"materials":[
		{
			"doubleSided":true,
			"extensions":{
				"KHR_materials_specular":{
					"specularFactor":0
				}
			},
			"name":"Material.001",
			"pbrMetallicRoughness":{
				"baseColorTexture":{
					"index":0
				},
				"metallicFactor":0,
				"roughnessFactor":0.7476190328598022
			}
		}
	],
	"meshes":[
		{
			"name":"Sphere.001",
			"primitives":[
				{
					"attributes":{
						"POSITION":0,
						"NORMAL":1,
						"TEXCOORD_0":2
					},
					"indices":3,
					"material":0
				}
			]
		},
		{
			"name":"Sphere",
			"primitives":[
				{
					"attributes":{
						"POSITION":4,
						"NORMAL":5,
						"TEXCOORD_0":6
					},
					"indices":7
				}
			]
		},
		{
			"name":"Sphere.004",
			"primitives":[
				{
					"attributes":{
						"POSITION":8,
						"NORMAL":9,
						"TEXCOORD_0":10
					},
					"indices":3,
					"material":0
				}
			]
		},
		{
			"name":"Sphere.005",
			"primitives":[
				{
					"attributes":{
						"POSITION":11,
						"NORMAL":12,
						"TEXCOORD_0":13
					},
					"indices":7
				}
			]
		}
	],
	"textures":[
		{
			"sampler":0,
			"source":0
		}
	],
	"images":[
		{
			"mimeType":"image/png",
			"name":"tx_brush_colors",
			"uri":"tx_brush_colors.png"
		}
	],
	"accessors":[
		{
			"bufferView":0,
			"componentType":5126,
			"count":156,
			"max":[
				2.2428009510040283,
				1,
				2.217486619949341
			],
			"min":[
				-2.2428009510040283,
				-0.10974685847759247,
				-2.2174875736236572
			],
			"type":"VEC3"
		},
		{
			"bufferView":1,
			"componentType":5126,
			"count":156,
			"type":"VEC3"
		},
		{
			"bufferView":2,
			"componentType":5126,
			"count":156,
			"type":"VEC2"
		},
		{
			"bufferView":3,
			"componentType":5123,
			"count":504,
			"type":"SCALAR"
		},
		{
			"bufferView":4,
			"componentType":5126,
			"count":48,
			"max":[
				0.0695180594921112,
				0.9807686805725098,
				0.06951814144849777
			],
			"min":[
				-0.06951819360256195,
				-2.390937328338623,
				-0.06951814144849777
			],
			"type":"VEC3"
		},
		{
			"bufferView":5,
			"componentType":5126,
			"count":48,
			"type":"VEC3"
		},
		{
			"bufferView":6,
			"componentType":5126,
			"count":48,
			"type":"VEC2"
		},
		{
			"bufferView":7,
			"componentType":5123,
			"count":84,
			"type":"SCALAR"
		},
		{
			"bufferView":8,
			"componentType":5126,
			"count":156,
			"max":[
				2.2428009510040283,
				1,
				2.217486619949341
			],
			"min":[
				-2.2428009510040283,
				-0.10974685847759247,
				-2.2174875736236572
			],
			"type":"VEC3"
		},
		{
			"bufferView":9,
			"componentType":5126,
			"count":156,
			"type":"VEC3"
		},
		{
			"bufferView":10,
			"componentType":5126,
			"count":156,
			"type":"VEC2"
		},
		{
			"bufferView":11,
			"componentType":5126,
			"count":48,
			"max":[
				0.0695180594921112,
				0.9807686805725098,
				0.06951814144849777
			],
			"min":[
				-0.06951819360256195,
				-2.390937328338623,
				-0.06951814144849777
			],
			"type":"VEC3"
		},
		{
			"bufferView":12,
			"componentType":5126,
			"count":48,
			"type":"VEC3"
		},
		{
			"bufferView":13,
			"componentType":5126,
			"count":48,
			"type":"VEC2"
		}
	],
	"bufferViews":[
		{
			"buffer":0,
			"byteLength":1872,
			"byteOffset":0,
			"target":34962
		},
		{
			"buffer":0,
			"byteLength":1872,
			"byteOffset":1872,
			"target":34962
		},
		{
			"buffer":0,
			"byteLength":1248,
			"byteOffset":3744,
			"target":34962
		},
		{
			"buffer":0,
			"byteLength":1008,
			"byteOffset":4992,
			"target":34963
		},
		{
			"buffer":0,
			"byteLength":576,
			"byteOffset":6000,
			"target":34962
		},
		{
			"buffer":0,
			"byteLength":576,
			"byteOffset":6576,
			"target":34962
		},
		{
			"buffer":0,
			"byteLength":384,
			"byteOffset":7152,
			"target":34962
		},
		{
			"buffer":0,
			"byteLength":168,
			"byteOffset":7536,
			"target":34963
		},
		{
			"buffer":0,
			"byteLength":1872,
			"byteOffset":7704,
			"target":34962
		},
		{
			"buffer":0,
			"byteLength":1872,
			"byteOffset":9576,
			"target":34962
		},
		{
			"buffer":0,
			"byteLength":1248,
			"byteOffset":11448,
			"target":34962
		},
		{
			"buffer":0,
			"byteLength":576,
			"byteOffset":12696,
			"target":34962
		},
		{
			"buffer":0,
			"byteLength":576,
			"byteOffset":13272,
			"target":34962
		},
		{
			"buffer":0,
			"byteLength":384,
			"byteOffset":13848,
			"target":34962
		}
	],
	"samplers":[
		{
			"magFilter":9729,
			"minFilter":9987
		}
	],
	"buffers":[
		{
			"byteLength":14232,
			"uri":"mdl_brush_umbrella.bin"
		}
	]
}
