{
	"asset":{
		"generator":"Khronos glTF Blender I/O v4.2.57",
		"version":"2.0"
	},
	"extensionsUsed":[
		"KHR_materials_specular"
	],
	"scene":0,
	"scenes":[
		{
			"name":"Scene",
			"nodes":[
				0,
				1
			]
		}
	],
	"nodes":[
		{
			"mesh":0,
			"name":"Cylinder"
		},
		{
			"mesh":1,
			"name":"Cylinder.001",
			"rotation":[
				0,
				-0.9993158578872681,
				0,
				0.03698485717177391
			]
		}
	],
	"materials":[
		{
			"doubleSided":true,
			"extensions":{
				"KHR_materials_specular":{
					"specularFactor":0
				}
			},
			"name":"Material.001",
			"pbrMetallicRoughness":{
				"baseColorTexture":{
					"index":0
				},
				"metallicFactor":0,
				"roughnessFactor":0.75
			}
		},
		{
			"doubleSided":true,
			"extensions":{
				"KHR_materials_specular":{
					"specularFactor":0
				}
			},
			"name":"Material.002",
			"pbrMetallicRoughness":{
				"baseColorTexture":{
					"index":1
				},
				"metallicFactor":0,
				"roughnessFactor":0.75
			}
		}
	],
	"meshes":[
		{
			"name":"Cylinder",
			"primitives":[
				{
					"attributes":{
						"POSITION":0,
						"NORMAL":1,
						"TEXCOORD_0":2
					},
					"indices":3,
					"material":0
				}
			]
		},
		{
			"name":"Cylinder.001",
			"primitives":[
				{
					"attributes":{
						"POSITION":4,
						"NORMAL":5,
						"TEXCOORD_0":6
					},
					"indices":7,
					"material":1
				}
			]
		}
	],
	"textures":[
		{
			"sampler":0,
			"source":0
		},
		{
			"sampler":0,
			"source":1
		}
	],
	"images":[
		{
			"mimeType":"image/jpeg",
			"name":"tx_brush_souvenirdrum",
			"uri":"tx_brush_souvenirdrum.jpg"
		},
		{
			"mimeType":"image/png",
			"name":"tx_brush_liondrum",
			"uri":"tx_brush_liondrum.png"
		}
	],
	"accessors":[
		{
			"bufferView":0,
			"componentType":5126,
			"count":862,
			"max":[
				0.9746265411376953,
				1.3907155990600586,
				0.9746266007423401
			],
			"min":[
				-0.9746265411376953,
				-1.4000000953674316,
				-0.9746266007423401
			],
			"type":"VEC3"
		},
		{
			"bufferView":1,
			"componentType":5126,
			"count":862,
			"type":"VEC3"
		},
		{
			"bufferView":2,
			"componentType":5126,
			"count":862,
			"type":"VEC2"
		},
		{
			"bufferView":3,
			"componentType":5123,
			"count":3546,
			"type":"SCALAR"
		},
		{
			"bufferView":4,
			"componentType":5126,
			"count":2817,
			"max":[
				1.0033069849014282,
				1.5219179391860962,
				1.0033071041107178
			],
			"min":[
				-1.0033071041107178,
				1.390775050680304e-08,
				-1.0033072233200073
			],
			"type":"VEC3"
		},
		{
			"bufferView":5,
			"componentType":5126,
			"count":2817,
			"type":"VEC3"
		},
		{
			"bufferView":6,
			"componentType":5126,
			"count":2817,
			"type":"VEC2"
		},
		{
			"bufferView":7,
			"componentType":5123,
			"count":11232,
			"type":"SCALAR"
		}
	],
	"bufferViews":[
		{
			"buffer":0,
			"byteLength":10344,
			"byteOffset":0,
			"target":34962
		},
		{
			"buffer":0,
			"byteLength":10344,
			"byteOffset":10344,
			"target":34962
		},
		{
			"buffer":0,
			"byteLength":6896,
			"byteOffset":20688,
			"target":34962
		},
		{
			"buffer":0,
			"byteLength":7092,
			"byteOffset":27584,
			"target":34963
		},
		{
			"buffer":0,
			"byteLength":33804,
			"byteOffset":34676,
			"target":34962
		},
		{
			"buffer":0,
			"byteLength":33804,
			"byteOffset":68480,
			"target":34962
		},
		{
			"buffer":0,
			"byteLength":22536,
			"byteOffset":102284,
			"target":34962
		},
		{
			"buffer":0,
			"byteLength":22464,
			"byteOffset":124820,
			"target":34963
		}
	],
	"samplers":[
		{
			"magFilter":9729,
			"minFilter":9987
		}
	],
	"buffers":[
		{
			"byteLength":147284,
			"uri":"mdl_brush_drumsouvenir.bin"
		}
	]
}
