{
	"asset":{
		"generator":"Khronos glTF Blender I/O v4.0.44",
		"version":"2.0"
	},
	"scene":0,
	"scenes":[
		{
			"name":"Scene",
			"nodes":[
				0,
				1,
				2,
				3,
				4,
				5
			]
		}
	],
	"nodes":[
		{
			"mesh":0,
			"name":"Circle.001"
		},
		{
			"mesh":1,
			"name":"Circle.002",
			"translation":[
				0,
				1.304847240447998,
				0
			]
		},
		{
			"mesh":2,
			"name":"Circle.003",
			"scale":[
				0.5,
				0.8198180198669434,
				0.5
			],
			"translation":[
				0,
				2.134220838546753,
				0
			]
		},
		{
			"mesh":3,
			"name":"Cylinder.004",
			"scale":[
				0.14986540377140045,
				0.5127241611480713,
				0.14986540377140045
			],
			"translation":[
				0,
				0.8081464767456055,
				0
			]
		},
		{
			"mesh":4,
			"name":"Cylinder.005",
			"scale":[
				0.10255230963230133,
				0.35085514187812805,
				0.10255230963230133
			],
			"translation":[
				0,
				1.7552883625030518,
				0
			]
		},
		{
			"mesh":5,
			"name":"Cylinder.006",
			"translation":[
				0,
				2.367522716522217,
				0
			]
		}
	],
	"materials":[
		{
			"doubleSided":true,
			"name":"Fontanna",
			"pbrMetallicRoughness":{
				"baseColorFactor":[
					0.36909013986587524,
					0.10015405714511871,
					0.05423923581838608,
					1
				],
				"metallicFactor":0.7772727012634277,
				"roughnessFactor":0.5181818008422852
			}
		},
		{
			"doubleSided":true,
			"name":"Fontanna",
			"pbrMetallicRoughness":{
				"baseColorFactor":[
					0.36909013986587524,
					0.10015405714511871,
					0.05423923581838608,
					1
				],
				"metallicFactor":0.7772727012634277,
				"roughnessFactor":0.5181818008422852
			}
		}
	],
	"meshes":[
		{
			"name":"Circle.001",
			"primitives":[
				{
					"attributes":{
						"POSITION":0,
						"NORMAL":1,
						"TEXCOORD_0":2
					},
					"indices":3,
					"material":0
				}
			]
		},
		{
			"name":"Circle.003",
			"primitives":[
				{
					"attributes":{
						"POSITION":4,
						"NORMAL":5,
						"TEXCOORD_0":6
					},
					"indices":7,
					"material":0
				}
			]
		},
		{
			"name":"Circle.002",
			"primitives":[
				{
					"attributes":{
						"POSITION":8,
						"NORMAL":9,
						"TEXCOORD_0":10
					},
					"indices":7,
					"material":0
				}
			]
		},
		{
			"name":"Cylinder.004",
			"primitives":[
				{
					"attributes":{
						"POSITION":11,
						"NORMAL":12,
						"TEXCOORD_0":13
					},
					"indices":14,
					"material":1
				}
			]
		},
		{
			"name":"Cylinder.005",
			"primitives":[
				{
					"attributes":{
						"POSITION":15,
						"NORMAL":16,
						"TEXCOORD_0":17
					},
					"indices":14,
					"material":1
				}
			]
		},
		{
			"name":"Cylinder.006",
			"primitives":[
				{
					"attributes":{
						"POSITION":18,
						"NORMAL":19,
						"TEXCOORD_0":20
					},
					"indices":21,
					"material":1
				}
			]
		}
	],
	"accessors":[
		{
			"bufferView":0,
			"componentType":5126,
			"count":1831,
			"max":[
				1.6037018299102783,
				0.6115806698799133,
				1.6037018299102783
			],
			"min":[
				-1.6037018299102783,
				0,
				-1.6037018299102783
			],
			"type":"VEC3"
		},
		{
			"bufferView":1,
			"componentType":5126,
			"count":1831,
			"type":"VEC3"
		},
		{
			"bufferView":2,
			"componentType":5126,
			"count":1831,
			"type":"VEC2"
		},
		{
			"bufferView":3,
			"componentType":5123,
			"count":3936,
			"type":"SCALAR"
		},
		{
			"bufferView":4,
			"componentType":5126,
			"count":2227,
			"max":[
				0.8018509149551392,
				0.30579033493995667,
				0.8018509149551392
			],
			"min":[
				-0.8018509149551392,
				-0.14975926280021667,
				-0.8018509149551392
			],
			"type":"VEC3"
		},
		{
			"bufferView":5,
			"componentType":5126,
			"count":2227,
			"type":"VEC3"
		},
		{
			"bufferView":6,
			"componentType":5126,
			"count":2227,
			"type":"VEC2"
		},
		{
			"bufferView":7,
			"componentType":5123,
			"count":5664,
			"type":"SCALAR"
		},
		{
			"bufferView":8,
			"componentType":5126,
			"count":2227,
			"max":[
				0.8018509149551392,
				0.30579033493995667,
				0.8018509149551392
			],
			"min":[
				-0.8018509149551392,
				-0.14975926280021667,
				-0.8018509149551392
			],
			"type":"VEC3"
		},
		{
			"bufferView":9,
			"componentType":5126,
			"count":2227,
			"type":"VEC3"
		},
		{
			"bufferView":10,
			"componentType":5126,
			"count":2227,
			"type":"VEC2"
		},
		{
			"bufferView":11,
			"componentType":5126,
			"count":224,
			"max":[
				1,
				1,
				1
			],
			"min":[
				-1,
				-1,
				-1
			],
			"type":"VEC3"
		},
		{
			"bufferView":12,
			"componentType":5126,
			"count":224,
			"type":"VEC3"
		},
		{
			"bufferView":13,
			"componentType":5126,
			"count":224,
			"type":"VEC2"
		},
		{
			"bufferView":14,
			"componentType":5123,
			"count":372,
			"type":"SCALAR"
		},
		{
			"bufferView":15,
			"componentType":5126,
			"count":224,
			"max":[
				1,
				1,
				1
			],
			"min":[
				-1,
				-1,
				-1
			],
			"type":"VEC3"
		},
		{
			"bufferView":16,
			"componentType":5126,
			"count":224,
			"type":"VEC3"
		},
		{
			"bufferView":17,
			"componentType":5126,
			"count":224,
			"type":"VEC2"
		},
		{
			"bufferView":18,
			"componentType":5126,
			"count":289,
			"max":[
				0.06938619911670685,
				0.3044207990169525,
				0.06938619911670685
			],
			"min":[
				-0.06938619911670685,
				-0.14707498252391815,
				-0.06938619911670685
			],
			"type":"VEC3"
		},
		{
			"bufferView":19,
			"componentType":5126,
			"count":289,
			"type":"VEC3"
		},
		{
			"bufferView":20,
			"componentType":5126,
			"count":289,
			"type":"VEC2"
		},
		{
			"bufferView":21,
			"componentType":5123,
			"count":612,
			"type":"SCALAR"
		}
	],
	"bufferViews":[
		{
			"buffer":0,
			"byteLength":21972,
			"byteOffset":0,
			"target":34962
		},
		{
			"buffer":0,
			"byteLength":21972,
			"byteOffset":21972,
			"target":34962
		},
		{
			"buffer":0,
			"byteLength":14648,
			"byteOffset":43944,
			"target":34962
		},
		{
			"buffer":0,
			"byteLength":7872,
			"byteOffset":58592,
			"target":34963
		},
		{
			"buffer":0,
			"byteLength":26724,
			"byteOffset":66464,
			"target":34962
		},
		{
			"buffer":0,
			"byteLength":26724,
			"byteOffset":93188,
			"target":34962
		},
		{
			"buffer":0,
			"byteLength":17816,
			"byteOffset":119912,
			"target":34962
		},
		{
			"buffer":0,
			"byteLength":11328,
			"byteOffset":137728,
			"target":34963
		},
		{
			"buffer":0,
			"byteLength":26724,
			"byteOffset":149056,
			"target":34962
		},
		{
			"buffer":0,
			"byteLength":26724,
			"byteOffset":175780,
			"target":34962
		},
		{
			"buffer":0,
			"byteLength":17816,
			"byteOffset":202504,
			"target":34962
		},
		{
			"buffer":0,
			"byteLength":2688,
			"byteOffset":220320,
			"target":34962
		},
		{
			"buffer":0,
			"byteLength":2688,
			"byteOffset":223008,
			"target":34962
		},
		{
			"buffer":0,
			"byteLength":1792,
			"byteOffset":225696,
			"target":34962
		},
		{
			"buffer":0,
			"byteLength":744,
			"byteOffset":227488,
			"target":34963
		},
		{
			"buffer":0,
			"byteLength":2688,
			"byteOffset":228232,
			"target":34962
		},
		{
			"buffer":0,
			"byteLength":2688,
			"byteOffset":230920,
			"target":34962
		},
		{
			"buffer":0,
			"byteLength":1792,
			"byteOffset":233608,
			"target":34962
		},
		{
			"buffer":0,
			"byteLength":3468,
			"byteOffset":235400,
			"target":34962
		},
		{
			"buffer":0,
			"byteLength":3468,
			"byteOffset":238868,
			"target":34962
		},
		{
			"buffer":0,
			"byteLength":2312,
			"byteOffset":242336,
			"target":34962
		},
		{
			"buffer":0,
			"byteLength":1224,
			"byteOffset":244648,
			"target":34963
		}
	],
	"buffers":[
		{
			"byteLength":245872,
			"uri":"mdl_poland_fountain.bin"
		}
	]
}
