{
	"asset":{
		"generator":"Khronos glTF Blender I/O v4.1.62",
		"version":"2.0"
	},
	"extensionsUsed":[
		"KHR_materials_specular"
	],
	"scene":0,
	"scenes":[
		{
			"name":"Scene",
			"nodes":[
				2
			]
		}
	],
	"nodes":[
		{
			"mesh":0,
			"name":"Object_2"
		},
		{
			"children":[
				0
			],
			"name":"EiffelTowerLowPoly.OBJ.cleaner.gles"
		},
		{
			"children":[
				1
			],
			"name":"Sketchfab_model",
			"rotation":[
				-0.70710688829422,
				0,
				0,
				0.7071066498756409
			]
		}
	],
	"materials":[
		{
			"doubleSided":true,
			"extensions":{
				"KHR_materials_specular":{
					"specularFactor":0
				}
			},
			"name":"defaultMat",
			"pbrMetallicRoughness":{
				"baseColorTexture":{
					"index":0
				},
				"metallicFactor":0,
				"roughnessFactor":0.8090909123420715
			}
		}
	],
	"meshes":[
		{
			"name":"Object_0.001",
			"primitives":[
				{
					"attributes":{
						"POSITION":0,
						"NORMAL":1,
						"TEXCOORD_0":2,
						"COLOR_0":3
					},
					"indices":4,
					"material":0
				}
			]
		}
	],
	"textures":[
		{
			"sampler":0,
			"source":0
		}
	],
	"images":[
		{
			"mimeType":"image/png",
			"name":"tx_hub_eiffeltowerColor",
			"uri":"tx_hub_eiffeltowerColor.png"
		}
	],
	"accessors":[
		{
			"bufferView":0,
			"componentType":5126,
			"count":1551,
			"max":[
				0.33122026920318604,
				0.33122026920318604,
				1.3166636228561401
			],
			"min":[
				-0.33122026920318604,
				-0.33122026920318604,
				-0.2515048086643219
			],
			"type":"VEC3"
		},
		{
			"bufferView":1,
			"componentType":5126,
			"count":1551,
			"type":"VEC3"
		},
		{
			"bufferView":2,
			"componentType":5126,
			"count":1551,
			"type":"VEC2"
		},
		{
			"bufferView":3,
			"componentType":5126,
			"count":1551,
			"type":"VEC3"
		},
		{
			"bufferView":4,
			"componentType":5123,
			"count":3612,
			"type":"SCALAR"
		}
	],
	"bufferViews":[
		{
			"buffer":0,
			"byteLength":18612,
			"byteOffset":0,
			"target":34962
		},
		{
			"buffer":0,
			"byteLength":18612,
			"byteOffset":18612,
			"target":34962
		},
		{
			"buffer":0,
			"byteLength":12408,
			"byteOffset":37224,
			"target":34962
		},
		{
			"buffer":0,
			"byteLength":18612,
			"byteOffset":49632,
			"target":34962
		},
		{
			"buffer":0,
			"byteLength":7224,
			"byteOffset":68244,
			"target":34963
		}
	],
	"samplers":[
		{
			"magFilter":9729,
			"minFilter":9987
		}
	],
	"buffers":[
		{
			"byteLength":75468,
			"uri":"mdl_hub_eiffeltower.bin"
		}
	]
}
