{
	"asset":{
		"generator":"Khronos glTF Blender I/O v4.2.57",
		"version":"2.0"
	},
	"extensionsUsed":[
		"KHR_materials_specular",
		"KHR_materials_ior"
	],
	"scene":0,
	"scenes":[
		{
			"name":"Scene",
			"nodes":[
				0
			]
		}
	],
	"nodes":[
		{
			"mesh":0,
			"name":"Cube"
		}
	],
	"materials":[
		{
			"doubleSided":true,
			"extensions":{
				"KHR_materials_specular":{
					"specularFactor":0
				},
				"KHR_materials_ior":{
					"ior":1
				}
			},
			"name":"Trim.001",
			"pbrMetallicRoughness":{
				"baseColorTexture":{
					"index":0
				},
				"metallicFactor":0,
				"roughnessFactor":0.8181818127632141
			}
		},
		{
			"doubleSided":true,
			"extensions":{
				"KHR_materials_specular":{
					"specularFactor":0
				}
			},
			"name":"Brick.001",
			"normalTexture":{
				"index":1,
				"scale":1.5
			},
			"pbrMetallicRoughness":{
				"baseColorTexture":{
					"index":2
				},
				"metallicFactor":0,
				"roughnessFactor":0.8227272629737854
			}
		}
	],
	"meshes":[
		{
			"name":"Cube.009",
			"primitives":[
				{
					"attributes":{
						"POSITION":0,
						"NORMAL":1,
						"TEXCOORD_0":2
					},
					"indices":3,
					"material":0
				},
				{
					"attributes":{
						"POSITION":4,
						"NORMAL":5,
						"TEXCOORD_0":6
					},
					"indices":7,
					"material":1
				}
			]
		}
	],
	"textures":[
		{
			"sampler":0,
			"source":0
		},
		{
			"sampler":0,
			"source":1
		},
		{
			"sampler":0,
			"source":2
		}
	],
	"images":[
		{
			"mimeType":"image/png",
			"name":"tx_hub_TrimWoodColor",
			"uri":"tx_hub_TrimWoodColor.png"
		},
		{
			"mimeType":"image/jpeg",
			"name":"tx_hub_BricksNormal",
			"uri":"tx_hub_BricksNormal.jpg"
		},
		{
			"mimeType":"image/jpeg",
			"name":"tx_hub_BrickColor",
			"uri":"tx_hub_BrickColor.jpg"
		}
	],
	"accessors":[
		{
			"bufferView":0,
			"componentType":5126,
			"count":64,
			"max":[
				-5.804430961608887,
				4.461674690246582,
				5.358524322509766
			],
			"min":[
				-6.114348411560059,
				-0.08995366096496582,
				2.8158984184265137
			],
			"type":"VEC3"
		},
		{
			"bufferView":1,
			"componentType":5126,
			"count":64,
			"type":"VEC3"
		},
		{
			"bufferView":2,
			"componentType":5126,
			"count":64,
			"type":"VEC2"
		},
		{
			"bufferView":3,
			"componentType":5123,
			"count":132,
			"type":"SCALAR"
		},
		{
			"bufferView":4,
			"componentType":5126,
			"count":145,
			"max":[
				-5.924279689788818,
				10.313766479492188,
				5.902029991149902
			],
			"min":[
				-6.103745937347412,
				-0.04121971130371094,
				-5.979069709777832
			],
			"type":"VEC3"
		},
		{
			"bufferView":5,
			"componentType":5126,
			"count":145,
			"type":"VEC3"
		},
		{
			"bufferView":6,
			"componentType":5126,
			"count":145,
			"type":"VEC2"
		},
		{
			"bufferView":7,
			"componentType":5123,
			"count":336,
			"type":"SCALAR"
		}
	],
	"bufferViews":[
		{
			"buffer":0,
			"byteLength":768,
			"byteOffset":0,
			"target":34962
		},
		{
			"buffer":0,
			"byteLength":768,
			"byteOffset":768,
			"target":34962
		},
		{
			"buffer":0,
			"byteLength":512,
			"byteOffset":1536,
			"target":34962
		},
		{
			"buffer":0,
			"byteLength":264,
			"byteOffset":2048,
			"target":34963
		},
		{
			"buffer":0,
			"byteLength":1740,
			"byteOffset":2312,
			"target":34962
		},
		{
			"buffer":0,
			"byteLength":1740,
			"byteOffset":4052,
			"target":34962
		},
		{
			"buffer":0,
			"byteLength":1160,
			"byteOffset":5792,
			"target":34962
		},
		{
			"buffer":0,
			"byteLength":672,
			"byteOffset":6952,
			"target":34963
		}
	],
	"samplers":[
		{
			"magFilter":9729,
			"minFilter":9987
		}
	],
	"buffers":[
		{
			"byteLength":7624,
			"uri":"mdl_brush_hubbrick.bin"
		}
	]
}
