{
	"asset":{
		"generator":"Khronos glTF Blender I/O v4.3.47",
		"version":"2.0"
	},
	"extensionsUsed":[
		"KHR_materials_specular"
	],
	"scene":0,
	"scenes":[
		{
			"name":"Scene",
			"nodes":[
				0
			]
		}
	],
	"nodes":[
		{
			"mesh":0,
			"name":"Sticker.Spain"
		}
	],
	"materials":[
		{
			"alphaMode":"BLEND",
			"doubleSided":true,
			"name":"Sticker.Front.Vol2.004",
			"pbrMetallicRoughness":{
				"baseColorTexture":{
					"index":0
				},
				"metallicFactor":0,
				"roughnessFactor":0.5
			}
		},
		{
			"alphaMode":"BLEND",
			"doubleSided":true,
			"extensions":{
				"KHR_materials_specular":{
					"specularFactor":0
				}
			},
			"name":"Sticker.Back.Vol2.004",
			"pbrMetallicRoughness":{
				"baseColorTexture":{
					"index":1
				},
				"metallicFactor":0
			}
		}
	],
	"meshes":[
		{
			"name":"Plane.009",
			"primitives":[
				{
					"attributes":{
						"POSITION":0,
						"NORMAL":1,
						"TEXCOORD_0":2
					},
					"indices":3,
					"material":0
				},
				{
					"attributes":{
						"POSITION":4,
						"NORMAL":5,
						"TEXCOORD_0":6
					},
					"indices":7,
					"material":1
				}
			]
		}
	],
	"textures":[
		{
			"sampler":0,
			"source":0
		},
		{
			"sampler":0,
			"source":1
		}
	],
	"images":[
		{
			"mimeType":"image/png",
			"name":"tx_hub_travel_buttons",
			"uri":"tx_hub_travel_buttons.png"
		},
		{
			"mimeType":"image/png",
			"name":"tx_hub_travel_buttons_back",
			"uri":"tx_hub_travel_buttons_back.png"
		}
	],
	"accessors":[
		{
			"bufferView":0,
			"componentType":5126,
			"count":9,
			"max":[
				0.02502203918993473,
				0.02500050701200962,
				1.870626391564656e-07
			],
			"min":[
				-0.025000007823109627,
				-0.024999506771564484,
				-1.865162460035208e-07
			],
			"type":"VEC3"
		},
		{
			"bufferView":1,
			"componentType":5126,
			"count":9,
			"type":"VEC3"
		},
		{
			"bufferView":2,
			"componentType":5126,
			"count":9,
			"type":"VEC2"
		},
		{
			"bufferView":3,
			"componentType":5123,
			"count":21,
			"type":"SCALAR"
		},
		{
			"bufferView":4,
			"componentType":5126,
			"count":9,
			"max":[
				0.02502203918993473,
				0.02500050701200962,
				2.2020867618266493e-07
			],
			"min":[
				-0.025000007823109627,
				-0.024999506771564484,
				-1.676257852523122e-07
			],
			"type":"VEC3"
		},
		{
			"bufferView":5,
			"componentType":5126,
			"count":9,
			"type":"VEC3"
		},
		{
			"bufferView":6,
			"componentType":5126,
			"count":9,
			"type":"VEC2"
		},
		{
			"bufferView":7,
			"componentType":5123,
			"count":21,
			"type":"SCALAR"
		}
	],
	"bufferViews":[
		{
			"buffer":0,
			"byteLength":108,
			"byteOffset":0,
			"target":34962
		},
		{
			"buffer":0,
			"byteLength":108,
			"byteOffset":108,
			"target":34962
		},
		{
			"buffer":0,
			"byteLength":72,
			"byteOffset":216,
			"target":34962
		},
		{
			"buffer":0,
			"byteLength":42,
			"byteOffset":288,
			"target":34963
		},
		{
			"buffer":0,
			"byteLength":108,
			"byteOffset":332,
			"target":34962
		},
		{
			"buffer":0,
			"byteLength":108,
			"byteOffset":440,
			"target":34962
		},
		{
			"buffer":0,
			"byteLength":72,
			"byteOffset":548,
			"target":34962
		},
		{
			"buffer":0,
			"byteLength":42,
			"byteOffset":620,
			"target":34963
		}
	],
	"samplers":[
		{
			"magFilter":9729,
			"minFilter":9987
		}
	],
	"buffers":[
		{
			"byteLength":664,
			"uri":"mdl_bonus_sticker_spain.bin"
		}
	]
}
