{
	"asset":{
		"generator":"Khronos glTF Blender I/O v4.1.62",
		"version":"2.0"
	},
	"extensionsUsed":[
		"KHR_materials_specular"
	],
	"scene":0,
	"scenes":[
		{
			"name":"Scene",
			"nodes":[
				0,
				1
			]
		}
	],
	"nodes":[
		{
			"mesh":0,
			"name":"Cylinder.002",
			"scale":[
				0.021931590512394905,
				0.0020275760907679796,
				0.021931590512394905
			],
			"translation":[
				0.0026021813973784447,
				-0.1276596039533615,
				0
			]
		},
		{
			"mesh":1,
			"name":"Cube",
			"scale":[
				0.22733928263187408,
				0.01732921414077282,
				0.22733928263187408
			],
			"translation":[
				0.0012314370833337307,
				0,
				0
			]
		}
	],
	"materials":[
		{
			"doubleSided":true,
			"name":"Material.118",
			"pbrMetallicRoughness":{
				"baseColorFactor":[
					0,
					0,
					0,
					1
				],
				"metallicFactor":0,
				"roughnessFactor":0.5
			}
		},
		{
			"doubleSided":true,
			"extensions":{
				"KHR_materials_specular":{
					"specularFactor":0
				}
			},
			"name":"Material.119",
			"normalTexture":{
				"index":0
			},
			"pbrMetallicRoughness":{
				"baseColorTexture":{
					"index":1
				},
				"metallicFactor":0,
				"roughnessFactor":0.8272727131843567
			}
		},
		{
			"doubleSided":true,
			"extensions":{
				"KHR_materials_specular":{
					"specularFactor":0
				}
			},
			"name":"Material.120",
			"pbrMetallicRoughness":{
				"baseColorTexture":{
					"index":2
				},
				"metallicFactor":0,
				"roughnessFactor":0.8136363625526428
			}
		}
	],
	"meshes":[
		{
			"name":"Cylinder.033",
			"primitives":[
				{
					"attributes":{
						"POSITION":0,
						"NORMAL":1,
						"TEXCOORD_0":2
					},
					"indices":3,
					"material":0
				}
			]
		},
		{
			"name":"Cube.007",
			"primitives":[
				{
					"attributes":{
						"POSITION":4,
						"NORMAL":5,
						"TEXCOORD_0":6
					},
					"indices":7,
					"material":1
				},
				{
					"attributes":{
						"POSITION":8,
						"NORMAL":9,
						"TEXCOORD_0":10
					},
					"indices":11,
					"material":2
				}
			]
		}
	],
	"textures":[
		{
			"sampler":0,
			"source":0
		},
		{
			"sampler":0,
			"source":1
		},
		{
			"sampler":0,
			"source":2
		}
	],
	"images":[
		{
			"mimeType":"image/png",
			"name":"tx_hub_roundsquareclockNormal",
			"uri":"tx_hub_roundsquareclockNormal.png"
		},
		{
			"mimeType":"image/png",
			"name":"tx_hub_roundsquareclockColor",
			"uri":"tx_hub_roundsquareclockColor.png"
		},
		{
			"mimeType":"image/png",
			"name":"tx_hub_roundsquareclockface",
			"uri":"tx_hub_roundsquareclockface.png"
		}
	],
	"accessors":[
		{
			"bufferView":0,
			"componentType":5126,
			"count":136,
			"max":[
				0.5098236203193665,
				72.96031951904297,
				0.5098236203193665
			],
			"min":[
				-0.5098236203193665,
				69.72095489501953,
				-0.5098236203193665
			],
			"type":"VEC3"
		},
		{
			"bufferView":1,
			"componentType":5126,
			"count":136,
			"type":"VEC3"
		},
		{
			"bufferView":2,
			"componentType":5126,
			"count":136,
			"type":"VEC2"
		},
		{
			"bufferView":3,
			"componentType":5123,
			"count":372,
			"type":"SCALAR"
		},
		{
			"bufferView":4,
			"componentType":5126,
			"count":257,
			"max":[
				1,
				1.4167687892913818,
				1
			],
			"min":[
				-1,
				-1,
				-1
			],
			"type":"VEC3"
		},
		{
			"bufferView":5,
			"componentType":5126,
			"count":257,
			"type":"VEC3"
		},
		{
			"bufferView":6,
			"componentType":5126,
			"count":257,
			"type":"VEC2"
		},
		{
			"bufferView":7,
			"componentType":5123,
			"count":621,
			"type":"SCALAR"
		},
		{
			"bufferView":8,
			"componentType":5126,
			"count":19,
			"max":[
				0.9259431958198547,
				0.8828601241111755,
				0.914416491985321
			],
			"min":[
				-0.9016779661178589,
				0.8828601241111755,
				-0.9132046699523926
			],
			"type":"VEC3"
		},
		{
			"bufferView":9,
			"componentType":5126,
			"count":19,
			"type":"VEC3"
		},
		{
			"bufferView":10,
			"componentType":5126,
			"count":19,
			"type":"VEC2"
		},
		{
			"bufferView":11,
			"componentType":5123,
			"count":51,
			"type":"SCALAR"
		}
	],
	"bufferViews":[
		{
			"buffer":0,
			"byteLength":1632,
			"byteOffset":0,
			"target":34962
		},
		{
			"buffer":0,
			"byteLength":1632,
			"byteOffset":1632,
			"target":34962
		},
		{
			"buffer":0,
			"byteLength":1088,
			"byteOffset":3264,
			"target":34962
		},
		{
			"buffer":0,
			"byteLength":744,
			"byteOffset":4352,
			"target":34963
		},
		{
			"buffer":0,
			"byteLength":3084,
			"byteOffset":5096,
			"target":34962
		},
		{
			"buffer":0,
			"byteLength":3084,
			"byteOffset":8180,
			"target":34962
		},
		{
			"buffer":0,
			"byteLength":2056,
			"byteOffset":11264,
			"target":34962
		},
		{
			"buffer":0,
			"byteLength":1242,
			"byteOffset":13320,
			"target":34963
		},
		{
			"buffer":0,
			"byteLength":228,
			"byteOffset":14564,
			"target":34962
		},
		{
			"buffer":0,
			"byteLength":228,
			"byteOffset":14792,
			"target":34962
		},
		{
			"buffer":0,
			"byteLength":152,
			"byteOffset":15020,
			"target":34962
		},
		{
			"buffer":0,
			"byteLength":102,
			"byteOffset":15172,
			"target":34963
		}
	],
	"samplers":[
		{
			"magFilter":9729,
			"minFilter":9987
		}
	],
	"buffers":[
		{
			"byteLength":15276,
			"uri":"mdl_hub_roundsquareclock.bin"
		}
	]
}
