{
	"asset":{
		"generator":"Khronos glTF Blender I/O v4.3.47",
		"version":"2.0"
	},
	"extensionsUsed":[
		"KHR_materials_specular"
	],
	"scene":0,
	"scenes":[
		{
			"name":"Scene",
			"nodes":[
				0
			]
		}
	],
	"nodes":[
		{
			"mesh":0,
			"name":"Sticker.Canada"
		}
	],
	"materials":[
		{
			"alphaMode":"BLEND",
			"doubleSided":true,
			"name":"Sticker.Front.Vol2",
			"pbrMetallicRoughness":{
				"baseColorTexture":{
					"index":0
				},
				"metallicFactor":0,
				"roughnessFactor":0.5
			}
		},
		{
			"alphaMode":"BLEND",
			"doubleSided":true,
			"extensions":{
				"KHR_materials_specular":{
					"specularFactor":0
				}
			},
			"name":"Sticker.Back.Vol2",
			"pbrMetallicRoughness":{
				"baseColorTexture":{
					"index":1
				},
				"metallicFactor":0
			}
		}
	],
	"meshes":[
		{
			"name":"Plane.005",
			"primitives":[
				{
					"attributes":{
						"POSITION":0,
						"NORMAL":1,
						"TEXCOORD_0":2
					},
					"indices":3,
					"material":0
				},
				{
					"attributes":{
						"POSITION":4,
						"NORMAL":5,
						"TEXCOORD_0":6
					},
					"indices":7,
					"material":1
				}
			]
		}
	],
	"textures":[
		{
			"sampler":0,
			"source":0
		},
		{
			"sampler":0,
			"source":1
		}
	],
	"images":[
		{
			"mimeType":"image/png",
			"name":"tx_hub_travel_buttons",
			"uri":"tx_hub_travel_buttons.png"
		},
		{
			"mimeType":"image/png",
			"name":"tx_hub_travel_buttons_back",
			"uri":"tx_hub_travel_buttons_back.png"
		}
	],
	"accessors":[
		{
			"bufferView":0,
			"componentType":5126,
			"count":18,
			"max":[
				0.05000000819563866,
				0.05000099912285805,
				8.145556193994707e-07
			],
			"min":[
				-0.05000000074505806,
				-0.04411737620830536,
				-3.7193967727944255e-07
			],
			"type":"VEC3"
		},
		{
			"bufferView":1,
			"componentType":5126,
			"count":18,
			"type":"VEC3"
		},
		{
			"bufferView":2,
			"componentType":5126,
			"count":18,
			"type":"VEC2"
		},
		{
			"bufferView":3,
			"componentType":5123,
			"count":33,
			"type":"SCALAR"
		},
		{
			"bufferView":4,
			"componentType":5126,
			"count":19,
			"max":[
				0.05000000819563866,
				0.05000099912285805,
				3.066649469474214e-06
			],
			"min":[
				-0.05000000074505806,
				-0.04411737993359566,
				-3.300857542853919e-07
			],
			"type":"VEC3"
		},
		{
			"bufferView":5,
			"componentType":5126,
			"count":19,
			"type":"VEC3"
		},
		{
			"bufferView":6,
			"componentType":5126,
			"count":19,
			"type":"VEC2"
		},
		{
			"bufferView":7,
			"componentType":5123,
			"count":36,
			"type":"SCALAR"
		}
	],
	"bufferViews":[
		{
			"buffer":0,
			"byteLength":216,
			"byteOffset":0,
			"target":34962
		},
		{
			"buffer":0,
			"byteLength":216,
			"byteOffset":216,
			"target":34962
		},
		{
			"buffer":0,
			"byteLength":144,
			"byteOffset":432,
			"target":34962
		},
		{
			"buffer":0,
			"byteLength":66,
			"byteOffset":576,
			"target":34963
		},
		{
			"buffer":0,
			"byteLength":228,
			"byteOffset":644,
			"target":34962
		},
		{
			"buffer":0,
			"byteLength":228,
			"byteOffset":872,
			"target":34962
		},
		{
			"buffer":0,
			"byteLength":152,
			"byteOffset":1100,
			"target":34962
		},
		{
			"buffer":0,
			"byteLength":72,
			"byteOffset":1252,
			"target":34963
		}
	],
	"samplers":[
		{
			"magFilter":9729,
			"minFilter":9987
		}
	],
	"buffers":[
		{
			"byteLength":1324,
			"uri":"mdl_bonus_sticker_canada.bin"
		}
	]
}
