{
	"asset":{
		"generator":"Khronos glTF Blender I/O v4.1.62",
		"version":"2.0"
	},
	"scene":0,
	"scenes":[
		{
			"name":"Scene",
			"nodes":[
				4
			]
		}
	],
	"nodes":[
		{
			"mesh":0,
			"name":"Lotus.000__0"
		},
		{
			"children":[
				0
			],
			"name":"Lotus.000"
		},
		{
			"children":[
				1
			],
			"name":"RootNode"
		},
		{
			"children":[
				2
			],
			"name":"73e0f1dbf3d24f59bd51b09e37e31e13.fbx",
			"rotation":[
				0.70710688829422,
				0,
				0,
				0.7071066498756409
			]
		},
		{
			"children":[
				3
			],
			"name":"Sketchfab_model",
			"rotation":[
				-0.70710688829422,
				0,
				0,
				0.7071066498756409
			]
		}
	],
	"materials":[
		{
			"doubleSided":true,
			"name":"Scene_-_Root.003",
			"pbrMetallicRoughness":{
				"baseColorTexture":{
					"index":0
				},
				"metallicFactor":0,
				"roughnessFactor":0.3492759168148041
			}
		}
	],
	"meshes":[
		{
			"name":"Lotus.000__0.003",
			"primitives":[
				{
					"attributes":{
						"POSITION":0,
						"NORMAL":1,
						"TEXCOORD_0":2,
						"TEXCOORD_1":3,
						"TEXCOORD_2":4,
						"TEXCOORD_3":5,
						"TEXCOORD_4":6,
						"TEXCOORD_5":7,
						"TEXCOORD_6":8,
						"TEXCOORD_7":9
					},
					"indices":10,
					"material":0
				}
			]
		}
	],
	"textures":[
		{
			"sampler":0,
			"source":0
		}
	],
	"images":[
		{
			"mimeType":"image/png",
			"name":"tx_hub_lotus",
			"uri":"tx_hub_lotus.png"
		}
	],
	"accessors":[
		{
			"bufferView":0,
			"componentType":5126,
			"count":1648,
			"max":[
				0.2690570056438446,
				0.1070023700594902,
				0.273714154958725
			],
			"min":[
				-0.27534469962120056,
				-0.05042380094528198,
				-0.2715034782886505
			],
			"type":"VEC3"
		},
		{
			"bufferView":1,
			"componentType":5126,
			"count":1648,
			"type":"VEC3"
		},
		{
			"bufferView":2,
			"componentType":5126,
			"count":1648,
			"type":"VEC2"
		},
		{
			"bufferView":3,
			"componentType":5126,
			"count":1648,
			"type":"VEC2"
		},
		{
			"bufferView":4,
			"componentType":5126,
			"count":1648,
			"type":"VEC2"
		},
		{
			"bufferView":5,
			"componentType":5126,
			"count":1648,
			"type":"VEC2"
		},
		{
			"bufferView":6,
			"componentType":5126,
			"count":1648,
			"type":"VEC2"
		},
		{
			"bufferView":7,
			"componentType":5126,
			"count":1648,
			"type":"VEC2"
		},
		{
			"bufferView":8,
			"componentType":5126,
			"count":1648,
			"type":"VEC2"
		},
		{
			"bufferView":9,
			"componentType":5126,
			"count":1648,
			"type":"VEC2"
		},
		{
			"bufferView":10,
			"componentType":5123,
			"count":2118,
			"type":"SCALAR"
		}
	],
	"bufferViews":[
		{
			"buffer":0,
			"byteLength":19776,
			"byteOffset":0,
			"target":34962
		},
		{
			"buffer":0,
			"byteLength":19776,
			"byteOffset":19776,
			"target":34962
		},
		{
			"buffer":0,
			"byteLength":13184,
			"byteOffset":39552,
			"target":34962
		},
		{
			"buffer":0,
			"byteLength":13184,
			"byteOffset":52736,
			"target":34962
		},
		{
			"buffer":0,
			"byteLength":13184,
			"byteOffset":65920,
			"target":34962
		},
		{
			"buffer":0,
			"byteLength":13184,
			"byteOffset":79104,
			"target":34962
		},
		{
			"buffer":0,
			"byteLength":13184,
			"byteOffset":92288,
			"target":34962
		},
		{
			"buffer":0,
			"byteLength":13184,
			"byteOffset":105472,
			"target":34962
		},
		{
			"buffer":0,
			"byteLength":13184,
			"byteOffset":118656,
			"target":34962
		},
		{
			"buffer":0,
			"byteLength":13184,
			"byteOffset":131840,
			"target":34962
		},
		{
			"buffer":0,
			"byteLength":4236,
			"byteOffset":145024,
			"target":34963
		}
	],
	"samplers":[
		{
			"magFilter":9729,
			"minFilter":9987
		}
	],
	"buffers":[
		{
			"byteLength":149260,
			"uri":"mdl_hub_lotus.bin"
		}
	]
}
