{
	"asset":{
		"generator":"Khronos glTF Blender I/O v4.0.44",
		"version":"2.0"
	},
	"scene":0,
	"scenes":[
		{
			"name":"Scene",
			"nodes":[
				0,
				1
			]
		}
	],
	"nodes":[
		{
			"mesh":0,
			"name":"Cylinder.012",
			"scale":[
				0.06404030323028564,
				0.025139814242720604,
				0.06404030323028564
			],
			"translation":[
				0,
				0.025032341480255127,
				0
			]
		},
		{
			"mesh":1,
			"name":"Cylinder.013",
			"scale":[
				0.0500141978263855,
				0.0500141978263855,
				0.0500141978263855
			],
			"translation":[
				0,
				1.7913234233856201,
				0
			]
		}
	],
	"materials":[
		{
			"doubleSided":true,
			"name":"kAWIARNIA",
			"pbrMetallicRoughness":{
				"baseColorTexture":{
					"index":0
				},
				"metallicFactor":0,
				"roughnessFactor":0.800000011920929
			}
		},
		{
			"doubleSided":true,
			"name":"kAWIARNIA",
			"pbrMetallicRoughness":{
				"baseColorTexture":{
					"index":1
				},
				"metallicFactor":0,
				"roughnessFactor":0.800000011920929
			}
		}
	],
	"meshes":[
		{
			"name":"Cylinder.012",
			"primitives":[
				{
					"attributes":{
						"POSITION":0,
						"NORMAL":1,
						"TEXCOORD_0":2
					},
					"indices":3,
					"material":0
				}
			]
		},
		{
			"name":"Cylinder.013",
			"primitives":[
				{
					"attributes":{
						"POSITION":4,
						"NORMAL":5,
						"TEXCOORD_0":6
					},
					"indices":7,
					"material":1
				}
			]
		}
	],
	"textures":[
		{
			"sampler":0,
			"source":0
		},
		{
			"sampler":0,
			"source":0
		}
	],
	"images":[
		{
			"mimeType":"image/png",
			"name":"mdl_poland_flag",
			"uri":"mdl_poland_flag.png"
		}
	],
	"accessors":[
		{
			"bufferView":0,
			"componentType":5126,
			"count":121,
			"max":[
				2.734196186065674,
				70.80078887939453,
				2.734196186065674
			],
			"min":[
				-2.734196186065674,
				-1.0000001192092896,
				-2.734196186065674
			],
			"type":"VEC3"
		},
		{
			"bufferView":1,
			"componentType":5126,
			"count":121,
			"type":"VEC3"
		},
		{
			"bufferView":2,
			"componentType":5126,
			"count":121,
			"type":"VEC2"
		},
		{
			"bufferView":3,
			"componentType":5123,
			"count":192,
			"type":"SCALAR"
		},
		{
			"bufferView":4,
			"componentType":5126,
			"count":1552,
			"max":[
				19.23192024230957,
				0.593978226184845,
				19.23192024230957
			],
			"min":[
				-19.23192024230957,
				-7.98319149017334,
				-19.23192024230957
			],
			"type":"VEC3"
		},
		{
			"bufferView":5,
			"componentType":5126,
			"count":1552,
			"type":"VEC3"
		},
		{
			"bufferView":6,
			"componentType":5126,
			"count":1552,
			"type":"VEC2"
		},
		{
			"bufferView":7,
			"componentType":5123,
			"count":2496,
			"type":"SCALAR"
		}
	],
	"bufferViews":[
		{
			"buffer":0,
			"byteLength":1452,
			"byteOffset":0,
			"target":34962
		},
		{
			"buffer":0,
			"byteLength":1452,
			"byteOffset":1452,
			"target":34962
		},
		{
			"buffer":0,
			"byteLength":968,
			"byteOffset":2904,
			"target":34962
		},
		{
			"buffer":0,
			"byteLength":384,
			"byteOffset":3872,
			"target":34963
		},
		{
			"buffer":0,
			"byteLength":18624,
			"byteOffset":4256,
			"target":34962
		},
		{
			"buffer":0,
			"byteLength":18624,
			"byteOffset":22880,
			"target":34962
		},
		{
			"buffer":0,
			"byteLength":12416,
			"byteOffset":41504,
			"target":34962
		},
		{
			"buffer":0,
			"byteLength":4992,
			"byteOffset":53920,
			"target":34963
		}
	],
	"samplers":[
		{
			"magFilter":9728,
			"minFilter":9984
		}
	],
	"buffers":[
		{
			"byteLength":58912,
			"uri":"mdl_poland_umbrella.bin"
		}
	]
}
