{
	"asset":{
		"generator":"Khronos glTF Blender I/O v4.0.44",
		"version":"2.0"
	},
	"scene":0,
	"scenes":[
		{
			"name":"Scene",
			"nodes":[
				0,
				1,
				2,
				3
			]
		}
	],
	"nodes":[
		{
			"mesh":0,
			"name":"Cylinder.017"
		},
		{
			"mesh":1,
			"name":"Cylinder.018",
			"translation":[
				0,
				0.15885455906391144,
				0
			]
		},
		{
			"mesh":2,
			"name":"Cube.069",
			"rotation":[
				0.42815616726875305,
				0.10128018260002136,
				-0.8580621480941772,
				0.2648664712905884
			],
			"scale":[
				1.3915321826934814,
				1.3915321826934814,
				1.3915321826934814
			],
			"translation":[
				0.025359492748975754,
				0.07992548495531082,
				-0.007190421223640442
			]
		},
		{
			"mesh":3,
			"name":"Cylinder.024",
			"rotation":[
				-0.4184793531894684,
				-0.7145910859107971,
				0.42878493666648865,
				0.3610791862010956
			],
			"scale":[
				0.9222999215126038,
				0.9222999215126038,
				0.9223000407218933
			],
			"translation":[
				-0.03935931622982025,
				0.07272736728191376,
				-0.04202844947576523
			]
		}
	],
	"materials":[
		{
			"doubleSided":true,
			"name":"Bigos",
			"pbrMetallicRoughness":{
				"baseColorTexture":{
					"index":0
				},
				"metallicFactor":0,
				"roughnessFactor":0.8999999761581421
			}
		},
		{
			"doubleSided":true,
			"name":"Bigos",
			"pbrMetallicRoughness":{
				"baseColorTexture":{
					"index":1
				},
				"metallicFactor":0,
				"roughnessFactor":0.8999999761581421
			}
		}
	],
	"meshes":[
		{
			"name":"Cylinder.017",
			"primitives":[
				{
					"attributes":{
						"POSITION":0,
						"NORMAL":1,
						"TEXCOORD_0":2
					},
					"indices":3,
					"material":0
				}
			]
		},
		{
			"name":"Cylinder.018",
			"primitives":[
				{
					"attributes":{
						"POSITION":4,
						"NORMAL":5,
						"TEXCOORD_0":6
					},
					"indices":7,
					"material":1
				}
			]
		},
		{
			"name":"Cube.062",
			"primitives":[
				{
					"attributes":{
						"POSITION":8,
						"NORMAL":9,
						"TEXCOORD_0":10
					},
					"indices":11,
					"material":1
				}
			]
		},
		{
			"name":"Cylinder.019",
			"primitives":[
				{
					"attributes":{
						"POSITION":12,
						"NORMAL":13,
						"TEXCOORD_0":14
					},
					"indices":15,
					"material":1
				}
			]
		}
	],
	"textures":[
		{
			"sampler":0,
			"source":0
		},
		{
			"sampler":0,
			"source":0
		}
	],
	"images":[
		{
			"mimeType":"image/png",
			"name":"mdl_poland_bigos",
			"uri":"mdl_poland_bigos.png"
		}
	],
	"accessors":[
		{
			"bufferView":0,
			"componentType":5126,
			"count":236,
			"max":[
				0.30000001192092896,
				0.1584656834602356,
				0.30000001192092896
			],
			"min":[
				-0.30000001192092896,
				-0.15831784904003143,
				-0.30000001192092896
			],
			"type":"VEC3"
		},
		{
			"bufferView":1,
			"componentType":5126,
			"count":236,
			"type":"VEC3"
		},
		{
			"bufferView":2,
			"componentType":5126,
			"count":236,
			"type":"VEC2"
		},
		{
			"bufferView":3,
			"componentType":5123,
			"count":948,
			"type":"SCALAR"
		},
		{
			"bufferView":4,
			"componentType":5126,
			"count":160,
			"max":[
				0.2860146164894104,
				-0.05644023418426514,
				0.2900790870189667
			],
			"min":[
				-0.29468274116516113,
				-0.09287121146917343,
				-0.2896416187286377
			],
			"type":"VEC3"
		},
		{
			"bufferView":5,
			"componentType":5126,
			"count":160,
			"type":"VEC3"
		},
		{
			"bufferView":6,
			"componentType":5126,
			"count":160,
			"type":"VEC2"
		},
		{
			"bufferView":7,
			"componentType":5123,
			"count":240,
			"type":"SCALAR"
		},
		{
			"bufferView":8,
			"componentType":5126,
			"count":1508,
			"max":[
				0.1756480634212494,
				0.09812454879283905,
				0.1843443065881729
			],
			"min":[
				-0.16542872786521912,
				-0.1360931247472763,
				-0.16436980664730072
			],
			"type":"VEC3"
		},
		{
			"bufferView":9,
			"componentType":5126,
			"count":1508,
			"type":"VEC3"
		},
		{
			"bufferView":10,
			"componentType":5126,
			"count":1508,
			"type":"VEC2"
		},
		{
			"bufferView":11,
			"componentType":5123,
			"count":3132,
			"type":"SCALAR"
		},
		{
			"bufferView":12,
			"componentType":5126,
			"count":864,
			"max":[
				0.133858785033226,
				0.27685633301734924,
				0.2407139092683792
			],
			"min":[
				-0.15984317660331726,
				-0.3007511496543884,
				-0.34459683299064636
			],
			"type":"VEC3"
		},
		{
			"bufferView":13,
			"componentType":5126,
			"count":864,
			"type":"VEC3"
		},
		{
			"bufferView":14,
			"componentType":5126,
			"count":864,
			"type":"VEC2"
		},
		{
			"bufferView":15,
			"componentType":5123,
			"count":1512,
			"type":"SCALAR"
		}
	],
	"bufferViews":[
		{
			"buffer":0,
			"byteLength":2832,
			"byteOffset":0,
			"target":34962
		},
		{
			"buffer":0,
			"byteLength":2832,
			"byteOffset":2832,
			"target":34962
		},
		{
			"buffer":0,
			"byteLength":1888,
			"byteOffset":5664,
			"target":34962
		},
		{
			"buffer":0,
			"byteLength":1896,
			"byteOffset":7552,
			"target":34963
		},
		{
			"buffer":0,
			"byteLength":1920,
			"byteOffset":9448,
			"target":34962
		},
		{
			"buffer":0,
			"byteLength":1920,
			"byteOffset":11368,
			"target":34962
		},
		{
			"buffer":0,
			"byteLength":1280,
			"byteOffset":13288,
			"target":34962
		},
		{
			"buffer":0,
			"byteLength":480,
			"byteOffset":14568,
			"target":34963
		},
		{
			"buffer":0,
			"byteLength":18096,
			"byteOffset":15048,
			"target":34962
		},
		{
			"buffer":0,
			"byteLength":18096,
			"byteOffset":33144,
			"target":34962
		},
		{
			"buffer":0,
			"byteLength":12064,
			"byteOffset":51240,
			"target":34962
		},
		{
			"buffer":0,
			"byteLength":6264,
			"byteOffset":63304,
			"target":34963
		},
		{
			"buffer":0,
			"byteLength":10368,
			"byteOffset":69568,
			"target":34962
		},
		{
			"buffer":0,
			"byteLength":10368,
			"byteOffset":79936,
			"target":34962
		},
		{
			"buffer":0,
			"byteLength":6912,
			"byteOffset":90304,
			"target":34962
		},
		{
			"buffer":0,
			"byteLength":3024,
			"byteOffset":97216,
			"target":34963
		}
	],
	"samplers":[
		{
			"magFilter":9729,
			"minFilter":9987
		}
	],
	"buffers":[
		{
			"byteLength":100240,
			"uri":"mdl_poland_bigos.bin"
		}
	]
}
