{
	"asset":{
		"generator":"Khronos glTF Blender I/O v4.1.62",
		"version":"2.0"
	},
	"extensionsUsed":[
		"KHR_materials_specular"
	],
	"scene":0,
	"scenes":[
		{
			"name":"Scene",
			"nodes":[
				8
			]
		}
	],
	"nodes":[
		{
			"name":"EnvironmentAmbientLight.001"
		},
		{
			"children":[
				0
			],
			"name":"EnvironmentAmbientLight"
		},
		{
			"mesh":0,
			"name":"Object_3"
		},
		{
			"mesh":1,
			"name":"Object_4"
		},
		{
			"mesh":2,
			"name":"Object_5"
		},
		{
			"mesh":3,
			"name":"Object_6"
		},
		{
			"children":[
				2,
				3,
				4,
				5
			],
			"name":"Object_2"
		},
		{
			"children":[
				1,
				6
			],
			"name":"Collada visual scene group"
		},
		{
			"children":[
				7
			],
			"name":"Sketchfab_model",
			"rotation":[
				-0.70710688829422,
				0,
				0,
				0.7071066498756409
			]
		}
	],
	"materials":[
		{
			"doubleSided":true,
			"extensions":{
				"KHR_materials_specular":{
					"specularFactor":0
				}
			},
			"name":"mBody",
			"pbrMetallicRoughness":{
				"baseColorTexture":{
					"index":0
				},
				"metallicFactor":0,
				"roughnessFactor":0.8227272629737854
			}
		},
		{
			"doubleSided":true,
			"name":"mLight",
			"pbrMetallicRoughness":{
				"baseColorTexture":{
					"index":1
				},
				"metallicFactor":0,
				"roughnessFactor":0.5
			}
		}
	],
	"meshes":[
		{
			"name":"Object_0",
			"primitives":[
				{
					"attributes":{
						"POSITION":0,
						"NORMAL":1,
						"TEXCOORD_0":2
					},
					"indices":3,
					"material":0
				}
			]
		},
		{
			"name":"Object_1",
			"primitives":[
				{
					"attributes":{
						"POSITION":4,
						"NORMAL":5,
						"TEXCOORD_0":6
					},
					"indices":7,
					"material":1
				}
			]
		},
		{
			"name":"Object_2",
			"primitives":[
				{
					"attributes":{
						"POSITION":8,
						"NORMAL":9,
						"TEXCOORD_0":10
					},
					"indices":7,
					"material":1
				}
			]
		},
		{
			"name":"Object_3.001",
			"primitives":[
				{
					"attributes":{
						"POSITION":11,
						"NORMAL":12,
						"TEXCOORD_0":13
					},
					"indices":3,
					"material":0
				}
			]
		}
	],
	"textures":[
		{
			"sampler":0,
			"source":0
		},
		{
			"sampler":0,
			"source":0
		}
	],
	"images":[
		{
			"mimeType":"image/png",
			"name":"tx_hub_StatueLibertyColor",
			"uri":"tx_hub_StatueLibertyColor.png"
		}
	],
	"accessors":[
		{
			"bufferView":0,
			"componentType":5126,
			"count":1195,
			"max":[
				5.022397994995117,
				4.547454833984375,
				31.2664794921875
			],
			"min":[
				-4.547444820404053,
				-4.547451019287109,
				2.8610199933609692e-06
			],
			"type":"VEC3"
		},
		{
			"bufferView":1,
			"componentType":5126,
			"count":1195,
			"type":"VEC3"
		},
		{
			"bufferView":2,
			"componentType":5126,
			"count":1195,
			"type":"VEC2"
		},
		{
			"bufferView":3,
			"componentType":5123,
			"count":2964,
			"type":"SCALAR"
		},
		{
			"bufferView":4,
			"componentType":5126,
			"count":204,
			"max":[
				3.0833280086517334,
				-0.08173180371522903,
				32.591548919677734
			],
			"min":[
				-2.9508490562438965,
				-3.8353960514068604,
				23.943359375
			],
			"type":"VEC3"
		},
		{
			"bufferView":5,
			"componentType":5126,
			"count":204,
			"type":"VEC3"
		},
		{
			"bufferView":6,
			"componentType":5126,
			"count":204,
			"type":"VEC2"
		},
		{
			"bufferView":7,
			"componentType":5123,
			"count":633,
			"type":"SCALAR"
		},
		{
			"bufferView":8,
			"componentType":5126,
			"count":204,
			"max":[
				3.0833280086517334,
				-0.08173180371522903,
				32.591548919677734
			],
			"min":[
				-2.9508490562438965,
				-3.8353960514068604,
				23.943359375
			],
			"type":"VEC3"
		},
		{
			"bufferView":9,
			"componentType":5126,
			"count":204,
			"type":"VEC3"
		},
		{
			"bufferView":10,
			"componentType":5126,
			"count":204,
			"type":"VEC2"
		},
		{
			"bufferView":11,
			"componentType":5126,
			"count":1195,
			"max":[
				5.022397994995117,
				4.547454833984375,
				31.2664794921875
			],
			"min":[
				-4.547444820404053,
				-4.547451019287109,
				2.8610199933609692e-06
			],
			"type":"VEC3"
		},
		{
			"bufferView":12,
			"componentType":5126,
			"count":1195,
			"type":"VEC3"
		},
		{
			"bufferView":13,
			"componentType":5126,
			"count":1195,
			"type":"VEC2"
		}
	],
	"bufferViews":[
		{
			"buffer":0,
			"byteLength":14340,
			"byteOffset":0,
			"target":34962
		},
		{
			"buffer":0,
			"byteLength":14340,
			"byteOffset":14340,
			"target":34962
		},
		{
			"buffer":0,
			"byteLength":9560,
			"byteOffset":28680,
			"target":34962
		},
		{
			"buffer":0,
			"byteLength":5928,
			"byteOffset":38240,
			"target":34963
		},
		{
			"buffer":0,
			"byteLength":2448,
			"byteOffset":44168,
			"target":34962
		},
		{
			"buffer":0,
			"byteLength":2448,
			"byteOffset":46616,
			"target":34962
		},
		{
			"buffer":0,
			"byteLength":1632,
			"byteOffset":49064,
			"target":34962
		},
		{
			"buffer":0,
			"byteLength":1266,
			"byteOffset":50696,
			"target":34963
		},
		{
			"buffer":0,
			"byteLength":2448,
			"byteOffset":51964,
			"target":34962
		},
		{
			"buffer":0,
			"byteLength":2448,
			"byteOffset":54412,
			"target":34962
		},
		{
			"buffer":0,
			"byteLength":1632,
			"byteOffset":56860,
			"target":34962
		},
		{
			"buffer":0,
			"byteLength":14340,
			"byteOffset":58492,
			"target":34962
		},
		{
			"buffer":0,
			"byteLength":14340,
			"byteOffset":72832,
			"target":34962
		},
		{
			"buffer":0,
			"byteLength":9560,
			"byteOffset":87172,
			"target":34962
		}
	],
	"samplers":[
		{
			"magFilter":9729,
			"minFilter":9987
		}
	],
	"buffers":[
		{
			"byteLength":96732,
			"uri":"mdl_hub_statueliberty.bin"
		}
	]
}
