{
	"asset":{
		"generator":"Khronos glTF Blender I/O v4.0.44",
		"version":"2.0"
	},
	"scene":0,
	"scenes":[
		{
			"name":"Scene",
			"nodes":[
				0,
				1,
				2,
				3,
				4,
				5,
				6
			]
		}
	],
	"nodes":[
		{
			"mesh":0,
			"name":"Cube.064",
			"translation":[
				0,
				0.2267356812953949,
				0
			]
		},
		{
			"mesh":1,
			"name":"Cube.065",
			"scale":[
				0.6516754031181335,
				0.014171885326504707,
				0.032795488834381104
			],
			"translation":[
				0,
				0.2520293891429901,
				-0.08348352462053299
			]
		},
		{
			"mesh":1,
			"name":"Cube.066",
			"scale":[
				0.6516754031181335,
				0.014171885326504707,
				0.032795488834381104
			],
			"translation":[
				0,
				0.2520293891429901,
				-0.00842195563018322
			]
		},
		{
			"mesh":1,
			"name":"Cube.067",
			"scale":[
				0.6516754031181335,
				0.014171885326504707,
				0.032795488834381104
			],
			"translation":[
				0,
				0.2520293891429901,
				0.06776951998472214
			]
		},
		{
			"mesh":1,
			"name":"Cube.068",
			"rotation":[
				0.6311233639717102,
				0,
				0,
				0.7756824493408203
			],
			"scale":[
				0.6516754031181335,
				0.014171886257827282,
				0.032795488834381104
			],
			"translation":[
				0,
				0.34462863206863403,
				-0.14989052712917328
			]
		},
		{
			"mesh":1,
			"name":"Cube.070",
			"rotation":[
				0.6311233639717102,
				0,
				0,
				0.7756824493408203
			],
			"scale":[
				0.6516754031181335,
				0.014171886257827282,
				0.032795488834381104
			],
			"translation":[
				0,
				0.418449729681015,
				-0.16638682782649994
			]
		},
		{
			"mesh":1,
			"name":"Cube.071",
			"rotation":[
				0.6311233639717102,
				0,
				0,
				0.7756824493408203
			],
			"scale":[
				0.6516754031181335,
				0.014171886257827282,
				0.032795488834381104
			],
			"translation":[
				0,
				0.4917716681957245,
				-0.18275853991508484
			]
		}
	],
	"materials":[
		{
			"doubleSided":true,
			"name":"Bigos.001",
			"pbrMetallicRoughness":{
				"baseColorTexture":{
					"index":0
				},
				"metallicFactor":0.10000000149011612
			}
		},
		{
			"doubleSided":true,
			"name":"Bigos.001",
			"pbrMetallicRoughness":{
				"baseColorTexture":{
					"index":1
				},
				"metallicFactor":0.10000000149011612
			}
		}
	],
	"meshes":[
		{
			"name":"Cube.066",
			"primitives":[
				{
					"attributes":{
						"POSITION":0,
						"NORMAL":1,
						"TEXCOORD_0":2
					},
					"indices":3,
					"material":0
				}
			]
		},
		{
			"name":"Cube.067",
			"primitives":[
				{
					"attributes":{
						"POSITION":4,
						"NORMAL":5,
						"TEXCOORD_0":6
					},
					"indices":7,
					"material":1
				}
			]
		}
	],
	"textures":[
		{
			"sampler":0,
			"source":0
		},
		{
			"sampler":0,
			"source":0
		}
	],
	"images":[
		{
			"mimeType":"image/png",
			"name":"mdl_poland_bench",
			"uri":"mdl_poland_bench.png"
		}
	],
	"accessors":[
		{
			"bufferView":0,
			"componentType":5126,
			"count":396,
			"max":[
				0.6345235705375671,
				0.3648664951324463,
				0.22480617463588715
			],
			"min":[
				-0.6345235705375671,
				-0.22792793810367584,
				-0.25887513160705566
			],
			"type":"VEC3"
		},
		{
			"bufferView":1,
			"componentType":5126,
			"count":396,
			"type":"VEC3"
		},
		{
			"bufferView":2,
			"componentType":5126,
			"count":396,
			"type":"VEC2"
		},
		{
			"bufferView":3,
			"componentType":5123,
			"count":792,
			"type":"SCALAR"
		},
		{
			"bufferView":4,
			"componentType":5126,
			"count":24,
			"max":[
				1,
				1,
				1
			],
			"min":[
				-1,
				-1,
				-1
			],
			"type":"VEC3"
		},
		{
			"bufferView":5,
			"componentType":5126,
			"count":24,
			"type":"VEC3"
		},
		{
			"bufferView":6,
			"componentType":5126,
			"count":24,
			"type":"VEC2"
		},
		{
			"bufferView":7,
			"componentType":5123,
			"count":36,
			"type":"SCALAR"
		}
	],
	"bufferViews":[
		{
			"buffer":0,
			"byteLength":4752,
			"byteOffset":0,
			"target":34962
		},
		{
			"buffer":0,
			"byteLength":4752,
			"byteOffset":4752,
			"target":34962
		},
		{
			"buffer":0,
			"byteLength":3168,
			"byteOffset":9504,
			"target":34962
		},
		{
			"buffer":0,
			"byteLength":1584,
			"byteOffset":12672,
			"target":34963
		},
		{
			"buffer":0,
			"byteLength":288,
			"byteOffset":14256,
			"target":34962
		},
		{
			"buffer":0,
			"byteLength":288,
			"byteOffset":14544,
			"target":34962
		},
		{
			"buffer":0,
			"byteLength":192,
			"byteOffset":14832,
			"target":34962
		},
		{
			"buffer":0,
			"byteLength":72,
			"byteOffset":15024,
			"target":34963
		}
	],
	"samplers":[
		{
			"magFilter":9729,
			"minFilter":9987
		}
	],
	"buffers":[
		{
			"byteLength":15096,
			"uri":"mdl_poland_bench.bin"
		}
	]
}
