{
	"asset":{
		"generator":"Khronos glTF Blender I/O v4.2.57",
		"version":"2.0"
	},
	"extensionsUsed":[
		"KHR_materials_specular"
	],
	"scene":0,
	"scenes":[
		{
			"name":"Scene",
			"nodes":[
				0,
				1,
				2,
				3,
				4
			]
		}
	],
	"nodes":[
		{
			"mesh":0,
			"name":"Plane.021"
		},
		{
			"mesh":1,
			"name":"Plane.023"
		},
		{
			"mesh":2,
			"name":"Cube"
		},
		{
			"mesh":3,
			"name":"Plane.029"
		},
		{
			"mesh":4,
			"name":"Plane.030"
		}
	],
	"materials":[
		{
			"doubleSided":true,
			"extensions":{
				"KHR_materials_specular":{
					"specularFactor":0
				}
			},
			"name":"Road",
			"pbrMetallicRoughness":{
				"baseColorTexture":{
					"index":0
				},
				"metallicFactor":0,
				"roughnessFactor":0.7666666507720947
			}
		},
		{
			"doubleSided":true,
			"extensions":{
				"KHR_materials_specular":{
					"specularFactor":0
				}
			},
			"name":"sidewalk",
			"pbrMetallicRoughness":{
				"baseColorTexture":{
					"index":1
				},
				"metallicFactor":0,
				"roughnessFactor":0.7761905193328857
			}
		},
		{
			"doubleSided":true,
			"extensions":{
				"KHR_materials_specular":{
					"specularFactor":0
				}
			},
			"name":"Material.038",
			"pbrMetallicRoughness":{
				"baseColorTexture":{
					"index":2
				},
				"metallicFactor":0,
				"roughnessFactor":0.7761905193328857
			}
		}
	],
	"meshes":[
		{
			"name":"Plane.127",
			"primitives":[
				{
					"attributes":{
						"POSITION":0,
						"NORMAL":1,
						"TEXCOORD_0":2
					},
					"indices":3,
					"material":0
				}
			]
		},
		{
			"name":"Plane.129",
			"primitives":[
				{
					"attributes":{
						"POSITION":4,
						"NORMAL":5,
						"TEXCOORD_0":6
					},
					"indices":7,
					"material":1
				}
			]
		},
		{
			"name":"Cube.001",
			"primitives":[
				{
					"attributes":{
						"POSITION":8,
						"NORMAL":9,
						"TEXCOORD_0":10
					},
					"indices":11,
					"material":2
				}
			]
		},
		{
			"name":"Plane.017",
			"primitives":[
				{
					"attributes":{
						"POSITION":12,
						"NORMAL":13,
						"TEXCOORD_0":14
					},
					"indices":15,
					"material":0
				}
			]
		},
		{
			"name":"Plane.018",
			"primitives":[
				{
					"attributes":{
						"POSITION":16,
						"NORMAL":17,
						"TEXCOORD_0":18
					},
					"indices":19,
					"material":1
				}
			]
		}
	],
	"textures":[
		{
			"sampler":0,
			"source":0
		},
		{
			"sampler":0,
			"source":1
		},
		{
			"sampler":0,
			"source":2
		}
	],
	"images":[
		{
			"mimeType":"image/png",
			"name":"tx_brush_Road007Color",
			"uri":"tx_brush_Road007Color.png"
		},
		{
			"mimeType":"image/png",
			"name":"tx_brush_Concrete044DColor",
			"uri":"tx_brush_Concrete044DColor.png"
		},
		{
			"mimeType":"image/png",
			"name":"tx_brush_PaintedPlaster006Color",
			"uri":"tx_brush_PaintedPlaster006Color.png"
		}
	],
	"accessors":[
		{
			"bufferView":0,
			"componentType":5126,
			"count":29,
			"max":[
				39.345245361328125,
				1.566429853439331,
				25.47568130493164
			],
			"min":[
				5.108969211578369,
				0.029156267642974854,
				-148.40679931640625
			],
			"type":"VEC3"
		},
		{
			"bufferView":1,
			"componentType":5126,
			"count":29,
			"type":"VEC3"
		},
		{
			"bufferView":2,
			"componentType":5126,
			"count":29,
			"type":"VEC2"
		},
		{
			"bufferView":3,
			"componentType":5123,
			"count":45,
			"type":"SCALAR"
		},
		{
			"bufferView":4,
			"componentType":5126,
			"count":205,
			"max":[
				39.60552978515625,
				0.1772194504737854,
				29.065479278564453
			],
			"min":[
				-6.324464321136475,
				-0.012430384755134583,
				-31.200979232788086
			],
			"type":"VEC3"
		},
		{
			"bufferView":5,
			"componentType":5126,
			"count":205,
			"type":"VEC3"
		},
		{
			"bufferView":6,
			"componentType":5126,
			"count":205,
			"type":"VEC2"
		},
		{
			"bufferView":7,
			"componentType":5123,
			"count":498,
			"type":"SCALAR"
		},
		{
			"bufferView":8,
			"componentType":5126,
			"count":64,
			"max":[
				11.05650520324707,
				2.3734283447265625,
				-31.27920150756836
			],
			"min":[
				1.8024284839630127,
				-0.7746631503105164,
				-339.42120361328125
			],
			"type":"VEC3"
		},
		{
			"bufferView":9,
			"componentType":5126,
			"count":64,
			"type":"VEC3"
		},
		{
			"bufferView":10,
			"componentType":5126,
			"count":64,
			"type":"VEC2"
		},
		{
			"bufferView":11,
			"componentType":5123,
			"count":90,
			"type":"SCALAR"
		},
		{
			"bufferView":12,
			"componentType":5126,
			"count":4,
			"max":[
				5.1692609786987305,
				0,
				25.768280029296875
			],
			"min":[
				0.9976215362548828,
				0,
				21.596641540527344
			],
			"type":"VEC3"
		},
		{
			"bufferView":13,
			"componentType":5126,
			"count":4,
			"type":"VEC3"
		},
		{
			"bufferView":14,
			"componentType":5126,
			"count":4,
			"type":"VEC2"
		},
		{
			"bufferView":15,
			"componentType":5123,
			"count":6,
			"type":"SCALAR"
		},
		{
			"bufferView":16,
			"componentType":5126,
			"count":8,
			"max":[
				9.220236778259277,
				0.14829504489898682,
				28.939891815185547
			],
			"min":[
				0.9441447257995605,
				-0.05750089883804321,
				25.380950927734375
			],
			"type":"VEC3"
		},
		{
			"bufferView":17,
			"componentType":5126,
			"count":8,
			"type":"VEC3"
		},
		{
			"bufferView":18,
			"componentType":5126,
			"count":8,
			"type":"VEC2"
		},
		{
			"bufferView":19,
			"componentType":5123,
			"count":12,
			"type":"SCALAR"
		}
	],
	"bufferViews":[
		{
			"buffer":0,
			"byteLength":348,
			"byteOffset":0,
			"target":34962
		},
		{
			"buffer":0,
			"byteLength":348,
			"byteOffset":348,
			"target":34962
		},
		{
			"buffer":0,
			"byteLength":232,
			"byteOffset":696,
			"target":34962
		},
		{
			"buffer":0,
			"byteLength":90,
			"byteOffset":928,
			"target":34963
		},
		{
			"buffer":0,
			"byteLength":2460,
			"byteOffset":1020,
			"target":34962
		},
		{
			"buffer":0,
			"byteLength":2460,
			"byteOffset":3480,
			"target":34962
		},
		{
			"buffer":0,
			"byteLength":1640,
			"byteOffset":5940,
			"target":34962
		},
		{
			"buffer":0,
			"byteLength":996,
			"byteOffset":7580,
			"target":34963
		},
		{
			"buffer":0,
			"byteLength":768,
			"byteOffset":8576,
			"target":34962
		},
		{
			"buffer":0,
			"byteLength":768,
			"byteOffset":9344,
			"target":34962
		},
		{
			"buffer":0,
			"byteLength":512,
			"byteOffset":10112,
			"target":34962
		},
		{
			"buffer":0,
			"byteLength":180,
			"byteOffset":10624,
			"target":34963
		},
		{
			"buffer":0,
			"byteLength":48,
			"byteOffset":10804,
			"target":34962
		},
		{
			"buffer":0,
			"byteLength":48,
			"byteOffset":10852,
			"target":34962
		},
		{
			"buffer":0,
			"byteLength":32,
			"byteOffset":10900,
			"target":34962
		},
		{
			"buffer":0,
			"byteLength":12,
			"byteOffset":10932,
			"target":34963
		},
		{
			"buffer":0,
			"byteLength":96,
			"byteOffset":10944,
			"target":34962
		},
		{
			"buffer":0,
			"byteLength":96,
			"byteOffset":11040,
			"target":34962
		},
		{
			"buffer":0,
			"byteLength":64,
			"byteOffset":11136,
			"target":34962
		},
		{
			"buffer":0,
			"byteLength":24,
			"byteOffset":11200,
			"target":34963
		}
	],
	"samplers":[
		{
			"magFilter":9729,
			"minFilter":9987
		}
	],
	"buffers":[
		{
			"byteLength":11224,
			"uri":"mdl_brush_streets.bin"
		}
	]
}
