{
	"asset":{
		"generator":"Khronos glTF Blender I/O v4.2.57",
		"version":"2.0"
	},
	"extensionsUsed":[
		"KHR_materials_specular"
	],
	"scene":0,
	"scenes":[
		{
			"name":"Scene",
			"nodes":[
				4,
				16,
				17,
				18,
				23,
				35,
				36,
				37,
				42,
				54,
				55,
				56,
				57
			]
		}
	],
	"nodes":[
		{
			"name":"Object_4"
		},
		{
			"children":[
				0
			],
			"name":"CINEMA_4D_Editor"
		},
		{
			"name":"Patio_Umbrella"
		},
		{
			"children":[
				1,
				2
			],
			"name":"RootNode"
		},
		{
			"children":[
				3
			],
			"name":"341160703f034ac28bfef2e88535acf8.fbx"
		},
		{
			"name":"mesh_0_9"
		},
		{
			"children":[
				5
			],
			"name":"mesh_0_5_8"
		},
		{
			"children":[
				6
			],
			"name":"Flag ShapeKeys_2_4_7"
		},
		{
			"children":[
				7
			],
			"name":"GLTF_SceneRootNode_3_6"
		},
		{
			"children":[
				8
			],
			"name":"root_2_5"
		},
		{
			"children":[
				9
			],
			"name":"RootNode (model correction matrix)_1_4"
		},
		{
			"children":[
				10
			],
			"name":"RootNode (gltf orientation matrix)_0_3"
		},
		{
			"children":[
				11
			],
			"name":"GLTF_SceneRootNode_2"
		},
		{
			"children":[
				12
			],
			"name":"root_1"
		},
		{
			"children":[
				13
			],
			"name":"Sketchfab_model_0"
		},
		{
			"children":[
				14
			],
			"name":"GLTF_SceneRootNode"
		},
		{
			"children":[
				15
			],
			"name":"root"
		},
		{
			"name":"Plane.005"
		},
		{
			"name":"Plane.022"
		},
		{
			"name":"Object_4.001"
		},
		{
			"children":[
				19
			],
			"name":"CINEMA_4D_Editor.001"
		},
		{
			"name":"Patio_Umbrella.001"
		},
		{
			"children":[
				20,
				21
			],
			"name":"RootNode.001"
		},
		{
			"children":[
				22
			],
			"name":"341160703f034ac28bfef2e88535acf8.fbx.001"
		},
		{
			"name":"mesh_0_9.001"
		},
		{
			"children":[
				24
			],
			"name":"mesh_0_5_8.001"
		},
		{
			"children":[
				25
			],
			"name":"Flag ShapeKeys_2_4_7.001"
		},
		{
			"children":[
				26
			],
			"name":"GLTF_SceneRootNode_3_6.001"
		},
		{
			"children":[
				27
			],
			"name":"root_2_5.001"
		},
		{
			"children":[
				28
			],
			"name":"RootNode (model correction matrix)_1_4.001"
		},
		{
			"children":[
				29
			],
			"name":"RootNode (gltf orientation matrix)_0_3.001"
		},
		{
			"children":[
				30
			],
			"name":"GLTF_SceneRootNode_2.001"
		},
		{
			"children":[
				31
			],
			"name":"root_1.001"
		},
		{
			"children":[
				32
			],
			"name":"Sketchfab_model_0.001"
		},
		{
			"children":[
				33
			],
			"name":"GLTF_SceneRootNode.001"
		},
		{
			"children":[
				34
			],
			"name":"root.001"
		},
		{
			"name":"Plane.001"
		},
		{
			"name":"Plane.013"
		},
		{
			"name":"Object_4.002"
		},
		{
			"children":[
				38
			],
			"name":"CINEMA_4D_Editor.002"
		},
		{
			"name":"Patio_Umbrella.002"
		},
		{
			"children":[
				39,
				40
			],
			"name":"RootNode.002"
		},
		{
			"children":[
				41
			],
			"name":"341160703f034ac28bfef2e88535acf8.fbx.002"
		},
		{
			"name":"mesh_0_9.002"
		},
		{
			"children":[
				43
			],
			"name":"mesh_0_5_8.002"
		},
		{
			"children":[
				44
			],
			"name":"Flag ShapeKeys_2_4_7.002"
		},
		{
			"children":[
				45
			],
			"name":"GLTF_SceneRootNode_3_6.002"
		},
		{
			"children":[
				46
			],
			"name":"root_2_5.002"
		},
		{
			"children":[
				47
			],
			"name":"RootNode (model correction matrix)_1_4.002"
		},
		{
			"children":[
				48
			],
			"name":"RootNode (gltf orientation matrix)_0_3.002"
		},
		{
			"children":[
				49
			],
			"name":"GLTF_SceneRootNode_2.002"
		},
		{
			"children":[
				50
			],
			"name":"root_1.002"
		},
		{
			"children":[
				51
			],
			"name":"Sketchfab_model_0.002"
		},
		{
			"children":[
				52
			],
			"name":"GLTF_SceneRootNode.002"
		},
		{
			"children":[
				53
			],
			"name":"root.002"
		},
		{
			"name":"Plane.020"
		},
		{
			"name":"Plane.025"
		},
		{
			"mesh":0,
			"name":"Plane"
		}
	],
	"materials":[
		{
			"doubleSided":true,
			"name":"Material.008",
			"pbrMetallicRoughness":{
				"baseColorFactor":[
					0.1860349476337433,
					0.1860349476337433,
					0.1860349476337433,
					1
				],
				"metallicFactor":0.9896907210350037
			}
		},
		{
			"doubleSided":true,
			"extensions":{
				"KHR_materials_specular":{
					"specularFactor":0
				}
			},
			"name":"Material.033",
			"pbrMetallicRoughness":{
				"baseColorTexture":{
					"index":0
				},
				"metallicFactor":0
			}
		}
	],
	"meshes":[
		{
			"name":"Plane",
			"primitives":[
				{
					"attributes":{
						"POSITION":0,
						"NORMAL":1,
						"TEXCOORD_0":2
					},
					"indices":3,
					"material":0
				},
				{
					"attributes":{
						"POSITION":4,
						"NORMAL":5,
						"TEXCOORD_0":6
					},
					"indices":7,
					"material":1
				}
			]
		}
	],
	"textures":[
		{
			"sampler":0,
			"source":0
		}
	],
	"images":[
		{
			"mimeType":"image/png",
			"name":"tx_limegreen",
			"uri":"tx_limegreen.png"
		}
	],
	"accessors":[
		{
			"bufferView":0,
			"componentType":5126,
			"count":96,
			"max":[
				0.7634903788566589,
				1.4719417095184326,
				1.122043490409851
			],
			"min":[
				-0.7634903788566589,
				-0.0802566185593605,
				-1.122043490409851
			],
			"type":"VEC3"
		},
		{
			"bufferView":1,
			"componentType":5126,
			"count":96,
			"type":"VEC3"
		},
		{
			"bufferView":2,
			"componentType":5126,
			"count":96,
			"type":"VEC2"
		},
		{
			"bufferView":3,
			"componentType":5123,
			"count":144,
			"type":"SCALAR"
		},
		{
			"bufferView":4,
			"componentType":5126,
			"count":528,
			"max":[
				0.8052058815956116,
				1.8278024196624756,
				1.4069210290908813
			],
			"min":[
				-0.8052058815956116,
				1.1789374351501465,
				-1.406921148300171
			],
			"type":"VEC3"
		},
		{
			"bufferView":5,
			"componentType":5126,
			"count":528,
			"type":"VEC3"
		},
		{
			"bufferView":6,
			"componentType":5126,
			"count":528,
			"type":"VEC2"
		},
		{
			"bufferView":7,
			"componentType":5123,
			"count":744,
			"type":"SCALAR"
		}
	],
	"bufferViews":[
		{
			"buffer":0,
			"byteLength":1152,
			"byteOffset":0,
			"target":34962
		},
		{
			"buffer":0,
			"byteLength":1152,
			"byteOffset":1152,
			"target":34962
		},
		{
			"buffer":0,
			"byteLength":768,
			"byteOffset":2304,
			"target":34962
		},
		{
			"buffer":0,
			"byteLength":288,
			"byteOffset":3072,
			"target":34963
		},
		{
			"buffer":0,
			"byteLength":6336,
			"byteOffset":3360,
			"target":34962
		},
		{
			"buffer":0,
			"byteLength":6336,
			"byteOffset":9696,
			"target":34962
		},
		{
			"buffer":0,
			"byteLength":4224,
			"byteOffset":16032,
			"target":34962
		},
		{
			"buffer":0,
			"byteLength":1488,
			"byteOffset":20256,
			"target":34963
		}
	],
	"samplers":[
		{
			"magFilter":9729,
			"minFilter":9987
		}
	],
	"buffers":[
		{
			"byteLength":21744,
			"uri":"mdl_brush_tent.bin"
		}
	]
}
