{
	"asset":{
		"generator":"Khronos glTF Blender I/O v4.1.62",
		"version":"2.0"
	},
	"extensionsUsed":[
		"KHR_materials_specular"
	],
	"scene":0,
	"scenes":[
		{
			"name":"Scene",
			"nodes":[
				8
			]
		}
	],
	"nodes":[
		{
			"mesh":0,
			"name":"Object_4"
		},
		{
			"mesh":1,
			"name":"Object_5"
		},
		{
			"mesh":2,
			"name":"Object_6"
		},
		{
			"mesh":3,
			"name":"Object_7"
		},
		{
			"mesh":4,
			"name":"Object_8"
		},
		{
			"children":[
				0,
				1,
				2,
				3,
				4
			],
			"name":"books_0"
		},
		{
			"children":[
				5
			],
			"name":"GLTF_SceneRootNode",
			"rotation":[
				0.70710688829422,
				0,
				0,
				0.7071066498756409
			]
		},
		{
			"children":[
				6
			],
			"name":"root"
		},
		{
			"children":[
				7
			],
			"name":"Sketchfab_model",
			"rotation":[
				-0.70710688829422,
				0,
				0,
				0.7071066498756409
			]
		}
	],
	"materials":[
		{
			"doubleSided":true,
			"extensions":{
				"KHR_materials_specular":{
					"specularFactor":0
				}
			},
			"name":"old-book-01.003",
			"normalTexture":{
				"index":0
			},
			"pbrMetallicRoughness":{
				"baseColorTexture":{
					"index":1
				},
				"metallicFactor":0,
				"roughnessFactor":0.8181818127632141
			}
		},
		{
			"doubleSided":true,
			"extensions":{
				"KHR_materials_specular":{
					"specularFactor":0
				}
			},
			"name":"old-book-02.003",
			"normalTexture":{
				"index":2
			},
			"pbrMetallicRoughness":{
				"baseColorTexture":{
					"index":3
				},
				"metallicFactor":0,
				"roughnessFactor":0.8318182229995728
			}
		},
		{
			"doubleSided":true,
			"extensions":{
				"KHR_materials_specular":{
					"specularFactor":0
				}
			},
			"name":"old-book-03.003",
			"normalTexture":{
				"index":4
			},
			"pbrMetallicRoughness":{
				"baseColorTexture":{
					"index":5
				},
				"metallicFactor":0,
				"roughnessFactor":0.8136363625526428
			}
		},
		{
			"doubleSided":true,
			"extensions":{
				"KHR_materials_specular":{
					"specularFactor":0
				}
			},
			"name":"old-book-04.003",
			"normalTexture":{
				"index":6
			},
			"pbrMetallicRoughness":{
				"baseColorTexture":{
					"index":7
				},
				"metallicFactor":0,
				"roughnessFactor":0.7590909004211426
			}
		},
		{
			"doubleSided":true,
			"extensions":{
				"KHR_materials_specular":{
					"specularFactor":0
				}
			},
			"name":"old-book-05.003",
			"normalTexture":{
				"index":8
			},
			"pbrMetallicRoughness":{
				"baseColorTexture":{
					"index":9
				},
				"metallicFactor":0,
				"roughnessFactor":0.8045454621315002
			}
		}
	],
	"meshes":[
		{
			"name":"Object_0.030",
			"primitives":[
				{
					"attributes":{
						"POSITION":0,
						"NORMAL":1,
						"TEXCOORD_0":2
					},
					"indices":3,
					"material":0
				}
			]
		},
		{
			"name":"Object_1.013",
			"primitives":[
				{
					"attributes":{
						"POSITION":4,
						"NORMAL":5,
						"TEXCOORD_0":6
					},
					"indices":7,
					"material":1
				}
			]
		},
		{
			"name":"Object_2.006",
			"primitives":[
				{
					"attributes":{
						"POSITION":8,
						"NORMAL":9,
						"TEXCOORD_0":10
					},
					"indices":11,
					"material":2
				}
			]
		},
		{
			"name":"Object_3.012",
			"primitives":[
				{
					"attributes":{
						"POSITION":12,
						"NORMAL":13,
						"TEXCOORD_0":14
					},
					"indices":15,
					"material":3
				}
			]
		},
		{
			"name":"Object_4.003",
			"primitives":[
				{
					"attributes":{
						"POSITION":16,
						"NORMAL":17,
						"TEXCOORD_0":18
					},
					"indices":19,
					"material":4
				}
			]
		}
	],
	"textures":[
		{
			"sampler":0,
			"source":0
		},
		{
			"sampler":0,
			"source":1
		},
		{
			"sampler":0,
			"source":2
		},
		{
			"sampler":0,
			"source":3
		},
		{
			"sampler":0,
			"source":4
		},
		{
			"sampler":0,
			"source":1
		},
		{
			"sampler":0,
			"source":5
		},
		{
			"sampler":0,
			"source":6
		},
		{
			"sampler":0,
			"source":7
		},
		{
			"sampler":0,
			"source":8
		}
	],
	"images":[
		{
			"mimeType":"image/png",
			"name":"tx_hub_bookNormal2",
			"uri":"tx_hub_bookNormal2.png"
		},
		{
			"mimeType":"image/png",
			"name":"tx_hub_bookColor",
			"uri":"tx_hub_bookColor.png"
		},
		{
			"mimeType":"image/png",
			"name":"tx_hub_bookNormal5",
			"uri":"tx_hub_bookNormal5.png"
		},
		{
			"mimeType":"image/png",
			"name":"tx_hub_bookColor3",
			"uri":"tx_hub_bookColor3.png"
		},
		{
			"mimeType":"image/png",
			"name":"tx_hub_bookNormal_8",
			"uri":"tx_hub_bookNormal_8.png"
		},
		{
			"mimeType":"image/png",
			"name":"tx_hub_bookNormal11",
			"uri":"tx_hub_bookNormal11.png"
		},
		{
			"mimeType":"image/png",
			"name":"tx_hub_bookColor9",
			"uri":"tx_hub_bookColor9.png"
		},
		{
			"mimeType":"image/png",
			"name":"tx_hub_bookNormal_14",
			"uri":"tx_hub_bookNormal_14.png"
		},
		{
			"mimeType":"image/png",
			"name":"tx_hub_bookColor12",
			"uri":"tx_hub_bookColor12.png"
		}
	],
	"accessors":[
		{
			"bufferView":0,
			"componentType":5126,
			"count":218,
			"max":[
				0.4216626286506653,
				0.3669360876083374,
				0.07955722510814667
			],
			"min":[
				-0.19424490630626678,
				-0.002948466455563903,
				-0.1750188171863556
			],
			"type":"VEC3"
		},
		{
			"bufferView":1,
			"componentType":5126,
			"count":218,
			"type":"VEC3"
		},
		{
			"bufferView":2,
			"componentType":5126,
			"count":218,
			"type":"VEC2"
		},
		{
			"bufferView":3,
			"componentType":5123,
			"count":468,
			"type":"SCALAR"
		},
		{
			"bufferView":4,
			"componentType":5126,
			"count":216,
			"max":[
				-0.021004939451813698,
				0.31046268343925476,
				0.07955722510814667
			],
			"min":[
				-0.8162739872932434,
				-0.001963630085811019,
				-0.1750188171863556
			],
			"type":"VEC3"
		},
		{
			"bufferView":5,
			"componentType":5126,
			"count":216,
			"type":"VEC3"
		},
		{
			"bufferView":6,
			"componentType":5126,
			"count":216,
			"type":"VEC2"
		},
		{
			"bufferView":7,
			"componentType":5123,
			"count":468,
			"type":"SCALAR"
		},
		{
			"bufferView":8,
			"componentType":5126,
			"count":219,
			"max":[
				0.09032426029443741,
				0.4046497046947479,
				0.07955722510814667
			],
			"min":[
				-0.7501216530799866,
				-0.003303871490061283,
				-0.1750188171863556
			],
			"type":"VEC3"
		},
		{
			"bufferView":9,
			"componentType":5126,
			"count":219,
			"type":"VEC3"
		},
		{
			"bufferView":10,
			"componentType":5126,
			"count":219,
			"type":"VEC2"
		},
		{
			"bufferView":11,
			"componentType":5123,
			"count":468,
			"type":"SCALAR"
		},
		{
			"bufferView":12,
			"componentType":5126,
			"count":327,
			"max":[
				0.31170323491096497,
				0.3890390992164612,
				0.07955722510814667
			],
			"min":[
				-0.6756938099861145,
				-0.0028190293814986944,
				-0.1750188171863556
			],
			"type":"VEC3"
		},
		{
			"bufferView":13,
			"componentType":5126,
			"count":327,
			"type":"VEC3"
		},
		{
			"bufferView":14,
			"componentType":5126,
			"count":327,
			"type":"VEC2"
		},
		{
			"bufferView":15,
			"componentType":5123,
			"count":702,
			"type":"SCALAR"
		},
		{
			"bufferView":16,
			"componentType":5126,
			"count":762,
			"max":[
				0.22694534063339233,
				0.4158421456813812,
				0.07955722510814667
			],
			"min":[
				-0.9023557305335999,
				-0.002443723613396287,
				-0.1750188171863556
			],
			"type":"VEC3"
		},
		{
			"bufferView":17,
			"componentType":5126,
			"count":762,
			"type":"VEC3"
		},
		{
			"bufferView":18,
			"componentType":5126,
			"count":762,
			"type":"VEC2"
		},
		{
			"bufferView":19,
			"componentType":5123,
			"count":1638,
			"type":"SCALAR"
		}
	],
	"bufferViews":[
		{
			"buffer":0,
			"byteLength":2616,
			"byteOffset":0,
			"target":34962
		},
		{
			"buffer":0,
			"byteLength":2616,
			"byteOffset":2616,
			"target":34962
		},
		{
			"buffer":0,
			"byteLength":1744,
			"byteOffset":5232,
			"target":34962
		},
		{
			"buffer":0,
			"byteLength":936,
			"byteOffset":6976,
			"target":34963
		},
		{
			"buffer":0,
			"byteLength":2592,
			"byteOffset":7912,
			"target":34962
		},
		{
			"buffer":0,
			"byteLength":2592,
			"byteOffset":10504,
			"target":34962
		},
		{
			"buffer":0,
			"byteLength":1728,
			"byteOffset":13096,
			"target":34962
		},
		{
			"buffer":0,
			"byteLength":936,
			"byteOffset":14824,
			"target":34963
		},
		{
			"buffer":0,
			"byteLength":2628,
			"byteOffset":15760,
			"target":34962
		},
		{
			"buffer":0,
			"byteLength":2628,
			"byteOffset":18388,
			"target":34962
		},
		{
			"buffer":0,
			"byteLength":1752,
			"byteOffset":21016,
			"target":34962
		},
		{
			"buffer":0,
			"byteLength":936,
			"byteOffset":22768,
			"target":34963
		},
		{
			"buffer":0,
			"byteLength":3924,
			"byteOffset":23704,
			"target":34962
		},
		{
			"buffer":0,
			"byteLength":3924,
			"byteOffset":27628,
			"target":34962
		},
		{
			"buffer":0,
			"byteLength":2616,
			"byteOffset":31552,
			"target":34962
		},
		{
			"buffer":0,
			"byteLength":1404,
			"byteOffset":34168,
			"target":34963
		},
		{
			"buffer":0,
			"byteLength":9144,
			"byteOffset":35572,
			"target":34962
		},
		{
			"buffer":0,
			"byteLength":9144,
			"byteOffset":44716,
			"target":34962
		},
		{
			"buffer":0,
			"byteLength":6096,
			"byteOffset":53860,
			"target":34962
		},
		{
			"buffer":0,
			"byteLength":3276,
			"byteOffset":59956,
			"target":34963
		}
	],
	"samplers":[
		{
			"magFilter":9729,
			"minFilter":9987
		}
	],
	"buffers":[
		{
			"byteLength":63232,
			"uri":"mdl_hub_books.bin"
		}
	]
}
