{
	"asset":{
		"generator":"Khronos glTF Blender I/O v4.0.44",
		"version":"2.0"
	},
	"scene":0,
	"scenes":[
		{
			"name":"Scene",
			"nodes":[
				11,
				12,
				13
			]
		}
	],
	"nodes":[
		{
			"mesh":0,
			"name":"Cube.036",
			"translation":[
				0,
				2.3240294456481934,
				0
			]
		},
		{
			"mesh":1,
			"name":"Cube.037",
			"translation":[
				0,
				1.5525500774383545,
				0
			]
		},
		{
			"mesh":2,
			"name":"Cube.038",
			"translation":[
				0,
				3.0955088138580322,
				0
			]
		},
		{
			"mesh":3,
			"name":"Cube.042",
			"scale":[
				1,
				0.8010814189910889,
				1
			],
			"translation":[
				0.3861660957336426,
				1.8275909423828125,
				-0.051023855805397034
			]
		},
		{
			"mesh":4,
			"name":"Cube.043",
			"translation":[
				0.014160871505737305,
				1.909850835800171,
				-0.051023855805397034
			]
		},
		{
			"mesh":5,
			"name":"Cube.044",
			"translation":[
				0.7736421823501587,
				1.5351734161376953,
				0.738869309425354
			]
		},
		{
			"mesh":6,
			"name":"Cube.045",
			"translation":[
				0,
				0.8185032606124878,
				0
			]
		},
		{
			"mesh":7,
			"name":"Cube.047",
			"translation":[
				0,
				3.792879581451416,
				0
			]
		},
		{
			"mesh":8,
			"name":"Cube.048",
			"translation":[
				0.19973397254943848,
				3.451826572418213,
				0.7452804446220398
			]
		},
		{
			"mesh":9,
			"name":"Cube.049",
			"translation":[
				0,
				3.505911350250244,
				0
			]
		},
		{
			"mesh":10,
			"name":"Cube.050",
			"translation":[
				0.5786095857620239,
				2.7046666145324707,
				0.7452806830406189
			]
		},
		{
			"children":[
				0,
				1,
				2,
				3,
				4,
				5,
				6,
				7,
				8,
				9,
				10
			],
			"mesh":11,
			"name":"Cube.035"
		},
		{
			"mesh":12,
			"name":"Cube.046",
			"translation":[
				0,
				0.3026569187641144,
				0.7566927671432495
			]
		},
		{
			"mesh":13,
			"name":"Cube.051",
			"scale":[
				1,
				0.27193760871887207,
				0.27193760871887207
			],
			"translation":[
				0,
				0.44362780451774597,
				0.7777105569839478
			]
		}
	],
	"materials":[
		{
			"doubleSided":true,
			"name":"Budynek_1",
			"pbrMetallicRoughness":{
				"baseColorTexture":{
					"index":0
				},
				"metallicFactor":0
			}
		},
		{
			"doubleSided":true,
			"name":"Budynek_1",
			"pbrMetallicRoughness":{
				"baseColorTexture":{
					"index":1
				},
				"metallicFactor":0
			}
		}
	],
	"meshes":[
		{
			"name":"Cube.032",
			"primitives":[
				{
					"attributes":{
						"POSITION":0,
						"NORMAL":1,
						"TEXCOORD_0":2
					},
					"indices":3,
					"material":0
				}
			]
		},
		{
			"name":"Cube.033",
			"primitives":[
				{
					"attributes":{
						"POSITION":4,
						"NORMAL":5,
						"TEXCOORD_0":6
					},
					"indices":3,
					"material":0
				}
			]
		},
		{
			"name":"Cube.034",
			"primitives":[
				{
					"attributes":{
						"POSITION":7,
						"NORMAL":8,
						"TEXCOORD_0":9
					},
					"indices":3,
					"material":0
				}
			]
		},
		{
			"name":"Cube.042",
			"primitives":[
				{
					"attributes":{
						"POSITION":10,
						"NORMAL":11,
						"TEXCOORD_0":12
					},
					"indices":13,
					"material":0
				}
			]
		},
		{
			"name":"Cube.044",
			"primitives":[
				{
					"attributes":{
						"POSITION":14,
						"NORMAL":15,
						"TEXCOORD_0":16
					},
					"indices":17,
					"material":0
				}
			]
		},
		{
			"name":"Cube.045",
			"primitives":[
				{
					"attributes":{
						"POSITION":18,
						"NORMAL":19,
						"TEXCOORD_0":20
					},
					"indices":21,
					"material":0
				}
			]
		},
		{
			"name":"Cube.046",
			"primitives":[
				{
					"attributes":{
						"POSITION":22,
						"NORMAL":23,
						"TEXCOORD_0":24
					},
					"indices":3,
					"material":0
				}
			]
		},
		{
			"name":"Cube.048",
			"primitives":[
				{
					"attributes":{
						"POSITION":25,
						"NORMAL":26,
						"TEXCOORD_0":27
					},
					"indices":3,
					"material":0
				}
			]
		},
		{
			"name":"Cube.049",
			"primitives":[
				{
					"attributes":{
						"POSITION":28,
						"NORMAL":29,
						"TEXCOORD_0":30
					},
					"indices":31,
					"material":0
				}
			]
		},
		{
			"name":"Cube.050",
			"primitives":[
				{
					"attributes":{
						"POSITION":32,
						"NORMAL":33,
						"TEXCOORD_0":34
					},
					"indices":35,
					"material":1
				}
			]
		},
		{
			"name":"Cube.051",
			"primitives":[
				{
					"attributes":{
						"POSITION":36,
						"NORMAL":37,
						"TEXCOORD_0":38
					},
					"indices":39,
					"material":0
				}
			]
		},
		{
			"name":"Cube.031",
			"primitives":[
				{
					"attributes":{
						"POSITION":40,
						"NORMAL":41,
						"TEXCOORD_0":42
					},
					"indices":43,
					"material":0
				}
			]
		},
		{
			"name":"Cube.053",
			"primitives":[
				{
					"attributes":{
						"POSITION":44,
						"NORMAL":45,
						"TEXCOORD_0":46
					},
					"indices":47,
					"material":1
				}
			]
		},
		{
			"name":"Cube.054",
			"primitives":[
				{
					"attributes":{
						"POSITION":48,
						"NORMAL":49,
						"TEXCOORD_0":50
					},
					"indices":51,
					"material":1
				}
			]
		}
	],
	"textures":[
		{
			"sampler":0,
			"source":0
		},
		{
			"sampler":0,
			"source":0
		}
	],
	"images":[
		{
			"mimeType":"image/png",
			"name":"mdl_poland_Untitled",
			"uri":"mdl_poland_Untitled.png"
		}
	],
	"accessors":[
		{
			"bufferView":0,
			"componentType":5126,
			"count":64,
			"max":[
				0.8374853134155273,
				0.07444088906049728,
				0.8374853134155273
			],
			"min":[
				-0.8374853134155273,
				-0.07444088906049728,
				0.6201427578926086
			],
			"type":"VEC3"
		},
		{
			"bufferView":1,
			"componentType":5126,
			"count":64,
			"type":"VEC3"
		},
		{
			"bufferView":2,
			"componentType":5126,
			"count":64,
			"type":"VEC2"
		},
		{
			"bufferView":3,
			"componentType":5123,
			"count":90,
			"type":"SCALAR"
		},
		{
			"bufferView":4,
			"componentType":5126,
			"count":64,
			"max":[
				0.8374853134155273,
				0.07444088906049728,
				0.8374853134155273
			],
			"min":[
				-0.8374853134155273,
				-0.07444088906049728,
				0.6201427578926086
			],
			"type":"VEC3"
		},
		{
			"bufferView":5,
			"componentType":5126,
			"count":64,
			"type":"VEC3"
		},
		{
			"bufferView":6,
			"componentType":5126,
			"count":64,
			"type":"VEC2"
		},
		{
			"bufferView":7,
			"componentType":5126,
			"count":64,
			"max":[
				0.8374853134155273,
				0.07444088906049728,
				0.8374853134155273
			],
			"min":[
				-0.8374853134155273,
				-0.07444088906049728,
				0.6201427578926086
			],
			"type":"VEC3"
		},
		{
			"bufferView":8,
			"componentType":5126,
			"count":64,
			"type":"VEC3"
		},
		{
			"bufferView":9,
			"componentType":5126,
			"count":64,
			"type":"VEC2"
		},
		{
			"bufferView":10,
			"componentType":5126,
			"count":84,
			"max":[
				0.04224652051925659,
				2.4860241413116455,
				0.8374853134155273
			],
			"min":[
				-0.8145787119865417,
				-1.3867141008377075,
				0.32381004095077515
			],
			"type":"VEC3"
		},
		{
			"bufferView":11,
			"componentType":5126,
			"count":84,
			"type":"VEC3"
		},
		{
			"bufferView":12,
			"componentType":5126,
			"count":84,
			"type":"VEC2"
		},
		{
			"bufferView":13,
			"componentType":5123,
			"count":120,
			"type":"SCALAR"
		},
		{
			"bufferView":14,
			"componentType":5126,
			"count":64,
			"max":[
				0.042246509343385696,
				1.9350740909576416,
				0.8374853134155273
			],
			"min":[
				-0.04224652051925659,
				-1.0793919563293457,
				0.6201427578926086
			],
			"type":"VEC3"
		},
		{
			"bufferView":15,
			"componentType":5126,
			"count":64,
			"type":"VEC3"
		},
		{
			"bufferView":16,
			"componentType":5126,
			"count":64,
			"type":"VEC2"
		},
		{
			"bufferView":17,
			"componentType":5123,
			"count":90,
			"type":"SCALAR"
		},
		{
			"bufferView":18,
			"componentType":5126,
			"count":128,
			"max":[
				0.0422464944422245,
				1.5768170356750488,
				0.04333138093352318
			],
			"min":[
				-1.5895308256149292,
				-1.536311388015747,
				-0.04333138093352318
			],
			"type":"VEC3"
		},
		{
			"bufferView":19,
			"componentType":5126,
			"count":128,
			"type":"VEC3"
		},
		{
			"bufferView":20,
			"componentType":5126,
			"count":128,
			"type":"VEC2"
		},
		{
			"bufferView":21,
			"componentType":5123,
			"count":180,
			"type":"SCALAR"
		},
		{
			"bufferView":22,
			"componentType":5126,
			"count":64,
			"max":[
				0.8374853134155273,
				0.17263075709342957,
				0.8374853134155273
			],
			"min":[
				-0.8374853134155273,
				-0.19400455057621002,
				0.6201427578926086
			],
			"type":"VEC3"
		},
		{
			"bufferView":23,
			"componentType":5126,
			"count":64,
			"type":"VEC3"
		},
		{
			"bufferView":24,
			"componentType":5126,
			"count":64,
			"type":"VEC2"
		},
		{
			"bufferView":25,
			"componentType":5126,
			"count":64,
			"max":[
				0.4552992880344391,
				0.07444088906049728,
				0.8374853134155273
			],
			"min":[
				-0.4552992880344391,
				-0.07444088906049728,
				0.3465588688850403
			],
			"type":"VEC3"
		},
		{
			"bufferView":26,
			"componentType":5126,
			"count":64,
			"type":"VEC3"
		},
		{
			"bufferView":27,
			"componentType":5126,
			"count":64,
			"type":"VEC2"
		},
		{
			"bufferView":28,
			"componentType":5126,
			"count":736,
			"max":[
				0.09804583340883255,
				0.19463375210762024,
				0.09804583340883255
			],
			"min":[
				-0.4975137710571289,
				-2.436814546585083,
				0.04268157109618187
			],
			"type":"VEC3"
		},
		{
			"bufferView":29,
			"componentType":5126,
			"count":736,
			"type":"VEC3"
		},
		{
			"bufferView":30,
			"componentType":5126,
			"count":736,
			"type":"VEC2"
		},
		{
			"bufferView":31,
			"componentType":5123,
			"count":1200,
			"type":"SCALAR"
		},
		{
			"bufferView":32,
			"componentType":5126,
			"count":42,
			"max":[
				0.3829350173473358,
				0.6082392334938049,
				0.7714794278144836
			],
			"min":[
				-0.3829350173473358,
				-0.3829350173473358,
				0.1747986078262329
			],
			"type":"VEC3"
		},
		{
			"bufferView":33,
			"componentType":5126,
			"count":42,
			"type":"VEC3"
		},
		{
			"bufferView":34,
			"componentType":5126,
			"count":42,
			"type":"VEC2"
		},
		{
			"bufferView":35,
			"componentType":5123,
			"count":72,
			"type":"SCALAR"
		},
		{
			"bufferView":36,
			"componentType":5126,
			"count":552,
			"max":[
				0.09804583340883255,
				0.19463375210762024,
				0.09804583340883255
			],
			"min":[
				-1.2552649974822998,
				-1.6894209384918213,
				0.04268157109618187
			],
			"type":"VEC3"
		},
		{
			"bufferView":37,
			"componentType":5126,
			"count":552,
			"type":"VEC3"
		},
		{
			"bufferView":38,
			"componentType":5126,
			"count":552,
			"type":"VEC2"
		},
		{
			"bufferView":39,
			"componentType":5123,
			"count":900,
			"type":"SCALAR"
		},
		{
			"bufferView":40,
			"componentType":5126,
			"count":108,
			"max":[
				0.7757437825202942,
				4.389064788818359,
				0.7714793086051941
			],
			"min":[
				-0.7757437825202942,
				0.002390146255493164,
				-0.7714795470237732
			],
			"type":"VEC3"
		},
		{
			"bufferView":41,
			"componentType":5126,
			"count":108,
			"type":"VEC3"
		},
		{
			"bufferView":42,
			"componentType":5126,
			"count":108,
			"type":"VEC2"
		},
		{
			"bufferView":43,
			"componentType":5123,
			"count":324,
			"type":"SCALAR"
		},
		{
			"bufferView":44,
			"componentType":5126,
			"count":108,
			"max":[
				0.7134131789207458,
				0.3050299882888794,
				0.05000000074505806
			],
			"min":[
				-0.7134131789207458,
				-0.30014628171920776,
				-0.05000000074505806
			],
			"type":"VEC3"
		},
		{
			"bufferView":45,
			"componentType":5126,
			"count":108,
			"type":"VEC3"
		},
		{
			"bufferView":46,
			"componentType":5126,
			"count":108,
			"type":"VEC2"
		},
		{
			"bufferView":47,
			"componentType":5123,
			"count":204,
			"type":"SCALAR"
		},
		{
			"bufferView":48,
			"componentType":5126,
			"count":12,
			"max":[
				0.6956930756568909,
				0.06023871898651123,
				0.06023871898651123
			],
			"min":[
				-0.6956930756568909,
				-0.06023871898651123,
				-0.06023871898651123
			],
			"type":"VEC3"
		},
		{
			"bufferView":49,
			"componentType":5126,
			"count":12,
			"type":"VEC3"
		},
		{
			"bufferView":50,
			"componentType":5126,
			"count":12,
			"type":"VEC2"
		},
		{
			"bufferView":51,
			"componentType":5123,
			"count":18,
			"type":"SCALAR"
		}
	],
	"bufferViews":[
		{
			"buffer":0,
			"byteLength":768,
			"byteOffset":0,
			"target":34962
		},
		{
			"buffer":0,
			"byteLength":768,
			"byteOffset":768,
			"target":34962
		},
		{
			"buffer":0,
			"byteLength":512,
			"byteOffset":1536,
			"target":34962
		},
		{
			"buffer":0,
			"byteLength":180,
			"byteOffset":2048,
			"target":34963
		},
		{
			"buffer":0,
			"byteLength":768,
			"byteOffset":2228,
			"target":34962
		},
		{
			"buffer":0,
			"byteLength":768,
			"byteOffset":2996,
			"target":34962
		},
		{
			"buffer":0,
			"byteLength":512,
			"byteOffset":3764,
			"target":34962
		},
		{
			"buffer":0,
			"byteLength":768,
			"byteOffset":4276,
			"target":34962
		},
		{
			"buffer":0,
			"byteLength":768,
			"byteOffset":5044,
			"target":34962
		},
		{
			"buffer":0,
			"byteLength":512,
			"byteOffset":5812,
			"target":34962
		},
		{
			"buffer":0,
			"byteLength":1008,
			"byteOffset":6324,
			"target":34962
		},
		{
			"buffer":0,
			"byteLength":1008,
			"byteOffset":7332,
			"target":34962
		},
		{
			"buffer":0,
			"byteLength":672,
			"byteOffset":8340,
			"target":34962
		},
		{
			"buffer":0,
			"byteLength":240,
			"byteOffset":9012,
			"target":34963
		},
		{
			"buffer":0,
			"byteLength":768,
			"byteOffset":9252,
			"target":34962
		},
		{
			"buffer":0,
			"byteLength":768,
			"byteOffset":10020,
			"target":34962
		},
		{
			"buffer":0,
			"byteLength":512,
			"byteOffset":10788,
			"target":34962
		},
		{
			"buffer":0,
			"byteLength":180,
			"byteOffset":11300,
			"target":34963
		},
		{
			"buffer":0,
			"byteLength":1536,
			"byteOffset":11480,
			"target":34962
		},
		{
			"buffer":0,
			"byteLength":1536,
			"byteOffset":13016,
			"target":34962
		},
		{
			"buffer":0,
			"byteLength":1024,
			"byteOffset":14552,
			"target":34962
		},
		{
			"buffer":0,
			"byteLength":360,
			"byteOffset":15576,
			"target":34963
		},
		{
			"buffer":0,
			"byteLength":768,
			"byteOffset":15936,
			"target":34962
		},
		{
			"buffer":0,
			"byteLength":768,
			"byteOffset":16704,
			"target":34962
		},
		{
			"buffer":0,
			"byteLength":512,
			"byteOffset":17472,
			"target":34962
		},
		{
			"buffer":0,
			"byteLength":768,
			"byteOffset":17984,
			"target":34962
		},
		{
			"buffer":0,
			"byteLength":768,
			"byteOffset":18752,
			"target":34962
		},
		{
			"buffer":0,
			"byteLength":512,
			"byteOffset":19520,
			"target":34962
		},
		{
			"buffer":0,
			"byteLength":8832,
			"byteOffset":20032,
			"target":34962
		},
		{
			"buffer":0,
			"byteLength":8832,
			"byteOffset":28864,
			"target":34962
		},
		{
			"buffer":0,
			"byteLength":5888,
			"byteOffset":37696,
			"target":34962
		},
		{
			"buffer":0,
			"byteLength":2400,
			"byteOffset":43584,
			"target":34963
		},
		{
			"buffer":0,
			"byteLength":504,
			"byteOffset":45984,
			"target":34962
		},
		{
			"buffer":0,
			"byteLength":504,
			"byteOffset":46488,
			"target":34962
		},
		{
			"buffer":0,
			"byteLength":336,
			"byteOffset":46992,
			"target":34962
		},
		{
			"buffer":0,
			"byteLength":144,
			"byteOffset":47328,
			"target":34963
		},
		{
			"buffer":0,
			"byteLength":6624,
			"byteOffset":47472,
			"target":34962
		},
		{
			"buffer":0,
			"byteLength":6624,
			"byteOffset":54096,
			"target":34962
		},
		{
			"buffer":0,
			"byteLength":4416,
			"byteOffset":60720,
			"target":34962
		},
		{
			"buffer":0,
			"byteLength":1800,
			"byteOffset":65136,
			"target":34963
		},
		{
			"buffer":0,
			"byteLength":1296,
			"byteOffset":66936,
			"target":34962
		},
		{
			"buffer":0,
			"byteLength":1296,
			"byteOffset":68232,
			"target":34962
		},
		{
			"buffer":0,
			"byteLength":864,
			"byteOffset":69528,
			"target":34962
		},
		{
			"buffer":0,
			"byteLength":648,
			"byteOffset":70392,
			"target":34963
		},
		{
			"buffer":0,
			"byteLength":1296,
			"byteOffset":71040,
			"target":34962
		},
		{
			"buffer":0,
			"byteLength":1296,
			"byteOffset":72336,
			"target":34962
		},
		{
			"buffer":0,
			"byteLength":864,
			"byteOffset":73632,
			"target":34962
		},
		{
			"buffer":0,
			"byteLength":408,
			"byteOffset":74496,
			"target":34963
		},
		{
			"buffer":0,
			"byteLength":144,
			"byteOffset":74904,
			"target":34962
		},
		{
			"buffer":0,
			"byteLength":144,
			"byteOffset":75048,
			"target":34962
		},
		{
			"buffer":0,
			"byteLength":96,
			"byteOffset":75192,
			"target":34962
		},
		{
			"buffer":0,
			"byteLength":36,
			"byteOffset":75288,
			"target":34963
		}
	],
	"samplers":[
		{
			"magFilter":9728,
			"minFilter":9984
		}
	],
	"buffers":[
		{
			"byteLength":75324,
			"uri":"mdl_poland_kamienica_3.bin"
		}
	]
}
