{
	"asset":{
		"generator":"Khronos glTF Blender I/O v4.0.44",
		"version":"2.0"
	},
	"scene":0,
	"scenes":[
		{
			"name":"Scene",
			"nodes":[
				0
			]
		}
	],
	"nodes":[
		{
			"mesh":0,
			"name":"Text",
			"rotation":[
				0.7071068286895752,
				0,
				0,
				0.7071068286895752
			]
		}
	],
	"materials":[
		{
			"doubleSided":true,
			"emissiveFactor":[
				0,
				1,
				0.012773427180945873
			],
			"name":"Frogshop",
			"pbrMetallicRoughness":{
				"baseColorFactor":[
					0,
					0.800315260887146,
					0.0055515943095088005,
					1
				],
				"metallicFactor":0,
				"roughnessFactor":0.5
			}
		}
	],
	"meshes":[
		{
			"name":"Text",
			"primitives":[
				{
					"attributes":{
						"POSITION":0,
						"NORMAL":1,
						"TEXCOORD_0":2
					},
					"indices":3,
					"material":0
				}
			]
		}
	],
	"accessors":[
		{
			"bufferView":0,
			"componentType":5126,
			"count":6890,
			"max":[
				1.4084599018096924,
				0,
				0.3276141583919525
			],
			"min":[
				-1.5160802602767944,
				-0.08777991682291031,
				-0.3131594657897949
			],
			"type":"VEC3"
		},
		{
			"bufferView":1,
			"componentType":5126,
			"count":6890,
			"type":"VEC3"
		},
		{
			"bufferView":2,
			"componentType":5126,
			"count":6890,
			"type":"VEC2"
		},
		{
			"bufferView":3,
			"componentType":5123,
			"count":12378,
			"type":"SCALAR"
		}
	],
	"bufferViews":[
		{
			"buffer":0,
			"byteLength":82680,
			"byteOffset":0,
			"target":34962
		},
		{
			"buffer":0,
			"byteLength":82680,
			"byteOffset":82680,
			"target":34962
		},
		{
			"buffer":0,
			"byteLength":55120,
			"byteOffset":165360,
			"target":34962
		},
		{
			"buffer":0,
			"byteLength":24756,
			"byteOffset":220480,
			"target":34963
		}
	],
	"buffers":[
		{
			"byteLength":245236,
			"uri":"mdl_poland_frogshop.bin"
		}
	]
}
