{
	"asset":{
		"generator":"Khronos glTF Blender I/O v4.0.44",
		"version":"2.0"
	},
	"extensionsUsed":[
		"KHR_materials_specular",
		"KHR_materials_ior"
	],
	"scene":0,
	"scenes":[
		{
			"name":"Scene",
			"nodes":[
				0
			]
		}
	],
	"nodes":[
		{
			"mesh":0,
			"name":"Base_1",
			"translation":[
				0.0003000000142492354,
				0.018391966819763184,
				-1.2942269677296281e-05
			]
		}
	],
	"materials":[
		{
			"doubleSided":true,
			"extensions":{
				"KHR_materials_specular":{
					"specularFactor":0
				},
				"KHR_materials_ior":{
					"ior":1.4500000476837158
				}
			},
			"name":"dools",
			"normalTexture":{
				"index":0
			},
			"pbrMetallicRoughness":{
				"baseColorTexture":{
					"index":1
				},
				"metallicFactor":0.5,
				"roughnessFactor":0.75
			}
		}
	],
	"meshes":[
		{
			"name":"23_Dool_B_p.002",
			"primitives":[
				{
					"attributes":{
						"POSITION":0,
						"NORMAL":1,
						"TEXCOORD_0":2
					},
					"indices":3,
					"material":0
				}
			]
		}
	],
	"textures":[
		{
			"sampler":0,
			"source":0
		},
		{
			"sampler":0,
			"source":1
		}
	],
	"images":[
		{
			"mimeType":"image/png",
			"name":"tx_hub_matryoshka_n",
			"uri":"tx_hub_matryoshka_n.png"
		},
		{
			"mimeType":"image/png",
			"name":"tx_hub_matryoshka_a",
			"uri":"tx_hub_matryoshka_a.png"
		}
	],
	"accessors":[
		{
			"bufferView":0,
			"componentType":5126,
			"count":1152,
			"max":[
				0.07497541606426239,
				0.09838449209928513,
				0.07500749826431274
			],
			"min":[
				-0.07603828608989716,
				-0.018389340490102768,
				-0.07500756531953812
			],
			"type":"VEC3"
		},
		{
			"bufferView":1,
			"componentType":5126,
			"count":1152,
			"type":"VEC3"
		},
		{
			"bufferView":2,
			"componentType":5126,
			"count":1152,
			"type":"VEC2"
		},
		{
			"bufferView":3,
			"componentType":5123,
			"count":6036,
			"type":"SCALAR"
		}
	],
	"bufferViews":[
		{
			"buffer":0,
			"byteLength":13824,
			"byteOffset":0,
			"target":34962
		},
		{
			"buffer":0,
			"byteLength":13824,
			"byteOffset":13824,
			"target":34962
		},
		{
			"buffer":0,
			"byteLength":9216,
			"byteOffset":27648,
			"target":34962
		},
		{
			"buffer":0,
			"byteLength":12072,
			"byteOffset":36864,
			"target":34963
		}
	],
	"samplers":[
		{
			"magFilter":9729,
			"minFilter":9987
		}
	],
	"buffers":[
		{
			"byteLength":48936,
			"uri":"mdl_hub_matryoshka_base1.bin"
		}
	]
}
