{
	"asset":{
		"generator":"Khronos glTF Blender I/O v4.0.44",
		"version":"2.0"
	},
	"scene":0,
	"scenes":[
		{
			"name":"Scene",
			"nodes":[
				0
			]
		}
	],
	"nodes":[
		{
			"mesh":0,
			"name":"Cube.031"
		}
	],
	"materials":[
		{
			"doubleSided":true,
			"name":"Trawnik",
			"pbrMetallicRoughness":{
				"baseColorTexture":{
					"index":0
				},
				"metallicFactor":0
			}
		}
	],
	"meshes":[
		{
			"name":"Cube.043",
			"primitives":[
				{
					"attributes":{
						"POSITION":0,
						"NORMAL":1,
						"TEXCOORD_0":2
					},
					"indices":3,
					"material":0
				}
			]
		}
	],
	"textures":[
		{
			"sampler":0,
			"source":0
		}
	],
	"images":[
		{
			"mimeType":"image/png",
			"name":"mdl_poland_trawnik",
			"uri":"mdl_poland_trawnik.png"
		}
	],
	"accessors":[
		{
			"bufferView":0,
			"componentType":5126,
			"count":570,
			"max":[
				0.5404577851295471,
				0.08063238859176636,
				0
			],
			"min":[
				-0.5404577851295471,
				0,
				-0.555626392364502
			],
			"type":"VEC3"
		},
		{
			"bufferView":1,
			"componentType":5126,
			"count":570,
			"type":"VEC3"
		},
		{
			"bufferView":2,
			"componentType":5126,
			"count":570,
			"type":"VEC2"
		},
		{
			"bufferView":3,
			"componentType":5123,
			"count":1623,
			"type":"SCALAR"
		}
	],
	"bufferViews":[
		{
			"buffer":0,
			"byteLength":6840,
			"byteOffset":0,
			"target":34962
		},
		{
			"buffer":0,
			"byteLength":6840,
			"byteOffset":6840,
			"target":34962
		},
		{
			"buffer":0,
			"byteLength":4560,
			"byteOffset":13680,
			"target":34962
		},
		{
			"buffer":0,
			"byteLength":3246,
			"byteOffset":18240,
			"target":34963
		}
	],
	"samplers":[
		{
			"magFilter":9729,
			"minFilter":9987
		}
	],
	"buffers":[
		{
			"byteLength":21488,
			"uri":"mdl_poland_grass_end.bin"
		}
	]
}
