{
	"asset":{
		"generator":"Khronos glTF Blender I/O v4.2.57",
		"version":"2.0"
	},
	"extensionsUsed":[
		"KHR_materials_specular",
		"KHR_materials_ior"
	],
	"scene":0,
	"scenes":[
		{
			"name":"Scene",
			"nodes":[
				0
			]
		}
	],
	"nodes":[
		{
			"mesh":0,
			"name":"Map Shelf"
		}
	],
	"materials":[
		{
			"doubleSided":true,
			"extensions":{
				"KHR_materials_specular":{
					"specularFactor":0
				}
			},
			"name":"Maps.002",
			"pbrMetallicRoughness":{
				"baseColorTexture":{
					"index":0
				},
				"metallicFactor":0,
				"roughnessFactor":0.7772727012634277
			}
		},
		{
			"doubleSided":true,
			"extensions":{
				"KHR_materials_specular":{
					"specularFactor":0
				},
				"KHR_materials_ior":{
					"ior":1
				}
			},
			"name":"Trim.001",
			"pbrMetallicRoughness":{
				"baseColorTexture":{
					"index":1
				},
				"metallicFactor":0,
				"roughnessFactor":0.8181818127632141
			}
		},
		{
			"doubleSided":true,
			"extensions":{
				"KHR_materials_specular":{
					"specularFactor":0
				}
			},
			"name":"Brick.001",
			"normalTexture":{
				"index":2,
				"scale":1.5
			},
			"pbrMetallicRoughness":{
				"baseColorTexture":{
					"index":3
				},
				"metallicFactor":0,
				"roughnessFactor":0.8227272629737854
			}
		}
	],
	"meshes":[
		{
			"name":"Plane.071",
			"primitives":[
				{
					"attributes":{
						"POSITION":0,
						"NORMAL":1,
						"TEXCOORD_0":2
					},
					"indices":3,
					"material":0
				},
				{
					"attributes":{
						"POSITION":4,
						"NORMAL":5,
						"TEXCOORD_0":6
					},
					"indices":7,
					"material":1
				},
				{
					"attributes":{
						"POSITION":8,
						"NORMAL":9,
						"TEXCOORD_0":10
					},
					"indices":11,
					"material":2
				}
			]
		}
	],
	"textures":[
		{
			"sampler":0,
			"source":0
		},
		{
			"sampler":0,
			"source":1
		},
		{
			"sampler":0,
			"source":2
		},
		{
			"sampler":0,
			"source":3
		}
	],
	"images":[
		{
			"mimeType":"image/png",
			"name":"tx_hub_mapwallColor",
			"uri":"tx_hub_mapwallColor.png"
		},
		{
			"mimeType":"image/png",
			"name":"tx_hub_TrimWoodColor",
			"uri":"tx_hub_TrimWoodColor.png"
		},
		{
			"mimeType":"image/jpeg",
			"name":"tx_hub_BricksNormal",
			"uri":"tx_hub_BricksNormal.jpg"
		},
		{
			"mimeType":"image/jpeg",
			"name":"tx_hub_BrickColor",
			"uri":"tx_hub_BrickColor.jpg"
		}
	],
	"accessors":[
		{
			"bufferView":0,
			"componentType":5126,
			"count":4,
			"max":[
				2.550433397293091,
				10.313766479492188,
				-6.911033630371094
			],
			"min":[
				-2.8758044242858887,
				-0.04121971130371094,
				-6.911033630371094
			],
			"type":"VEC3"
		},
		{
			"bufferView":1,
			"componentType":5126,
			"count":4,
			"type":"VEC3"
		},
		{
			"bufferView":2,
			"componentType":5126,
			"count":4,
			"type":"VEC2"
		},
		{
			"bufferView":3,
			"componentType":5123,
			"count":6,
			"type":"SCALAR"
		},
		{
			"bufferView":4,
			"componentType":5126,
			"count":218,
			"max":[
				5.904677867889404,
				10.313766479492188,
				5.938719749450684
			],
			"min":[
				-6.055302619934082,
				-0.04121971130371094,
				-7.0719428062438965
			],
			"type":"VEC3"
		},
		{
			"bufferView":5,
			"componentType":5126,
			"count":218,
			"type":"VEC3"
		},
		{
			"bufferView":6,
			"componentType":5126,
			"count":218,
			"type":"VEC2"
		},
		{
			"bufferView":7,
			"componentType":5123,
			"count":324,
			"type":"SCALAR"
		},
		{
			"bufferView":8,
			"componentType":5126,
			"count":18,
			"max":[
				6.0718865394592285,
				10.31376838684082,
				-5.9879913330078125
			],
			"min":[
				-6.071737289428711,
				-0.04121971130371094,
				-5.9879913330078125
			],
			"type":"VEC3"
		},
		{
			"bufferView":9,
			"componentType":5126,
			"count":18,
			"type":"VEC3"
		},
		{
			"bufferView":10,
			"componentType":5126,
			"count":18,
			"type":"VEC2"
		},
		{
			"bufferView":11,
			"componentType":5123,
			"count":48,
			"type":"SCALAR"
		}
	],
	"bufferViews":[
		{
			"buffer":0,
			"byteLength":48,
			"byteOffset":0,
			"target":34962
		},
		{
			"buffer":0,
			"byteLength":48,
			"byteOffset":48,
			"target":34962
		},
		{
			"buffer":0,
			"byteLength":32,
			"byteOffset":96,
			"target":34962
		},
		{
			"buffer":0,
			"byteLength":12,
			"byteOffset":128,
			"target":34963
		},
		{
			"buffer":0,
			"byteLength":2616,
			"byteOffset":140,
			"target":34962
		},
		{
			"buffer":0,
			"byteLength":2616,
			"byteOffset":2756,
			"target":34962
		},
		{
			"buffer":0,
			"byteLength":1744,
			"byteOffset":5372,
			"target":34962
		},
		{
			"buffer":0,
			"byteLength":648,
			"byteOffset":7116,
			"target":34963
		},
		{
			"buffer":0,
			"byteLength":216,
			"byteOffset":7764,
			"target":34962
		},
		{
			"buffer":0,
			"byteLength":216,
			"byteOffset":7980,
			"target":34962
		},
		{
			"buffer":0,
			"byteLength":144,
			"byteOffset":8196,
			"target":34962
		},
		{
			"buffer":0,
			"byteLength":96,
			"byteOffset":8340,
			"target":34963
		}
	],
	"samplers":[
		{
			"magFilter":9729,
			"minFilter":9987
		}
	],
	"buffers":[
		{
			"byteLength":8436,
			"uri":"mdl_brush_hubshelfwall.bin"
		}
	]
}
