{
	"asset":{
		"generator":"Khronos glTF Blender I/O v4.2.57",
		"version":"2.0"
	},
	"extensionsUsed":[
		"KHR_materials_specular",
		"KHR_materials_ior"
	],
	"scene":0,
	"scenes":[
		{
			"name":"Scene",
			"nodes":[
				0
			]
		}
	],
	"nodes":[
		{
			"mesh":0,
			"name":"Wall Textures Bake.035"
		}
	],
	"materials":[
		{
			"doubleSided":true,
			"extensions":{
				"KHR_materials_specular":{
					"specularFactor":0
				},
				"KHR_materials_ior":{
					"ior":1
				}
			},
			"name":"Trim.001",
			"pbrMetallicRoughness":{
				"baseColorTexture":{
					"index":0
				},
				"metallicFactor":0,
				"roughnessFactor":0.8181818127632141
			}
		},
		{
			"doubleSided":true,
			"name":"Wall bake.001",
			"pbrMetallicRoughness":{
				"baseColorTexture":{
					"index":1
				},
				"metallicFactor":0,
				"roughnessFactor":0.5
			}
		}
	],
	"meshes":[
		{
			"name":"Plane.094",
			"primitives":[
				{
					"attributes":{
						"POSITION":0,
						"NORMAL":1,
						"TEXCOORD_0":2
					},
					"indices":3,
					"material":0
				},
				{
					"attributes":{
						"POSITION":4,
						"NORMAL":5,
						"TEXCOORD_0":6
					},
					"indices":7,
					"material":1
				}
			]
		}
	],
	"textures":[
		{
			"sampler":0,
			"source":0
		},
		{
			"sampler":0,
			"source":1
		}
	],
	"images":[
		{
			"mimeType":"image/png",
			"name":"tx_hub_TrimWoodColor",
			"uri":"tx_hub_TrimWoodColor.png"
		},
		{
			"mimeType":"image/png",
			"name":"tx_hub_wallColor",
			"uri":"tx_hub_wallColor.png"
		}
	],
	"accessors":[
		{
			"bufferView":0,
			"componentType":5126,
			"count":1119,
			"max":[
				6.076466083526611,
				4.571634769439697,
				6.039987564086914
			],
			"min":[
				-2.7674715518951416,
				-0.04463686794042587,
				-6.017891883850098
			],
			"type":"VEC3"
		},
		{
			"bufferView":1,
			"componentType":5126,
			"count":1119,
			"type":"VEC3"
		},
		{
			"bufferView":2,
			"componentType":5126,
			"count":1119,
			"type":"VEC2"
		},
		{
			"bufferView":3,
			"componentType":5123,
			"count":2208,
			"type":"SCALAR"
		},
		{
			"bufferView":4,
			"componentType":5126,
			"count":193,
			"max":[
				6.0422587394714355,
				10.348000526428223,
				5.932209491729736
			],
			"min":[
				5.85471773147583,
				2.169337749481201,
				-6.010201930999756
			],
			"type":"VEC3"
		},
		{
			"bufferView":5,
			"componentType":5126,
			"count":193,
			"type":"VEC3"
		},
		{
			"bufferView":6,
			"componentType":5126,
			"count":193,
			"type":"VEC2"
		},
		{
			"bufferView":7,
			"componentType":5123,
			"count":447,
			"type":"SCALAR"
		}
	],
	"bufferViews":[
		{
			"buffer":0,
			"byteLength":13428,
			"byteOffset":0,
			"target":34962
		},
		{
			"buffer":0,
			"byteLength":13428,
			"byteOffset":13428,
			"target":34962
		},
		{
			"buffer":0,
			"byteLength":8952,
			"byteOffset":26856,
			"target":34962
		},
		{
			"buffer":0,
			"byteLength":4416,
			"byteOffset":35808,
			"target":34963
		},
		{
			"buffer":0,
			"byteLength":2316,
			"byteOffset":40224,
			"target":34962
		},
		{
			"buffer":0,
			"byteLength":2316,
			"byteOffset":42540,
			"target":34962
		},
		{
			"buffer":0,
			"byteLength":1544,
			"byteOffset":44856,
			"target":34962
		},
		{
			"buffer":0,
			"byteLength":894,
			"byteOffset":46400,
			"target":34963
		}
	],
	"samplers":[
		{
			"magFilter":9729,
			"minFilter":9987
		}
	],
	"buffers":[
		{
			"byteLength":47296,
			"uri":"mdl_hub_huboutwall.bin"
		}
	]
}
