{
	"asset":{
		"generator":"Khronos glTF Blender I/O v4.2.57",
		"version":"2.0"
	},
	"extensionsUsed":[
		"KHR_materials_transmission"
	],
	"scene":0,
	"scenes":[
		{
			"name":"Scene",
			"nodes":[
				2
			]
		}
	],
	"nodes":[
		{
			"mesh":0,
			"name":"Object_3",
			"scale":[
				0.39450526237487793,
				0.3945052921772003,
				0.39450526237487793
			]
		},
		{
			"children":[
				0
			],
			"name":"sticky hands and capsule.obj.cleaner.materialmerger.gles"
		},
		{
			"children":[
				1
			],
			"name":"Sketchfab_model",
			"rotation":[
				0.7003070116043091,
				0.09782732278108597,
				-0.11083796620368958,
				0.6983658671379089
			]
		}
	],
	"materials":[
		{
			"alphaMode":"BLEND",
			"doubleSided":true,
			"extensions":{
				"KHR_materials_transmission":{
					"transmissionFactor":0.6419036984443665
				}
			},
			"name":"Material.001",
			"pbrMetallicRoughness":{
				"baseColorFactor":[
					0.800000011920929,
					0.800000011920929,
					0.800000011920929,
					0.35809633135795593
				],
				"metallicFactor":0,
				"roughnessFactor":0.5139032602310181
			}
		}
	],
	"meshes":[
		{
			"name":"Object_1",
			"primitives":[
				{
					"attributes":{
						"POSITION":0,
						"NORMAL":1,
						"TEXCOORD_0":2
					},
					"indices":3,
					"material":0
				}
			]
		}
	],
	"accessors":[
		{
			"bufferView":0,
			"componentType":5126,
			"count":749,
			"max":[
				0.13657580316066742,
				0.1374301314353943,
				0.02978087216615677
			],
			"min":[
				-0.13500384986400604,
				-0.13415013253688812,
				-0.04971720278263092
			],
			"type":"VEC3"
		},
		{
			"bufferView":1,
			"componentType":5126,
			"count":749,
			"type":"VEC3"
		},
		{
			"bufferView":2,
			"componentType":5126,
			"count":749,
			"type":"VEC2"
		},
		{
			"bufferView":3,
			"componentType":5123,
			"count":3717,
			"type":"SCALAR"
		}
	],
	"bufferViews":[
		{
			"buffer":0,
			"byteLength":8988,
			"byteOffset":0,
			"target":34962
		},
		{
			"buffer":0,
			"byteLength":8988,
			"byteOffset":8988,
			"target":34962
		},
		{
			"buffer":0,
			"byteLength":5992,
			"byteOffset":17976,
			"target":34962
		},
		{
			"buffer":0,
			"byteLength":7434,
			"byteOffset":23968,
			"target":34963
		}
	],
	"buffers":[
		{
			"byteLength":31404,
			"uri":"mdl_brush_capsulelid.bin"
		}
	]
}
