{
	"asset":{
		"generator":"Khronos glTF Blender I/O v4.2.57",
		"version":"2.0"
	},
	"extensionsUsed":[
		"KHR_materials_specular",
		"KHR_materials_ior"
	],
	"scene":0,
	"scenes":[
		{
			"name":"Scene",
			"nodes":[
				0
			]
		}
	],
	"nodes":[
		{
			"mesh":0,
			"name":"Wall Textures Bake.063"
		}
	],
	"materials":[
		{
			"doubleSided":true,
			"extensions":{
				"KHR_materials_specular":{
					"specularFactor":0
				}
			},
			"name":"Light Wood.001",
			"normalTexture":{
				"index":0
			},
			"pbrMetallicRoughness":{
				"baseColorTexture":{
					"index":1
				},
				"metallicFactor":0,
				"roughnessFactor":0.7727272510528564
			}
		},
		{
			"doubleSided":true,
			"extensions":{
				"KHR_materials_specular":{
					"specularFactor":0
				},
				"KHR_materials_ior":{
					"ior":1
				}
			},
			"name":"Trim.001",
			"pbrMetallicRoughness":{
				"baseColorTexture":{
					"index":2
				},
				"metallicFactor":0,
				"roughnessFactor":0.8181818127632141
			}
		},
		{
			"doubleSided":true,
			"extensions":{
				"KHR_materials_specular":{
					"specularFactor":0
				}
			},
			"name":"iron.001",
			"normalTexture":{
				"index":3
			},
			"pbrMetallicRoughness":{
				"baseColorTexture":{
					"index":4
				},
				"metallicRoughnessTexture":{
					"index":5
				}
			}
		}
	],
	"meshes":[
		{
			"name":"Plane.001",
			"primitives":[
				{
					"attributes":{
						"POSITION":0,
						"NORMAL":1,
						"TEXCOORD_0":2
					},
					"indices":3,
					"material":0
				},
				{
					"attributes":{
						"POSITION":4,
						"NORMAL":5,
						"TEXCOORD_0":6
					},
					"indices":7,
					"material":1
				},
				{
					"attributes":{
						"POSITION":8,
						"NORMAL":9,
						"TEXCOORD_0":10
					},
					"indices":11,
					"material":2
				}
			]
		}
	],
	"textures":[
		{
			"sampler":0,
			"source":0
		},
		{
			"sampler":0,
			"source":1
		},
		{
			"sampler":0,
			"source":2
		},
		{
			"sampler":0,
			"source":3
		},
		{
			"sampler":0,
			"source":4
		},
		{
			"sampler":0,
			"source":4
		}
	],
	"images":[
		{
			"mimeType":"image/png",
			"name":"tx_hub_accentwoodNormal",
			"uri":"tx_hub_accentwoodNormal.png"
		},
		{
			"mimeType":"image/png",
			"name":"tx_hubAccentWoodColor",
			"uri":"tx_hubAccentWoodColor.png"
		},
		{
			"mimeType":"image/png",
			"name":"tx_hub_TrimWoodColor",
			"uri":"tx_hub_TrimWoodColor.png"
		},
		{
			"mimeType":"image/png",
			"name":"tx_hub_wroughtironNormal",
			"uri":"tx_hub_wroughtironNormal.png"
		},
		{
			"mimeType":"image/jpeg",
			"name":"tx_hub_wroughtironColor",
			"uri":"tx_hub_wroughtironColor.jpg"
		}
	],
	"accessors":[
		{
			"bufferView":0,
			"componentType":5126,
			"count":372,
			"max":[
				5.9313530921936035,
				5.146836280822754,
				5.968829154968262
			],
			"min":[
				-5.971977233886719,
				0.46723318099975586,
				0.5595740079879761
			],
			"type":"VEC3"
		},
		{
			"bufferView":1,
			"componentType":5126,
			"count":372,
			"type":"VEC3"
		},
		{
			"bufferView":2,
			"componentType":5126,
			"count":372,
			"type":"VEC2"
		},
		{
			"bufferView":3,
			"componentType":5123,
			"count":606,
			"type":"SCALAR"
		},
		{
			"bufferView":4,
			"componentType":5126,
			"count":3541,
			"max":[
				5.878908634185791,
				7.7522969245910645,
				3.0672826766967773
			],
			"min":[
				-5.851227283477783,
				-0.11405086517333984,
				0.6397199630737305
			],
			"type":"VEC3"
		},
		{
			"bufferView":5,
			"componentType":5126,
			"count":3541,
			"type":"VEC3"
		},
		{
			"bufferView":6,
			"componentType":5126,
			"count":3541,
			"type":"VEC2"
		},
		{
			"bufferView":7,
			"componentType":5123,
			"count":11274,
			"type":"SCALAR"
		},
		{
			"bufferView":8,
			"componentType":5126,
			"count":3874,
			"max":[
				5.063810348510742,
				6.957355499267578,
				2.9767708778381348
			],
			"min":[
				-5.545748710632324,
				0.9191685914993286,
				0.669951319694519
			],
			"type":"VEC3"
		},
		{
			"bufferView":9,
			"componentType":5126,
			"count":3874,
			"type":"VEC3"
		},
		{
			"bufferView":10,
			"componentType":5126,
			"count":3874,
			"type":"VEC2"
		},
		{
			"bufferView":11,
			"componentType":5123,
			"count":5130,
			"type":"SCALAR"
		}
	],
	"bufferViews":[
		{
			"buffer":0,
			"byteLength":4464,
			"byteOffset":0,
			"target":34962
		},
		{
			"buffer":0,
			"byteLength":4464,
			"byteOffset":4464,
			"target":34962
		},
		{
			"buffer":0,
			"byteLength":2976,
			"byteOffset":8928,
			"target":34962
		},
		{
			"buffer":0,
			"byteLength":1212,
			"byteOffset":11904,
			"target":34963
		},
		{
			"buffer":0,
			"byteLength":42492,
			"byteOffset":13116,
			"target":34962
		},
		{
			"buffer":0,
			"byteLength":42492,
			"byteOffset":55608,
			"target":34962
		},
		{
			"buffer":0,
			"byteLength":28328,
			"byteOffset":98100,
			"target":34962
		},
		{
			"buffer":0,
			"byteLength":22548,
			"byteOffset":126428,
			"target":34963
		},
		{
			"buffer":0,
			"byteLength":46488,
			"byteOffset":148976,
			"target":34962
		},
		{
			"buffer":0,
			"byteLength":46488,
			"byteOffset":195464,
			"target":34962
		},
		{
			"buffer":0,
			"byteLength":30992,
			"byteOffset":241952,
			"target":34962
		},
		{
			"buffer":0,
			"byteLength":10260,
			"byteOffset":272944,
			"target":34963
		}
	],
	"samplers":[
		{
			"magFilter":9729,
			"minFilter":9987
		}
	],
	"buffers":[
		{
			"byteLength":283204,
			"uri":"mdl_hub_CentralHub.bin"
		}
	]
}
