{
	"asset":{
		"generator":"Khronos glTF Blender I/O v4.0.44",
		"version":"2.0"
	},
	"scene":0,
	"scenes":[
		{
			"name":"Scene",
			"nodes":[
				0,
				1,
				2
			]
		}
	],
	"nodes":[
		{
			"mesh":0,
			"name":"Cube.058",
			"translation":[
				0,
				0.05000000074505806,
				0
			]
		},
		{
			"mesh":1,
			"name":"Cylinder.003",
			"translation":[
				0,
				0.5662883520126343,
				0
			]
		},
		{
			"mesh":2,
			"name":"Sphere",
			"scale":[
				0.1164398044347763,
				0.1164398044347763,
				0.1164398044347763
			],
			"translation":[
				0,
				1.2520955801010132,
				0
			]
		}
	],
	"materials":[
		{
			"doubleSided":true,
			"name":"Trawnik",
			"pbrMetallicRoughness":{
				"baseColorTexture":{
					"index":0
				},
				"metallicFactor":0
			}
		}
	],
	"meshes":[
		{
			"name":"Cube.035",
			"primitives":[
				{
					"attributes":{
						"POSITION":0,
						"NORMAL":1,
						"TEXCOORD_0":2
					},
					"indices":3,
					"material":0
				}
			]
		},
		{
			"name":"Cylinder.003",
			"primitives":[
				{
					"attributes":{
						"POSITION":4,
						"NORMAL":5,
						"TEXCOORD_0":6
					},
					"indices":7,
					"material":0
				}
			]
		},
		{
			"name":"Sphere",
			"primitives":[
				{
					"attributes":{
						"POSITION":8,
						"NORMAL":9,
						"TEXCOORD_0":10
					},
					"indices":11,
					"material":0
				}
			]
		}
	],
	"textures":[
		{
			"sampler":0,
			"source":0
		}
	],
	"images":[
		{
			"mimeType":"image/png",
			"name":"mdl_poland_trawnik",
			"uri":"mdl_poland_trawnik.png"
		}
	],
	"accessors":[
		{
			"bufferView":0,
			"componentType":5126,
			"count":72,
			"max":[
				0.10000000149011612,
				0.05000000074505806,
				0.10000000149011612
			],
			"min":[
				-0.10000000149011612,
				-0.05000000074505806,
				-0.10000000149011612
			],
			"type":"VEC3"
		},
		{
			"bufferView":1,
			"componentType":5126,
			"count":72,
			"type":"VEC3"
		},
		{
			"bufferView":2,
			"componentType":5126,
			"count":72,
			"type":"VEC2"
		},
		{
			"bufferView":3,
			"componentType":5123,
			"count":108,
			"type":"SCALAR"
		},
		{
			"bufferView":4,
			"componentType":5126,
			"count":154,
			"max":[
				0.095829077064991,
				0.5921104550361633,
				0.095829077064991
			],
			"min":[
				-0.095829077064991,
				-0.5331562161445618,
				-0.095829077064991
			],
			"type":"VEC3"
		},
		{
			"bufferView":5,
			"componentType":5126,
			"count":154,
			"type":"VEC3"
		},
		{
			"bufferView":6,
			"componentType":5126,
			"count":154,
			"type":"VEC2"
		},
		{
			"bufferView":7,
			"componentType":5123,
			"count":258,
			"type":"SCALAR"
		},
		{
			"bufferView":8,
			"componentType":5126,
			"count":114,
			"max":[
				0.9999999403953552,
				1,
				0.9999998807907104
			],
			"min":[
				-0.9999998807907104,
				-1,
				-0.9999998807907104
			],
			"type":"VEC3"
		},
		{
			"bufferView":9,
			"componentType":5126,
			"count":114,
			"type":"VEC3"
		},
		{
			"bufferView":10,
			"componentType":5126,
			"count":114,
			"type":"VEC2"
		},
		{
			"bufferView":11,
			"componentType":5123,
			"count":240,
			"type":"SCALAR"
		}
	],
	"bufferViews":[
		{
			"buffer":0,
			"byteLength":864,
			"byteOffset":0,
			"target":34962
		},
		{
			"buffer":0,
			"byteLength":864,
			"byteOffset":864,
			"target":34962
		},
		{
			"buffer":0,
			"byteLength":576,
			"byteOffset":1728,
			"target":34962
		},
		{
			"buffer":0,
			"byteLength":216,
			"byteOffset":2304,
			"target":34963
		},
		{
			"buffer":0,
			"byteLength":1848,
			"byteOffset":2520,
			"target":34962
		},
		{
			"buffer":0,
			"byteLength":1848,
			"byteOffset":4368,
			"target":34962
		},
		{
			"buffer":0,
			"byteLength":1232,
			"byteOffset":6216,
			"target":34962
		},
		{
			"buffer":0,
			"byteLength":516,
			"byteOffset":7448,
			"target":34963
		},
		{
			"buffer":0,
			"byteLength":1368,
			"byteOffset":7964,
			"target":34962
		},
		{
			"buffer":0,
			"byteLength":1368,
			"byteOffset":9332,
			"target":34962
		},
		{
			"buffer":0,
			"byteLength":912,
			"byteOffset":10700,
			"target":34962
		},
		{
			"buffer":0,
			"byteLength":480,
			"byteOffset":11612,
			"target":34963
		}
	],
	"samplers":[
		{
			"magFilter":9729,
			"minFilter":9987
		}
	],
	"buffers":[
		{
			"byteLength":12092,
			"uri":"mdl_poland_pole.bin"
		}
	]
}
