{
	"asset":{
		"generator":"Khronos glTF Blender I/O v4.0.44",
		"version":"2.0"
	},
	"extensionsUsed":[
		"KHR_materials_transmission",
		"KHR_materials_ior"
	],
	"scene":0,
	"scenes":[
		{
			"name":"Scene",
			"nodes":[
				0,
				1
			]
		}
	],
	"nodes":[
		{
			"mesh":0,
			"name":"Cylinder.016",
			"scale":[
				1,
				0.1590309739112854,
				1
			],
			"translation":[
				0,
				-0.18492862582206726,
				0
			]
		},
		{
			"mesh":1,
			"name":"Cube.062",
			"scale":[
				0.5747278928756714,
				0.5747278928756714,
				0.5747278928756714
			],
			"translation":[
				0,
				1.0311055183410645,
				0
			]
		}
	],
	"materials":[
		{
			"doubleSided":true,
			"name":"Ramka",
			"pbrMetallicRoughness":{
				"baseColorTexture":{
					"index":0
				},
				"metallicFactor":0.6863636374473572,
				"roughnessFactor":0.800000011920929
			}
		},
		{
			"doubleSided":true,
			"extensions":{
				"KHR_materials_transmission":{
					"transmissionFactor":1
				},
				"KHR_materials_ior":{
					"ior":1.4500000476837158
				}
			},
			"name":"Szklo",
			"pbrMetallicRoughness":{
				"baseColorFactor":[
					0.8007433414459229,
					0.8007433414459229,
					0.8007433414459229,
					1
				],
				"metallicFactor":0,
				"roughnessFactor":0.10000000149011612
			}
		}
	],
	"meshes":[
		{
			"name":"Cylinder.016",
			"primitives":[
				{
					"attributes":{
						"POSITION":0,
						"NORMAL":1,
						"TEXCOORD_0":2
					},
					"indices":3,
					"material":0
				}
			]
		},
		{
			"name":"Cube.061",
			"primitives":[
				{
					"attributes":{
						"POSITION":4,
						"NORMAL":5,
						"TEXCOORD_0":6
					},
					"indices":7,
					"material":1
				}
			]
		}
	],
	"textures":[
		{
			"sampler":0,
			"source":0
		}
	],
	"images":[
		{
			"mimeType":"image/png",
			"name":"mdl_poland_frame",
			"uri":"mdl_poland_frame.png"
		}
	],
	"accessors":[
		{
			"bufferView":0,
			"componentType":5126,
			"count":270,
			"max":[
				1,
				3.4987893104553223,
				1
			],
			"min":[
				-1,
				-1,
				-1
			],
			"type":"VEC3"
		},
		{
			"bufferView":1,
			"componentType":5126,
			"count":270,
			"type":"VEC3"
		},
		{
			"bufferView":2,
			"componentType":5126,
			"count":270,
			"type":"VEC2"
		},
		{
			"bufferView":3,
			"componentType":5123,
			"count":756,
			"type":"SCALAR"
		},
		{
			"bufferView":4,
			"componentType":5126,
			"count":178,
			"max":[
				1.7320505380630493,
				1.7320505380630493,
				1.7320505380630493
			],
			"min":[
				-1.7320505380630493,
				-1.1397897005081177,
				-1.7320505380630493
			],
			"type":"VEC3"
		},
		{
			"bufferView":5,
			"componentType":5126,
			"count":178,
			"type":"VEC3"
		},
		{
			"bufferView":6,
			"componentType":5126,
			"count":178,
			"type":"VEC2"
		},
		{
			"bufferView":7,
			"componentType":5123,
			"count":1056,
			"type":"SCALAR"
		}
	],
	"bufferViews":[
		{
			"buffer":0,
			"byteLength":3240,
			"byteOffset":0,
			"target":34962
		},
		{
			"buffer":0,
			"byteLength":3240,
			"byteOffset":3240,
			"target":34962
		},
		{
			"buffer":0,
			"byteLength":2160,
			"byteOffset":6480,
			"target":34962
		},
		{
			"buffer":0,
			"byteLength":1512,
			"byteOffset":8640,
			"target":34963
		},
		{
			"buffer":0,
			"byteLength":2136,
			"byteOffset":10152,
			"target":34962
		},
		{
			"buffer":0,
			"byteLength":2136,
			"byteOffset":12288,
			"target":34962
		},
		{
			"buffer":0,
			"byteLength":1424,
			"byteOffset":14424,
			"target":34962
		},
		{
			"buffer":0,
			"byteLength":2112,
			"byteOffset":15848,
			"target":34963
		}
	],
	"samplers":[
		{
			"magFilter":9728,
			"minFilter":9984
		}
	],
	"buffers":[
		{
			"byteLength":17960,
			"uri":"mdl_poland_souvenir.bin"
		}
	]
}
