{
	"asset":{
		"generator":"Khronos glTF Blender I/O v4.0.44",
		"version":"2.0"
	},
	"scene":0,
	"scenes":[
		{
			"name":"Scene",
			"nodes":[
				0
			]
		}
	],
	"nodes":[
		{
			"mesh":0,
			"name":"Cube",
			"rotation":[
				0.6123725771903992,
				0.6123722791671753,
				0.35355329513549805,
				0.3535534739494324
			]
		}
	],
	"materials":[
		{
			"doubleSided":true,
			"name":"Material.001",
			"normalTexture":{
				"index":0,
				"scale":0.20000000298023224
			},
			"pbrMetallicRoughness":{
				"baseColorTexture":{
					"index":1
				},
				"metallicFactor":0,
				"metallicRoughnessTexture":{
					"index":2
				}
			}
		}
	],
	"meshes":[
		{
			"name":"Cube.001",
			"primitives":[
				{
					"attributes":{
						"POSITION":0,
						"NORMAL":1,
						"TEXCOORD_0":2
					},
					"indices":3,
					"material":0
				}
			]
		}
	],
	"textures":[
		{
			"sampler":0,
			"source":0
		},
		{
			"sampler":0,
			"source":1
		},
		{
			"sampler":0,
			"source":2
		}
	],
	"images":[
		{
			"mimeType":"image/png",
			"name":"tx_apa_Rock_Wall_NRM",
			"uri":"tx_apa_Rock_Wall_NRM.png"
		},
		{
			"mimeType":"image/png",
			"name":"tx_apa_equil_input",
			"uri":"tx_apa_equil_input.png"
		},
		{
			"mimeType":"image/png",
			"name":"tx_apa_Rock_Wall_DIFF",
			"uri":"tx_apa_Rock_Wall_DIFF.png"
		}
	],
	"accessors":[
		{
			"bufferView":0,
			"componentType":5126,
			"count":290,
			"max":[
				0.9999998807907104,
				1.2671871185302734,
				1.097739815711975
			],
			"min":[
				-1.0000001192092896,
				-0.638799786567688,
				-1.0987327098846436
			],
			"type":"VEC3"
		},
		{
			"bufferView":1,
			"componentType":5126,
			"count":290,
			"type":"VEC3"
		},
		{
			"bufferView":2,
			"componentType":5126,
			"count":290,
			"type":"VEC2"
		},
		{
			"bufferView":3,
			"componentType":5123,
			"count":456,
			"type":"SCALAR"
		}
	],
	"bufferViews":[
		{
			"buffer":0,
			"byteLength":3480,
			"byteOffset":0,
			"target":34962
		},
		{
			"buffer":0,
			"byteLength":3480,
			"byteOffset":3480,
			"target":34962
		},
		{
			"buffer":0,
			"byteLength":2320,
			"byteOffset":6960,
			"target":34962
		},
		{
			"buffer":0,
			"byteLength":912,
			"byteOffset":9280,
			"target":34963
		}
	],
	"samplers":[
		{
			"magFilter":9729,
			"minFilter":9987
		}
	],
	"buffers":[
		{
			"byteLength":10192,
			"uri":"mdl_apa_EquilateralInput.bin"
		}
	]
}
