{
	"asset":{
		"generator":"Khronos glTF Blender I/O v4.3.47",
		"version":"2.0"
	},
	"extensionsUsed":[
		"KHR_materials_specular"
	],
	"scene":0,
	"scenes":[
		{
			"name":"Scene",
			"nodes":[
				0
			]
		}
	],
	"nodes":[
		{
			"mesh":0,
			"name":"CinemaChairs"
		}
	],
	"materials":[
		{
			"doubleSided":true,
			"extensions":{
				"KHR_materials_specular":{
					"specularFactor":0
				}
			},
			"name":"Plastic",
			"pbrMetallicRoughness":{
				"baseColorFactor":[
					0.015996191650629044,
					0.015996308997273445,
					0.015996301546692848,
					1
				],
				"metallicFactor":0,
				"roughnessFactor":0.75
			}
		},
		{
			"doubleSided":true,
			"extensions":{
				"KHR_materials_specular":{
					"specularFactor":0
				}
			},
			"name":"Fabric",
			"normalTexture":{
				"index":0
			},
			"pbrMetallicRoughness":{
				"baseColorTexture":{
					"index":1
				},
				"metallicFactor":0
			}
		},
		{
			"doubleSided":true,
			"extensions":{
				"KHR_materials_specular":{
					"specularFactor":0
				}
			},
			"name":"Metal",
			"pbrMetallicRoughness":{
				"baseColorFactor":[
					0.015996191650629044,
					0.015996308997273445,
					0.015996301546692848,
					1
				],
				"roughnessFactor":0.75
			}
		}
	],
	"meshes":[
		{
			"name":"1.006",
			"primitives":[
				{
					"attributes":{
						"POSITION":0,
						"NORMAL":1,
						"TEXCOORD_0":2
					},
					"indices":3,
					"material":0
				},
				{
					"attributes":{
						"POSITION":4,
						"NORMAL":5,
						"TEXCOORD_0":6
					},
					"indices":7,
					"material":1
				},
				{
					"attributes":{
						"POSITION":8,
						"NORMAL":9,
						"TEXCOORD_0":10
					},
					"indices":11,
					"material":2
				}
			]
		}
	],
	"textures":[
		{
			"sampler":0,
			"source":0
		},
		{
			"sampler":0,
			"source":1
		}
	],
	"images":[
		{
			"mimeType":"image/png",
			"name":"tx_hub_cinema_chairs_normal",
			"uri":"tx_hub_cinema_chairs_normal.png"
		},
		{
			"mimeType":"image/png",
			"name":"tx_hub_cinema_chairs_diffuse",
			"uri":"tx_hub_cinema_chairs_diffuse.png"
		}
	],
	"accessors":[
		{
			"bufferView":0,
			"componentType":5126,
			"count":3000,
			"max":[
				0.36367952823638916,
				0.8193948864936829,
				1.8374727964401245
			],
			"min":[
				-0.3316369950771332,
				0.7116338610649109,
				-1.8378318548202515
			],
			"type":"VEC3"
		},
		{
			"bufferView":1,
			"componentType":5126,
			"count":3000,
			"type":"VEC3"
		},
		{
			"bufferView":2,
			"componentType":5126,
			"count":3000,
			"type":"VEC2"
		},
		{
			"bufferView":3,
			"componentType":5123,
			"count":12600,
			"type":"SCALAR"
		},
		{
			"bufferView":4,
			"componentType":5126,
			"count":2638,
			"max":[
				0.44656237959861755,
				1.2086485624313354,
				1.8245621919631958
			],
			"min":[
				-0.40066468715667725,
				0.2853506803512573,
				-1.8249214887619019
			],
			"type":"VEC3"
		},
		{
			"bufferView":5,
			"componentType":5126,
			"count":2638,
			"type":"VEC3"
		},
		{
			"bufferView":6,
			"componentType":5126,
			"count":2638,
			"type":"VEC2"
		},
		{
			"bufferView":7,
			"componentType":5123,
			"count":10452,
			"type":"SCALAR"
		},
		{
			"bufferView":8,
			"componentType":5126,
			"count":1704,
			"max":[
				0.35609808564186096,
				0.29095280170440674,
				1.8246461153030396
			],
			"min":[
				-0.35609808564186096,
				8.778661140240729e-07,
				-1.8250051736831665
			],
			"type":"VEC3"
		},
		{
			"bufferView":9,
			"componentType":5126,
			"count":1704,
			"type":"VEC3"
		},
		{
			"bufferView":10,
			"componentType":5126,
			"count":1704,
			"type":"VEC2"
		},
		{
			"bufferView":11,
			"componentType":5123,
			"count":9432,
			"type":"SCALAR"
		}
	],
	"bufferViews":[
		{
			"buffer":0,
			"byteLength":36000,
			"byteOffset":0,
			"target":34962
		},
		{
			"buffer":0,
			"byteLength":36000,
			"byteOffset":36000,
			"target":34962
		},
		{
			"buffer":0,
			"byteLength":24000,
			"byteOffset":72000,
			"target":34962
		},
		{
			"buffer":0,
			"byteLength":25200,
			"byteOffset":96000,
			"target":34963
		},
		{
			"buffer":0,
			"byteLength":31656,
			"byteOffset":121200,
			"target":34962
		},
		{
			"buffer":0,
			"byteLength":31656,
			"byteOffset":152856,
			"target":34962
		},
		{
			"buffer":0,
			"byteLength":21104,
			"byteOffset":184512,
			"target":34962
		},
		{
			"buffer":0,
			"byteLength":20904,
			"byteOffset":205616,
			"target":34963
		},
		{
			"buffer":0,
			"byteLength":20448,
			"byteOffset":226520,
			"target":34962
		},
		{
			"buffer":0,
			"byteLength":20448,
			"byteOffset":246968,
			"target":34962
		},
		{
			"buffer":0,
			"byteLength":13632,
			"byteOffset":267416,
			"target":34962
		},
		{
			"buffer":0,
			"byteLength":18864,
			"byteOffset":281048,
			"target":34963
		}
	],
	"samplers":[
		{
			"magFilter":9729,
			"minFilter":9987
		}
	],
	"buffers":[
		{
			"byteLength":299912,
			"uri":"mdl_hub_cinema_chairs.bin"
		}
	]
}
