{
	"asset":{
		"generator":"Khronos glTF Blender I/O v4.0.44",
		"version":"2.0"
	},
	"scene":0,
	"scenes":[
		{
			"name":"Scene",
			"nodes":[
				13
			]
		}
	],
	"nodes":[
		{
			"mesh":0,
			"name":"Cube.019"
		},
		{
			"mesh":1,
			"name":"Cube.020",
			"translation":[
				0,
				-0.7714793682098389,
				0
			]
		},
		{
			"mesh":2,
			"name":"Cube.021",
			"translation":[
				0.19973397254943848,
				1.1043001413345337,
				0.7452805638313293
			]
		},
		{
			"mesh":3,
			"name":"Cube.022",
			"translation":[
				0.5786095857620239,
				0.3379153907299042,
				0.7452808022499084
			]
		},
		{
			"mesh":4,
			"name":"Cube.023",
			"translation":[
				0,
				0.7714794278144836,
				0
			]
		},
		{
			"mesh":5,
			"name":"Cube.024",
			"scale":[
				1,
				0.8010814189910889,
				1
			],
			"translation":[
				0.3861660957336426,
				-0.49643850326538086,
				-0.05102376267313957
			]
		},
		{
			"mesh":6,
			"name":"Cube.025",
			"translation":[
				0.014160871505737305,
				-0.41417860984802246,
				-0.05102376267313957
			]
		},
		{
			"mesh":7,
			"name":"Cube.026",
			"translation":[
				0.7736421823501587,
				-0.788856029510498,
				0.7388694286346436
			]
		},
		{
			"mesh":8,
			"name":"Cube.027",
			"translation":[
				0,
				-1.5429587364196777,
				0
			]
		},
		{
			"mesh":9,
			"name":"Cube.029",
			"translation":[
				0,
				-0.0243033766746521,
				0
			]
		},
		{
			"mesh":10,
			"name":"Cube.030",
			"translation":[
				0.49444660544395447,
				-0.0243033766746521,
				0
			]
		},
		{
			"mesh":11,
			"name":"Cube.033",
			"translation":[
				0,
				1.1818819046020508,
				0
			]
		},
		{
			"mesh":12,
			"name":"Cube.034",
			"translation":[
				0,
				1.468850016593933,
				0
			]
		},
		{
			"children":[
				0,
				1,
				2,
				3,
				4,
				5,
				6,
				7,
				8,
				9,
				10,
				11,
				12
			],
			"mesh":13,
			"name":"Cube.018",
			"translation":[
				0,
				-0.6834964752197266,
				0
			]
		}
	],
	"materials":[
		{
			"doubleSided":true,
			"name":"Material.007",
			"pbrMetallicRoughness":{
				"baseColorTexture":{
					"index":0
				},
				"metallicFactor":0,
				"roughnessFactor":0.8045454621315002
			}
		},
		{
			"doubleSided":true,
			"name":"Material.007",
			"pbrMetallicRoughness":{
				"baseColorTexture":{
					"index":1
				},
				"metallicFactor":0,
				"roughnessFactor":0.8045454621315002
			}
		}
	],
	"meshes":[
		{
			"name":"Cube.015",
			"primitives":[
				{
					"attributes":{
						"POSITION":0,
						"NORMAL":1,
						"TEXCOORD_0":2
					},
					"indices":3,
					"material":0
				}
			]
		},
		{
			"name":"Cube.016",
			"primitives":[
				{
					"attributes":{
						"POSITION":4,
						"NORMAL":5,
						"TEXCOORD_0":6
					},
					"indices":3,
					"material":0
				}
			]
		},
		{
			"name":"Cube",
			"primitives":[
				{
					"attributes":{
						"POSITION":7,
						"NORMAL":8,
						"TEXCOORD_0":9
					},
					"indices":10,
					"material":0
				}
			]
		},
		{
			"name":"Cube.038",
			"primitives":[
				{
					"attributes":{
						"POSITION":11,
						"NORMAL":12,
						"TEXCOORD_0":13
					},
					"indices":14,
					"material":0
				}
			]
		},
		{
			"name":"Cube.022",
			"primitives":[
				{
					"attributes":{
						"POSITION":15,
						"NORMAL":16,
						"TEXCOORD_0":17
					},
					"indices":3,
					"material":0
				}
			]
		},
		{
			"name":"Cube.023",
			"primitives":[
				{
					"attributes":{
						"POSITION":18,
						"NORMAL":19,
						"TEXCOORD_0":20
					},
					"indices":21,
					"material":0
				}
			]
		},
		{
			"name":"Cube.024",
			"primitives":[
				{
					"attributes":{
						"POSITION":22,
						"NORMAL":23,
						"TEXCOORD_0":24
					},
					"indices":25,
					"material":0
				}
			]
		},
		{
			"name":"Cube.025",
			"primitives":[
				{
					"attributes":{
						"POSITION":26,
						"NORMAL":27,
						"TEXCOORD_0":28
					},
					"indices":29,
					"material":0
				}
			]
		},
		{
			"name":"Cube.026",
			"primitives":[
				{
					"attributes":{
						"POSITION":30,
						"NORMAL":31,
						"TEXCOORD_0":32
					},
					"indices":3,
					"material":0
				}
			]
		},
		{
			"name":"Cube.028",
			"primitives":[
				{
					"attributes":{
						"POSITION":33,
						"NORMAL":34,
						"TEXCOORD_0":35
					},
					"indices":36,
					"material":1
				}
			]
		},
		{
			"name":"Cube.029",
			"primitives":[
				{
					"attributes":{
						"POSITION":37,
						"NORMAL":38,
						"TEXCOORD_0":39
					},
					"indices":40,
					"material":0
				}
			]
		},
		{
			"name":"Cube.036",
			"primitives":[
				{
					"attributes":{
						"POSITION":41,
						"NORMAL":42,
						"TEXCOORD_0":43
					},
					"indices":44,
					"material":1
				}
			]
		},
		{
			"name":"Cube.037",
			"primitives":[
				{
					"attributes":{
						"POSITION":45,
						"NORMAL":46,
						"TEXCOORD_0":47
					},
					"indices":3,
					"material":0
				}
			]
		},
		{
			"name":"Cube.014",
			"primitives":[
				{
					"attributes":{
						"POSITION":48,
						"NORMAL":49,
						"TEXCOORD_0":50
					},
					"indices":51,
					"material":0
				}
			]
		}
	],
	"textures":[
		{
			"sampler":0,
			"source":0
		},
		{
			"sampler":0,
			"source":0
		}
	],
	"images":[
		{
			"mimeType":"image/png",
			"name":"mdl_poland_Untitled",
			"uri":"mdl_poland_Untitled.png"
		}
	],
	"accessors":[
		{
			"bufferView":0,
			"componentType":5126,
			"count":64,
			"max":[
				0.8374853134155273,
				0.07444088906049728,
				0.8374853134155273
			],
			"min":[
				-0.8374853134155273,
				-0.07444088906049728,
				0.6201427578926086
			],
			"type":"VEC3"
		},
		{
			"bufferView":1,
			"componentType":5126,
			"count":64,
			"type":"VEC3"
		},
		{
			"bufferView":2,
			"componentType":5126,
			"count":64,
			"type":"VEC2"
		},
		{
			"bufferView":3,
			"componentType":5123,
			"count":90,
			"type":"SCALAR"
		},
		{
			"bufferView":4,
			"componentType":5126,
			"count":64,
			"max":[
				0.8374853134155273,
				0.07444088906049728,
				0.8374853134155273
			],
			"min":[
				-0.8374853134155273,
				-0.07444088906049728,
				0.6201427578926086
			],
			"type":"VEC3"
		},
		{
			"bufferView":5,
			"componentType":5126,
			"count":64,
			"type":"VEC3"
		},
		{
			"bufferView":6,
			"componentType":5126,
			"count":64,
			"type":"VEC2"
		},
		{
			"bufferView":7,
			"componentType":5126,
			"count":736,
			"max":[
				0.09804583340883255,
				0.19463375210762024,
				0.09804583340883255
			],
			"min":[
				-0.4975137710571289,
				-2.4952046871185303,
				0.04268157109618187
			],
			"type":"VEC3"
		},
		{
			"bufferView":8,
			"componentType":5126,
			"count":736,
			"type":"VEC3"
		},
		{
			"bufferView":9,
			"componentType":5126,
			"count":736,
			"type":"VEC2"
		},
		{
			"bufferView":10,
			"componentType":5123,
			"count":1200,
			"type":"SCALAR"
		},
		{
			"bufferView":11,
			"componentType":5126,
			"count":552,
			"max":[
				0.09804583340883255,
				0.19463375210762024,
				0.09804583340883255
			],
			"min":[
				-1.2552649974822998,
				-1.728347659111023,
				0.04268157109618187
			],
			"type":"VEC3"
		},
		{
			"bufferView":12,
			"componentType":5126,
			"count":552,
			"type":"VEC3"
		},
		{
			"bufferView":13,
			"componentType":5126,
			"count":552,
			"type":"VEC2"
		},
		{
			"bufferView":14,
			"componentType":5123,
			"count":900,
			"type":"SCALAR"
		},
		{
			"bufferView":15,
			"componentType":5126,
			"count":64,
			"max":[
				0.8374853134155273,
				0.07444088906049728,
				0.8374853134155273
			],
			"min":[
				-0.8374853134155273,
				-0.07444088906049728,
				0.6201427578926086
			],
			"type":"VEC3"
		},
		{
			"bufferView":16,
			"componentType":5126,
			"count":64,
			"type":"VEC3"
		},
		{
			"bufferView":17,
			"componentType":5126,
			"count":64,
			"type":"VEC2"
		},
		{
			"bufferView":18,
			"componentType":5126,
			"count":84,
			"max":[
				0.04224652051925659,
				2.4860241413116455,
				0.8374853134155273
			],
			"min":[
				-0.8145787119865417,
				-1.3867141008377075,
				0.32381004095077515
			],
			"type":"VEC3"
		},
		{
			"bufferView":19,
			"componentType":5126,
			"count":84,
			"type":"VEC3"
		},
		{
			"bufferView":20,
			"componentType":5126,
			"count":84,
			"type":"VEC2"
		},
		{
			"bufferView":21,
			"componentType":5123,
			"count":120,
			"type":"SCALAR"
		},
		{
			"bufferView":22,
			"componentType":5126,
			"count":64,
			"max":[
				0.042246509343385696,
				1.9350740909576416,
				0.8374853134155273
			],
			"min":[
				-0.04224652051925659,
				-1.0793919563293457,
				0.6201427578926086
			],
			"type":"VEC3"
		},
		{
			"bufferView":23,
			"componentType":5126,
			"count":64,
			"type":"VEC3"
		},
		{
			"bufferView":24,
			"componentType":5126,
			"count":64,
			"type":"VEC2"
		},
		{
			"bufferView":25,
			"componentType":5123,
			"count":90,
			"type":"SCALAR"
		},
		{
			"bufferView":26,
			"componentType":5126,
			"count":128,
			"max":[
				0.0422464944422245,
				1.5768170356750488,
				0.04333138093352318
			],
			"min":[
				-1.5895308256149292,
				-1.536311388015747,
				-0.04333138093352318
			],
			"type":"VEC3"
		},
		{
			"bufferView":27,
			"componentType":5126,
			"count":128,
			"type":"VEC3"
		},
		{
			"bufferView":28,
			"componentType":5126,
			"count":128,
			"type":"VEC2"
		},
		{
			"bufferView":29,
			"componentType":5123,
			"count":180,
			"type":"SCALAR"
		},
		{
			"bufferView":30,
			"componentType":5126,
			"count":64,
			"max":[
				0.8374853134155273,
				0.07444088906049728,
				0.8374853134155273
			],
			"min":[
				-0.8374853134155273,
				-0.07444088906049728,
				0.6201427578926086
			],
			"type":"VEC3"
		},
		{
			"bufferView":31,
			"componentType":5126,
			"count":64,
			"type":"VEC3"
		},
		{
			"bufferView":32,
			"componentType":5126,
			"count":64,
			"type":"VEC2"
		},
		{
			"bufferView":33,
			"componentType":5126,
			"count":111,
			"max":[
				0.21382282674312592,
				-1.7566251754760742,
				0.8517387509346008
			],
			"min":[
				-0.21382282674312592,
				-2.3160183429718018,
				0.7288724184036255
			],
			"type":"VEC3"
		},
		{
			"bufferView":34,
			"componentType":5126,
			"count":111,
			"type":"VEC3"
		},
		{
			"bufferView":35,
			"componentType":5126,
			"count":111,
			"type":"VEC2"
		},
		{
			"bufferView":36,
			"componentType":5123,
			"count":267,
			"type":"SCALAR"
		},
		{
			"bufferView":37,
			"componentType":5126,
			"count":222,
			"max":[
				0.21382282674312592,
				-1.7566251754760742,
				0.8517387509346008
			],
			"min":[
				-1.2027159929275513,
				-2.3160183429718018,
				0.7288724184036255
			],
			"type":"VEC3"
		},
		{
			"bufferView":38,
			"componentType":5126,
			"count":222,
			"type":"VEC3"
		},
		{
			"bufferView":39,
			"componentType":5126,
			"count":222,
			"type":"VEC2"
		},
		{
			"bufferView":40,
			"componentType":5123,
			"count":534,
			"type":"SCALAR"
		},
		{
			"bufferView":41,
			"componentType":5126,
			"count":42,
			"max":[
				0.3829350173473358,
				0.6082392334938049,
				0.7714794278144836
			],
			"min":[
				-0.3829350173473358,
				-0.3829350173473358,
				0.1747986078262329
			],
			"type":"VEC3"
		},
		{
			"bufferView":42,
			"componentType":5126,
			"count":42,
			"type":"VEC3"
		},
		{
			"bufferView":43,
			"componentType":5126,
			"count":42,
			"type":"VEC2"
		},
		{
			"bufferView":44,
			"componentType":5123,
			"count":72,
			"type":"SCALAR"
		},
		{
			"bufferView":45,
			"componentType":5126,
			"count":64,
			"max":[
				0.4552992880344391,
				0.07444088906049728,
				0.8374853134155273
			],
			"min":[
				-0.4552992880344391,
				-0.07444088906049728,
				0.3465588688850403
			],
			"type":"VEC3"
		},
		{
			"bufferView":46,
			"componentType":5126,
			"count":64,
			"type":"VEC3"
		},
		{
			"bufferView":47,
			"componentType":5126,
			"count":64,
			"type":"VEC2"
		},
		{
			"bufferView":48,
			"componentType":5126,
			"count":108,
			"max":[
				0.7757437825202942,
				2.065035343170166,
				0.7714794278144836
			],
			"min":[
				-0.7757437825202942,
				-2.3216392993927,
				-0.7714794278144836
			],
			"type":"VEC3"
		},
		{
			"bufferView":49,
			"componentType":5126,
			"count":108,
			"type":"VEC3"
		},
		{
			"bufferView":50,
			"componentType":5126,
			"count":108,
			"type":"VEC2"
		},
		{
			"bufferView":51,
			"componentType":5123,
			"count":324,
			"type":"SCALAR"
		}
	],
	"bufferViews":[
		{
			"buffer":0,
			"byteLength":768,
			"byteOffset":0,
			"target":34962
		},
		{
			"buffer":0,
			"byteLength":768,
			"byteOffset":768,
			"target":34962
		},
		{
			"buffer":0,
			"byteLength":512,
			"byteOffset":1536,
			"target":34962
		},
		{
			"buffer":0,
			"byteLength":180,
			"byteOffset":2048,
			"target":34963
		},
		{
			"buffer":0,
			"byteLength":768,
			"byteOffset":2228,
			"target":34962
		},
		{
			"buffer":0,
			"byteLength":768,
			"byteOffset":2996,
			"target":34962
		},
		{
			"buffer":0,
			"byteLength":512,
			"byteOffset":3764,
			"target":34962
		},
		{
			"buffer":0,
			"byteLength":8832,
			"byteOffset":4276,
			"target":34962
		},
		{
			"buffer":0,
			"byteLength":8832,
			"byteOffset":13108,
			"target":34962
		},
		{
			"buffer":0,
			"byteLength":5888,
			"byteOffset":21940,
			"target":34962
		},
		{
			"buffer":0,
			"byteLength":2400,
			"byteOffset":27828,
			"target":34963
		},
		{
			"buffer":0,
			"byteLength":6624,
			"byteOffset":30228,
			"target":34962
		},
		{
			"buffer":0,
			"byteLength":6624,
			"byteOffset":36852,
			"target":34962
		},
		{
			"buffer":0,
			"byteLength":4416,
			"byteOffset":43476,
			"target":34962
		},
		{
			"buffer":0,
			"byteLength":1800,
			"byteOffset":47892,
			"target":34963
		},
		{
			"buffer":0,
			"byteLength":768,
			"byteOffset":49692,
			"target":34962
		},
		{
			"buffer":0,
			"byteLength":768,
			"byteOffset":50460,
			"target":34962
		},
		{
			"buffer":0,
			"byteLength":512,
			"byteOffset":51228,
			"target":34962
		},
		{
			"buffer":0,
			"byteLength":1008,
			"byteOffset":51740,
			"target":34962
		},
		{
			"buffer":0,
			"byteLength":1008,
			"byteOffset":52748,
			"target":34962
		},
		{
			"buffer":0,
			"byteLength":672,
			"byteOffset":53756,
			"target":34962
		},
		{
			"buffer":0,
			"byteLength":240,
			"byteOffset":54428,
			"target":34963
		},
		{
			"buffer":0,
			"byteLength":768,
			"byteOffset":54668,
			"target":34962
		},
		{
			"buffer":0,
			"byteLength":768,
			"byteOffset":55436,
			"target":34962
		},
		{
			"buffer":0,
			"byteLength":512,
			"byteOffset":56204,
			"target":34962
		},
		{
			"buffer":0,
			"byteLength":180,
			"byteOffset":56716,
			"target":34963
		},
		{
			"buffer":0,
			"byteLength":1536,
			"byteOffset":56896,
			"target":34962
		},
		{
			"buffer":0,
			"byteLength":1536,
			"byteOffset":58432,
			"target":34962
		},
		{
			"buffer":0,
			"byteLength":1024,
			"byteOffset":59968,
			"target":34962
		},
		{
			"buffer":0,
			"byteLength":360,
			"byteOffset":60992,
			"target":34963
		},
		{
			"buffer":0,
			"byteLength":768,
			"byteOffset":61352,
			"target":34962
		},
		{
			"buffer":0,
			"byteLength":768,
			"byteOffset":62120,
			"target":34962
		},
		{
			"buffer":0,
			"byteLength":512,
			"byteOffset":62888,
			"target":34962
		},
		{
			"buffer":0,
			"byteLength":1332,
			"byteOffset":63400,
			"target":34962
		},
		{
			"buffer":0,
			"byteLength":1332,
			"byteOffset":64732,
			"target":34962
		},
		{
			"buffer":0,
			"byteLength":888,
			"byteOffset":66064,
			"target":34962
		},
		{
			"buffer":0,
			"byteLength":534,
			"byteOffset":66952,
			"target":34963
		},
		{
			"buffer":0,
			"byteLength":2664,
			"byteOffset":67488,
			"target":34962
		},
		{
			"buffer":0,
			"byteLength":2664,
			"byteOffset":70152,
			"target":34962
		},
		{
			"buffer":0,
			"byteLength":1776,
			"byteOffset":72816,
			"target":34962
		},
		{
			"buffer":0,
			"byteLength":1068,
			"byteOffset":74592,
			"target":34963
		},
		{
			"buffer":0,
			"byteLength":504,
			"byteOffset":75660,
			"target":34962
		},
		{
			"buffer":0,
			"byteLength":504,
			"byteOffset":76164,
			"target":34962
		},
		{
			"buffer":0,
			"byteLength":336,
			"byteOffset":76668,
			"target":34962
		},
		{
			"buffer":0,
			"byteLength":144,
			"byteOffset":77004,
			"target":34963
		},
		{
			"buffer":0,
			"byteLength":768,
			"byteOffset":77148,
			"target":34962
		},
		{
			"buffer":0,
			"byteLength":768,
			"byteOffset":77916,
			"target":34962
		},
		{
			"buffer":0,
			"byteLength":512,
			"byteOffset":78684,
			"target":34962
		},
		{
			"buffer":0,
			"byteLength":1296,
			"byteOffset":79196,
			"target":34962
		},
		{
			"buffer":0,
			"byteLength":1296,
			"byteOffset":80492,
			"target":34962
		},
		{
			"buffer":0,
			"byteLength":864,
			"byteOffset":81788,
			"target":34962
		},
		{
			"buffer":0,
			"byteLength":648,
			"byteOffset":82652,
			"target":34963
		}
	],
	"samplers":[
		{
			"magFilter":9729,
			"minFilter":9987
		}
	],
	"buffers":[
		{
			"byteLength":83300,
			"uri":"mdl_poland_kamienica_2.bin"
		}
	]
}
