{
	"asset":{
		"generator":"Khronos glTF Blender I/O v4.2.57",
		"version":"2.0"
	},
	"extensionsUsed":[
		"KHR_materials_specular",
		"KHR_materials_ior"
	],
	"scene":0,
	"scenes":[
		{
			"name":"Scene",
			"nodes":[
				0
			]
		}
	],
	"nodes":[
		{
			"mesh":0,
			"name":"Wall Textures Bake.003"
		}
	],
	"materials":[
		{
			"doubleSided":true,
			"extensions":{
				"KHR_materials_specular":{
					"specularFactor":0
				},
				"KHR_materials_ior":{
					"ior":1
				}
			},
			"name":"Trim.001",
			"pbrMetallicRoughness":{
				"baseColorTexture":{
					"index":0
				},
				"metallicFactor":0,
				"roughnessFactor":0.8181818127632141
			}
		},
		{
			"doubleSided":true,
			"extensions":{
				"KHR_materials_specular":{
					"specularFactor":0
				}
			},
			"name":"Brick.001",
			"normalTexture":{
				"index":1,
				"scale":1.5
			},
			"pbrMetallicRoughness":{
				"baseColorTexture":{
					"index":2
				},
				"metallicFactor":0,
				"roughnessFactor":0.8227272629737854
			}
		},
		{
			"doubleSided":true,
			"name":"whitewall.001",
			"pbrMetallicRoughness":{
				"baseColorTexture":{
					"index":3
				},
				"metallicFactor":0,
				"roughnessFactor":0.5
			}
		},
		{
			"doubleSided":true,
			"extensions":{
				"KHR_materials_specular":{
					"specularColorFactor":[
						0.4742715358734131,
						0.4742715358734131,
						0.4742715358734131
					]
				},
				"KHR_materials_ior":{
					"ior":1.4500000476837158
				}
			},
			"name":"Material.006",
			"normalTexture":{
				"index":4
			},
			"pbrMetallicRoughness":{
				"baseColorTexture":{
					"index":5
				},
				"metallicFactor":0,
				"roughnessFactor":0.5
			}
		},
		{
			"doubleSided":true,
			"extensions":{
				"KHR_materials_specular":{
					"specularFactor":0
				}
			},
			"name":"Light Wood.001",
			"normalTexture":{
				"index":6
			},
			"pbrMetallicRoughness":{
				"baseColorTexture":{
					"index":7
				},
				"metallicFactor":0,
				"roughnessFactor":0.7727272510528564
			}
		}
	],
	"meshes":[
		{
			"name":"Plane.010",
			"primitives":[
				{
					"attributes":{
						"POSITION":0,
						"NORMAL":1,
						"TEXCOORD_0":2
					},
					"indices":3,
					"material":0
				},
				{
					"attributes":{
						"POSITION":4,
						"NORMAL":5,
						"TEXCOORD_0":6
					},
					"indices":7,
					"material":1
				},
				{
					"attributes":{
						"POSITION":8,
						"NORMAL":9,
						"TEXCOORD_0":10
					},
					"indices":11,
					"material":2
				},
				{
					"attributes":{
						"POSITION":12,
						"NORMAL":13,
						"TEXCOORD_0":14
					},
					"indices":15,
					"material":3
				},
				{
					"attributes":{
						"POSITION":16,
						"NORMAL":17,
						"TEXCOORD_0":18
					},
					"indices":19,
					"material":4
				}
			]
		}
	],
	"textures":[
		{
			"sampler":0,
			"source":0
		},
		{
			"sampler":0,
			"source":1
		},
		{
			"sampler":0,
			"source":2
		},
		{
			"sampler":0,
			"source":3
		},
		{
			"sampler":0,
			"source":4
		},
		{
			"sampler":0,
			"source":5
		},
		{
			"sampler":0,
			"source":6
		},
		{
			"sampler":0,
			"source":7
		}
	],
	"images":[
		{
			"mimeType":"image/png",
			"name":"tx_hub_TrimWoodColor",
			"uri":"tx_hub_TrimWoodColor.png"
		},
		{
			"mimeType":"image/jpeg",
			"name":"tx_hub_BricksNormal",
			"uri":"tx_hub_BricksNormal.jpg"
		},
		{
			"mimeType":"image/jpeg",
			"name":"tx_hub_BrickColor",
			"uri":"tx_hub_BrickColor.jpg"
		},
		{
			"mimeType":"image/png",
			"name":"tx_wollo_wallpaper_",
			"uri":"tx_wollo_wallpaper_.png"
		},
		{
			"mimeType":"image/png",
			"name":"Wood009_1K-PNG_NormalGL",
			"uri":"Wood009_1K-PNG_NormalGL.png"
		},
		{
			"mimeType":"image/png",
			"name":"Wood009_1K-PNG_Color",
			"uri":"Wood009_1K-PNG_Color.png"
		},
		{
			"mimeType":"image/png",
			"name":"tx_hub_accentwoodNormal",
			"uri":"tx_hub_accentwoodNormal.png"
		},
		{
			"mimeType":"image/png",
			"name":"tx_hubAccentWoodColor",
			"uri":"tx_hubAccentWoodColor.png"
		}
	],
	"accessors":[
		{
			"bufferView":0,
			"componentType":5126,
			"count":897,
			"max":[
				6.105551242828369,
				10.37270450592041,
				6.016855239868164
			],
			"min":[
				-19.377666473388672,
				-0.08995366096496582,
				-6.924280166625977
			],
			"type":"VEC3"
		},
		{
			"bufferView":1,
			"componentType":5126,
			"count":897,
			"type":"VEC3"
		},
		{
			"bufferView":2,
			"componentType":5126,
			"count":897,
			"type":"VEC2"
		},
		{
			"bufferView":3,
			"componentType":5123,
			"count":1410,
			"type":"SCALAR"
		},
		{
			"bufferView":4,
			"componentType":5126,
			"count":142,
			"max":[
				6.033461093902588,
				10.322739601135254,
				5.973802089691162
			],
			"min":[
				-19.33743667602539,
				-0.044859036803245544,
				-5.99976110458374
			],
			"type":"VEC3"
		},
		{
			"bufferView":5,
			"componentType":5126,
			"count":142,
			"type":"VEC3"
		},
		{
			"bufferView":6,
			"componentType":5126,
			"count":142,
			"type":"VEC2"
		},
		{
			"bufferView":7,
			"componentType":5123,
			"count":333,
			"type":"SCALAR"
		},
		{
			"bufferView":8,
			"componentType":5126,
			"count":84,
			"max":[
				-5.982398986816406,
				10.322739601135254,
				5.9415717124938965
			],
			"min":[
				-19.33743667602539,
				-0.07004547119140625,
				-5.986851215362549
			],
			"type":"VEC3"
		},
		{
			"bufferView":9,
			"componentType":5126,
			"count":84,
			"type":"VEC3"
		},
		{
			"bufferView":10,
			"componentType":5126,
			"count":84,
			"type":"VEC2"
		},
		{
			"bufferView":11,
			"componentType":5123,
			"count":180,
			"type":"SCALAR"
		},
		{
			"bufferView":12,
			"componentType":5126,
			"count":661,
			"max":[
				-9.218240737915039,
				0.010142326354980469,
				6.054887771606445
			],
			"min":[
				-19.471675872802734,
				-6.3242363929748535,
				2.3071389198303223
			],
			"type":"VEC3"
		},
		{
			"bufferView":13,
			"componentType":5126,
			"count":661,
			"type":"VEC3"
		},
		{
			"bufferView":14,
			"componentType":5126,
			"count":661,
			"type":"VEC2"
		},
		{
			"bufferView":15,
			"componentType":5123,
			"count":1017,
			"type":"SCALAR"
		},
		{
			"bufferView":16,
			"componentType":5126,
			"count":14,
			"max":[
				-6.047700881958008,
				0.00657282629981637,
				5.964263916015625
			],
			"min":[
				-13.483499526977539,
				-0.3306603729724884,
				-5.964263916015625
			],
			"type":"VEC3"
		},
		{
			"bufferView":17,
			"componentType":5126,
			"count":14,
			"type":"VEC3"
		},
		{
			"bufferView":18,
			"componentType":5126,
			"count":14,
			"type":"VEC2"
		},
		{
			"bufferView":19,
			"componentType":5123,
			"count":30,
			"type":"SCALAR"
		}
	],
	"bufferViews":[
		{
			"buffer":0,
			"byteLength":10764,
			"byteOffset":0,
			"target":34962
		},
		{
			"buffer":0,
			"byteLength":10764,
			"byteOffset":10764,
			"target":34962
		},
		{
			"buffer":0,
			"byteLength":7176,
			"byteOffset":21528,
			"target":34962
		},
		{
			"buffer":0,
			"byteLength":2820,
			"byteOffset":28704,
			"target":34963
		},
		{
			"buffer":0,
			"byteLength":1704,
			"byteOffset":31524,
			"target":34962
		},
		{
			"buffer":0,
			"byteLength":1704,
			"byteOffset":33228,
			"target":34962
		},
		{
			"buffer":0,
			"byteLength":1136,
			"byteOffset":34932,
			"target":34962
		},
		{
			"buffer":0,
			"byteLength":666,
			"byteOffset":36068,
			"target":34963
		},
		{
			"buffer":0,
			"byteLength":1008,
			"byteOffset":36736,
			"target":34962
		},
		{
			"buffer":0,
			"byteLength":1008,
			"byteOffset":37744,
			"target":34962
		},
		{
			"buffer":0,
			"byteLength":672,
			"byteOffset":38752,
			"target":34962
		},
		{
			"buffer":0,
			"byteLength":360,
			"byteOffset":39424,
			"target":34963
		},
		{
			"buffer":0,
			"byteLength":7932,
			"byteOffset":39784,
			"target":34962
		},
		{
			"buffer":0,
			"byteLength":7932,
			"byteOffset":47716,
			"target":34962
		},
		{
			"buffer":0,
			"byteLength":5288,
			"byteOffset":55648,
			"target":34962
		},
		{
			"buffer":0,
			"byteLength":2034,
			"byteOffset":60936,
			"target":34963
		},
		{
			"buffer":0,
			"byteLength":168,
			"byteOffset":62972,
			"target":34962
		},
		{
			"buffer":0,
			"byteLength":168,
			"byteOffset":63140,
			"target":34962
		},
		{
			"buffer":0,
			"byteLength":112,
			"byteOffset":63308,
			"target":34962
		},
		{
			"buffer":0,
			"byteLength":60,
			"byteOffset":63420,
			"target":34963
		}
	],
	"samplers":[
		{
			"magFilter":9729,
			"minFilter":9987
		}
	],
	"buffers":[
		{
			"byteLength":63480,
			"uri":"mdl_brush_hubstarting.bin"
		}
	]
}
