{
	"asset":{
		"generator":"Khronos glTF Blender I/O v4.1.63",
		"version":"2.0"
	},
	"scene":0,
	"scenes":[
		{
			"name":"Scene",
			"nodes":[
				5
			]
		}
	],
	"nodes":[
		{
			"name":"basis"
		},
		{
			"mesh":0,
			"name":"Collegium_Carolinum_hanover2_diffuse_0"
		},
		{
			"children":[
				1
			],
			"name":"Collegium_Carolinum"
		},
		{
			"children":[
				0,
				2
			],
			"name":"RootNode"
		},
		{
			"children":[
				3
			],
			"name":"Collegium Carolinum.fbx",
			"rotation":[
				0.70710688829422,
				0,
				0,
				0.7071066498756409
			]
		},
		{
			"children":[
				4
			],
			"name":"Sketchfab_model",
			"rotation":[
				-0.7071070075035095,
				0,
				0,
				0.7071065902709961
			],
			"scale":[
				38.14328384399414,
				38.143287658691406,
				38.143287658691406
			]
		}
	],
	"materials":[
		{
			"doubleSided":true,
			"name":"hanover2_diffuse.001",
			"pbrMetallicRoughness":{
				"baseColorTexture":{
					"index":0
				},
				"metallicFactor":0
			}
		}
	],
	"meshes":[
		{
			"name":"Collegium_Carolinum_hanover2_diffuse_0",
			"primitives":[
				{
					"attributes":{
						"POSITION":0,
						"NORMAL":1,
						"TEXCOORD_0":2,
						"TEXCOORD_1":3,
						"TEXCOORD_2":4,
						"TEXCOORD_3":5,
						"TEXCOORD_4":6,
						"TEXCOORD_5":7,
						"TEXCOORD_6":8,
						"TEXCOORD_7":9
					},
					"indices":10,
					"material":0
				}
			]
		}
	],
	"textures":[
		{
			"sampler":0,
			"source":0
		}
	],
	"images":[
		{
			"mimeType":"image/png",
			"name":"hanover2_diffuse_baseColor",
			"uri":"hanover2_diffuse_baseColor.png"
		}
	],
	"accessors":[
		{
			"bufferView":0,
			"componentType":5126,
			"count":6189,
			"max":[
				0.32285794615745544,
				0.35125112533569336,
				0.08385710418224335
			],
			"min":[
				-0.30324825644493103,
				-0.21040822565555573,
				-0.220820352435112
			],
			"type":"VEC3"
		},
		{
			"bufferView":1,
			"componentType":5126,
			"count":6189,
			"type":"VEC3"
		},
		{
			"bufferView":2,
			"componentType":5126,
			"count":6189,
			"type":"VEC2"
		},
		{
			"bufferView":3,
			"componentType":5126,
			"count":6189,
			"type":"VEC2"
		},
		{
			"bufferView":4,
			"componentType":5126,
			"count":6189,
			"type":"VEC2"
		},
		{
			"bufferView":5,
			"componentType":5126,
			"count":6189,
			"type":"VEC2"
		},
		{
			"bufferView":6,
			"componentType":5126,
			"count":6189,
			"type":"VEC2"
		},
		{
			"bufferView":7,
			"componentType":5126,
			"count":6189,
			"type":"VEC2"
		},
		{
			"bufferView":8,
			"componentType":5126,
			"count":6189,
			"type":"VEC2"
		},
		{
			"bufferView":9,
			"componentType":5126,
			"count":6189,
			"type":"VEC2"
		},
		{
			"bufferView":10,
			"componentType":5123,
			"count":11556,
			"type":"SCALAR"
		}
	],
	"bufferViews":[
		{
			"buffer":0,
			"byteLength":74268,
			"byteOffset":0,
			"target":34962
		},
		{
			"buffer":0,
			"byteLength":74268,
			"byteOffset":74268,
			"target":34962
		},
		{
			"buffer":0,
			"byteLength":49512,
			"byteOffset":148536,
			"target":34962
		},
		{
			"buffer":0,
			"byteLength":49512,
			"byteOffset":198048,
			"target":34962
		},
		{
			"buffer":0,
			"byteLength":49512,
			"byteOffset":247560,
			"target":34962
		},
		{
			"buffer":0,
			"byteLength":49512,
			"byteOffset":297072,
			"target":34962
		},
		{
			"buffer":0,
			"byteLength":49512,
			"byteOffset":346584,
			"target":34962
		},
		{
			"buffer":0,
			"byteLength":49512,
			"byteOffset":396096,
			"target":34962
		},
		{
			"buffer":0,
			"byteLength":49512,
			"byteOffset":445608,
			"target":34962
		},
		{
			"buffer":0,
			"byteLength":49512,
			"byteOffset":495120,
			"target":34962
		},
		{
			"buffer":0,
			"byteLength":23112,
			"byteOffset":544632,
			"target":34963
		}
	],
	"samplers":[
		{
			"magFilter":9729,
			"minFilter":9987
		}
	],
	"buffers":[
		{
			"byteLength":567744,
			"uri":"scene.bin"
		}
	]
}
