{
	"asset":{
		"generator":"Khronos glTF Blender I/O v4.3.47",
		"version":"2.0"
	},
	"scene":0,
	"scenes":[
		{
			"name":"Scene",
			"nodes":[
				0,
				1,
				2,
				3
			]
		}
	],
	"nodes":[
		{
			"mesh":0,
			"name":"buildings-core",
			"translation":[
				0,
				329.6068115234375,
				0
			]
		},
		{
			"mesh":1,
			"name":"land",
			"translation":[
				0,
				329.60699462890625,
				0
			]
		},
		{
			"mesh":2,
			"name":"canoe",
			"translation":[
				-750.5848999023438,
				19.973960876464844,
				389.1654357910156
			]
		},
		{
			"mesh":3,
			"name":"moose",
			"rotation":[
				-0.5640082955360413,
				0.4192216992378235,
				-0.4706055223941803,
				0.5335524678230286
			],
			"scale":[
				47.1207275390625,
				47.1207275390625,
				47.1207275390625
			],
			"translation":[
				804.0382690429688,
				46.22207260131836,
				-388.8143310546875
			]
		}
	],
	"materials":[
		{
			"doubleSided":true,
			"name":"wall",
			"pbrMetallicRoughness":{
				"baseColorTexture":{
					"index":0
				},
				"roughnessFactor":0.30000001192092896
			}
		},
		{
			"doubleSided":true,
			"name":"ceiling",
			"pbrMetallicRoughness":{
				"metallicFactor":0.20000000298023224,
				"roughnessFactor":0.30000001192092896
			}
		},
		{
			"doubleSided":true,
			"name":"flagpole",
			"pbrMetallicRoughness":{
				"baseColorFactor":[
					0.800000011920929,
					0.800000011920929,
					0.800000011920929,
					1
				],
				"roughnessFactor":0.20000000298023224
			}
		},
		{
			"doubleSided":true,
			"name":"flag",
			"pbrMetallicRoughness":{
				"baseColorTexture":{
					"index":1
				},
				"metallicFactor":0,
				"roughnessFactor":0.5
			}
		},
		{
			"doubleSided":true,
			"name":"land.003",
			"pbrMetallicRoughness":{
				"baseColorTexture":{
					"index":2
				},
				"metallicFactor":0,
				"roughnessFactor":0.5
			}
		},
		{
			"doubleSided":true,
			"name":"canoe",
			"pbrMetallicRoughness":{
				"baseColorFactor":[
					0.43169161677360535,
					0,
					0.0036430908367037773,
					1
				],
				"metallicFactor":0.699999988079071,
				"roughnessFactor":0.5
			}
		},
		{
			"doubleSided":true,
			"name":"moose.001",
			"pbrMetallicRoughness":{
				"baseColorFactor":[
					0.8005045056343079,
					0.2593913972377777,
					0,
					1
				],
				"roughnessFactor":0.4000000059604645
			}
		}
	],
	"meshes":[
		{
			"name":"map_22.osm_buildings.004",
			"primitives":[
				{
					"attributes":{
						"POSITION":0,
						"NORMAL":1,
						"TEXCOORD_0":2,
						"COLOR_0":3,
						"COLOR_1":4
					},
					"indices":5,
					"material":0
				},
				{
					"attributes":{
						"POSITION":6,
						"NORMAL":7,
						"TEXCOORD_0":8,
						"COLOR_0":9,
						"COLOR_1":10
					},
					"indices":11,
					"material":1
				},
				{
					"attributes":{
						"POSITION":12,
						"NORMAL":13,
						"TEXCOORD_0":14,
						"COLOR_0":15,
						"COLOR_1":16
					},
					"indices":17,
					"material":2
				},
				{
					"attributes":{
						"POSITION":18,
						"NORMAL":19,
						"TEXCOORD_0":20,
						"COLOR_0":21,
						"COLOR_1":22
					},
					"indices":23,
					"material":3
				}
			]
		},
		{
			"name":"map_21.osm_water.004",
			"primitives":[
				{
					"attributes":{
						"POSITION":24,
						"NORMAL":25,
						"TEXCOORD_0":26
					},
					"indices":27,
					"material":4
				}
			]
		},
		{
			"name":"Cube",
			"primitives":[
				{
					"attributes":{
						"POSITION":28,
						"NORMAL":29
					},
					"indices":30,
					"material":5
				}
			]
		},
		{
			"name":"Model.001",
			"primitives":[
				{
					"attributes":{
						"POSITION":31,
						"NORMAL":32,
						"COLOR_0":33,
						"COLOR_1":34
					},
					"indices":35,
					"material":6
				}
			]
		}
	],
	"textures":[
		{
			"sampler":0,
			"source":0
		},
		{
			"sampler":0,
			"source":1
		},
		{
			"sampler":0,
			"source":2
		}
	],
	"images":[
		{
			"mimeType":"image/jpeg",
			"name":"tx_zesty_buildingside",
			"uri":"tx_zesty_buildingside.jpg"
		},
		{
			"mimeType":"image/png",
			"name":"tx_zesty_flag",
			"uri":"tx_zesty_flag.png"
		},
		{
			"mimeType":"image/jpeg",
			"name":"toronto-satellite",
			"uri":"toronto-satellite.jpg"
		}
	],
	"accessors":[
		{
			"bufferView":0,
			"componentType":5126,
			"count":32967,
			"max":[
				2256.92236328125,
				-31.6068115234375,
				1213.0748291015625
			],
			"min":[
				-1621.29541015625,
				-333.5071105957031,
				-3422.091064453125
			],
			"type":"VEC3"
		},
		{
			"bufferView":1,
			"componentType":5126,
			"count":32967,
			"type":"VEC3"
		},
		{
			"bufferView":2,
			"componentType":5126,
			"count":32967,
			"type":"VEC2"
		},
		{
			"bufferView":3,
			"componentType":5121,
			"count":32967,
			"normalized":true,
			"type":"VEC4"
		},
		{
			"bufferView":4,
			"componentType":5123,
			"count":32967,
			"normalized":true,
			"type":"VEC4"
		},
		{
			"bufferView":5,
			"componentType":5123,
			"count":50844,
			"type":"SCALAR"
		},
		{
			"bufferView":6,
			"componentType":5126,
			"count":14308,
			"max":[
				2276.734130859375,
				-31.6068115234375,
				1227.5927734375
			],
			"min":[
				-1622.0694580078125,
				-330.7800598144531,
				-3428.357666015625
			],
			"type":"VEC3"
		},
		{
			"bufferView":7,
			"componentType":5126,
			"count":14308,
			"type":"VEC3"
		},
		{
			"bufferView":8,
			"componentType":5126,
			"count":14308,
			"type":"VEC2"
		},
		{
			"bufferView":9,
			"componentType":5121,
			"count":14308,
			"normalized":true,
			"type":"VEC4"
		},
		{
			"bufferView":10,
			"componentType":5123,
			"count":14308,
			"normalized":true,
			"type":"VEC4"
		},
		{
			"bufferView":11,
			"componentType":5123,
			"count":34263,
			"type":"SCALAR"
		},
		{
			"bufferView":12,
			"componentType":5126,
			"count":36,
			"max":[
				-265.15460205078125,
				-139.1135711669922,
				-543.2711181640625
			],
			"min":[
				-266.47796630859375,
				-188.18606567382812,
				-544.594482421875
			],
			"type":"VEC3"
		},
		{
			"bufferView":13,
			"componentType":5126,
			"count":36,
			"type":"VEC3"
		},
		{
			"bufferView":14,
			"componentType":5126,
			"count":36,
			"type":"VEC2"
		},
		{
			"bufferView":15,
			"componentType":5121,
			"count":36,
			"normalized":true,
			"type":"VEC4"
		},
		{
			"bufferView":16,
			"componentType":5123,
			"count":36,
			"normalized":true,
			"type":"VEC4"
		},
		{
			"bufferView":17,
			"componentType":5123,
			"count":72,
			"type":"SCALAR"
		},
		{
			"bufferView":18,
			"componentType":5126,
			"count":4,
			"max":[
				-242.07040405273438,
				-139.1135711669922,
				-544.1265258789062
			],
			"min":[
				-265.3483581542969,
				-151.887939453125,
				-553.7649536132812
			],
			"type":"VEC3"
		},
		{
			"bufferView":19,
			"componentType":5126,
			"count":4,
			"type":"VEC3"
		},
		{
			"bufferView":20,
			"componentType":5126,
			"count":4,
			"type":"VEC2"
		},
		{
			"bufferView":21,
			"componentType":5121,
			"count":4,
			"normalized":true,
			"type":"VEC4"
		},
		{
			"bufferView":22,
			"componentType":5123,
			"count":4,
			"normalized":true,
			"type":"VEC4"
		},
		{
			"bufferView":23,
			"componentType":5123,
			"count":6,
			"type":"SCALAR"
		},
		{
			"bufferView":24,
			"componentType":5126,
			"count":232,
			"max":[
				5396.66552734375,
				-316.941162109375,
				3394.837890625
			],
			"min":[
				-4336.12646484375,
				-329.40679931640625,
				-4517.6787109375
			],
			"type":"VEC3"
		},
		{
			"bufferView":25,
			"componentType":5126,
			"count":232,
			"type":"VEC3"
		},
		{
			"bufferView":26,
			"componentType":5126,
			"count":232,
			"type":"VEC2"
		},
		{
			"bufferView":27,
			"componentType":5123,
			"count":672,
			"type":"SCALAR"
		},
		{
			"bufferView":28,
			"componentType":5126,
			"count":494,
			"max":[
				13.808603286743164,
				20.858871459960938,
				74.32166290283203
			],
			"min":[
				-13.808603286743164,
				-15.456619262695312,
				-74.32166290283203
			],
			"type":"VEC3"
		},
		{
			"bufferView":29,
			"componentType":5126,
			"count":494,
			"type":"VEC3"
		},
		{
			"bufferView":30,
			"componentType":5123,
			"count":1632,
			"type":"SCALAR"
		},
		{
			"bufferView":31,
			"componentType":5126,
			"count":8983,
			"max":[
				0.5841004848480225,
				0.6576876640319824,
				0.46837517619132996
			],
			"min":[
				-0.5461269617080688,
				-0.7377009391784668,
				-0.3729023039340973
			],
			"type":"VEC3"
		},
		{
			"bufferView":32,
			"componentType":5126,
			"count":8983,
			"type":"VEC3"
		},
		{
			"bufferView":33,
			"componentType":5121,
			"count":8983,
			"normalized":true,
			"type":"VEC4"
		},
		{
			"bufferView":34,
			"componentType":5123,
			"count":8983,
			"normalized":true,
			"type":"VEC4"
		},
		{
			"bufferView":35,
			"componentType":5123,
			"count":8985,
			"type":"SCALAR"
		}
	],
	"bufferViews":[
		{
			"buffer":0,
			"byteLength":395604,
			"byteOffset":0,
			"target":34962
		},
		{
			"buffer":0,
			"byteLength":395604,
			"byteOffset":395604,
			"target":34962
		},
		{
			"buffer":0,
			"byteLength":263736,
			"byteOffset":791208,
			"target":34962
		},
		{
			"buffer":0,
			"byteLength":131868,
			"byteOffset":1054944,
			"target":34962
		},
		{
			"buffer":0,
			"byteLength":263736,
			"byteOffset":1186812,
			"target":34962
		},
		{
			"buffer":0,
			"byteLength":101688,
			"byteOffset":1450548,
			"target":34963
		},
		{
			"buffer":0,
			"byteLength":171696,
			"byteOffset":1552236,
			"target":34962
		},
		{
			"buffer":0,
			"byteLength":171696,
			"byteOffset":1723932,
			"target":34962
		},
		{
			"buffer":0,
			"byteLength":114464,
			"byteOffset":1895628,
			"target":34962
		},
		{
			"buffer":0,
			"byteLength":57232,
			"byteOffset":2010092,
			"target":34962
		},
		{
			"buffer":0,
			"byteLength":114464,
			"byteOffset":2067324,
			"target":34962
		},
		{
			"buffer":0,
			"byteLength":68526,
			"byteOffset":2181788,
			"target":34963
		},
		{
			"buffer":0,
			"byteLength":432,
			"byteOffset":2250316,
			"target":34962
		},
		{
			"buffer":0,
			"byteLength":432,
			"byteOffset":2250748,
			"target":34962
		},
		{
			"buffer":0,
			"byteLength":288,
			"byteOffset":2251180,
			"target":34962
		},
		{
			"buffer":0,
			"byteLength":144,
			"byteOffset":2251468,
			"target":34962
		},
		{
			"buffer":0,
			"byteLength":288,
			"byteOffset":2251612,
			"target":34962
		},
		{
			"buffer":0,
			"byteLength":144,
			"byteOffset":2251900,
			"target":34963
		},
		{
			"buffer":0,
			"byteLength":48,
			"byteOffset":2252044,
			"target":34962
		},
		{
			"buffer":0,
			"byteLength":48,
			"byteOffset":2252092,
			"target":34962
		},
		{
			"buffer":0,
			"byteLength":32,
			"byteOffset":2252140,
			"target":34962
		},
		{
			"buffer":0,
			"byteLength":16,
			"byteOffset":2252172,
			"target":34962
		},
		{
			"buffer":0,
			"byteLength":32,
			"byteOffset":2252188,
			"target":34962
		},
		{
			"buffer":0,
			"byteLength":12,
			"byteOffset":2252220,
			"target":34963
		},
		{
			"buffer":0,
			"byteLength":2784,
			"byteOffset":2252232,
			"target":34962
		},
		{
			"buffer":0,
			"byteLength":2784,
			"byteOffset":2255016,
			"target":34962
		},
		{
			"buffer":0,
			"byteLength":1856,
			"byteOffset":2257800,
			"target":34962
		},
		{
			"buffer":0,
			"byteLength":1344,
			"byteOffset":2259656,
			"target":34963
		},
		{
			"buffer":0,
			"byteLength":5928,
			"byteOffset":2261000,
			"target":34962
		},
		{
			"buffer":0,
			"byteLength":5928,
			"byteOffset":2266928,
			"target":34962
		},
		{
			"buffer":0,
			"byteLength":3264,
			"byteOffset":2272856,
			"target":34963
		},
		{
			"buffer":0,
			"byteLength":107796,
			"byteOffset":2276120,
			"target":34962
		},
		{
			"buffer":0,
			"byteLength":107796,
			"byteOffset":2383916,
			"target":34962
		},
		{
			"buffer":0,
			"byteLength":35932,
			"byteOffset":2491712,
			"target":34962
		},
		{
			"buffer":0,
			"byteLength":71864,
			"byteOffset":2527644,
			"target":34962
		},
		{
			"buffer":0,
			"byteLength":17970,
			"byteOffset":2599508,
			"target":34963
		}
	],
	"samplers":[
		{
			"magFilter":9729,
			"minFilter":9987
		}
	],
	"buffers":[
		{
			"byteLength":2617480,
			"uri":"mdl_zesty_toronto.bin"
		}
	]
}
