{
	"asset":{
		"generator":"Khronos glTF Blender I/O v4.3.47",
		"version":"2.0"
	},
	"scene":0,
	"scenes":[
		{
			"name":"Scene",
			"nodes":[
				0,
				1,
				2,
				3,
				4
			]
		}
	],
	"nodes":[
		{
			"mesh":0,
			"name":"buildings-core",
			"translation":[
				0,
				329.6068115234375,
				0
			]
		},
		{
			"mesh":1,
			"name":"buildings-small",
			"translation":[
				0,
				329.6068115234375,
				0
			]
		},
		{
			"mesh":2,
			"name":"land",
			"translation":[
				0,
				329.60699462890625,
				0
			]
		},
		{
			"mesh":3,
			"name":"canoe",
			"translation":[
				-750.5848999023438,
				19.973960876464844,
				389.1654357910156
			]
		},
		{
			"mesh":4,
			"name":"moose",
			"rotation":[
				-0.5640082955360413,
				0.4192216992378235,
				-0.4706055223941803,
				0.5335524678230286
			],
			"scale":[
				47.1207275390625,
				47.1207275390625,
				47.1207275390625
			],
			"translation":[
				804.0382690429688,
				46.22207260131836,
				-388.8143310546875
			]
		}
	],
	"materials":[
		{
			"doubleSided":true,
			"name":"wall",
			"pbrMetallicRoughness":{
				"baseColorTexture":{
					"index":0
				},
				"roughnessFactor":0.30000001192092896
			}
		},
		{
			"doubleSided":true,
			"name":"ceiling",
			"pbrMetallicRoughness":{
				"metallicFactor":0.20000000298023224,
				"roughnessFactor":0.30000001192092896
			}
		},
		{
			"doubleSided":true,
			"name":"flagpole",
			"pbrMetallicRoughness":{
				"baseColorFactor":[
					0.800000011920929,
					0.800000011920929,
					0.800000011920929,
					1
				],
				"roughnessFactor":0.20000000298023224
			}
		},
		{
			"doubleSided":true,
			"name":"flag",
			"pbrMetallicRoughness":{
				"baseColorTexture":{
					"index":1
				},
				"metallicFactor":0,
				"roughnessFactor":0.5
			}
		},
		{
			"doubleSided":true,
			"name":"land.003",
			"pbrMetallicRoughness":{
				"baseColorTexture":{
					"index":2
				},
				"metallicFactor":0,
				"roughnessFactor":0.5
			}
		},
		{
			"doubleSided":true,
			"name":"canoe",
			"pbrMetallicRoughness":{
				"baseColorFactor":[
					0.43169161677360535,
					0,
					0.0036430908367037773,
					1
				],
				"metallicFactor":0.699999988079071,
				"roughnessFactor":0.5
			}
		},
		{
			"doubleSided":true,
			"name":"moose.001",
			"pbrMetallicRoughness":{
				"baseColorFactor":[
					0.8005045056343079,
					0.2593913972377777,
					0,
					1
				],
				"roughnessFactor":0.4000000059604645
			}
		}
	],
	"meshes":[
		{
			"name":"map_22.osm_buildings.004",
			"primitives":[
				{
					"attributes":{
						"POSITION":0,
						"NORMAL":1,
						"TEXCOORD_0":2,
						"COLOR_0":3,
						"COLOR_1":4
					},
					"indices":5,
					"material":0
				},
				{
					"attributes":{
						"POSITION":6,
						"NORMAL":7,
						"TEXCOORD_0":8,
						"COLOR_0":9,
						"COLOR_1":10
					},
					"indices":11,
					"material":1
				},
				{
					"attributes":{
						"POSITION":12,
						"NORMAL":13,
						"TEXCOORD_0":14,
						"COLOR_0":15,
						"COLOR_1":16
					},
					"indices":17,
					"material":2
				},
				{
					"attributes":{
						"POSITION":18,
						"NORMAL":19,
						"TEXCOORD_0":20,
						"COLOR_0":21,
						"COLOR_1":22
					},
					"indices":23,
					"material":3
				}
			]
		},
		{
			"name":"map_22.osm_buildings.007",
			"primitives":[
				{
					"attributes":{
						"POSITION":24,
						"NORMAL":25,
						"TEXCOORD_0":26,
						"COLOR_0":27,
						"COLOR_1":28
					},
					"indices":29,
					"material":0
				},
				{
					"attributes":{
						"POSITION":30,
						"NORMAL":31,
						"TEXCOORD_0":32,
						"COLOR_0":33,
						"COLOR_1":34
					},
					"indices":35,
					"material":1
				}
			]
		},
		{
			"name":"map_21.osm_water.004",
			"primitives":[
				{
					"attributes":{
						"POSITION":36,
						"NORMAL":37,
						"TEXCOORD_0":38
					},
					"indices":39,
					"material":4
				}
			]
		},
		{
			"name":"Cube",
			"primitives":[
				{
					"attributes":{
						"POSITION":40,
						"NORMAL":41
					},
					"indices":42,
					"material":5
				}
			]
		},
		{
			"name":"Model.001",
			"primitives":[
				{
					"attributes":{
						"POSITION":43,
						"NORMAL":44,
						"COLOR_0":45,
						"COLOR_1":46
					},
					"indices":47,
					"material":6
				}
			]
		}
	],
	"textures":[
		{
			"sampler":0,
			"source":0
		},
		{
			"sampler":0,
			"source":1
		},
		{
			"sampler":0,
			"source":2
		}
	],
	"images":[
		{
			"mimeType":"image/jpeg",
			"name":"tx_zesty_buildingside",
			"uri":"tx_zesty_buildingside.jpg"
		},
		{
			"mimeType":"image/png",
			"name":"tx_zesty_flag",
			"uri":"tx_zesty_flag.png"
		},
		{
			"mimeType":"image/jpeg",
			"name":"toronto-satellite",
			"uri":"toronto-satellite.jpg"
		}
	],
	"accessors":[
		{
			"bufferView":0,
			"componentType":5126,
			"count":55798,
			"max":[
				2683.201416015625,
				-31.6068115234375,
				1794.699462890625
			],
			"min":[
				-3376.058349609375,
				-333.5071105957031,
				-3690.13671875
			],
			"type":"VEC3"
		},
		{
			"bufferView":1,
			"componentType":5126,
			"count":55798,
			"type":"VEC3"
		},
		{
			"bufferView":2,
			"componentType":5126,
			"count":55798,
			"type":"VEC2"
		},
		{
			"bufferView":3,
			"componentType":5121,
			"count":55798,
			"normalized":true,
			"type":"VEC4"
		},
		{
			"bufferView":4,
			"componentType":5123,
			"count":55798,
			"normalized":true,
			"type":"VEC4"
		},
		{
			"bufferView":5,
			"componentType":5123,
			"count":105834,
			"type":"SCALAR"
		},
		{
			"bufferView":6,
			"componentType":5126,
			"count":18642,
			"max":[
				2690.69873046875,
				-31.6068115234375,
				1796.30126953125
			],
			"min":[
				-3376.058349609375,
				-330.7800598144531,
				-3700.086669921875
			],
			"type":"VEC3"
		},
		{
			"bufferView":7,
			"componentType":5126,
			"count":18642,
			"type":"VEC3"
		},
		{
			"bufferView":8,
			"componentType":5126,
			"count":18642,
			"type":"VEC2"
		},
		{
			"bufferView":9,
			"componentType":5121,
			"count":18642,
			"normalized":true,
			"type":"VEC4"
		},
		{
			"bufferView":10,
			"componentType":5123,
			"count":18642,
			"normalized":true,
			"type":"VEC4"
		},
		{
			"bufferView":11,
			"componentType":5123,
			"count":44451,
			"type":"SCALAR"
		},
		{
			"bufferView":12,
			"componentType":5126,
			"count":36,
			"max":[
				-265.15460205078125,
				-139.1135711669922,
				-543.2711181640625
			],
			"min":[
				-266.47796630859375,
				-188.18606567382812,
				-544.594482421875
			],
			"type":"VEC3"
		},
		{
			"bufferView":13,
			"componentType":5126,
			"count":36,
			"type":"VEC3"
		},
		{
			"bufferView":14,
			"componentType":5126,
			"count":36,
			"type":"VEC2"
		},
		{
			"bufferView":15,
			"componentType":5121,
			"count":36,
			"normalized":true,
			"type":"VEC4"
		},
		{
			"bufferView":16,
			"componentType":5123,
			"count":36,
			"normalized":true,
			"type":"VEC4"
		},
		{
			"bufferView":17,
			"componentType":5123,
			"count":72,
			"type":"SCALAR"
		},
		{
			"bufferView":18,
			"componentType":5126,
			"count":4,
			"max":[
				-242.07040405273438,
				-139.1135711669922,
				-544.1265258789062
			],
			"min":[
				-265.3483581542969,
				-151.887939453125,
				-553.7649536132812
			],
			"type":"VEC3"
		},
		{
			"bufferView":19,
			"componentType":5126,
			"count":4,
			"type":"VEC3"
		},
		{
			"bufferView":20,
			"componentType":5126,
			"count":4,
			"type":"VEC2"
		},
		{
			"bufferView":21,
			"componentType":5121,
			"count":4,
			"normalized":true,
			"type":"VEC4"
		},
		{
			"bufferView":22,
			"componentType":5123,
			"count":4,
			"normalized":true,
			"type":"VEC4"
		},
		{
			"bufferView":23,
			"componentType":5123,
			"count":6,
			"type":"SCALAR"
		},
		{
			"bufferView":24,
			"componentType":5126,
			"count":11135,
			"max":[
				1922.5224609375,
				-217.6068115234375,
				220.27105712890625
			],
			"min":[
				-2033.0458984375,
				-329.6068115234375,
				-2515.629150390625
			],
			"type":"VEC3"
		},
		{
			"bufferView":25,
			"componentType":5126,
			"count":11135,
			"type":"VEC3"
		},
		{
			"bufferView":26,
			"componentType":5126,
			"count":11135,
			"type":"VEC2"
		},
		{
			"bufferView":27,
			"componentType":5121,
			"count":11135,
			"normalized":true,
			"type":"VEC4"
		},
		{
			"bufferView":28,
			"componentType":5123,
			"count":11135,
			"normalized":true,
			"type":"VEC4"
		},
		{
			"bufferView":29,
			"componentType":5123,
			"count":16899,
			"type":"SCALAR"
		},
		{
			"bufferView":30,
			"componentType":5126,
			"count":5885,
			"max":[
				1922.5224609375,
				-264.25567626953125,
				208.69366455078125
			],
			"min":[
				-2033.5770263671875,
				-329.1068115234375,
				-2522.2978515625
			],
			"type":"VEC3"
		},
		{
			"bufferView":31,
			"componentType":5126,
			"count":5885,
			"type":"VEC3"
		},
		{
			"bufferView":32,
			"componentType":5126,
			"count":5885,
			"type":"VEC2"
		},
		{
			"bufferView":33,
			"componentType":5121,
			"count":5885,
			"normalized":true,
			"type":"VEC4"
		},
		{
			"bufferView":34,
			"componentType":5123,
			"count":5885,
			"normalized":true,
			"type":"VEC4"
		},
		{
			"bufferView":35,
			"componentType":5123,
			"count":11196,
			"type":"SCALAR"
		},
		{
			"bufferView":36,
			"componentType":5126,
			"count":232,
			"max":[
				5396.66552734375,
				-316.941162109375,
				3394.837890625
			],
			"min":[
				-4336.12646484375,
				-329.40679931640625,
				-4517.6787109375
			],
			"type":"VEC3"
		},
		{
			"bufferView":37,
			"componentType":5126,
			"count":232,
			"type":"VEC3"
		},
		{
			"bufferView":38,
			"componentType":5126,
			"count":232,
			"type":"VEC2"
		},
		{
			"bufferView":39,
			"componentType":5123,
			"count":672,
			"type":"SCALAR"
		},
		{
			"bufferView":40,
			"componentType":5126,
			"count":494,
			"max":[
				13.808603286743164,
				20.858871459960938,
				74.32166290283203
			],
			"min":[
				-13.808603286743164,
				-15.456619262695312,
				-74.32166290283203
			],
			"type":"VEC3"
		},
		{
			"bufferView":41,
			"componentType":5126,
			"count":494,
			"type":"VEC3"
		},
		{
			"bufferView":42,
			"componentType":5123,
			"count":1632,
			"type":"SCALAR"
		},
		{
			"bufferView":43,
			"componentType":5126,
			"count":8983,
			"max":[
				0.5841004848480225,
				0.6576876640319824,
				0.46837517619132996
			],
			"min":[
				-0.5461269617080688,
				-0.7377009391784668,
				-0.3729023039340973
			],
			"type":"VEC3"
		},
		{
			"bufferView":44,
			"componentType":5126,
			"count":8983,
			"type":"VEC3"
		},
		{
			"bufferView":45,
			"componentType":5121,
			"count":8983,
			"normalized":true,
			"type":"VEC4"
		},
		{
			"bufferView":46,
			"componentType":5123,
			"count":8983,
			"normalized":true,
			"type":"VEC4"
		},
		{
			"bufferView":47,
			"componentType":5123,
			"count":8985,
			"type":"SCALAR"
		}
	],
	"bufferViews":[
		{
			"buffer":0,
			"byteLength":669576,
			"byteOffset":0,
			"target":34962
		},
		{
			"buffer":0,
			"byteLength":669576,
			"byteOffset":669576,
			"target":34962
		},
		{
			"buffer":0,
			"byteLength":446384,
			"byteOffset":1339152,
			"target":34962
		},
		{
			"buffer":0,
			"byteLength":223192,
			"byteOffset":1785536,
			"target":34962
		},
		{
			"buffer":0,
			"byteLength":446384,
			"byteOffset":2008728,
			"target":34962
		},
		{
			"buffer":0,
			"byteLength":211668,
			"byteOffset":2455112,
			"target":34963
		},
		{
			"buffer":0,
			"byteLength":223704,
			"byteOffset":2666780,
			"target":34962
		},
		{
			"buffer":0,
			"byteLength":223704,
			"byteOffset":2890484,
			"target":34962
		},
		{
			"buffer":0,
			"byteLength":149136,
			"byteOffset":3114188,
			"target":34962
		},
		{
			"buffer":0,
			"byteLength":74568,
			"byteOffset":3263324,
			"target":34962
		},
		{
			"buffer":0,
			"byteLength":149136,
			"byteOffset":3337892,
			"target":34962
		},
		{
			"buffer":0,
			"byteLength":88902,
			"byteOffset":3487028,
			"target":34963
		},
		{
			"buffer":0,
			"byteLength":432,
			"byteOffset":3575932,
			"target":34962
		},
		{
			"buffer":0,
			"byteLength":432,
			"byteOffset":3576364,
			"target":34962
		},
		{
			"buffer":0,
			"byteLength":288,
			"byteOffset":3576796,
			"target":34962
		},
		{
			"buffer":0,
			"byteLength":144,
			"byteOffset":3577084,
			"target":34962
		},
		{
			"buffer":0,
			"byteLength":288,
			"byteOffset":3577228,
			"target":34962
		},
		{
			"buffer":0,
			"byteLength":144,
			"byteOffset":3577516,
			"target":34963
		},
		{
			"buffer":0,
			"byteLength":48,
			"byteOffset":3577660,
			"target":34962
		},
		{
			"buffer":0,
			"byteLength":48,
			"byteOffset":3577708,
			"target":34962
		},
		{
			"buffer":0,
			"byteLength":32,
			"byteOffset":3577756,
			"target":34962
		},
		{
			"buffer":0,
			"byteLength":16,
			"byteOffset":3577788,
			"target":34962
		},
		{
			"buffer":0,
			"byteLength":32,
			"byteOffset":3577804,
			"target":34962
		},
		{
			"buffer":0,
			"byteLength":12,
			"byteOffset":3577836,
			"target":34963
		},
		{
			"buffer":0,
			"byteLength":133620,
			"byteOffset":3577848,
			"target":34962
		},
		{
			"buffer":0,
			"byteLength":133620,
			"byteOffset":3711468,
			"target":34962
		},
		{
			"buffer":0,
			"byteLength":89080,
			"byteOffset":3845088,
			"target":34962
		},
		{
			"buffer":0,
			"byteLength":44540,
			"byteOffset":3934168,
			"target":34962
		},
		{
			"buffer":0,
			"byteLength":89080,
			"byteOffset":3978708,
			"target":34962
		},
		{
			"buffer":0,
			"byteLength":33798,
			"byteOffset":4067788,
			"target":34963
		},
		{
			"buffer":0,
			"byteLength":70620,
			"byteOffset":4101588,
			"target":34962
		},
		{
			"buffer":0,
			"byteLength":70620,
			"byteOffset":4172208,
			"target":34962
		},
		{
			"buffer":0,
			"byteLength":47080,
			"byteOffset":4242828,
			"target":34962
		},
		{
			"buffer":0,
			"byteLength":23540,
			"byteOffset":4289908,
			"target":34962
		},
		{
			"buffer":0,
			"byteLength":47080,
			"byteOffset":4313448,
			"target":34962
		},
		{
			"buffer":0,
			"byteLength":22392,
			"byteOffset":4360528,
			"target":34963
		},
		{
			"buffer":0,
			"byteLength":2784,
			"byteOffset":4382920,
			"target":34962
		},
		{
			"buffer":0,
			"byteLength":2784,
			"byteOffset":4385704,
			"target":34962
		},
		{
			"buffer":0,
			"byteLength":1856,
			"byteOffset":4388488,
			"target":34962
		},
		{
			"buffer":0,
			"byteLength":1344,
			"byteOffset":4390344,
			"target":34963
		},
		{
			"buffer":0,
			"byteLength":5928,
			"byteOffset":4391688,
			"target":34962
		},
		{
			"buffer":0,
			"byteLength":5928,
			"byteOffset":4397616,
			"target":34962
		},
		{
			"buffer":0,
			"byteLength":3264,
			"byteOffset":4403544,
			"target":34963
		},
		{
			"buffer":0,
			"byteLength":107796,
			"byteOffset":4406808,
			"target":34962
		},
		{
			"buffer":0,
			"byteLength":107796,
			"byteOffset":4514604,
			"target":34962
		},
		{
			"buffer":0,
			"byteLength":35932,
			"byteOffset":4622400,
			"target":34962
		},
		{
			"buffer":0,
			"byteLength":71864,
			"byteOffset":4658332,
			"target":34962
		},
		{
			"buffer":0,
			"byteLength":17970,
			"byteOffset":4730196,
			"target":34963
		}
	],
	"samplers":[
		{
			"magFilter":9729,
			"minFilter":9987
		}
	],
	"buffers":[
		{
			"byteLength":4748168,
			"uri":"mdl_zesty_toronto.bin"
		}
	]
}
