{
	"asset":{
		"generator":"Khronos glTF Blender I/O v3.6.27",
		"version":"2.0"
	},
	"extensionsUsed":[
		"KHR_materials_specular"
	],
	"scene":0,
	"scenes":[
		{
			"name":"Scene",
			"nodes":[
				19,
				20
			]
		}
	],
	"nodes":[
		{
			"name":"behind_above_low"
		},
		{
			"name":"behind_below_low"
		},
		{
			"name":"bottom_left_low"
		},
		{
			"name":"bottom_middle_low"
		},
		{
			"name":"bottom_right_low"
		},
		{
			"name":"front_above_low"
		},
		{
			"name":"front_below_low"
		},
		{
			"name":"left_plank_above_low"
		},
		{
			"name":"left_plank_below_low"
		},
		{
			"name":"leg_left_behind_low"
		},
		{
			"name":"Leg_left_front_low"
		},
		{
			"name":"leg_right_behind_low"
		},
		{
			"name":"leg_right_front_low"
		},
		{
			"name":"right_plank_above_low"
		},
		{
			"name":"right_plank_below_low"
		},
		{
			"mesh":0,
			"name":"defaultMaterial.005"
		},
		{
			"children":[
				15
			],
			"name":"support_behind_low"
		},
		{
			"name":"support_front_low"
		},
		{
			"children":[
				0,
				1,
				2,
				3,
				4,
				5,
				6,
				7,
				8,
				9,
				10,
				11,
				12,
				13,
				14,
				16,
				17
			],
			"name":"Collada visual scene group",
			"rotation":[
				0.70710688829422,
				0,
				0,
				0.7071066498756409
			]
		},
		{
			"children":[
				18
			],
			"name":"Sketchfab_model",
			"rotation":[
				-0.70710688829422,
				0,
				0,
				0.7071066498756409
			],
			"scale":[
				1.1293126344680786,
				1.1293126344680786,
				1.1293126344680786
			]
		},
		{
			"mesh":1,
			"name":"Plane",
			"scale":[
				0.9779694676399231,
				1,
				1
			],
			"translation":[
				0,
				0.27402442693710327,
				0
			]
		}
	],
	"materials":[
		{
			"doubleSided":true,
			"name":"DefaultMaterial",
			"pbrMetallicRoughness":{
				"baseColorTexture":{
					"index":0
				},
				"metallicFactor":0
			}
		},
		{
			"doubleSided":true,
			"extensions":{
				"KHR_materials_specular":{
					"specularColorTexture":{
						"index":1
					},
					"specularColorFactor":[
						1.9333333969116209,
						1.1666666269302366,
						1
					]
				}
			},
			"name":"hay",
			"pbrMetallicRoughness":{
				"baseColorTexture":{
					"index":2
				},
				"metallicFactor":0
			}
		}
	],
	"meshes":[
		{
			"name":"defaultMaterial.005",
			"primitives":[
				{
					"attributes":{
						"POSITION":0,
						"NORMAL":1,
						"TEXCOORD_0":2
					},
					"indices":3,
					"material":0
				}
			]
		},
		{
			"name":"Plane",
			"primitives":[
				{
					"attributes":{
						"POSITION":4,
						"NORMAL":5,
						"TEXCOORD_0":6
					},
					"indices":7,
					"material":1
				}
			]
		}
	],
	"textures":[
		{
			"sampler":0,
			"source":0
		},
		{
			"sampler":0,
			"source":1
		},
		{
			"sampler":0,
			"source":2
		}
	],
	"images":[
		{
			"mimeType":"image/jpeg",
			"name":"DefaultMaterial_baseColor",
			"uri":"DefaultMaterial_baseColor.jpg"
		},
		{
			"mimeType":"image/png",
			"name":"Image",
			"uri":"Image.png"
		},
		{
			"mimeType":"image/jpeg",
			"name":"hay-seamless-background-17739496",
			"uri":"hay-seamless-background-17739496.jpg"
		}
	],
	"accessors":[
		{
			"bufferView":0,
			"componentType":5126,
			"count":736,
			"max":[
				1.0222500562667847,
				0.31010401248931885,
				0.46388599276542664
			],
			"min":[
				-1.0024299621582031,
				-0.3282249867916107,
				-0.4664050042629242
			],
			"type":"VEC3"
		},
		{
			"bufferView":1,
			"componentType":5126,
			"count":736,
			"type":"VEC3"
		},
		{
			"bufferView":2,
			"componentType":5126,
			"count":736,
			"type":"VEC2"
		},
		{
			"bufferView":3,
			"componentType":5123,
			"count":2220,
			"type":"SCALAR"
		},
		{
			"bufferView":4,
			"componentType":5126,
			"count":731,
			"max":[
				1.1005557775497437,
				0.3135630786418915,
				0.5231090188026428
			],
			"min":[
				-1.1241425275802612,
				-0.1798098087310791,
				-0.5241649150848389
			],
			"type":"VEC3"
		},
		{
			"bufferView":5,
			"componentType":5126,
			"count":731,
			"type":"VEC3"
		},
		{
			"bufferView":6,
			"componentType":5126,
			"count":731,
			"type":"VEC2"
		},
		{
			"bufferView":7,
			"componentType":5123,
			"count":1305,
			"type":"SCALAR"
		}
	],
	"bufferViews":[
		{
			"buffer":0,
			"byteLength":8832,
			"byteOffset":0,
			"target":34962
		},
		{
			"buffer":0,
			"byteLength":8832,
			"byteOffset":8832,
			"target":34962
		},
		{
			"buffer":0,
			"byteLength":5888,
			"byteOffset":17664,
			"target":34962
		},
		{
			"buffer":0,
			"byteLength":4440,
			"byteOffset":23552,
			"target":34963
		},
		{
			"buffer":0,
			"byteLength":8772,
			"byteOffset":27992,
			"target":34962
		},
		{
			"buffer":0,
			"byteLength":8772,
			"byteOffset":36764,
			"target":34962
		},
		{
			"buffer":0,
			"byteLength":5848,
			"byteOffset":45536,
			"target":34962
		},
		{
			"buffer":0,
			"byteLength":2610,
			"byteOffset":51384,
			"target":34963
		}
	],
	"samplers":[
		{
			"magFilter":9729,
			"minFilter":9987
		}
	],
	"buffers":[
		{
			"byteLength":53996,
			"uri":"mdl_franch_trough.bin"
		}
	]
}
