{
    "asset" : {
        "generator" : "Khronos glTF Blender I/O v3.4.50",
        "version" : "2.0"
    },
    "scene" : 0,
    "scenes" : [
        {
            "name" : "Scene",
            "nodes" : [
                4,
                11
            ]
        }
    ],
    "nodes" : [
        {
            "name" : "Vine_Bunch_Flat_Cut_Out_V2"
        },
        {
            "children" : [
                0
            ],
            "name" : "Vines_Flat",
            "scale" : [
                2,
                2,
                2
            ]
        },
        {
            "children" : [
                1
            ],
            "name" : "RootNode"
        },
        {
            "children" : [
                2
            ],
            "name" : "f02f7cf7a5f74045b2afef6b4c020da4.fbx",
            "rotation" : [
                0.70710688829422,
                0,
                0,
                0.7071066498756409
            ],
            "scale" : [
                0.009999999776482582,
                0.010000000707805157,
                0.010000000707805157
            ]
        },
        {
            "children" : [
                3
            ],
            "name" : "Sketchfab_model",
            "translation" : [
                0,
                0.04158289358019829,
                -0.0399521104991436
            ]
        },
        {
            "mesh" : 0,
            "name" : "Vine_Bunch_Flat_Large5_aiStandardSurface1_0"
        },
        {
            "children" : [
                5
            ],
            "name" : "Vine_Bunch_Flat_Large5"
        },
        {
            "children" : [
                6
            ],
            "name" : "Vines_Flat.001",
            "scale" : [
                2,
                2,
                2
            ]
        },
        {
            "children" : [
                7
            ],
            "name" : "Vines1"
        },
        {
            "children" : [
                8
            ],
            "name" : "RootNode.001"
        },
        {
            "children" : [
                9
            ],
            "name" : "7eb7249a0e1f4c379bf552dfbb533f44.fbx",
            "rotation" : [
                0.70710688829422,
                0,
                0,
                0.7071066498756409
            ],
            "scale" : [
                0.009999999776482582,
                0.010000000707805157,
                0.010000000707805157
            ]
        },
        {
            "children" : [
                10
            ],
            "name" : "Sketchfab_model.001",
            "translation" : [
                0,
                0.047834839671850204,
                -0.033700164407491684
            ]
        }
    ],
    "materials" : [
        {
            "alphaMode" : "BLEND",
            "doubleSided" : true,
            "name" : "aiStandardSurface1.001",
            "normalTexture" : {
                "index" : 0
            },
            "pbrMetallicRoughness" : {
                "baseColorTexture" : {
                    "index" : 1
                },
                "metallicFactor" : 0,
                "metallicRoughnessTexture" : {
                    "index" : 2
                }
            }
        }
    ],
    "meshes" : [
        {
            "name" : "Vine_Bunch_Flat_Large5_aiStandardSurface1_0",
            "primitives" : [
                {
                    "attributes" : {
                        "POSITION" : 0,
                        "TEXCOORD_0" : 1,
                        "NORMAL" : 2
                    },
                    "indices" : 3,
                    "material" : 0
                }
            ]
        }
    ],
    "textures" : [
        {
            "sampler" : 0,
            "source" : 0
        },
        {
            "sampler" : 0,
            "source" : 1
        },
        {
            "sampler" : 0,
            "source" : 2
        }
    ],
    "images" : [
        {
            "mimeType" : "image/png",
            "name" : "aiStandardSurface1_normal",
            "uri" : "textures/aiStandardSurface1_normal.png"
        },
        {
            "mimeType" : "image/png",
            "name" : "aiStandardSurface1_baseColor",
            "uri" : "textures/aiStandardSurface1_baseColor.png"
        },
        {
            "mimeType" : "image/png",
            "name" : "aiStandardSurface1_metallicRoughness",
            "uri" : "textures/aiStandardSurface1_metallicRoughness.png"
        }
    ],
    "accessors" : [
        {
            "bufferView" : 0,
            "componentType" : 5126,
            "count" : 1845,
            "max" : [
                60.69941711425781,
                7.3963189125061035,
                60.693538665771484
            ],
            "min" : [
                -60.42967987060547,
                -3.4192044734954834,
                -60.01309585571289
            ],
            "type" : "VEC3"
        },
        {
            "bufferView" : 1,
            "componentType" : 5126,
            "count" : 1845,
            "type" : "VEC2"
        },
        {
            "bufferView" : 2,
            "componentType" : 5126,
            "count" : 1845,
            "type" : "VEC3"
        },
        {
            "bufferView" : 3,
            "componentType" : 5123,
            "count" : 6204,
            "type" : "SCALAR"
        }
    ],
    "bufferViews" : [
        {
            "buffer" : 0,
            "byteLength" : 22140,
            "byteOffset" : 0,
            "target" : 34962
        },
        {
            "buffer" : 0,
            "byteLength" : 14760,
            "byteOffset" : 22140,
            "target" : 34962
        },
        {
            "buffer" : 0,
            "byteLength" : 22140,
            "byteOffset" : 36900,
            "target" : 34962
        },
        {
            "buffer" : 0,
            "byteLength" : 12408,
            "byteOffset" : 59040,
            "target" : 34963
        }
    ],
    "samplers" : [
        {
            "magFilter" : 9729,
            "minFilter" : 9987
        }
    ],
    "buffers" : [
        {
            "byteLength" : 71448,
            "uri" : "mdl_paprika_ivy2.bin"
        }
    ]
}
