{
	"asset":{
		"generator":"Khronos glTF Blender I/O v4.0.44",
		"version":"2.0"
	},
	"scene":0,
	"scenes":[
		{
			"name":"Scene",
			"nodes":[
				6
			]
		}
	],
	"nodes":[
		{
			"mesh":0,
			"name":"drum-ready_drum_0"
		},
		{
			"children":[
				0
			],
			"name":"drum-ready",
			"rotation":[
				-0.70710688829422,
				0,
				0,
				0.7071066498756409
			],
			"scale":[
				100,
				99.99999237060547,
				99.99999237060547
			],
			"translation":[
				1.1920928955078125e-05,
				18.825435638427734,
				-2.384185791015625e-05
			]
		},
		{
			"mesh":1,
			"name":"drum-ready_nitki_NItki_0"
		},
		{
			"children":[
				2
			],
			"name":"drum-ready_nitki",
			"rotation":[
				-0.70710688829422,
				0,
				0,
				0.7071066498756409
			],
			"scale":[
				100,
				99.99999237060547,
				99.99999237060547
			],
			"translation":[
				1.1920928955078125e-05,
				18.825435638427734,
				-2.384185791015625e-05
			]
		},
		{
			"children":[
				1,
				3
			],
			"name":"RootNode"
		},
		{
			"children":[
				4
			],
			"name":"4dfdd05c7c7a47e38923b36ab42441f7.fbx",
			"rotation":[
				0.70710688829422,
				0,
				0,
				0.7071066498756409
			]
		},
		{
			"children":[
				5
			],
			"name":"Sketchfab_model",
			"rotation":[
				-0.7071065902709961,
				0,
				0,
				0.7071069478988647
			],
			"scale":[
				0.05000000074505806,
				0.05000000447034836,
				0.05000000447034836
			]
		}
	],
	"materials":[
		{
			"doubleSided":true,
			"name":"drum.003",
			"normalTexture":{
				"index":0
			},
			"occlusionTexture":{
				"index":1
			},
			"pbrMetallicRoughness":{
				"baseColorTexture":{
					"index":2
				},
				"metallicFactor":0,
				"metallicRoughnessTexture":{
					"index":1
				}
			}
		},
		{
			"doubleSided":true,
			"name":"NItki.003",
			"normalTexture":{
				"index":3
			},
			"occlusionTexture":{
				"index":4
			},
			"pbrMetallicRoughness":{
				"baseColorTexture":{
					"index":5
				},
				"metallicFactor":0,
				"metallicRoughnessTexture":{
					"index":4
				}
			}
		}
	],
	"meshes":[
		{
			"name":"drum-ready_drum_0.003",
			"primitives":[
				{
					"attributes":{
						"POSITION":0,
						"NORMAL":1,
						"TEXCOORD_0":2
					},
					"indices":3,
					"material":0
				}
			]
		},
		{
			"name":"drum-ready_nitki_NItki_0.003",
			"primitives":[
				{
					"attributes":{
						"POSITION":4,
						"NORMAL":5,
						"TEXCOORD_0":6
					},
					"indices":7,
					"material":1
				}
			]
		}
	],
	"textures":[
		{
			"sampler":0,
			"source":0
		},
		{
			"sampler":0,
			"source":1
		},
		{
			"sampler":0,
			"source":2
		},
		{
			"sampler":0,
			"source":3
		},
		{
			"sampler":0,
			"source":4
		},
		{
			"sampler":0,
			"source":5
		}
	],
	"images":[
		{
			"mimeType":"image/png",
			"name":"drum_normal",
			"uri":"drum_normal.png"
		},
		{
			"mimeType":"image/png",
			"name":"drum_metallicRoughness",
			"uri":"drum_metallicRoughness.png"
		},
		{
			"mimeType":"image/png",
			"name":"drum_baseColor",
			"uri":"drum_baseColor.png"
		},
		{
			"mimeType":"image/png",
			"name":"NItki_normal",
			"uri":"NItki_normal.png"
		},
		{
			"mimeType":"image/png",
			"name":"NItki_metallicRoughness",
			"uri":"NItki_metallicRoughness.png"
		},
		{
			"mimeType":"image/png",
			"name":"NItki_baseColor",
			"uri":"NItki_baseColor.png"
		}
	],
	"accessors":[
		{
			"bufferView":0,
			"componentType":5126,
			"count":299,
			"max":[
				1.2927262783050537,
				1.2721338272094727,
				1.6633092164993286
			],
			"min":[
				-1.2853493690490723,
				-1.3075817823410034,
				-2.6020009517669678
			],
			"type":"VEC3"
		},
		{
			"bufferView":1,
			"componentType":5126,
			"count":299,
			"type":"VEC3"
		},
		{
			"bufferView":2,
			"componentType":5126,
			"count":299,
			"type":"VEC2"
		},
		{
			"bufferView":3,
			"componentType":5123,
			"count":1167,
			"type":"SCALAR"
		},
		{
			"bufferView":4,
			"componentType":5126,
			"count":3722,
			"max":[
				1.4573813676834106,
				1.4503593444824219,
				1.026896595954895
			],
			"min":[
				-1.4391992092132568,
				-1.4462213516235352,
				-1.1623179912567139
			],
			"type":"VEC3"
		},
		{
			"bufferView":5,
			"componentType":5126,
			"count":3722,
			"type":"VEC3"
		},
		{
			"bufferView":6,
			"componentType":5126,
			"count":3722,
			"type":"VEC2"
		},
		{
			"bufferView":7,
			"componentType":5123,
			"count":15114,
			"type":"SCALAR"
		}
	],
	"bufferViews":[
		{
			"buffer":0,
			"byteLength":3588,
			"byteOffset":0,
			"target":34962
		},
		{
			"buffer":0,
			"byteLength":3588,
			"byteOffset":3588,
			"target":34962
		},
		{
			"buffer":0,
			"byteLength":2392,
			"byteOffset":7176,
			"target":34962
		},
		{
			"buffer":0,
			"byteLength":2334,
			"byteOffset":9568,
			"target":34963
		},
		{
			"buffer":0,
			"byteLength":44664,
			"byteOffset":11904,
			"target":34962
		},
		{
			"buffer":0,
			"byteLength":44664,
			"byteOffset":56568,
			"target":34962
		},
		{
			"buffer":0,
			"byteLength":29776,
			"byteOffset":101232,
			"target":34962
		},
		{
			"buffer":0,
			"byteLength":30228,
			"byteOffset":131008,
			"target":34963
		}
	],
	"samplers":[
		{
			"magFilter":9729,
			"minFilter":9987
		}
	],
	"buffers":[
		{
			"byteLength":161236,
			"uri":"drum1.bin"
		}
	]
}
