{
	"asset":{
		"generator":"Khronos glTF Blender I/O v4.1.63",
		"version":"2.0"
	},
	"extensionsUsed":[
		"KHR_materials_specular",
		"KHR_materials_ior"
	],
	"scene":0,
	"scenes":[
		{
			"name":"Scene",
			"nodes":[
				2
			]
		}
	],
	"nodes":[
		{
			"mesh":0,
			"name":"Object_4"
		},
		{
			"children":[
				0
			],
			"name":"Rathaus Coburg.obj.cleaner.materialmerger.gles"
		},
		{
			"children":[
				1
			],
			"name":"Sketchfab_model",
			"rotation":[
				-0.70710688829422,
				0,
				0,
				0.7071066498756409
			]
		}
	],
	"materials":[
		{
			"doubleSided":true,
			"extensions":{
				"KHR_materials_specular":{
					"specularColorFactor":[
						0.0,
						0.0,
						0.0
					]
				},
				"KHR_materials_ior":{
					"ior":1000
				}
			},
			"name":"genericEU.001",
			"pbrMetallicRoughness":{
				"baseColorFactor":[
					0.9030208587646484,
					0.9030208587646484,
					0.9030208587646484,
					1
				],
				"baseColorTexture":{
					"index":0
				},
				"metallicFactor":0
			}
		}
	],
	"meshes":[
		{
			"name":"Object_2.002",
			"primitives":[
				{
					"attributes":{
						"POSITION":0,
						"NORMAL":1,
						"TEXCOORD_0":2
					},
					"indices":3,
					"material":0
				}
			]
		}
	],
	"textures":[
		{
			"sampler":0,
			"source":0
		}
	],
	"images":[
		{
			"mimeType":"image/png",
			"name":"genericEU_diffuse",
			"uri":"genericEU_diffuse.png"
		}
	],
	"accessors":[
		{
			"bufferView":0,
			"componentType":5126,
			"count":13347,
			"max":[
				142.3890380859375,
				80.45945739746094,
				153.45645141601562
			],
			"min":[
				-44.22867202758789,
				-99.25862121582031,
				-71.53067016601562
			],
			"type":"VEC3"
		},
		{
			"bufferView":1,
			"componentType":5126,
			"count":13347,
			"type":"VEC3"
		},
		{
			"bufferView":2,
			"componentType":5126,
			"count":13347,
			"type":"VEC2"
		},
		{
			"bufferView":3,
			"componentType":5123,
			"count":33891,
			"type":"SCALAR"
		}
	],
	"bufferViews":[
		{
			"buffer":0,
			"byteLength":160164,
			"byteOffset":0,
			"target":34962
		},
		{
			"buffer":0,
			"byteLength":160164,
			"byteOffset":160164,
			"target":34962
		},
		{
			"buffer":0,
			"byteLength":106776,
			"byteOffset":320328,
			"target":34962
		},
		{
			"buffer":0,
			"byteLength":67782,
			"byteOffset":427104,
			"target":34963
		}
	],
	"samplers":[
		{
			"magFilter":9729,
			"minFilter":9987
		}
	],
	"buffers":[
		{
			"byteLength":494888,
			"uri":"scene.bin"
		}
	]
}
