{
	"asset":{
		"generator":"Khronos glTF Blender I/O v4.0.44",
		"version":"2.0"
	},
	"scene":0,
	"scenes":[
		{
			"name":"Scene",
			"nodes":[
				0,
				1
			]
		}
	],
	"nodes":[
		{
			"mesh":0,
			"name":"Cylinder.001",
			"rotation":[
				0,
				1,
				0,
				0
			],
			"scale":[
				-0.04821651428937912,
				-0.016966404393315315,
				-0.04821651428937912
			],
			"translation":[
				0,
				0.16633981466293335,
				0
			]
		},
		{
			"mesh":1,
			"name":"Icosphere",
			"rotation":[
				0,
				0.1579582393169403,
				0,
				0.9874458909034729
			],
			"scale":[
				1,
				0.3357691764831543,
				1
			]
		}
	],
	"materials":[
		{
			"doubleSided":true,
			"name":"Material.103",
			"pbrMetallicRoughness":{
				"baseColorFactor":[
					0,
					0,
					0,
					1
				],
				"metallicFactor":0,
				"roughnessFactor":0.5
			}
		},
		{
			"doubleSided":true,
			"name":"Material.104",
			"normalTexture":{
				"index":0
			},
			"pbrMetallicRoughness":{
				"baseColorTexture":{
					"index":1
				},
				"metallicFactor":0,
				"roughnessFactor":0.5
			}
		},
		{
			"doubleSided":true,
			"name":"Material.105",
			"pbrMetallicRoughness":{
				"baseColorTexture":{
					"index":2
				},
				"metallicFactor":0,
				"metallicRoughnessTexture":{
					"index":3
				}
			}
		}
	],
	"meshes":[
		{
			"name":"Cylinder.029",
			"primitives":[
				{
					"attributes":{
						"POSITION":0,
						"NORMAL":1,
						"TEXCOORD_0":2
					},
					"indices":3,
					"material":0
				}
			]
		},
		{
			"name":"Icosphere.003",
			"primitives":[
				{
					"attributes":{
						"POSITION":4,
						"NORMAL":5,
						"TEXCOORD_0":6
					},
					"indices":7,
					"material":1
				},
				{
					"attributes":{
						"POSITION":8,
						"NORMAL":9,
						"TEXCOORD_0":10
					},
					"indices":11,
					"material":2
				}
			]
		}
	],
	"textures":[
		{
			"sampler":0,
			"source":0
		},
		{
			"sampler":0,
			"source":1
		},
		{
			"sampler":0,
			"source":2
		},
		{
			"sampler":0,
			"source":3
		}
	],
	"images":[
		{
			"mimeType":"image/png",
			"name":"Wood064_2K-PNG_NormalGL_png",
			"uri":"Wood064_2K-PNG_NormalGL_png.png"
		},
		{
			"mimeType":"image/png",
			"name":"Wood064_2K-PNG_Color_png",
			"uri":"Wood064_2K-PNG_Color_png.png"
		},
		{
			"mimeType":"image/png",
			"name":"Untitled_design_10",
			"uri":"Untitled_design_10.png"
		},
		{
			"mimeType":"image/png",
			"name":"Image",
			"uri":"Image.png"
		}
	],
	"accessors":[
		{
			"bufferView":0,
			"componentType":5126,
			"count":130,
			"max":[
				1,
				1,
				1
			],
			"min":[
				-1,
				-1,
				-1
			],
			"type":"VEC3"
		},
		{
			"bufferView":1,
			"componentType":5126,
			"count":130,
			"type":"VEC3"
		},
		{
			"bufferView":2,
			"componentType":5126,
			"count":130,
			"type":"VEC2"
		},
		{
			"bufferView":3,
			"componentType":5123,
			"count":372,
			"type":"SCALAR"
		},
		{
			"bufferView":4,
			"componentType":5126,
			"count":120,
			"max":[
				0.9510578513145447,
				0.5257376432418823,
				0.9999999403953552
			],
			"min":[
				-0.9510578513145447,
				-0.5257376432418823,
				-0.9999999403953552
			],
			"type":"VEC3"
		},
		{
			"bufferView":5,
			"componentType":5126,
			"count":120,
			"type":"VEC3"
		},
		{
			"bufferView":6,
			"componentType":5126,
			"count":120,
			"type":"VEC2"
		},
		{
			"bufferView":7,
			"componentType":5123,
			"count":120,
			"type":"SCALAR"
		},
		{
			"bufferView":8,
			"componentType":5126,
			"count":10,
			"max":[
				0.8944262266159058,
				0.5257376432418823,
				0.8506492376327515
			],
			"min":[
				-0.8506478667259216,
				0.44721561670303345,
				-0.8506492376327515
			],
			"type":"VEC3"
		},
		{
			"bufferView":9,
			"componentType":5126,
			"count":10,
			"type":"VEC3"
		},
		{
			"bufferView":10,
			"componentType":5126,
			"count":10,
			"type":"VEC2"
		},
		{
			"bufferView":11,
			"componentType":5123,
			"count":24,
			"type":"SCALAR"
		}
	],
	"bufferViews":[
		{
			"buffer":0,
			"byteLength":1560,
			"byteOffset":0,
			"target":34962
		},
		{
			"buffer":0,
			"byteLength":1560,
			"byteOffset":1560,
			"target":34962
		},
		{
			"buffer":0,
			"byteLength":1040,
			"byteOffset":3120,
			"target":34962
		},
		{
			"buffer":0,
			"byteLength":744,
			"byteOffset":4160,
			"target":34963
		},
		{
			"buffer":0,
			"byteLength":1440,
			"byteOffset":4904,
			"target":34962
		},
		{
			"buffer":0,
			"byteLength":1440,
			"byteOffset":6344,
			"target":34962
		},
		{
			"buffer":0,
			"byteLength":960,
			"byteOffset":7784,
			"target":34962
		},
		{
			"buffer":0,
			"byteLength":240,
			"byteOffset":8744,
			"target":34963
		},
		{
			"buffer":0,
			"byteLength":120,
			"byteOffset":8984,
			"target":34962
		},
		{
			"buffer":0,
			"byteLength":120,
			"byteOffset":9104,
			"target":34962
		},
		{
			"buffer":0,
			"byteLength":80,
			"byteOffset":9224,
			"target":34962
		},
		{
			"buffer":0,
			"byteLength":48,
			"byteOffset":9304,
			"target":34963
		}
	],
	"samplers":[
		{
			"magFilter":9729,
			"minFilter":9987
		}
	],
	"buffers":[
		{
			"byteLength":9352,
			"uri":"greenwoodclock.bin"
		}
	]
}
