{
	"asset":{
		"generator":"Khronos glTF Blender I/O v4.0.44",
		"version":"2.0"
	},
	"scene":0,
	"scenes":[
		{
			"name":"Scene",
			"nodes":[
				3
			]
		}
	],
	"nodes":[
		{
			"mesh":0,
			"name":"Object_2"
		},
		{
			"mesh":1,
			"name":"Object_3"
		},
		{
			"children":[
				0,
				1
			],
			"name":"Hannover Calenberger Str.3ds"
		},
		{
			"children":[
				2
			],
			"name":"Sketchfab_model",
			"rotation":[
				-0.009153373539447784,
				0,
				0,
				0.9999580979347229
			]
		}
	],
	"materials":[
		{
			"doubleSided":true,
			"name":"hanover2_diffuse",
			"pbrMetallicRoughness":{
				"baseColorTexture":{
					"index":0
				},
				"metallicFactor":0,
				"roughnessFactor":0.6000000238418579
			}
		}
	],
	"meshes":[
		{
			"name":"Object_0.008",
			"primitives":[
				{
					"attributes":{
						"POSITION":0,
						"NORMAL":1,
						"TEXCOORD_0":2
					},
					"indices":3,
					"material":0
				}
			]
		},
		{
			"name":"Object_1.001",
			"primitives":[
				{
					"attributes":{
						"POSITION":4,
						"NORMAL":5,
						"TEXCOORD_0":6
					},
					"indices":7,
					"material":0
				}
			]
		}
	],
	"textures":[
		{
			"sampler":0,
			"source":0
		}
	],
	"images":[
		{
			"mimeType":"image/png",
			"name":"hanover2_diffuse_baseColor",
			"uri":"hanover2_diffuse_baseColor.png"
		}
	],
	"accessors":[
		{
			"bufferView":0,
			"componentType":5126,
			"count":6936,
			"max":[
				3.3242897987365723,
				1.3319334983825684,
				2.1259965896606445
			],
			"min":[
				-2.983402967453003,
				-1.3073251247406006,
				-2.844677686691284
			],
			"type":"VEC3"
		},
		{
			"bufferView":1,
			"componentType":5126,
			"count":6936,
			"type":"VEC3"
		},
		{
			"bufferView":2,
			"componentType":5126,
			"count":6936,
			"type":"VEC2"
		},
		{
			"bufferView":3,
			"componentType":5123,
			"count":13962,
			"type":"SCALAR"
		},
		{
			"bufferView":4,
			"componentType":5126,
			"count":1800,
			"max":[
				3.305736780166626,
				1.3319334983825684,
				2.1259965896606445
			],
			"min":[
				-2.9649245738983154,
				-1.2017862796783447,
				-2.6649112701416016
			],
			"type":"VEC3"
		},
		{
			"bufferView":5,
			"componentType":5126,
			"count":1800,
			"type":"VEC3"
		},
		{
			"bufferView":6,
			"componentType":5126,
			"count":1800,
			"type":"VEC2"
		},
		{
			"bufferView":7,
			"componentType":5123,
			"count":2700,
			"type":"SCALAR"
		}
	],
	"bufferViews":[
		{
			"buffer":0,
			"byteLength":83232,
			"byteOffset":0,
			"target":34962
		},
		{
			"buffer":0,
			"byteLength":83232,
			"byteOffset":83232,
			"target":34962
		},
		{
			"buffer":0,
			"byteLength":55488,
			"byteOffset":166464,
			"target":34962
		},
		{
			"buffer":0,
			"byteLength":27924,
			"byteOffset":221952,
			"target":34963
		},
		{
			"buffer":0,
			"byteLength":21600,
			"byteOffset":249876,
			"target":34962
		},
		{
			"buffer":0,
			"byteLength":21600,
			"byteOffset":271476,
			"target":34962
		},
		{
			"buffer":0,
			"byteLength":14400,
			"byteOffset":293076,
			"target":34962
		},
		{
			"buffer":0,
			"byteLength":5400,
			"byteOffset":307476,
			"target":34963
		}
	],
	"samplers":[
		{
			"magFilter":9729,
			"minFilter":9987
		}
	],
	"buffers":[
		{
			"byteLength":312876,
			"uri":"scene.bin"
		}
	]
}
