{
	"asset":{
		"generator":"Khronos glTF Blender I/O v4.1.63",
		"version":"2.0"
	},
	"scene":0,
	"scenes":[
		{
			"name":"Scene",
			"nodes":[
				0,
				1
			]
		}
	],
	"nodes":[
		{
			"mesh":0,
			"name":"Shield",
			"rotation":[
				0.70710688829422,
				0,
				0,
				0.7071066498756409
			],
			"scale":[
				0.009999990463256836,
				0.009999988600611687,
				0.009999988600611687
			],
			"translation":[
				1.485162615776062,
				5.458174228668213,
				0.4317834973335266
			]
		},
		{
			"mesh":1,
			"name":"Body",
			"rotation":[
				0.70710688829422,
				0,
				0,
				0.7071066498756409
			],
			"scale":[
				0.009999990463256836,
				0.009999988600611687,
				0.009999988600611687
			],
			"translation":[
				0.07005918771028519,
				5.809679985046387,
				0.2961626350879669
			]
		}
	],
	"materials":[
		{
			"doubleSided":true,
			"name":"Material.002",
			"normalTexture":{
				"index":0
			},
			"pbrMetallicRoughness":{
				"baseColorTexture":{
					"index":1
				},
				"metallicRoughnessTexture":{
					"index":2
				}
			}
		},
		{
			"doubleSided":true,
			"emissiveTexture":{
				"index":3
			},
			"name":"Spear",
			"normalTexture":{
				"index":4
			},
			"pbrMetallicRoughness":{
				"baseColorTexture":{
					"index":5
				},
				"metallicRoughnessTexture":{
					"index":6
				}
			}
		},
		{
			"doubleSided":true,
			"emissiveTexture":{
				"index":7
			},
			"name":"Material.003",
			"normalTexture":{
				"index":8
			},
			"pbrMetallicRoughness":{
				"baseColorTexture":{
					"index":9
				},
				"metallicRoughnessTexture":{
					"index":10
				}
			}
		}
	],
	"meshes":[
		{
			"name":"HoplonShield_RopeHandle_Fixture",
			"primitives":[
				{
					"attributes":{
						"POSITION":0,
						"NORMAL":1,
						"TEXCOORD_0":2
					},
					"indices":3,
					"material":0
				}
			]
		},
		{
			"name":"Body",
			"primitives":[
				{
					"attributes":{
						"POSITION":4,
						"NORMAL":5,
						"TEXCOORD_0":6,
						"TEXCOORD_1":7
					},
					"indices":8,
					"material":1
				},
				{
					"attributes":{
						"POSITION":9,
						"NORMAL":10,
						"TEXCOORD_0":11,
						"TEXCOORD_1":12
					},
					"indices":13,
					"material":2
				}
			]
		}
	],
	"textures":[
		{
			"sampler":0,
			"source":0
		},
		{
			"sampler":0,
			"source":1
		},
		{
			"sampler":0,
			"source":2
		},
		{
			"sampler":0,
			"source":3
		},
		{
			"sampler":0,
			"source":4
		},
		{
			"sampler":0,
			"source":5
		},
		{
			"sampler":0,
			"source":6
		},
		{
			"sampler":0,
			"source":7
		},
		{
			"sampler":0,
			"source":8
		},
		{
			"sampler":0,
			"source":9
		},
		{
			"sampler":0,
			"source":10
		}
	],
	"images":[
		{
			"mimeType":"image/png",
			"name":"Shield_Normal.1001",
			"uri":"Shield_Normal_1001.png"
		},
		{
			"mimeType":"image/png",
			"name":"Image",
			"uri":"Image.png"
		},
		{
			"mimeType":"image/png",
			"name":"Shield_Metallic.1001.png-Shield_Roughness.1001",
			"uri":"Shield_Metallic_1001_png-Shield_Roughness_1001.png"
		},
		{
			"mimeType":"image/png",
			"name":"Spear_Emission.1001",
			"uri":"Spear_Emission_1001.png"
		},
		{
			"mimeType":"image/png",
			"name":"Spear_Normal.1001",
			"uri":"Spear_Normal_1001.png"
		},
		{
			"mimeType":"image/png",
			"name":"Spear_BaseColor.1001.png-Spear_Alpha.1001",
			"uri":"Spear_BaseColor_1001_png-Spear_Alpha_1001.png"
		},
		{
			"mimeType":"image/png",
			"name":"Spear_Metallic.1001.png-Spear_Roughness.1001",
			"uri":"Spear_Metallic_1001_png-Spear_Roughness_1001.png"
		},
		{
			"mimeType":"image/png",
			"name":"Material.001_Emission.1001",
			"uri":"Material_001_Emission_1001.png"
		},
		{
			"mimeType":"image/png",
			"name":"Material.001_Normal.1001",
			"uri":"Material_001_Normal_1001.png"
		},
		{
			"mimeType":"image/png",
			"name":"Material.001_BaseColor.1001.png-Material.001_Alpha.1001",
			"uri":"Material_001_BaseColor_1001_png-Material_001_Alpha_1001.png"
		},
		{
			"mimeType":"image/png",
			"name":"Material.001_Metallic.1001.png-Material.001_Roughness.1001",
			"uri":"Material_001_Metallic_1001_png-Material_001_Roughness_1001.png"
		}
	],
	"accessors":[
		{
			"bufferView":0,
			"componentType":5126,
			"count":663,
			"max":[
				117.99382019042969,
				140.69989013671875,
				195.75546264648438
			],
			"min":[
				-149.3475341796875,
				-168.18528747558594,
				-185.59747314453125
			],
			"type":"VEC3"
		},
		{
			"bufferView":1,
			"componentType":5126,
			"count":663,
			"type":"VEC3"
		},
		{
			"bufferView":2,
			"componentType":5126,
			"count":663,
			"type":"VEC2"
		},
		{
			"bufferView":3,
			"componentType":5123,
			"count":3000,
			"type":"SCALAR"
		},
		{
			"bufferView":4,
			"componentType":5126,
			"count":684,
			"max":[
				176.93222045898438,
				422.1184387207031,
				-1.5942535400390625
			],
			"min":[
				-351.68328857421875,
				-232.71389770507812,
				-255.26419067382812
			],
			"type":"VEC3"
		},
		{
			"bufferView":5,
			"componentType":5126,
			"count":684,
			"type":"VEC3"
		},
		{
			"bufferView":6,
			"componentType":5126,
			"count":684,
			"type":"VEC2"
		},
		{
			"bufferView":7,
			"componentType":5126,
			"count":684,
			"type":"VEC2"
		},
		{
			"bufferView":8,
			"componentType":5123,
			"count":1500,
			"type":"SCALAR"
		},
		{
			"bufferView":9,
			"componentType":5126,
			"count":5178,
			"max":[
				188.57455444335938,
				98.15679168701172,
				579.0860595703125
			],
			"min":[
				-180.6105499267578,
				-183.13632202148438,
				-205.98191833496094
			],
			"type":"VEC3"
		},
		{
			"bufferView":10,
			"componentType":5126,
			"count":5178,
			"type":"VEC3"
		},
		{
			"bufferView":11,
			"componentType":5126,
			"count":5178,
			"type":"VEC2"
		},
		{
			"bufferView":12,
			"componentType":5126,
			"count":5178,
			"type":"VEC2"
		},
		{
			"bufferView":13,
			"componentType":5123,
			"count":10287,
			"type":"SCALAR"
		}
	],
	"bufferViews":[
		{
			"buffer":0,
			"byteLength":7956,
			"byteOffset":0,
			"target":34962
		},
		{
			"buffer":0,
			"byteLength":7956,
			"byteOffset":7956,
			"target":34962
		},
		{
			"buffer":0,
			"byteLength":5304,
			"byteOffset":15912,
			"target":34962
		},
		{
			"buffer":0,
			"byteLength":6000,
			"byteOffset":21216,
			"target":34963
		},
		{
			"buffer":0,
			"byteLength":8208,
			"byteOffset":27216,
			"target":34962
		},
		{
			"buffer":0,
			"byteLength":8208,
			"byteOffset":35424,
			"target":34962
		},
		{
			"buffer":0,
			"byteLength":5472,
			"byteOffset":43632,
			"target":34962
		},
		{
			"buffer":0,
			"byteLength":5472,
			"byteOffset":49104,
			"target":34962
		},
		{
			"buffer":0,
			"byteLength":3000,
			"byteOffset":54576,
			"target":34963
		},
		{
			"buffer":0,
			"byteLength":62136,
			"byteOffset":57576,
			"target":34962
		},
		{
			"buffer":0,
			"byteLength":62136,
			"byteOffset":119712,
			"target":34962
		},
		{
			"buffer":0,
			"byteLength":41424,
			"byteOffset":181848,
			"target":34962
		},
		{
			"buffer":0,
			"byteLength":41424,
			"byteOffset":223272,
			"target":34962
		},
		{
			"buffer":0,
			"byteLength":20574,
			"byteOffset":264696,
			"target":34963
		}
	],
	"samplers":[
		{
			"magFilter":9729,
			"minFilter":9987
		}
	],
	"buffers":[
		{
			"byteLength":285272,
			"uri":"WARRIORPAINTED2.bin"
		}
	]
}
