{
	"asset":{
		"generator":"Khronos glTF Blender I/O v4.1.63",
		"version":"2.0"
	},
	"scene":0,
	"scenes":[
		{
			"name":"Scene",
			"nodes":[
				9
			]
		}
	],
	"nodes":[
		{
			"name":"Casket_hinge_top_3",
			"rotation":[
				0,
				0,
				-0.7071066498756409,
				0.70710688829422
			],
			"scale":[
				1.310556411743164,
				1.3105562925338745,
				1.3105565309524536
			],
			"translation":[
				-1.8409123420715332,
				1.7071890830993652,
				0
			]
		},
		{
			"mesh":0,
			"name":"Object_12"
		},
		{
			"children":[
				1
			],
			"name":"Casket_top_4",
			"rotation":[
				0,
				0,
				-0.7071066498756409,
				0.70710688829422
			],
			"scale":[
				1.310556411743164,
				1.3105562925338745,
				1.3105565309524536
			],
			"translation":[
				-1.8409123420715332,
				1.7071890830993652,
				0
			]
		},
		{
			"children":[
				0,
				2
			],
			"name":"Bone_5"
		},
		{
			"children":[
				3
			],
			"name":"Armature_6",
			"rotation":[
				0,
				0,
				0.7071068286895752,
				0.7071067094802856
			],
			"scale":[
				0.7630347013473511,
				0.7630347609519958,
				0.7630345821380615
			],
			"translation":[
				1.3026442527770996,
				1.4046796560287476,
				0
			]
		},
		{
			"mesh":1,
			"name":"Object_6"
		},
		{
			"children":[
				5
			],
			"name":"Casket_hinge_bot_2",
			"rotation":[
				0,
				-1,
				0,
				7.549790126404332e-08
			],
			"translation":[
				1.3011608123779297,
				1.404523491859436,
				-3.779142571147531e-05
			]
		},
		{
			"children":[
				4,
				6
			],
			"name":"GLTF_SceneRootNode",
			"rotation":[
				0.70710688829422,
				0,
				0,
				0.7071066498756409
			]
		},
		{
			"children":[
				7
			],
			"name":"root"
		},
		{
			"children":[
				8
			],
			"name":"Sketchfab_model",
			"rotation":[
				0,
				0.70710688829422,
				0.7071066498756409,
				0
			],
			"translation":[
				0.0001058910638676025,
				0,
				0.00021605075744446367
			]
		}
	],
	"animations":[
		{
			"channels":[
				{
					"sampler":0,
					"target":{
						"node":4,
						"path":"rotation"
					}
				}
			],
			"name":"Animation",
			"samplers":[
				{
					"input":14,
					"interpolation":"LINEAR",
					"output":15
				}
			]
		}
	],
	"materials":[
		{
			"doubleSided":true,
			"name":"Casket",
			"normalTexture":{
				"index":0,
				"texCoord":2
			},
			"pbrMetallicRoughness":{
				"baseColorTexture":{
					"index":1
				},
				"metallicFactor":0,
				"metallicRoughnessTexture":{
					"index":2,
					"texCoord":1
				},
				"roughnessFactor":0.7191705107688904
			}
		}
	],
	"meshes":[
		{
			"name":"Object_3",
			"primitives":[
				{
					"attributes":{
						"POSITION":0,
						"NORMAL":1,
						"TEXCOORD_0":2,
						"TEXCOORD_1":3,
						"TEXCOORD_2":4,
						"TEXCOORD_3":5
					},
					"indices":6,
					"material":0
				}
			]
		},
		{
			"name":"Object_1",
			"primitives":[
				{
					"attributes":{
						"POSITION":7,
						"NORMAL":8,
						"TEXCOORD_0":9,
						"TEXCOORD_1":10,
						"TEXCOORD_2":11,
						"TEXCOORD_3":12
					},
					"indices":13,
					"material":0
				}
			]
		}
	],
	"textures":[
		{
			"sampler":0,
			"source":0
		},
		{
			"sampler":0,
			"source":1
		},
		{
			"sampler":0,
			"source":2
		}
	],
	"images":[
		{
			"mimeType":"image/jpeg",
			"name":"Casket_normal",
			"uri":"Casket_normal.jpg"
		},
		{
			"mimeType":"image/jpeg",
			"name":"Casket_baseColor",
			"uri":"Casket_baseColor.jpg"
		},
		{
			"mimeType":"image/png",
			"name":"Casket_metallicRoughness",
			"uri":"Casket_metallicRoughness.png"
		}
	],
	"accessors":[
		{
			"bufferView":0,
			"componentType":5126,
			"count":9917,
			"max":[
				1.3099714517593384,
				2.369187355041504,
				2.3604702949523926
			],
			"min":[
				-1.3098773956298828,
				1.4086387157440186,
				-2.359158515930176
			],
			"type":"VEC3"
		},
		{
			"bufferView":1,
			"componentType":5126,
			"count":9917,
			"type":"VEC3"
		},
		{
			"bufferView":2,
			"componentType":5126,
			"count":9917,
			"type":"VEC2"
		},
		{
			"bufferView":3,
			"componentType":5126,
			"count":9917,
			"type":"VEC2"
		},
		{
			"bufferView":4,
			"componentType":5126,
			"count":9917,
			"type":"VEC2"
		},
		{
			"bufferView":5,
			"componentType":5126,
			"count":9917,
			"type":"VEC2"
		},
		{
			"bufferView":6,
			"componentType":5123,
			"count":55344,
			"type":"SCALAR"
		},
		{
			"bufferView":7,
			"componentType":5126,
			"count":536,
			"max":[
				0.12935948371887207,
				0.010429680347442627,
				1.7164334058761597
			],
			"min":[
				-0.011526823043823242,
				-0.010270297527313232,
				-1.7164340019226074
			],
			"type":"VEC3"
		},
		{
			"bufferView":8,
			"componentType":5126,
			"count":536,
			"type":"VEC3"
		},
		{
			"bufferView":9,
			"componentType":5126,
			"count":536,
			"type":"VEC2"
		},
		{
			"bufferView":10,
			"componentType":5126,
			"count":536,
			"type":"VEC2"
		},
		{
			"bufferView":11,
			"componentType":5126,
			"count":536,
			"type":"VEC2"
		},
		{
			"bufferView":12,
			"componentType":5126,
			"count":536,
			"type":"VEC2"
		},
		{
			"bufferView":13,
			"componentType":5123,
			"count":2898,
			"type":"SCALAR"
		},
		{
			"bufferView":14,
			"componentType":5126,
			"count":1,
			"max":[
				0.041666666666666664
			],
			"min":[
				0.041666666666666664
			],
			"type":"SCALAR"
		},
		{
			"bufferView":15,
			"componentType":5126,
			"count":1,
			"type":"VEC4"
		}
	],
	"bufferViews":[
		{
			"buffer":0,
			"byteLength":119004,
			"byteOffset":0,
			"target":34962
		},
		{
			"buffer":0,
			"byteLength":119004,
			"byteOffset":119004,
			"target":34962
		},
		{
			"buffer":0,
			"byteLength":79336,
			"byteOffset":238008,
			"target":34962
		},
		{
			"buffer":0,
			"byteLength":79336,
			"byteOffset":317344,
			"target":34962
		},
		{
			"buffer":0,
			"byteLength":79336,
			"byteOffset":396680,
			"target":34962
		},
		{
			"buffer":0,
			"byteLength":79336,
			"byteOffset":476016,
			"target":34962
		},
		{
			"buffer":0,
			"byteLength":110688,
			"byteOffset":555352,
			"target":34963
		},
		{
			"buffer":0,
			"byteLength":6432,
			"byteOffset":666040,
			"target":34962
		},
		{
			"buffer":0,
			"byteLength":6432,
			"byteOffset":672472,
			"target":34962
		},
		{
			"buffer":0,
			"byteLength":4288,
			"byteOffset":678904,
			"target":34962
		},
		{
			"buffer":0,
			"byteLength":4288,
			"byteOffset":683192,
			"target":34962
		},
		{
			"buffer":0,
			"byteLength":4288,
			"byteOffset":687480,
			"target":34962
		},
		{
			"buffer":0,
			"byteLength":4288,
			"byteOffset":691768,
			"target":34962
		},
		{
			"buffer":0,
			"byteLength":5796,
			"byteOffset":696056,
			"target":34963
		},
		{
			"buffer":0,
			"byteLength":4,
			"byteOffset":701852
		},
		{
			"buffer":0,
			"byteLength":16,
			"byteOffset":701856
		}
	],
	"samplers":[
		{
			"magFilter":9729,
			"minFilter":9987
		}
	],
	"buffers":[
		{
			"byteLength":701872,
			"uri":"music_box_lid.bin"
		}
	]
}
