{
	"asset":{
		"generator":"Khronos glTF Blender I/O v4.1.63",
		"version":"2.0"
	},
	"scene":0,
	"scenes":[
		{
			"name":"Scene",
			"nodes":[
				10
			]
		}
	],
	"nodes":[
		{
			"mesh":0,
			"name":"Object_10"
		},
		{
			"children":[
				0
			],
			"name":"Casket_hinge_top_3",
			"rotation":[
				0,
				0,
				-0.7071066498756409,
				0.70710688829422
			],
			"scale":[
				1.310556411743164,
				1.3105562925338745,
				1.3105565309524536
			],
			"translation":[
				-1.8409123420715332,
				1.7071890830993652,
				0
			]
		},
		{
			"name":"Casket_top_4",
			"rotation":[
				0,
				0,
				-0.7071066498756409,
				0.70710688829422
			],
			"scale":[
				1.310556411743164,
				1.3105562925338745,
				1.3105565309524536
			],
			"translation":[
				-1.8409123420715332,
				1.7071890830993652,
				0
			]
		},
		{
			"children":[
				1,
				2
			],
			"name":"Bone_5"
		},
		{
			"children":[
				3
			],
			"name":"Armature_6",
			"rotation":[
				0,
				0,
				0.7071068286895752,
				0.7071067094802856
			],
			"scale":[
				0.7630347013473511,
				0.7630347609519958,
				0.7630345821380615
			],
			"translation":[
				1.3026442527770996,
				1.4046796560287476,
				0
			]
		},
		{
			"mesh":1,
			"name":"Object_4"
		},
		{
			"children":[
				5
			],
			"name":"Casket_bot_1",
			"rotation":[
				0,
				-1,
				0,
				7.549790126404332e-08
			],
			"translation":[
				0.0002780267095658928,
				0.758574366569519,
				0
			]
		},
		{
			"name":"Casket_hinge_bot_2",
			"rotation":[
				0,
				-1,
				0,
				7.549790126404332e-08
			],
			"translation":[
				1.3011608123779297,
				1.404523491859436,
				-3.779142571147531e-05
			]
		},
		{
			"children":[
				4,
				6,
				7
			],
			"name":"GLTF_SceneRootNode",
			"rotation":[
				0.70710688829422,
				0,
				0,
				0.7071066498756409
			]
		},
		{
			"children":[
				8
			],
			"name":"root"
		},
		{
			"children":[
				9
			],
			"name":"Sketchfab_model",
			"rotation":[
				0,
				0.70710688829422,
				0.7071066498756409,
				0
			],
			"translation":[
				0.0001058910638676025,
				0,
				0.00021605075744446367
			]
		}
	],
	"materials":[
		{
			"doubleSided":true,
			"name":"Casket",
			"normalTexture":{
				"index":0,
				"texCoord":2
			},
			"pbrMetallicRoughness":{
				"baseColorTexture":{
					"index":1
				},
				"metallicFactor":0,
				"metallicRoughnessTexture":{
					"index":2,
					"texCoord":1
				},
				"roughnessFactor":0.7191705107688904
			}
		}
	],
	"meshes":[
		{
			"name":"Object_2",
			"primitives":[
				{
					"attributes":{
						"POSITION":0,
						"NORMAL":1,
						"TEXCOORD_0":2,
						"TEXCOORD_1":3,
						"TEXCOORD_2":4,
						"TEXCOORD_3":5
					},
					"indices":6,
					"material":0
				}
			]
		},
		{
			"name":"Object_0",
			"primitives":[
				{
					"attributes":{
						"POSITION":7,
						"NORMAL":8,
						"TEXCOORD_0":9,
						"TEXCOORD_1":10,
						"TEXCOORD_2":11,
						"TEXCOORD_3":12
					},
					"indices":13,
					"material":0
				}
			]
		}
	],
	"textures":[
		{
			"sampler":0,
			"source":0
		},
		{
			"sampler":0,
			"source":1
		},
		{
			"sampler":0,
			"source":2
		}
	],
	"images":[
		{
			"mimeType":"image/jpeg",
			"name":"Casket_normal",
			"uri":"Casket_normal.jpg"
		},
		{
			"mimeType":"image/jpeg",
			"name":"Casket_baseColor",
			"uri":"Casket_baseColor.jpg"
		},
		{
			"mimeType":"image/png",
			"name":"Casket_metallicRoughness",
			"uri":"Casket_metallicRoughness.png"
		}
	],
	"accessors":[
		{
			"bufferView":0,
			"componentType":5126,
			"count":570,
			"max":[
				1.3127037286758423,
				1.415074110031128,
				1.717574954032898
			],
			"min":[
				1.171815037727356,
				1.394374132156372,
				-1.7176496982574463
			],
			"type":"VEC3"
		},
		{
			"bufferView":1,
			"componentType":5126,
			"count":570,
			"type":"VEC3"
		},
		{
			"bufferView":2,
			"componentType":5126,
			"count":570,
			"type":"VEC2"
		},
		{
			"bufferView":3,
			"componentType":5126,
			"count":570,
			"type":"VEC2"
		},
		{
			"bufferView":4,
			"componentType":5126,
			"count":570,
			"type":"VEC2"
		},
		{
			"bufferView":5,
			"componentType":5126,
			"count":570,
			"type":"VEC2"
		},
		{
			"bufferView":6,
			"componentType":5123,
			"count":2913,
			"type":"SCALAR"
		},
		{
			"bufferView":7,
			"componentType":5126,
			"count":8639,
			"max":[
				1.3922419548034668,
				0.6430783271789551,
				2.4453439712524414
			],
			"min":[
				-1.3922390937805176,
				-0.7476545572280884,
				-2.445345401763916
			],
			"type":"VEC3"
		},
		{
			"bufferView":8,
			"componentType":5126,
			"count":8639,
			"type":"VEC3"
		},
		{
			"bufferView":9,
			"componentType":5126,
			"count":8639,
			"type":"VEC2"
		},
		{
			"bufferView":10,
			"componentType":5126,
			"count":8639,
			"type":"VEC2"
		},
		{
			"bufferView":11,
			"componentType":5126,
			"count":8639,
			"type":"VEC2"
		},
		{
			"bufferView":12,
			"componentType":5126,
			"count":8639,
			"type":"VEC2"
		},
		{
			"bufferView":13,
			"componentType":5123,
			"count":45768,
			"type":"SCALAR"
		}
	],
	"bufferViews":[
		{
			"buffer":0,
			"byteLength":6840,
			"byteOffset":0,
			"target":34962
		},
		{
			"buffer":0,
			"byteLength":6840,
			"byteOffset":6840,
			"target":34962
		},
		{
			"buffer":0,
			"byteLength":4560,
			"byteOffset":13680,
			"target":34962
		},
		{
			"buffer":0,
			"byteLength":4560,
			"byteOffset":18240,
			"target":34962
		},
		{
			"buffer":0,
			"byteLength":4560,
			"byteOffset":22800,
			"target":34962
		},
		{
			"buffer":0,
			"byteLength":4560,
			"byteOffset":27360,
			"target":34962
		},
		{
			"buffer":0,
			"byteLength":5826,
			"byteOffset":31920,
			"target":34963
		},
		{
			"buffer":0,
			"byteLength":103668,
			"byteOffset":37748,
			"target":34962
		},
		{
			"buffer":0,
			"byteLength":103668,
			"byteOffset":141416,
			"target":34962
		},
		{
			"buffer":0,
			"byteLength":69112,
			"byteOffset":245084,
			"target":34962
		},
		{
			"buffer":0,
			"byteLength":69112,
			"byteOffset":314196,
			"target":34962
		},
		{
			"buffer":0,
			"byteLength":69112,
			"byteOffset":383308,
			"target":34962
		},
		{
			"buffer":0,
			"byteLength":69112,
			"byteOffset":452420,
			"target":34962
		},
		{
			"buffer":0,
			"byteLength":91536,
			"byteOffset":521532,
			"target":34963
		}
	],
	"samplers":[
		{
			"magFilter":9729,
			"minFilter":9987
		}
	],
	"buffers":[
		{
			"byteLength":613068,
			"uri":"music_box_base.bin"
		}
	]
}
