{
	"asset":{
		"generator":"Khronos glTF Blender I/O v4.2.57",
		"version":"2.0"
	},
	"extensionsUsed":[
		"KHR_materials_specular"
	],
	"scene":0,
	"scenes":[
		{
			"name":"Scene",
			"nodes":[
				11
			]
		}
	],
	"nodes":[
		{
			"name":"Chair Arc"
		},
		{
			"mesh":0,
			"name":"Chair Details_Chair Details_0"
		},
		{
			"children":[
				1
			],
			"name":"Chair Details"
		},
		{
			"mesh":1,
			"name":"Leather Seating_Leather Seating_0"
		},
		{
			"children":[
				3
			],
			"name":"Leather Seating"
		},
		{
			"mesh":2,
			"name":"Leather Top_Leather Top_0"
		},
		{
			"children":[
				5
			],
			"name":"Leather Top"
		},
		{
			"name":"Wood  Front"
		},
		{
			"name":"Wood Legs"
		},
		{
			"children":[
				0,
				2,
				4,
				6,
				7,
				8
			],
			"name":"RootNode"
		},
		{
			"children":[
				9
			],
			"name":"f27e29a9dbc3451abce397231ef49a48.fbx"
		},
		{
			"children":[
				10
			],
			"name":"Sketchfab_model"
		}
	],
	"materials":[
		{
			"doubleSided":true,
			"extensions":{
				"KHR_materials_specular":{
					"specularFactor":0
				}
			},
			"name":"Chair_Arc",
			"pbrMetallicRoughness":{
				"baseColorTexture":{
					"index":0
				},
				"metallicFactor":0,
				"roughnessFactor":0.75
			}
		},
		{
			"doubleSided":true,
			"extensions":{
				"KHR_materials_specular":{
					"specularFactor":0
				}
			},
			"name":"Leather_Seating",
			"normalTexture":{
				"index":1
			},
			"pbrMetallicRoughness":{
				"baseColorFactor":[
					0.0010327619966119528,
					0.014484163373708725,
					0,
					1
				],
				"metallicFactor":0,
				"roughnessFactor":0.75
			}
		},
		{
			"doubleSided":true,
			"extensions":{
				"KHR_materials_specular":{
					"specularFactor":0
				}
			},
			"name":"Leather_Top",
			"normalTexture":{
				"index":2
			},
			"pbrMetallicRoughness":{
				"baseColorFactor":[
					0.0001535573974251747,
					0.024006230756640434,
					0,
					1
				],
				"metallicFactor":0,
				"roughnessFactor":0.75
			}
		}
	],
	"meshes":[
		{
			"name":"Chair Details_Chair Details_0",
			"primitives":[
				{
					"attributes":{
						"POSITION":0,
						"NORMAL":1,
						"TEXCOORD_0":2
					},
					"indices":3,
					"material":0
				}
			]
		},
		{
			"name":"Leather Seating_Leather Seating_0",
			"primitives":[
				{
					"attributes":{
						"POSITION":4,
						"NORMAL":5,
						"TEXCOORD_0":6
					},
					"indices":7,
					"material":1
				}
			]
		},
		{
			"name":"Leather Top_Leather Top_0",
			"primitives":[
				{
					"attributes":{
						"POSITION":8,
						"NORMAL":9,
						"TEXCOORD_0":10
					},
					"indices":11,
					"material":2
				}
			]
		}
	],
	"textures":[
		{
			"sampler":0,
			"source":0
		},
		{
			"sampler":0,
			"source":1
		},
		{
			"sampler":0,
			"source":2
		}
	],
	"images":[
		{
			"mimeType":"image/png",
			"name":"tx_hub_TrimWoodColor",
			"uri":"tx_hub_TrimWoodColor.png"
		},
		{
			"mimeType":"image/png",
			"name":"Leather_Seating_normal",
			"uri":"Leather_Seating_normal.png"
		},
		{
			"mimeType":"image/png",
			"name":"Leather_Top_normal",
			"uri":"Leather_Top_normal.png"
		}
	],
	"accessors":[
		{
			"bufferView":0,
			"componentType":5126,
			"count":21298,
			"max":[
				1.437722086906433,
				0.8066079616546631,
				1.4299957752227783
			],
			"min":[
				-1.4356497526168823,
				-2.3742282390594482,
				-0.8119789958000183
			],
			"type":"VEC3"
		},
		{
			"bufferView":1,
			"componentType":5126,
			"count":21298,
			"type":"VEC3"
		},
		{
			"bufferView":2,
			"componentType":5126,
			"count":21298,
			"type":"VEC2"
		},
		{
			"bufferView":3,
			"componentType":5123,
			"count":69696,
			"type":"SCALAR"
		},
		{
			"bufferView":4,
			"componentType":5126,
			"count":2611,
			"max":[
				1.1930251121520996,
				-0.17498430609703064,
				1.2371937036514282
			],
			"min":[
				-1.192484736442566,
				-0.6631938815116882,
				-0.7418681979179382
			],
			"type":"VEC3"
		},
		{
			"bufferView":5,
			"componentType":5126,
			"count":2611,
			"type":"VEC3"
		},
		{
			"bufferView":6,
			"componentType":5126,
			"count":2611,
			"type":"VEC2"
		},
		{
			"bufferView":7,
			"componentType":5123,
			"count":9090,
			"type":"SCALAR"
		},
		{
			"bufferView":8,
			"componentType":5126,
			"count":700,
			"max":[
				1.6113488674163818,
				0.9404693245887756,
				1.58174729347229
			],
			"min":[
				-1.6111350059509277,
				0.3884703814983368,
				-0.1105579137802124
			],
			"type":"VEC3"
		},
		{
			"bufferView":9,
			"componentType":5126,
			"count":700,
			"type":"VEC3"
		},
		{
			"bufferView":10,
			"componentType":5126,
			"count":700,
			"type":"VEC2"
		},
		{
			"bufferView":11,
			"componentType":5123,
			"count":3024,
			"type":"SCALAR"
		}
	],
	"bufferViews":[
		{
			"buffer":0,
			"byteLength":255576,
			"byteOffset":0,
			"target":34962
		},
		{
			"buffer":0,
			"byteLength":255576,
			"byteOffset":255576,
			"target":34962
		},
		{
			"buffer":0,
			"byteLength":170384,
			"byteOffset":511152,
			"target":34962
		},
		{
			"buffer":0,
			"byteLength":139392,
			"byteOffset":681536,
			"target":34963
		},
		{
			"buffer":0,
			"byteLength":31332,
			"byteOffset":820928,
			"target":34962
		},
		{
			"buffer":0,
			"byteLength":31332,
			"byteOffset":852260,
			"target":34962
		},
		{
			"buffer":0,
			"byteLength":20888,
			"byteOffset":883592,
			"target":34962
		},
		{
			"buffer":0,
			"byteLength":18180,
			"byteOffset":904480,
			"target":34963
		},
		{
			"buffer":0,
			"byteLength":8400,
			"byteOffset":922660,
			"target":34962
		},
		{
			"buffer":0,
			"byteLength":8400,
			"byteOffset":931060,
			"target":34962
		},
		{
			"buffer":0,
			"byteLength":5600,
			"byteOffset":939460,
			"target":34962
		},
		{
			"buffer":0,
			"byteLength":6048,
			"byteOffset":945060,
			"target":34963
		}
	],
	"samplers":[
		{
			"magFilter":9729,
			"minFilter":9987
		}
	],
	"buffers":[
		{
			"byteLength":951108,
			"uri":"mdl_brush_deskchair.bin"
		}
	]
}
