{
	"asset":{
		"generator":"Khronos glTF Blender I/O v4.3.47",
		"version":"2.0"
	},
	"scene":0,
	"scenes":[
		{
			"name":"Scene",
			"nodes":[
				0,
				1
			]
		}
	],
	"nodes":[
		{
			"mesh":0,
			"name":"Cube"
		},
		{
			"mesh":1,
			"name":"Cube.001",
			"rotation":[
				0,
				0,
				0.21948425471782684,
				0.9756161570549011
			]
		}
	],
	"materials":[
		{
			"doubleSided":true,
			"name":"Material.006",
			"pbrMetallicRoughness":{
				"baseColorTexture":{
					"index":0
				},
				"metallicFactor":0,
				"roughnessFactor":0.586363673210144
			}
		}
	],
	"meshes":[
		{
			"name":"Cube.004",
			"primitives":[
				{
					"attributes":{
						"POSITION":0,
						"NORMAL":1,
						"TEXCOORD_0":2
					},
					"indices":3,
					"material":0
				}
			]
		},
		{
			"name":"Cube.006",
			"primitives":[
				{
					"attributes":{
						"POSITION":4,
						"NORMAL":5,
						"TEXCOORD_0":6
					},
					"indices":7,
					"material":0
				}
			]
		}
	],
	"textures":[
		{
			"sampler":0,
			"source":0
		}
	],
	"images":[
		{
			"mimeType":"image/png",
			"name":"Untitled-1",
			"uri":"Untitled-1.png"
		}
	],
	"accessors":[
		{
			"bufferView":0,
			"componentType":5126,
			"count":336,
			"max":[
				0.800000011920929,
				0.10000002384185791,
				1
			],
			"min":[
				-0.800000011920929,
				-0.10000002384185791,
				-1
			],
			"type":"VEC3"
		},
		{
			"bufferView":1,
			"componentType":5126,
			"count":336,
			"type":"VEC3"
		},
		{
			"bufferView":2,
			"componentType":5126,
			"count":336,
			"type":"VEC2"
		},
		{
			"bufferView":3,
			"componentType":5123,
			"count":564,
			"type":"SCALAR"
		},
		{
			"bufferView":4,
			"componentType":5126,
			"count":48,
			"max":[
				0.7069074511528015,
				-0.003763459622859955,
				0.8190234303474426
			],
			"min":[
				0.09304815530776978,
				-0.24917161464691162,
				-0.8190234303474426
			],
			"type":"VEC3"
		},
		{
			"bufferView":5,
			"componentType":5126,
			"count":48,
			"type":"VEC3"
		},
		{
			"bufferView":6,
			"componentType":5126,
			"count":48,
			"type":"VEC2"
		},
		{
			"bufferView":7,
			"componentType":5123,
			"count":84,
			"type":"SCALAR"
		}
	],
	"bufferViews":[
		{
			"buffer":0,
			"byteLength":4032,
			"byteOffset":0,
			"target":34962
		},
		{
			"buffer":0,
			"byteLength":4032,
			"byteOffset":4032,
			"target":34962
		},
		{
			"buffer":0,
			"byteLength":2688,
			"byteOffset":8064,
			"target":34962
		},
		{
			"buffer":0,
			"byteLength":1128,
			"byteOffset":10752,
			"target":34963
		},
		{
			"buffer":0,
			"byteLength":576,
			"byteOffset":11880,
			"target":34962
		},
		{
			"buffer":0,
			"byteLength":576,
			"byteOffset":12456,
			"target":34962
		},
		{
			"buffer":0,
			"byteLength":384,
			"byteOffset":13032,
			"target":34962
		},
		{
			"buffer":0,
			"byteLength":168,
			"byteOffset":13416,
			"target":34963
		}
	],
	"samplers":[
		{
			"magFilter":9729,
			"minFilter":9987
		}
	],
	"buffers":[
		{
			"byteLength":13584,
			"uri":"phrase_machine_body.bin"
		}
	]
}
