{
    "asset" : {
        "generator" : "Khronos glTF Blender I/O v3.4.50",
        "version" : "2.0"
    },
    "scene" : 0,
    "scenes" : [
        {
            "name" : "Scene",
            "nodes" : [
                3,
                14
            ]
        }
    ],
    "nodes" : [
        {
            "name" : "FlowerPot1",
            "translation" : [
                0,
                7.564091205596924,
                0
            ]
        },
        {
            "children" : [
                0
            ],
            "name" : "RootNode"
        },
        {
            "children" : [
                1
            ],
            "name" : "ab3b8b97fc634ec78a202adc6d6141c7.fbx",
            "rotation" : [
                0.70710688829422,
                0,
                0,
                0.7071066498756409
            ],
            "scale" : [
                0.009999999776482582,
                0.010000000707805157,
                0.010000000707805157
            ]
        },
        {
            "children" : [
                2
            ],
            "name" : "Sketchfab_model",
            "rotation" : [
                -0.70710688829422,
                0,
                0,
                0.7071066498756409
            ]
        },
        {
            "mesh" : 0,
            "name" : "Cube_Spray Body_0"
        },
        {
            "children" : [
                4
            ],
            "name" : "Cube",
            "rotation" : [
                -0.70710688829422,
                0,
                0,
                0.7071066498756409
            ],
            "scale" : [
                100.00000762939453,
                100,
                99.99999237060547
            ],
            "translation" : [
                0,
                101.93331146240234,
                0
            ]
        },
        {
            "mesh" : 1,
            "name" : "Cylinder_Spray Inside_0"
        },
        {
            "children" : [
                6
            ],
            "name" : "Cylinder",
            "rotation" : [
                -0.70710688829422,
                0,
                0,
                0.7071066498756409
            ],
            "scale" : [
                100.00000762939453,
                100,
                99.99999237060547
            ],
            "translation" : [
                0,
                820.7211303710938,
                3.272857904434204
            ]
        },
        {
            "mesh" : 2,
            "name" : "Plane_Spray Top_0"
        },
        {
            "children" : [
                8
            ],
            "name" : "Plane",
            "rotation" : [
                -0.4999999403953552,
                0.4999999403953552,
                -0.5,
                0.5000000596046448
            ],
            "scale" : [
                100,
                100,
                100.00000762939453
            ],
            "translation" : [
                0,
                903.2421875,
                1.184402585029602
            ]
        },
        {
            "mesh" : 3,
            "name" : "Plane.001_Spray Top_0"
        },
        {
            "children" : [
                10
            ],
            "name" : "Plane.001",
            "rotation" : [
                -0.6043548583984375,
                0.367090106010437,
                -0.6043547987937927,
                0.36709028482437134
            ],
            "scale" : [
                100,
                99.99999237060547,
                99.99999237060547
            ],
            "translation" : [
                0.08698105812072754,
                831.3062133789062,
                151.57369995117188
            ]
        },
        {
            "children" : [
                5,
                7,
                9,
                11
            ],
            "name" : "RootNode.001"
        },
        {
            "children" : [
                12
            ],
            "name" : "Sprayer.fbx",
            "rotation" : [
                0.70710688829422,
                0,
                0,
                0.7071066498756409
            ]
        },
        {
            "children" : [
                13
            ],
            "name" : "Sketchfab_model.001",
            "rotation" : [
                -0.70710688829422,
                0,
                0,
                0.7071066498756409
            ],
            "scale" : [
                0.16268447041511536,
                0.1618102341890335,
                0.16268448531627655
            ]
        }
    ],
    "materials" : [
        {
            "doubleSided" : true,
            "name" : "Spray_Body",
            "pbrMetallicRoughness" : {
                "baseColorTexture" : {
                    "index" : 0
                },
                "metallicFactor" : 0,
                "roughnessFactor" : 0.9577051401138306
            }
        },
        {
            "doubleSided" : true,
            "name" : "Spray_Inside",
            "pbrMetallicRoughness" : {
                "baseColorFactor" : [
                    0.7864647507667542,
                    0.8000000715255737,
                    0.6357003450393677,
                    1
                ],
                "metallicFactor" : 0,
                "roughnessFactor" : 0.823941707611084
            }
        },
        {
            "doubleSided" : true,
            "name" : "Spray_Top",
            "pbrMetallicRoughness" : {
                "baseColorFactor" : [
                    0.8000000715255737,
                    0.3266269862651825,
                    0.043591249734163284,
                    1
                ],
                "metallicFactor" : 0,
                "roughnessFactor" : 0.9577051401138306
            }
        }
    ],
    "meshes" : [
        {
            "name" : "Cube_Spray Body_0",
            "primitives" : [
                {
                    "attributes" : {
                        "POSITION" : 0,
                        "TEXCOORD_0" : 1,
                        "NORMAL" : 2
                    },
                    "indices" : 3,
                    "material" : 0
                }
            ]
        },
        {
            "name" : "Cylinder_Spray Inside_0",
            "primitives" : [
                {
                    "attributes" : {
                        "POSITION" : 4,
                        "TEXCOORD_0" : 5,
                        "NORMAL" : 6
                    },
                    "indices" : 7,
                    "material" : 1
                }
            ]
        },
        {
            "name" : "Plane_Spray Top_0",
            "primitives" : [
                {
                    "attributes" : {
                        "POSITION" : 8,
                        "TEXCOORD_0" : 9,
                        "NORMAL" : 10
                    },
                    "indices" : 11,
                    "material" : 2
                }
            ]
        },
        {
            "name" : "Plane.001_Spray Top_0",
            "primitives" : [
                {
                    "attributes" : {
                        "POSITION" : 12,
                        "TEXCOORD_0" : 13,
                        "NORMAL" : 14
                    },
                    "indices" : 15,
                    "material" : 2
                }
            ]
        }
    ],
    "textures" : [
        {
            "sampler" : 0,
            "source" : 0
        }
    ],
    "images" : [
        {
            "mimeType" : "image/png",
            "name" : "Spray_Body_diffuse",
            "uri" : "textures/Spray_Body_diffuse.png"
        }
    ],
    "accessors" : [
        {
            "bufferView" : 0,
            "componentType" : 5126,
            "count" : 256,
            "max" : [
                1.0000509023666382,
                2.3198940753936768,
                6.866532325744629
            ],
            "min" : [
                -1.0000509023666382,
                -2.1953766345977783,
                -1
            ],
            "type" : "VEC3"
        },
        {
            "bufferView" : 1,
            "componentType" : 5126,
            "count" : 256,
            "type" : "VEC2"
        },
        {
            "bufferView" : 2,
            "componentType" : 5126,
            "count" : 256,
            "type" : "VEC3"
        },
        {
            "bufferView" : 3,
            "componentType" : 5123,
            "count" : 1176,
            "type" : "SCALAR"
        },
        {
            "bufferView" : 4,
            "componentType" : 5126,
            "count" : 368,
            "max" : [
                0.6090248227119446,
                0.6377699971199036,
                1.6632091999053955
            ],
            "min" : [
                -0.610550582408905,
                -1.2615375518798828,
                -0.3617197275161743
            ],
            "type" : "VEC3"
        },
        {
            "bufferView" : 5,
            "componentType" : 5126,
            "count" : 368,
            "type" : "VEC2"
        },
        {
            "bufferView" : 6,
            "componentType" : 5126,
            "count" : 368,
            "type" : "VEC3"
        },
        {
            "bufferView" : 7,
            "componentType" : 5123,
            "count" : 966,
            "type" : "SCALAR"
        },
        {
            "bufferView" : 8,
            "componentType" : 5126,
            "count" : 495,
            "max" : [
                1.1933374404907227,
                1.532397747039795,
                0.6336807608604431
            ],
            "min" : [
                -0.9625072479248047,
                -2.113473892211914,
                -0.6336807608604431
            ],
            "type" : "VEC3"
        },
        {
            "bufferView" : 9,
            "componentType" : 5126,
            "count" : 495,
            "type" : "VEC2"
        },
        {
            "bufferView" : 10,
            "componentType" : 5126,
            "count" : 495,
            "type" : "VEC3"
        },
        {
            "bufferView" : 11,
            "componentType" : 5123,
            "count" : 1902,
            "type" : "SCALAR"
        },
        {
            "bufferView" : 12,
            "componentType" : 5126,
            "count" : 62,
            "max" : [
                0.8419349193572998,
                0.34234675765037537,
                0.3145703971385956
            ],
            "min" : [
                -0.9464974999427795,
                -0.3367803394794464,
                -0.3145703971385956
            ],
            "type" : "VEC3"
        },
        {
            "bufferView" : 13,
            "componentType" : 5126,
            "count" : 62,
            "type" : "VEC2"
        },
        {
            "bufferView" : 14,
            "componentType" : 5126,
            "count" : 62,
            "type" : "VEC3"
        },
        {
            "bufferView" : 15,
            "componentType" : 5123,
            "count" : 153,
            "type" : "SCALAR"
        }
    ],
    "bufferViews" : [
        {
            "buffer" : 0,
            "byteLength" : 3072,
            "byteOffset" : 0,
            "target" : 34962
        },
        {
            "buffer" : 0,
            "byteLength" : 2048,
            "byteOffset" : 3072,
            "target" : 34962
        },
        {
            "buffer" : 0,
            "byteLength" : 3072,
            "byteOffset" : 5120,
            "target" : 34962
        },
        {
            "buffer" : 0,
            "byteLength" : 2352,
            "byteOffset" : 8192,
            "target" : 34963
        },
        {
            "buffer" : 0,
            "byteLength" : 4416,
            "byteOffset" : 10544,
            "target" : 34962
        },
        {
            "buffer" : 0,
            "byteLength" : 2944,
            "byteOffset" : 14960,
            "target" : 34962
        },
        {
            "buffer" : 0,
            "byteLength" : 4416,
            "byteOffset" : 17904,
            "target" : 34962
        },
        {
            "buffer" : 0,
            "byteLength" : 1932,
            "byteOffset" : 22320,
            "target" : 34963
        },
        {
            "buffer" : 0,
            "byteLength" : 5940,
            "byteOffset" : 24252,
            "target" : 34962
        },
        {
            "buffer" : 0,
            "byteLength" : 3960,
            "byteOffset" : 30192,
            "target" : 34962
        },
        {
            "buffer" : 0,
            "byteLength" : 5940,
            "byteOffset" : 34152,
            "target" : 34962
        },
        {
            "buffer" : 0,
            "byteLength" : 3804,
            "byteOffset" : 40092,
            "target" : 34963
        },
        {
            "buffer" : 0,
            "byteLength" : 744,
            "byteOffset" : 43896,
            "target" : 34962
        },
        {
            "buffer" : 0,
            "byteLength" : 496,
            "byteOffset" : 44640,
            "target" : 34962
        },
        {
            "buffer" : 0,
            "byteLength" : 744,
            "byteOffset" : 45136,
            "target" : 34962
        },
        {
            "buffer" : 0,
            "byteLength" : 306,
            "byteOffset" : 45880,
            "target" : 34963
        }
    ],
    "samplers" : [
        {
            "magFilter" : 9729,
            "minFilter" : 9987
        }
    ],
    "buffers" : [
        {
            "byteLength" : 46188,
            "uri" : "mdl_paprika_sprayer.bin"
        }
    ]
}
