{
    "asset" : {
        "generator" : "Khronos glTF Blender I/O v3.4.50",
        "version" : "2.0"
    },
    "scene" : 0,
    "scenes" : [
        {
            "name" : "Scene",
            "nodes" : [
                1,
                7
            ]
        }
    ],
    "nodes" : [
        {
            "name" : "ID1",
            "translation" : [
                0,
                -3.039836883544922e-06,
                -1.9397586584091187e-05
            ]
        },
        {
            "children" : [
                0
            ],
            "name" : "skp_camera_Last_Saved_SketchUp_View",
            "rotation" : [
                0.007086034398525953,
                -0.35136860609054565,
                -0.9360200762748718,
                0.018876681104302406
            ],
            "translation" : [
                2.089055061340332,
                267.8211975097656,
                277.55419921875
            ]
        },
        {
            "mesh" : 0,
            "name" : "Material2.003"
        },
        {
            "name" : "ID1.001",
            "translation" : [
                0,
                -6.847083568572998e-06,
                -4.1387975215911865e-06
            ]
        },
        {
            "children" : [
                3
            ],
            "name" : "skp_camera_Last_Saved_SketchUp_View.001",
            "rotation" : [
                0.007086034398525953,
                -0.35136860609054565,
                -0.9360200762748718,
                0.018876681104302406
            ],
            "translation" : [
                2.089055061340332,
                267.8211975097656,
                277.55419921875
            ]
        },
        {
            "children" : [
                4
            ],
            "name" : "SketchUp"
        },
        {
            "children" : [
                2,
                5
            ],
            "name" : "Collada visual scene group"
        },
        {
            "children" : [
                6
            ],
            "name" : "Sketchfab_model",
            "rotation" : [
                -0.70710688829422,
                0,
                0,
                0.7071066498756409
            ]
        }
    ],
    "materials" : [
        {
            "name" : "Concrete_Aggregate_Smoke.001",
            "pbrMetallicRoughness" : {
                "baseColorTexture" : {
                    "index" : 0
                },
                "metallicFactor" : 0,
                "roughnessFactor" : 0.6000000238418579
            }
        }
    ],
    "meshes" : [
        {
            "name" : "Material2.008",
            "primitives" : [
                {
                    "attributes" : {
                        "POSITION" : 0,
                        "TEXCOORD_0" : 1,
                        "NORMAL" : 2
                    },
                    "indices" : 3,
                    "material" : 0
                },
                {
                    "attributes" : {
                        "POSITION" : 4,
                        "TEXCOORD_0" : 5,
                        "NORMAL" : 6
                    },
                    "indices" : 7,
                    "material" : 0
                }
            ]
        }
    ],
    "textures" : [
        {
            "sampler" : 0,
            "source" : 0
        }
    ],
    "images" : [
        {
            "mimeType" : "image/jpeg",
            "name" : "Concrete_Aggregate_Smoke_baseColor",
            "uri" : "textures/Concrete_Aggregate_Smoke_baseColor.jpg"
        }
    ],
    "accessors" : [
        {
            "bufferView" : 0,
            "componentType" : 5126,
            "count" : 307,
            "max" : [
                104.4655990600586,
                109.9375,
                49.5
            ],
            "min" : [
                0,
                -15.493189811706543,
                0
            ],
            "type" : "VEC3"
        },
        {
            "bufferView" : 1,
            "componentType" : 5126,
            "count" : 307,
            "type" : "VEC2"
        },
        {
            "bufferView" : 2,
            "componentType" : 5126,
            "count" : 307,
            "type" : "VEC3"
        },
        {
            "bufferView" : 3,
            "componentType" : 5123,
            "count" : 489,
            "type" : "SCALAR"
        },
        {
            "bufferView" : 4,
            "componentType" : 5126,
            "count" : 94,
            "max" : [
                104.4655990600586,
                46.67055892944336,
                42
            ],
            "min" : [
                46.822811126708984,
                -15.493189811706543,
                11.9375
            ],
            "type" : "VEC3"
        },
        {
            "bufferView" : 5,
            "componentType" : 5126,
            "count" : 94,
            "type" : "VEC2"
        },
        {
            "bufferView" : 6,
            "componentType" : 5126,
            "count" : 94,
            "type" : "VEC3"
        },
        {
            "bufferView" : 7,
            "componentType" : 5123,
            "count" : 153,
            "type" : "SCALAR"
        }
    ],
    "bufferViews" : [
        {
            "buffer" : 0,
            "byteLength" : 3684,
            "byteOffset" : 0,
            "target" : 34962
        },
        {
            "buffer" : 0,
            "byteLength" : 2456,
            "byteOffset" : 3684,
            "target" : 34962
        },
        {
            "buffer" : 0,
            "byteLength" : 3684,
            "byteOffset" : 6140,
            "target" : 34962
        },
        {
            "buffer" : 0,
            "byteLength" : 978,
            "byteOffset" : 9824,
            "target" : 34963
        },
        {
            "buffer" : 0,
            "byteLength" : 1128,
            "byteOffset" : 10804,
            "target" : 34962
        },
        {
            "buffer" : 0,
            "byteLength" : 752,
            "byteOffset" : 11932,
            "target" : 34962
        },
        {
            "buffer" : 0,
            "byteLength" : 1128,
            "byteOffset" : 12684,
            "target" : 34962
        },
        {
            "buffer" : 0,
            "byteLength" : 306,
            "byteOffset" : 13812,
            "target" : 34963
        }
    ],
    "samplers" : [
        {
            "magFilter" : 9729,
            "minFilter" : 9987
        }
    ],
    "buffers" : [
        {
            "byteLength" : 14120,
            "uri" : "mdl_paprika_pool.bin"
        }
    ]
}
