{
	"asset":{
		"generator":"Khronos glTF Blender I/O v4.0.44",
		"version":"2.0"
	},
	"extensionsUsed":[
		"KHR_materials_unlit"
	],
	"scene":0,
	"scenes":[
		{
			"name":"Scene",
			"nodes":[
				2
			]
		}
	],
	"nodes":[
		{
			"mesh":0,
			"name":"Object_2"
		},
		{
			"children":[
				0
			],
			"name":"SouvenirDoll.obj.cleaner.materialmerger.gles"
		},
		{
			"children":[
				1
			],
			"name":"Sketchfab_model",
			"rotation":[
				-1,
				0,
				0,
				4.996003610813204e-16
			],
			"translation":[
				0,
				1.1219630241394043,
				-1.2664875984191895
			]
		}
	],
	"materials":[
		{
			"doubleSided":true,
			"extensions":{
				"KHR_materials_unlit":{}
			},
			"name":"Material_0.003",
			"pbrMetallicRoughness":{
				"baseColorTexture":{
					"index":0
				},
				"metallicFactor":0,
				"roughnessFactor":0.9
			}
		}
	],
	"meshes":[
		{
			"name":"Object_0.031",
			"primitives":[
				{
					"attributes":{
						"POSITION":0,
						"NORMAL":1,
						"TEXCOORD_0":2
					},
					"indices":3,
					"material":0
				}
			]
		}
	],
	"textures":[
		{
			"sampler":0,
			"source":0
		}
	],
	"images":[
		{
			"mimeType":"image/jpeg",
			"name":"Image_0",
			"uri":"Image_0.jpg"
		}
	],
	"accessors":[
		{
			"bufferView":0,
			"componentType":5126,
			"count":7273,
			"max":[
				3.287572145462036,
				8.503000259399414,
				3.234053611755371
			],
			"min":[
				-3.313662052154541,
				-6.111636161804199,
				-3.3747146129608154
			],
			"type":"VEC3"
		},
		{
			"bufferView":1,
			"componentType":5126,
			"count":7273,
			"type":"VEC3"
		},
		{
			"bufferView":2,
			"componentType":5126,
			"count":7273,
			"type":"VEC2"
		},
		{
			"bufferView":3,
			"componentType":5123,
			"count":29589,
			"type":"SCALAR"
		}
	],
	"bufferViews":[
		{
			"buffer":0,
			"byteLength":87276,
			"byteOffset":0,
			"target":34962
		},
		{
			"buffer":0,
			"byteLength":87276,
			"byteOffset":87276,
			"target":34962
		},
		{
			"buffer":0,
			"byteLength":58184,
			"byteOffset":174552,
			"target":34962
		},
		{
			"buffer":0,
			"byteLength":59178,
			"byteOffset":232736,
			"target":34963
		}
	],
	"samplers":[
		{
			"magFilter":9729,
			"minFilter":9987
		}
	],
	"buffers":[
		{
			"byteLength":291916,
			"uri":"hungarian_souvenir_doll.bin"
		}
	]
}
