{
	"asset":{
		"generator":"Khronos glTF Blender I/O v3.6.27",
		"version":"2.0"
	},
	"scene":0,
	"scenes":[
		{
			"name":"Scene",
			"nodes":[
				0
			]
		}
	],
	"nodes":[
		{
			"mesh":0,
			"name":"Cube.013",
			"scale":[
				0.030738109722733498,
				0.5730985999107361,
				0.017028596252202988
			],
			"translation":[
				-0.14478112757205963,
				0.4765889644622803,
				4.220255374908447
			]
		}
	],
	"materials":[
		{
			"doubleSided":true,
			"name":"metal",
			"pbrMetallicRoughness":{
				"baseColorFactor":[
					0.8003076910972595,
					0.4356294870376587,
					0.18434640765190125,
					1
				],
				"metallicFactor":0.874015748500824,
				"roughnessFactor":0.10629919916391373
			}
		}
	],
	"meshes":[
		{
			"name":"Cube.026",
			"primitives":[
				{
					"attributes":{
						"POSITION":0,
						"NORMAL":1,
						"TEXCOORD_0":2
					},
					"indices":3,
					"material":0
				}
			]
		}
	],
	"accessors":[
		{
			"bufferView":0,
			"componentType":5126,
			"count":480,
			"max":[
				1,
				1.3023297786712646,
				1
			],
			"min":[
				-25.999998092651367,
				-1,
				-1
			],
			"type":"VEC3"
		},
		{
			"bufferView":1,
			"componentType":5126,
			"count":480,
			"type":"VEC3"
		},
		{
			"bufferView":2,
			"componentType":5126,
			"count":480,
			"type":"VEC2"
		},
		{
			"bufferView":3,
			"componentType":5123,
			"count":792,
			"type":"SCALAR"
		}
	],
	"bufferViews":[
		{
			"buffer":0,
			"byteLength":5760,
			"byteOffset":0,
			"target":34962
		},
		{
			"buffer":0,
			"byteLength":5760,
			"byteOffset":5760,
			"target":34962
		},
		{
			"buffer":0,
			"byteLength":3840,
			"byteOffset":11520,
			"target":34962
		},
		{
			"buffer":0,
			"byteLength":1584,
			"byteOffset":15360,
			"target":34963
		}
	],
	"buffers":[
		{
			"byteLength":16944,
			"uri":"mdl_franch_cliffside_gate_cave.bin"
		}
	]
}
