{
	"asset":{
		"generator":"Khronos glTF Blender I/O v4.1.62",
		"version":"2.0"
	},
	"scene":0,
	"scenes":[
		{
			"name":"Scene",
			"nodes":[
				0
			]
		}
	],
	"nodes":[
		{
			"mesh":0,
			"name":"Cylinder",
			"scale":[
				32.14900207519531,
				5.243255615234375,
				32.14900207519531
			]
		}
	],
	"materials":[
		{
			"doubleSided":true,
			"name":"Normal_Map",
			"normalTexture":{
				"index":0
			},
			"pbrMetallicRoughness":{
				"baseColorTexture":{
					"index":1
				},
				"metallicFactor":0,
				"metallicRoughnessTexture":{
					"index":2
				}
			}
		}
	],
	"meshes":[
		{
			"name":"Cylinder",
			"primitives":[
				{
					"attributes":{
						"POSITION":0,
						"NORMAL":1,
						"TEXCOORD_0":2
					},
					"indices":3,
					"material":0
				}
			]
		}
	],
	"textures":[
		{
			"sampler":0,
			"source":0
		},
		{
			"sampler":0,
			"source":1
		},
		{
			"sampler":0,
			"source":2
		}
	],
	"images":[
		{
			"mimeType":"image/png",
			"name":"2_carving",
			"uri":"2_carving.png"
		},
		{
			"mimeType":"image/png",
			"name":"1",
			"uri":"1.png"
		},
		{
			"mimeType":"image/png",
			"name":"Rock029_2K-PNG_Roughness",
			"uri":"Rock029_2K-PNG_Roughness.png"
		}
	],
	"accessors":[
		{
			"bufferView":0,
			"componentType":5126,
			"count":320,
			"max":[
				1,
				1,
				1
			],
			"min":[
				-1,
				-0.16454434394836426,
				-1
			],
			"type":"VEC3"
		},
		{
			"bufferView":1,
			"componentType":5126,
			"count":320,
			"type":"VEC3"
		},
		{
			"bufferView":2,
			"componentType":5126,
			"count":320,
			"type":"VEC2"
		},
		{
			"bufferView":3,
			"componentType":5123,
			"count":564,
			"type":"SCALAR"
		}
	],
	"bufferViews":[
		{
			"buffer":0,
			"byteLength":3840,
			"byteOffset":0,
			"target":34962
		},
		{
			"buffer":0,
			"byteLength":3840,
			"byteOffset":3840,
			"target":34962
		},
		{
			"buffer":0,
			"byteLength":2560,
			"byteOffset":7680,
			"target":34962
		},
		{
			"buffer":0,
			"byteLength":1128,
			"byteOffset":10240,
			"target":34963
		}
	],
	"samplers":[
		{
			"magFilter":9729,
			"minFilter":9987
		}
	],
	"buffers":[
		{
			"byteLength":11368,
			"uri":"phaistos.bin"
		}
	]
}
