{
	"asset":{
		"generator":"Khronos glTF Blender I/O v4.2.57",
		"version":"2.0"
	},
	"extensionsUsed":[
		"KHR_materials_specular",
		"KHR_materials_ior"
	],
	"scene":0,
	"scenes":[
		{
			"name":"Scene",
			"nodes":[
				1,
				3,
				5,
				7,
				9
			]
		}
	],
	"nodes":[
		{
			"mesh":0,
			"name":"Cube#boxcollider.005"
		},
		{
			"children":[
				0
			],
			"mesh":1,
			"name":"CoverFront",
			"translation":[
				-0.011247225105762482,
				0,
				-0.020190924406051636
			]
		},
		{
			"mesh":2,
			"name":"Cube#boxcollider.004"
		},
		{
			"children":[
				2
			],
			"mesh":3,
			"name":"CoverBack",
			"translation":[
				-0.01124563068151474,
				0,
				0.020205575972795486
			]
		},
		{
			"mesh":4,
			"name":"Cube#boxcollider.001"
		},
		{
			"children":[
				4
			],
			"mesh":5,
			"name":"PagesBack",
			"translation":[
				-0.005711287260055542,
				0,
				-1.4808254491072148e-05
			]
		},
		{
			"mesh":6,
			"name":"Cube#boxcollider.002"
		},
		{
			"children":[
				6
			],
			"mesh":7,
			"name":"PagesFront",
			"rotation":[
				-1,
				0,
				0,
				1.6292068494294654e-07
			],
			"translation":[
				-0.005711287260055542,
				0,
				-1.4808254491072148e-05
			]
		},
		{
			"mesh":8,
			"name":"Cube#boxcollider.003"
		},
		{
			"children":[
				8
			],
			"mesh":9,
			"name":"Spine"
		}
	],
	"materials":[
		{
			"doubleSided":true,
			"extensions":{
				"KHR_materials_specular":{
					"specularColorFactor":[
						0.23713576793670654,
						0.23713576793670654,
						0.23713576793670654
					]
				},
				"KHR_materials_ior":{
					"ior":1.4500000476837158
				}
			},
			"name":"Cover",
			"normalTexture":{
				"index":0
			},
			"pbrMetallicRoughness":{
				"baseColorTexture":{
					"index":1
				},
				"metallicFactor":0,
				"roughnessFactor":0.75
			}
		},
		{
			"doubleSided":true,
			"extensions":{
				"KHR_materials_specular":{
					"specularColorFactor":[
						0.0,
						0.0,
						0.0
					]
				},
				"KHR_materials_ior":{
					"ior":1.4500000476837158
				}
			},
			"name":"Pages",
			"normalTexture":{
				"index":2
			},
			"pbrMetallicRoughness":{
				"baseColorTexture":{
					"index":3
				},
				"metallicFactor":0,
				"roughnessFactor":0.75
			}
		}
	],
	"meshes":[
		{
			"name":"Cube#boxcollider.005",
			"primitives":[
				{
					"attributes":{
						"POSITION":0,
						"NORMAL":1,
						"TEXCOORD_0":2
					},
					"indices":3
				}
			]
		},
		{
			"name":"Cube.008",
			"primitives":[
				{
					"attributes":{
						"POSITION":4,
						"NORMAL":5,
						"TEXCOORD_0":6
					},
					"indices":7,
					"material":0
				}
			]
		},
		{
			"name":"Cube#boxcollider.004",
			"primitives":[
				{
					"attributes":{
						"POSITION":8,
						"NORMAL":9,
						"TEXCOORD_0":10
					},
					"indices":11
				}
			]
		},
		{
			"name":"Cube.009",
			"primitives":[
				{
					"attributes":{
						"POSITION":12,
						"NORMAL":13,
						"TEXCOORD_0":14
					},
					"indices":15,
					"material":0
				}
			]
		},
		{
			"name":"Cube#boxcollider.001",
			"primitives":[
				{
					"attributes":{
						"POSITION":16,
						"NORMAL":17,
						"TEXCOORD_0":18
					},
					"indices":19
				}
			]
		},
		{
			"name":"Cube.010",
			"primitives":[
				{
					"attributes":{
						"POSITION":20,
						"NORMAL":21,
						"TEXCOORD_0":22
					},
					"indices":23,
					"material":1
				}
			]
		},
		{
			"name":"Cube#boxcollider.002",
			"primitives":[
				{
					"attributes":{
						"POSITION":24,
						"NORMAL":25,
						"TEXCOORD_0":26
					},
					"indices":27
				}
			]
		},
		{
			"name":"Cube.022",
			"primitives":[
				{
					"attributes":{
						"POSITION":28,
						"NORMAL":29,
						"TEXCOORD_0":30
					},
					"indices":31,
					"material":1
				}
			]
		},
		{
			"name":"Cube#boxcollider.003",
			"primitives":[
				{
					"attributes":{
						"POSITION":32,
						"NORMAL":33,
						"TEXCOORD_0":34
					},
					"indices":35
				}
			]
		},
		{
			"name":"Cube.023",
			"primitives":[
				{
					"attributes":{
						"POSITION":36,
						"NORMAL":37,
						"TEXCOORD_0":38
					},
					"indices":39,
					"material":0
				}
			]
		}
	],
	"textures":[
		{
			"sampler":0,
			"source":0
		},
		{
			"sampler":0,
			"source":1
		},
		{
			"sampler":0,
			"source":2
		},
		{
			"sampler":0,
			"source":3
		}
	],
	"images":[
		{
			"mimeType":"image/png",
			"name":"cover_n",
			"uri":"cover_n.png"
		},
		{
			"mimeType":"image/png",
			"name":"Txt_KRANK_BookCover",
			"uri":"Txt_KRANK_BookCover.png"
		},
		{
			"mimeType":"image/png",
			"name":"pages_n",
			"uri":"pages_n.png"
		},
		{
			"mimeType":"image/png",
			"name":"Txt_KRANK_Bookinside",
			"uri":"Txt_KRANK_Bookinside.png"
		}
	],
	"accessors":[
		{
			"bufferView":0,
			"componentType":5126,
			"count":24,
			"max":[
				0.0006232559680938721,
				0.20048829913139343,
				4.4063664972782135e-05
			],
			"min":[
				-0.2549726366996765,
				-0.20048829913139343,
				-0.00632939487695694
			],
			"type":"VEC3"
		},
		{
			"bufferView":1,
			"componentType":5126,
			"count":24,
			"type":"VEC3"
		},
		{
			"bufferView":2,
			"componentType":5126,
			"count":24,
			"type":"VEC2"
		},
		{
			"bufferView":3,
			"componentType":5123,
			"count":36,
			"type":"SCALAR"
		},
		{
			"bufferView":4,
			"componentType":5126,
			"count":134,
			"max":[
				0.0006232559680938721,
				0.2004418969154358,
				3.618001937866211e-05
			],
			"min":[
				-0.25603264570236206,
				-0.2004418969154358,
				-0.00632939487695694
			],
			"type":"VEC3"
		},
		{
			"bufferView":5,
			"componentType":5126,
			"count":134,
			"type":"VEC3"
		},
		{
			"bufferView":6,
			"componentType":5126,
			"count":134,
			"type":"VEC2"
		},
		{
			"bufferView":7,
			"componentType":5123,
			"count":300,
			"type":"SCALAR"
		},
		{
			"bufferView":8,
			"componentType":5126,
			"count":24,
			"max":[
				0.0006235241889953613,
				0.20048418641090393,
				0.0063350610435009
			],
			"min":[
				-0.2549723982810974,
				-0.20048418641090393,
				-7.045851089060307e-05
			],
			"type":"VEC3"
		},
		{
			"bufferView":9,
			"componentType":5126,
			"count":24,
			"type":"VEC3"
		},
		{
			"bufferView":10,
			"componentType":5126,
			"count":24,
			"type":"VEC2"
		},
		{
			"bufferView":11,
			"componentType":5123,
			"count":36,
			"type":"SCALAR"
		},
		{
			"bufferView":12,
			"componentType":5126,
			"count":178,
			"max":[
				0.0006235241889953613,
				0.2004418969154358,
				0.0063350610435009
			],
			"min":[
				-0.2560325264930725,
				-0.2004418969154358,
				-2.4829059839248657e-05
			],
			"type":"VEC3"
		},
		{
			"bufferView":13,
			"componentType":5126,
			"count":178,
			"type":"VEC3"
		},
		{
			"bufferView":14,
			"componentType":5126,
			"count":178,
			"type":"VEC2"
		},
		{
			"bufferView":15,
			"componentType":5123,
			"count":300,
			"type":"SCALAR"
		},
		{
			"bufferView":16,
			"componentType":5126,
			"count":24,
			"max":[
				0,
				0.19637298583984375,
				0.02027556672692299
			],
			"min":[
				-0.2584279477596283,
				-0.19637298583984375,
				2.1199997718213126e-05
			],
			"type":"VEC3"
		},
		{
			"bufferView":17,
			"componentType":5126,
			"count":24,
			"type":"VEC3"
		},
		{
			"bufferView":18,
			"componentType":5126,
			"count":24,
			"type":"VEC2"
		},
		{
			"bufferView":19,
			"componentType":5123,
			"count":36,
			"type":"SCALAR"
		},
		{
			"bufferView":20,
			"componentType":5126,
			"count":66,
			"max":[
				0,
				0.19637298583984375,
				0.02027556672692299
			],
			"min":[
				-0.2584279477596283,
				-0.19637298583984375,
				-0.008418519049882889
			],
			"type":"VEC3"
		},
		{
			"bufferView":21,
			"componentType":5126,
			"count":66,
			"type":"VEC3"
		},
		{
			"bufferView":22,
			"componentType":5126,
			"count":66,
			"type":"VEC2"
		},
		{
			"bufferView":23,
			"componentType":5123,
			"count":204,
			"type":"SCALAR"
		},
		{
			"bufferView":24,
			"componentType":5126,
			"count":24,
			"max":[
				0,
				0.19635334610939026,
				0.02027556672692299
			],
			"min":[
				-0.2584279477596283,
				-0.19635334610939026,
				2.1200161427259445e-05
			],
			"type":"VEC3"
		},
		{
			"bufferView":25,
			"componentType":5126,
			"count":24,
			"type":"VEC3"
		},
		{
			"bufferView":26,
			"componentType":5126,
			"count":24,
			"type":"VEC2"
		},
		{
			"bufferView":27,
			"componentType":5123,
			"count":36,
			"type":"SCALAR"
		},
		{
			"bufferView":28,
			"componentType":5126,
			"count":66,
			"max":[
				0,
				0.19635334610939026,
				0.02027556672692299
			],
			"min":[
				-0.2584279477596283,
				-0.19635334610939026,
				-0.008418519049882889
			],
			"type":"VEC3"
		},
		{
			"bufferView":29,
			"componentType":5126,
			"count":66,
			"type":"VEC3"
		},
		{
			"bufferView":30,
			"componentType":5126,
			"count":66,
			"type":"VEC2"
		},
		{
			"bufferView":31,
			"componentType":5123,
			"count":204,
			"type":"SCALAR"
		},
		{
			"bufferView":32,
			"componentType":5126,
			"count":24,
			"max":[
				0.00011733142309822142,
				0.20046493411064148,
				0.026969064027071
			],
			"min":[
				-0.011315193958580494,
				-0.20046493411064148,
				-0.02695506252348423
			],
			"type":"VEC3"
		},
		{
			"bufferView":33,
			"componentType":5126,
			"count":24,
			"type":"VEC3"
		},
		{
			"bufferView":34,
			"componentType":5126,
			"count":24,
			"type":"VEC2"
		},
		{
			"bufferView":35,
			"componentType":5123,
			"count":36,
			"type":"SCALAR"
		},
		{
			"bufferView":36,
			"componentType":5126,
			"count":252,
			"max":[
				-2.2470951080322266e-05,
				0.2004418969154358,
				0.026534944772720337
			],
			"min":[
				-0.011247217655181885,
				-0.2004418969154358,
				-0.026520326733589172
			],
			"type":"VEC3"
		},
		{
			"bufferView":37,
			"componentType":5126,
			"count":252,
			"type":"VEC3"
		},
		{
			"bufferView":38,
			"componentType":5126,
			"count":252,
			"type":"VEC2"
		},
		{
			"bufferView":39,
			"componentType":5123,
			"count":708,
			"type":"SCALAR"
		}
	],
	"bufferViews":[
		{
			"buffer":0,
			"byteLength":288,
			"byteOffset":0,
			"target":34962
		},
		{
			"buffer":0,
			"byteLength":288,
			"byteOffset":288,
			"target":34962
		},
		{
			"buffer":0,
			"byteLength":192,
			"byteOffset":576,
			"target":34962
		},
		{
			"buffer":0,
			"byteLength":72,
			"byteOffset":768,
			"target":34963
		},
		{
			"buffer":0,
			"byteLength":1608,
			"byteOffset":840,
			"target":34962
		},
		{
			"buffer":0,
			"byteLength":1608,
			"byteOffset":2448,
			"target":34962
		},
		{
			"buffer":0,
			"byteLength":1072,
			"byteOffset":4056,
			"target":34962
		},
		{
			"buffer":0,
			"byteLength":600,
			"byteOffset":5128,
			"target":34963
		},
		{
			"buffer":0,
			"byteLength":288,
			"byteOffset":5728,
			"target":34962
		},
		{
			"buffer":0,
			"byteLength":288,
			"byteOffset":6016,
			"target":34962
		},
		{
			"buffer":0,
			"byteLength":192,
			"byteOffset":6304,
			"target":34962
		},
		{
			"buffer":0,
			"byteLength":72,
			"byteOffset":6496,
			"target":34963
		},
		{
			"buffer":0,
			"byteLength":2136,
			"byteOffset":6568,
			"target":34962
		},
		{
			"buffer":0,
			"byteLength":2136,
			"byteOffset":8704,
			"target":34962
		},
		{
			"buffer":0,
			"byteLength":1424,
			"byteOffset":10840,
			"target":34962
		},
		{
			"buffer":0,
			"byteLength":600,
			"byteOffset":12264,
			"target":34963
		},
		{
			"buffer":0,
			"byteLength":288,
			"byteOffset":12864,
			"target":34962
		},
		{
			"buffer":0,
			"byteLength":288,
			"byteOffset":13152,
			"target":34962
		},
		{
			"buffer":0,
			"byteLength":192,
			"byteOffset":13440,
			"target":34962
		},
		{
			"buffer":0,
			"byteLength":72,
			"byteOffset":13632,
			"target":34963
		},
		{
			"buffer":0,
			"byteLength":792,
			"byteOffset":13704,
			"target":34962
		},
		{
			"buffer":0,
			"byteLength":792,
			"byteOffset":14496,
			"target":34962
		},
		{
			"buffer":0,
			"byteLength":528,
			"byteOffset":15288,
			"target":34962
		},
		{
			"buffer":0,
			"byteLength":408,
			"byteOffset":15816,
			"target":34963
		},
		{
			"buffer":0,
			"byteLength":288,
			"byteOffset":16224,
			"target":34962
		},
		{
			"buffer":0,
			"byteLength":288,
			"byteOffset":16512,
			"target":34962
		},
		{
			"buffer":0,
			"byteLength":192,
			"byteOffset":16800,
			"target":34962
		},
		{
			"buffer":0,
			"byteLength":72,
			"byteOffset":16992,
			"target":34963
		},
		{
			"buffer":0,
			"byteLength":792,
			"byteOffset":17064,
			"target":34962
		},
		{
			"buffer":0,
			"byteLength":792,
			"byteOffset":17856,
			"target":34962
		},
		{
			"buffer":0,
			"byteLength":528,
			"byteOffset":18648,
			"target":34962
		},
		{
			"buffer":0,
			"byteLength":408,
			"byteOffset":19176,
			"target":34963
		},
		{
			"buffer":0,
			"byteLength":288,
			"byteOffset":19584,
			"target":34962
		},
		{
			"buffer":0,
			"byteLength":288,
			"byteOffset":19872,
			"target":34962
		},
		{
			"buffer":0,
			"byteLength":192,
			"byteOffset":20160,
			"target":34962
		},
		{
			"buffer":0,
			"byteLength":72,
			"byteOffset":20352,
			"target":34963
		},
		{
			"buffer":0,
			"byteLength":3024,
			"byteOffset":20424,
			"target":34962
		},
		{
			"buffer":0,
			"byteLength":3024,
			"byteOffset":23448,
			"target":34962
		},
		{
			"buffer":0,
			"byteLength":2016,
			"byteOffset":26472,
			"target":34962
		},
		{
			"buffer":0,
			"byteLength":1416,
			"byteOffset":28488,
			"target":34963
		}
	],
	"samplers":[
		{
			"magFilter":9729,
			"minFilter":9987
		}
	],
	"buffers":[
		{
			"byteLength":29904,
			"uri":"mdl_Krank_book2.bin"
		}
	]
}
