{
	"asset":{
		"generator":"Khronos glTF Blender I/O v4.1.63",
		"version":"2.0"
	},
	"extensionsUsed":[
		"KHR_materials_specular"
	],
	"scene":0,
	"scenes":[
		{
			"name":"Scene",
			"nodes":[
				0
			]
		}
	],
	"nodes":[
		{
			"mesh":0,
			"name":"condor001_Material #95_0.001",
			"rotation":[
				0.7071066498756409,
				0,
				0,
				0.70710688829422
			],
			"scale":[
				-0.10289421677589417,
				-0.10289427638053894,
				-0.10289427638053894
			]
		}
	],
	"materials":[
		{
			"doubleSided":true,
			"extensions":{
				"KHR_materials_specular":{
					"specularFactor":0
				}
			},
			"name":"Material_95",
			"pbrMetallicRoughness":{
				"baseColorTexture":{
					"index":0
				},
				"metallicFactor":0,
				"roughnessFactor":0.6000000238418579
			}
		}
	],
	"meshes":[
		{
			"name":"condor001_Material #95_0.001",
			"primitives":[
				{
					"attributes":{
						"POSITION":0,
						"NORMAL":1,
						"TEXCOORD_0":2
					},
					"indices":3,
					"material":0
				}
			]
		}
	],
	"textures":[
		{
			"sampler":0,
			"source":0
		}
	],
	"images":[
		{
			"mimeType":"image/jpeg",
			"name":"txt_franch_condorflying",
			"uri":"textures/txt_franch_condorflying.jpg"
		}
	],
	"accessors":[
		{
			"bufferView":0,
			"componentType":5126,
			"count":430,
			"max":[
				4.006877899169922,
				350.0010681152344,
				26.840118408203125
			],
			"min":[
				-703.834716796875,
				64.9728012084961,
				-388.2026672363281
			],
			"type":"VEC3"
		},
		{
			"bufferView":1,
			"componentType":5126,
			"count":430,
			"type":"VEC3"
		},
		{
			"bufferView":2,
			"componentType":5126,
			"count":430,
			"type":"VEC2"
		},
		{
			"bufferView":3,
			"componentType":5123,
			"count":969,
			"type":"SCALAR"
		}
	],
	"bufferViews":[
		{
			"buffer":0,
			"byteLength":5160,
			"byteOffset":0,
			"target":34962
		},
		{
			"buffer":0,
			"byteLength":5160,
			"byteOffset":5160,
			"target":34962
		},
		{
			"buffer":0,
			"byteLength":3440,
			"byteOffset":10320,
			"target":34962
		},
		{
			"buffer":0,
			"byteLength":1938,
			"byteOffset":13760,
			"target":34963
		}
	],
	"samplers":[
		{
			"magFilter":9729,
			"minFilter":9987
		}
	],
	"buffers":[
		{
			"byteLength":15700,
			"uri":"mdl_franch_flyingcondor_wing.bin"
		}
	]
}
