{
	"asset":{
		"generator":"Khronos glTF Blender I/O v4.0.44",
		"version":"2.0"
	},
	"extensionsUsed":[
		"KHR_materials_specular",
		"KHR_materials_ior"
	],
	"scene":0,
	"scenes":[
		{
			"name":"Scene",
			"nodes":[
				0
			]
		}
	],
	"nodes":[
		{
			"mesh":0,
			"name":"Harp_low",
			"rotation":[
				0.7071068286895752,
				0,
				0,
				0.7071068286895752
			]
		}
	],
	"materials":[
		{
			"doubleSided":true,
			"extensions":{
				"KHR_materials_specular":{
					"specularFactor":0
				},
				"KHR_materials_ior":{
					"ior":1.4500000476837158
				}
			},
			"name":"/obj/Harp/quickmaterial2/matnet/Material_1",
			"normalTexture":{
				"index":0
			},
			"pbrMetallicRoughness":{
				"baseColorTexture":{
					"index":1
				},
				"metallicRoughnessTexture":{
					"index":2
				}
			}
		},
		{
			"doubleSided":true,
			"extensions":{
				"KHR_materials_specular":{
					"specularFactor":0
				},
				"KHR_materials_ior":{
					"ior":1.4500000476837158
				}
			},
			"name":"/obj/Harp/quickmaterial2/matnet/Material_2",
			"normalTexture":{
				"index":3
			},
			"pbrMetallicRoughness":{
				"baseColorTexture":{
					"index":4
				},
				"metallicFactor":0
			}
		}
	],
	"meshes":[
		{
			"name":"Harp_LP(after HP).003",
			"primitives":[
				{
					"attributes":{
						"POSITION":0,
						"NORMAL":1,
						"TEXCOORD_0":2
					},
					"indices":3,
					"material":0
				},
				{
					"attributes":{
						"POSITION":4,
						"NORMAL":5,
						"TEXCOORD_0":6
					},
					"indices":7,
					"material":1
				}
			]
		}
	],
	"textures":[
		{
			"sampler":0,
			"source":0
		},
		{
			"sampler":0,
			"source":1
		},
		{
			"sampler":0,
			"source":2
		},
		{
			"sampler":0,
			"source":3
		},
		{
			"sampler":0,
			"source":4
		}
	],
	"images":[
		{
			"mimeType":"image/jpeg",
			"name":"Normal_export_Main_geo",
			"uri":"Normal_export_Main_geo.jpg"
		},
		{
			"mimeType":"image/png",
			"name":"Main_geo_Color_NEW",
			"uri":"Main_geo_Color_NEW.png"
		},
		{
			"mimeType":"image/png",
			"name":"Main_Metallic",
			"uri":"Main_Metallic.png"
		},
		{
			"mimeType":"image/jpeg",
			"name":"Normal_export_Ornament",
			"uri":"Normal_export_Ornament.jpg"
		},
		{
			"mimeType":"image/jpeg",
			"name":"Ornament_Color",
			"uri":"Ornament_Color.jpg"
		}
	],
	"accessors":[
		{
			"bufferView":0,
			"componentType":5126,
			"count":15196,
			"max":[
				0.24662388861179352,
				0.7110192775726318,
				0.09860613197088242
			],
			"min":[
				-0.2467643767595291,
				-0.710993766784668,
				-2.272465229034424
			],
			"type":"VEC3"
		},
		{
			"bufferView":1,
			"componentType":5126,
			"count":15196,
			"type":"VEC3"
		},
		{
			"bufferView":2,
			"componentType":5126,
			"count":15196,
			"type":"VEC2"
		},
		{
			"bufferView":3,
			"componentType":5123,
			"count":47553,
			"type":"SCALAR"
		},
		{
			"bufferView":4,
			"componentType":5126,
			"count":1257,
			"max":[
				0.13100215792655945,
				0.6523600816726685,
				-0.43266868591308594
			],
			"min":[
				0.08033400774002075,
				-0.6508006453514099,
				-1.8863674402236938
			],
			"type":"VEC3"
		},
		{
			"bufferView":5,
			"componentType":5126,
			"count":1257,
			"type":"VEC3"
		},
		{
			"bufferView":6,
			"componentType":5126,
			"count":1257,
			"type":"VEC2"
		},
		{
			"bufferView":7,
			"componentType":5123,
			"count":2652,
			"type":"SCALAR"
		}
	],
	"bufferViews":[
		{
			"buffer":0,
			"byteLength":182352,
			"byteOffset":0,
			"target":34962
		},
		{
			"buffer":0,
			"byteLength":182352,
			"byteOffset":182352,
			"target":34962
		},
		{
			"buffer":0,
			"byteLength":121568,
			"byteOffset":364704,
			"target":34962
		},
		{
			"buffer":0,
			"byteLength":95106,
			"byteOffset":486272,
			"target":34963
		},
		{
			"buffer":0,
			"byteLength":15084,
			"byteOffset":581380,
			"target":34962
		},
		{
			"buffer":0,
			"byteLength":15084,
			"byteOffset":596464,
			"target":34962
		},
		{
			"buffer":0,
			"byteLength":10056,
			"byteOffset":611548,
			"target":34962
		},
		{
			"buffer":0,
			"byteLength":5304,
			"byteOffset":621604,
			"target":34963
		}
	],
	"samplers":[
		{
			"magFilter":9729,
			"minFilter":9987
		}
	],
	"buffers":[
		{
			"byteLength":626908,
			"uri":"mdl_drkrank_lyre.bin"
		}
	]
}
