{
	"asset":{
		"generator":"Khronos glTF Blender I/O v4.2.57",
		"version":"2.0"
	},
	"extensionsUsed":[
		"KHR_materials_specular"
	],
	"scene":0,
	"scenes":[
		{
			"name":"Scene",
			"nodes":[
				0,
				1
			]
		}
	],
	"nodes":[
		{
			"name":"GOOGLE_SAT_WM",
			"scale":[
				8560.947265625,
				1,
				8560.947265625
			],
			"translation":[
				448.7054138183594,
				0,
				0.3137063682079315
			]
		},
		{
			"mesh":0,
			"name":"EXPORT_GOOGLE_SAT_WM"
		}
	],
	"materials":[
		{
			"doubleSided":true,
			"extensions":{
				"KHR_materials_specular":{
					"specularFactor":0
				}
			},
			"name":"rastMat.003",
			"pbrMetallicRoughness":{
				"baseColorTexture":{
					"index":0
				},
				"metallicFactor":0
			}
		}
	],
	"meshes":[
		{
			"name":"EXPORT_GOOGLE_SAT_WM",
			"primitives":[
				{
					"attributes":{
						"POSITION":0,
						"NORMAL":1,
						"TEXCOORD_0":2,
						"TEXCOORD_1":3
					},
					"indices":4,
					"material":0
				}
			]
		}
	],
	"textures":[
		{
			"sampler":0,
			"source":0
		}
	],
	"images":[
		{
			"mimeType":"image/png",
			"name":"tx_brush_googlemapsSierraLionMtn",
			"uri":"tx_brush_googlemapsSierraLionMtn.png"
		}
	],
	"accessors":[
		{
			"bufferView":0,
			"componentType":5126,
			"count":838,
			"max":[
				3783.182861328125,
				1676.0521240234375,
				2448.302734375
			],
			"min":[
				-3045.978515625,
				680.0660400390625,
				-2446.061767578125
			],
			"type":"VEC3"
		},
		{
			"bufferView":1,
			"componentType":5126,
			"count":838,
			"type":"VEC3"
		},
		{
			"bufferView":2,
			"componentType":5126,
			"count":838,
			"type":"VEC2"
		},
		{
			"bufferView":3,
			"componentType":5126,
			"count":838,
			"type":"VEC2"
		},
		{
			"bufferView":4,
			"componentType":5123,
			"count":3522,
			"type":"SCALAR"
		}
	],
	"bufferViews":[
		{
			"buffer":0,
			"byteLength":10056,
			"byteOffset":0,
			"target":34962
		},
		{
			"buffer":0,
			"byteLength":10056,
			"byteOffset":10056,
			"target":34962
		},
		{
			"buffer":0,
			"byteLength":6704,
			"byteOffset":20112,
			"target":34962
		},
		{
			"buffer":0,
			"byteLength":6704,
			"byteOffset":26816,
			"target":34962
		},
		{
			"buffer":0,
			"byteLength":7044,
			"byteOffset":33520,
			"target":34963
		}
	],
	"samplers":[
		{
			"magFilter":9729,
			"minFilter":9987,
			"wrapS":33071,
			"wrapT":33071
		}
	],
	"buffers":[
		{
			"byteLength":40564,
			"uri":"mdl_brush_mountains.bin"
		}
	]
}
