{
	"asset":{
		"generator":"Khronos glTF Blender I/O v4.3.47",
		"version":"2.0"
	},
	"extensionsUsed":[
		"KHR_materials_specular"
	],
	"scene":0,
	"scenes":[
		{
			"name":"Scene",
			"nodes":[
				1
			]
		}
	],
	"nodes":[
		{
			"mesh":0,
			"name":"LionMountain#boxcollider"
		},
		{
			"children":[
				0
			],
			"mesh":1,
			"name":"LionMountain"
		}
	],
	"materials":[
		{
			"doubleSided":true,
			"extensions":{
				"KHR_materials_specular":{
					"specularFactor":0
				}
			},
			"name":"rastMat.003",
			"pbrMetallicRoughness":{
				"baseColorTexture":{
					"index":0
				},
				"metallicFactor":0
			}
		}
	],
	"meshes":[
		{
			"name":"LionMountain#boxcollider",
			"primitives":[
				{
					"attributes":{
						"POSITION":0,
						"NORMAL":1,
						"TEXCOORD_0":2
					},
					"indices":3
				}
			]
		},
		{
			"name":"EXPORT_GOOGLE_SAT_WM",
			"primitives":[
				{
					"attributes":{
						"POSITION":4,
						"NORMAL":5,
						"TEXCOORD_0":6,
						"TEXCOORD_1":7
					},
					"indices":8,
					"material":0
				}
			]
		}
	],
	"textures":[
		{
			"sampler":0,
			"source":0
		}
	],
	"images":[
		{
			"mimeType":"image/png",
			"name":"tx_brush_googlemapsSierraLionMtn",
			"uri":"tx_brush_googlemapsSierraLionMtn.png"
		}
	],
	"accessors":[
		{
			"bufferView":0,
			"componentType":5126,
			"count":24,
			"max":[
				-1149.7691650390625,
				1905.6767578125,
				891.656005859375
			],
			"min":[
				-1349.769287109375,
				1705.6767578125,
				691.656005859375
			],
			"type":"VEC3"
		},
		{
			"bufferView":1,
			"componentType":5126,
			"count":24,
			"type":"VEC3"
		},
		{
			"bufferView":2,
			"componentType":5126,
			"count":24,
			"type":"VEC2"
		},
		{
			"bufferView":3,
			"componentType":5123,
			"count":36,
			"type":"SCALAR"
		},
		{
			"bufferView":4,
			"componentType":5126,
			"count":838,
			"max":[
				3783.182861328125,
				1676.0521240234375,
				2448.302734375
			],
			"min":[
				-3045.978515625,
				680.0660400390625,
				-2446.061767578125
			],
			"type":"VEC3"
		},
		{
			"bufferView":5,
			"componentType":5126,
			"count":838,
			"type":"VEC3"
		},
		{
			"bufferView":6,
			"componentType":5126,
			"count":838,
			"type":"VEC2"
		},
		{
			"bufferView":7,
			"componentType":5126,
			"count":838,
			"type":"VEC2"
		},
		{
			"bufferView":8,
			"componentType":5123,
			"count":3522,
			"type":"SCALAR"
		}
	],
	"bufferViews":[
		{
			"buffer":0,
			"byteLength":288,
			"byteOffset":0,
			"target":34962
		},
		{
			"buffer":0,
			"byteLength":288,
			"byteOffset":288,
			"target":34962
		},
		{
			"buffer":0,
			"byteLength":192,
			"byteOffset":576,
			"target":34962
		},
		{
			"buffer":0,
			"byteLength":72,
			"byteOffset":768,
			"target":34963
		},
		{
			"buffer":0,
			"byteLength":10056,
			"byteOffset":840,
			"target":34962
		},
		{
			"buffer":0,
			"byteLength":10056,
			"byteOffset":10896,
			"target":34962
		},
		{
			"buffer":0,
			"byteLength":6704,
			"byteOffset":20952,
			"target":34962
		},
		{
			"buffer":0,
			"byteLength":6704,
			"byteOffset":27656,
			"target":34962
		},
		{
			"buffer":0,
			"byteLength":7044,
			"byteOffset":34360,
			"target":34963
		}
	],
	"samplers":[
		{
			"magFilter":9729,
			"minFilter":9987,
			"wrapS":33071,
			"wrapT":33071
		}
	],
	"buffers":[
		{
			"byteLength":41404,
			"uri":"mdl_brush_mountains.bin"
		}
	]
}
