{
	"asset":{
		"generator":"Khronos glTF Blender I/O v4.3.47",
		"version":"2.0"
	},
	"extensionsUsed":[
		"KHR_materials_clearcoat"
	],
	"scene":0,
	"scenes":[
		{
			"name":"Scene",
			"nodes":[
				0
			]
		}
	],
	"nodes":[
		{
			"mesh":0,
			"name":"Lower Gear",
			"scale":[
				0.005414172075688839,
				0.005414172075688839,
				0.023493925109505653
			]
		}
	],
	"materials":[
		{
			"doubleSided":true,
			"name":"Material.002",
			"pbrMetallicRoughness":{
				"baseColorFactor":[
					0.2864880859851837,
					0.27823251485824585,
					0.27823251485824585,
					1
				],
				"roughnessFactor":0.20000000298023224
			}
		},
		{
			"doubleSided":true,
			"extensions":{
				"KHR_materials_clearcoat":{
					"clearcoatFactor":1
				}
			},
			"name":"Spur Gear",
			"pbrMetallicRoughness":{
				"baseColorFactor":[
					0.800000011920929,
					0.800000011920929,
					0.800000011920929,
					1
				],
				"roughnessFactor":0.10000000149011612
			}
		},
		{
			"doubleSided":true,
			"name":"Material.003",
			"pbrMetallicRoughness":{
				"baseColorFactor":[
					0.2864880859851837,
					0.27823251485824585,
					0.27823251485824585,
					1
				],
				"roughnessFactor":0.20000000298023224
			}
		}
	],
	"meshes":[
		{
			"name":"Gear.036_Material_0.001",
			"primitives":[
				{
					"attributes":{
						"POSITION":0,
						"NORMAL":1,
						"TEXCOORD_0":2,
						"TEXCOORD_1":3
					},
					"indices":4,
					"material":0
				},
				{
					"attributes":{
						"POSITION":5,
						"NORMAL":6,
						"TEXCOORD_0":7,
						"TEXCOORD_1":8
					},
					"indices":9,
					"material":1
				},
				{
					"attributes":{
						"POSITION":10,
						"NORMAL":11,
						"TEXCOORD_0":12,
						"TEXCOORD_1":13
					},
					"indices":14,
					"material":2
				}
			]
		}
	],
	"accessors":[
		{
			"bufferView":0,
			"componentType":5126,
			"count":2218,
			"max":[
				16.044410705566406,
				16.028709411621094,
				0.3074074983596802
			],
			"min":[
				-16.02926254272461,
				-16.044963836669922,
				-0.37469613552093506
			],
			"type":"VEC3"
		},
		{
			"bufferView":1,
			"componentType":5126,
			"count":2218,
			"type":"VEC3"
		},
		{
			"bufferView":2,
			"componentType":5126,
			"count":2218,
			"type":"VEC2"
		},
		{
			"bufferView":3,
			"componentType":5126,
			"count":2218,
			"type":"VEC2"
		},
		{
			"bufferView":4,
			"componentType":5123,
			"count":5742,
			"type":"SCALAR"
		},
		{
			"bufferView":5,
			"componentType":5126,
			"count":314,
			"max":[
				3.5245723724365234,
				3.4810736179351807,
				0.7981873750686646
			],
			"min":[
				-3.4826064109802246,
				-3.5261051654815674,
				0.33445441722869873
			],
			"type":"VEC3"
		},
		{
			"bufferView":6,
			"componentType":5126,
			"count":314,
			"type":"VEC3"
		},
		{
			"bufferView":7,
			"componentType":5126,
			"count":314,
			"type":"VEC2"
		},
		{
			"bufferView":8,
			"componentType":5126,
			"count":314,
			"type":"VEC2"
		},
		{
			"bufferView":9,
			"componentType":5123,
			"count":822,
			"type":"SCALAR"
		},
		{
			"bufferView":10,
			"componentType":5126,
			"count":648,
			"max":[
				3.9076263904571533,
				3.8918843269348145,
				-0.37469589710235596
			],
			"min":[
				-3.892479181289673,
				-3.908221483230591,
				-2.4897546768188477
			],
			"type":"VEC3"
		},
		{
			"bufferView":11,
			"componentType":5126,
			"count":648,
			"type":"VEC3"
		},
		{
			"bufferView":12,
			"componentType":5126,
			"count":648,
			"type":"VEC2"
		},
		{
			"bufferView":13,
			"componentType":5126,
			"count":648,
			"type":"VEC2"
		},
		{
			"bufferView":14,
			"componentType":5123,
			"count":1428,
			"type":"SCALAR"
		}
	],
	"bufferViews":[
		{
			"buffer":0,
			"byteLength":26616,
			"byteOffset":0,
			"target":34962
		},
		{
			"buffer":0,
			"byteLength":26616,
			"byteOffset":26616,
			"target":34962
		},
		{
			"buffer":0,
			"byteLength":17744,
			"byteOffset":53232,
			"target":34962
		},
		{
			"buffer":0,
			"byteLength":17744,
			"byteOffset":70976,
			"target":34962
		},
		{
			"buffer":0,
			"byteLength":11484,
			"byteOffset":88720,
			"target":34963
		},
		{
			"buffer":0,
			"byteLength":3768,
			"byteOffset":100204,
			"target":34962
		},
		{
			"buffer":0,
			"byteLength":3768,
			"byteOffset":103972,
			"target":34962
		},
		{
			"buffer":0,
			"byteLength":2512,
			"byteOffset":107740,
			"target":34962
		},
		{
			"buffer":0,
			"byteLength":2512,
			"byteOffset":110252,
			"target":34962
		},
		{
			"buffer":0,
			"byteLength":1644,
			"byteOffset":112764,
			"target":34963
		},
		{
			"buffer":0,
			"byteLength":7776,
			"byteOffset":114408,
			"target":34962
		},
		{
			"buffer":0,
			"byteLength":7776,
			"byteOffset":122184,
			"target":34962
		},
		{
			"buffer":0,
			"byteLength":5184,
			"byteOffset":129960,
			"target":34962
		},
		{
			"buffer":0,
			"byteLength":5184,
			"byteOffset":135144,
			"target":34962
		},
		{
			"buffer":0,
			"byteLength":2856,
			"byteOffset":140328,
			"target":34963
		}
	],
	"buffers":[
		{
			"byteLength":143184,
			"uri":"mdl_penny_press_gear_lower.bin"
		}
	]
}
