{
	"asset":{
		"generator":"Khronos glTF Blender I/O v4.3.47",
		"version":"2.0"
	},
	"extensionsUsed":[
		"KHR_texture_transform"
	],
	"extensionsRequired":[
		"KHR_texture_transform"
	],
	"scene":0,
	"scenes":[
		{
			"name":"Scene",
			"nodes":[
				0,
				1
			]
		}
	],
	"nodes":[
		{
			"mesh":0,
			"name":"Coin_Slot_Box.New"
		},
		{
			"mesh":1,
			"name":"Coin_Slot.New",
			"rotation":[
				0.7071068286895752,
				0,
				0,
				0.7071067690849304
			],
			"scale":[
				-0.04154939949512482,
				-0.04154939949512482,
				-0.04154939949512482
			],
			"translation":[
				-4.211122814012924e-06,
				0.07412732392549515,
				-0.017083169892430305
			]
		}
	],
	"materials":[
		{
			"doubleSided":true,
			"name":"Chrome",
			"pbrMetallicRoughness":{
				"baseColorFactor":[
					0.1280616968870163,
					0.1280624121427536,
					0.12806200981140137,
					1
				],
				"roughnessFactor":0.3499999940395355
			}
		},
		{
			"doubleSided":true,
			"name":"Steel",
			"normalTexture":{
				"extensions":{
					"KHR_texture_transform":{
						"offset":[
							0,
							-3
						],
						"scale":[
							4,
							4
						]
					}
				},
				"index":0,
				"scale":0.3499999940395355
			},
			"pbrMetallicRoughness":{
				"baseColorFactor":[
					0.5787541270256042,
					0.5787541270256042,
					0.5787541270256042,
					1
				],
				"roughnessFactor":0.4000000059604645
			}
		}
	],
	"meshes":[
		{
			"name":"Object_77.002",
			"primitives":[
				{
					"attributes":{
						"POSITION":0,
						"NORMAL":1,
						"TEXCOORD_0":2,
						"TEXCOORD_1":3,
						"TEXCOORD_2":4,
						"TEXCOORD_3":5
					},
					"indices":6,
					"material":0
				}
			]
		},
		{
			"name":"Circle.002",
			"primitives":[
				{
					"attributes":{
						"POSITION":7,
						"NORMAL":8,
						"TEXCOORD_0":9
					},
					"indices":10,
					"material":1
				}
			]
		}
	],
	"textures":[
		{
			"sampler":0,
			"source":0
		}
	],
	"images":[
		{
			"mimeType":"image/png",
			"name":"cwt_token_rim_Normal",
			"uri":"textures/cwt_token_rim_Normal.png"
		}
	],
	"accessors":[
		{
			"bufferView":0,
			"componentType":5126,
			"count":241,
			"max":[
				0.07329489290714264,
				0.1277209222316742,
				-0.03329651802778244
			],
			"min":[
				-0.07348715513944626,
				-0.06367900967597961,
				-0.0757938101887703
			],
			"type":"VEC3"
		},
		{
			"bufferView":1,
			"componentType":5126,
			"count":241,
			"type":"VEC3"
		},
		{
			"bufferView":2,
			"componentType":5126,
			"count":241,
			"type":"VEC2"
		},
		{
			"bufferView":3,
			"componentType":5126,
			"count":241,
			"type":"VEC2"
		},
		{
			"bufferView":4,
			"componentType":5126,
			"count":241,
			"type":"VEC2"
		},
		{
			"bufferView":5,
			"componentType":5126,
			"count":241,
			"type":"VEC2"
		},
		{
			"bufferView":6,
			"componentType":5123,
			"count":426,
			"type":"SCALAR"
		},
		{
			"bufferView":7,
			"componentType":5126,
			"count":632,
			"max":[
				1.2606770992279053,
				0.10671599954366684,
				1.0297729969024658
			],
			"min":[
				-1.2608797550201416,
				-0.07289841026067734,
				-3.010863780975342
			],
			"type":"VEC3"
		},
		{
			"bufferView":8,
			"componentType":5126,
			"count":632,
			"type":"VEC3"
		},
		{
			"bufferView":9,
			"componentType":5126,
			"count":632,
			"type":"VEC2"
		},
		{
			"bufferView":10,
			"componentType":5123,
			"count":1632,
			"type":"SCALAR"
		}
	],
	"bufferViews":[
		{
			"buffer":0,
			"byteLength":2892,
			"byteOffset":0,
			"target":34962
		},
		{
			"buffer":0,
			"byteLength":2892,
			"byteOffset":2892,
			"target":34962
		},
		{
			"buffer":0,
			"byteLength":1928,
			"byteOffset":5784,
			"target":34962
		},
		{
			"buffer":0,
			"byteLength":1928,
			"byteOffset":7712,
			"target":34962
		},
		{
			"buffer":0,
			"byteLength":1928,
			"byteOffset":9640,
			"target":34962
		},
		{
			"buffer":0,
			"byteLength":1928,
			"byteOffset":11568,
			"target":34962
		},
		{
			"buffer":0,
			"byteLength":852,
			"byteOffset":13496,
			"target":34963
		},
		{
			"buffer":0,
			"byteLength":7584,
			"byteOffset":14348,
			"target":34962
		},
		{
			"buffer":0,
			"byteLength":7584,
			"byteOffset":21932,
			"target":34962
		},
		{
			"buffer":0,
			"byteLength":5056,
			"byteOffset":29516,
			"target":34962
		},
		{
			"buffer":0,
			"byteLength":3264,
			"byteOffset":34572,
			"target":34963
		}
	],
	"samplers":[
		{
			"magFilter":9729,
			"minFilter":9987
		}
	],
	"buffers":[
		{
			"byteLength":37836,
			"uri":"mdl_pennypress_coinslot.bin"
		}
	]
}
