{
	"asset":{
		"generator":"Khronos glTF Blender I/O v4.3.47",
		"version":"2.0"
	},
	"extensionsUsed":[
		"KHR_materials_clearcoat"
	],
	"scene":0,
	"scenes":[
		{
			"name":"Scene",
			"nodes":[
				1
			]
		}
	],
	"nodes":[
		{
			"mesh":0,
			"name":"Crank Dowel",
			"rotation":[
				0.7070468664169312,
				0.009204634465277195,
				0.00920463539659977,
				0.7070469856262207
			],
			"scale":[
				0.2851298451423645,
				0.5832974910736084,
				0.2851298451423645
			],
			"translation":[
				-7.034488135104766e-06,
				-7.669360638828948e-05,
				2.482356309890747
			]
		},
		{
			"children":[
				0
			],
			"mesh":1,
			"name":"Crank Gear",
			"rotation":[
				0,
				0,
				-0.013017319142818451,
				0.9999153017997742
			],
			"scale":[
				0.0280574019998312,
				0.0280574019998312,
				0.013715134002268314
			]
		}
	],
	"materials":[
		{
			"doubleSided":true,
			"extensions":{
				"KHR_materials_clearcoat":{
					"clearcoatFactor":1
				}
			},
			"name":"Steering Cap Top",
			"pbrMetallicRoughness":{
				"baseColorFactor":[
					0,
					0,
					0,
					1
				],
				"metallicFactor":0.5,
				"roughnessFactor":0.10000000149011612
			}
		},
		{
			"doubleSided":true,
			"name":"Material.003",
			"pbrMetallicRoughness":{
				"baseColorFactor":[
					0.2864880859851837,
					0.27823251485824585,
					0.27823251485824585,
					1
				],
				"roughnessFactor":0.20000000298023224
			}
		}
	],
	"meshes":[
		{
			"name":"Mesh.025",
			"primitives":[
				{
					"attributes":{
						"POSITION":0,
						"NORMAL":1,
						"TEXCOORD_0":2
					},
					"indices":3,
					"material":0
				}
			]
		},
		{
			"name":"Gear.038_Material_0",
			"primitives":[
				{
					"attributes":{
						"POSITION":4,
						"NORMAL":5,
						"TEXCOORD_0":6
					},
					"indices":7,
					"material":1
				}
			]
		}
	],
	"accessors":[
		{
			"bufferView":0,
			"componentType":5126,
			"count":36,
			"max":[
				0.6765590310096741,
				1.0385355949401855,
				0.682749330997467
			],
			"min":[
				-0.6773620247840881,
				-11.964920043945312,
				-0.665260374546051
			],
			"type":"VEC3"
		},
		{
			"bufferView":1,
			"componentType":5126,
			"count":36,
			"type":"VEC3"
		},
		{
			"bufferView":2,
			"componentType":5126,
			"count":36,
			"type":"VEC2"
		},
		{
			"bufferView":3,
			"componentType":5123,
			"count":84,
			"type":"SCALAR"
		},
		{
			"bufferView":4,
			"componentType":5126,
			"count":648,
			"max":[
				1.0852446556091309,
				1.0852446556091309,
				1
			],
			"min":[
				-1.0852446556091309,
				-1.0852446556091309,
				-1
			],
			"type":"VEC3"
		},
		{
			"bufferView":5,
			"componentType":5126,
			"count":648,
			"type":"VEC3"
		},
		{
			"bufferView":6,
			"componentType":5126,
			"count":648,
			"type":"VEC2"
		},
		{
			"bufferView":7,
			"componentType":5123,
			"count":1428,
			"type":"SCALAR"
		}
	],
	"bufferViews":[
		{
			"buffer":0,
			"byteLength":432,
			"byteOffset":0,
			"target":34962
		},
		{
			"buffer":0,
			"byteLength":432,
			"byteOffset":432,
			"target":34962
		},
		{
			"buffer":0,
			"byteLength":288,
			"byteOffset":864,
			"target":34962
		},
		{
			"buffer":0,
			"byteLength":168,
			"byteOffset":1152,
			"target":34963
		},
		{
			"buffer":0,
			"byteLength":7776,
			"byteOffset":1320,
			"target":34962
		},
		{
			"buffer":0,
			"byteLength":7776,
			"byteOffset":9096,
			"target":34962
		},
		{
			"buffer":0,
			"byteLength":5184,
			"byteOffset":16872,
			"target":34962
		},
		{
			"buffer":0,
			"byteLength":2856,
			"byteOffset":22056,
			"target":34963
		}
	],
	"buffers":[
		{
			"byteLength":24912,
			"uri":"mdl_penny_press_crank_gear.bin"
		}
	]
}
