{
	"asset":{
		"generator":"Khronos glTF Blender I/O v4.3.47",
		"version":"2.0"
	},
	"scene":0,
	"scenes":[
		{
			"name":"Scene",
			"nodes":[
				0
			]
		}
	],
	"nodes":[
		{
			"mesh":0,
			"name":"Crank Handle",
			"scale":[
				1.324694037437439,
				1.324694037437439,
				1.324694037437439
			]
		}
	],
	"materials":[
		{
			"name":"gatling_gun.001",
			"normalTexture":{
				"index":0
			},
			"occlusionTexture":{
				"index":1
			},
			"pbrMetallicRoughness":{
				"baseColorTexture":{
					"index":2
				},
				"metallicRoughnessTexture":{
					"index":1
				}
			}
		}
	],
	"meshes":[
		{
			"name":"Object_3.001",
			"primitives":[
				{
					"attributes":{
						"POSITION":0,
						"NORMAL":1,
						"TEXCOORD_0":2,
						"TEXCOORD_1":3,
						"TEXCOORD_2":4,
						"TEXCOORD_3":5
					},
					"indices":6,
					"material":0
				}
			]
		}
	],
	"textures":[
		{
			"sampler":0,
			"source":0
		},
		{
			"sampler":0,
			"source":1
		},
		{
			"sampler":0,
			"source":2
		}
	],
	"images":[
		{
			"mimeType":"image/png",
			"name":"gatling_gun_normal",
			"uri":"textures/gatling_gun_normal.png"
		},
		{
			"mimeType":"image/png",
			"name":"gatling_gun_metallicRoughness",
			"uri":"textures/gatling_gun_metallicRoughness.png"
		},
		{
			"mimeType":"image/png",
			"name":"gatling_gun_baseColor",
			"uri":"textures/gatling_gun_baseColor.png"
		}
	],
	"accessors":[
		{
			"bufferView":0,
			"componentType":5126,
			"count":384,
			"max":[
				0.012468226253986359,
				0.013073262758553028,
				0.0774393081665039
			],
			"min":[
				-0.14332526922225952,
				-0.020750349387526512,
				-0.044817179441452026
			],
			"type":"VEC3"
		},
		{
			"bufferView":1,
			"componentType":5126,
			"count":384,
			"type":"VEC3"
		},
		{
			"bufferView":2,
			"componentType":5126,
			"count":384,
			"type":"VEC2"
		},
		{
			"bufferView":3,
			"componentType":5126,
			"count":384,
			"type":"VEC2"
		},
		{
			"bufferView":4,
			"componentType":5126,
			"count":384,
			"type":"VEC2"
		},
		{
			"bufferView":5,
			"componentType":5126,
			"count":384,
			"type":"VEC2"
		},
		{
			"bufferView":6,
			"componentType":5123,
			"count":1428,
			"type":"SCALAR"
		}
	],
	"bufferViews":[
		{
			"buffer":0,
			"byteLength":4608,
			"byteOffset":0,
			"target":34962
		},
		{
			"buffer":0,
			"byteLength":4608,
			"byteOffset":4608,
			"target":34962
		},
		{
			"buffer":0,
			"byteLength":3072,
			"byteOffset":9216,
			"target":34962
		},
		{
			"buffer":0,
			"byteLength":3072,
			"byteOffset":12288,
			"target":34962
		},
		{
			"buffer":0,
			"byteLength":3072,
			"byteOffset":15360,
			"target":34962
		},
		{
			"buffer":0,
			"byteLength":3072,
			"byteOffset":18432,
			"target":34962
		},
		{
			"buffer":0,
			"byteLength":2856,
			"byteOffset":21504,
			"target":34963
		}
	],
	"samplers":[
		{
			"magFilter":9729,
			"minFilter":9987
		}
	],
	"buffers":[
		{
			"byteLength":24360,
			"uri":"mdl_penny_press_crank.bin"
		}
	]
}
