{
	"asset":{
		"generator":"Khronos glTF Blender I/O v4.3.47",
		"version":"2.0"
	},
	"extensionsUsed":[
		"KHR_materials_clearcoat",
		"KHR_materials_specular"
	],
	"scene":0,
	"scenes":[
		{
			"name":"Scene",
			"nodes":[
				0
			]
		}
	],
	"nodes":[
		{
			"mesh":0,
			"name":"LeverBase"
		}
	],
	"materials":[
		{
			"doubleSided":true,
			"extensions":{
				"KHR_materials_clearcoat":{
					"clearcoatFactor":1
				},
				"KHR_materials_specular":{
					"specularColorFactor":[
						2.0,
						2.0,
						2.0
					]
				}
			},
			"name":"versusGreen1",
			"pbrMetallicRoughness":{
				"baseColorFactor":[
					0.5457219481468201,
					0.015208456665277481,
					0.029556863009929657,
					1
				],
				"metallicFactor":0,
				"roughnessFactor":0.10000000149011612
			}
		},
		{
			"doubleSided":true,
			"name":"Material.001",
			"pbrMetallicRoughness":{
				"baseColorFactor":[
					0.800000011920929,
					0.800000011920929,
					0.800000011920929,
					1
				],
				"roughnessFactor":0.10000000149011612
			}
		},
		{
			"doubleSided":true,
			"extensions":{
				"KHR_materials_specular":{
					"specularFactor":0
				}
			},
			"name":"Black",
			"pbrMetallicRoughness":{
				"baseColorFactor":[
					0,
					0,
					0,
					1
				],
				"metallicFactor":0
			}
		}
	],
	"meshes":[
		{
			"name":"LeverBase",
			"primitives":[
				{
					"attributes":{
						"POSITION":0,
						"NORMAL":1,
						"TEXCOORD_0":2
					},
					"indices":3,
					"material":0
				},
				{
					"attributes":{
						"POSITION":4,
						"NORMAL":5,
						"TEXCOORD_0":6
					},
					"indices":7,
					"material":1
				},
				{
					"attributes":{
						"POSITION":8,
						"NORMAL":9,
						"TEXCOORD_0":10
					},
					"indices":11,
					"material":2
				}
			]
		}
	],
	"accessors":[
		{
			"bufferView":0,
			"componentType":5126,
			"count":547,
			"max":[
				0.04220539331436157,
				0.06784892827272415,
				0.08895105868577957
			],
			"min":[
				-0.04220539331436157,
				0.0017355092568323016,
				-0.08895103633403778
			],
			"type":"VEC3"
		},
		{
			"bufferView":1,
			"componentType":5126,
			"count":547,
			"type":"VEC3"
		},
		{
			"bufferView":2,
			"componentType":5126,
			"count":547,
			"type":"VEC2"
		},
		{
			"bufferView":3,
			"componentType":5123,
			"count":1668,
			"type":"SCALAR"
		},
		{
			"bufferView":4,
			"componentType":5126,
			"count":100,
			"max":[
				0.03352159261703491,
				0.02747565507888794,
				0.08026701211929321
			],
			"min":[
				-0.03352159261703491,
				0.024556903168559074,
				-0.0802670270204544
			],
			"type":"VEC3"
		},
		{
			"bufferView":5,
			"componentType":5126,
			"count":100,
			"type":"VEC3"
		},
		{
			"bufferView":6,
			"componentType":5126,
			"count":100,
			"type":"VEC2"
		},
		{
			"bufferView":7,
			"componentType":5123,
			"count":432,
			"type":"SCALAR"
		},
		{
			"bufferView":8,
			"componentType":5126,
			"count":18,
			"max":[
				0.005735963117331266,
				0.04242810234427452,
				0.034064941108226776
			],
			"min":[
				-0.005736355669796467,
				0.028653044253587723,
				-0.034064970910549164
			],
			"type":"VEC3"
		},
		{
			"bufferView":9,
			"componentType":5126,
			"count":18,
			"type":"VEC3"
		},
		{
			"bufferView":10,
			"componentType":5126,
			"count":18,
			"type":"VEC2"
		},
		{
			"bufferView":11,
			"componentType":5123,
			"count":48,
			"type":"SCALAR"
		}
	],
	"bufferViews":[
		{
			"buffer":0,
			"byteLength":6564,
			"byteOffset":0,
			"target":34962
		},
		{
			"buffer":0,
			"byteLength":6564,
			"byteOffset":6564,
			"target":34962
		},
		{
			"buffer":0,
			"byteLength":4376,
			"byteOffset":13128,
			"target":34962
		},
		{
			"buffer":0,
			"byteLength":3336,
			"byteOffset":17504,
			"target":34963
		},
		{
			"buffer":0,
			"byteLength":1200,
			"byteOffset":20840,
			"target":34962
		},
		{
			"buffer":0,
			"byteLength":1200,
			"byteOffset":22040,
			"target":34962
		},
		{
			"buffer":0,
			"byteLength":800,
			"byteOffset":23240,
			"target":34962
		},
		{
			"buffer":0,
			"byteLength":864,
			"byteOffset":24040,
			"target":34963
		},
		{
			"buffer":0,
			"byteLength":216,
			"byteOffset":24904,
			"target":34962
		},
		{
			"buffer":0,
			"byteLength":216,
			"byteOffset":25120,
			"target":34962
		},
		{
			"buffer":0,
			"byteLength":144,
			"byteOffset":25336,
			"target":34962
		},
		{
			"buffer":0,
			"byteLength":96,
			"byteOffset":25480,
			"target":34963
		}
	],
	"buffers":[
		{
			"byteLength":25576,
			"uri":"mdl_penny_press_leverBase.bin"
		}
	]
}
