{
	"asset":{
		"generator":"Khronos glTF Blender I/O v4.3.47",
		"version":"2.0"
	},
	"scene":0,
	"scenes":[
		{
			"name":"Scene",
			"nodes":[
				2
			]
		}
	],
	"nodes":[
		{
			"mesh":0,
			"name":"SwitchBox"
		},
		{
			"mesh":1,
			"name":"SwitchHousing"
		},
		{
			"children":[
				0,
				1
			],
			"name":"Sketchfab Model",
			"rotation":[
				-0.3450816571712494,
				0,
				0,
				0.9385726451873779
			],
			"scale":[
				0.0008658818551339209,
				0.0008658820297569036,
				0.0008658820297569036
			],
			"translation":[
				0,
				0.024774497374892235,
				0.009367471560835838
			]
		}
	],
	"materials":[
		{
			"doubleSided":true,
			"name":"Material.004",
			"pbrMetallicRoughness":{
				"baseColorTexture":{
					"index":0
				},
				"metallicFactor":0.5,
				"roughnessFactor":0.5
			}
		},
		{
			"doubleSided":true,
			"name":"Material.008",
			"pbrMetallicRoughness":{
				"baseColorFactor":[
					0.800000011920929,
					0.800000011920929,
					0.800000011920929,
					1
				],
				"metallicFactor":0.800000011920929,
				"roughnessFactor":0.20000000298023224
			}
		},
		{
			"doubleSided":true,
			"name":"Material.001",
			"pbrMetallicRoughness":{
				"baseColorFactor":[
					0,
					0,
					0,
					1
				],
				"metallicFactor":0
			}
		}
	],
	"meshes":[
		{
			"name":"Cube.009_Material.004_0",
			"primitives":[
				{
					"attributes":{
						"POSITION":0,
						"NORMAL":1,
						"TEXCOORD_0":2
					},
					"indices":3,
					"material":0
				}
			]
		},
		{
			"name":"Cube.009_Material.008_0",
			"primitives":[
				{
					"attributes":{
						"POSITION":4,
						"NORMAL":5,
						"TEXCOORD_0":6
					},
					"indices":7,
					"material":1
				},
				{
					"attributes":{
						"POSITION":8,
						"NORMAL":9,
						"TEXCOORD_0":10
					},
					"indices":11,
					"material":2
				}
			]
		}
	],
	"textures":[
		{
			"sampler":0,
			"source":0
		}
	],
	"images":[
		{
			"mimeType":"image/png",
			"name":"toggle_baseColor",
			"uri":"textures/toggle_baseColor.png"
		}
	],
	"accessors":[
		{
			"bufferView":0,
			"componentType":5126,
			"count":82,
			"max":[
				40.98344039916992,
				55.649471282958984,
				58.47938919067383
			],
			"min":[
				-40.98343276977539,
				-99.0281753540039,
				-122.28262329101562
			],
			"type":"VEC3"
		},
		{
			"bufferView":1,
			"componentType":5126,
			"count":82,
			"type":"VEC3"
		},
		{
			"bufferView":2,
			"componentType":5126,
			"count":82,
			"type":"VEC2"
		},
		{
			"bufferView":3,
			"componentType":5123,
			"count":204,
			"type":"SCALAR"
		},
		{
			"bufferView":4,
			"componentType":5126,
			"count":775,
			"max":[
				32.06135940551758,
				1.7319698333740234,
				-7.156593322753906
			],
			"min":[
				-32.0578498840332,
				-42.03485870361328,
				-56.143157958984375
			],
			"type":"VEC3"
		},
		{
			"bufferView":5,
			"componentType":5126,
			"count":775,
			"type":"VEC3"
		},
		{
			"bufferView":6,
			"componentType":5126,
			"count":775,
			"type":"VEC2"
		},
		{
			"bufferView":7,
			"componentType":5123,
			"count":3030,
			"type":"SCALAR"
		},
		{
			"bufferView":8,
			"componentType":5126,
			"count":32,
			"max":[
				10.687946319580078,
				-3.886593818664551,
				-15.252446174621582
			],
			"min":[
				-10.698854446411133,
				-17.533462524414062,
				-31.719331741333008
			],
			"type":"VEC3"
		},
		{
			"bufferView":9,
			"componentType":5126,
			"count":32,
			"type":"VEC3"
		},
		{
			"bufferView":10,
			"componentType":5126,
			"count":32,
			"type":"VEC2"
		},
		{
			"bufferView":11,
			"componentType":5123,
			"count":90,
			"type":"SCALAR"
		}
	],
	"bufferViews":[
		{
			"buffer":0,
			"byteLength":984,
			"byteOffset":0,
			"target":34962
		},
		{
			"buffer":0,
			"byteLength":984,
			"byteOffset":984,
			"target":34962
		},
		{
			"buffer":0,
			"byteLength":656,
			"byteOffset":1968,
			"target":34962
		},
		{
			"buffer":0,
			"byteLength":408,
			"byteOffset":2624,
			"target":34963
		},
		{
			"buffer":0,
			"byteLength":9300,
			"byteOffset":3032,
			"target":34962
		},
		{
			"buffer":0,
			"byteLength":9300,
			"byteOffset":12332,
			"target":34962
		},
		{
			"buffer":0,
			"byteLength":6200,
			"byteOffset":21632,
			"target":34962
		},
		{
			"buffer":0,
			"byteLength":6060,
			"byteOffset":27832,
			"target":34963
		},
		{
			"buffer":0,
			"byteLength":384,
			"byteOffset":33892,
			"target":34962
		},
		{
			"buffer":0,
			"byteLength":384,
			"byteOffset":34276,
			"target":34962
		},
		{
			"buffer":0,
			"byteLength":256,
			"byteOffset":34660,
			"target":34962
		},
		{
			"buffer":0,
			"byteLength":180,
			"byteOffset":34916,
			"target":34963
		}
	],
	"samplers":[
		{
			"magFilter":9729,
			"minFilter":9987
		}
	],
	"buffers":[
		{
			"byteLength":35096,
			"uri":"mdl_penny_press_toggle.bin"
		}
	]
}
