{
	"asset":{
		"generator":"Khronos glTF Blender I/O v4.3.47",
		"version":"2.0"
	},
	"extensionsUsed":[
		"KHR_texture_transform"
	],
	"extensionsRequired":[
		"KHR_texture_transform"
	],
	"scene":0,
	"scenes":[
		{
			"name":"Scene",
			"nodes":[
				0
			]
		}
	],
	"nodes":[
		{
			"mesh":0,
			"name":"Knob.New",
			"rotation":[
				0.7071068286895752,
				0,
				0,
				0.7071068286895752
			],
			"scale":[
				0.01736995205283165,
				0.01736995205283165,
				0.01736995205283165
			]
		}
	],
	"materials":[
		{
			"doubleSided":true,
			"name":"Steel",
			"normalTexture":{
				"extensions":{
					"KHR_texture_transform":{
						"offset":[
							0,
							-3
						],
						"scale":[
							4,
							4
						]
					}
				},
				"index":0,
				"scale":0.3499999940395355
			},
			"pbrMetallicRoughness":{
				"baseColorFactor":[
					0.5787541270256042,
					0.5787541270256042,
					0.5787541270256042,
					1
				],
				"roughnessFactor":0.4000000059604645
			}
		}
	],
	"meshes":[
		{
			"name":"Circle",
			"primitives":[
				{
					"attributes":{
						"POSITION":0,
						"NORMAL":1,
						"TEXCOORD_0":2
					},
					"indices":3,
					"material":0
				}
			]
		}
	],
	"textures":[
		{
			"sampler":0,
			"source":0
		}
	],
	"images":[
		{
			"mimeType":"image/png",
			"name":"cwt_token_rim_Normal",
			"uri":"textures/cwt_token_rim_Normal.png"
		}
	],
	"accessors":[
		{
			"bufferView":0,
			"componentType":5126,
			"count":419,
			"max":[
				3.097816228866577,
				0.3024579584598541,
				0.9811981320381165
			],
			"min":[
				-3.0978200435638428,
				-1.1667003631591797,
				-0.9811973571777344
			],
			"type":"VEC3"
		},
		{
			"bufferView":1,
			"componentType":5126,
			"count":419,
			"type":"VEC3"
		},
		{
			"bufferView":2,
			"componentType":5126,
			"count":419,
			"type":"VEC2"
		},
		{
			"bufferView":3,
			"componentType":5123,
			"count":1518,
			"type":"SCALAR"
		}
	],
	"bufferViews":[
		{
			"buffer":0,
			"byteLength":5028,
			"byteOffset":0,
			"target":34962
		},
		{
			"buffer":0,
			"byteLength":5028,
			"byteOffset":5028,
			"target":34962
		},
		{
			"buffer":0,
			"byteLength":3352,
			"byteOffset":10056,
			"target":34962
		},
		{
			"buffer":0,
			"byteLength":3036,
			"byteOffset":13408,
			"target":34963
		}
	],
	"samplers":[
		{
			"magFilter":9729,
			"minFilter":9987
		}
	],
	"buffers":[
		{
			"byteLength":16444,
			"uri":"mdl_pennypress_coinslot_knob.bin"
		}
	]
}
