{
	"asset":{
		"generator":"Khronos glTF Blender I/O v4.3.47",
		"version":"2.0"
	},
	"extensionsUsed":[
		"KHR_materials_clearcoat"
	],
	"scene":0,
	"scenes":[
		{
			"name":"Scene",
			"nodes":[
				0
			]
		}
	],
	"nodes":[
		{
			"mesh":0,
			"name":"Selector Gear",
			"scale":[
				0.005414172075688839,
				0.005414172075688839,
				0.023493925109505653
			]
		}
	],
	"materials":[
		{
			"doubleSided":true,
			"extensions":{
				"KHR_materials_clearcoat":{
					"clearcoatFactor":1
				}
			},
			"name":"Spur Gear",
			"pbrMetallicRoughness":{
				"baseColorFactor":[
					0.800000011920929,
					0.800000011920929,
					0.800000011920929,
					1
				],
				"roughnessFactor":0.10000000149011612
			}
		},
		{
			"doubleSided":true,
			"name":"Material.001",
			"pbrMetallicRoughness":{
				"baseColorFactor":[
					0.2864880859851837,
					0.27823251485824585,
					0.27823251485824585,
					1
				],
				"roughnessFactor":0.20000000298023224
			}
		},
		{
			"doubleSided":true,
			"extensions":{
				"KHR_materials_clearcoat":{
					"clearcoatFactor":1,
					"clearcoatRoughnessFactor":0.5
				}
			},
			"name":"Spur Gear Label",
			"pbrMetallicRoughness":{
				"baseColorFactor":[
					0,
					0,
					0,
					1
				],
				"metallicFactor":0.5,
				"roughnessFactor":0.4000000059604645
			}
		}
	],
	"meshes":[
		{
			"name":"Gear.036_Material_0.002",
			"primitives":[
				{
					"attributes":{
						"POSITION":0,
						"NORMAL":1,
						"TEXCOORD_0":2,
						"TEXCOORD_1":3
					},
					"indices":4,
					"material":0
				},
				{
					"attributes":{
						"POSITION":5,
						"NORMAL":6,
						"TEXCOORD_0":7,
						"TEXCOORD_1":8
					},
					"indices":9,
					"material":1
				},
				{
					"attributes":{
						"POSITION":10,
						"NORMAL":11,
						"TEXCOORD_0":12,
						"TEXCOORD_1":13
					},
					"indices":14,
					"material":2
				}
			]
		}
	],
	"accessors":[
		{
			"bufferView":0,
			"componentType":5126,
			"count":314,
			"max":[
				3.5151617527008057,
				3.4453742504119873,
				1.224169135093689
			],
			"min":[
				-3.4920170307159424,
				-3.5618045330047607,
				0.7604361176490784
			],
			"type":"VEC3"
		},
		{
			"bufferView":1,
			"componentType":5126,
			"count":314,
			"type":"VEC3"
		},
		{
			"bufferView":2,
			"componentType":5126,
			"count":314,
			"type":"VEC2"
		},
		{
			"bufferView":3,
			"componentType":5126,
			"count":314,
			"type":"VEC2"
		},
		{
			"bufferView":4,
			"componentType":5123,
			"count":822,
			"type":"SCALAR"
		},
		{
			"bufferView":5,
			"componentType":5126,
			"count":2728,
			"max":[
				23.507999420166016,
				23.633089065551758,
				0.6459365487098694
			],
			"min":[
				-23.84560775756836,
				-23.72076988220215,
				-1.064175009727478
			],
			"type":"VEC3"
		},
		{
			"bufferView":6,
			"componentType":5126,
			"count":2728,
			"type":"VEC3"
		},
		{
			"bufferView":7,
			"componentType":5126,
			"count":2728,
			"type":"VEC2"
		},
		{
			"bufferView":8,
			"componentType":5126,
			"count":2728,
			"type":"VEC2"
		},
		{
			"bufferView":9,
			"componentType":5123,
			"count":5757,
			"type":"SCALAR"
		},
		{
			"bufferView":10,
			"componentType":5126,
			"count":173,
			"max":[
				20.790010452270508,
				20.924150466918945,
				0.7610135674476624
			],
			"min":[
				-21.061603546142578,
				-21.057769775390625,
				0.6450451016426086
			],
			"type":"VEC3"
		},
		{
			"bufferView":11,
			"componentType":5126,
			"count":173,
			"type":"VEC3"
		},
		{
			"bufferView":12,
			"componentType":5126,
			"count":173,
			"type":"VEC2"
		},
		{
			"bufferView":13,
			"componentType":5126,
			"count":173,
			"type":"VEC2"
		},
		{
			"bufferView":14,
			"componentType":5123,
			"count":273,
			"type":"SCALAR"
		}
	],
	"bufferViews":[
		{
			"buffer":0,
			"byteLength":3768,
			"byteOffset":0,
			"target":34962
		},
		{
			"buffer":0,
			"byteLength":3768,
			"byteOffset":3768,
			"target":34962
		},
		{
			"buffer":0,
			"byteLength":2512,
			"byteOffset":7536,
			"target":34962
		},
		{
			"buffer":0,
			"byteLength":2512,
			"byteOffset":10048,
			"target":34962
		},
		{
			"buffer":0,
			"byteLength":1644,
			"byteOffset":12560,
			"target":34963
		},
		{
			"buffer":0,
			"byteLength":32736,
			"byteOffset":14204,
			"target":34962
		},
		{
			"buffer":0,
			"byteLength":32736,
			"byteOffset":46940,
			"target":34962
		},
		{
			"buffer":0,
			"byteLength":21824,
			"byteOffset":79676,
			"target":34962
		},
		{
			"buffer":0,
			"byteLength":21824,
			"byteOffset":101500,
			"target":34962
		},
		{
			"buffer":0,
			"byteLength":11514,
			"byteOffset":123324,
			"target":34963
		},
		{
			"buffer":0,
			"byteLength":2076,
			"byteOffset":134840,
			"target":34962
		},
		{
			"buffer":0,
			"byteLength":2076,
			"byteOffset":136916,
			"target":34962
		},
		{
			"buffer":0,
			"byteLength":1384,
			"byteOffset":138992,
			"target":34962
		},
		{
			"buffer":0,
			"byteLength":1384,
			"byteOffset":140376,
			"target":34962
		},
		{
			"buffer":0,
			"byteLength":546,
			"byteOffset":141760,
			"target":34963
		}
	],
	"buffers":[
		{
			"byteLength":142308,
			"uri":"mdl_penny_press_gear_selector.bin"
		}
	]
}
