{
	"asset":{
		"generator":"Khronos glTF Blender I/O v4.3.47",
		"version":"2.0"
	},
	"extensionsUsed":[
		"KHR_materials_clearcoat"
	],
	"scene":0,
	"scenes":[
		{
			"name":"Scene",
			"nodes":[
				0
			]
		}
	],
	"nodes":[
		{
			"mesh":0,
			"name":"Maker_1",
			"rotation":[
				0.7071068286895752,
				0,
				0,
				0.7071068286895752
			],
			"scale":[
				0.00800000037997961,
				0.00800000037997961,
				0.00800000037997961
			]
		}
	],
	"materials":[
		{
			"doubleSided":true,
			"extensions":{
				"KHR_materials_clearcoat":{
					"clearcoatFactor":1
				}
			},
			"name":"Spur Gear",
			"pbrMetallicRoughness":{
				"baseColorFactor":[
					0.800000011920929,
					0.800000011920929,
					0.800000011920929,
					1
				],
				"roughnessFactor":0.10000000149011612
			}
		}
	],
	"meshes":[
		{
			"name":"Mesh.008",
			"primitives":[
				{
					"attributes":{
						"POSITION":0,
						"NORMAL":1,
						"TEXCOORD_0":2
					},
					"indices":3,
					"material":0
				}
			]
		}
	],
	"accessors":[
		{
			"bufferView":0,
			"componentType":5126,
			"count":1653,
			"max":[
				5.19722318649292,
				21.124935150146484,
				5.197161674499512
			],
			"min":[
				-5.197045803070068,
				-19.49955177307129,
				-5.197107315063477
			],
			"type":"VEC3"
		},
		{
			"bufferView":1,
			"componentType":5126,
			"count":1653,
			"type":"VEC3"
		},
		{
			"bufferView":2,
			"componentType":5126,
			"count":1653,
			"type":"VEC2"
		},
		{
			"bufferView":3,
			"componentType":5123,
			"count":2466,
			"type":"SCALAR"
		}
	],
	"bufferViews":[
		{
			"buffer":0,
			"byteLength":19836,
			"byteOffset":0,
			"target":34962
		},
		{
			"buffer":0,
			"byteLength":19836,
			"byteOffset":19836,
			"target":34962
		},
		{
			"buffer":0,
			"byteLength":13224,
			"byteOffset":39672,
			"target":34962
		},
		{
			"buffer":0,
			"byteLength":4932,
			"byteOffset":52896,
			"target":34963
		}
	],
	"buffers":[
		{
			"byteLength":57828,
			"uri":"mdl_penny_press_maker_01.bin"
		}
	]
}
