{
	"asset":{
		"generator":"Khronos glTF Blender I/O v4.3.47",
		"version":"2.0"
	},
	"scene":0,
	"scenes":[
		{
			"name":"Scene",
			"nodes":[
				0
			]
		}
	],
	"nodes":[
		{
			"mesh":0,
			"name":"Coin Spiral Chute"
		}
	],
	"materials":[
		{
			"alphaMode":"BLEND",
			"doubleSided":true,
			"name":"Material.001",
			"normalTexture":{
				"index":0,
				"scale":0.25,
				"texCoord":1
			},
			"pbrMetallicRoughness":{
				"baseColorFactor":[
					0.7092207074165344,
					0.7092207074165344,
					0.7092207074165344,
					0.38383835554122925
				],
				"roughnessFactor":0.25
			}
		}
	],
	"meshes":[
		{
			"name":"Cube.003",
			"primitives":[
				{
					"attributes":{
						"POSITION":0,
						"NORMAL":1,
						"TEXCOORD_0":2,
						"TEXCOORD_1":3
					},
					"indices":4,
					"material":0
				}
			]
		}
	],
	"textures":[
		{
			"sampler":0,
			"source":0
		}
	],
	"images":[
		{
			"mimeType":"image/png",
			"name":"cwt_token_rim_Normal",
			"uri":"textures/cwt_token_rim_Normal.png"
		}
	],
	"accessors":[
		{
			"bufferView":0,
			"componentType":5126,
			"count":1593,
			"max":[
				0.2465621381998062,
				1.703033447265625,
				0.3130120038986206
			],
			"min":[
				-0.08658188581466675,
				1.4283956289291382,
				-0.021524474024772644
			],
			"type":"VEC3"
		},
		{
			"bufferView":1,
			"componentType":5126,
			"count":1593,
			"type":"VEC3"
		},
		{
			"bufferView":2,
			"componentType":5126,
			"count":1593,
			"type":"VEC2"
		},
		{
			"bufferView":3,
			"componentType":5126,
			"count":1593,
			"type":"VEC2"
		},
		{
			"bufferView":4,
			"componentType":5123,
			"count":3240,
			"type":"SCALAR"
		}
	],
	"bufferViews":[
		{
			"buffer":0,
			"byteLength":19116,
			"byteOffset":0,
			"target":34962
		},
		{
			"buffer":0,
			"byteLength":19116,
			"byteOffset":19116,
			"target":34962
		},
		{
			"buffer":0,
			"byteLength":12744,
			"byteOffset":38232,
			"target":34962
		},
		{
			"buffer":0,
			"byteLength":12744,
			"byteOffset":50976,
			"target":34962
		},
		{
			"buffer":0,
			"byteLength":6480,
			"byteOffset":63720,
			"target":34963
		}
	],
	"samplers":[
		{
			"magFilter":9729,
			"minFilter":9987
		}
	],
	"buffers":[
		{
			"byteLength":70200,
			"uri":"mdl_penny_press_spiral.bin"
		}
	]
}
