{
	"asset":{
		"generator":"Khronos glTF Blender I/O v4.3.47",
		"version":"2.0"
	},
	"extensionsUsed":[
		"KHR_materials_clearcoat"
	],
	"scene":0,
	"scenes":[
		{
			"name":"Scene",
			"nodes":[
				1
			]
		}
	],
	"nodes":[
		{
			"mesh":0,
			"name":"Marker#boxcollider",
			"rotation":[
				0,
				-0.7071068286895752,
				-0.7071068286895752,
				1.1520232590100932e-07
			],
			"scale":[
				124.99999237060547,
				124.99999237060547,
				124.99999237060547
			],
			"translation":[
				7.588348388671875,
				6.548278331756592,
				0.04631730914115906
			]
		},
		{
			"children":[
				0
			],
			"mesh":1,
			"name":"Marker",
			"rotation":[
				0,
				0.7071068286895752,
				0.7071068286895752,
				1.1520234011186403e-07
			],
			"scale":[
				0.00800000037997961,
				0.00800000037997961,
				0.00800000037997961
			],
			"translation":[
				0.1706601232290268,
				1.2452538013458252,
				0.2024756819009781
			]
		}
	],
	"materials":[
		{
			"doubleSided":true,
			"extensions":{
				"KHR_materials_clearcoat":{
					"clearcoatFactor":1
				}
			},
			"name":"Bolts",
			"pbrMetallicRoughness":{
				"baseColorFactor":[
					0.800000011920929,
					0.800000011920929,
					0.800000011920929,
					1
				],
				"roughnessFactor":0.10000000149011612
			}
		},
		{
			"doubleSided":true,
			"name":"Red Marker",
			"pbrMetallicRoughness":{
				"baseColorFactor":[
					0.8001565933227539,
					0,
					0.001681719091720879,
					1
				],
				"metallicFactor":0,
				"roughnessFactor":0.5527864098548889
			}
		}
	],
	"meshes":[
		{
			"name":"Marker#boxcollider",
			"primitives":[
				{
					"attributes":{
						"POSITION":0,
						"NORMAL":1,
						"TEXCOORD_0":2
					},
					"indices":3
				}
			]
		},
		{
			"name":"Mesh.003",
			"primitives":[
				{
					"attributes":{
						"POSITION":4,
						"NORMAL":5,
						"TEXCOORD_0":6
					},
					"indices":7,
					"material":0
				},
				{
					"attributes":{
						"POSITION":8,
						"NORMAL":9,
						"TEXCOORD_0":10
					},
					"indices":11,
					"material":1
				}
			]
		}
	],
	"accessors":[
		{
			"bufferView":0,
			"componentType":5126,
			"count":24,
			"max":[
				0.004000000189989805,
				0.004000000189989805,
				0.004000000189989805
			],
			"min":[
				-0.004000000189989805,
				-0.004000000189989805,
				-0.004000000189989805
			],
			"type":"VEC3"
		},
		{
			"bufferView":1,
			"componentType":5126,
			"count":24,
			"type":"VEC3"
		},
		{
			"bufferView":2,
			"componentType":5126,
			"count":24,
			"type":"VEC2"
		},
		{
			"bufferView":3,
			"componentType":5123,
			"count":36,
			"type":"SCALAR"
		},
		{
			"bufferView":4,
			"componentType":5126,
			"count":27,
			"max":[
				0.4316228926181793,
				0.9734826683998108,
				0.4221135079860687
			],
			"min":[
				-0.41225466132164,
				0.8613601922988892,
				-0.4228317439556122
			],
			"type":"VEC3"
		},
		{
			"bufferView":5,
			"componentType":5126,
			"count":27,
			"type":"VEC3"
		},
		{
			"bufferView":6,
			"componentType":5126,
			"count":27,
			"type":"VEC2"
		},
		{
			"bufferView":7,
			"componentType":5123,
			"count":78,
			"type":"SCALAR"
		},
		{
			"bufferView":8,
			"componentType":5126,
			"count":46,
			"max":[
				7.0800604820251465,
				6.548445701599121,
				0.7644000053405762
			],
			"min":[
				-1.3650000095367432,
				0.7407497763633728,
				-0.7644000053405762
			],
			"type":"VEC3"
		},
		{
			"bufferView":9,
			"componentType":5126,
			"count":46,
			"type":"VEC3"
		},
		{
			"bufferView":10,
			"componentType":5126,
			"count":46,
			"type":"VEC2"
		},
		{
			"bufferView":11,
			"componentType":5123,
			"count":84,
			"type":"SCALAR"
		}
	],
	"bufferViews":[
		{
			"buffer":0,
			"byteLength":288,
			"byteOffset":0,
			"target":34962
		},
		{
			"buffer":0,
			"byteLength":288,
			"byteOffset":288,
			"target":34962
		},
		{
			"buffer":0,
			"byteLength":192,
			"byteOffset":576,
			"target":34962
		},
		{
			"buffer":0,
			"byteLength":72,
			"byteOffset":768,
			"target":34963
		},
		{
			"buffer":0,
			"byteLength":324,
			"byteOffset":840,
			"target":34962
		},
		{
			"buffer":0,
			"byteLength":324,
			"byteOffset":1164,
			"target":34962
		},
		{
			"buffer":0,
			"byteLength":216,
			"byteOffset":1488,
			"target":34962
		},
		{
			"buffer":0,
			"byteLength":156,
			"byteOffset":1704,
			"target":34963
		},
		{
			"buffer":0,
			"byteLength":552,
			"byteOffset":1860,
			"target":34962
		},
		{
			"buffer":0,
			"byteLength":552,
			"byteOffset":2412,
			"target":34962
		},
		{
			"buffer":0,
			"byteLength":368,
			"byteOffset":2964,
			"target":34962
		},
		{
			"buffer":0,
			"byteLength":168,
			"byteOffset":3332,
			"target":34963
		}
	],
	"buffers":[
		{
			"byteLength":3500,
			"uri":"mdl_penny_press_marker.bin"
		}
	]
}
