{
	"asset":{
		"generator":"Khronos glTF Blender I/O v4.0.44",
		"version":"2.0"
	},
	"scene":0,
	"scenes":[
		{
			"name":"Scene",
			"nodes":[
				0,
				1
			]
		}
	],
	"nodes":[
		{
			"mesh":0,
			"name":"Cylinder",
			"scale":[
				0.015678411349654198,
				0.0014494694769382477,
				0.015678411349654198
			]
		},
		{
			"mesh":1,
			"name":"Cylinder.001",
			"scale":[
				-0.0009153275168500841,
				-0.000268840289209038,
				-0.0009153275168500841
			],
			"translation":[
				0,
				0.0015873797237873077,
				0
			]
		}
	],
	"materials":[
		{
			"doubleSided":true,
			"name":"Material.098",
			"normalTexture":{
				"index":0
			},
			"pbrMetallicRoughness":{
				"baseColorTexture":{
					"index":1
				},
				"metallicFactor":0,
				"metallicRoughnessTexture":{
					"index":2
				}
			}
		},
		{
			"doubleSided":true,
			"name":"Material.099",
			"pbrMetallicRoughness":{
				"baseColorTexture":{
					"index":3
				},
				"metallicFactor":0,
				"roughnessFactor":0.5
			}
		}
	],
	"meshes":[
		{
			"name":"Cylinder.027",
			"primitives":[
				{
					"attributes":{
						"POSITION":0,
						"NORMAL":1,
						"TEXCOORD_0":2
					},
					"indices":3,
					"material":0
				},
				{
					"attributes":{
						"POSITION":4,
						"NORMAL":5,
						"TEXCOORD_0":6
					},
					"indices":7,
					"material":1
				}
			]
		},
		{
			"name":"Cylinder.028",
			"primitives":[
				{
					"attributes":{
						"POSITION":8,
						"NORMAL":9,
						"TEXCOORD_0":10
					},
					"indices":11,
					"material":0
				}
			]
		}
	],
	"textures":[
		{
			"sampler":0,
			"source":0
		},
		{
			"sampler":0,
			"source":1
		},
		{
			"sampler":0,
			"source":2
		},
		{
			"sampler":0,
			"source":3
		}
	],
	"images":[
		{
			"mimeType":"image/png",
			"name":"Wood021_2K-PNG_NormalGL",
			"uri":"Wood021_2K-PNG_NormalGL.png"
		},
		{
			"mimeType":"image/png",
			"name":"Wood021_2K-PNG_Color",
			"uri":"Wood021_2K-PNG_Color.png"
		},
		{
			"mimeType":"image/png",
			"name":"Wood021_2K-PNG_Roughness",
			"uri":"Wood021_2K-PNG_Roughness.png"
		},
		{
			"mimeType":"image/png",
			"name":"Untitled_design_3",
			"uri":"Untitled_design_3.png"
		}
	],
	"accessors":[
		{
			"bufferView":0,
			"componentType":5126,
			"count":211,
			"max":[
				1,
				1.6526830196380615,
				1
			],
			"min":[
				-1,
				-1,
				-1
			],
			"type":"VEC3"
		},
		{
			"bufferView":1,
			"componentType":5126,
			"count":211,
			"type":"VEC3"
		},
		{
			"bufferView":2,
			"componentType":5126,
			"count":211,
			"type":"VEC2"
		},
		{
			"bufferView":3,
			"componentType":5123,
			"count":666,
			"type":"SCALAR"
		},
		{
			"bufferView":4,
			"componentType":5126,
			"count":32,
			"max":[
				0.9053551554679871,
				1.0072604417800903,
				0.9053551554679871
			],
			"min":[
				-0.9053551554679871,
				1.0072604417800903,
				-0.9053551554679871
			],
			"type":"VEC3"
		},
		{
			"bufferView":5,
			"componentType":5126,
			"count":32,
			"type":"VEC3"
		},
		{
			"bufferView":6,
			"componentType":5126,
			"count":32,
			"type":"VEC2"
		},
		{
			"bufferView":7,
			"componentType":5123,
			"count":90,
			"type":"SCALAR"
		},
		{
			"bufferView":8,
			"componentType":5126,
			"count":130,
			"max":[
				1,
				1,
				1
			],
			"min":[
				-1,
				-1,
				-1
			],
			"type":"VEC3"
		},
		{
			"bufferView":9,
			"componentType":5126,
			"count":130,
			"type":"VEC3"
		},
		{
			"bufferView":10,
			"componentType":5126,
			"count":130,
			"type":"VEC2"
		},
		{
			"bufferView":11,
			"componentType":5123,
			"count":372,
			"type":"SCALAR"
		}
	],
	"bufferViews":[
		{
			"buffer":0,
			"byteLength":2532,
			"byteOffset":0,
			"target":34962
		},
		{
			"buffer":0,
			"byteLength":2532,
			"byteOffset":2532,
			"target":34962
		},
		{
			"buffer":0,
			"byteLength":1688,
			"byteOffset":5064,
			"target":34962
		},
		{
			"buffer":0,
			"byteLength":1332,
			"byteOffset":6752,
			"target":34963
		},
		{
			"buffer":0,
			"byteLength":384,
			"byteOffset":8084,
			"target":34962
		},
		{
			"buffer":0,
			"byteLength":384,
			"byteOffset":8468,
			"target":34962
		},
		{
			"buffer":0,
			"byteLength":256,
			"byteOffset":8852,
			"target":34962
		},
		{
			"buffer":0,
			"byteLength":180,
			"byteOffset":9108,
			"target":34963
		},
		{
			"buffer":0,
			"byteLength":1560,
			"byteOffset":9288,
			"target":34962
		},
		{
			"buffer":0,
			"byteLength":1560,
			"byteOffset":10848,
			"target":34962
		},
		{
			"buffer":0,
			"byteLength":1040,
			"byteOffset":12408,
			"target":34962
		},
		{
			"buffer":0,
			"byteLength":744,
			"byteOffset":13448,
			"target":34963
		}
	],
	"samplers":[
		{
			"magFilter":9729,
			"minFilter":9987
		}
	],
	"buffers":[
		{
			"byteLength":14192,
			"uri":"blondeblackclock.bin"
		}
	]
}
