{
	"asset":{
		"generator":"Khronos glTF Blender I/O v4.2.57",
		"version":"2.0"
	},
	"extensionsUsed":[
		"KHR_materials_specular",
		"KHR_materials_ior"
	],
	"scene":0,
	"scenes":[
		{
			"name":"Scene",
			"nodes":[
				0
			]
		}
	],
	"nodes":[
		{
			"mesh":0,
			"name":"Plane.002",
			"rotation":[
				0.7899748086929321,
				0,
				0,
				0.6131394505500793
			],
			"scale":[
				0.6573692560195923,
				0.9953218698501587,
				1.3627986907958984
			],
			"translation":[
				0.13436278700828552,
				7.618440628051758,
				-0.27641016244888306
			]
		}
	],
	"materials":[
		{
			"doubleSided":true,
			"extensions":{
				"KHR_materials_specular":{
					"specularFactor":0.8213358521461487
				},
				"KHR_materials_ior":{
					"ior":1
				}
			},
			"name":"Material.004",
			"pbrMetallicRoughness":{
				"baseColorTexture":{
					"index":0
				},
				"metallicFactor":0
			}
		}
	],
	"meshes":[
		{
			"name":"Plane.002",
			"primitives":[
				{
					"attributes":{
						"POSITION":0,
						"NORMAL":1,
						"TEXCOORD_0":2
					},
					"indices":3,
					"material":0
				}
			]
		}
	],
	"textures":[
		{
			"sampler":0,
			"source":0
		}
	],
	"images":[
		{
			"mimeType":"image/png",
			"name":"lettuceleafcolor",
			"uri":"lettuceleafcolor.png"
		}
	],
	"accessors":[
		{
			"bufferView":0,
			"componentType":5126,
			"count":293,
			"max":[
				6.745505332946777,
				0.747624933719635,
				2.0855534076690674
			],
			"min":[
				-6.747232913970947,
				-1.028827428817749,
				-2.248396873474121
			],
			"type":"VEC3"
		},
		{
			"bufferView":1,
			"componentType":5126,
			"count":293,
			"type":"VEC3"
		},
		{
			"bufferView":2,
			"componentType":5126,
			"count":293,
			"type":"VEC2"
		},
		{
			"bufferView":3,
			"componentType":5123,
			"count":1323,
			"type":"SCALAR"
		}
	],
	"bufferViews":[
		{
			"buffer":0,
			"byteLength":3516,
			"byteOffset":0,
			"target":34962
		},
		{
			"buffer":0,
			"byteLength":3516,
			"byteOffset":3516,
			"target":34962
		},
		{
			"buffer":0,
			"byteLength":2344,
			"byteOffset":7032,
			"target":34962
		},
		{
			"buffer":0,
			"byteLength":2646,
			"byteOffset":9376,
			"target":34963
		}
	],
	"samplers":[
		{
			"magFilter":9729,
			"minFilter":9987
		}
	],
	"buffers":[
		{
			"byteLength":12024,
			"uri":"mdl_brush_leafcrown.bin"
		}
	]
}
