{
    "asset" : {
        "generator" : "Khronos glTF Blender I/O v3.4.50",
        "version" : "2.0"
    },
    "scene" : 0,
    "scenes" : [
        {
            "name" : "Scene",
            "nodes" : [
                6
            ]
        }
    ],
    "nodes" : [
        {
            "mesh" : 0,
            "name" : "Object_4"
        },
        {
            "children" : [
                0
            ],
            "name" : "Cube.005_0",
            "scale" : [
                0.281953364610672,
                3.0937764644622803,
                2.040637969970703
            ],
            "translation" : [
                0,
                0,
                -0.06371307373046875
            ]
        },
        {
            "name" : "Cube.007_3",
            "scale" : [
                0.281953364610672,
                3.0937764644622803,
                2.040637969970703
            ],
            "translation" : [
                0,
                0,
                -7.063713073730469
            ]
        },
        {
            "name" : "Cube.008_1",
            "scale" : [
                0.281953364610672,
                3.0937764644622803,
                2.040637969970703
            ],
            "translation" : [
                0,
                0,
                6.936286926269531
            ]
        },
        {
            "children" : [
                1,
                2,
                3
            ],
            "name" : "GLTF_SceneRootNode",
            "rotation" : [
                0.70710688829422,
                0,
                0,
                0.7071066498756409
            ]
        },
        {
            "children" : [
                4
            ],
            "name" : "root"
        },
        {
            "children" : [
                5
            ],
            "name" : "Sketchfab_model",
            "rotation" : [
                -0.5,
                -0.5,
                -0.5,
                0.5
            ]
        }
    ],
    "materials" : [
        {
            "doubleSided" : true,
            "name" : "Material.007",
            "pbrMetallicRoughness" : {
                "baseColorTexture" : {
                    "index" : 0
                },
                "metallicFactor" : 0,
                "roughnessFactor" : 0.5
            }
        }
    ],
    "meshes" : [
        {
            "name" : "Object_0",
            "primitives" : [
                {
                    "attributes" : {
                        "POSITION" : 0,
                        "TEXCOORD_0" : 1,
                        "NORMAL" : 2
                    },
                    "indices" : 3,
                    "material" : 0
                }
            ]
        }
    ],
    "textures" : [
        {
            "sampler" : 0,
            "source" : 0
        }
    ],
    "images" : [
        {
            "mimeType" : "image/jpeg",
            "name" : "tx_paprika_whitemarble",
            "uri" : "textures/tx_paprika_whitemarble.jpg"
        }
    ],
    "accessors" : [
        {
            "bufferView" : 0,
            "componentType" : 5126,
            "count" : 4373,
            "max" : [
                0.9999998807907104,
                1.0000003576278687,
                1
            ],
            "min" : [
                -0.9999998807907104,
                -1.0000003576278687,
                -1
            ],
            "type" : "VEC3"
        },
        {
            "bufferView" : 1,
            "componentType" : 5126,
            "count" : 4373,
            "type" : "VEC2"
        },
        {
            "bufferView" : 2,
            "componentType" : 5126,
            "count" : 4373,
            "type" : "VEC3"
        },
        {
            "bufferView" : 3,
            "componentType" : 5123,
            "count" : 4599,
            "type" : "SCALAR"
        }
    ],
    "bufferViews" : [
        {
            "buffer" : 0,
            "byteLength" : 52476,
            "byteOffset" : 0,
            "target" : 34962
        },
        {
            "buffer" : 0,
            "byteLength" : 34984,
            "byteOffset" : 52476,
            "target" : 34962
        },
        {
            "buffer" : 0,
            "byteLength" : 52476,
            "byteOffset" : 87460,
            "target" : 34962
        },
        {
            "buffer" : 0,
            "byteLength" : 9198,
            "byteOffset" : 139936,
            "target" : 34963
        }
    ],
    "samplers" : [
        {
            "magFilter" : 9729,
            "minFilter" : 9987
        }
    ],
    "buffers" : [
        {
            "byteLength" : 149136,
            "uri" : "mdl_paprika_arch.bin"
        }
    ]
}
