{
	"asset":{
		"generator":"Khronos glTF Blender I/O v4.2.57",
		"version":"2.0"
	},
	"scene":0,
	"scenes":[
		{
			"name":"Scene",
			"nodes":[
				1,
				2,
				3
			]
		}
	],
	"nodes":[
		{
			"mesh":0,
			"name":"straps",
			"scale":[
				1,
				0.9168714880943298,
				1
			],
			"translation":[
				0.02461881935596466,
				-0.006935805082321167,
				-0.21243135631084442
			]
		},
		{
			"children":[
				0
			],
			"mesh":1,
			"name":"backpack"
		},
		{
			"mesh":2,
			"name":"notebook",
			"translation":[
				0.07743509858846664,
				-0.12098100781440735,
				0.19240394234657288
			]
		},
		{
			"mesh":3,
			"name":"scrolls",
			"translation":[
				-0.09666147828102112,
				-0.13765273988246918,
				0.1799004226922989
			]
		}
	],
	"materials":[
		{
			"doubleSided":true,
			"name":"TT_checker_4096x4096_UV_GRID.001",
			"normalTexture":{
				"index":0
			},
			"pbrMetallicRoughness":{
				"baseColorTexture":{
					"index":1
				},
				"metallicRoughnessTexture":{
					"index":2
				}
			}
		}
	],
	"meshes":[
		{
			"name":"bag_main1_1_Retopo.004",
			"primitives":[
				{
					"attributes":{
						"POSITION":0,
						"NORMAL":1,
						"TEXCOORD_0":2
					},
					"indices":3,
					"material":0
				}
			]
		},
		{
			"name":"bag_main1_1_Retopo.002",
			"primitives":[
				{
					"attributes":{
						"POSITION":4,
						"NORMAL":5,
						"TEXCOORD_0":6
					},
					"indices":7,
					"material":0
				}
			]
		},
		{
			"name":"bag_main1_1_Retopo.006",
			"primitives":[
				{
					"attributes":{
						"POSITION":8,
						"NORMAL":9,
						"TEXCOORD_0":10
					},
					"indices":11,
					"material":0
				}
			]
		},
		{
			"name":"bag_main1_1_Retopo.007",
			"primitives":[
				{
					"attributes":{
						"POSITION":12,
						"NORMAL":13,
						"TEXCOORD_0":14
					},
					"indices":15,
					"material":0
				}
			]
		}
	],
	"textures":[
		{
			"sampler":0,
			"source":0
		},
		{
			"sampler":0,
			"source":1
		},
		{
			"sampler":0,
			"source":2
		}
	],
	"images":[
		{
			"mimeType":"image/jpeg",
			"name":"backpack_normal_256",
			"uri":"backpack_normal_256.jpg"
		},
		{
			"mimeType":"image/jpeg",
			"name":"backpack_basecolor_1k",
			"uri":"backpack_basecolor_1k.jpg"
		},
		{
			"mimeType":"image/png",
			"name":"backpack_metallic_256-backpack_roughness_256",
			"uri":"backpack_metallic_256-backpack_roughness_256.png"
		}
	],
	"accessors":[
		{
			"bufferView":0,
			"componentType":5126,
			"count":1134,
			"max":[
				0.15828977525234222,
				0.3019019067287445,
				0.10902086645364761
			],
			"min":[
				-0.18216513097286224,
				-0.2832040786743164,
				-0.08662039041519165
			],
			"type":"VEC3"
		},
		{
			"bufferView":1,
			"componentType":5126,
			"count":1134,
			"type":"VEC3"
		},
		{
			"bufferView":2,
			"componentType":5126,
			"count":1134,
			"type":"VEC2"
		},
		{
			"bufferView":3,
			"componentType":5123,
			"count":4704,
			"type":"SCALAR"
		},
		{
			"bufferView":4,
			"componentType":5126,
			"count":5059,
			"max":[
				0.27206796407699585,
				0.30110275745391846,
				0.21287664771080017
			],
			"min":[
				-0.2466765195131302,
				-0.3371400237083435,
				-0.190170019865036
			],
			"type":"VEC3"
		},
		{
			"bufferView":5,
			"componentType":5126,
			"count":5059,
			"type":"VEC3"
		},
		{
			"bufferView":6,
			"componentType":5126,
			"count":5059,
			"type":"VEC2"
		},
		{
			"bufferView":7,
			"componentType":5123,
			"count":20037,
			"type":"SCALAR"
		},
		{
			"bufferView":8,
			"componentType":5126,
			"count":375,
			"max":[
				0.08756757527589798,
				0.05400696396827698,
				0.010644495487213135
			],
			"min":[
				-0.014560379087924957,
				-0.09897050261497498,
				-0.024657219648361206
			],
			"type":"VEC3"
		},
		{
			"bufferView":9,
			"componentType":5126,
			"count":375,
			"type":"VEC3"
		},
		{
			"bufferView":10,
			"componentType":5126,
			"count":375,
			"type":"VEC2"
		},
		{
			"bufferView":11,
			"componentType":5123,
			"count":1368,
			"type":"SCALAR"
		},
		{
			"bufferView":12,
			"componentType":5126,
			"count":408,
			"max":[
				0.02142368257045746,
				0.05543256551027298,
				0.020473569631576538
			],
			"min":[
				-0.019045725464820862,
				-0.05612136423587799,
				-0.018108025193214417
			],
			"type":"VEC3"
		},
		{
			"bufferView":13,
			"componentType":5126,
			"count":408,
			"type":"VEC3"
		},
		{
			"bufferView":14,
			"componentType":5126,
			"count":408,
			"type":"VEC2"
		},
		{
			"bufferView":15,
			"componentType":5123,
			"count":1788,
			"type":"SCALAR"
		}
	],
	"bufferViews":[
		{
			"buffer":0,
			"byteLength":13608,
			"byteOffset":0,
			"target":34962
		},
		{
			"buffer":0,
			"byteLength":13608,
			"byteOffset":13608,
			"target":34962
		},
		{
			"buffer":0,
			"byteLength":9072,
			"byteOffset":27216,
			"target":34962
		},
		{
			"buffer":0,
			"byteLength":9408,
			"byteOffset":36288,
			"target":34963
		},
		{
			"buffer":0,
			"byteLength":60708,
			"byteOffset":45696,
			"target":34962
		},
		{
			"buffer":0,
			"byteLength":60708,
			"byteOffset":106404,
			"target":34962
		},
		{
			"buffer":0,
			"byteLength":40472,
			"byteOffset":167112,
			"target":34962
		},
		{
			"buffer":0,
			"byteLength":40074,
			"byteOffset":207584,
			"target":34963
		},
		{
			"buffer":0,
			"byteLength":4500,
			"byteOffset":247660,
			"target":34962
		},
		{
			"buffer":0,
			"byteLength":4500,
			"byteOffset":252160,
			"target":34962
		},
		{
			"buffer":0,
			"byteLength":3000,
			"byteOffset":256660,
			"target":34962
		},
		{
			"buffer":0,
			"byteLength":2736,
			"byteOffset":259660,
			"target":34963
		},
		{
			"buffer":0,
			"byteLength":4896,
			"byteOffset":262396,
			"target":34962
		},
		{
			"buffer":0,
			"byteLength":4896,
			"byteOffset":267292,
			"target":34962
		},
		{
			"buffer":0,
			"byteLength":3264,
			"byteOffset":272188,
			"target":34962
		},
		{
			"buffer":0,
			"byteLength":3576,
			"byteOffset":275452,
			"target":34963
		}
	],
	"samplers":[
		{
			"magFilter":9729,
			"minFilter":9987
		}
	],
	"buffers":[
		{
			"byteLength":279028,
			"uri":"backpack.bin"
		}
	]
}
