{
	"asset":{
		"generator":"Khronos glTF Blender I/O v4.1.63",
		"version":"2.0"
	},
	"scene":0,
	"scenes":[
		{
			"name":"Scene",
			"nodes":[
				7
			]
		}
	],
	"nodes":[
		{
			"mesh":0,
			"name":"PART_01_PART_01_met_0"
		},
		{
			"children":[
				0
			],
			"name":"PART_01"
		},
		{
			"name":"PART_02"
		},
		{
			"name":"PART_03"
		},
		{
			"children":[
				1,
				2,
				3
			],
			"name":"cstr_Modular_scaffold_set"
		},
		{
			"children":[
				4
			],
			"name":"RootNode"
		},
		{
			"children":[
				5
			],
			"name":"cstr_Modular_scaffold_set_lod_03.fbx",
			"rotation":[
				0.70710688829422,
				0,
				0,
				0.7071066498756409
			],
			"scale":[
				0.009999999776482582,
				0.010000000707805157,
				0.010000000707805157
			]
		},
		{
			"children":[
				6
			],
			"name":"Sketchfab_model",
			"rotation":[
				-0.70710688829422,
				0,
				0,
				0.7071066498756409
			]
		}
	],
	"materials":[
		{
			"doubleSided":true,
			"name":"PART_01_met",
			"normalTexture":{
				"index":0
			},
			"occlusionTexture":{
				"index":1
			},
			"pbrMetallicRoughness":{
				"baseColorTexture":{
					"index":2
				},
				"metallicRoughnessTexture":{
					"index":1
				}
			}
		},
		{
			"doubleSided":true,
			"name":"PART_03_met",
			"normalTexture":{
				"index":3
			},
			"occlusionTexture":{
				"index":4
			},
			"pbrMetallicRoughness":{
				"baseColorTexture":{
					"index":5
				},
				"metallicRoughnessTexture":{
					"index":4
				}
			}
		},
		{
			"alphaMode":"BLEND",
			"doubleSided":true,
			"name":"part_02_met",
			"normalTexture":{
				"index":6
			},
			"occlusionTexture":{
				"index":7
			},
			"pbrMetallicRoughness":{
				"baseColorTexture":{
					"index":8
				},
				"metallicRoughnessTexture":{
					"index":7
				}
			}
		}
	],
	"meshes":[
		{
			"name":"PART_01_PART_01_met_0",
			"primitives":[
				{
					"attributes":{
						"POSITION":0,
						"NORMAL":1,
						"TEXCOORD_0":2,
						"TEXCOORD_1":3
					},
					"indices":4,
					"material":0
				},
				{
					"attributes":{
						"POSITION":5,
						"NORMAL":6,
						"TEXCOORD_0":7,
						"TEXCOORD_1":8
					},
					"indices":9,
					"material":1
				},
				{
					"attributes":{
						"POSITION":10,
						"NORMAL":11,
						"TEXCOORD_0":12,
						"TEXCOORD_1":13
					},
					"indices":14,
					"material":2
				}
			]
		}
	],
	"textures":[
		{
			"sampler":0,
			"source":0
		},
		{
			"sampler":0,
			"source":1
		},
		{
			"sampler":0,
			"source":2
		},
		{
			"sampler":0,
			"source":3
		},
		{
			"sampler":0,
			"source":4
		},
		{
			"sampler":0,
			"source":5
		},
		{
			"sampler":0,
			"source":6
		},
		{
			"sampler":0,
			"source":7
		},
		{
			"sampler":0,
			"source":8
		}
	],
	"images":[
		{
			"mimeType":"image/png",
			"name":"PART_01_met_normal",
			"uri":"PART_01_met_normal.png"
		},
		{
			"mimeType":"image/png",
			"name":"PART_01_met_metallicRoughness",
			"uri":"PART_01_met_metallicRoughness.png"
		},
		{
			"mimeType":"image/jpeg",
			"name":"PART_01_met_baseColor",
			"uri":"PART_01_met_baseColor.jpg"
		},
		{
			"mimeType":"image/png",
			"name":"PART_03_met_normal",
			"uri":"PART_03_met_normal.png"
		},
		{
			"mimeType":"image/png",
			"name":"PART_03_met_metallicRoughness",
			"uri":"PART_03_met_metallicRoughness.png"
		},
		{
			"mimeType":"image/jpeg",
			"name":"PART_03_met_baseColor",
			"uri":"PART_03_met_baseColor.jpg"
		},
		{
			"mimeType":"image/png",
			"name":"part_02_met_normal",
			"uri":"part_02_met_normal.png"
		},
		{
			"mimeType":"image/png",
			"name":"part_02_met_metallicRoughness",
			"uri":"part_02_met_metallicRoughness.png"
		},
		{
			"mimeType":"image/png",
			"name":"part_02_met_baseColor",
			"uri":"part_02_met_baseColor.png"
		}
	],
	"accessors":[
		{
			"bufferView":0,
			"componentType":5126,
			"count":3433,
			"max":[
				149.41165161132812,
				912.023193359375,
				264.59478759765625
			],
			"min":[
				-148.511962890625,
				42.39105987548828,
				-267.1896057128906
			],
			"type":"VEC3"
		},
		{
			"bufferView":1,
			"componentType":5126,
			"count":3433,
			"type":"VEC3"
		},
		{
			"bufferView":2,
			"componentType":5126,
			"count":3433,
			"type":"VEC2"
		},
		{
			"bufferView":3,
			"componentType":5126,
			"count":3433,
			"type":"VEC2"
		},
		{
			"bufferView":4,
			"componentType":5123,
			"count":8598,
			"type":"SCALAR"
		},
		{
			"bufferView":5,
			"componentType":5126,
			"count":1180,
			"max":[
				113.37488555908203,
				46.6137580871582,
				286.650146484375
			],
			"min":[
				-112.9843978881836,
				0.7331385016441345,
				-288.88226318359375
			],
			"type":"VEC3"
		},
		{
			"bufferView":6,
			"componentType":5126,
			"count":1180,
			"type":"VEC3"
		},
		{
			"bufferView":7,
			"componentType":5126,
			"count":1180,
			"type":"VEC2"
		},
		{
			"bufferView":8,
			"componentType":5126,
			"count":1180,
			"type":"VEC2"
		},
		{
			"bufferView":9,
			"componentType":5123,
			"count":3336,
			"type":"SCALAR"
		},
		{
			"bufferView":10,
			"componentType":5126,
			"count":12,
			"max":[
				127.28211212158203,
				702.9365844726562,
				223.9685516357422
			],
			"min":[
				-129.70095825195312,
				262.8136901855469,
				-187.29273986816406
			],
			"type":"VEC3"
		},
		{
			"bufferView":11,
			"componentType":5126,
			"count":12,
			"type":"VEC3"
		},
		{
			"bufferView":12,
			"componentType":5126,
			"count":12,
			"type":"VEC2"
		},
		{
			"bufferView":13,
			"componentType":5126,
			"count":12,
			"type":"VEC2"
		},
		{
			"bufferView":14,
			"componentType":5123,
			"count":18,
			"type":"SCALAR"
		}
	],
	"bufferViews":[
		{
			"buffer":0,
			"byteLength":41196,
			"byteOffset":0,
			"target":34962
		},
		{
			"buffer":0,
			"byteLength":41196,
			"byteOffset":41196,
			"target":34962
		},
		{
			"buffer":0,
			"byteLength":27464,
			"byteOffset":82392,
			"target":34962
		},
		{
			"buffer":0,
			"byteLength":27464,
			"byteOffset":109856,
			"target":34962
		},
		{
			"buffer":0,
			"byteLength":17196,
			"byteOffset":137320,
			"target":34963
		},
		{
			"buffer":0,
			"byteLength":14160,
			"byteOffset":154516,
			"target":34962
		},
		{
			"buffer":0,
			"byteLength":14160,
			"byteOffset":168676,
			"target":34962
		},
		{
			"buffer":0,
			"byteLength":9440,
			"byteOffset":182836,
			"target":34962
		},
		{
			"buffer":0,
			"byteLength":9440,
			"byteOffset":192276,
			"target":34962
		},
		{
			"buffer":0,
			"byteLength":6672,
			"byteOffset":201716,
			"target":34963
		},
		{
			"buffer":0,
			"byteLength":144,
			"byteOffset":208388,
			"target":34962
		},
		{
			"buffer":0,
			"byteLength":144,
			"byteOffset":208532,
			"target":34962
		},
		{
			"buffer":0,
			"byteLength":96,
			"byteOffset":208676,
			"target":34962
		},
		{
			"buffer":0,
			"byteLength":96,
			"byteOffset":208772,
			"target":34962
		},
		{
			"buffer":0,
			"byteLength":36,
			"byteOffset":208868,
			"target":34963
		}
	],
	"samplers":[
		{
			"magFilter":9729,
			"minFilter":9987
		}
	],
	"buffers":[
		{
			"byteLength":208904,
			"uri":"mdl_wollo_construction_scaffold.bin"
		}
	]
}
