{
	"asset":{
		"generator":"Khronos glTF Blender I/O v4.0.44",
		"version":"2.0"
	},
	"extensionsUsed":[
		"KHR_materials_specular"
	],
	"scene":0,
	"scenes":[
		{
			"name":"Scene",
			"nodes":[
				14
			]
		}
	],
	"nodes":[
		{
			"name":"Cube.109",
			"rotation":[
				-0.70710688829422,
				0,
				0,
				0.7071066498756409
			],
			"scale":[
				100,
				99.99998474121094,
				99.99998474121094
			],
			"translation":[
				-82.9732894897461,
				27.77631187438965,
				0
			]
		},
		{
			"mesh":0,
			"name":"Cube.111_Material.004_0"
		},
		{
			"children":[
				1
			],
			"name":"Cube.111",
			"rotation":[
				-0.70710688829422,
				0,
				0,
				0.7071066498756409
			],
			"scale":[
				100,
				99.99998474121094,
				99.99998474121094
			],
			"translation":[
				-77.36222076416016,
				59.999996185302734,
				0
			]
		},
		{
			"name":"Cube.112",
			"rotation":[
				-0.70710688829422,
				0,
				0,
				0.7071066498756409
			],
			"scale":[
				100,
				99.99998474121094,
				99.99998474121094
			],
			"translation":[
				-81.4231185913086,
				80.74195098876953,
				-144.36195373535156
			]
		},
		{
			"name":"Cube.113",
			"rotation":[
				0,
				-0.7071068286895752,
				-0.7071068286895752,
				1.3767878215276141e-07
			],
			"scale":[
				100.00004577636719,
				100.00003051757812,
				100.00003051757812
			],
			"translation":[
				-81.4231185913086,
				80.74195098876953,
				145.63803100585938
			]
		},
		{
			"name":"Cube.114",
			"rotation":[
				-0.70710688829422,
				0,
				0,
				0.7071066498756409
			],
			"scale":[
				100,
				99.99998474121094,
				99.99998474121094
			],
			"translation":[
				-81.4231185913086,
				80.74195098876953,
				-144.36195373535156
			]
		},
		{
			"name":"Cube.115",
			"rotation":[
				0,
				-0.7071068286895752,
				-0.7071068286895752,
				1.3767878215276141e-07
			],
			"scale":[
				100.00004577636719,
				100.00003051757812,
				100.00003051757812
			],
			"translation":[
				-81.4231185913086,
				80.74195098876953,
				145.63803100585938
			]
		},
		{
			"name":"Plane.033",
			"rotation":[
				-0.5,
				-0.5000000596046448,
				0.5,
				0.4999999403953552
			],
			"scale":[
				99.99999237060547,
				99.99999237060547,
				100
			],
			"translation":[
				-159.9999237060547,
				138.26980590820312,
				323.5509948730469
			]
		},
		{
			"name":"Plane.034",
			"rotation":[
				-0.5,
				-0.5000000596046448,
				0.5,
				0.4999999403953552
			],
			"scale":[
				99.99999237060547,
				99.99999237060547,
				100
			],
			"translation":[
				0,
				99.99999237060547,
				0
			]
		},
		{
			"name":"Plane.036",
			"rotation":[
				-0.5,
				-0.5000000596046448,
				0.5,
				0.4999999403953552
			],
			"scale":[
				99.99999237060547,
				99.99999237060547,
				100
			],
			"translation":[
				-159.9999237060547,
				138.26980590820312,
				323.5509948730469
			]
		},
		{
			"name":"Plane.037",
			"rotation":[
				-0.5,
				-0.5000000596046448,
				0.5,
				0.4999999403953552
			],
			"scale":[
				99.99999237060547,
				99.99999237060547,
				100
			],
			"translation":[
				0,
				99.99999237060547,
				0
			]
		},
		{
			"name":"Plane.038",
			"rotation":[
				-0.5,
				-0.5000000596046448,
				0.5,
				0.4999999403953552
			],
			"scale":[
				99.99999237060547,
				99.99999237060547,
				100
			],
			"translation":[
				-159.9999237060547,
				138.26980590820312,
				323.5509948730469
			]
		},
		{
			"children":[
				0,
				2,
				3,
				4,
				5,
				6,
				7,
				8,
				9,
				10,
				11
			],
			"name":"RootNode"
		},
		{
			"children":[
				12
			],
			"name":"Sofa.fbx",
			"rotation":[
				0.70710688829422,
				0,
				0,
				0.7071066498756409
			],
			"scale":[
				0.009999999776482582,
				0.009999999776482582,
				0.009999999776482582
			]
		},
		{
			"children":[
				13
			],
			"name":"Sketchfab_model",
			"rotation":[
				-0.70710688829422,
				0,
				0,
				0.7071066498756409
			]
		}
	],
	"materials":[
		{
			"doubleSided":true,
			"extensions":{
				"KHR_materials_specular":{
					"specularColorFactor":[
						1.0472440719604492,
						1.0472440719604492,
						1.0472440719604492
					]
				}
			},
			"name":"Material.121",
			"normalTexture":{
				"index":0,
				"scale":0.800000011920929
			},
			"occlusionTexture":{
				"index":1
			},
			"pbrMetallicRoughness":{
				"baseColorTexture":{
					"index":2
				},
				"metallicFactor":0.625984251499176,
				"roughnessFactor":0.5866141319274902
			}
		}
	],
	"meshes":[
		{
			"name":"Cube.111_Material.004_0.003",
			"primitives":[
				{
					"attributes":{
						"POSITION":0,
						"NORMAL":1,
						"TEXCOORD_0":2,
						"TEXCOORD_1":3,
						"TEXCOORD_2":4
					},
					"indices":5,
					"material":0
				}
			]
		}
	],
	"textures":[
		{
			"sampler":0,
			"source":0
		},
		{
			"sampler":0,
			"source":1
		},
		{
			"sampler":0,
			"source":2
		}
	],
	"images":[
		{
			"mimeType":"image/png",
			"name":"Image_2",
			"uri":"Image_2.png"
		},
		{
			"mimeType":"image/png",
			"name":"Image_1",
			"uri":"Image_1.png"
		},
		{
			"mimeType":"image/png",
			"name":"Image_0",
			"uri":"Image_0.png"
		}
	],
	"accessors":[
		{
			"bufferView":0,
			"componentType":5126,
			"count":4806,
			"max":[
				1.5680010318756104,
				3.676011085510254,
				1.520141363143921
			],
			"min":[
				-0.9251499772071838,
				-3.6610188484191895,
				-0.6058278679847717
			],
			"type":"VEC3"
		},
		{
			"bufferView":1,
			"componentType":5126,
			"count":4806,
			"type":"VEC3"
		},
		{
			"bufferView":2,
			"componentType":5126,
			"count":4806,
			"type":"VEC2"
		},
		{
			"bufferView":3,
			"componentType":5126,
			"count":4806,
			"type":"VEC2"
		},
		{
			"bufferView":4,
			"componentType":5126,
			"count":4806,
			"type":"VEC2"
		},
		{
			"bufferView":5,
			"componentType":5123,
			"count":17439,
			"type":"SCALAR"
		}
	],
	"bufferViews":[
		{
			"buffer":0,
			"byteLength":57672,
			"byteOffset":0,
			"target":34962
		},
		{
			"buffer":0,
			"byteLength":57672,
			"byteOffset":57672,
			"target":34962
		},
		{
			"buffer":0,
			"byteLength":38448,
			"byteOffset":115344,
			"target":34962
		},
		{
			"buffer":0,
			"byteLength":38448,
			"byteOffset":153792,
			"target":34962
		},
		{
			"buffer":0,
			"byteLength":38448,
			"byteOffset":192240,
			"target":34962
		},
		{
			"buffer":0,
			"byteLength":34878,
			"byteOffset":230688,
			"target":34963
		}
	],
	"samplers":[
		{
			"magFilter":9729,
			"minFilter":9987
		}
	],
	"buffers":[
		{
			"byteLength":265568,
			"uri":"vintage_leather_sofa.bin"
		}
	]
}
