{
    "asset" : {
        "generator" : "Khronos glTF Blender I/O v3.4.50",
        "version" : "2.0"
    },
    "scene" : 0,
    "scenes" : [
        {
            "name" : "Scene",
            "nodes" : [
                4
            ]
        }
    ],
    "nodes" : [
        {
            "mesh" : 0,
            "name" : "speaker_01__0"
        },
        {
            "children" : [
                0
            ],
            "name" : "speaker_01",
            "rotation" : [
                -0.70710688829422,
                0,
                0,
                0.7071066498756409
            ],
            "scale" : [
                100,
                99.99999237060547,
                99.99999237060547
            ]
        },
        {
            "children" : [
                1
            ],
            "name" : "RootNode"
        },
        {
            "children" : [
                2
            ],
            "name" : "6102b7d96a8f4cb09c271b666b87eb40.fbx",
            "rotation" : [
                0.70710688829422,
                0,
                0,
                0.7071066498756409
            ],
            "scale" : [
                0.009999999776482582,
                0.010000000707805157,
                0.010000000707805157
            ]
        },
        {
            "children" : [
                3
            ],
            "name" : "Sketchfab_model",
            "rotation" : [
                -0.70710688829422,
                0,
                0,
                0.7071066498756409
            ]
        }
    ],
    "materials" : [
        {
            "doubleSided" : true,
            "name" : "Scene_-_Root",
            "normalTexture" : {
                "index" : 0
            },
            "occlusionTexture" : {
                "index" : 1
            },
            "pbrMetallicRoughness" : {
                "baseColorTexture" : {
                    "index" : 2
                },
                "metallicRoughnessTexture" : {
                    "index" : 1
                }
            }
        }
    ],
    "meshes" : [
        {
            "name" : "speaker_01__0",
            "primitives" : [
                {
                    "attributes" : {
                        "POSITION" : 0,
                        "TEXCOORD_0" : 1,
                        "NORMAL" : 2
                    },
                    "indices" : 3,
                    "material" : 0
                }
            ]
        }
    ],
    "textures" : [
        {
            "sampler" : 0,
            "source" : 0
        },
        {
            "sampler" : 0,
            "source" : 1
        },
        {
            "sampler" : 0,
            "source" : 2
        }
    ],
    "images" : [
        {
            "mimeType" : "image/png",
            "name" : "Scene_-_Root_normal",
            "uri" : "textures/Scene_-_Root_normal.png"
        },
        {
            "mimeType" : "image/png",
            "name" : "Scene_-_Root_metallicRoughness",
            "uri" : "textures/Scene_-_Root_metallicRoughness.png"
        },
        {
            "mimeType" : "image/jpeg",
            "name" : "Scene_-_Root_baseColor",
            "uri" : "textures/Scene_-_Root_baseColor.jpg"
        }
    ],
    "accessors" : [
        {
            "bufferView" : 0,
            "componentType" : 5126,
            "count" : 3616,
            "max" : [
                0.04999997839331627,
                0.06470000743865967,
                0.1810000091791153
            ],
            "min" : [
                -0.04999997839331627,
                -0.06399999558925629,
                0
            ],
            "type" : "VEC3"
        },
        {
            "bufferView" : 1,
            "componentType" : 5126,
            "count" : 3616,
            "type" : "VEC2"
        },
        {
            "bufferView" : 2,
            "componentType" : 5126,
            "count" : 3616,
            "type" : "VEC3"
        },
        {
            "bufferView" : 3,
            "componentType" : 5123,
            "count" : 8400,
            "type" : "SCALAR"
        }
    ],
    "bufferViews" : [
        {
            "buffer" : 0,
            "byteLength" : 43392,
            "byteOffset" : 0,
            "target" : 34962
        },
        {
            "buffer" : 0,
            "byteLength" : 28928,
            "byteOffset" : 43392,
            "target" : 34962
        },
        {
            "buffer" : 0,
            "byteLength" : 43392,
            "byteOffset" : 72320,
            "target" : 34962
        },
        {
            "buffer" : 0,
            "byteLength" : 16800,
            "byteOffset" : 115712,
            "target" : 34963
        }
    ],
    "samplers" : [
        {
            "magFilter" : 9729,
            "minFilter" : 9987
        }
    ],
    "buffers" : [
        {
            "byteLength" : 132512,
            "uri" : "mdl_paprika_speaker.bin"
        }
    ]
}
