{
  "accessors": [
    {
      "bufferView": 2,
      "componentType": 5126,
      "count": 2238,
      "max": [
        7.235849380493164,
        2.297609806060791,
        3.2667245864868164
      ],
      "min": [
        -7.1235151290893555,
        -2.1459474563598633,
        -6.626369476318359
      ],
      "type": "VEC3"
    },
    {
      "bufferView": 2,
      "byteOffset": 26856,
      "componentType": 5126,
      "count": 2238,
      "max": [
        1.0,
        1.0,
        1.0
      ],
      "min": [
        -1.0,
        -1.0,
        -1.0
      ],
      "type": "VEC3"
    },
    {
      "bufferView": 1,
      "componentType": 5126,
      "count": 2238,
      "max": [
        0.9906808733940125,
        0.9860634207725525
      ],
      "min": [
        0.02377406693994999,
        0.018708713352680206
      ],
      "type": "VEC2"
    },
    {
      "bufferView": 0,
      "componentType": 5125,
      "count": 2796,
      "type": "SCALAR"
    },
    {
      "bufferView": 2,
      "byteOffset": 53712,
      "componentType": 5126,
      "count": 13,
      "max": [
        5.990348815917969,
        -0.0244978666305542,
        -0.16092698276042938
      ],
      "min": [
        -6.004864692687988,
        -0.02449798583984375,
        -0.9734857082366943
      ],
      "type": "VEC3"
    },
    {
      "bufferView": 2,
      "byteOffset": 53868,
      "componentType": 5126,
      "count": 13,
      "max": [
        3.859158681507324e-08,
        -1.0,
        0.0
      ],
      "min": [
        -3.859159747321428e-08,
        -1.0,
        0.0
      ],
      "type": "VEC3"
    },
    {
      "bufferView": 1,
      "byteOffset": 17904,
      "componentType": 5126,
      "count": 13,
      "max": [
        0.980575680732727,
        0.09846196323633194
      ],
      "min": [
        0.23837508261203766,
        0.009653883054852486
      ],
      "type": "VEC2"
    },
    {
      "bufferView": 1,
      "byteOffset": 18008,
      "componentType": 5126,
      "count": 13,
      "max": [
        0.980575680732727,
        0.09846196323633194
      ],
      "min": [
        0.23837508261203766,
        0.009653883054852486
      ],
      "type": "VEC2"
    },
    {
      "bufferView": 0,
      "byteOffset": 11184,
      "componentType": 5125,
      "count": 18,
      "type": "SCALAR"
    }
  ],
  "asset": {
    "extras": {
      "author": "tw.sharon.0714 (https://sketchfab.com/tw.sharon.0714)",
      "license": "CC-BY-4.0 (http://creativecommons.org/licenses/by/4.0/)",
      "source": "https://sketchfab.com/3d-models/chinese-architecture-2287628ce8554d919ab97014ffc1d049",
      "title": "Chinese Architecture"
    },
    "generator": "Sketchfab-12.67.0",
    "version": "2.0"
  },
  "bufferViews": [
    {
      "buffer": 0,
      "byteLength": 11256,
      "name": "floatBufferViews",
      "target": 34963
    },
    {
      "buffer": 0,
      "byteLength": 18112,
      "byteOffset": 11256,
      "byteStride": 8,
      "name": "floatBufferViews",
      "target": 34962
    },
    {
      "buffer": 0,
      "byteLength": 54024,
      "byteOffset": 29368,
      "byteStride": 12,
      "name": "floatBufferViews",
      "target": 34962
    }
  ],
  "buffers": [
    {
      "byteLength": 83392,
      "uri": "scene.bin"
    }
  ],
  "images": [
    {
      "uri": "textures/Material_25_baseColor.png"
    },
    {
      "uri": "textures/Material_37_baseColor.png"
    }
  ],
  "materials": [
    {
      "doubleSided": true,
      "name": "Material_25",
      "pbrMetallicRoughness": {
        "baseColorTexture": {
          "index": 0
        },
        "metallicFactor": 0.0,
        "roughnessFactor": 0.6
      }
    },
    {
      "alphaMode": "BLEND",
      "doubleSided": true,
      "name": "Material_37",
      "pbrMetallicRoughness": {
        "baseColorTexture": {
          "index": 1
        },
        "metallicFactor": 0.0,
        "roughnessFactor": 0.6
      }
    }
  ],
  "meshes": [
    {
      "name": "Object097_Material #25_0",
      "primitives": [
        {
          "attributes": {
            "NORMAL": 1,
            "POSITION": 0,
            "TEXCOORD_0": 2
          },
          "indices": 3,
          "material": 0,
          "mode": 4
        }
      ]
    },
    {
      "name": "Object097_Material #37_0",
      "primitives": [
        {
          "attributes": {
            "NORMAL": 5,
            "POSITION": 4,
            "TEXCOORD_0": 6,
            "TEXCOORD_1": 7
          },
          "indices": 8,
          "material": 1,
          "mode": 4
        }
      ]
    }
  ],
  "nodes": [
    {
      "children": [
        1
      ],
      "matrix": [
        1.0,
        0.0,
        0.0,
        0.0,
        0.0,
        2.220446049250313e-16,
        -1.0,
        0.0,
        0.0,
        1.0,
        2.220446049250313e-16,
        0.0,
        0.0,
        0.0,
        0.0,
        1.0
      ],
      "name": "Sketchfab_model"
    },
    {
      "children": [
        2
      ],
      "matrix": [
        1.0,
        0.0,
        0.0,
        0.0,
        0.0,
        0.0,
        1.0,
        0.0,
        0.0,
        -1.0,
        0.0,
        0.0,
        0.0,
        0.0,
        0.0,
        1.0
      ],
      "name": "8660614b18ce4f4289c5d9e36a17904f.fbx"
    },
    {
      "children": [
        3
      ],
      "name": "Object_2"
    },
    {
      "children": [
        4
      ],
      "name": "RootNode"
    },
    {
      "children": [
        5,
        6
      ],
      "name": "Object097",
      "rotation": [
        -0.7071068286895752,
        -0.0,
        0.0,
        0.7071068286895752
      ],
      "scale": [
        100.0,
        100.0,
        100.0
      ],
      "translation": [
        -5484.99072265625,
        745.9095458984375,
        3371.498046875
      ]
    },
    {
      "mesh": 0,
      "name": "Object097_Material #25_0"
    },
    {
      "mesh": 1,
      "name": "Object097_Material #37_0"
    }
  ],
  "samplers": [
    {
      "magFilter": 9729,
      "minFilter": 9987,
      "wrapS": 10497,
      "wrapT": 10497
    }
  ],
  "scene": 0,
  "scenes": [
    {
      "name": "Sketchfab_Scene",
      "nodes": [
        0
      ]
    }
  ],
  "textures": [
    {
      "sampler": 0,
      "source": 0
    },
    {
      "sampler": 0,
      "source": 1
    }
  ]
}
