{
	"asset":{
		"generator":"Khronos glTF Blender I/O v4.2.57",
		"version":"2.0"
	},
	"extensionsUsed":[
		"KHR_materials_specular",
		"KHR_materials_ior"
	],
	"scene":0,
	"scenes":[
		{
			"name":"Scene",
			"nodes":[
				5
			]
		}
	],
	"nodes":[
		{
			"mesh":0,
			"name":"SM_mask_Material #126_0",
			"translation":[
				5.722047262679553e-06,
				0,
				4.7683656703156885e-06
			]
		},
		{
			"children":[
				0
			],
			"name":"Object_4",
			"translation":[
				91.96944427490234,
				267.2550048828125,
				33.12549591064453
			]
		},
		{
			"children":[
				1
			],
			"name":"SM_mask",
			"rotation":[
				0,
				0.13052625954151154,
				0,
				0.9914448857307434
			],
			"translation":[
				15.951416969299316,
				0,
				-40.978031158447266
			]
		},
		{
			"children":[
				2
			],
			"name":"RootNode"
		},
		{
			"children":[
				3
			],
			"name":"913c049ce45743f4b3228885146ace80.fbx",
			"rotation":[
				0.70710688829422,
				0,
				0,
				0.7071066498756409
			],
			"scale":[
				0.009999999776482582,
				0.009999996051192284,
				0.009999996051192284
			]
		},
		{
			"children":[
				4
			],
			"name":"Sketchfab_model",
			"rotation":[
				-0.70710688829422,
				0,
				0,
				0.7071066498756409
			]
		}
	],
	"materials":[
		{
			"doubleSided":true,
			"name":"Material.043",
			"pbrMetallicRoughness":{
				"baseColorFactor":[
					0.0008788372506387532,
					0.0008788372506387532,
					0.0008788372506387532,
					1
				],
				"metallicFactor":0,
				"roughnessFactor":0.5
			}
		},
		{
			"doubleSided":true,
			"extensions":{
				"KHR_materials_specular":{
					"specularFactor":0.8213358521461487
				},
				"KHR_materials_ior":{
					"ior":1
				}
			},
			"name":"Material_126.012",
			"pbrMetallicRoughness":{
				"baseColorTexture":{
					"index":0
				},
				"metallicFactor":0,
				"roughnessFactor":0.5409090518951416
			}
		},
		{
			"doubleSided":true,
			"extensions":{
				"KHR_materials_specular":{
					"specularFactor":0.8213358521461487
				},
				"KHR_materials_ior":{
					"ior":1
				}
			},
			"name":"Material_126.013",
			"pbrMetallicRoughness":{
				"baseColorTexture":{
					"index":1
				},
				"metallicFactor":0,
				"roughnessFactor":0.5409090518951416
			}
		},
		{
			"doubleSided":true,
			"extensions":{
				"KHR_materials_specular":{
					"specularFactor":0.8213358521461487
				},
				"KHR_materials_ior":{
					"ior":1
				}
			},
			"name":"Material.044",
			"pbrMetallicRoughness":{
				"baseColorTexture":{
					"index":2
				},
				"metallicFactor":0,
				"roughnessFactor":0.5409090518951416
			}
		},
		{
			"doubleSided":true,
			"name":"Material.045",
			"normalTexture":{
				"index":3
			},
			"pbrMetallicRoughness":{
				"baseColorTexture":{
					"index":4
				},
				"metallicFactor":0,
				"roughnessFactor":0.5
			}
		},
		{
			"doubleSided":true,
			"name":"Material.046",
			"pbrMetallicRoughness":{
				"baseColorFactor":[
					0.800000011920929,
					0.800000011920929,
					0.800000011920929,
					1
				],
				"metallicFactor":0,
				"roughnessFactor":0.5
			}
		},
		{
			"doubleSided":true,
			"name":"Material.047",
			"normalTexture":{
				"index":5
			},
			"pbrMetallicRoughness":{
				"baseColorTexture":{
					"index":6
				},
				"metallicFactor":0,
				"roughnessFactor":0.9181817770004272
			}
		},
		{
			"doubleSided":true,
			"name":"Material.048",
			"normalTexture":{
				"index":7
			},
			"pbrMetallicRoughness":{
				"baseColorTexture":{
					"index":8
				},
				"metallicFactor":0,
				"roughnessFactor":0.5
			}
		},
		{
			"doubleSided":true,
			"extensions":{
				"KHR_materials_specular":{
					"specularFactor":0.8213358521461487
				},
				"KHR_materials_ior":{
					"ior":1
				}
			},
			"name":"Material.049",
			"pbrMetallicRoughness":{
				"baseColorTexture":{
					"index":9
				},
				"metallicFactor":0,
				"roughnessFactor":0.5409090518951416
			}
		}
	],
	"meshes":[
		{
			"name":"SM_mask_Material #126_0.3186",
			"primitives":[
				{
					"attributes":{
						"POSITION":0,
						"NORMAL":1,
						"TEXCOORD_0":2,
						"TEXCOORD_1":3
					},
					"indices":4,
					"material":0
				},
				{
					"attributes":{
						"POSITION":5,
						"NORMAL":6,
						"TEXCOORD_0":7,
						"TEXCOORD_1":8
					},
					"indices":9,
					"material":1
				},
				{
					"attributes":{
						"POSITION":10,
						"NORMAL":11,
						"TEXCOORD_0":12,
						"TEXCOORD_1":13
					},
					"indices":14,
					"material":2
				},
				{
					"attributes":{
						"POSITION":15,
						"NORMAL":16,
						"TEXCOORD_0":17,
						"TEXCOORD_1":18
					},
					"indices":19,
					"material":3
				},
				{
					"attributes":{
						"POSITION":20,
						"NORMAL":21,
						"TEXCOORD_0":22,
						"TEXCOORD_1":23
					},
					"indices":24,
					"material":4
				},
				{
					"attributes":{
						"POSITION":25,
						"NORMAL":26,
						"TEXCOORD_0":27,
						"TEXCOORD_1":28
					},
					"indices":29,
					"material":5
				},
				{
					"attributes":{
						"POSITION":30,
						"NORMAL":31,
						"TEXCOORD_0":32,
						"TEXCOORD_1":33
					},
					"indices":34,
					"material":6
				},
				{
					"attributes":{
						"POSITION":35,
						"NORMAL":36,
						"TEXCOORD_0":37,
						"TEXCOORD_1":38
					},
					"indices":39,
					"material":7
				},
				{
					"attributes":{
						"POSITION":40,
						"NORMAL":41,
						"TEXCOORD_0":42,
						"TEXCOORD_1":43
					},
					"indices":44,
					"material":8
				}
			]
		}
	],
	"textures":[
		{
			"sampler":0,
			"source":0
		},
		{
			"sampler":0,
			"source":1
		},
		{
			"sampler":0,
			"source":2
		},
		{
			"sampler":0,
			"source":3
		},
		{
			"sampler":0,
			"source":4
		},
		{
			"sampler":0,
			"source":3
		},
		{
			"sampler":0,
			"source":5
		},
		{
			"sampler":0,
			"source":3
		},
		{
			"sampler":0,
			"source":6
		},
		{
			"sampler":0,
			"source":7
		}
	],
	"images":[
		{
			"mimeType":"image/png",
			"name":"tx_brush_maskwood_png",
			"uri":"tx_brush_maskwood_png.png"
		},
		{
			"mimeType":"image/png",
			"name":"tx_brush_roundplate",
			"uri":"tx_brush_roundplate.png"
		},
		{
			"mimeType":"image/png",
			"name":"tx_brush_roundband",
			"uri":"tx_brush_roundband.png"
		},
		{
			"mimeType":"image/png",
			"name":"tx_brush_maskwoodnormal",
			"uri":"tx_brush_maskwoodnormal.png"
		},
		{
			"mimeType":"image/png",
			"name":"tx_brush_solidblack",
			"uri":"tx_brush_solidblack.png"
		},
		{
			"mimeType":"image/png",
			"name":"tx_yellow",
			"uri":"tx_yellow.png"
		},
		{
			"mimeType":"image/png",
			"name":"tx_limegreen",
			"uri":"tx_limegreen.png"
		},
		{
			"mimeType":"image/png",
			"name":"tx_brush_roundcrown",
			"uri":"tx_brush_roundcrown.png"
		}
	],
	"accessors":[
		{
			"bufferView":0,
			"componentType":5126,
			"count":154,
			"max":[
				85.12532806396484,
				271.5703125,
				58.01107406616211
			],
			"min":[
				-287.34295654296875,
				-195.15045166015625,
				-64.3603286743164
			],
			"type":"VEC3"
		},
		{
			"bufferView":1,
			"componentType":5126,
			"count":154,
			"type":"VEC3"
		},
		{
			"bufferView":2,
			"componentType":5126,
			"count":154,
			"type":"VEC2"
		},
		{
			"bufferView":3,
			"componentType":5126,
			"count":154,
			"type":"VEC2"
		},
		{
			"bufferView":4,
			"componentType":5123,
			"count":564,
			"type":"SCALAR"
		},
		{
			"bufferView":5,
			"componentType":5126,
			"count":3350,
			"max":[
				140.5770263671875,
				423.693603515625,
				58.015445709228516
			],
			"min":[
				-323.36602783203125,
				-267.25482177734375,
				-113.47264862060547
			],
			"type":"VEC3"
		},
		{
			"bufferView":6,
			"componentType":5126,
			"count":3350,
			"type":"VEC3"
		},
		{
			"bufferView":7,
			"componentType":5126,
			"count":3350,
			"type":"VEC2"
		},
		{
			"bufferView":8,
			"componentType":5126,
			"count":3350,
			"type":"VEC2"
		},
		{
			"bufferView":9,
			"componentType":5123,
			"count":8202,
			"type":"SCALAR"
		},
		{
			"bufferView":10,
			"componentType":5126,
			"count":71,
			"max":[
				94.77672576904297,
				345.7028503417969,
				55.124847412109375
			],
			"min":[
				-293.51715087890625,
				167.1175079345703,
				-52.175804138183594
			],
			"type":"VEC3"
		},
		{
			"bufferView":11,
			"componentType":5126,
			"count":71,
			"type":"VEC3"
		},
		{
			"bufferView":12,
			"componentType":5126,
			"count":71,
			"type":"VEC2"
		},
		{
			"bufferView":13,
			"componentType":5126,
			"count":71,
			"type":"VEC2"
		},
		{
			"bufferView":14,
			"componentType":5123,
			"count":240,
			"type":"SCALAR"
		},
		{
			"bufferView":15,
			"componentType":5126,
			"count":28,
			"max":[
				-32.94190979003906,
				272.1423034667969,
				49.112953186035156
			],
			"min":[
				-182.71368408203125,
				154.60989379882812,
				11.520318031311035
			],
			"type":"VEC3"
		},
		{
			"bufferView":16,
			"componentType":5126,
			"count":28,
			"type":"VEC3"
		},
		{
			"bufferView":17,
			"componentType":5126,
			"count":28,
			"type":"VEC2"
		},
		{
			"bufferView":18,
			"componentType":5126,
			"count":28,
			"type":"VEC2"
		},
		{
			"bufferView":19,
			"componentType":5123,
			"count":72,
			"type":"SCALAR"
		},
		{
			"bufferView":20,
			"componentType":5126,
			"count":178,
			"max":[
				83.84480285644531,
				130.36192321777344,
				31.05274200439453
			],
			"min":[
				-268.0336608886719,
				22.67296028137207,
				-92.171875
			],
			"type":"VEC3"
		},
		{
			"bufferView":21,
			"componentType":5126,
			"count":178,
			"type":"VEC3"
		},
		{
			"bufferView":22,
			"componentType":5126,
			"count":178,
			"type":"VEC2"
		},
		{
			"bufferView":23,
			"componentType":5126,
			"count":178,
			"type":"VEC2"
		},
		{
			"bufferView":24,
			"componentType":5123,
			"count":462,
			"type":"SCALAR"
		},
		{
			"bufferView":25,
			"componentType":5126,
			"count":33,
			"max":[
				-98.04232788085938,
				174.59698486328125,
				53.488548278808594
			],
			"min":[
				-119.20020294189453,
				-82.10237884521484,
				5.571272850036621
			],
			"type":"VEC3"
		},
		{
			"bufferView":26,
			"componentType":5126,
			"count":33,
			"type":"VEC3"
		},
		{
			"bufferView":27,
			"componentType":5126,
			"count":33,
			"type":"VEC2"
		},
		{
			"bufferView":28,
			"componentType":5126,
			"count":33,
			"type":"VEC2"
		},
		{
			"bufferView":29,
			"componentType":5123,
			"count":108,
			"type":"SCALAR"
		},
		{
			"bufferView":30,
			"componentType":5126,
			"count":134,
			"max":[
				140.5770263671875,
				422.0051574707031,
				47.87356185913086
			],
			"min":[
				-323.36602783203125,
				-178.64073181152344,
				-93.6407470703125
			],
			"type":"VEC3"
		},
		{
			"bufferView":31,
			"componentType":5126,
			"count":134,
			"type":"VEC3"
		},
		{
			"bufferView":32,
			"componentType":5126,
			"count":134,
			"type":"VEC2"
		},
		{
			"bufferView":33,
			"componentType":5126,
			"count":134,
			"type":"VEC2"
		},
		{
			"bufferView":34,
			"componentType":5123,
			"count":372,
			"type":"SCALAR"
		},
		{
			"bufferView":35,
			"componentType":5126,
			"count":40,
			"max":[
				79.84843444824219,
				35.14613723754883,
				21.8841552734375
			],
			"min":[
				-255.2581787109375,
				-59.39439010620117,
				-92.171875
			],
			"type":"VEC3"
		},
		{
			"bufferView":36,
			"componentType":5126,
			"count":40,
			"type":"VEC3"
		},
		{
			"bufferView":37,
			"componentType":5126,
			"count":40,
			"type":"VEC2"
		},
		{
			"bufferView":38,
			"componentType":5126,
			"count":40,
			"type":"VEC2"
		},
		{
			"bufferView":39,
			"componentType":5123,
			"count":108,
			"type":"SCALAR"
		},
		{
			"bufferView":40,
			"componentType":5126,
			"count":66,
			"max":[
				136.99850463867188,
				423.69354248046875,
				40.57932662963867
			],
			"min":[
				-318.2830505371094,
				187.35275268554688,
				-95.55062866210938
			],
			"type":"VEC3"
		},
		{
			"bufferView":41,
			"componentType":5126,
			"count":66,
			"type":"VEC3"
		},
		{
			"bufferView":42,
			"componentType":5126,
			"count":66,
			"type":"VEC2"
		},
		{
			"bufferView":43,
			"componentType":5126,
			"count":66,
			"type":"VEC2"
		},
		{
			"bufferView":44,
			"componentType":5123,
			"count":132,
			"type":"SCALAR"
		}
	],
	"bufferViews":[
		{
			"buffer":0,
			"byteLength":1848,
			"byteOffset":0,
			"target":34962
		},
		{
			"buffer":0,
			"byteLength":1848,
			"byteOffset":1848,
			"target":34962
		},
		{
			"buffer":0,
			"byteLength":1232,
			"byteOffset":3696,
			"target":34962
		},
		{
			"buffer":0,
			"byteLength":1232,
			"byteOffset":4928,
			"target":34962
		},
		{
			"buffer":0,
			"byteLength":1128,
			"byteOffset":6160,
			"target":34963
		},
		{
			"buffer":0,
			"byteLength":40200,
			"byteOffset":7288,
			"target":34962
		},
		{
			"buffer":0,
			"byteLength":40200,
			"byteOffset":47488,
			"target":34962
		},
		{
			"buffer":0,
			"byteLength":26800,
			"byteOffset":87688,
			"target":34962
		},
		{
			"buffer":0,
			"byteLength":26800,
			"byteOffset":114488,
			"target":34962
		},
		{
			"buffer":0,
			"byteLength":16404,
			"byteOffset":141288,
			"target":34963
		},
		{
			"buffer":0,
			"byteLength":852,
			"byteOffset":157692,
			"target":34962
		},
		{
			"buffer":0,
			"byteLength":852,
			"byteOffset":158544,
			"target":34962
		},
		{
			"buffer":0,
			"byteLength":568,
			"byteOffset":159396,
			"target":34962
		},
		{
			"buffer":0,
			"byteLength":568,
			"byteOffset":159964,
			"target":34962
		},
		{
			"buffer":0,
			"byteLength":480,
			"byteOffset":160532,
			"target":34963
		},
		{
			"buffer":0,
			"byteLength":336,
			"byteOffset":161012,
			"target":34962
		},
		{
			"buffer":0,
			"byteLength":336,
			"byteOffset":161348,
			"target":34962
		},
		{
			"buffer":0,
			"byteLength":224,
			"byteOffset":161684,
			"target":34962
		},
		{
			"buffer":0,
			"byteLength":224,
			"byteOffset":161908,
			"target":34962
		},
		{
			"buffer":0,
			"byteLength":144,
			"byteOffset":162132,
			"target":34963
		},
		{
			"buffer":0,
			"byteLength":2136,
			"byteOffset":162276,
			"target":34962
		},
		{
			"buffer":0,
			"byteLength":2136,
			"byteOffset":164412,
			"target":34962
		},
		{
			"buffer":0,
			"byteLength":1424,
			"byteOffset":166548,
			"target":34962
		},
		{
			"buffer":0,
			"byteLength":1424,
			"byteOffset":167972,
			"target":34962
		},
		{
			"buffer":0,
			"byteLength":924,
			"byteOffset":169396,
			"target":34963
		},
		{
			"buffer":0,
			"byteLength":396,
			"byteOffset":170320,
			"target":34962
		},
		{
			"buffer":0,
			"byteLength":396,
			"byteOffset":170716,
			"target":34962
		},
		{
			"buffer":0,
			"byteLength":264,
			"byteOffset":171112,
			"target":34962
		},
		{
			"buffer":0,
			"byteLength":264,
			"byteOffset":171376,
			"target":34962
		},
		{
			"buffer":0,
			"byteLength":216,
			"byteOffset":171640,
			"target":34963
		},
		{
			"buffer":0,
			"byteLength":1608,
			"byteOffset":171856,
			"target":34962
		},
		{
			"buffer":0,
			"byteLength":1608,
			"byteOffset":173464,
			"target":34962
		},
		{
			"buffer":0,
			"byteLength":1072,
			"byteOffset":175072,
			"target":34962
		},
		{
			"buffer":0,
			"byteLength":1072,
			"byteOffset":176144,
			"target":34962
		},
		{
			"buffer":0,
			"byteLength":744,
			"byteOffset":177216,
			"target":34963
		},
		{
			"buffer":0,
			"byteLength":480,
			"byteOffset":177960,
			"target":34962
		},
		{
			"buffer":0,
			"byteLength":480,
			"byteOffset":178440,
			"target":34962
		},
		{
			"buffer":0,
			"byteLength":320,
			"byteOffset":178920,
			"target":34962
		},
		{
			"buffer":0,
			"byteLength":320,
			"byteOffset":179240,
			"target":34962
		},
		{
			"buffer":0,
			"byteLength":216,
			"byteOffset":179560,
			"target":34963
		},
		{
			"buffer":0,
			"byteLength":792,
			"byteOffset":179776,
			"target":34962
		},
		{
			"buffer":0,
			"byteLength":792,
			"byteOffset":180568,
			"target":34962
		},
		{
			"buffer":0,
			"byteLength":528,
			"byteOffset":181360,
			"target":34962
		},
		{
			"buffer":0,
			"byteLength":528,
			"byteOffset":181888,
			"target":34962
		},
		{
			"buffer":0,
			"byteLength":264,
			"byteOffset":182416,
			"target":34963
		}
	],
	"samplers":[
		{
			"magFilter":9729,
			"minFilter":9987
		}
	],
	"buffers":[
		{
			"byteLength":182680,
			"uri":"mdl_brush_mask1.bin"
		}
	]
}
