{
	"asset":{
		"generator":"Khronos glTF Blender I/O v3.6.27",
		"version":"2.0"
	},
	"scene":0,
	"scenes":[
		{
			"name":"Scene",
			"nodes":[
				0
			]
		}
	],
	"nodes":[
		{
			"mesh":0,
			"name":"Cube.017",
			"scale":[
				0.023805955424904823,
				0.2691163122653961,
				0.017028596252202988
			],
			"translation":[
				-1.8211760520935059,
				3.5299618244171143,
				7.447447776794434
			]
		}
	],
	"materials":[
		{
			"doubleSided":true,
			"name":"metal.001",
			"pbrMetallicRoughness":{
				"baseColorFactor":[
					0.8003076910972595,
					0.4356294870376587,
					0.18434640765190125,
					1
				],
				"metallicFactor":0.874015748500824,
				"roughnessFactor":0.10629919916391373
			}
		}
	],
	"meshes":[
		{
			"name":"Cube.043",
			"primitives":[
				{
					"attributes":{
						"POSITION":0,
						"NORMAL":1,
						"TEXCOORD_0":2
					},
					"indices":3,
					"material":0
				}
			]
		}
	],
	"accessors":[
		{
			"bufferView":0,
			"componentType":5126,
			"count":880,
			"max":[
				1,
				1.3023297786712646,
				1
			],
			"min":[
				-50.999996185302734,
				-1,
				-1
			],
			"type":"VEC3"
		},
		{
			"bufferView":1,
			"componentType":5126,
			"count":880,
			"type":"VEC3"
		},
		{
			"bufferView":2,
			"componentType":5126,
			"count":880,
			"type":"VEC2"
		},
		{
			"bufferView":3,
			"componentType":5123,
			"count":1452,
			"type":"SCALAR"
		}
	],
	"bufferViews":[
		{
			"buffer":0,
			"byteLength":10560,
			"byteOffset":0,
			"target":34962
		},
		{
			"buffer":0,
			"byteLength":10560,
			"byteOffset":10560,
			"target":34962
		},
		{
			"buffer":0,
			"byteLength":7040,
			"byteOffset":21120,
			"target":34962
		},
		{
			"buffer":0,
			"byteLength":2904,
			"byteOffset":28160,
			"target":34963
		}
	],
	"buffers":[
		{
			"byteLength":31064,
			"uri":"mdl_franch_cliffside_gate_condor.bin"
		}
	]
}
