{
	"asset":{
		"generator":"Khronos glTF Blender I/O v4.3.47",
		"version":"2.0"
	},
	"extensionsUsed":[
		"KHR_materials_specular"
	],
	"scene":0,
	"scenes":[
		{
			"name":"Scene",
			"nodes":[
				12
			]
		}
	],
	"nodes":[
		{
			"mesh":0,
			"name":"TokenFace0",
			"rotation":[
				-0.4999999403953552,
				-0.4999999403953552,
				0.5000000596046448,
				0.5000001788139343
			]
		},
		{
			"mesh":1,
			"name":"TokenFace1",
			"rotation":[
				-0.4999999403953552,
				-0.4999999403953552,
				0.5000000596046448,
				0.5000001788139343
			]
		},
		{
			"mesh":2,
			"name":"TokenFace2",
			"rotation":[
				-0.4999999403953552,
				-0.4999999403953552,
				0.5000000596046448,
				0.5000001788139343
			]
		},
		{
			"mesh":3,
			"name":"TokenFace3",
			"rotation":[
				-0.4999999403953552,
				-0.4999999403953552,
				0.5000000596046448,
				0.5000001788139343
			]
		},
		{
			"mesh":4,
			"name":"TokenFace4",
			"rotation":[
				-0.4999999403953552,
				-0.4999999403953552,
				0.5000000596046448,
				0.5000001788139343
			]
		},
		{
			"mesh":5,
			"name":"TokenFace5",
			"rotation":[
				-0.4999999403953552,
				-0.4999999403953552,
				0.5000000596046448,
				0.5000001788139343
			]
		},
		{
			"mesh":6,
			"name":"TokenFace6",
			"rotation":[
				-0.4999999403953552,
				-0.4999999403953552,
				0.5000000596046448,
				0.5000001788139343
			]
		},
		{
			"mesh":7,
			"name":"TokenFace7",
			"rotation":[
				-0.4999999403953552,
				-0.4999999403953552,
				0.5000000596046448,
				0.5000001788139343
			]
		},
		{
			"mesh":8,
			"name":"TokenFace8",
			"rotation":[
				-0.4999999403953552,
				-0.4999999403953552,
				0.5000000596046448,
				0.5000001788139343
			]
		},
		{
			"mesh":9,
			"name":"TokenFace9",
			"rotation":[
				-0.4999999403953552,
				-0.4999999403953552,
				0.5000000596046448,
				0.5000001788139343
			]
		},
		{
			"children":[
				0,
				1,
				2,
				3,
				4,
				5,
				6,
				7,
				8,
				9
			],
			"name":"Faces"
		},
		{
			"mesh":10,
			"name":"PressedToken#boxcollider",
			"rotation":[
				-0.4999999403953552,
				-0.4999999403953552,
				0.5000000596046448,
				0.5000001788139343
			],
			"translation":[
				0,
				0,
				0.0010770681547001004
			]
		},
		{
			"children":[
				10,
				11
			],
			"mesh":11,
			"name":"PressedToken"
		}
	],
	"materials":[
		{
			"doubleSided":true,
			"extensions":{
				"KHR_materials_specular":{
					"specularFactor":0.20000000298023224
				}
			},
			"name":"Token",
			"normalTexture":{
				"index":0,
				"scale":0.6600000262260437
			},
			"pbrMetallicRoughness":{
				"baseColorTexture":{
					"index":1
				},
				"roughnessFactor":0.20000000298023224
			}
		},
		{
			"doubleSided":true,
			"extensions":{
				"KHR_materials_specular":{
					"specularFactor":0.20000000298023224
				}
			},
			"name":"Body",
			"normalTexture":{
				"index":2,
				"scale":0.15000000596046448
			},
			"pbrMetallicRoughness":{
				"baseColorTexture":{
					"index":3
				},
				"roughnessFactor":0.20000000298023224
			}
		}
	],
	"meshes":[
		{
			"name":"TokenFace",
			"primitives":[
				{
					"attributes":{
						"POSITION":0,
						"NORMAL":1,
						"TEXCOORD_0":2
					},
					"indices":3,
					"material":0
				}
			]
		},
		{
			"name":"TokenFace.001",
			"primitives":[
				{
					"attributes":{
						"POSITION":4,
						"NORMAL":5,
						"TEXCOORD_0":6
					},
					"indices":3,
					"material":0
				}
			]
		},
		{
			"name":"TokenFace.002",
			"primitives":[
				{
					"attributes":{
						"POSITION":7,
						"NORMAL":8,
						"TEXCOORD_0":9
					},
					"indices":3,
					"material":0
				}
			]
		},
		{
			"name":"TokenFace.003",
			"primitives":[
				{
					"attributes":{
						"POSITION":10,
						"NORMAL":11,
						"TEXCOORD_0":12
					},
					"indices":3,
					"material":0
				}
			]
		},
		{
			"name":"TokenFace.004",
			"primitives":[
				{
					"attributes":{
						"POSITION":13,
						"NORMAL":14,
						"TEXCOORD_0":15
					},
					"indices":16,
					"material":0
				}
			]
		},
		{
			"name":"TokenFace.005",
			"primitives":[
				{
					"attributes":{
						"POSITION":17,
						"NORMAL":18,
						"TEXCOORD_0":19
					},
					"indices":3,
					"material":0
				}
			]
		},
		{
			"name":"TokenFace.006",
			"primitives":[
				{
					"attributes":{
						"POSITION":20,
						"NORMAL":21,
						"TEXCOORD_0":22
					},
					"indices":3,
					"material":0
				}
			]
		},
		{
			"name":"TokenFace.007",
			"primitives":[
				{
					"attributes":{
						"POSITION":23,
						"NORMAL":24,
						"TEXCOORD_0":25
					},
					"indices":3,
					"material":0
				}
			]
		},
		{
			"name":"TokenFace.008",
			"primitives":[
				{
					"attributes":{
						"POSITION":26,
						"NORMAL":27,
						"TEXCOORD_0":28
					},
					"indices":3,
					"material":0
				}
			]
		},
		{
			"name":"TokenFace.009",
			"primitives":[
				{
					"attributes":{
						"POSITION":29,
						"NORMAL":30,
						"TEXCOORD_0":31
					},
					"indices":3,
					"material":0
				}
			]
		},
		{
			"name":"PressedToken#boxcollider",
			"primitives":[
				{
					"attributes":{
						"POSITION":32,
						"NORMAL":33,
						"TEXCOORD_0":34
					},
					"indices":35
				}
			]
		},
		{
			"name":"PressedToken",
			"primitives":[
				{
					"attributes":{
						"POSITION":36,
						"NORMAL":37,
						"TEXCOORD_0":38
					},
					"indices":39,
					"material":1
				}
			]
		}
	],
	"textures":[
		{
			"sampler":0,
			"source":0
		},
		{
			"sampler":0,
			"source":1
		},
		{
			"sampler":0,
			"source":2
		},
		{
			"sampler":0,
			"source":1
		}
	],
	"images":[
		{
			"mimeType":"image/png",
			"name":"pressedToken_Normal",
			"uri":"textures/pressedToken_Normal.png"
		},
		{
			"mimeType":"image/png",
			"name":"token_baseColor",
			"uri":"textures/token_baseColor.png"
		},
		{
			"mimeType":"image/png",
			"name":"cwt_token_rim_Normal",
			"uri":"textures/cwt_token_rim_Normal.png"
		}
	],
	"accessors":[
		{
			"bufferView":0,
			"componentType":5126,
			"count":250,
			"max":[
				0.025308238342404366,
				0.0029906886629760265,
				0.04786490276455879
			],
			"min":[
				-0.025308238342404366,
				-0.002939414232969284,
				-0.04786490276455879
			],
			"type":"VEC3"
		},
		{
			"bufferView":1,
			"componentType":5126,
			"count":250,
			"type":"VEC3"
		},
		{
			"bufferView":2,
			"componentType":5126,
			"count":250,
			"type":"VEC2"
		},
		{
			"bufferView":3,
			"componentType":5123,
			"count":384,
			"type":"SCALAR"
		},
		{
			"bufferView":4,
			"componentType":5126,
			"count":250,
			"max":[
				0.025308238342404366,
				0.0029906886629760265,
				0.04786490276455879
			],
			"min":[
				-0.025308238342404366,
				-0.002939414232969284,
				-0.04786490276455879
			],
			"type":"VEC3"
		},
		{
			"bufferView":5,
			"componentType":5126,
			"count":250,
			"type":"VEC3"
		},
		{
			"bufferView":6,
			"componentType":5126,
			"count":250,
			"type":"VEC2"
		},
		{
			"bufferView":7,
			"componentType":5126,
			"count":250,
			"max":[
				0.025308238342404366,
				0.0029906886629760265,
				0.04786490276455879
			],
			"min":[
				-0.025308238342404366,
				-0.002939414232969284,
				-0.04786490276455879
			],
			"type":"VEC3"
		},
		{
			"bufferView":8,
			"componentType":5126,
			"count":250,
			"type":"VEC3"
		},
		{
			"bufferView":9,
			"componentType":5126,
			"count":250,
			"type":"VEC2"
		},
		{
			"bufferView":10,
			"componentType":5126,
			"count":250,
			"max":[
				0.025308238342404366,
				0.0029906886629760265,
				0.04786490276455879
			],
			"min":[
				-0.025308238342404366,
				-0.002939414232969284,
				-0.04786490276455879
			],
			"type":"VEC3"
		},
		{
			"bufferView":11,
			"componentType":5126,
			"count":250,
			"type":"VEC3"
		},
		{
			"bufferView":12,
			"componentType":5126,
			"count":250,
			"type":"VEC2"
		},
		{
			"bufferView":13,
			"componentType":5126,
			"count":81,
			"max":[
				0.025308238342404366,
				0.0029906886629760265,
				0.04786490276455879
			],
			"min":[
				-0.025308238342404366,
				-0.002939414232969284,
				-0.04786490276455879
			],
			"type":"VEC3"
		},
		{
			"bufferView":14,
			"componentType":5126,
			"count":81,
			"type":"VEC3"
		},
		{
			"bufferView":15,
			"componentType":5126,
			"count":81,
			"type":"VEC2"
		},
		{
			"bufferView":16,
			"componentType":5123,
			"count":384,
			"type":"SCALAR"
		},
		{
			"bufferView":17,
			"componentType":5126,
			"count":250,
			"max":[
				0.025308238342404366,
				0.0029906886629760265,
				0.04786490276455879
			],
			"min":[
				-0.025308238342404366,
				-0.002939414232969284,
				-0.04786490276455879
			],
			"type":"VEC3"
		},
		{
			"bufferView":18,
			"componentType":5126,
			"count":250,
			"type":"VEC3"
		},
		{
			"bufferView":19,
			"componentType":5126,
			"count":250,
			"type":"VEC2"
		},
		{
			"bufferView":20,
			"componentType":5126,
			"count":250,
			"max":[
				0.025308238342404366,
				0.0029906886629760265,
				0.04786490276455879
			],
			"min":[
				-0.025308238342404366,
				-0.002939414232969284,
				-0.04786490276455879
			],
			"type":"VEC3"
		},
		{
			"bufferView":21,
			"componentType":5126,
			"count":250,
			"type":"VEC3"
		},
		{
			"bufferView":22,
			"componentType":5126,
			"count":250,
			"type":"VEC2"
		},
		{
			"bufferView":23,
			"componentType":5126,
			"count":250,
			"max":[
				0.025308238342404366,
				0.0029906886629760265,
				0.04786490276455879
			],
			"min":[
				-0.025308238342404366,
				-0.002939414232969284,
				-0.04786490276455879
			],
			"type":"VEC3"
		},
		{
			"bufferView":24,
			"componentType":5126,
			"count":250,
			"type":"VEC3"
		},
		{
			"bufferView":25,
			"componentType":5126,
			"count":250,
			"type":"VEC2"
		},
		{
			"bufferView":26,
			"componentType":5126,
			"count":250,
			"max":[
				0.025308238342404366,
				0.0029906886629760265,
				0.04786490276455879
			],
			"min":[
				-0.025308238342404366,
				-0.002939414232969284,
				-0.04786490276455879
			],
			"type":"VEC3"
		},
		{
			"bufferView":27,
			"componentType":5126,
			"count":250,
			"type":"VEC3"
		},
		{
			"bufferView":28,
			"componentType":5126,
			"count":250,
			"type":"VEC2"
		},
		{
			"bufferView":29,
			"componentType":5126,
			"count":250,
			"max":[
				0.025308238342404366,
				0.0029906886629760265,
				0.04786490276455879
			],
			"min":[
				-0.025308238342404366,
				-0.002939414232969284,
				-0.04786490276455879
			],
			"type":"VEC3"
		},
		{
			"bufferView":30,
			"componentType":5126,
			"count":250,
			"type":"VEC3"
		},
		{
			"bufferView":31,
			"componentType":5126,
			"count":250,
			"type":"VEC2"
		},
		{
			"bufferView":32,
			"componentType":5126,
			"count":24,
			"max":[
				0.023066489025950432,
				0.001898094080388546,
				0.048238273710012436
			],
			"min":[
				-0.023066489025950432,
				-0.001898094080388546,
				-0.048238273710012436
			],
			"type":"VEC3"
		},
		{
			"bufferView":33,
			"componentType":5126,
			"count":24,
			"type":"VEC3"
		},
		{
			"bufferView":34,
			"componentType":5126,
			"count":24,
			"type":"VEC2"
		},
		{
			"bufferView":35,
			"componentType":5123,
			"count":36,
			"type":"SCALAR"
		},
		{
			"bufferView":36,
			"componentType":5126,
			"count":263,
			"max":[
				0.04816576838493347,
				0.025561103597283363,
				0.003990521654486656
			],
			"min":[
				-0.04816576838493347,
				-0.025561103597283363,
				-0.0029906905256211758
			],
			"type":"VEC3"
		},
		{
			"bufferView":37,
			"componentType":5126,
			"count":263,
			"type":"VEC3"
		},
		{
			"bufferView":38,
			"componentType":5126,
			"count":263,
			"type":"VEC2"
		},
		{
			"bufferView":39,
			"componentType":5123,
			"count":960,
			"type":"SCALAR"
		}
	],
	"bufferViews":[
		{
			"buffer":0,
			"byteLength":3000,
			"byteOffset":0,
			"target":34962
		},
		{
			"buffer":0,
			"byteLength":3000,
			"byteOffset":3000,
			"target":34962
		},
		{
			"buffer":0,
			"byteLength":2000,
			"byteOffset":6000,
			"target":34962
		},
		{
			"buffer":0,
			"byteLength":768,
			"byteOffset":8000,
			"target":34963
		},
		{
			"buffer":0,
			"byteLength":3000,
			"byteOffset":8768,
			"target":34962
		},
		{
			"buffer":0,
			"byteLength":3000,
			"byteOffset":11768,
			"target":34962
		},
		{
			"buffer":0,
			"byteLength":2000,
			"byteOffset":14768,
			"target":34962
		},
		{
			"buffer":0,
			"byteLength":3000,
			"byteOffset":16768,
			"target":34962
		},
		{
			"buffer":0,
			"byteLength":3000,
			"byteOffset":19768,
			"target":34962
		},
		{
			"buffer":0,
			"byteLength":2000,
			"byteOffset":22768,
			"target":34962
		},
		{
			"buffer":0,
			"byteLength":3000,
			"byteOffset":24768,
			"target":34962
		},
		{
			"buffer":0,
			"byteLength":3000,
			"byteOffset":27768,
			"target":34962
		},
		{
			"buffer":0,
			"byteLength":2000,
			"byteOffset":30768,
			"target":34962
		},
		{
			"buffer":0,
			"byteLength":972,
			"byteOffset":32768,
			"target":34962
		},
		{
			"buffer":0,
			"byteLength":972,
			"byteOffset":33740,
			"target":34962
		},
		{
			"buffer":0,
			"byteLength":648,
			"byteOffset":34712,
			"target":34962
		},
		{
			"buffer":0,
			"byteLength":768,
			"byteOffset":35360,
			"target":34963
		},
		{
			"buffer":0,
			"byteLength":3000,
			"byteOffset":36128,
			"target":34962
		},
		{
			"buffer":0,
			"byteLength":3000,
			"byteOffset":39128,
			"target":34962
		},
		{
			"buffer":0,
			"byteLength":2000,
			"byteOffset":42128,
			"target":34962
		},
		{
			"buffer":0,
			"byteLength":3000,
			"byteOffset":44128,
			"target":34962
		},
		{
			"buffer":0,
			"byteLength":3000,
			"byteOffset":47128,
			"target":34962
		},
		{
			"buffer":0,
			"byteLength":2000,
			"byteOffset":50128,
			"target":34962
		},
		{
			"buffer":0,
			"byteLength":3000,
			"byteOffset":52128,
			"target":34962
		},
		{
			"buffer":0,
			"byteLength":3000,
			"byteOffset":55128,
			"target":34962
		},
		{
			"buffer":0,
			"byteLength":2000,
			"byteOffset":58128,
			"target":34962
		},
		{
			"buffer":0,
			"byteLength":3000,
			"byteOffset":60128,
			"target":34962
		},
		{
			"buffer":0,
			"byteLength":3000,
			"byteOffset":63128,
			"target":34962
		},
		{
			"buffer":0,
			"byteLength":2000,
			"byteOffset":66128,
			"target":34962
		},
		{
			"buffer":0,
			"byteLength":3000,
			"byteOffset":68128,
			"target":34962
		},
		{
			"buffer":0,
			"byteLength":3000,
			"byteOffset":71128,
			"target":34962
		},
		{
			"buffer":0,
			"byteLength":2000,
			"byteOffset":74128,
			"target":34962
		},
		{
			"buffer":0,
			"byteLength":288,
			"byteOffset":76128,
			"target":34962
		},
		{
			"buffer":0,
			"byteLength":288,
			"byteOffset":76416,
			"target":34962
		},
		{
			"buffer":0,
			"byteLength":192,
			"byteOffset":76704,
			"target":34962
		},
		{
			"buffer":0,
			"byteLength":72,
			"byteOffset":76896,
			"target":34963
		},
		{
			"buffer":0,
			"byteLength":3156,
			"byteOffset":76968,
			"target":34962
		},
		{
			"buffer":0,
			"byteLength":3156,
			"byteOffset":80124,
			"target":34962
		},
		{
			"buffer":0,
			"byteLength":2104,
			"byteOffset":83280,
			"target":34962
		},
		{
			"buffer":0,
			"byteLength":1920,
			"byteOffset":85384,
			"target":34963
		}
	],
	"samplers":[
		{
			"magFilter":9729,
			"minFilter":9987
		}
	],
	"buffers":[
		{
			"byteLength":87304,
			"uri":"mdl_chazzyb_pressedToken.bin"
		}
	]
}
