{
  "accessors": [
    {
      "bufferView": 2,
      "componentType": 5126,
      "count": 4101,
      "max": [
        0.5228340029716492,
        0.5228509902954102,
        1.0402309894561768
      ],
      "min": [
        -0.5226479768753052,
        -0.5226749777793884,
        -0.9178310036659241
      ],
      "type": "VEC3"
    },
    {
      "bufferView": 2,
      "byteOffset": 49212,
      "componentType": 5126,
      "count": 4101,
      "max": [
        0.9993074536323547,
        0.999721884727478,
        0.9999991059303284
      ],
      "min": [
        -0.9999874830245972,
        -0.999283492565155,
        -0.999999463558197
      ],
      "type": "VEC3"
    },
    {
      "bufferView": 3,
      "componentType": 5126,
      "count": 4101,
      "max": [
        0.9932725429534912,
        0.9994273781776428,
        0.9928402304649353,
        -1.0
      ],
      "min": [
        -0.9990714192390442,
        -0.9994972944259644,
        -0.9986339211463928,
        -1.0
      ],
      "type": "VEC4"
    },
    {
      "bufferView": 1,
      "componentType": 5126,
      "count": 4101,
      "max": [
        0.9934250116348267,
        0.9982420206069946
      ],
      "min": [
        0.006237000226974487,
        0.00976600032299757
      ],
      "type": "VEC2"
    },
    {
      "bufferView": 0,
      "componentType": 5125,
      "count": 24000,
      "type": "SCALAR"
    },
    {
      "bufferView": 2,
      "byteOffset": 98424,
      "componentType": 5126,
      "count": 2522,
      "max": [
        0.5817750096321106,
        0.03192799910902977,
        -0.18950000405311584
      ],
      "min": [
        -0.5817750096321106,
        -0.07290799915790558,
        -0.7984870076179504
      ],
      "type": "VEC3"
    },
    {
      "bufferView": 2,
      "byteOffset": 128688,
      "componentType": 5126,
      "count": 2522,
      "max": [
        0.999373733997345,
        0.9999818801879883,
        0.999663770198822
      ],
      "min": [
        -0.999373733997345,
        -0.9996527433395386,
        -0.9868274927139282
      ],
      "type": "VEC3"
    },
    {
      "bufferView": 3,
      "byteOffset": 65616,
      "componentType": 5126,
      "count": 2522,
      "max": [
        0.9954758882522583,
        0.9761584401130676,
        0.9999966025352478,
        1.0
      ],
      "min": [
        -0.9834465980529785,
        -0.97547447681427,
        -0.9999749660491943,
        -1.0
      ],
      "type": "VEC4"
    },
    {
      "bufferView": 1,
      "byteOffset": 32808,
      "componentType": 5126,
      "count": 2522,
      "max": [
        0.9950600266456604,
        0.9921950101852417
      ],
      "min": [
        0.0007689999765716493,
        0.060378000140190125
      ],
      "type": "VEC2"
    },
    {
      "bufferView": 0,
      "byteOffset": 96000,
      "componentType": 5125,
      "count": 14268,
      "type": "SCALAR"
    }
  ],
  "asset": {
    "extras": {
      "author": "BloodOrigami (https://sketchfab.com/BloodOrigami)",
      "license": "CC-BY-4.0 (http://creativecommons.org/licenses/by/4.0/)",
      "source": "https://sketchfab.com/3d-models/minoan-style-vase-975b84b294584008a576d3b41c806227",
      "title": "Minoan style vase"
    },
    "generator": "Sketchfab-15.49.0",
    "version": "2.0"
  },
  "bufferViews": [
    {
      "buffer": 0,
      "byteLength": 153072,
      "name": "floatBufferViews",
      "target": 34963
    },
    {
      "buffer": 0,
      "byteLength": 52984,
      "byteOffset": 153072,
      "byteStride": 8,
      "name": "floatBufferViews",
      "target": 34962
    },
    {
      "buffer": 0,
      "byteLength": 158952,
      "byteOffset": 206056,
      "byteStride": 12,
      "name": "floatBufferViews",
      "target": 34962
    },
    {
      "buffer": 0,
      "byteLength": 105968,
      "byteOffset": 365008,
      "byteStride": 16,
      "name": "floatBufferViews",
      "target": 34962
    }
  ],
  "buffers": [
    {
      "byteLength": 470976,
      "uri": "scene.bin"
    }
  ],
  "images": [
    {
      "uri": "textures/vase_1001_baseColor.jpeg"
    },
    {
      "uri": "textures/vase_1001_metallicRoughness.png"
    },
    {
      "uri": "textures/vase_1001_normal.png"
    },
    {
      "uri": "textures/vase_handle_1001_baseColor.jpeg"
    },
    {
      "uri": "textures/vase_handle_1001_metallicRoughness.png"
    },
    {
      "uri": "textures/vase_handle_1001_normal.png"
    }
  ],
  "materials": [
    {
      "doubleSided": true,
      "name": "vase_1001",
      "normalTexture": {
        "index": 2
      },
      "pbrMetallicRoughness": {
        "baseColorTexture": {
          "index": 0
        },
        "metallicRoughnessTexture": {
          "index": 1
        }
      }
    },
    {
      "doubleSided": true,
      "name": "vase_handle_1001",
      "normalTexture": {
        "index": 5
      },
      "pbrMetallicRoughness": {
        "baseColorTexture": {
          "index": 3
        },
        "metallicRoughnessTexture": {
          "index": 4
        }
      }
    }
  ],
  "meshes": [
    {
      "name": "defaultMaterial",
      "primitives": [
        {
          "attributes": {
            "NORMAL": 1,
            "POSITION": 0,
            "TANGENT": 2,
            "TEXCOORD_0": 3
          },
          "indices": 4,
          "material": 0,
          "mode": 4
        }
      ]
    },
    {
      "name": "defaultMaterial",
      "primitives": [
        {
          "attributes": {
            "NORMAL": 6,
            "POSITION": 5,
            "TANGENT": 7,
            "TEXCOORD_0": 8
          },
          "indices": 9,
          "material": 1,
          "mode": 4
        }
      ]
    }
  ],
  "nodes": [
    {
      "children": [
        1
      ],
      "matrix": [
        1.0,
        0.0,
        0.0,
        0.0,
        0.0,
        2.220446049250313e-16,
        -1.0,
        0.0,
        0.0,
        1.0,
        2.220446049250313e-16,
        0.0,
        0.0,
        0.0,
        0.0,
        1.0
      ],
      "name": "Sketchfab_model"
    },
    {
      "children": [
        2
      ],
      "matrix": [
        1.0,
        0.0,
        0.0,
        0.0,
        0.0,
        -4.371139006309477e-08,
        0.999999999999999,
        0.0,
        0.0,
        -0.999999999999999,
        -4.371139006309477e-08,
        0.0,
        0.0,
        0.0,
        0.0,
        1.0
      ],
      "name": "Collada visual scene group"
    },
    {
      "children": [
        3
      ],
      "name": "scene"
    },
    {
      "children": [
        4
      ],
      "matrix": [
        39.377682,
        0.0,
        0.0,
        0.0,
        0.0,
        39.377682,
        0.0,
        0.0,
        0.0,
        0.0,
        39.377682,
        0.0,
        0.0,
        0.0,
        0.0,
        1.0
      ],
      "name": "Meshes"
    },
    {
      "children": [
        5
      ],
      "matrix": [
        1.0,
        0.0,
        0.0,
        0.0,
        0.0,
        0.0,
        -1.0,
        0.0,
        0.0,
        1.0,
        0.0,
        0.0,
        0.0,
        0.0,
        0.0,
        1.0
      ],
      "name": "Sketchfab_model"
    },
    {
      "children": [
        6
      ],
      "name": "root"
    },
    {
      "children": [
        7,
        11
      ],
      "matrix": [
        1.0,
        0.0,
        0.0,
        0.0,
        0.0,
        0.0,
        1.0,
        0.0,
        0.0,
        -1.0,
        0.0,
        0.0,
        0.0,
        0.0,
        0.0,
        1.0
      ],
      "name": "GLTF_SceneRootNode"
    },
    {
      "children": [
        8
      ],
      "matrix": [
        3.89056,
        0.0,
        -0.047704,
        0.0,
        0.047704,
        0.0,
        3.89056,
        0.0,
        0.0,
        -3.890852,
        0.0,
        0.0,
        0.0,
        8.166857,
        0.0,
        1.0
      ],
      "name": "MorphDiff_PM3D_PolySphere_2_0"
    },
    {
      "children": [
        9
      ],
      "name": "Object_4"
    },
    {
      "children": [
        10
      ],
      "name": "Object_0"
    },
    {
      "mesh": 0,
      "name": "defaultMaterial"
    },
    {
      "children": [
        12
      ],
      "matrix": [
        3.89056,
        0.0,
        -0.047704,
        0.0,
        0.047704,
        0.0,
        3.89056,
        0.0,
        0.0,
        -3.890852,
        0.0,
        0.0,
        0.0,
        8.166857,
        0.0,
        1.0
      ],
      "name": "MorphDiff_PM3D_PolySphere_2_001_1"
    },
    {
      "children": [
        13
      ],
      "name": "Object_6"
    },
    {
      "children": [
        14
      ],
      "name": "Object_1"
    },
    {
      "mesh": 1,
      "name": "defaultMaterial"
    }
  ],
  "samplers": [
    {
      "magFilter": 9729,
      "minFilter": 9987,
      "wrapS": 10497,
      "wrapT": 10497
    }
  ],
  "scene": 0,
  "scenes": [
    {
      "name": "Sketchfab_Scene",
      "nodes": [
        0
      ]
    }
  ],
  "textures": [
    {
      "sampler": 0,
      "source": 0
    },
    {
      "sampler": 0,
      "source": 1
    },
    {
      "sampler": 0,
      "source": 2
    },
    {
      "sampler": 0,
      "source": 3
    },
    {
      "sampler": 0,
      "source": 4
    },
    {
      "sampler": 0,
      "source": 5
    }
  ]
}
