{
	"asset":{
		"generator":"Khronos glTF Blender I/O v4.1.63",
		"version":"2.0"
	},
	"extensionsUsed":[
		"KHR_materials_specular"
	],
	"scene":0,
	"scenes":[
		{
			"name":"Scene",
			"nodes":[
				0,
				1
			]
		}
	],
	"nodes":[
		{
			"mesh":0,
			"name":"beethoven-head"
		},
		{
			"mesh":1,
			"name":"beethoven-body"
		}
	],
	"materials":[
		{
			"doubleSided":true,
			"extensions":{
				"KHR_materials_specular":{
					"specularFactor":0
				}
			},
			"name":"Beethoven_O_Material_u1_v1.001",
			"pbrMetallicRoughness":{
				"baseColorTexture":{
					"index":0
				},
				"metallicFactor":0
			}
		},
		{
			"doubleSided":true,
			"extensions":{
				"KHR_materials_specular":{
					"specularFactor":0
				}
			},
			"name":"Beethoven_O_Material_u1_v1.002",
			"pbrMetallicRoughness":{
				"baseColorTexture":{
					"index":1
				},
				"metallicFactor":0
			}
		}
	],
	"meshes":[
		{
			"name":"Beethoven_C.002",
			"primitives":[
				{
					"attributes":{
						"POSITION":0,
						"NORMAL":1,
						"TEXCOORD_0":2
					},
					"indices":3,
					"material":0
				}
			]
		},
		{
			"name":"Beethoven_C.003",
			"primitives":[
				{
					"attributes":{
						"POSITION":4,
						"NORMAL":5,
						"TEXCOORD_0":6
					},
					"indices":7,
					"material":1
				}
			]
		}
	],
	"textures":[
		{
			"sampler":0,
			"source":0
		},
		{
			"sampler":0,
			"source":0
		}
	],
	"images":[
		{
			"mimeType":"image/jpeg",
			"name":"beethoven-2k",
			"uri":"beethoven-2k.jpg"
		}
	],
	"accessors":[
		{
			"bufferView":0,
			"componentType":5126,
			"count":15230,
			"max":[
				0.131347194314003,
				1.997426986694336,
				0.22568635642528534
			],
			"min":[
				-0.22946730256080627,
				1.6234862804412842,
				-0.15149231255054474
			],
			"type":"VEC3"
		},
		{
			"bufferView":1,
			"componentType":5126,
			"count":15230,
			"type":"VEC3"
		},
		{
			"bufferView":2,
			"componentType":5126,
			"count":15230,
			"type":"VEC2"
		},
		{
			"bufferView":3,
			"componentType":5123,
			"count":49908,
			"type":"SCALAR"
		},
		{
			"bufferView":4,
			"componentType":5126,
			"count":13910,
			"max":[
				0.40663835406303406,
				1.7978352308273315,
				0.6005197763442993
			],
			"min":[
				-0.5715223550796509,
				-0.006223301403224468,
				-0.6310049295425415
			],
			"type":"VEC3"
		},
		{
			"bufferView":5,
			"componentType":5126,
			"count":13910,
			"type":"VEC3"
		},
		{
			"bufferView":6,
			"componentType":5126,
			"count":13910,
			"type":"VEC2"
		},
		{
			"bufferView":7,
			"componentType":5123,
			"count":39156,
			"type":"SCALAR"
		}
	],
	"bufferViews":[
		{
			"buffer":0,
			"byteLength":182760,
			"byteOffset":0,
			"target":34962
		},
		{
			"buffer":0,
			"byteLength":182760,
			"byteOffset":182760,
			"target":34962
		},
		{
			"buffer":0,
			"byteLength":121840,
			"byteOffset":365520,
			"target":34962
		},
		{
			"buffer":0,
			"byteLength":99816,
			"byteOffset":487360,
			"target":34963
		},
		{
			"buffer":0,
			"byteLength":166920,
			"byteOffset":587176,
			"target":34962
		},
		{
			"buffer":0,
			"byteLength":166920,
			"byteOffset":754096,
			"target":34962
		},
		{
			"buffer":0,
			"byteLength":111280,
			"byteOffset":921016,
			"target":34962
		},
		{
			"buffer":0,
			"byteLength":78312,
			"byteOffset":1032296,
			"target":34963
		}
	],
	"samplers":[
		{
			"magFilter":9729,
			"minFilter":9987
		}
	],
	"buffers":[
		{
			"byteLength":1110608,
			"uri":"beethoven.bin"
		}
	]
}
