{
    "asset" : {
        "generator" : "Khronos glTF Blender I/O v3.4.50",
        "version" : "2.0"
    },
    "scene" : 0,
    "scenes" : [
        {
            "name" : "Scene",
            "nodes" : [
                1,
                6
            ]
        }
    ],
    "nodes" : [
        {
            "name" : "ID1",
            "translation" : [
                0,
                -3.039836883544922e-06,
                -1.9397586584091187e-05
            ]
        },
        {
            "children" : [
                0
            ],
            "name" : "skp_camera_Last_Saved_SketchUp_View",
            "rotation" : [
                0.007086034398525953,
                -0.35136860609054565,
                -0.9360200762748718,
                0.018876681104302406
            ],
            "translation" : [
                2.089055061340332,
                267.8211975097656,
                277.55419921875
            ]
        },
        {
            "mesh" : 0,
            "name" : "Golden Teapot_Golden Teapot_0"
        },
        {
            "children" : [
                2
            ],
            "name" : "Golden Teapot",
            "rotation" : [
                -0.70710688829422,
                0,
                0,
                0.7071066498756409
            ],
            "scale" : [
                100,
                99.99999237060547,
                99.99999237060547
            ],
            "translation" : [
                -0.0008944810251705348,
                358.24884033203125,
                14.53540325164795
            ]
        },
        {
            "children" : [
                3
            ],
            "name" : "RootNode"
        },
        {
            "children" : [
                4
            ],
            "name" : "9105ee1fc8924e07a574ff64ee9192b5.fbx",
            "rotation" : [
                0.70710688829422,
                0,
                0,
                0.7071066498756409
            ],
            "scale" : [
                0.009999999776482582,
                0.010000000707805157,
                0.010000000707805157
            ]
        },
        {
            "children" : [
                5
            ],
            "name" : "Sketchfab_model",
            "rotation" : [
                -0.70710688829422,
                0,
                0,
                0.7071066498756409
            ]
        }
    ],
    "materials" : [
        {
            "doubleSided" : true,
            "name" : "Golden_Teapot",
            "normalTexture" : {
                "index" : 0
            },
            "pbrMetallicRoughness" : {
                "baseColorTexture" : {
                    "index" : 1
                },
                "metallicRoughnessTexture" : {
                    "index" : 2
                }
            }
        }
    ],
    "meshes" : [
        {
            "name" : "Golden Teapot_Golden Teapot_0",
            "primitives" : [
                {
                    "attributes" : {
                        "POSITION" : 0,
                        "TEXCOORD_0" : 1,
                        "NORMAL" : 2
                    },
                    "indices" : 3,
                    "material" : 0
                }
            ]
        }
    ],
    "textures" : [
        {
            "sampler" : 0,
            "source" : 0
        },
        {
            "sampler" : 0,
            "source" : 1
        },
        {
            "sampler" : 0,
            "source" : 2
        }
    ],
    "images" : [
        {
            "mimeType" : "image/png",
            "name" : "Golden_Teapot_normal",
            "uri" : "textures/Golden_Teapot_normal.png"
        },
        {
            "mimeType" : "image/jpeg",
            "name" : "Golden_Teapot_baseColor",
            "uri" : "textures/Golden_Teapot_baseColor.jpg"
        },
        {
            "mimeType" : "image/png",
            "name" : "Golden_Teapot_metallicRoughness",
            "uri" : "textures/Golden_Teapot_metallicRoughness.png"
        }
    ],
    "accessors" : [
        {
            "bufferView" : 0,
            "componentType" : 5126,
            "count" : 664,
            "max" : [
                1.4915080070495605,
                2.1898276805877686,
                3.9859225749969482
            ],
            "min" : [
                -1.491490125656128,
                -2.5728933811187744,
                -3.5824880599975586
            ],
            "type" : "VEC3"
        },
        {
            "bufferView" : 1,
            "componentType" : 5126,
            "count" : 664,
            "type" : "VEC2"
        },
        {
            "bufferView" : 2,
            "componentType" : 5126,
            "count" : 664,
            "type" : "VEC3"
        },
        {
            "bufferView" : 3,
            "componentType" : 5123,
            "count" : 2583,
            "type" : "SCALAR"
        }
    ],
    "bufferViews" : [
        {
            "buffer" : 0,
            "byteLength" : 7968,
            "byteOffset" : 0,
            "target" : 34962
        },
        {
            "buffer" : 0,
            "byteLength" : 5312,
            "byteOffset" : 7968,
            "target" : 34962
        },
        {
            "buffer" : 0,
            "byteLength" : 7968,
            "byteOffset" : 13280,
            "target" : 34962
        },
        {
            "buffer" : 0,
            "byteLength" : 5166,
            "byteOffset" : 21248,
            "target" : 34963
        }
    ],
    "samplers" : [
        {
            "magFilter" : 9729,
            "minFilter" : 9987
        }
    ],
    "buffers" : [
        {
            "byteLength" : 26416,
            "uri" : "mdl_paprika_teapot.bin"
        }
    ]
}
