{
    "asset" : {
        "generator" : "Khronos glTF Blender I/O v3.4.50",
        "version" : "2.0"
    },
    "extensionsUsed" : [
        "KHR_materials_specular"
    ],
    "scene" : 0,
    "scenes" : [
        {
            "name" : "Scene",
            "nodes" : [
                2
            ]
        }
    ],
    "nodes" : [
        {
            "mesh" : 0,
            "name" : "Object_6",
            "translation" : [
                3.6254377365112305,
                1.8029210567474365,
                -4.566091537475586
            ]
        },
        {
            "children" : [
                0
            ],
            "name" : "Stylized _Plant_Pack.obj.cleaner.materialmerger.gles"
        },
        {
            "children" : [
                1
            ],
            "name" : "Sketchfab_model",
            "rotation" : [
                -0.70710688829422,
                0,
                0,
                0.7071066498756409
            ]
        }
    ],
    "materials" : [
        {
            "doubleSided" : true,
            "emissiveFactor" : [
                0.30000001192092896,
                0.30000001192092896,
                0.30000001192092896
            ],
            "emissiveTexture" : {
                "index" : 0
            },
            "extensions" : {
                "KHR_materials_specular" : {
                    "specularColorTexture" : {
                        "index" : 1
                    }
                }
            },
            "name" : "Yellow_Flower",
            "pbrMetallicRoughness" : {
                "baseColorTexture" : {
                    "index" : 2
                },
                "metallicFactor" : 0,
                "metallicRoughnessTexture" : {
                    "index" : 3
                }
            }
        }
    ],
    "meshes" : [
        {
            "name" : "Object_4",
            "primitives" : [
                {
                    "attributes" : {
                        "POSITION" : 0,
                        "TEXCOORD_0" : 1,
                        "NORMAL" : 2
                    },
                    "indices" : 3,
                    "material" : 0
                }
            ]
        }
    ],
    "textures" : [
        {
            "sampler" : 0,
            "source" : 0
        },
        {
            "sampler" : 0,
            "source" : 1
        },
        {
            "sampler" : 0,
            "source" : 2
        },
        {
            "sampler" : 0,
            "source" : 3
        }
    ],
    "images" : [
        {
            "mimeType" : "image/png",
            "name" : "Yellow_Flower_emissive",
            "uri" : "textures/Yellow_Flower_emissive.png"
        },
        {
            "mimeType" : "image/png",
            "name" : "Image",
            "uri" : "textures/Image.png"
        },
        {
            "mimeType" : "image/png",
            "name" : "Yellow_Flower_baseColor",
            "uri" : "textures/Yellow_Flower_baseColor.png"
        },
        {
            "mimeType" : "image/png",
            "name" : "Yellow_Flower_metallicRoughness",
            "uri" : "textures/Yellow_Flower_metallicRoughness.png"
        }
    ],
    "accessors" : [
        {
            "bufferView" : 0,
            "componentType" : 5126,
            "count" : 2345,
            "max" : [
                -2.3758561611175537,
                -0.845371663570404,
                5.704164505004883
            ],
            "min" : [
                -4.8432393074035645,
                -2.5684378147125244,
                3.6947717666625977
            ],
            "type" : "VEC3"
        },
        {
            "bufferView" : 1,
            "componentType" : 5126,
            "count" : 2345,
            "type" : "VEC2"
        },
        {
            "bufferView" : 2,
            "componentType" : 5126,
            "count" : 2345,
            "type" : "VEC3"
        },
        {
            "bufferView" : 3,
            "componentType" : 5123,
            "count" : 9936,
            "type" : "SCALAR"
        }
    ],
    "bufferViews" : [
        {
            "buffer" : 0,
            "byteLength" : 28140,
            "byteOffset" : 0,
            "target" : 34962
        },
        {
            "buffer" : 0,
            "byteLength" : 18760,
            "byteOffset" : 28140,
            "target" : 34962
        },
        {
            "buffer" : 0,
            "byteLength" : 28140,
            "byteOffset" : 46900,
            "target" : 34962
        },
        {
            "buffer" : 0,
            "byteLength" : 19872,
            "byteOffset" : 75040,
            "target" : 34963
        }
    ],
    "samplers" : [
        {
            "magFilter" : 9729,
            "minFilter" : 9987
        }
    ],
    "buffers" : [
        {
            "byteLength" : 94912,
            "uri" : "mdl_paprika_flower.bin"
        }
    ]
}
