{
    "asset" : {
        "generator" : "Khronos glTF Blender I/O v3.4.50",
        "version" : "2.0"
    },
    "scene" : 0,
    "scenes" : [
        {
            "name" : "Scene",
            "nodes" : [
                55
            ]
        }
    ],
    "nodes" : [
        {
            "name" : "Bark01_1"
        },
        {
            "name" : "Branch01_1"
        },
        {
            "name" : "Branch02_1"
        },
        {
            "name" : "Branch03_1"
        },
        {
            "name" : "Branch04_1"
        },
        {
            "name" : "Leaf01_1"
        },
        {
            "children" : [
                0,
                1,
                2,
                3,
                4,
                5
            ],
            "name" : "ABC_LS06_CarpinusBetulus_1.001",
            "rotation" : [
                1,
                0,
                0,
                7.549790126404332e-08
            ],
            "translation" : [
                68.0237808227539,
                0,
                -61.6622200012207
            ]
        },
        {
            "mesh" : 0,
            "name" : "Bark01_2_Bark01- Main_0",
            "translation" : [
                7.510185241699219e-06,
                0,
                0
            ]
        },
        {
            "children" : [
                7
            ],
            "name" : "Bark01_2",
            "translation" : [
                7.510185241699219e-06,
                0,
                -7.62939453125e-06
            ]
        },
        {
            "mesh" : 1,
            "name" : "Branch01_2_Branch01- main_0",
            "translation" : [
                7.510185241699219e-06,
                0,
                0
            ]
        },
        {
            "children" : [
                9
            ],
            "name" : "Branch01_2",
            "translation" : [
                7.510185241699219e-06,
                0,
                -7.62939453125e-06
            ]
        },
        {
            "mesh" : 2,
            "name" : "Branch02_2_Branch02-main_0",
            "translation" : [
                7.510185241699219e-06,
                0,
                0
            ]
        },
        {
            "children" : [
                11
            ],
            "name" : "Branch02_2",
            "translation" : [
                7.510185241699219e-06,
                0,
                -7.62939453125e-06
            ]
        },
        {
            "name" : "Branch03_2",
            "translation" : [
                7.510185241699219e-06,
                0,
                -7.62939453125e-06
            ]
        },
        {
            "name" : "Branch04_2",
            "translation" : [
                7.510185241699219e-06,
                0,
                -7.62939453125e-06
            ]
        },
        {
            "mesh" : 3,
            "name" : "Leaf01_2_Leaf Main_0",
            "translation" : [
                7.510185241699219e-06,
                0,
                0
            ]
        },
        {
            "children" : [
                15
            ],
            "name" : "Leaf01_2",
            "translation" : [
                7.510185241699219e-06,
                0,
                -7.62939453125e-06
            ]
        },
        {
            "children" : [
                8,
                10,
                12,
                13,
                14,
                16
            ],
            "name" : "ABC_LS06_CarpinusBetulus_2.001",
            "rotation" : [
                1,
                0,
                0,
                7.549790126404332e-08
            ],
            "translation" : [
                -0.8069686889648438,
                0,
                -0.6182403564453125
            ]
        },
        {
            "name" : "Bark01_4",
            "translation" : [
                -3.0517578125e-05,
                0,
                -3.0517578125e-05
            ]
        },
        {
            "name" : "Branch01_4",
            "translation" : [
                -3.0517578125e-05,
                0,
                -3.0517578125e-05
            ]
        },
        {
            "name" : "Branch02_4",
            "translation" : [
                -3.0517578125e-05,
                0,
                -3.0517578125e-05
            ]
        },
        {
            "name" : "Branch03_4",
            "translation" : [
                -3.0517578125e-05,
                0,
                -3.0517578125e-05
            ]
        },
        {
            "name" : "Branch04_4",
            "translation" : [
                -3.0517578125e-05,
                0,
                -3.0517578125e-05
            ]
        },
        {
            "name" : "Leaf01_4",
            "translation" : [
                -3.0517578125e-05,
                0,
                -3.0517578125e-05
            ]
        },
        {
            "children" : [
                18,
                19,
                20,
                21,
                22,
                23
            ],
            "name" : "ABC_LS06_CarpinusBetulus_4.001",
            "rotation" : [
                1,
                0,
                0,
                7.549790126404332e-08
            ],
            "translation" : [
                -307.83477783203125,
                0,
                -361.59625244140625
            ]
        },
        {
            "name" : "Bark01_5",
            "translation" : [
                -1.1444091796875e-05,
                0,
                -1.1444091796875e-05
            ]
        },
        {
            "name" : "Branch01_5",
            "translation" : [
                -1.1444091796875e-05,
                0,
                -1.1444091796875e-05
            ]
        },
        {
            "name" : "Branch02_5",
            "translation" : [
                -1.1444091796875e-05,
                0,
                -1.1444091796875e-05
            ]
        },
        {
            "name" : "Branch03_5",
            "translation" : [
                -1.1444091796875e-05,
                0,
                -1.1444091796875e-05
            ]
        },
        {
            "name" : "Branch04_5",
            "translation" : [
                -1.1444091796875e-05,
                0,
                -1.1444091796875e-05
            ]
        },
        {
            "name" : "Leaf01_5",
            "translation" : [
                -1.1444091796875e-05,
                0,
                -1.1444091796875e-05
            ]
        },
        {
            "children" : [
                25,
                26,
                27,
                28,
                29,
                30
            ],
            "name" : "ABC_LS06_CarpinusBetulus_5.001",
            "rotation" : [
                0.7484948039054871,
                0,
                -0.6631407141685486,
                5.650980483551393e-08
            ],
            "translation" : [
                -144.3549346923828,
                0,
                -244.54562377929688
            ]
        },
        {
            "name" : "Bark01_6",
            "translation" : [
                -6.103515625e-05,
                0,
                1.52587890625e-05
            ]
        },
        {
            "name" : "Branch01_6",
            "translation" : [
                -6.103515625e-05,
                0,
                1.52587890625e-05
            ]
        },
        {
            "name" : "Branch02_6",
            "translation" : [
                -6.103515625e-05,
                0,
                1.52587890625e-05
            ]
        },
        {
            "name" : "Branch03_6",
            "translation" : [
                -6.103515625e-05,
                0,
                1.52587890625e-05
            ]
        },
        {
            "name" : "Branch04_6",
            "translation" : [
                -6.103515625e-05,
                0,
                1.52587890625e-05
            ]
        },
        {
            "name" : "Leaf01_6",
            "translation" : [
                -6.103515625e-05,
                0,
                1.52587890625e-05
            ]
        },
        {
            "children" : [
                32,
                33,
                34,
                35,
                36,
                37
            ],
            "name" : "ABC_LS06_CarpinusBetulus_6.001",
            "rotation" : [
                1,
                0,
                0,
                7.549790126404332e-08
            ],
            "translation" : [
                322.73455810546875,
                0,
                -152.31927490234375
            ]
        },
        {
            "name" : "Bark01_7",
            "translation" : [
                3.0517578125e-05,
                0,
                -7.62939453125e-06
            ]
        },
        {
            "name" : "Branch01_7",
            "translation" : [
                3.0517578125e-05,
                0,
                -7.62939453125e-06
            ]
        },
        {
            "name" : "Branch02_7",
            "translation" : [
                3.0517578125e-05,
                0,
                -7.62939453125e-06
            ]
        },
        {
            "name" : "Branch03_7",
            "translation" : [
                3.0517578125e-05,
                0,
                -7.62939453125e-06
            ]
        },
        {
            "name" : "Branch04_7",
            "translation" : [
                3.0517578125e-05,
                0,
                -7.62939453125e-06
            ]
        },
        {
            "name" : "Leaf01_7",
            "translation" : [
                3.0517578125e-05,
                0,
                -7.62939453125e-06
            ]
        },
        {
            "children" : [
                39,
                40,
                41,
                42,
                43,
                44
            ],
            "name" : "ABC_LS06_CarpinusBetulus_7.001",
            "rotation" : [
                1,
                0,
                0,
                7.549790126404332e-08
            ],
            "scale" : [
                0.7712677717208862,
                0.7712677717208862,
                0.7712677717208862
            ],
            "translation" : [
                -308.0550231933594,
                0,
                -44.26191711425781
            ]
        },
        {
            "name" : "Bark01_9"
        },
        {
            "name" : "Branch01_9"
        },
        {
            "name" : "Branch02_9"
        },
        {
            "name" : "Branch03_9"
        },
        {
            "name" : "Branch04_9"
        },
        {
            "name" : "Leaf01_9"
        },
        {
            "children" : [
                46,
                47,
                48,
                49,
                50,
                51
            ],
            "name" : "ABC_LS06_CarpinusBetulus_9.001",
            "rotation" : [
                1,
                0,
                0,
                7.549790126404332e-08
            ],
            "scale" : [
                0.795711100101471,
                0.795711100101471,
                0.795711100101471
            ],
            "translation" : [
                -8.958685874938965,
                0,
                -434.2178955078125
            ]
        },
        {
            "children" : [
                6,
                17,
                24,
                31,
                38,
                45,
                52
            ],
            "name" : "RootNode"
        },
        {
            "children" : [
                53
            ],
            "name" : "BCY_LS06_CarpinusBetulus_master-nofloor.fbx",
            "rotation" : [
                0.70710688829422,
                0,
                0,
                0.7071066498756409
            ]
        },
        {
            "children" : [
                54
            ],
            "name" : "Sketchfab_model",
            "rotation" : [
                -0.70710688829422,
                0,
                0,
                0.7071066498756409
            ]
        }
    ],
    "materials" : [
        {
            "name" : "Bark01_SHD",
            "pbrMetallicRoughness" : {
                "baseColorTexture" : {
                    "index" : 0
                },
                "metallicRoughnessTexture" : {
                    "index" : 1
                }
            }
        },
        {
            "alphaCutoff" : 0.19627559185028076,
            "alphaMode" : "MASK",
            "doubleSided" : true,
            "name" : "Leaf01_su_SHD",
            "pbrMetallicRoughness" : {
                "baseColorTexture" : {
                    "index" : 2
                },
                "metallicFactor" : 0.06251177936792374,
                "metallicRoughnessTexture" : {
                    "index" : 3
                }
            }
        }
    ],
    "meshes" : [
        {
            "name" : "Bark01_2_Bark01- Main_0",
            "primitives" : [
                {
                    "attributes" : {
                        "POSITION" : 0,
                        "TEXCOORD_0" : 1,
                        "TEXCOORD_1" : 2,
                        "NORMAL" : 3
                    },
                    "indices" : 4,
                    "material" : 0
                }
            ]
        },
        {
            "name" : "Branch01_2_Branch01- main_0",
            "primitives" : [
                {
                    "attributes" : {
                        "POSITION" : 5,
                        "TEXCOORD_0" : 6,
                        "TEXCOORD_1" : 7,
                        "NORMAL" : 8
                    },
                    "indices" : 9,
                    "material" : 0
                }
            ]
        },
        {
            "name" : "Branch02_2_Branch02-main_0",
            "primitives" : [
                {
                    "attributes" : {
                        "POSITION" : 10,
                        "TEXCOORD_0" : 11,
                        "TEXCOORD_1" : 12,
                        "NORMAL" : 13
                    },
                    "indices" : 14,
                    "material" : 0
                }
            ]
        },
        {
            "name" : "Leaf01_2_Leaf Main_0",
            "primitives" : [
                {
                    "attributes" : {
                        "POSITION" : 15,
                        "TEXCOORD_0" : 16,
                        "NORMAL" : 17
                    },
                    "indices" : 18,
                    "material" : 1
                }
            ]
        }
    ],
    "textures" : [
        {
            "sampler" : 0,
            "source" : 0
        },
        {
            "sampler" : 0,
            "source" : 1
        },
        {
            "sampler" : 0,
            "source" : 2
        },
        {
            "sampler" : 0,
            "source" : 3
        }
    ],
    "images" : [
        {
            "mimeType" : "image/png",
            "name" : "Bark01_SHD_baseColor",
            "uri" : "Bark01_SHD_baseColor.png"
        },
        {
            "mimeType" : "image/png",
            "name" : "Bark01_SHD_metallicRoughness",
            "uri" : "Bark01_SHD_metallicRoughness.png"
        },
        {
            "mimeType" : "image/png",
            "name" : "Leaf01_su_SHD_baseColor",
            "uri" : "Leaf01_su_SHD_baseColor.png"
        },
        {
            "mimeType" : "image/png",
            "name" : "Leaf01_su_SHD_metallicRoughness",
            "uri" : "Leaf01_su_SHD_metallicRoughness.png"
        }
    ],
    "accessors" : [
        {
            "bufferView" : 0,
            "componentType" : 5126,
            "count" : 174,
            "max" : [
                4.325665473937988,
                0.9049899578094482,
                4.294930934906006
            ],
            "min" : [
                -4.140350818634033,
                -185.412109375,
                -4.14893102645874
            ],
            "type" : "VEC3"
        },
        {
            "bufferView" : 1,
            "componentType" : 5126,
            "count" : 174,
            "type" : "VEC2"
        },
        {
            "bufferView" : 2,
            "componentType" : 5126,
            "count" : 174,
            "type" : "VEC2"
        },
        {
            "bufferView" : 3,
            "componentType" : 5126,
            "count" : 174,
            "type" : "VEC3"
        },
        {
            "bufferView" : 4,
            "componentType" : 5123,
            "count" : 837,
            "type" : "SCALAR"
        },
        {
            "bufferView" : 5,
            "componentType" : 5126,
            "count" : 3070,
            "max" : [
                28.51201820373535,
                -158.1162567138672,
                37.31891632080078
            ],
            "min" : [
                -33.57362365722656,
                -235.73165893554688,
                -28.838014602661133
            ],
            "type" : "VEC3"
        },
        {
            "bufferView" : 6,
            "componentType" : 5126,
            "count" : 3070,
            "type" : "VEC2"
        },
        {
            "bufferView" : 7,
            "componentType" : 5126,
            "count" : 3070,
            "type" : "VEC2"
        },
        {
            "bufferView" : 8,
            "componentType" : 5126,
            "count" : 3070,
            "type" : "VEC3"
        },
        {
            "bufferView" : 9,
            "componentType" : 5123,
            "count" : 15822,
            "type" : "SCALAR"
        },
        {
            "bufferView" : 10,
            "componentType" : 5126,
            "count" : 2541,
            "max" : [
                43.472408294677734,
                -162.24478149414062,
                45.7657470703125
            ],
            "min" : [
                -43.04160690307617,
                -257.0552978515625,
                -43.48971939086914
            ],
            "type" : "VEC3"
        },
        {
            "bufferView" : 11,
            "componentType" : 5126,
            "count" : 2541,
            "type" : "VEC2"
        },
        {
            "bufferView" : 12,
            "componentType" : 5126,
            "count" : 2541,
            "type" : "VEC2"
        },
        {
            "bufferView" : 13,
            "componentType" : 5126,
            "count" : 2541,
            "type" : "VEC3"
        },
        {
            "bufferView" : 14,
            "componentType" : 5123,
            "count" : 11556,
            "type" : "SCALAR"
        },
        {
            "bufferView" : 15,
            "componentType" : 5126,
            "count" : 10092,
            "max" : [
                60.61998748779297,
                -152.17422485351562,
                63.21382141113281
            ],
            "min" : [
                -60.565792083740234,
                -289.5587463378906,
                -61.08511734008789
            ],
            "type" : "VEC3"
        },
        {
            "bufferView" : 16,
            "componentType" : 5126,
            "count" : 10092,
            "type" : "VEC2"
        },
        {
            "bufferView" : 17,
            "componentType" : 5126,
            "count" : 10092,
            "type" : "VEC3"
        },
        {
            "bufferView" : 18,
            "componentType" : 5123,
            "count" : 20436,
            "type" : "SCALAR"
        }
    ],
    "bufferViews" : [
        {
            "buffer" : 0,
            "byteLength" : 2088,
            "byteOffset" : 0,
            "target" : 34962
        },
        {
            "buffer" : 0,
            "byteLength" : 1392,
            "byteOffset" : 2088,
            "target" : 34962
        },
        {
            "buffer" : 0,
            "byteLength" : 1392,
            "byteOffset" : 3480,
            "target" : 34962
        },
        {
            "buffer" : 0,
            "byteLength" : 2088,
            "byteOffset" : 4872,
            "target" : 34962
        },
        {
            "buffer" : 0,
            "byteLength" : 1674,
            "byteOffset" : 6960,
            "target" : 34963
        },
        {
            "buffer" : 0,
            "byteLength" : 36840,
            "byteOffset" : 8636,
            "target" : 34962
        },
        {
            "buffer" : 0,
            "byteLength" : 24560,
            "byteOffset" : 45476,
            "target" : 34962
        },
        {
            "buffer" : 0,
            "byteLength" : 24560,
            "byteOffset" : 70036,
            "target" : 34962
        },
        {
            "buffer" : 0,
            "byteLength" : 36840,
            "byteOffset" : 94596,
            "target" : 34962
        },
        {
            "buffer" : 0,
            "byteLength" : 31644,
            "byteOffset" : 131436,
            "target" : 34963
        },
        {
            "buffer" : 0,
            "byteLength" : 30492,
            "byteOffset" : 163080,
            "target" : 34962
        },
        {
            "buffer" : 0,
            "byteLength" : 20328,
            "byteOffset" : 193572,
            "target" : 34962
        },
        {
            "buffer" : 0,
            "byteLength" : 20328,
            "byteOffset" : 213900,
            "target" : 34962
        },
        {
            "buffer" : 0,
            "byteLength" : 30492,
            "byteOffset" : 234228,
            "target" : 34962
        },
        {
            "buffer" : 0,
            "byteLength" : 23112,
            "byteOffset" : 264720,
            "target" : 34963
        },
        {
            "buffer" : 0,
            "byteLength" : 121104,
            "byteOffset" : 287832,
            "target" : 34962
        },
        {
            "buffer" : 0,
            "byteLength" : 80736,
            "byteOffset" : 408936,
            "target" : 34962
        },
        {
            "buffer" : 0,
            "byteLength" : 121104,
            "byteOffset" : 489672,
            "target" : 34962
        },
        {
            "buffer" : 0,
            "byteLength" : 40872,
            "byteOffset" : 610776,
            "target" : 34963
        }
    ],
    "samplers" : [
        {
            "magFilter" : 9729,
            "minFilter" : 9987
        }
    ],
    "buffers" : [
        {
            "byteLength" : 651648,
            "uri" : "mdl_paprika_tree.bin"
        }
    ]
}
