{
	"asset":{
		"generator":"Khronos glTF Blender I/O v4.1.62",
		"version":"2.0"
	},
	"scene":0,
	"scenes":[
		{
			"name":"Scene",
			"nodes":[
				0
			]
		}
	],
	"nodes":[
		{
			"mesh":0,
			"name":"Cube",
			"scale":[
				0.07421651482582092,
				0.07515311241149902,
				0.05560390278697014
			],
			"translation":[
				-0.012702576816082,
				-0.21156975626945496,
				0.05175340175628662
			]
		}
	],
	"materials":[
		{
			"doubleSided":true,
			"name":"Material.002",
			"normalTexture":{
				"index":0
			},
			"pbrMetallicRoughness":{
				"baseColorTexture":{
					"index":1
				},
				"metallicFactor":0,
				"metallicRoughnessTexture":{
					"index":2
				}
			}
		},
		{
			"doubleSided":true,
			"name":"Material.005",
			"normalTexture":{
				"index":3
			},
			"pbrMetallicRoughness":{
				"baseColorTexture":{
					"index":4
				},
				"metallicFactor":0,
				"metallicRoughnessTexture":{
					"index":5
				}
			}
		},
		{
			"doubleSided":true,
			"name":"Material.006",
			"normalTexture":{
				"index":6
			},
			"pbrMetallicRoughness":{
				"baseColorTexture":{
					"index":7
				},
				"metallicFactor":0,
				"metallicRoughnessTexture":{
					"index":8
				}
			}
		}
	],
	"meshes":[
		{
			"name":"Cube.001",
			"primitives":[
				{
					"attributes":{
						"POSITION":0,
						"NORMAL":1,
						"TEXCOORD_0":2
					},
					"indices":3,
					"material":0
				},
				{
					"attributes":{
						"POSITION":4,
						"NORMAL":5,
						"TEXCOORD_0":6
					},
					"indices":7,
					"material":1
				},
				{
					"attributes":{
						"POSITION":8,
						"NORMAL":9,
						"TEXCOORD_0":10
					},
					"indices":11,
					"material":2
				}
			]
		}
	],
	"textures":[
		{
			"sampler":0,
			"source":0
		},
		{
			"sampler":0,
			"source":1
		},
		{
			"sampler":0,
			"source":2
		},
		{
			"sampler":0,
			"source":0
		},
		{
			"sampler":0,
			"source":3
		},
		{
			"sampler":0,
			"source":2
		},
		{
			"sampler":0,
			"source":0
		},
		{
			"sampler":0,
			"source":4
		},
		{
			"sampler":0,
			"source":2
		}
	],
	"images":[
		{
			"mimeType":"image/png",
			"name":"Bricks024_2K-PNG_NormalGL",
			"uri":"Bricks024_2K-PNG_NormalGL.png"
		},
		{
			"mimeType":"image/png",
			"name":"1",
			"uri":"1.png"
		},
		{
			"mimeType":"image/png",
			"name":"Bricks024_2K-PNG_Roughness",
			"uri":"Bricks024_2K-PNG_Roughness.png"
		},
		{
			"mimeType":"image/png",
			"name":"2",
			"uri":"2.png"
		},
		{
			"mimeType":"image/png",
			"name":"3",
			"uri":"3.png"
		}
	],
	"accessors":[
		{
			"bufferView":0,
			"componentType":5126,
			"count":181,
			"max":[
				8.013471603393555,
				8.761151313781738,
				12.104928016662598
			],
			"min":[
				-8.525320053100586,
				3.2082290649414062,
				-9.471612930297852
			],
			"type":"VEC3"
		},
		{
			"bufferView":1,
			"componentType":5126,
			"count":181,
			"type":"VEC3"
		},
		{
			"bufferView":2,
			"componentType":5126,
			"count":181,
			"type":"VEC2"
		},
		{
			"bufferView":3,
			"componentType":5123,
			"count":333,
			"type":"SCALAR"
		},
		{
			"bufferView":4,
			"componentType":5126,
			"count":582,
			"max":[
				8.013471603393555,
				8.190909385681152,
				12.104928016662598
			],
			"min":[
				-8.525320053100586,
				0.08822083473205566,
				-9.471612930297852
			],
			"type":"VEC3"
		},
		{
			"bufferView":5,
			"componentType":5126,
			"count":582,
			"type":"VEC3"
		},
		{
			"bufferView":6,
			"componentType":5126,
			"count":582,
			"type":"VEC2"
		},
		{
			"bufferView":7,
			"componentType":5123,
			"count":1116,
			"type":"SCALAR"
		},
		{
			"bufferView":8,
			"componentType":5126,
			"count":1181,
			"max":[
				8.166891098022461,
				9.691278457641602,
				12.23108959197998
			],
			"min":[
				-8.679112434387207,
				1.463346242904663,
				-9.478105545043945
			],
			"type":"VEC3"
		},
		{
			"bufferView":9,
			"componentType":5126,
			"count":1181,
			"type":"VEC3"
		},
		{
			"bufferView":10,
			"componentType":5126,
			"count":1181,
			"type":"VEC2"
		},
		{
			"bufferView":11,
			"componentType":5123,
			"count":2382,
			"type":"SCALAR"
		}
	],
	"bufferViews":[
		{
			"buffer":0,
			"byteLength":2172,
			"byteOffset":0,
			"target":34962
		},
		{
			"buffer":0,
			"byteLength":2172,
			"byteOffset":2172,
			"target":34962
		},
		{
			"buffer":0,
			"byteLength":1448,
			"byteOffset":4344,
			"target":34962
		},
		{
			"buffer":0,
			"byteLength":666,
			"byteOffset":5792,
			"target":34963
		},
		{
			"buffer":0,
			"byteLength":6984,
			"byteOffset":6460,
			"target":34962
		},
		{
			"buffer":0,
			"byteLength":6984,
			"byteOffset":13444,
			"target":34962
		},
		{
			"buffer":0,
			"byteLength":4656,
			"byteOffset":20428,
			"target":34962
		},
		{
			"buffer":0,
			"byteLength":2232,
			"byteOffset":25084,
			"target":34963
		},
		{
			"buffer":0,
			"byteLength":14172,
			"byteOffset":27316,
			"target":34962
		},
		{
			"buffer":0,
			"byteLength":14172,
			"byteOffset":41488,
			"target":34962
		},
		{
			"buffer":0,
			"byteLength":9448,
			"byteOffset":55660,
			"target":34962
		},
		{
			"buffer":0,
			"byteLength":4764,
			"byteOffset":65108,
			"target":34963
		}
	],
	"samplers":[
		{
			"magFilter":9729,
			"minFilter":9987
		}
	],
	"buffers":[
		{
			"byteLength":69872,
			"uri":"maze.bin"
		}
	]
}
