{
	"asset":{
		"generator":"Khronos glTF Blender I/O v3.5.30",
		"version":"2.0"
	},
	"extensionsUsed":[
		"KHR_materials_specular",
		"KHR_materials_ior"
	],
	"scene":0,
	"scenes":[
		{
			"name":"Scene",
			"nodes":[
				0
			]
		}
	],
	"nodes":[
		{
			"mesh":0,
			"name":"hour",
			"rotation":[
				0.7071068286895752,
				0,
				0,
				0.7071068286895752
			]
		}
	],
	"materials":[
		{
			"doubleSided":true,
			"extensions":{
				"KHR_materials_specular":{
					"specularColorFactor":[
						0.237135764977738,
						0.237135764977738,
						0.237135764977738
					]
				},
				"KHR_materials_ior":{
					"ior":1.4500000476837158
				}
			},
			"name":"Clocks",
			"normalTexture":{
				"index":0
			},
			"pbrMetallicRoughness":{
				"baseColorTexture":{
					"index":1
				},
				"metallicFactor":0,
				"roughnessFactor":0.75
			}
		}
	],
	"meshes":[
		{
			"name":"clock_arrow_hours_low_clock_arrow_hours_low.001_Cylinder.001",
			"primitives":[
				{
					"attributes":{
						"POSITION":0,
						"TEXCOORD_0":1,
						"NORMAL":2
					},
					"indices":3,
					"material":0
				}
			]
		}
	],
	"textures":[
		{
			"sampler":0,
			"source":0
		},
		{
			"sampler":0,
			"source":1
		}
	],
	"images":[
		{
			"mimeType":"image/png",
			"name":"clock_low_clock_Normal",
			"uri":"clock_low_clock_Normal.png"
		},
		{
			"mimeType":"image/png",
			"name":"clock_low_clock_BaseColor",
			"uri":"clock_low_clock_BaseColor.png"
		}
	],
	"accessors":[
		{
			"bufferView":0,
			"componentType":5126,
			"count":132,
			"max":[
				0.008526000194251537,
				0.0023879031650722027,
				0.008076000027358532
			],
			"min":[
				-0.008457999676465988,
				0.001656903070397675,
				-0.10364200174808502
			],
			"type":"VEC3"
		},
		{
			"bufferView":1,
			"componentType":5126,
			"count":132,
			"type":"VEC2"
		},
		{
			"bufferView":2,
			"componentType":5126,
			"count":132,
			"type":"VEC3"
		},
		{
			"bufferView":3,
			"componentType":5123,
			"count":480,
			"type":"SCALAR"
		}
	],
	"bufferViews":[
		{
			"buffer":0,
			"byteLength":1584,
			"byteOffset":0,
			"target":34962
		},
		{
			"buffer":0,
			"byteLength":1056,
			"byteOffset":1584,
			"target":34962
		},
		{
			"buffer":0,
			"byteLength":1584,
			"byteOffset":2640,
			"target":34962
		},
		{
			"buffer":0,
			"byteLength":960,
			"byteOffset":4224,
			"target":34963
		}
	],
	"samplers":[
		{
			"magFilter":9729,
			"minFilter":9987
		}
	],
	"buffers":[
		{
			"byteLength":5184,
			"uri":"hour_hand.bin"
		}
	]
}
