{
	"asset":{
		"generator":"Khronos glTF Blender I/O v4.2.57",
		"version":"2.0"
	},
	"scene":0,
	"scenes":[
		{
			"name":"Scene",
			"nodes":[
				4
			]
		}
	],
	"nodes":[
		{
			"mesh":0,
			"name":"meshNode_Material_u1_v1_0"
		},
		{
			"children":[
				0
			],
			"name":"meshNode"
		},
		{
			"children":[
				1
			],
			"name":"RootNode"
		},
		{
			"children":[
				2
			],
			"name":"buddha_50s.fbx",
			"rotation":[
				-1,
				0,
				0,
				2.681303512552802e-10
			]
		},
		{
			"children":[
				3
			],
			"name":"Sketchfab_model",
			"rotation":[
				0.5026383996009827,
				0.4973476231098175,
				-0.5004124045372009,
				0.4995872676372528
			],
			"translation":[
				-0.01741170883178711,
				0.40897831320762634,
				-0.26368939876556396
			]
		}
	],
	"materials":[
		{
			"doubleSided":true,
			"name":"Material.001",
			"pbrMetallicRoughness":{
				"baseColorTexture":{
					"index":0
				},
				"metallicFactor":0,
				"roughnessFactor":0.5
			}
		}
	],
	"meshes":[
		{
			"name":"meshNode_Material_u1_v1_0",
			"primitives":[
				{
					"attributes":{
						"POSITION":0,
						"NORMAL":1,
						"TEXCOORD_0":2
					},
					"indices":3
				},
				{
					"attributes":{
						"POSITION":4,
						"NORMAL":5,
						"TEXCOORD_0":6
					},
					"indices":7,
					"material":0
				}
			]
		}
	],
	"textures":[
		{
			"sampler":0,
			"source":0
		}
	],
	"images":[
		{
			"mimeType":"image/jpeg",
			"name":"tx_namo_bronze",
			"uri":"tx_namo_bronze.jpg"
		}
	],
	"accessors":[
		{
			"bufferView":0,
			"componentType":5126,
			"count":3948,
			"max":[
				3.6761717796325684,
				7.246850967407227,
				0.0079537034034729
			],
			"min":[
				-4.179594993591309,
				-7.434977054595947,
				-2.9531164169311523
			],
			"type":"VEC3"
		},
		{
			"bufferView":1,
			"componentType":5126,
			"count":3948,
			"type":"VEC3"
		},
		{
			"bufferView":2,
			"componentType":5126,
			"count":3948,
			"type":"VEC2"
		},
		{
			"bufferView":3,
			"componentType":5123,
			"count":5922,
			"type":"SCALAR"
		},
		{
			"bufferView":4,
			"componentType":5126,
			"count":32062,
			"max":[
				3.6761717796325684,
				7.246850967407227,
				16.842681884765625
			],
			"min":[
				-4.179594993591309,
				-7.434977054595947,
				-2.9512598514556885
			],
			"type":"VEC3"
		},
		{
			"bufferView":5,
			"componentType":5126,
			"count":32062,
			"type":"VEC3"
		},
		{
			"bufferView":6,
			"componentType":5126,
			"count":32062,
			"type":"VEC2"
		},
		{
			"bufferView":7,
			"componentType":5123,
			"count":111387,
			"type":"SCALAR"
		}
	],
	"bufferViews":[
		{
			"buffer":0,
			"byteLength":47376,
			"byteOffset":0,
			"target":34962
		},
		{
			"buffer":0,
			"byteLength":47376,
			"byteOffset":47376,
			"target":34962
		},
		{
			"buffer":0,
			"byteLength":31584,
			"byteOffset":94752,
			"target":34962
		},
		{
			"buffer":0,
			"byteLength":11844,
			"byteOffset":126336,
			"target":34963
		},
		{
			"buffer":0,
			"byteLength":384744,
			"byteOffset":138180,
			"target":34962
		},
		{
			"buffer":0,
			"byteLength":384744,
			"byteOffset":522924,
			"target":34962
		},
		{
			"buffer":0,
			"byteLength":256496,
			"byteOffset":907668,
			"target":34962
		},
		{
			"buffer":0,
			"byteLength":222774,
			"byteOffset":1164164,
			"target":34963
		}
	],
	"samplers":[
		{
			"magFilter":9729,
			"minFilter":9987
		}
	],
	"buffers":[
		{
			"byteLength":1386940,
			"uri":"md_namo_buddah.bin"
		}
	]
}
