{
	"asset":{
		"generator":"Khronos glTF Blender I/O v4.1.62",
		"version":"2.0"
	},
	"extensionsUsed":[
		"KHR_materials_specular"
	],
	"scene":0,
	"scenes":[
		{
			"name":"Scene",
			"nodes":[
				3
			]
		}
	],
	"nodes":[
		{
			"mesh":0,
			"name":"defaultMaterial"
		},
		{
			"children":[
				0
			],
			"name":"Cylinder.014",
			"rotation":[
				-0.70710688829422,
				0,
				0,
				0.7071066498756409
			],
			"scale":[
				100,
				99.9999771118164,
				99.9999771118164
			]
		},
		{
			"children":[
				1
			],
			"name":"Collada visual scene group",
			"rotation":[
				0.70710688829422,
				0,
				0,
				0.7071066498756409
			]
		},
		{
			"children":[
				2
			],
			"name":"Sketchfab_model",
			"rotation":[
				-0.70710688829422,
				0,
				0,
				0.7071066498756409
			]
		}
	],
	"materials":[
		{
			"doubleSided":true,
			"extensions":{
				"KHR_materials_specular":{
					"specularFactor":0
				}
			},
			"name":"material.009",
			"normalTexture":{
				"index":0
			},
			"pbrMetallicRoughness":{
				"baseColorTexture":{
					"index":1
				},
				"metallicFactor":0,
				"roughnessFactor":0.7863636016845703
			}
		}
	],
	"meshes":[
		{
			"name":"defaultMaterial.025",
			"primitives":[
				{
					"attributes":{
						"POSITION":0,
						"NORMAL":1,
						"TEXCOORD_0":2
					},
					"indices":3,
					"material":0
				}
			]
		}
	],
	"textures":[
		{
			"sampler":0,
			"source":0
		},
		{
			"sampler":0,
			"source":0
		}
	],
	"images":[
		{
			"mimeType":"image/jpeg",
			"name":"tx_hub_floorglobeColor",
			"uri":"tx_hub_floorglobeColor.jpg"
		}
	],
	"accessors":[
		{
			"bufferView":0,
			"componentType":5126,
			"count":8608,
			"max":[
				0.3960219919681549,
				0.3968049883842468,
				1.3793751001358032
			],
			"min":[
				-0.3960219919681549,
				-0.3968049883842468,
				-0.0030441954731941223
			],
			"type":"VEC3"
		},
		{
			"bufferView":1,
			"componentType":5126,
			"count":8608,
			"type":"VEC3"
		},
		{
			"bufferView":2,
			"componentType":5126,
			"count":8608,
			"type":"VEC2"
		},
		{
			"bufferView":3,
			"componentType":5123,
			"count":20355,
			"type":"SCALAR"
		}
	],
	"bufferViews":[
		{
			"buffer":0,
			"byteLength":103296,
			"byteOffset":0,
			"target":34962
		},
		{
			"buffer":0,
			"byteLength":103296,
			"byteOffset":103296,
			"target":34962
		},
		{
			"buffer":0,
			"byteLength":68864,
			"byteOffset":206592,
			"target":34962
		},
		{
			"buffer":0,
			"byteLength":40710,
			"byteOffset":275456,
			"target":34963
		}
	],
	"samplers":[
		{
			"magFilter":9729,
			"minFilter":9987
		}
	],
	"buffers":[
		{
			"byteLength":316168,
			"uri":"mdl_hub_floorglobe.bin"
		}
	]
}
