{
	"asset":{
		"generator":"Khronos glTF Blender I/O v4.1.62",
		"version":"2.0"
	},
	"extensionsUsed":[
		"KHR_materials_specular"
	],
	"scene":0,
	"scenes":[
		{
			"name":"Scene",
			"nodes":[
				0,
				1
			]
		}
	],
	"nodes":[
		{
			"mesh":0,
			"name":"Cylinder",
			"scale":[
				72.13268280029297,
				6.668668270111084,
				72.13268280029297
			],
			"translation":[
				0,
				-3.6507866382598877,
				0
			]
		},
		{
			"mesh":1,
			"name":"Cylinder.001",
			"scale":[
				-4.211205959320068,
				-1.2368710041046143,
				-4.211205959320068
			],
			"translation":[
				0,
				3.652374029159546,
				0
			]
		}
	],
	"materials":[
		{
			"doubleSided":true,
			"extensions":{
				"KHR_materials_specular":{
					"specularFactor":0
				}
			},
			"name":"Material.098",
			"normalTexture":{
				"index":0
			},
			"pbrMetallicRoughness":{
				"baseColorTexture":{
					"index":1
				},
				"metallicFactor":0,
				"roughnessFactor":0.7863636016845703
			}
		},
		{
			"doubleSided":true,
			"extensions":{
				"KHR_materials_specular":{
					"specularFactor":0
				}
			},
			"name":"Material.099",
			"pbrMetallicRoughness":{
				"baseColorTexture":{
					"index":2
				},
				"metallicFactor":0,
				"roughnessFactor":0.7863636016845703
			}
		}
	],
	"meshes":[
		{
			"name":"Cylinder.027",
			"primitives":[
				{
					"attributes":{
						"POSITION":0,
						"NORMAL":1,
						"TEXCOORD_0":2
					},
					"indices":3,
					"material":0
				},
				{
					"attributes":{
						"POSITION":4,
						"NORMAL":5,
						"TEXCOORD_0":6
					},
					"indices":7,
					"material":1
				}
			]
		},
		{
			"name":"Cylinder.028",
			"primitives":[
				{
					"attributes":{
						"POSITION":8,
						"NORMAL":9,
						"TEXCOORD_0":10
					},
					"indices":11,
					"material":0
				}
			]
		}
	],
	"textures":[
		{
			"sampler":0,
			"source":0
		},
		{
			"sampler":0,
			"source":1
		},
		{
			"sampler":0,
			"source":2
		}
	],
	"images":[
		{
			"mimeType":"image/png",
			"name":"tx_hub_blondeblackclockNormal",
			"uri":"tx_hub_blondeblackclockNormal.png"
		},
		{
			"mimeType":"image/png",
			"name":"tx_hub_blondeblackclockColor",
			"uri":"tx_hub_blondeblackclockColor.png"
		},
		{
			"mimeType":"image/png",
			"name":"tx_hub_blondeblackclockfaceColor",
			"uri":"tx_hub_blondeblackclockfaceColor.png"
		}
	],
	"accessors":[
		{
			"bufferView":0,
			"componentType":5126,
			"count":211,
			"max":[
				1,
				1.6526830196380615,
				1
			],
			"min":[
				-1,
				-1,
				-1
			],
			"type":"VEC3"
		},
		{
			"bufferView":1,
			"componentType":5126,
			"count":211,
			"type":"VEC3"
		},
		{
			"bufferView":2,
			"componentType":5126,
			"count":211,
			"type":"VEC2"
		},
		{
			"bufferView":3,
			"componentType":5123,
			"count":666,
			"type":"SCALAR"
		},
		{
			"bufferView":4,
			"componentType":5126,
			"count":32,
			"max":[
				0.9053551554679871,
				1.0072604417800903,
				0.9053551554679871
			],
			"min":[
				-0.9053551554679871,
				1.0072604417800903,
				-0.9053551554679871
			],
			"type":"VEC3"
		},
		{
			"bufferView":5,
			"componentType":5126,
			"count":32,
			"type":"VEC3"
		},
		{
			"bufferView":6,
			"componentType":5126,
			"count":32,
			"type":"VEC2"
		},
		{
			"bufferView":7,
			"componentType":5123,
			"count":90,
			"type":"SCALAR"
		},
		{
			"bufferView":8,
			"componentType":5126,
			"count":130,
			"max":[
				1,
				1,
				1
			],
			"min":[
				-1,
				-1,
				-1
			],
			"type":"VEC3"
		},
		{
			"bufferView":9,
			"componentType":5126,
			"count":130,
			"type":"VEC3"
		},
		{
			"bufferView":10,
			"componentType":5126,
			"count":130,
			"type":"VEC2"
		},
		{
			"bufferView":11,
			"componentType":5123,
			"count":372,
			"type":"SCALAR"
		}
	],
	"bufferViews":[
		{
			"buffer":0,
			"byteLength":2532,
			"byteOffset":0,
			"target":34962
		},
		{
			"buffer":0,
			"byteLength":2532,
			"byteOffset":2532,
			"target":34962
		},
		{
			"buffer":0,
			"byteLength":1688,
			"byteOffset":5064,
			"target":34962
		},
		{
			"buffer":0,
			"byteLength":1332,
			"byteOffset":6752,
			"target":34963
		},
		{
			"buffer":0,
			"byteLength":384,
			"byteOffset":8084,
			"target":34962
		},
		{
			"buffer":0,
			"byteLength":384,
			"byteOffset":8468,
			"target":34962
		},
		{
			"buffer":0,
			"byteLength":256,
			"byteOffset":8852,
			"target":34962
		},
		{
			"buffer":0,
			"byteLength":180,
			"byteOffset":9108,
			"target":34963
		},
		{
			"buffer":0,
			"byteLength":1560,
			"byteOffset":9288,
			"target":34962
		},
		{
			"buffer":0,
			"byteLength":1560,
			"byteOffset":10848,
			"target":34962
		},
		{
			"buffer":0,
			"byteLength":1040,
			"byteOffset":12408,
			"target":34962
		},
		{
			"buffer":0,
			"byteLength":744,
			"byteOffset":13448,
			"target":34963
		}
	],
	"samplers":[
		{
			"magFilter":9729,
			"minFilter":9987
		}
	],
	"buffers":[
		{
			"byteLength":14192,
			"uri":"mdl_hub_blondeblackclock.bin"
		}
	]
}
