{
	"asset":{
		"generator":"Khronos glTF Blender I/O v4.2.57",
		"version":"2.0"
	},
	"extensionsUsed":[
		"KHR_materials_specular"
	],
	"scene":0,
	"scenes":[
		{
			"name":"Scene",
			"nodes":[
				0
			]
		}
	],
	"nodes":[
		{
			"mesh":0,
			"name":"newspaper_1"
		}
	],
	"materials":[
		{
			"doubleSided":true,
			"extensions":{
				"KHR_materials_specular":{
					"specularFactor":0
				}
			},
			"name":"Material_Newspaper_Stack",
			"normalTexture":{
				"index":0
			},
			"pbrMetallicRoughness":{
				"baseColorTexture":{
					"index":1
				},
				"metallicFactor":0,
				"roughnessFactor":0.75
			}
		}
	],
	"meshes":[
		{
			"name":"Mesh",
			"primitives":[
				{
					"attributes":{
						"POSITION":0,
						"NORMAL":1,
						"TEXCOORD_0":2
					},
					"indices":3,
					"material":0
				}
			]
		}
	],
	"textures":[
		{
			"sampler":0,
			"source":0
		},
		{
			"sampler":0,
			"source":1
		}
	],
	"images":[
		{
			"mimeType":"image/png",
			"name":"tx_brush_Paper003Normal",
			"uri":"tx_brush_Paper003Normal.png"
		},
		{
			"mimeType":"image/png",
			"name":"tx_hub_newspaperstack",
			"uri":"tx_hub_newspaperstack.png"
		}
	],
	"accessors":[
		{
			"bufferView":0,
			"componentType":5126,
			"count":1641,
			"max":[
				1.1052366495132446,
				0.6300278902053833,
				0.9490431547164917
			],
			"min":[
				-1.0879658460617065,
				-0.1037263348698616,
				-0.9582515954971313
			],
			"type":"VEC3"
		},
		{
			"bufferView":1,
			"componentType":5126,
			"count":1641,
			"type":"VEC3"
		},
		{
			"bufferView":2,
			"componentType":5126,
			"count":1641,
			"type":"VEC2"
		},
		{
			"bufferView":3,
			"componentType":5123,
			"count":3243,
			"type":"SCALAR"
		}
	],
	"bufferViews":[
		{
			"buffer":0,
			"byteLength":19692,
			"byteOffset":0,
			"target":34962
		},
		{
			"buffer":0,
			"byteLength":19692,
			"byteOffset":19692,
			"target":34962
		},
		{
			"buffer":0,
			"byteLength":13128,
			"byteOffset":39384,
			"target":34962
		},
		{
			"buffer":0,
			"byteLength":6486,
			"byteOffset":52512,
			"target":34963
		}
	],
	"samplers":[
		{
			"magFilter":9729,
			"minFilter":9987
		}
	],
	"buffers":[
		{
			"byteLength":59000,
			"uri":"mdl_brush_newsstack.bin"
		}
	]
}
