{
	"asset":{
		"generator":"Khronos glTF Blender I/O v4.0.44",
		"version":"2.0"
	},
	"scene":0,
	"scenes":[
		{
			"name":"Scene",
			"nodes":[
				4
			]
		}
	],
	"nodes":[
		{
			"mesh":0,
			"name":"Stone_WallFragment_Stone_WallFragment_0"
		},
		{
			"children":[
				0
			],
			"name":"Stone_WallFragment"
		},
		{
			"children":[
				1
			],
			"name":"RootNode"
		},
		{
			"children":[
				2
			],
			"name":"Stone WallFragment.fbx",
			"rotation":[
				0.70710688829422,
				0,
				0,
				0.7071066498756409
			]
		},
		{
			"children":[
				3
			],
			"name":"Sketchfab_model",
			"rotation":[
				-0.70710688829422,
				0,
				0,
				0.7071066498756409
			]
		}
	],
	"materials":[
		{
			"doubleSided":true,
			"name":"Stone_WallFragment",
			"normalTexture":{
				"index":0
			},
			"pbrMetallicRoughness":{
				"baseColorTexture":{
					"index":1
				},
				"metallicFactor":0,
				"roughnessFactor":0.7064416408538818
			}
		}
	],
	"meshes":[
		{
			"name":"Stone_WallFragment_Stone_WallFragment_0",
			"primitives":[
				{
					"attributes":{
						"POSITION":0,
						"NORMAL":1,
						"TEXCOORD_0":2,
						"TEXCOORD_1":3
					},
					"indices":4,
					"material":0
				}
			]
		}
	],
	"textures":[
		{
			"sampler":0,
			"source":0
		},
		{
			"sampler":0,
			"source":1
		}
	],
	"images":[
		{
			"mimeType":"image/png",
			"name":"tx_Krank_stone_wall_n",
			"uri":"tx_Krank_stone_wall_n.png"
		},
		{
			"mimeType":"image/png",
			"name":"tx_Krank_stone_wall_a",
			"uri":"tx_Krank_stone_wall_a.png"
		}
	],
	"accessors":[
		{
			"bufferView":0,
			"componentType":5126,
			"count":6368,
			"max":[
				174.52281188964844,
				136.15513610839844,
				15.021315574645996
			],
			"min":[
				-177.18435668945312,
				-0.5681154131889343,
				-28.836990356445312
			],
			"type":"VEC3"
		},
		{
			"bufferView":1,
			"componentType":5126,
			"count":6368,
			"type":"VEC3"
		},
		{
			"bufferView":2,
			"componentType":5126,
			"count":6368,
			"type":"VEC2"
		},
		{
			"bufferView":3,
			"componentType":5126,
			"count":6368,
			"type":"VEC2"
		},
		{
			"bufferView":4,
			"componentType":5123,
			"count":6780,
			"type":"SCALAR"
		}
	],
	"bufferViews":[
		{
			"buffer":0,
			"byteLength":76416,
			"byteOffset":0,
			"target":34962
		},
		{
			"buffer":0,
			"byteLength":76416,
			"byteOffset":76416,
			"target":34962
		},
		{
			"buffer":0,
			"byteLength":50944,
			"byteOffset":152832,
			"target":34962
		},
		{
			"buffer":0,
			"byteLength":50944,
			"byteOffset":203776,
			"target":34962
		},
		{
			"buffer":0,
			"byteLength":13560,
			"byteOffset":254720,
			"target":34963
		}
	],
	"samplers":[
		{
			"magFilter":9729,
			"minFilter":9987
		}
	],
	"buffers":[
		{
			"byteLength":268280,
			"uri":"mdl_Krank_stone_wall.bin"
		}
	]
}
