{
	"asset":{
		"generator":"Khronos glTF Blender I/O v4.2.57",
		"version":"2.0"
	},
	"extensionsUsed":[
		"KHR_materials_specular",
		"KHR_materials_ior"
	],
	"scene":0,
	"scenes":[
		{
			"name":"Scene",
			"nodes":[
				14
			]
		}
	],
	"nodes":[
		{
			"name":"Chair Arc"
		},
		{
			"name":"Chair Details"
		},
		{
			"name":"Leather Seating"
		},
		{
			"name":"Leather Top"
		},
		{
			"mesh":0,
			"name":"Wood  Front_Wood  Front_0.001"
		},
		{
			"mesh":1,
			"name":"Wood  Front_Wood  Front_0.002"
		},
		{
			"mesh":2,
			"name":"Wood  Front_Wood  Front_0.003"
		},
		{
			"mesh":3,
			"name":"Wood  Front_Wood  Front_0.004"
		},
		{
			"mesh":4,
			"name":"Wood  Front_Wood  Front_0.005"
		},
		{
			"mesh":5,
			"name":"Wood  Front_Wood  Front_0.006"
		},
		{
			"children":[
				4,
				5,
				6,
				7,
				8,
				9
			],
			"name":"Wood  Front"
		},
		{
			"name":"Wood Legs"
		},
		{
			"children":[
				0,
				1,
				2,
				3,
				10,
				11
			],
			"name":"RootNode"
		},
		{
			"children":[
				12
			],
			"name":"f27e29a9dbc3451abce397231ef49a48.fbx"
		},
		{
			"children":[
				13
			],
			"name":"Sketchfab_model"
		}
	],
	"materials":[
		{
			"doubleSided":true,
			"extensions":{
				"KHR_materials_specular":{
					"specularFactor":0
				}
			},
			"name":"Chair_Arc.003",
			"normalTexture":{
				"index":0
			},
			"pbrMetallicRoughness":{
				"baseColorTexture":{
					"index":1
				},
				"metallicFactor":0,
				"roughnessFactor":0.8227272629737854
			}
		},
		{
			"doubleSided":true,
			"extensions":{
				"KHR_materials_specular":{
					"specularFactor":0,
					"specularColorFactor":[
						0.6850394010543823,
						0.6850394010543823,
						0.6850394010543823
					]
				},
				"KHR_materials_ior":{
					"ior":1
				}
			},
			"name":"Leather_Seating.003",
			"normalTexture":{
				"index":2
			},
			"pbrMetallicRoughness":{
				"baseColorTexture":{
					"index":3
				},
				"metallicFactor":0,
				"roughnessFactor":0.7666666507720947
			}
		},
		{
			"doubleSided":true,
			"extensions":{
				"KHR_materials_specular":{
					"specularFactor":0
				}
			},
			"name":"Wood__Front.003",
			"normalTexture":{
				"index":4
			},
			"pbrMetallicRoughness":{
				"baseColorTexture":{
					"index":5
				},
				"metallicFactor":0,
				"roughnessFactor":0.7954545021057129
			}
		},
		{
			"doubleSided":true,
			"extensions":{
				"KHR_materials_specular":{
					"specularFactor":0,
					"specularColorFactor":[
						0.7165354490280151,
						0.7165354490280151,
						0.7165354490280151
					]
				}
			},
			"name":"Leather_Top.003",
			"normalTexture":{
				"index":6
			},
			"pbrMetallicRoughness":{
				"baseColorTexture":{
					"index":7
				},
				"metallicFactor":0,
				"roughnessFactor":0.8015873432159424
			}
		},
		{
			"doubleSided":true,
			"extensions":{
				"KHR_materials_specular":{
					"specularFactor":0
				}
			},
			"name":"Wood_Legs.003",
			"normalTexture":{
				"index":8
			},
			"pbrMetallicRoughness":{
				"baseColorTexture":{
					"index":9
				},
				"metallicFactor":0,
				"roughnessFactor":0.7227272987365723
			}
		},
		{
			"doubleSided":true,
			"extensions":{
				"KHR_materials_specular":{
					"specularFactor":0
				}
			},
			"name":"Chair_Details.003",
			"normalTexture":{
				"index":10
			},
			"pbrMetallicRoughness":{
				"baseColorTexture":{
					"index":11
				},
				"metallicFactor":0,
				"roughnessFactor":0.8272727131843567
			}
		}
	],
	"meshes":[
		{
			"name":"Wood  Front_Wood  Front_0.007",
			"primitives":[
				{
					"attributes":{
						"POSITION":0,
						"NORMAL":1,
						"TEXCOORD_0":2
					},
					"indices":3,
					"material":0
				}
			]
		},
		{
			"name":"Wood  Front_Wood  Front_0.008",
			"primitives":[
				{
					"attributes":{
						"POSITION":4,
						"NORMAL":5,
						"TEXCOORD_0":6
					},
					"indices":7,
					"material":1
				}
			]
		},
		{
			"name":"Wood  Front_Wood  Front_0.009",
			"primitives":[
				{
					"attributes":{
						"POSITION":8,
						"NORMAL":9,
						"TEXCOORD_0":10
					},
					"indices":11,
					"material":2
				}
			]
		},
		{
			"name":"Wood  Front_Wood  Front_0.005",
			"primitives":[
				{
					"attributes":{
						"POSITION":12,
						"NORMAL":13,
						"TEXCOORD_0":14
					},
					"indices":15,
					"material":3
				}
			]
		},
		{
			"name":"Wood  Front_Wood  Front_0.010",
			"primitives":[
				{
					"attributes":{
						"POSITION":16,
						"NORMAL":17,
						"TEXCOORD_0":18
					},
					"indices":19,
					"material":4
				}
			]
		},
		{
			"name":"Wood  Front_Wood  Front_0.011",
			"primitives":[
				{
					"attributes":{
						"POSITION":20,
						"NORMAL":21,
						"TEXCOORD_0":22
					},
					"indices":23,
					"material":5
				}
			]
		}
	],
	"textures":[
		{
			"sampler":0,
			"source":0
		},
		{
			"sampler":0,
			"source":1
		},
		{
			"sampler":0,
			"source":2
		},
		{
			"sampler":0,
			"source":3
		},
		{
			"sampler":0,
			"source":4
		},
		{
			"sampler":0,
			"source":5
		},
		{
			"sampler":0,
			"source":6
		},
		{
			"sampler":0,
			"source":7
		},
		{
			"sampler":0,
			"source":8
		},
		{
			"sampler":0,
			"source":9
		},
		{
			"sampler":0,
			"source":10
		},
		{
			"sampler":0,
			"source":11
		}
	],
	"images":[
		{
			"mimeType":"image/png",
			"name":"tx_hub_leatherofficechairNormal4",
			"uri":"tx_hub_leatherofficechairNormal4.png"
		},
		{
			"mimeType":"image/png",
			"name":"tx_hub_leatherofficechairColor4",
			"uri":"tx_hub_leatherofficechairColor4.png"
		},
		{
			"mimeType":"image/png",
			"name":"tx_hub_leatherofficechairColor1",
			"uri":"tx_hub_leatherofficechairColor1.png"
		},
		{
			"mimeType":"image/png",
			"name":"tx_hub_leatherofficechairColor1",
			"uri":"tx_hub_leatherofficechairColor1-1.png"
		},
		{
			"mimeType":"image/png",
			"name":"tx_hub_leatherofficechairNormal3",
			"uri":"tx_hub_leatherofficechairNormal3.png"
		},
		{
			"mimeType":"image/png",
			"name":"tx_hub_leatherofficechairColor3",
			"uri":"tx_hub_leatherofficechairColor3.png"
		},
		{
			"mimeType":"image/png",
			"name":"tx_brush_deskchairtopnormal",
			"uri":"tx_brush_deskchairtopnormal.png"
		},
		{
			"mimeType":"image/png",
			"name":"tx_hub_leatherofficechairColor2",
			"uri":"tx_hub_leatherofficechairColor2.png"
		},
		{
			"mimeType":"image/png",
			"name":"tx_hub_leatherofficechairNormal6",
			"uri":"tx_hub_leatherofficechairNormal6.png"
		},
		{
			"mimeType":"image/png",
			"name":"tx_hub_leatherofficechairColor6",
			"uri":"tx_hub_leatherofficechairColor6.png"
		},
		{
			"mimeType":"image/png",
			"name":"tx_hub_leatherofficechairNormal5",
			"uri":"tx_hub_leatherofficechairNormal5.png"
		},
		{
			"mimeType":"image/png",
			"name":"tx_hub_leatherofficechairColor5",
			"uri":"tx_hub_leatherofficechairColor5.png"
		}
	],
	"accessors":[
		{
			"bufferView":0,
			"componentType":5126,
			"count":3523,
			"max":[
				1.4298607110977173,
				0.5422992706298828,
				1.4299955368041992
			],
			"min":[
				-1.429919719696045,
				-0.644357442855835,
				-0.07867240905761719
			],
			"type":"VEC3"
		},
		{
			"bufferView":1,
			"componentType":5126,
			"count":3523,
			"type":"VEC3"
		},
		{
			"bufferView":2,
			"componentType":5126,
			"count":3523,
			"type":"VEC2"
		},
		{
			"bufferView":3,
			"componentType":5123,
			"count":4947,
			"type":"SCALAR"
		},
		{
			"bufferView":4,
			"componentType":5126,
			"count":51,
			"max":[
				1.1816521883010864,
				-0.06347987055778503,
				1.236754059791565
			],
			"min":[
				-1.1752084493637085,
				-0.6330530643463135,
				-0.7400638461112976
			],
			"type":"VEC3"
		},
		{
			"bufferView":5,
			"componentType":5126,
			"count":51,
			"type":"VEC3"
		},
		{
			"bufferView":6,
			"componentType":5126,
			"count":51,
			"type":"VEC2"
		},
		{
			"bufferView":7,
			"componentType":5123,
			"count":249,
			"type":"SCALAR"
		},
		{
			"bufferView":8,
			"componentType":5126,
			"count":259,
			"max":[
				1.437721610069275,
				0.8066077828407288,
				0.1438770592212677
			],
			"min":[
				-1.4356498718261719,
				-0.662382960319519,
				-0.8119786977767944
			],
			"type":"VEC3"
		},
		{
			"bufferView":9,
			"componentType":5126,
			"count":259,
			"type":"VEC3"
		},
		{
			"bufferView":10,
			"componentType":5126,
			"count":259,
			"type":"VEC2"
		},
		{
			"bufferView":11,
			"componentType":5123,
			"count":360,
			"type":"SCALAR"
		},
		{
			"bufferView":12,
			"componentType":5126,
			"count":482,
			"max":[
				1.6152909994125366,
				0.9476538896560669,
				1.5807987451553345
			],
			"min":[
				-1.6134058237075806,
				0.3798302710056305,
				-0.11275871098041534
			],
			"type":"VEC3"
		},
		{
			"bufferView":13,
			"componentType":5126,
			"count":482,
			"type":"VEC3"
		},
		{
			"bufferView":14,
			"componentType":5126,
			"count":482,
			"type":"VEC2"
		},
		{
			"bufferView":15,
			"componentType":5123,
			"count":1812,
			"type":"SCALAR"
		},
		{
			"bufferView":16,
			"componentType":5126,
			"count":2812,
			"max":[
				1.3565436601638794,
				-0.6163359880447388,
				1.2489356994628906
			],
			"min":[
				-1.3274575471878052,
				-2.3742270469665527,
				-0.6709169745445251
			],
			"type":"VEC3"
		},
		{
			"bufferView":17,
			"componentType":5126,
			"count":2812,
			"type":"VEC3"
		},
		{
			"bufferView":18,
			"componentType":5126,
			"count":2812,
			"type":"VEC2"
		},
		{
			"bufferView":19,
			"componentType":5123,
			"count":6744,
			"type":"SCALAR"
		},
		{
			"bufferView":20,
			"componentType":5126,
			"count":9601,
			"max":[
				1.4141305685043335,
				0.4226410388946533,
				1.4133418798446655
			],
			"min":[
				-1.4223439693450928,
				-0.531089186668396,
				-0.028447449207305908
			],
			"type":"VEC3"
		},
		{
			"bufferView":21,
			"componentType":5126,
			"count":9601,
			"type":"VEC3"
		},
		{
			"bufferView":22,
			"componentType":5126,
			"count":9601,
			"type":"VEC2"
		},
		{
			"bufferView":23,
			"componentType":5123,
			"count":24279,
			"type":"SCALAR"
		}
	],
	"bufferViews":[
		{
			"buffer":0,
			"byteLength":42276,
			"byteOffset":0,
			"target":34962
		},
		{
			"buffer":0,
			"byteLength":42276,
			"byteOffset":42276,
			"target":34962
		},
		{
			"buffer":0,
			"byteLength":28184,
			"byteOffset":84552,
			"target":34962
		},
		{
			"buffer":0,
			"byteLength":9894,
			"byteOffset":112736,
			"target":34963
		},
		{
			"buffer":0,
			"byteLength":612,
			"byteOffset":122632,
			"target":34962
		},
		{
			"buffer":0,
			"byteLength":612,
			"byteOffset":123244,
			"target":34962
		},
		{
			"buffer":0,
			"byteLength":408,
			"byteOffset":123856,
			"target":34962
		},
		{
			"buffer":0,
			"byteLength":498,
			"byteOffset":124264,
			"target":34963
		},
		{
			"buffer":0,
			"byteLength":3108,
			"byteOffset":124764,
			"target":34962
		},
		{
			"buffer":0,
			"byteLength":3108,
			"byteOffset":127872,
			"target":34962
		},
		{
			"buffer":0,
			"byteLength":2072,
			"byteOffset":130980,
			"target":34962
		},
		{
			"buffer":0,
			"byteLength":720,
			"byteOffset":133052,
			"target":34963
		},
		{
			"buffer":0,
			"byteLength":5784,
			"byteOffset":133772,
			"target":34962
		},
		{
			"buffer":0,
			"byteLength":5784,
			"byteOffset":139556,
			"target":34962
		},
		{
			"buffer":0,
			"byteLength":3856,
			"byteOffset":145340,
			"target":34962
		},
		{
			"buffer":0,
			"byteLength":3624,
			"byteOffset":149196,
			"target":34963
		},
		{
			"buffer":0,
			"byteLength":33744,
			"byteOffset":152820,
			"target":34962
		},
		{
			"buffer":0,
			"byteLength":33744,
			"byteOffset":186564,
			"target":34962
		},
		{
			"buffer":0,
			"byteLength":22496,
			"byteOffset":220308,
			"target":34962
		},
		{
			"buffer":0,
			"byteLength":13488,
			"byteOffset":242804,
			"target":34963
		},
		{
			"buffer":0,
			"byteLength":115212,
			"byteOffset":256292,
			"target":34962
		},
		{
			"buffer":0,
			"byteLength":115212,
			"byteOffset":371504,
			"target":34962
		},
		{
			"buffer":0,
			"byteLength":76808,
			"byteOffset":486716,
			"target":34962
		},
		{
			"buffer":0,
			"byteLength":48558,
			"byteOffset":563524,
			"target":34963
		}
	],
	"samplers":[
		{
			"magFilter":9729,
			"minFilter":9987
		}
	],
	"buffers":[
		{
			"byteLength":612084,
			"uri":"mdl_brush_deskchair.bin"
		}
	]
}
