{
	"asset":{
		"generator":"Khronos glTF Blender I/O v4.1.62",
		"version":"2.0"
	},
	"extensionsUsed":[
		"KHR_materials_specular"
	],
	"scene":0,
	"scenes":[
		{
			"name":"Scene",
			"nodes":[
				5
			]
		}
	],
	"nodes":[
		{
			"mesh":0,
			"name":"Object_2"
		},
		{
			"mesh":1,
			"name":"Object_3"
		},
		{
			"mesh":2,
			"name":"Object_4"
		},
		{
			"mesh":3,
			"name":"Object_5"
		},
		{
			"children":[
				0,
				1,
				2,
				3
			],
			"name":"a93ed31e205c4588be42305d829b5065.obj.cleaner.materialmerger.gle"
		},
		{
			"children":[
				4
			],
			"name":"Sketchfab_model",
			"rotation":[
				-0.70710688829422,
				0,
				0,
				0.7071066498756409
			]
		}
	],
	"materials":[
		{
			"doubleSided":true,
			"extensions":{
				"KHR_materials_specular":{
					"specularFactor":0
				}
			},
			"name":"material.010",
			"normalTexture":{
				"index":0
			},
			"pbrMetallicRoughness":{
				"baseColorTexture":{
					"index":1
				},
				"metallicFactor":0,
				"roughnessFactor":0.9090908765792847
			}
		},
		{
			"doubleSided":true,
			"extensions":{
				"KHR_materials_specular":{
					"specularFactor":0
				}
			},
			"name":"Trim",
			"normalTexture":{
				"index":2
			},
			"pbrMetallicRoughness":{
				"baseColorTexture":{
					"index":3
				},
				"metallicFactor":0,
				"roughnessFactor":0.7454545497894287
			}
		},
		{
			"doubleSided":true,
			"extensions":{
				"KHR_materials_specular":{
					"specularFactor":0
				}
			},
			"name":"teapot.003",
			"normalTexture":{
				"index":4
			},
			"pbrMetallicRoughness":{
				"baseColorTexture":{
					"index":5
				},
				"metallicFactor":0,
				"roughnessFactor":0.7545454502105713
			}
		}
	],
	"meshes":[
		{
			"name":"Object_0.034",
			"primitives":[
				{
					"attributes":{
						"POSITION":0,
						"NORMAL":1,
						"TEXCOORD_0":2
					},
					"indices":3,
					"material":0
				}
			]
		},
		{
			"name":"Object_1.014",
			"primitives":[
				{
					"attributes":{
						"POSITION":4,
						"NORMAL":5,
						"TEXCOORD_0":6
					},
					"indices":7,
					"material":1
				}
			]
		},
		{
			"name":"Object_2.007",
			"primitives":[
				{
					"attributes":{
						"POSITION":8,
						"NORMAL":9,
						"TEXCOORD_0":10
					},
					"indices":11,
					"material":1
				}
			]
		},
		{
			"name":"Object_3.013",
			"primitives":[
				{
					"attributes":{
						"POSITION":12,
						"NORMAL":13,
						"TEXCOORD_0":14
					},
					"indices":15,
					"material":2
				}
			]
		}
	],
	"textures":[
		{
			"sampler":0,
			"source":0
		},
		{
			"sampler":0,
			"source":1
		},
		{
			"sampler":0,
			"source":2
		},
		{
			"sampler":0,
			"source":3
		},
		{
			"sampler":0,
			"source":0
		},
		{
			"sampler":0,
			"source":4
		}
	],
	"images":[
		{
			"mimeType":"image/png",
			"name":"tx_hub_teapotNormal",
			"uri":"tx_hub_teapotNormal.png"
		},
		{
			"mimeType":"image/png",
			"name":"tx_hub_teapotColor",
			"uri":"tx_hub_teapotColor.png"
		},
		{
			"mimeType":"image/png",
			"name":"tx_hub_TrimWoodNormal",
			"uri":"tx_hub_TrimWoodNormal.png"
		},
		{
			"mimeType":"image/png",
			"name":"tx_hub_TrimWoodColor",
			"uri":"tx_hub_TrimWoodColor.png"
		},
		{
			"mimeType":"image/png",
			"name":"tx_hub_teapot_handleColor",
			"uri":"tx_hub_teapot_handleColor.png"
		}
	],
	"accessors":[
		{
			"bufferView":0,
			"componentType":5126,
			"count":311,
			"max":[
				-0.39798301458358765,
				-0.14182299375534058,
				0.3837830126285553
			],
			"min":[
				-1.0255680084228516,
				-1.210744023323059,
				-0.5870519876480103
			],
			"type":"VEC3"
		},
		{
			"bufferView":1,
			"componentType":5126,
			"count":311,
			"type":"VEC3"
		},
		{
			"bufferView":2,
			"componentType":5126,
			"count":311,
			"type":"VEC2"
		},
		{
			"bufferView":3,
			"componentType":5123,
			"count":1452,
			"type":"SCALAR"
		},
		{
			"bufferView":4,
			"componentType":5126,
			"count":97,
			"max":[
				1.2788652181625366,
				1.761027216911316,
				-0.551399290561676
			],
			"min":[
				-1.2788652181625366,
				-1.7598530054092407,
				-0.9252505302429199
			],
			"type":"VEC3"
		},
		{
			"bufferView":5,
			"componentType":5126,
			"count":97,
			"type":"VEC3"
		},
		{
			"bufferView":6,
			"componentType":5126,
			"count":97,
			"type":"VEC2"
		},
		{
			"bufferView":7,
			"componentType":5123,
			"count":294,
			"type":"SCALAR"
		},
		{
			"bufferView":8,
			"componentType":5126,
			"count":211,
			"max":[
				0.7856709957122803,
				2.0307390689849854,
				0.05962799862027168
			],
			"min":[
				-0.9966729879379272,
				-0.31028300523757935,
				-0.591513991355896
			],
			"type":"VEC3"
		},
		{
			"bufferView":9,
			"componentType":5126,
			"count":211,
			"type":"VEC3"
		},
		{
			"bufferView":10,
			"componentType":5126,
			"count":211,
			"type":"VEC2"
		},
		{
			"bufferView":11,
			"componentType":5123,
			"count":888,
			"type":"SCALAR"
		},
		{
			"bufferView":12,
			"componentType":5126,
			"count":957,
			"max":[
				1.2042499780654907,
				0.6678919792175293,
				1.3135210275650024
			],
			"min":[
				-0.6572269797325134,
				-1.4206290245056152,
				-0.5919299721717834
			],
			"type":"VEC3"
		},
		{
			"bufferView":13,
			"componentType":5126,
			"count":957,
			"type":"VEC3"
		},
		{
			"bufferView":14,
			"componentType":5126,
			"count":957,
			"type":"VEC2"
		},
		{
			"bufferView":15,
			"componentType":5123,
			"count":4530,
			"type":"SCALAR"
		}
	],
	"bufferViews":[
		{
			"buffer":0,
			"byteLength":3732,
			"byteOffset":0,
			"target":34962
		},
		{
			"buffer":0,
			"byteLength":3732,
			"byteOffset":3732,
			"target":34962
		},
		{
			"buffer":0,
			"byteLength":2488,
			"byteOffset":7464,
			"target":34962
		},
		{
			"buffer":0,
			"byteLength":2904,
			"byteOffset":9952,
			"target":34963
		},
		{
			"buffer":0,
			"byteLength":1164,
			"byteOffset":12856,
			"target":34962
		},
		{
			"buffer":0,
			"byteLength":1164,
			"byteOffset":14020,
			"target":34962
		},
		{
			"buffer":0,
			"byteLength":776,
			"byteOffset":15184,
			"target":34962
		},
		{
			"buffer":0,
			"byteLength":588,
			"byteOffset":15960,
			"target":34963
		},
		{
			"buffer":0,
			"byteLength":2532,
			"byteOffset":16548,
			"target":34962
		},
		{
			"buffer":0,
			"byteLength":2532,
			"byteOffset":19080,
			"target":34962
		},
		{
			"buffer":0,
			"byteLength":1688,
			"byteOffset":21612,
			"target":34962
		},
		{
			"buffer":0,
			"byteLength":1776,
			"byteOffset":23300,
			"target":34963
		},
		{
			"buffer":0,
			"byteLength":11484,
			"byteOffset":25076,
			"target":34962
		},
		{
			"buffer":0,
			"byteLength":11484,
			"byteOffset":36560,
			"target":34962
		},
		{
			"buffer":0,
			"byteLength":7656,
			"byteOffset":48044,
			"target":34962
		},
		{
			"buffer":0,
			"byteLength":9060,
			"byteOffset":55700,
			"target":34963
		}
	],
	"samplers":[
		{
			"magFilter":9729,
			"minFilter":9987
		}
	],
	"buffers":[
		{
			"byteLength":64760,
			"uri":"mdl_hub_teapot.bin"
		}
	]
}
