{
	"asset":{
		"generator":"Khronos glTF Blender I/O v4.2.57",
		"version":"2.0"
	},
	"extensionsUsed":[
		"KHR_materials_specular",
		"KHR_materials_ior"
	],
	"scene":0,
	"scenes":[
		{
			"name":"Scene",
			"nodes":[
				0
			]
		}
	],
	"nodes":[
		{
			"mesh":0,
			"name":"Cube"
		}
	],
	"materials":[
		{
			"doubleSided":true,
			"extensions":{
				"KHR_materials_specular":{
					"specularColorFactor":[
						0.023713575676083565,
						0.023713575676083565,
						0.023713575676083565
					]
				},
				"KHR_materials_ior":{
					"ior":1.4500000476837158
				}
			},
			"name":"white",
			"pbrMetallicRoughness":{
				"baseColorFactor":[
					0.800000011920929,
					0.800000011920929,
					0.800000011920929,
					1
				],
				"metallicFactor":0,
				"roughnessFactor":0.75
			}
		},
		{
			"doubleSided":true,
			"extensions":{
				"KHR_materials_specular":{
					"specularColorFactor":[
						0.023713575676083565,
						0.023713575676083565,
						0.023713575676083565
					]
				},
				"KHR_materials_ior":{
					"ior":1.4500000476837158
				}
			},
			"name":"blue",
			"pbrMetallicRoughness":{
				"baseColorFactor":[
					0,
					0.32762908935546875,
					0.47698819637298584,
					1
				],
				"metallicFactor":0,
				"roughnessFactor":0.75
			}
		},
		{
			"doubleSided":true,
			"extensions":{
				"KHR_materials_specular":{
					"specularColorFactor":[
						0.023713575676083565,
						0.023713575676083565,
						0.023713575676083565
					]
				},
				"KHR_materials_ior":{
					"ior":1.4500000476837158
				}
			},
			"name":"window",
			"pbrMetallicRoughness":{
				"baseColorFactor":[
					0.6345884203910828,
					0.8000000715255737,
					0.7421666979789734,
					1
				],
				"metallicFactor":0,
				"roughnessFactor":0.75
			}
		},
		{
			"doubleSided":true,
			"extensions":{
				"KHR_materials_specular":{
					"specularColorFactor":[
						0.023713575676083565,
						0.023713575676083565,
						0.023713575676083565
					]
				},
				"KHR_materials_ior":{
					"ior":1.4500000476837158
				}
			},
			"name":"dark",
			"pbrMetallicRoughness":{
				"baseColorFactor":[
					0.0012879346031695604,
					0.0074883121997118,
					0.02146686613559723,
					1
				],
				"metallicFactor":0,
				"roughnessFactor":0.75
			}
		},
		{
			"doubleSided":true,
			"extensions":{
				"KHR_materials_specular":{
					"specularColorFactor":[
						0.023713575676083565,
						0.023713575676083565,
						0.023713575676083565
					]
				},
				"KHR_materials_ior":{
					"ior":1.4500000476837158
				}
			},
			"name":"metal",
			"pbrMetallicRoughness":{
				"baseColorFactor":[
					0.2945201098918915,
					0.2945201098918915,
					0.2945201098918915,
					1
				],
				"metallicFactor":0,
				"roughnessFactor":0.75
			}
		}
	],
	"meshes":[
		{
			"name":"Cube.001",
			"primitives":[
				{
					"attributes":{
						"POSITION":0,
						"NORMAL":1,
						"TEXCOORD_0":2
					},
					"indices":3,
					"material":0
				},
				{
					"attributes":{
						"POSITION":4,
						"NORMAL":5,
						"TEXCOORD_0":6
					},
					"indices":7,
					"material":1
				},
				{
					"attributes":{
						"POSITION":8,
						"NORMAL":9,
						"TEXCOORD_0":10
					},
					"indices":11,
					"material":2
				},
				{
					"attributes":{
						"POSITION":12,
						"NORMAL":13,
						"TEXCOORD_0":14
					},
					"indices":15,
					"material":3
				},
				{
					"attributes":{
						"POSITION":16,
						"NORMAL":17,
						"TEXCOORD_0":18
					},
					"indices":19,
					"material":4
				}
			]
		}
	],
	"accessors":[
		{
			"bufferView":0,
			"componentType":5126,
			"count":1583,
			"max":[
				0.9652528762817383,
				0.6207032203674316,
				0.9502105712890625
			],
			"min":[
				-1.0000056028366089,
				-0.07512780278921127,
				-0.9502105712890625
			],
			"type":"VEC3"
		},
		{
			"bufferView":1,
			"componentType":5126,
			"count":1583,
			"type":"VEC3"
		},
		{
			"bufferView":2,
			"componentType":5126,
			"count":1583,
			"type":"VEC2"
		},
		{
			"bufferView":3,
			"componentType":5123,
			"count":4179,
			"type":"SCALAR"
		},
		{
			"bufferView":4,
			"componentType":5126,
			"count":211,
			"max":[
				0.9888672828674316,
				0.6207032203674316,
				1.02264404296875
			],
			"min":[
				-0.2751651406288147,
				-0.07425355911254883,
				-1.02264404296875
			],
			"type":"VEC3"
		},
		{
			"bufferView":5,
			"componentType":5126,
			"count":211,
			"type":"VEC3"
		},
		{
			"bufferView":6,
			"componentType":5126,
			"count":211,
			"type":"VEC2"
		},
		{
			"bufferView":7,
			"componentType":5123,
			"count":573,
			"type":"SCALAR"
		},
		{
			"bufferView":8,
			"componentType":5126,
			"count":384,
			"max":[
				0.41005003452301025,
				0.1651436984539032,
				0.09606635570526123
			],
			"min":[
				-0.5895447134971619,
				0.12700119614601135,
				-0.09606640040874481
			],
			"type":"VEC3"
		},
		{
			"bufferView":9,
			"componentType":5126,
			"count":384,
			"type":"VEC3"
		},
		{
			"bufferView":10,
			"componentType":5126,
			"count":384,
			"type":"VEC2"
		},
		{
			"bufferView":11,
			"componentType":5123,
			"count":864,
			"type":"SCALAR"
		},
		{
			"bufferView":12,
			"componentType":5126,
			"count":1178,
			"max":[
				0.5191554427146912,
				0.17852427065372467,
				0.3134022057056427
			],
			"min":[
				-1.0161885023117065,
				-0.03540152683854103,
				-0.3134022057056427
			],
			"type":"VEC3"
		},
		{
			"bufferView":13,
			"componentType":5126,
			"count":1178,
			"type":"VEC3"
		},
		{
			"bufferView":14,
			"componentType":5126,
			"count":1178,
			"type":"VEC2"
		},
		{
			"bufferView":15,
			"componentType":5123,
			"count":2808,
			"type":"SCALAR"
		},
		{
			"bufferView":16,
			"componentType":5126,
			"count":244,
			"max":[
				0.09351634979248047,
				0.1023508682847023,
				0.3563704490661621
			],
			"min":[
				-1.0080969333648682,
				-0.0685877874493599,
				-0.3563704490661621
			],
			"type":"VEC3"
		},
		{
			"bufferView":17,
			"componentType":5126,
			"count":244,
			"type":"VEC3"
		},
		{
			"bufferView":18,
			"componentType":5126,
			"count":244,
			"type":"VEC2"
		},
		{
			"bufferView":19,
			"componentType":5123,
			"count":768,
			"type":"SCALAR"
		}
	],
	"bufferViews":[
		{
			"buffer":0,
			"byteLength":18996,
			"byteOffset":0,
			"target":34962
		},
		{
			"buffer":0,
			"byteLength":18996,
			"byteOffset":18996,
			"target":34962
		},
		{
			"buffer":0,
			"byteLength":12664,
			"byteOffset":37992,
			"target":34962
		},
		{
			"buffer":0,
			"byteLength":8358,
			"byteOffset":50656,
			"target":34963
		},
		{
			"buffer":0,
			"byteLength":2532,
			"byteOffset":59016,
			"target":34962
		},
		{
			"buffer":0,
			"byteLength":2532,
			"byteOffset":61548,
			"target":34962
		},
		{
			"buffer":0,
			"byteLength":1688,
			"byteOffset":64080,
			"target":34962
		},
		{
			"buffer":0,
			"byteLength":1146,
			"byteOffset":65768,
			"target":34963
		},
		{
			"buffer":0,
			"byteLength":4608,
			"byteOffset":66916,
			"target":34962
		},
		{
			"buffer":0,
			"byteLength":4608,
			"byteOffset":71524,
			"target":34962
		},
		{
			"buffer":0,
			"byteLength":3072,
			"byteOffset":76132,
			"target":34962
		},
		{
			"buffer":0,
			"byteLength":1728,
			"byteOffset":79204,
			"target":34963
		},
		{
			"buffer":0,
			"byteLength":14136,
			"byteOffset":80932,
			"target":34962
		},
		{
			"buffer":0,
			"byteLength":14136,
			"byteOffset":95068,
			"target":34962
		},
		{
			"buffer":0,
			"byteLength":9424,
			"byteOffset":109204,
			"target":34962
		},
		{
			"buffer":0,
			"byteLength":5616,
			"byteOffset":118628,
			"target":34963
		},
		{
			"buffer":0,
			"byteLength":2928,
			"byteOffset":124244,
			"target":34962
		},
		{
			"buffer":0,
			"byteLength":2928,
			"byteOffset":127172,
			"target":34962
		},
		{
			"buffer":0,
			"byteLength":1952,
			"byteOffset":130100,
			"target":34962
		},
		{
			"buffer":0,
			"byteLength":1536,
			"byteOffset":132052,
			"target":34963
		}
	],
	"buffers":[
		{
			"byteLength":133588,
			"uri":"mdl_plane.bin"
		}
	]
}
