{
	"asset":{
		"generator":"Khronos glTF Blender I/O v4.1.62",
		"version":"2.0"
	},
	"extensionsUsed":[
		"KHR_materials_specular"
	],
	"scene":0,
	"scenes":[
		{
			"name":"Scene",
			"nodes":[
				0
			]
		}
	],
	"nodes":[
		{
			"mesh":0,
			"name":"Cylinder",
			"scale":[
				0.20681911706924438,
				0.019120432436466217,
				0.20681911706924438
			],
			"translation":[
				-0.00023356454039458185,
				0.017888780683279037,
				-0.00023356484598480165
			]
		}
	],
	"materials":[
		{
			"doubleSided":true,
			"extensions":{
				"KHR_materials_specular":{
					"specularFactor":0
				}
			},
			"name":"Material.115",
			"pbrMetallicRoughness":{
				"baseColorTexture":{
					"index":0
				},
				"metallicFactor":0,
				"roughnessFactor":0.781818151473999
			}
		},
		{
			"doubleSided":true,
			"extensions":{
				"KHR_materials_specular":{
					"specularFactor":0
				}
			},
			"name":"Material.116",
			"normalTexture":{
				"index":1
			},
			"pbrMetallicRoughness":{
				"baseColorTexture":{
					"index":2
				},
				"metallicFactor":0,
				"roughnessFactor":0.7863636016845703
			}
		},
		{
			"doubleSided":true,
			"name":"Material.117",
			"pbrMetallicRoughness":{
				"baseColorFactor":[
					0,
					0,
					0,
					1
				],
				"metallicFactor":0,
				"roughnessFactor":0.5
			}
		}
	],
	"meshes":[
		{
			"name":"Cylinder.032",
			"primitives":[
				{
					"attributes":{
						"POSITION":0,
						"NORMAL":1,
						"TEXCOORD_0":2
					},
					"indices":3,
					"material":0
				},
				{
					"attributes":{
						"POSITION":4,
						"NORMAL":5,
						"TEXCOORD_0":6
					},
					"indices":7,
					"material":1
				},
				{
					"attributes":{
						"POSITION":8,
						"NORMAL":9,
						"TEXCOORD_0":10
					},
					"indices":11,
					"material":2
				}
			]
		}
	],
	"textures":[
		{
			"sampler":0,
			"source":0
		},
		{
			"sampler":0,
			"source":1
		},
		{
			"sampler":0,
			"source":2
		}
	],
	"images":[
		{
			"mimeType":"image/png",
			"name":"tx_hub_redwoodclockface",
			"uri":"tx_hub_redwoodclockface.png"
		},
		{
			"mimeType":"image/png",
			"name":"tx_hub_redwoodclockNormal",
			"uri":"tx_hub_redwoodclockNormal.png"
		},
		{
			"mimeType":"image/png",
			"name":"tx_hub_redwoodclockColor",
			"uri":"tx_hub_redwoodclockColor.png"
		}
	],
	"accessors":[
		{
			"bufferView":0,
			"componentType":5126,
			"count":32,
			"max":[
				0.9064844846725464,
				0.07167595624923706,
				0.9064844846725464
			],
			"min":[
				-0.9042258262634277,
				0.07167595624923706,
				-0.9042258262634277
			],
			"type":"VEC3"
		},
		{
			"bufferView":1,
			"componentType":5126,
			"count":32,
			"type":"VEC3"
		},
		{
			"bufferView":2,
			"componentType":5126,
			"count":32,
			"type":"VEC2"
		},
		{
			"bufferView":3,
			"componentType":5123,
			"count":90,
			"type":"SCALAR"
		},
		{
			"bufferView":4,
			"componentType":5126,
			"count":376,
			"max":[
				1.0011292695999146,
				0.3256821036338806,
				1.0011292695999146
			],
			"min":[
				-0.9988706707954407,
				-1.0533524751663208,
				-0.9988706707954407
			],
			"type":"VEC3"
		},
		{
			"bufferView":5,
			"componentType":5126,
			"count":376,
			"type":"VEC3"
		},
		{
			"bufferView":6,
			"componentType":5126,
			"count":376,
			"type":"VEC2"
		},
		{
			"bufferView":7,
			"componentType":5123,
			"count":1050,
			"type":"SCALAR"
		},
		{
			"bufferView":8,
			"componentType":5126,
			"count":136,
			"max":[
				0.05951070785522461,
				0.34503573179244995,
				0.05951070785522461
			],
			"min":[
				-0.05725207179784775,
				-0.02591419219970703,
				-0.05725207179784775
			],
			"type":"VEC3"
		},
		{
			"bufferView":9,
			"componentType":5126,
			"count":136,
			"type":"VEC3"
		},
		{
			"bufferView":10,
			"componentType":5126,
			"count":136,
			"type":"VEC2"
		},
		{
			"bufferView":11,
			"componentType":5123,
			"count":372,
			"type":"SCALAR"
		}
	],
	"bufferViews":[
		{
			"buffer":0,
			"byteLength":384,
			"byteOffset":0,
			"target":34962
		},
		{
			"buffer":0,
			"byteLength":384,
			"byteOffset":384,
			"target":34962
		},
		{
			"buffer":0,
			"byteLength":256,
			"byteOffset":768,
			"target":34962
		},
		{
			"buffer":0,
			"byteLength":180,
			"byteOffset":1024,
			"target":34963
		},
		{
			"buffer":0,
			"byteLength":4512,
			"byteOffset":1204,
			"target":34962
		},
		{
			"buffer":0,
			"byteLength":4512,
			"byteOffset":5716,
			"target":34962
		},
		{
			"buffer":0,
			"byteLength":3008,
			"byteOffset":10228,
			"target":34962
		},
		{
			"buffer":0,
			"byteLength":2100,
			"byteOffset":13236,
			"target":34963
		},
		{
			"buffer":0,
			"byteLength":1632,
			"byteOffset":15336,
			"target":34962
		},
		{
			"buffer":0,
			"byteLength":1632,
			"byteOffset":16968,
			"target":34962
		},
		{
			"buffer":0,
			"byteLength":1088,
			"byteOffset":18600,
			"target":34962
		},
		{
			"buffer":0,
			"byteLength":744,
			"byteOffset":19688,
			"target":34963
		}
	],
	"samplers":[
		{
			"magFilter":9729,
			"minFilter":9987
		}
	],
	"buffers":[
		{
			"byteLength":20432,
			"uri":"mdl_hub_redwoodclock.bin"
		}
	]
}
