{
	"asset":{
		"generator":"Khronos glTF Blender I/O v4.1.62",
		"version":"2.0"
	},
	"scene":0,
	"scenes":[
		{
			"name":"Scene",
			"nodes":[
				4
			]
		}
	],
	"nodes":[
		{
			"mesh":0,
			"name":"Object_4"
		},
		{
			"children":[
				0
			],
			"name":"Lathe_2",
			"rotation":[
				0.70710688829422,
				0,
				0,
				0.7071066498756409
			],
			"scale":[
				0.009999998845160007,
				0.009999996051192284,
				0.009999996051192284
			],
			"translation":[
				-0.0018662610091269016,
				-0.23434410989284515,
				-0.006525313016027212
			]
		},
		{
			"children":[
				1
			],
			"name":"GLTF_SceneRootNode",
			"rotation":[
				0.70710688829422,
				0,
				0,
				0.7071066498756409
			]
		},
		{
			"children":[
				2
			],
			"name":"root"
		},
		{
			"children":[
				3
			],
			"name":"Sketchfab_model",
			"rotation":[
				-0.70710688829422,
				0,
				0,
				0.7071066498756409
			],
			"scale":[
				0.17943613231182098,
				0.1794361174106598,
				0.1794361174106598
			]
		}
	],
	"materials":[
		{
			"doubleSided":true,
			"name":"Material.097",
			"normalTexture":{
				"index":0
			},
			"pbrMetallicRoughness":{
				"baseColorTexture":{
					"index":1
				},
				"metallicRoughnessTexture":{
					"index":2
				}
			}
		}
	],
	"meshes":[
		{
			"name":"Object_0.028",
			"primitives":[
				{
					"attributes":{
						"POSITION":0,
						"NORMAL":1,
						"TEXCOORD_0":2
					},
					"indices":3,
					"material":0
				}
			]
		}
	],
	"textures":[
		{
			"sampler":0,
			"source":0
		},
		{
			"sampler":0,
			"source":1
		},
		{
			"sampler":0,
			"source":2
		}
	],
	"images":[
		{
			"mimeType":"image/png",
			"name":"tx_hub_mdlArmillaryN",
			"uri":"tx_hub_mdlArmillaryN.png"
		},
		{
			"mimeType":"image/png",
			"name":"tx_hub_model_armillaryColor",
			"uri":"tx_hub_model_armillaryColor.png"
		},
		{
			"mimeType":"image/png",
			"name":"tx_hub_mdlArmillaryMetallic",
			"uri":"tx_hub_mdlArmillaryMetallic.png"
		}
	],
	"accessors":[
		{
			"bufferView":0,
			"componentType":5126,
			"count":14823,
			"max":[
				100.1866226196289,
				100.65253448486328,
				149.70162963867188
			],
			"min":[
				-99.8133773803711,
				-99.34746551513672,
				-119.01730346679688
			],
			"type":"VEC3"
		},
		{
			"bufferView":1,
			"componentType":5126,
			"count":14823,
			"type":"VEC3"
		},
		{
			"bufferView":2,
			"componentType":5126,
			"count":14823,
			"type":"VEC2"
		},
		{
			"bufferView":3,
			"componentType":5123,
			"count":48438,
			"type":"SCALAR"
		}
	],
	"bufferViews":[
		{
			"buffer":0,
			"byteLength":177876,
			"byteOffset":0,
			"target":34962
		},
		{
			"buffer":0,
			"byteLength":177876,
			"byteOffset":177876,
			"target":34962
		},
		{
			"buffer":0,
			"byteLength":118584,
			"byteOffset":355752,
			"target":34962
		},
		{
			"buffer":0,
			"byteLength":96876,
			"byteOffset":474336,
			"target":34963
		}
	],
	"samplers":[
		{
			"magFilter":9729,
			"minFilter":9987
		}
	],
	"buffers":[
		{
			"byteLength":571212,
			"uri":"mdl_hub_armillarysphere.bin"
		}
	]
}
