{
	"asset":{
		"generator":"Khronos glTF Blender I/O v4.0.44",
		"version":"2.0"
	},
	"extensionsUsed":[
		"KHR_materials_specular"
	],
	"scene":0,
	"scenes":[
		{
			"name":"Scene",
			"nodes":[
				4
			]
		}
	],
	"nodes":[
		{
			"mesh":0,
			"name":"Granite Block_Granite Block PBR_0"
		},
		{
			"children":[
				0
			],
			"name":"Granite Block",
			"rotation":[
				-0.70710688829422,
				0,
				0,
				0.7071066498756409
			],
			"scale":[
				100,
				99.99999237060547,
				99.99999237060547
			]
		},
		{
			"children":[
				1
			],
			"name":"RootNode"
		},
		{
			"children":[
				2
			],
			"name":"81ad9440a1f140c5b59aff4567b1f2db.fbx",
			"rotation":[
				0.70710688829422,
				0,
				0,
				0.7071066498756409
			],
			"scale":[
				0.009999999776482582,
				0.010000000707805157,
				0.010000000707805157
			]
		},
		{
			"children":[
				3
			],
			"name":"Sketchfab_model",
			"rotation":[
				-0.70710688829422,
				0,
				0,
				0.7071066498756409
			]
		}
	],
	"materials":[
		{
			"doubleSided":true,
			"extensions":{
				"KHR_materials_specular":{
					"specularFactor":0
				}
			},
			"name":"Granite_Block_PBR",
			"normalTexture":{
				"index":0
			},
			"pbrMetallicRoughness":{
				"baseColorTexture":{
					"index":1
				},
				"metallicFactor":0,
				"roughnessFactor":0.75
			}
		}
	],
	"meshes":[
		{
			"name":"Granite Block_Granite Block PBR_0",
			"primitives":[
				{
					"attributes":{
						"POSITION":0,
						"NORMAL":1,
						"TEXCOORD_0":2,
						"TEXCOORD_1":3
					},
					"indices":4,
					"material":0
				}
			]
		}
	],
	"textures":[
		{
			"sampler":0,
			"source":0
		},
		{
			"sampler":0,
			"source":1
		}
	],
	"images":[
		{
			"mimeType":"image/jpeg",
			"name":"tx_granite_block_n",
			"uri":"tx_granite_block_n.jpg"
		},
		{
			"mimeType":"image/jpeg",
			"name":"tx_granite_block_a",
			"uri":"tx_granite_block_a.jpg"
		}
	],
	"accessors":[
		{
			"bufferView":0,
			"componentType":5126,
			"count":1074,
			"max":[
				0.3202165365219116,
				0.3357023000717163,
				0.35734453797340393
			],
			"min":[
				-0.32690292596817017,
				-0.3228614628314972,
				0
			],
			"type":"VEC3"
		},
		{
			"bufferView":1,
			"componentType":5126,
			"count":1074,
			"type":"VEC3"
		},
		{
			"bufferView":2,
			"componentType":5126,
			"count":1074,
			"type":"VEC2"
		},
		{
			"bufferView":3,
			"componentType":5126,
			"count":1074,
			"type":"VEC2"
		},
		{
			"bufferView":4,
			"componentType":5123,
			"count":6156,
			"type":"SCALAR"
		}
	],
	"bufferViews":[
		{
			"buffer":0,
			"byteLength":12888,
			"byteOffset":0,
			"target":34962
		},
		{
			"buffer":0,
			"byteLength":12888,
			"byteOffset":12888,
			"target":34962
		},
		{
			"buffer":0,
			"byteLength":8592,
			"byteOffset":25776,
			"target":34962
		},
		{
			"buffer":0,
			"byteLength":8592,
			"byteOffset":34368,
			"target":34962
		},
		{
			"buffer":0,
			"byteLength":12312,
			"byteOffset":42960,
			"target":34963
		}
	],
	"samplers":[
		{
			"magFilter":9729,
			"minFilter":9987
		}
	],
	"buffers":[
		{
			"byteLength":55272,
			"uri":"mdl_granite_block.bin"
		}
	]
}
