{
	"asset":{
		"generator":"Khronos glTF Blender I/O v4.2.57",
		"version":"2.0"
	},
	"extensionsUsed":[
		"KHR_materials_specular"
	],
	"scene":0,
	"scenes":[
		{
			"name":"Scene",
			"nodes":[
				14
			]
		}
	],
	"nodes":[
		{
			"name":"Cube.109",
			"rotation":[
				-0.70710688829422,
				0,
				0,
				0.7071066498756409
			],
			"scale":[
				100.00000762939453,
				99.99998474121094,
				99.99998474121094
			],
			"translation":[
				-82.97330474853516,
				27.776317596435547,
				0
			]
		},
		{
			"mesh":0,
			"name":"Cube.111_Material.004_0"
		},
		{
			"children":[
				1
			],
			"name":"Cube.111",
			"rotation":[
				-0.70710688829422,
				0,
				0,
				0.7071066498756409
			],
			"scale":[
				100.00000762939453,
				99.99998474121094,
				99.99998474121094
			],
			"translation":[
				-77.36223602294922,
				60.00000762939453,
				0
			]
		},
		{
			"name":"Cube.112",
			"rotation":[
				-0.70710688829422,
				0,
				0,
				0.7071066498756409
			],
			"scale":[
				100.00000762939453,
				99.99998474121094,
				99.99998474121094
			],
			"translation":[
				-81.4231185913086,
				80.74195861816406,
				-144.36196899414062
			]
		},
		{
			"name":"Cube.113",
			"rotation":[
				0,
				-0.7071067094802856,
				-0.7071068286895752,
				1.3767875373105198e-07
			],
			"scale":[
				100.00009155273438,
				100.00005340576172,
				100.00005340576172
			],
			"translation":[
				-81.4231185913086,
				80.74195861816406,
				145.63804626464844
			]
		},
		{
			"name":"Cube.114",
			"rotation":[
				-0.70710688829422,
				0,
				0,
				0.7071066498756409
			],
			"scale":[
				100.00000762939453,
				99.99998474121094,
				99.99998474121094
			],
			"translation":[
				-81.4231185913086,
				80.74195861816406,
				-144.36196899414062
			]
		},
		{
			"name":"Cube.115",
			"rotation":[
				0,
				-0.7071067094802856,
				-0.7071068286895752,
				1.3767875373105198e-07
			],
			"scale":[
				100.00009155273438,
				100.00005340576172,
				100.00005340576172
			],
			"translation":[
				-81.4231185913086,
				80.74195861816406,
				145.63804626464844
			]
		},
		{
			"name":"Plane.033",
			"rotation":[
				-0.4999999403953552,
				-0.5000000596046448,
				0.5000000596046448,
				0.4999999403953552
			],
			"scale":[
				99.99999237060547,
				99.99999237060547,
				100.00000762939453
			],
			"translation":[
				-159.9999237060547,
				138.26983642578125,
				323.551025390625
			]
		},
		{
			"name":"Plane.034",
			"rotation":[
				-0.4999999403953552,
				-0.5000000596046448,
				0.5000000596046448,
				0.4999999403953552
			],
			"scale":[
				99.99999237060547,
				99.99999237060547,
				100.00000762939453
			],
			"translation":[
				0,
				100,
				0
			]
		},
		{
			"name":"Plane.036",
			"rotation":[
				-0.4999999403953552,
				-0.5000000596046448,
				0.5000000596046448,
				0.4999999403953552
			],
			"scale":[
				99.99999237060547,
				99.99999237060547,
				100.00000762939453
			],
			"translation":[
				-159.9999237060547,
				138.26983642578125,
				323.551025390625
			]
		},
		{
			"name":"Plane.037",
			"rotation":[
				-0.4999999403953552,
				-0.5000000596046448,
				0.5000000596046448,
				0.4999999403953552
			],
			"scale":[
				99.99999237060547,
				99.99999237060547,
				100.00000762939453
			],
			"translation":[
				0,
				100,
				0
			]
		},
		{
			"name":"Plane.038",
			"rotation":[
				-0.4999999403953552,
				-0.5000000596046448,
				0.5000000596046448,
				0.4999999403953552
			],
			"scale":[
				99.99999237060547,
				99.99999237060547,
				100.00000762939453
			],
			"translation":[
				-159.9999237060547,
				138.26983642578125,
				323.551025390625
			]
		},
		{
			"children":[
				0,
				2,
				3,
				4,
				5,
				6,
				7,
				8,
				9,
				10,
				11
			],
			"name":"RootNode"
		},
		{
			"children":[
				12
			],
			"name":"Sofa.fbx",
			"rotation":[
				0.70710688829422,
				0,
				0,
				0.7071066498756409
			],
			"scale":[
				0.009999999776482582,
				0.009999997913837433,
				0.009999997913837433
			]
		},
		{
			"children":[
				13
			],
			"name":"Sketchfab_model",
			"rotation":[
				-0.70710688829422,
				0,
				0,
				0.7071066498756409
			]
		}
	],
	"materials":[
		{
			"doubleSided":true,
			"extensions":{
				"KHR_materials_specular":{
					"specularFactor":0,
					"specularColorFactor":[
						1.0472440719604492,
						1.0472440719604492,
						1.0472440719604492
					]
				}
			},
			"name":"Material.121",
			"normalTexture":{
				"index":0
			},
			"pbrMetallicRoughness":{
				"baseColorTexture":{
					"index":1
				},
				"metallicFactor":0,
				"roughnessFactor":0.7952381372451782
			}
		}
	],
	"meshes":[
		{
			"name":"Cube.111_Material.004_0.003",
			"primitives":[
				{
					"attributes":{
						"POSITION":0,
						"NORMAL":1,
						"TEXCOORD_0":2,
						"TEXCOORD_1":3,
						"TEXCOORD_2":4
					},
					"indices":5,
					"material":0
				}
			]
		}
	],
	"textures":[
		{
			"sampler":0,
			"source":0
		},
		{
			"sampler":0,
			"source":1
		}
	],
	"images":[
		{
			"mimeType":"image/png",
			"name":"tx_brush_sofanormal",
			"uri":"tx_brush_sofanormal.png"
		},
		{
			"mimeType":"image/png",
			"name":"tx_hub_vintageleathersofaColor.png",
			"uri":"tx_hub_vintageleathersofaColor_png.png"
		}
	],
	"accessors":[
		{
			"bufferView":0,
			"componentType":5126,
			"count":4817,
			"max":[
				1.5680010318756104,
				3.676011085510254,
				1.520141363143921
			],
			"min":[
				-0.9251499772071838,
				-3.6610188484191895,
				-0.6058278679847717
			],
			"type":"VEC3"
		},
		{
			"bufferView":1,
			"componentType":5126,
			"count":4817,
			"type":"VEC3"
		},
		{
			"bufferView":2,
			"componentType":5126,
			"count":4817,
			"type":"VEC2"
		},
		{
			"bufferView":3,
			"componentType":5126,
			"count":4817,
			"type":"VEC2"
		},
		{
			"bufferView":4,
			"componentType":5126,
			"count":4817,
			"type":"VEC2"
		},
		{
			"bufferView":5,
			"componentType":5123,
			"count":17439,
			"type":"SCALAR"
		}
	],
	"bufferViews":[
		{
			"buffer":0,
			"byteLength":57804,
			"byteOffset":0,
			"target":34962
		},
		{
			"buffer":0,
			"byteLength":57804,
			"byteOffset":57804,
			"target":34962
		},
		{
			"buffer":0,
			"byteLength":38536,
			"byteOffset":115608,
			"target":34962
		},
		{
			"buffer":0,
			"byteLength":38536,
			"byteOffset":154144,
			"target":34962
		},
		{
			"buffer":0,
			"byteLength":38536,
			"byteOffset":192680,
			"target":34962
		},
		{
			"buffer":0,
			"byteLength":34878,
			"byteOffset":231216,
			"target":34963
		}
	],
	"samplers":[
		{
			"magFilter":9729,
			"minFilter":9987
		}
	],
	"buffers":[
		{
			"byteLength":266096,
			"uri":"mdl_hub_vintageleathersofa.bin"
		}
	]
}
