{
	"asset":{
		"generator":"Khronos glTF Blender I/O v4.1.62",
		"version":"2.0"
	},
	"scene":0,
	"scenes":[
		{
			"name":"Scene",
			"nodes":[
				49
			]
		}
	],
	"nodes":[
		{
			"mesh":0,
			"name":"defaultMaterial.038"
		},
		{
			"children":[
				0
			],
			"name":"pCube1"
		},
		{
			"mesh":1,
			"name":"defaultMaterial.040"
		},
		{
			"children":[
				2
			],
			"name":"pCylinder1"
		},
		{
			"mesh":2,
			"name":"defaultMaterial.039"
		},
		{
			"children":[
				4
			],
			"name":"pCylinder4"
		},
		{
			"mesh":3,
			"name":"defaultMaterial.036"
		},
		{
			"children":[
				6
			],
			"name":"pCylinder5"
		},
		{
			"name":"pCylinder6"
		},
		{
			"mesh":4,
			"name":"defaultMaterial.003"
		},
		{
			"children":[
				9
			],
			"name":"pCylinder7"
		},
		{
			"name":"pPlatonic1"
		},
		{
			"name":"pPlatonic10"
		},
		{
			"name":"pPlatonic11"
		},
		{
			"name":"pPlatonic12"
		},
		{
			"name":"pPlatonic13"
		},
		{
			"name":"pPlatonic14"
		},
		{
			"name":"pPlatonic15"
		},
		{
			"name":"pPlatonic16"
		},
		{
			"name":"pPlatonic17"
		},
		{
			"name":"pPlatonic18"
		},
		{
			"name":"pPlatonic19"
		},
		{
			"name":"pPlatonic2"
		},
		{
			"name":"pPlatonic20"
		},
		{
			"name":"pPlatonic21"
		},
		{
			"name":"pPlatonic22"
		},
		{
			"name":"pPlatonic23"
		},
		{
			"name":"pPlatonic24"
		},
		{
			"name":"pPlatonic25"
		},
		{
			"name":"pPlatonic26"
		},
		{
			"name":"pPlatonic27"
		},
		{
			"name":"pPlatonic28"
		},
		{
			"name":"pPlatonic3"
		},
		{
			"name":"pPlatonic4"
		},
		{
			"name":"pPlatonic5"
		},
		{
			"name":"pPlatonic6"
		},
		{
			"name":"pPlatonic7"
		},
		{
			"name":"pPlatonic8"
		},
		{
			"name":"pPlatonic9"
		},
		{
			"mesh":5,
			"name":"defaultMaterial.035"
		},
		{
			"children":[
				39
			],
			"name":"pSphere1"
		},
		{
			"name":"vintage_lamp_chain:pCylinder1"
		},
		{
			"mesh":6,
			"name":"defaultMaterial.034"
		},
		{
			"children":[
				42
			],
			"name":"vintage_lamp_chain:pCylinder2"
		},
		{
			"name":"vintage_lamp_chain:pPlatonic1"
		},
		{
			"name":"vintage_lamp_nut___screw:pCylinder1"
		},
		{
			"name":"vintage_lamp_nut___screw:pCylinder2"
		},
		{
			"name":"vintage_lamp_nut___screw:pSphere1"
		},
		{
			"children":[
				1,
				3,
				5,
				7,
				8,
				10,
				11,
				12,
				13,
				14,
				15,
				16,
				17,
				18,
				19,
				20,
				21,
				22,
				23,
				24,
				25,
				26,
				27,
				28,
				29,
				30,
				31,
				32,
				33,
				34,
				35,
				36,
				37,
				38,
				40,
				41,
				43,
				44,
				45,
				46,
				47
			],
			"name":"Collada visual scene group",
			"rotation":[
				0.70710688829422,
				0,
				0,
				0.7071066498756409
			]
		},
		{
			"children":[
				48
			],
			"name":"Sketchfab_model",
			"rotation":[
				-0.70710688829422,
				0,
				0,
				0.7071066498756409
			]
		}
	],
	"materials":[
		{
			"doubleSided":true,
			"name":"lambert1.011",
			"occlusionTexture":{
				"index":0
			},
			"pbrMetallicRoughness":{
				"baseColorTexture":{
					"index":1
				},
				"metallicRoughnessTexture":{
					"index":0
				}
			}
		}
	],
	"meshes":[
		{
			"name":"defaultMaterial.027",
			"primitives":[
				{
					"attributes":{
						"POSITION":0,
						"NORMAL":1,
						"TEXCOORD_0":2
					},
					"indices":3,
					"material":0
				}
			]
		},
		{
			"name":"defaultMaterial.028",
			"primitives":[
				{
					"attributes":{
						"POSITION":4,
						"NORMAL":5,
						"TEXCOORD_0":6
					},
					"indices":7,
					"material":0
				}
			]
		},
		{
			"name":"defaultMaterial.029",
			"primitives":[
				{
					"attributes":{
						"POSITION":8,
						"NORMAL":9,
						"TEXCOORD_0":10
					},
					"indices":11,
					"material":0
				}
			]
		},
		{
			"name":"defaultMaterial.030",
			"primitives":[
				{
					"attributes":{
						"POSITION":12,
						"NORMAL":13,
						"TEXCOORD_0":14
					},
					"indices":15,
					"material":0
				}
			]
		},
		{
			"name":"defaultMaterial.031",
			"primitives":[
				{
					"attributes":{
						"POSITION":16,
						"NORMAL":17,
						"TEXCOORD_0":18
					},
					"indices":19,
					"material":0
				}
			]
		},
		{
			"name":"defaultMaterial.032",
			"primitives":[
				{
					"attributes":{
						"POSITION":20,
						"NORMAL":21,
						"TEXCOORD_0":22
					},
					"indices":23,
					"material":0
				}
			]
		},
		{
			"name":"defaultMaterial.033",
			"primitives":[
				{
					"attributes":{
						"POSITION":24,
						"NORMAL":25,
						"TEXCOORD_0":26
					},
					"indices":27,
					"material":0
				}
			]
		}
	],
	"textures":[
		{
			"sampler":0,
			"source":0
		},
		{
			"sampler":0,
			"source":1
		}
	],
	"images":[
		{
			"mimeType":"image/png",
			"name":"tx_hub_vintagedesklampOther",
			"uri":"tx_hub_vintagedesklampOther.png"
		},
		{
			"mimeType":"image/jpeg",
			"name":"tx_hub_vintagedesklampColor",
			"uri":"tx_hub_vintagedesklampColor.jpg"
		}
	],
	"accessors":[
		{
			"bufferView":0,
			"componentType":5126,
			"count":538,
			"max":[
				0.6325899958610535,
				1.0026999711990356,
				0.606660008430481
			],
			"min":[
				-0.6353719830513,
				0.44134798645973206,
				-0.013172799721360207
			],
			"type":"VEC3"
		},
		{
			"bufferView":1,
			"componentType":5126,
			"count":538,
			"type":"VEC3"
		},
		{
			"bufferView":2,
			"componentType":5126,
			"count":538,
			"type":"VEC2"
		},
		{
			"bufferView":3,
			"componentType":5123,
			"count":2580,
			"type":"SCALAR"
		},
		{
			"bufferView":4,
			"componentType":5126,
			"count":3846,
			"max":[
				0.4379560053348541,
				0.46682000160217285,
				0.30654001235961914
			],
			"min":[
				-0.4407379925251007,
				-1,
				-0.5735229849815369
			],
			"type":"VEC3"
		},
		{
			"bufferView":5,
			"componentType":5126,
			"count":3846,
			"type":"VEC3"
		},
		{
			"bufferView":6,
			"componentType":5126,
			"count":3846,
			"type":"VEC2"
		},
		{
			"bufferView":7,
			"componentType":5123,
			"count":21936,
			"type":"SCALAR"
		},
		{
			"bufferView":8,
			"componentType":5126,
			"count":1170,
			"max":[
				0.7402909994125366,
				0.7522619962692261,
				0.2609589993953705
			],
			"min":[
				-0.743071973323822,
				0.3917100131511688,
				-0.16716299951076508
			],
			"type":"VEC3"
		},
		{
			"bufferView":9,
			"componentType":5126,
			"count":1170,
			"type":"VEC3"
		},
		{
			"bufferView":10,
			"componentType":5126,
			"count":1170,
			"type":"VEC2"
		},
		{
			"bufferView":11,
			"componentType":5123,
			"count":6591,
			"type":"SCALAR"
		},
		{
			"bufferView":12,
			"componentType":5126,
			"count":1165,
			"max":[
				0.7780309915542603,
				0.8240560293197632,
				0.3354420065879822
			],
			"min":[
				-0.7780309915542603,
				0.6718000173568726,
				0.18318699300289154
			],
			"type":"VEC3"
		},
		{
			"bufferView":13,
			"componentType":5126,
			"count":1165,
			"type":"VEC3"
		},
		{
			"bufferView":14,
			"componentType":5126,
			"count":1165,
			"type":"VEC2"
		},
		{
			"bufferView":15,
			"componentType":5123,
			"count":6042,
			"type":"SCALAR"
		},
		{
			"bufferView":16,
			"componentType":5126,
			"count":950,
			"max":[
				0.6067230105400085,
				0.8513907790184021,
				0.38214513659477234
			],
			"min":[
				0.21798057854175568,
				0.6270307898521423,
				0.15818093717098236
			],
			"type":"VEC3"
		},
		{
			"bufferView":17,
			"componentType":5126,
			"count":950,
			"type":"VEC3"
		},
		{
			"bufferView":18,
			"componentType":5126,
			"count":950,
			"type":"VEC2"
		},
		{
			"bufferView":19,
			"componentType":5123,
			"count":4893,
			"type":"SCALAR"
		},
		{
			"bufferView":20,
			"componentType":5126,
			"count":1425,
			"max":[
				0.24430899322032928,
				0.8726789951324463,
				0.4016759991645813
			],
			"min":[
				-0.10632400214672089,
				0.6056870222091675,
				0.13483299314975739
			],
			"type":"VEC3"
		},
		{
			"bufferView":21,
			"componentType":5126,
			"count":1425,
			"type":"VEC3"
		},
		{
			"bufferView":22,
			"componentType":5126,
			"count":1425,
			"type":"VEC2"
		},
		{
			"bufferView":23,
			"componentType":5123,
			"count":7755,
			"type":"SCALAR"
		},
		{
			"bufferView":24,
			"componentType":5126,
			"count":1128,
			"max":[
				0.44799506664276123,
				0.6473900079727173,
				0.32136890292167664
			],
			"min":[
				0.3841346204280853,
				-0.3054293096065521,
				0.2561536431312561
			],
			"type":"VEC3"
		},
		{
			"bufferView":25,
			"componentType":5126,
			"count":1128,
			"type":"VEC3"
		},
		{
			"bufferView":26,
			"componentType":5126,
			"count":1128,
			"type":"VEC2"
		},
		{
			"bufferView":27,
			"componentType":5123,
			"count":4812,
			"type":"SCALAR"
		}
	],
	"bufferViews":[
		{
			"buffer":0,
			"byteLength":6456,
			"byteOffset":0,
			"target":34962
		},
		{
			"buffer":0,
			"byteLength":6456,
			"byteOffset":6456,
			"target":34962
		},
		{
			"buffer":0,
			"byteLength":4304,
			"byteOffset":12912,
			"target":34962
		},
		{
			"buffer":0,
			"byteLength":5160,
			"byteOffset":17216,
			"target":34963
		},
		{
			"buffer":0,
			"byteLength":46152,
			"byteOffset":22376,
			"target":34962
		},
		{
			"buffer":0,
			"byteLength":46152,
			"byteOffset":68528,
			"target":34962
		},
		{
			"buffer":0,
			"byteLength":30768,
			"byteOffset":114680,
			"target":34962
		},
		{
			"buffer":0,
			"byteLength":43872,
			"byteOffset":145448,
			"target":34963
		},
		{
			"buffer":0,
			"byteLength":14040,
			"byteOffset":189320,
			"target":34962
		},
		{
			"buffer":0,
			"byteLength":14040,
			"byteOffset":203360,
			"target":34962
		},
		{
			"buffer":0,
			"byteLength":9360,
			"byteOffset":217400,
			"target":34962
		},
		{
			"buffer":0,
			"byteLength":13182,
			"byteOffset":226760,
			"target":34963
		},
		{
			"buffer":0,
			"byteLength":13980,
			"byteOffset":239944,
			"target":34962
		},
		{
			"buffer":0,
			"byteLength":13980,
			"byteOffset":253924,
			"target":34962
		},
		{
			"buffer":0,
			"byteLength":9320,
			"byteOffset":267904,
			"target":34962
		},
		{
			"buffer":0,
			"byteLength":12084,
			"byteOffset":277224,
			"target":34963
		},
		{
			"buffer":0,
			"byteLength":11400,
			"byteOffset":289308,
			"target":34962
		},
		{
			"buffer":0,
			"byteLength":11400,
			"byteOffset":300708,
			"target":34962
		},
		{
			"buffer":0,
			"byteLength":7600,
			"byteOffset":312108,
			"target":34962
		},
		{
			"buffer":0,
			"byteLength":9786,
			"byteOffset":319708,
			"target":34963
		},
		{
			"buffer":0,
			"byteLength":17100,
			"byteOffset":329496,
			"target":34962
		},
		{
			"buffer":0,
			"byteLength":17100,
			"byteOffset":346596,
			"target":34962
		},
		{
			"buffer":0,
			"byteLength":11400,
			"byteOffset":363696,
			"target":34962
		},
		{
			"buffer":0,
			"byteLength":15510,
			"byteOffset":375096,
			"target":34963
		},
		{
			"buffer":0,
			"byteLength":13536,
			"byteOffset":390608,
			"target":34962
		},
		{
			"buffer":0,
			"byteLength":13536,
			"byteOffset":404144,
			"target":34962
		},
		{
			"buffer":0,
			"byteLength":9024,
			"byteOffset":417680,
			"target":34962
		},
		{
			"buffer":0,
			"byteLength":9624,
			"byteOffset":426704,
			"target":34963
		}
	],
	"samplers":[
		{
			"magFilter":9729,
			"minFilter":9987
		}
	],
	"buffers":[
		{
			"byteLength":436328,
			"uri":"mdl_hub_vintagedesklamp.bin"
		}
	]
}
