{
	"asset":{
		"generator":"Khronos glTF Blender I/O v4.0.44",
		"version":"2.0"
	},
	"extensionsUsed":[
		"KHR_materials_specular"
	],
	"scene":0,
	"scenes":[
		{
			"name":"Scene",
			"nodes":[
				6
			]
		}
	],
	"nodes":[
		{
			"mesh":0,
			"name":"LowPolyTree_Default OBJ_0"
		},
		{
			"children":[
				0
			],
			"name":"LowPolyTree",
			"scale":[
				12.507538795471191,
				12.507538795471191,
				12.507538795471191
			]
		},
		{
			"mesh":1,
			"name":"LowPolyTree.002_Default OBJ.001_0"
		},
		{
			"children":[
				2
			],
			"name":"LowPolyTree.002",
			"scale":[
				12.507538795471191,
				12.507538795471191,
				12.507538795471191
			]
		},
		{
			"children":[
				1,
				3
			],
			"name":"RootNode"
		},
		{
			"children":[
				4
			],
			"name":"18d8730ec26a45a0a57ce1bb760fc9ef.fbx",
			"rotation":[
				0.70710688829422,
				0,
				0,
				0.7071066498756409
			]
		},
		{
			"children":[
				5
			],
			"name":"Sketchfab_model",
			"rotation":[
				-0.70710688829422,
				0,
				0,
				0.7071066498756409
			]
		}
	],
	"materials":[
		{
			"alphaCutoff":0.31727585196495056,
			"alphaMode":"MASK",
			"doubleSided":true,
			"name":"Default_OBJ",
			"pbrMetallicRoughness":{
				"baseColorTexture":{
					"index":0
				},
				"metallicFactor":0
			}
		},
		{
			"doubleSided":true,
			"extensions":{
				"KHR_materials_specular":{
					"specularFactor":0
				}
			},
			"name":"Default_OBJ.001",
			"normalTexture":{
				"index":1
			},
			"pbrMetallicRoughness":{
				"baseColorTexture":{
					"index":2
				},
				"metallicFactor":0,
				"roughnessFactor":0.75
			}
		}
	],
	"meshes":[
		{
			"name":"LowPolyTree_Default OBJ_0",
			"primitives":[
				{
					"attributes":{
						"POSITION":0,
						"NORMAL":1,
						"TEXCOORD_0":2
					},
					"indices":3,
					"material":0
				}
			]
		},
		{
			"name":"LowPolyTree.002_Default OBJ.001_0",
			"primitives":[
				{
					"attributes":{
						"POSITION":4,
						"NORMAL":5,
						"TEXCOORD_0":6,
						"TEXCOORD_1":7,
						"TEXCOORD_2":8
					},
					"indices":9,
					"material":1
				}
			]
		}
	],
	"textures":[
		{
			"sampler":0,
			"source":0
		},
		{
			"sampler":0,
			"source":1
		},
		{
			"sampler":0,
			"source":2
		}
	],
	"images":[
		{
			"mimeType":"image/png",
			"name":"tx_Krank_low_poly_tree_leaves",
			"uri":"tx_Krank_low_poly_tree_leaves.png"
		},
		{
			"mimeType":"image/png",
			"name":"tx_Krank_low_poly_tree_n",
			"uri":"tx_Krank_low_poly_tree_n.png"
		},
		{
			"mimeType":"image/png",
			"name":"tx_Krank_low_poly_tree_a",
			"uri":"tx_Krank_low_poly_tree_a.png"
		}
	],
	"accessors":[
		{
			"bufferView":0,
			"componentType":5126,
			"count":2400,
			"max":[
				40.068931579589844,
				116.48609924316406,
				38.46221923828125
			],
			"min":[
				-38.26021957397461,
				28.34609031677246,
				-36.69915008544922
			],
			"type":"VEC3"
		},
		{
			"bufferView":1,
			"componentType":5126,
			"count":2400,
			"type":"VEC3"
		},
		{
			"bufferView":2,
			"componentType":5126,
			"count":2400,
			"type":"VEC2"
		},
		{
			"bufferView":3,
			"componentType":5123,
			"count":3600,
			"type":"SCALAR"
		},
		{
			"bufferView":4,
			"componentType":5126,
			"count":2969,
			"max":[
				31.210309982299805,
				105.77316284179688,
				29.424800872802734
			],
			"min":[
				-29.09691047668457,
				0,
				-28.521209716796875
			],
			"type":"VEC3"
		},
		{
			"bufferView":5,
			"componentType":5126,
			"count":2969,
			"type":"VEC3"
		},
		{
			"bufferView":6,
			"componentType":5126,
			"count":2969,
			"type":"VEC2"
		},
		{
			"bufferView":7,
			"componentType":5126,
			"count":2969,
			"type":"VEC2"
		},
		{
			"bufferView":8,
			"componentType":5126,
			"count":2969,
			"type":"VEC2"
		},
		{
			"bufferView":9,
			"componentType":5123,
			"count":12462,
			"type":"SCALAR"
		}
	],
	"bufferViews":[
		{
			"buffer":0,
			"byteLength":28800,
			"byteOffset":0,
			"target":34962
		},
		{
			"buffer":0,
			"byteLength":28800,
			"byteOffset":28800,
			"target":34962
		},
		{
			"buffer":0,
			"byteLength":19200,
			"byteOffset":57600,
			"target":34962
		},
		{
			"buffer":0,
			"byteLength":7200,
			"byteOffset":76800,
			"target":34963
		},
		{
			"buffer":0,
			"byteLength":35628,
			"byteOffset":84000,
			"target":34962
		},
		{
			"buffer":0,
			"byteLength":35628,
			"byteOffset":119628,
			"target":34962
		},
		{
			"buffer":0,
			"byteLength":23752,
			"byteOffset":155256,
			"target":34962
		},
		{
			"buffer":0,
			"byteLength":23752,
			"byteOffset":179008,
			"target":34962
		},
		{
			"buffer":0,
			"byteLength":23752,
			"byteOffset":202760,
			"target":34962
		},
		{
			"buffer":0,
			"byteLength":24924,
			"byteOffset":226512,
			"target":34963
		}
	],
	"samplers":[
		{
			"magFilter":9729,
			"minFilter":9987
		}
	],
	"buffers":[
		{
			"byteLength":251436,
			"uri":"mdl_Krank_low_poly_tree.bin"
		}
	]
}
