{
	"asset":{
		"generator":"Khronos glTF Blender I/O v4.2.57",
		"version":"2.0"
	},
	"extensionsUsed":[
		"KHR_materials_specular",
		"KHR_materials_ior"
	],
	"scene":0,
	"scenes":[
		{
			"name":"Scene",
			"nodes":[
				9
			]
		}
	],
	"nodes":[
		{
			"name":"Chair Arc",
			"rotation":[
				-0.6603619456291199,
				-0.2528282403945923,
				-0.2528282403945923,
				0.6603619456291199
			],
			"scale":[
				100.00000762939453,
				100.0000228881836,
				100
			],
			"translation":[
				0,
				-57.4358024597168,
				0
			]
		},
		{
			"name":"Chair Details",
			"rotation":[
				-0.70710688829422,
				0,
				0,
				0.7071066498756409
			],
			"scale":[
				8.817643165588379,
				8.81763744354248,
				2.817641019821167
			],
			"translation":[
				0.839543342590332,
				20.75255012512207,
				78.73443603515625
			]
		},
		{
			"name":"Leather Seating",
			"rotation":[
				-0.70710688829422,
				0,
				0,
				0.7071066498756409
			],
			"scale":[
				119.50018310546875,
				99.50013732910156,
				24.410057067871094
			],
			"translation":[
				0,
				-41.91733169555664,
				25.350250244140625
			]
		},
		{
			"name":"Leather Top",
			"rotation":[
				-0.6603619456291199,
				-0.2528282403945923,
				-0.2528281807899475,
				0.6603619456291199
			],
			"scale":[
				112.99998474121094,
				112.99999237060547,
				341
			],
			"translation":[
				0,
				61.97705841064453,
				-2.9550552368164062
			]
		},
		{
			"mesh":0,
			"name":"Wood  Front_Wood  Front_0"
		},
		{
			"children":[
				4
			],
			"name":"Wood  Front",
			"rotation":[
				-0.70710688829422,
				0,
				0,
				0.7071066498756409
			],
			"scale":[
				9.984481811523438,
				4.415334701538086,
				16.876758575439453
			],
			"translation":[
				-132.6259307861328,
				57.32637405395508,
				-8.271737098693848
			]
		},
		{
			"name":"Wood Legs",
			"rotation":[
				-0.70710688829422,
				0,
				0,
				0.7071066498756409
			],
			"scale":[
				9.692595481872559,
				9.69258975982666,
				7.692591667175293
			],
			"translation":[
				-117.25286102294922,
				-229.7302703857422,
				-52.29279708862305
			]
		},
		{
			"children":[
				0,
				1,
				2,
				3,
				5,
				6
			],
			"name":"RootNode"
		},
		{
			"children":[
				7
			],
			"name":"f27e29a9dbc3451abce397231ef49a48.fbx",
			"rotation":[
				0.70710688829422,
				0,
				0,
				0.7071066498756409
			],
			"scale":[
				0.009999999776482582,
				0.009999996982514858,
				0.009999996982514858
			]
		},
		{
			"children":[
				8
			],
			"name":"Sketchfab_model",
			"rotation":[
				-0.70710688829422,
				0,
				0,
				0.7071066498756409
			]
		}
	],
	"materials":[
		{
			"doubleSided":true,
			"extensions":{
				"KHR_materials_specular":{
					"specularFactor":0
				}
			},
			"name":"Wood__Front.003",
			"normalTexture":{
				"index":0
			},
			"pbrMetallicRoughness":{
				"baseColorTexture":{
					"index":1
				},
				"metallicFactor":0,
				"roughnessFactor":0.7954545021057129
			}
		},
		{
			"doubleSided":true,
			"extensions":{
				"KHR_materials_specular":{
					"specularFactor":0
				}
			},
			"name":"Chair_Arc.003",
			"normalTexture":{
				"index":2
			},
			"pbrMetallicRoughness":{
				"baseColorTexture":{
					"index":3
				},
				"metallicFactor":0,
				"roughnessFactor":0.8227272629737854
			}
		},
		{
			"doubleSided":true,
			"extensions":{
				"KHR_materials_specular":{
					"specularFactor":0
				}
			},
			"name":"Chair_Details.003",
			"normalTexture":{
				"index":4
			},
			"pbrMetallicRoughness":{
				"baseColorTexture":{
					"index":5
				},
				"metallicFactor":0,
				"roughnessFactor":0.8272727131843567
			}
		},
		{
			"doubleSided":true,
			"extensions":{
				"KHR_materials_specular":{
					"specularFactor":0,
					"specularColorFactor":[
						0.6850394010543823,
						0.6850394010543823,
						0.6850394010543823
					]
				},
				"KHR_materials_ior":{
					"ior":1
				}
			},
			"name":"Leather_Seating.003",
			"normalTexture":{
				"index":6
			},
			"pbrMetallicRoughness":{
				"baseColorTexture":{
					"index":7
				},
				"metallicFactor":0,
				"roughnessFactor":0.7666666507720947
			}
		},
		{
			"doubleSided":true,
			"extensions":{
				"KHR_materials_specular":{
					"specularFactor":0,
					"specularColorFactor":[
						0.7165354490280151,
						0.7165354490280151,
						0.7165354490280151
					]
				}
			},
			"name":"Leather_Top.003",
			"normalTexture":{
				"index":8
			},
			"pbrMetallicRoughness":{
				"baseColorTexture":{
					"index":9
				},
				"metallicFactor":0,
				"roughnessFactor":0.8015873432159424
			}
		},
		{
			"doubleSided":true,
			"extensions":{
				"KHR_materials_specular":{
					"specularFactor":0
				}
			},
			"name":"Wood_Legs.003",
			"normalTexture":{
				"index":10
			},
			"pbrMetallicRoughness":{
				"baseColorTexture":{
					"index":11
				},
				"metallicFactor":0,
				"roughnessFactor":0.7227272987365723
			}
		}
	],
	"meshes":[
		{
			"name":"Wood  Front_Wood  Front_0.003",
			"primitives":[
				{
					"attributes":{
						"POSITION":0,
						"NORMAL":1,
						"TEXCOORD_0":2
					},
					"indices":3,
					"material":0
				},
				{
					"attributes":{
						"POSITION":4,
						"NORMAL":5,
						"TEXCOORD_0":6
					},
					"indices":7,
					"material":1
				},
				{
					"attributes":{
						"POSITION":8,
						"NORMAL":9,
						"TEXCOORD_0":10
					},
					"indices":11,
					"material":2
				},
				{
					"attributes":{
						"POSITION":12,
						"NORMAL":13,
						"TEXCOORD_0":14
					},
					"indices":15,
					"material":3
				},
				{
					"attributes":{
						"POSITION":16,
						"NORMAL":17,
						"TEXCOORD_0":18
					},
					"indices":19,
					"material":4
				},
				{
					"attributes":{
						"POSITION":20,
						"NORMAL":21,
						"TEXCOORD_0":22
					},
					"indices":23,
					"material":5
				}
			]
		}
	],
	"textures":[
		{
			"sampler":0,
			"source":0
		},
		{
			"sampler":0,
			"source":1
		},
		{
			"sampler":0,
			"source":2
		},
		{
			"sampler":0,
			"source":3
		},
		{
			"sampler":0,
			"source":4
		},
		{
			"sampler":0,
			"source":5
		},
		{
			"sampler":0,
			"source":6
		},
		{
			"sampler":0,
			"source":7
		},
		{
			"sampler":0,
			"source":8
		},
		{
			"sampler":0,
			"source":9
		},
		{
			"sampler":0,
			"source":10
		},
		{
			"sampler":0,
			"source":11
		}
	],
	"images":[
		{
			"mimeType":"image/png",
			"name":"tx_hub_leatherofficechairNormal3",
			"uri":"tx_hub_leatherofficechairNormal3.png"
		},
		{
			"mimeType":"image/png",
			"name":"tx_hub_leatherofficechairColor3",
			"uri":"tx_hub_leatherofficechairColor3.png"
		},
		{
			"mimeType":"image/png",
			"name":"tx_hub_leatherofficechairNormal4",
			"uri":"tx_hub_leatherofficechairNormal4.png"
		},
		{
			"mimeType":"image/png",
			"name":"tx_hub_leatherofficechairColor4",
			"uri":"tx_hub_leatherofficechairColor4.png"
		},
		{
			"mimeType":"image/png",
			"name":"tx_hub_leatherofficechairNormal5",
			"uri":"tx_hub_leatherofficechairNormal5.png"
		},
		{
			"mimeType":"image/png",
			"name":"tx_hub_leatherofficechairColor5",
			"uri":"tx_hub_leatherofficechairColor5.png"
		},
		{
			"mimeType":"image/png",
			"name":"tx_hub_leatherofficechairColor1",
			"uri":"tx_hub_leatherofficechairColor1.png"
		},
		{
			"mimeType":"image/png",
			"name":"tx_hub_leatherofficechairColor1",
			"uri":"tx_hub_leatherofficechairColor1-1.png"
		},
		{
			"mimeType":"image/png",
			"name":"tx_brush_deskchairtopnormal",
			"uri":"tx_brush_deskchairtopnormal.png"
		},
		{
			"mimeType":"image/png",
			"name":"tx_hub_leatherofficechairColor2",
			"uri":"tx_hub_leatherofficechairColor2.png"
		},
		{
			"mimeType":"image/png",
			"name":"tx_hub_leatherofficechairNormal6",
			"uri":"tx_hub_leatherofficechairNormal6.png"
		},
		{
			"mimeType":"image/png",
			"name":"tx_hub_leatherofficechairColor6",
			"uri":"tx_hub_leatherofficechairColor6.png"
		}
	],
	"accessors":[
		{
			"bufferView":0,
			"componentType":5126,
			"count":259,
			"max":[
				27.682769775390625,
				16.516572952270508,
				1.3826371431350708
			],
			"min":[
				-1.0956051349639893,
				-5.131980895996094,
				-7.32158899307251
			],
			"type":"VEC3"
		},
		{
			"bufferView":1,
			"componentType":5126,
			"count":259,
			"type":"VEC3"
		},
		{
			"bufferView":2,
			"componentType":5126,
			"count":259,
			"type":"VEC2"
		},
		{
			"bufferView":3,
			"componentType":5123,
			"count":360,
			"type":"SCALAR"
		},
		{
			"bufferView":4,
			"componentType":5126,
			"count":3523,
			"max":[
				27.60403823852539,
				-0.09160399436950684,
				-0.1834731101989746
			],
			"min":[
				-1.0382156372070312,
				-34.26044845581055,
				-7.214786052703857
			],
			"type":"VEC3"
		},
		{
			"bufferView":5,
			"componentType":5126,
			"count":3523,
			"type":"VEC3"
		},
		{
			"bufferView":6,
			"componentType":5126,
			"count":3523,
			"type":"VEC2"
		},
		{
			"bufferView":7,
			"componentType":5123,
			"count":4947,
			"type":"SCALAR"
		},
		{
			"bufferView":8,
			"componentType":5126,
			"count":9601,
			"max":[
				27.446491241455078,
				-1.2291202545166016,
				-0.8924878835678101
			],
			"min":[
				-0.9623394012451172,
				-33.883270263671875,
				-6.543634414672852
			],
			"type":"VEC3"
		},
		{
			"bufferView":9,
			"componentType":5126,
			"count":9601,
			"type":"VEC3"
		},
		{
			"bufferView":10,
			"componentType":5126,
			"count":9601,
			"type":"VEC2"
		},
		{
			"bufferView":11,
			"componentType":5123,
			"count":24279,
			"type":"SCALAR"
		},
		{
			"bufferView":12,
			"componentType":5126,
			"count":830,
			"max":[
				25.14080810546875,
				14.887821197509766,
				-4.430822372436523
			],
			"min":[
				1.4901657104492188,
				-29.87626838684082,
				-7.320337772369385
			],
			"type":"VEC3"
		},
		{
			"bufferView":13,
			"componentType":5126,
			"count":830,
			"type":"VEC3"
		},
		{
			"bufferView":14,
			"componentType":5126,
			"count":830,
			"type":"VEC2"
		},
		{
			"bufferView":15,
			"componentType":5123,
			"count":2040,
			"type":"SCALAR"
		},
		{
			"bufferView":16,
			"componentType":5126,
			"count":482,
			"max":[
				29.461223602294922,
				0.6803865432739258,
				2.2183773517608643
			],
			"min":[
				-2.8759279251098633,
				-37.67589569091797,
				-1.1461524963378906
			],
			"type":"VEC3"
		},
		{
			"bufferView":17,
			"componentType":5126,
			"count":482,
			"type":"VEC3"
		},
		{
			"bufferView":18,
			"componentType":5126,
			"count":482,
			"type":"VEC2"
		},
		{
			"bufferView":19,
			"componentType":5123,
			"count":1812,
			"type":"SCALAR"
		},
		{
			"bufferView":20,
			"componentType":5126,
			"count":2812,
			"max":[
				26.869728088378906,
				13.32176685333252,
				-7.048749923706055
			],
			"min":[
				-0.012000083923339844,
				-30.15972900390625,
				-17.464799880981445
			],
			"type":"VEC3"
		},
		{
			"bufferView":21,
			"componentType":5126,
			"count":2812,
			"type":"VEC3"
		},
		{
			"bufferView":22,
			"componentType":5126,
			"count":2812,
			"type":"VEC2"
		},
		{
			"bufferView":23,
			"componentType":5123,
			"count":6744,
			"type":"SCALAR"
		}
	],
	"bufferViews":[
		{
			"buffer":0,
			"byteLength":3108,
			"byteOffset":0,
			"target":34962
		},
		{
			"buffer":0,
			"byteLength":3108,
			"byteOffset":3108,
			"target":34962
		},
		{
			"buffer":0,
			"byteLength":2072,
			"byteOffset":6216,
			"target":34962
		},
		{
			"buffer":0,
			"byteLength":720,
			"byteOffset":8288,
			"target":34963
		},
		{
			"buffer":0,
			"byteLength":42276,
			"byteOffset":9008,
			"target":34962
		},
		{
			"buffer":0,
			"byteLength":42276,
			"byteOffset":51284,
			"target":34962
		},
		{
			"buffer":0,
			"byteLength":28184,
			"byteOffset":93560,
			"target":34962
		},
		{
			"buffer":0,
			"byteLength":9894,
			"byteOffset":121744,
			"target":34963
		},
		{
			"buffer":0,
			"byteLength":115212,
			"byteOffset":131640,
			"target":34962
		},
		{
			"buffer":0,
			"byteLength":115212,
			"byteOffset":246852,
			"target":34962
		},
		{
			"buffer":0,
			"byteLength":76808,
			"byteOffset":362064,
			"target":34962
		},
		{
			"buffer":0,
			"byteLength":48558,
			"byteOffset":438872,
			"target":34963
		},
		{
			"buffer":0,
			"byteLength":9960,
			"byteOffset":487432,
			"target":34962
		},
		{
			"buffer":0,
			"byteLength":9960,
			"byteOffset":497392,
			"target":34962
		},
		{
			"buffer":0,
			"byteLength":6640,
			"byteOffset":507352,
			"target":34962
		},
		{
			"buffer":0,
			"byteLength":4080,
			"byteOffset":513992,
			"target":34963
		},
		{
			"buffer":0,
			"byteLength":5784,
			"byteOffset":518072,
			"target":34962
		},
		{
			"buffer":0,
			"byteLength":5784,
			"byteOffset":523856,
			"target":34962
		},
		{
			"buffer":0,
			"byteLength":3856,
			"byteOffset":529640,
			"target":34962
		},
		{
			"buffer":0,
			"byteLength":3624,
			"byteOffset":533496,
			"target":34963
		},
		{
			"buffer":0,
			"byteLength":33744,
			"byteOffset":537120,
			"target":34962
		},
		{
			"buffer":0,
			"byteLength":33744,
			"byteOffset":570864,
			"target":34962
		},
		{
			"buffer":0,
			"byteLength":22496,
			"byteOffset":604608,
			"target":34962
		},
		{
			"buffer":0,
			"byteLength":13488,
			"byteOffset":627104,
			"target":34963
		}
	],
	"samplers":[
		{
			"magFilter":9729,
			"minFilter":9987
		}
	],
	"buffers":[
		{
			"byteLength":640592,
			"uri":"mdl_hub_leatherofficechair.bin"
		}
	]
}
