{
	"asset":{
		"generator":"Khronos glTF Blender I/O v4.0.44",
		"version":"2.0"
	},
	"extensionsUsed":[
		"KHR_texture_transform"
	],
	"extensionsRequired":[
		"KHR_texture_transform"
	],
	"scene":0,
	"scenes":[
		{
			"name":"Scene",
			"nodes":[
				6,
				7
			]
		}
	],
	"nodes":[
		{
			"mesh":0,
			"name":"Cover"
		},
		{
			"mesh":1,
			"name":"Fillers"
		},
		{
			"mesh":2,
			"name":"InsideWalls"
		},
		{
			"mesh":3,
			"name":"LowerWalls"
		},
		{
			"mesh":4,
			"name":"OutsideWalls"
		},
		{
			"children":[
				0,
				1,
				2,
				3,
				4
			],
			"name":"Collada visual scene group"
		},
		{
			"children":[
				5
			],
			"name":"Sketchfab_model"
		},
		{
			"mesh":5,
			"name":"Cylinder"
		}
	],
	"materials":[
		{
			"name":"GE-LB-30cmz1",
			"pbrMetallicRoughness":{
				"baseColorTexture":{
					"index":0
				},
				"metallicFactor":0,
				"roughnessFactor":0.6000000238418579
			}
		},
		{
			"name":"Kante",
			"pbrMetallicRoughness":{
				"baseColorFactor":[
					0.5254899859428406,
					0.4274510145187378,
					0.2705880105495453,
					1
				],
				"metallicFactor":0,
				"roughnessFactor":0.6000000238418579
			}
		},
		{
			"name":"Innen",
			"pbrMetallicRoughness":{
				"baseColorFactor":[
					0.549019992351532,
					0.5137249827384949,
					0.3921569883823395,
					1
				],
				"metallicFactor":0,
				"roughnessFactor":0.6000000238418579
			}
		},
		{
			"name":"c2z3",
			"pbrMetallicRoughness":{
				"baseColorTexture":{
					"index":1
				},
				"metallicFactor":0,
				"roughnessFactor":0.6000000238418579
			}
		},
		{
			"name":"c1bz1",
			"pbrMetallicRoughness":{
				"baseColorTexture":{
					"index":2
				},
				"metallicFactor":0,
				"roughnessFactor":0.9595166444778442
			}
		},
		{
			"doubleSided":true,
			"name":"Material",
			"normalTexture":{
				"extensions":{
					"KHR_texture_transform":{
						"offset":[
							0,
							-5.399999618530273
						],
						"scale":[
							6.399999618530273,
							6.399999618530273
						]
					}
				},
				"index":3
			},
			"pbrMetallicRoughness":{
				"baseColorTexture":{
					"extensions":{
						"KHR_texture_transform":{
							"offset":[
								0,
								-5.399999618530273
							],
							"scale":[
								6.399999618530273,
								6.399999618530273
							]
						}
					},
					"index":4
				},
				"metallicFactor":0,
				"metallicRoughnessTexture":{
					"extensions":{
						"KHR_texture_transform":{
							"offset":[
								0,
								-5.399999618530273
							],
							"scale":[
								6.399999618530273,
								6.399999618530273
							]
						}
					},
					"index":5
				}
			}
		}
	],
	"meshes":[
		{
			"name":"Material2.006",
			"primitives":[
				{
					"attributes":{
						"POSITION":0,
						"NORMAL":1,
						"TEXCOORD_0":2
					},
					"indices":3,
					"material":0
				}
			]
		},
		{
			"name":"Material3.002",
			"primitives":[
				{
					"attributes":{
						"POSITION":4,
						"NORMAL":5
					},
					"indices":6,
					"material":1
				}
			]
		},
		{
			"name":"Material2.009",
			"primitives":[
				{
					"attributes":{
						"POSITION":7,
						"NORMAL":8
					},
					"indices":9,
					"material":2
				}
			]
		},
		{
			"name":"Material3.003",
			"primitives":[
				{
					"attributes":{
						"POSITION":10,
						"NORMAL":11,
						"TEXCOORD_0":12
					},
					"indices":13,
					"material":3
				}
			]
		},
		{
			"name":"Material2.008",
			"primitives":[
				{
					"attributes":{
						"POSITION":14,
						"NORMAL":15,
						"TEXCOORD_0":16
					},
					"indices":17,
					"material":4
				}
			]
		},
		{
			"name":"Cylinder",
			"primitives":[
				{
					"attributes":{
						"POSITION":18,
						"NORMAL":19,
						"TEXCOORD_0":20
					},
					"indices":21,
					"material":5
				}
			]
		}
	],
	"textures":[
		{
			"sampler":0,
			"source":0
		},
		{
			"sampler":0,
			"source":1
		},
		{
			"sampler":0,
			"source":2
		},
		{
			"sampler":0,
			"source":3
		},
		{
			"sampler":0,
			"source":4
		},
		{
			"sampler":0,
			"source":5
		}
	],
	"images":[
		{
			"mimeType":"image/jpeg",
			"name":"tx_apa_Image_0",
			"uri":"tx_apa_Image_0.jpg"
		},
		{
			"mimeType":"image/jpeg",
			"name":"tx_apa_Image_3",
			"uri":"tx_apa_Image_3.jpg"
		},
		{
			"mimeType":"image/jpeg",
			"name":"tx_apa_Image_2",
			"uri":"tx_apa_Image_2.jpg"
		},
		{
			"mimeType":"image/png",
			"name":"tx_apa_slab_tiles_nor_gl_1k",
			"uri":"tx_apa_slab_tiles_nor_gl_1k.png"
		},
		{
			"mimeType":"image/jpeg",
			"name":"tx_apa_slab_tiles_diff_1k",
			"uri":"tx_apa_slab_tiles_diff_1k.jpg"
		},
		{
			"mimeType":"image/png",
			"name":"tx_apa_slab_tiles_rough_1k",
			"uri":"tx_apa_slab_tiles_rough_1k.png"
		}
	],
	"accessors":[
		{
			"bufferView":0,
			"componentType":5126,
			"count":437,
			"max":[
				3.9542784690856934,
				1.1457128524780273,
				2.830326557159424
			],
			"min":[
				-3.9309983253479004,
				0.18537452816963196,
				-3.2263312339782715
			],
			"type":"VEC3"
		},
		{
			"bufferView":1,
			"componentType":5126,
			"count":437,
			"type":"VEC3"
		},
		{
			"bufferView":2,
			"componentType":5126,
			"count":437,
			"type":"VEC2"
		},
		{
			"bufferView":3,
			"componentType":5123,
			"count":1791,
			"type":"SCALAR"
		},
		{
			"bufferView":4,
			"componentType":5126,
			"count":248,
			"max":[
				4.057572841644287,
				2.140172004699707,
				2.8304624557495117
			],
			"min":[
				-3.9695234298706055,
				0.135019913315773,
				-3.226330280303955
			],
			"type":"VEC3"
		},
		{
			"bufferView":5,
			"componentType":5126,
			"count":248,
			"type":"VEC3"
		},
		{
			"bufferView":6,
			"componentType":5123,
			"count":459,
			"type":"SCALAR"
		},
		{
			"bufferView":7,
			"componentType":5126,
			"count":1448,
			"max":[
				4.057572841644287,
				2.140172004699707,
				2.8304624557495117
			],
			"min":[
				-3.9695234298706055,
				0.13501963019371033,
				-3.226330280303955
			],
			"type":"VEC3"
		},
		{
			"bufferView":8,
			"componentType":5126,
			"count":1448,
			"type":"VEC3"
		},
		{
			"bufferView":9,
			"componentType":5123,
			"count":4188,
			"type":"SCALAR"
		},
		{
			"bufferView":10,
			"componentType":5126,
			"count":442,
			"max":[
				3.4765796661376953,
				1.303815245628357,
				2.8303263187408447
			],
			"min":[
				-3.434971809387207,
				0.14360052347183228,
				-0.16061162948608398
			],
			"type":"VEC3"
		},
		{
			"bufferView":11,
			"componentType":5126,
			"count":442,
			"type":"VEC3"
		},
		{
			"bufferView":12,
			"componentType":5126,
			"count":442,
			"type":"VEC2"
		},
		{
			"bufferView":13,
			"componentType":5123,
			"count":1326,
			"type":"SCALAR"
		},
		{
			"bufferView":14,
			"componentType":5126,
			"count":1039,
			"max":[
				4.057572841644287,
				2.140172004699707,
				0.16026067733764648
			],
			"min":[
				-3.9695234298706055,
				0.13501963019371033,
				-3.226330280303955
			],
			"type":"VEC3"
		},
		{
			"bufferView":15,
			"componentType":5126,
			"count":1039,
			"type":"VEC3"
		},
		{
			"bufferView":16,
			"componentType":5126,
			"count":1039,
			"type":"VEC2"
		},
		{
			"bufferView":17,
			"componentType":5123,
			"count":3306,
			"type":"SCALAR"
		},
		{
			"bufferView":18,
			"componentType":5126,
			"count":396,
			"max":[
				4.271191596984863,
				0.2919798195362091,
				4.271191596984863
			],
			"min":[
				-4.271191596984863,
				-0.14852331578731537,
				-4.271191596984863
			],
			"type":"VEC3"
		},
		{
			"bufferView":19,
			"componentType":5126,
			"count":396,
			"type":"VEC3"
		},
		{
			"bufferView":20,
			"componentType":5126,
			"count":396,
			"type":"VEC2"
		},
		{
			"bufferView":21,
			"componentType":5123,
			"count":1536,
			"type":"SCALAR"
		}
	],
	"bufferViews":[
		{
			"buffer":0,
			"byteLength":5244,
			"byteOffset":0,
			"target":34962
		},
		{
			"buffer":0,
			"byteLength":5244,
			"byteOffset":5244,
			"target":34962
		},
		{
			"buffer":0,
			"byteLength":3496,
			"byteOffset":10488,
			"target":34962
		},
		{
			"buffer":0,
			"byteLength":3582,
			"byteOffset":13984,
			"target":34963
		},
		{
			"buffer":0,
			"byteLength":2976,
			"byteOffset":17568,
			"target":34962
		},
		{
			"buffer":0,
			"byteLength":2976,
			"byteOffset":20544,
			"target":34962
		},
		{
			"buffer":0,
			"byteLength":918,
			"byteOffset":23520,
			"target":34963
		},
		{
			"buffer":0,
			"byteLength":17376,
			"byteOffset":24440,
			"target":34962
		},
		{
			"buffer":0,
			"byteLength":17376,
			"byteOffset":41816,
			"target":34962
		},
		{
			"buffer":0,
			"byteLength":8376,
			"byteOffset":59192,
			"target":34963
		},
		{
			"buffer":0,
			"byteLength":5304,
			"byteOffset":67568,
			"target":34962
		},
		{
			"buffer":0,
			"byteLength":5304,
			"byteOffset":72872,
			"target":34962
		},
		{
			"buffer":0,
			"byteLength":3536,
			"byteOffset":78176,
			"target":34962
		},
		{
			"buffer":0,
			"byteLength":2652,
			"byteOffset":81712,
			"target":34963
		},
		{
			"buffer":0,
			"byteLength":12468,
			"byteOffset":84364,
			"target":34962
		},
		{
			"buffer":0,
			"byteLength":12468,
			"byteOffset":96832,
			"target":34962
		},
		{
			"buffer":0,
			"byteLength":8312,
			"byteOffset":109300,
			"target":34962
		},
		{
			"buffer":0,
			"byteLength":6612,
			"byteOffset":117612,
			"target":34963
		},
		{
			"buffer":0,
			"byteLength":4752,
			"byteOffset":124224,
			"target":34962
		},
		{
			"buffer":0,
			"byteLength":4752,
			"byteOffset":128976,
			"target":34962
		},
		{
			"buffer":0,
			"byteLength":3168,
			"byteOffset":133728,
			"target":34962
		},
		{
			"buffer":0,
			"byteLength":3072,
			"byteOffset":136896,
			"target":34963
		}
	],
	"samplers":[
		{
			"magFilter":9729,
			"minFilter":9987
		}
	],
	"buffers":[
		{
			"byteLength":139968,
			"uri":"mdl_apa_souvenir.bin"
		}
	]
}
