{
	"asset":{
		"generator":"Khronos glTF Blender I/O v4.1.62",
		"version":"2.0"
	},
	"extensionsUsed":[
		"KHR_materials_specular"
	],
	"scene":0,
	"scenes":[
		{
			"name":"Scene",
			"nodes":[
				18
			]
		}
	],
	"nodes":[
		{
			"mesh":0,
			"name":"back _chair_0"
		},
		{
			"children":[
				0
			],
			"name":"back ",
			"rotation":[
				-0.7071020007133484,
				0.0026047106366604567,
				-0.0026047106366604567,
				0.7071019411087036
			],
			"scale":[
				100.00003814697266,
				99.99998474121094,
				100
			]
		},
		{
			"mesh":1,
			"name":"cushion 1_cushions_0"
		},
		{
			"children":[
				2
			],
			"name":"cushion 1",
			"rotation":[
				-0.5881041884422302,
				0.3925986588001251,
				-0.392598420381546,
				0.5881039500236511
			],
			"scale":[
				99.9999771118164,
				100.00000762939453,
				100
			]
		},
		{
			"mesh":2,
			"name":"cushion 2 _cushions_0"
		},
		{
			"children":[
				4
			],
			"name":"cushion 2 ",
			"rotation":[
				-0.7055174112319946,
				-0.04738654941320419,
				0.047386534512043,
				0.705517053604126
			],
			"scale":[
				100.00000762939453,
				100.00004577636719,
				100.00001525878906
			]
		},
		{
			"mesh":3,
			"name":"front _chair_0"
		},
		{
			"children":[
				6
			],
			"name":"front ",
			"rotation":[
				-0.7071020007133484,
				0.0026047106366604567,
				-0.0026047106366604567,
				0.7071019411087036
			],
			"scale":[
				100.00003814697266,
				99.99998474121094,
				100
			]
		},
		{
			"mesh":4,
			"name":"Legs _chair_0"
		},
		{
			"children":[
				8
			],
			"name":"Legs ",
			"rotation":[
				-0.70710688829422,
				0,
				0,
				0.7071066498756409
			],
			"scale":[
				100.00000762939453,
				99.99998474121094,
				99.99998474121094
			]
		},
		{
			"mesh":5,
			"name":"Seat_chair_0"
		},
		{
			"children":[
				10
			],
			"name":"Seat",
			"rotation":[
				-0.7071020007133484,
				0.0026047106366604567,
				-0.0026047106366604567,
				0.7071019411087036
			],
			"scale":[
				100.00003814697266,
				99.99998474121094,
				100
			]
		},
		{
			"mesh":6,
			"name":"Sides_chair_0"
		},
		{
			"children":[
				12
			],
			"name":"Sides",
			"rotation":[
				-0.7071020007133484,
				0.0026047106366604567,
				-0.0026047106366604567,
				0.7071019411087036
			],
			"scale":[
				100.00003814697266,
				99.99998474121094,
				100
			]
		},
		{
			"mesh":7,
			"name":"top_chair_0"
		},
		{
			"children":[
				14
			],
			"name":"top",
			"rotation":[
				-0.7071020007133484,
				0.0026047106366604567,
				-0.0026047106366604567,
				0.7071019411087036
			],
			"scale":[
				100.00003814697266,
				99.99998474121094,
				100
			]
		},
		{
			"children":[
				1,
				3,
				5,
				7,
				9,
				11,
				13,
				15
			],
			"name":"RootNode"
		},
		{
			"children":[
				16
			],
			"name":"Bovenkamp.fbx",
			"rotation":[
				0.70710688829422,
				0,
				0,
				0.7071066498756409
			],
			"scale":[
				0.009999999776482582,
				0.009999998845160007,
				0.009999998845160007
			]
		},
		{
			"children":[
				17
			],
			"name":"Sketchfab_model",
			"rotation":[
				-0.70710688829422,
				0,
				0,
				0.7071066498756409
			]
		}
	],
	"materials":[
		{
			"doubleSided":true,
			"extensions":{
				"KHR_materials_specular":{
					"specularFactor":0
				}
			},
			"name":"chair.003",
			"normalTexture":{
				"index":0
			},
			"pbrMetallicRoughness":{
				"baseColorTexture":{
					"index":1
				},
				"metallicFactor":0,
				"roughnessFactor":0.7227272987365723
			}
		},
		{
			"doubleSided":true,
			"extensions":{
				"KHR_materials_specular":{
					"specularFactor":0
				}
			},
			"name":"cushions.003",
			"normalTexture":{
				"index":2
			},
			"pbrMetallicRoughness":{
				"baseColorTexture":{
					"index":3
				},
				"metallicFactor":0,
				"roughnessFactor":0.800000011920929
			}
		}
	],
	"meshes":[
		{
			"name":"back _chair_0.003",
			"primitives":[
				{
					"attributes":{
						"POSITION":0,
						"NORMAL":1,
						"TEXCOORD_0":2,
						"TEXCOORD_1":3,
						"TEXCOORD_2":4
					},
					"indices":5,
					"material":0
				}
			]
		},
		{
			"name":"cushion 1_cushions_0.003",
			"primitives":[
				{
					"attributes":{
						"POSITION":6,
						"NORMAL":7,
						"TEXCOORD_0":8,
						"TEXCOORD_1":9,
						"TEXCOORD_2":10
					},
					"indices":11,
					"material":1
				}
			]
		},
		{
			"name":"cushion 2 _cushions_0.003",
			"primitives":[
				{
					"attributes":{
						"POSITION":12,
						"NORMAL":13,
						"TEXCOORD_0":14,
						"TEXCOORD_1":15,
						"TEXCOORD_2":16
					},
					"indices":17,
					"material":1
				}
			]
		},
		{
			"name":"front _chair_0.003",
			"primitives":[
				{
					"attributes":{
						"POSITION":18,
						"NORMAL":19,
						"TEXCOORD_0":20,
						"TEXCOORD_1":21,
						"TEXCOORD_2":22
					},
					"indices":23,
					"material":0
				}
			]
		},
		{
			"name":"Legs _chair_0.003",
			"primitives":[
				{
					"attributes":{
						"POSITION":24,
						"NORMAL":25,
						"TEXCOORD_0":26,
						"TEXCOORD_1":27,
						"TEXCOORD_2":28
					},
					"indices":29,
					"material":0
				}
			]
		},
		{
			"name":"Seat_chair_0.003",
			"primitives":[
				{
					"attributes":{
						"POSITION":30,
						"NORMAL":31,
						"TEXCOORD_0":32,
						"TEXCOORD_1":33,
						"TEXCOORD_2":34
					},
					"indices":35,
					"material":0
				}
			]
		},
		{
			"name":"Sides_chair_0.003",
			"primitives":[
				{
					"attributes":{
						"POSITION":36,
						"NORMAL":37,
						"TEXCOORD_0":38,
						"TEXCOORD_1":39,
						"TEXCOORD_2":40
					},
					"indices":41,
					"material":0
				}
			]
		},
		{
			"name":"top_chair_0.003",
			"primitives":[
				{
					"attributes":{
						"POSITION":42,
						"NORMAL":43,
						"TEXCOORD_0":44,
						"TEXCOORD_1":45,
						"TEXCOORD_2":46
					},
					"indices":47,
					"material":0
				}
			]
		}
	],
	"textures":[
		{
			"sampler":0,
			"source":0
		},
		{
			"sampler":0,
			"source":1
		},
		{
			"sampler":0,
			"source":2
		},
		{
			"sampler":0,
			"source":3
		}
	],
	"images":[
		{
			"mimeType":"image/png",
			"name":"tx_hub_vintagechairWoodNormal",
			"uri":"tx_hub_vintagechairWoodNormal.png"
		},
		{
			"mimeType":"image/png",
			"name":"tx_hub_vintagechairWoodColor",
			"uri":"tx_hub_vintagechairWoodColor.png"
		},
		{
			"mimeType":"image/png",
			"name":"tx_hub_vintagechairfabricNormal",
			"uri":"tx_hub_vintagechairfabricNormal.png"
		},
		{
			"mimeType":"image/png",
			"name":"tx_hub_vintagechairColor",
			"uri":"tx_hub_vintagechairColor.png"
		}
	],
	"accessors":[
		{
			"bufferView":0,
			"componentType":5126,
			"count":156,
			"max":[
				-0.47737830877304077,
				0.2930571138858795,
				1.1106393337249756
			],
			"min":[
				-0.7367231845855713,
				-0.3011840283870697,
				0.418937087059021
			],
			"type":"VEC3"
		},
		{
			"bufferView":1,
			"componentType":5126,
			"count":156,
			"type":"VEC3"
		},
		{
			"bufferView":2,
			"componentType":5126,
			"count":156,
			"type":"VEC2"
		},
		{
			"bufferView":3,
			"componentType":5126,
			"count":156,
			"type":"VEC2"
		},
		{
			"bufferView":4,
			"componentType":5126,
			"count":156,
			"type":"VEC2"
		},
		{
			"bufferView":5,
			"componentType":5123,
			"count":432,
			"type":"SCALAR"
		},
		{
			"bufferView":6,
			"componentType":5126,
			"count":1016,
			"max":[
				-0.6456626653671265,
				0.4392712116241455,
				-0.04499535635113716
			],
			"min":[
				-1.458014965057373,
				-0.4334627091884613,
				-0.23606447875499725
			],
			"type":"VEC3"
		},
		{
			"bufferView":7,
			"componentType":5126,
			"count":1016,
			"type":"VEC3"
		},
		{
			"bufferView":8,
			"componentType":5126,
			"count":1016,
			"type":"VEC2"
		},
		{
			"bufferView":9,
			"componentType":5126,
			"count":1016,
			"type":"VEC2"
		},
		{
			"bufferView":10,
			"componentType":5126,
			"count":1016,
			"type":"VEC2"
		},
		{
			"bufferView":11,
			"componentType":5123,
			"count":4764,
			"type":"SCALAR"
		},
		{
			"bufferView":12,
			"componentType":5126,
			"count":902,
			"max":[
				0.5715944766998291,
				0.41532161831855774,
				0.6196715831756592
			],
			"min":[
				-0.3768694996833801,
				-0.43931010365486145,
				0.4399566650390625
			],
			"type":"VEC3"
		},
		{
			"bufferView":13,
			"componentType":5126,
			"count":902,
			"type":"VEC3"
		},
		{
			"bufferView":14,
			"componentType":5126,
			"count":902,
			"type":"VEC2"
		},
		{
			"bufferView":15,
			"componentType":5126,
			"count":902,
			"type":"VEC2"
		},
		{
			"bufferView":16,
			"componentType":5126,
			"count":902,
			"type":"VEC2"
		},
		{
			"bufferView":17,
			"componentType":5123,
			"count":4128,
			"type":"SCALAR"
		},
		{
			"bufferView":18,
			"componentType":5126,
			"count":100,
			"max":[
				0.5047863125801086,
				0.42968279123306274,
				0.5377976894378662
			],
			"min":[
				0.47100695967674255,
				-0.42968279123306274,
				0.48449164628982544
			],
			"type":"VEC3"
		},
		{
			"bufferView":19,
			"componentType":5126,
			"count":100,
			"type":"VEC3"
		},
		{
			"bufferView":20,
			"componentType":5126,
			"count":100,
			"type":"VEC2"
		},
		{
			"bufferView":21,
			"componentType":5126,
			"count":100,
			"type":"VEC2"
		},
		{
			"bufferView":22,
			"componentType":5126,
			"count":100,
			"type":"VEC2"
		},
		{
			"bufferView":23,
			"componentType":5123,
			"count":468,
			"type":"SCALAR"
		},
		{
			"bufferView":24,
			"componentType":5126,
			"count":350,
			"max":[
				0.5104116797447205,
				0.4305652976036072,
				0.4335649907588959
			],
			"min":[
				-0.4985475242137909,
				-0.4305652976036072,
				-0.0014811763539910316
			],
			"type":"VEC3"
		},
		{
			"bufferView":25,
			"componentType":5126,
			"count":350,
			"type":"VEC3"
		},
		{
			"bufferView":26,
			"componentType":5126,
			"count":350,
			"type":"VEC2"
		},
		{
			"bufferView":27,
			"componentType":5126,
			"count":350,
			"type":"VEC2"
		},
		{
			"bufferView":28,
			"componentType":5126,
			"count":350,
			"type":"VEC2"
		},
		{
			"bufferView":29,
			"componentType":5123,
			"count":1488,
			"type":"SCALAR"
		},
		{
			"bufferView":30,
			"componentType":5126,
			"count":62,
			"max":[
				0.48122233152389526,
				0.38254693150520325,
				0.5120267868041992
			],
			"min":[
				-0.5323432683944702,
				-0.38254693150520325,
				0.2756483256816864
			],
			"type":"VEC3"
		},
		{
			"bufferView":31,
			"componentType":5126,
			"count":62,
			"type":"VEC3"
		},
		{
			"bufferView":32,
			"componentType":5126,
			"count":62,
			"type":"VEC2"
		},
		{
			"bufferView":33,
			"componentType":5126,
			"count":62,
			"type":"VEC2"
		},
		{
			"bufferView":34,
			"componentType":5126,
			"count":62,
			"type":"VEC2"
		},
		{
			"bufferView":35,
			"componentType":5123,
			"count":168,
			"type":"SCALAR"
		},
		{
			"bufferView":36,
			"componentType":5126,
			"count":692,
			"max":[
				0.4823616147041321,
				0.42968276143074036,
				1.2513821125030518
			],
			"min":[
				-0.7982957363128662,
				-0.42968276143074036,
				0.27202075719833374
			],
			"type":"VEC3"
		},
		{
			"bufferView":37,
			"componentType":5126,
			"count":692,
			"type":"VEC3"
		},
		{
			"bufferView":38,
			"componentType":5126,
			"count":692,
			"type":"VEC2"
		},
		{
			"bufferView":39,
			"componentType":5126,
			"count":692,
			"type":"VEC2"
		},
		{
			"bufferView":40,
			"componentType":5126,
			"count":692,
			"type":"VEC2"
		},
		{
			"bufferView":41,
			"componentType":5123,
			"count":2880,
			"type":"SCALAR"
		},
		{
			"bufferView":42,
			"componentType":5126,
			"count":36,
			"max":[
				-0.6995911598205566,
				0.38847410678863525,
				1.241811990737915
			],
			"min":[
				-0.7870701551437378,
				-0.3886784017086029,
				1.0788036584854126
			],
			"type":"VEC3"
		},
		{
			"bufferView":43,
			"componentType":5126,
			"count":36,
			"type":"VEC3"
		},
		{
			"bufferView":44,
			"componentType":5126,
			"count":36,
			"type":"VEC2"
		},
		{
			"bufferView":45,
			"componentType":5126,
			"count":36,
			"type":"VEC2"
		},
		{
			"bufferView":46,
			"componentType":5126,
			"count":36,
			"type":"VEC2"
		},
		{
			"bufferView":47,
			"componentType":5123,
			"count":96,
			"type":"SCALAR"
		}
	],
	"bufferViews":[
		{
			"buffer":0,
			"byteLength":1872,
			"byteOffset":0,
			"target":34962
		},
		{
			"buffer":0,
			"byteLength":1872,
			"byteOffset":1872,
			"target":34962
		},
		{
			"buffer":0,
			"byteLength":1248,
			"byteOffset":3744,
			"target":34962
		},
		{
			"buffer":0,
			"byteLength":1248,
			"byteOffset":4992,
			"target":34962
		},
		{
			"buffer":0,
			"byteLength":1248,
			"byteOffset":6240,
			"target":34962
		},
		{
			"buffer":0,
			"byteLength":864,
			"byteOffset":7488,
			"target":34963
		},
		{
			"buffer":0,
			"byteLength":12192,
			"byteOffset":8352,
			"target":34962
		},
		{
			"buffer":0,
			"byteLength":12192,
			"byteOffset":20544,
			"target":34962
		},
		{
			"buffer":0,
			"byteLength":8128,
			"byteOffset":32736,
			"target":34962
		},
		{
			"buffer":0,
			"byteLength":8128,
			"byteOffset":40864,
			"target":34962
		},
		{
			"buffer":0,
			"byteLength":8128,
			"byteOffset":48992,
			"target":34962
		},
		{
			"buffer":0,
			"byteLength":9528,
			"byteOffset":57120,
			"target":34963
		},
		{
			"buffer":0,
			"byteLength":10824,
			"byteOffset":66648,
			"target":34962
		},
		{
			"buffer":0,
			"byteLength":10824,
			"byteOffset":77472,
			"target":34962
		},
		{
			"buffer":0,
			"byteLength":7216,
			"byteOffset":88296,
			"target":34962
		},
		{
			"buffer":0,
			"byteLength":7216,
			"byteOffset":95512,
			"target":34962
		},
		{
			"buffer":0,
			"byteLength":7216,
			"byteOffset":102728,
			"target":34962
		},
		{
			"buffer":0,
			"byteLength":8256,
			"byteOffset":109944,
			"target":34963
		},
		{
			"buffer":0,
			"byteLength":1200,
			"byteOffset":118200,
			"target":34962
		},
		{
			"buffer":0,
			"byteLength":1200,
			"byteOffset":119400,
			"target":34962
		},
		{
			"buffer":0,
			"byteLength":800,
			"byteOffset":120600,
			"target":34962
		},
		{
			"buffer":0,
			"byteLength":800,
			"byteOffset":121400,
			"target":34962
		},
		{
			"buffer":0,
			"byteLength":800,
			"byteOffset":122200,
			"target":34962
		},
		{
			"buffer":0,
			"byteLength":936,
			"byteOffset":123000,
			"target":34963
		},
		{
			"buffer":0,
			"byteLength":4200,
			"byteOffset":123936,
			"target":34962
		},
		{
			"buffer":0,
			"byteLength":4200,
			"byteOffset":128136,
			"target":34962
		},
		{
			"buffer":0,
			"byteLength":2800,
			"byteOffset":132336,
			"target":34962
		},
		{
			"buffer":0,
			"byteLength":2800,
			"byteOffset":135136,
			"target":34962
		},
		{
			"buffer":0,
			"byteLength":2800,
			"byteOffset":137936,
			"target":34962
		},
		{
			"buffer":0,
			"byteLength":2976,
			"byteOffset":140736,
			"target":34963
		},
		{
			"buffer":0,
			"byteLength":744,
			"byteOffset":143712,
			"target":34962
		},
		{
			"buffer":0,
			"byteLength":744,
			"byteOffset":144456,
			"target":34962
		},
		{
			"buffer":0,
			"byteLength":496,
			"byteOffset":145200,
			"target":34962
		},
		{
			"buffer":0,
			"byteLength":496,
			"byteOffset":145696,
			"target":34962
		},
		{
			"buffer":0,
			"byteLength":496,
			"byteOffset":146192,
			"target":34962
		},
		{
			"buffer":0,
			"byteLength":336,
			"byteOffset":146688,
			"target":34963
		},
		{
			"buffer":0,
			"byteLength":8304,
			"byteOffset":147024,
			"target":34962
		},
		{
			"buffer":0,
			"byteLength":8304,
			"byteOffset":155328,
			"target":34962
		},
		{
			"buffer":0,
			"byteLength":5536,
			"byteOffset":163632,
			"target":34962
		},
		{
			"buffer":0,
			"byteLength":5536,
			"byteOffset":169168,
			"target":34962
		},
		{
			"buffer":0,
			"byteLength":5536,
			"byteOffset":174704,
			"target":34962
		},
		{
			"buffer":0,
			"byteLength":5760,
			"byteOffset":180240,
			"target":34963
		},
		{
			"buffer":0,
			"byteLength":432,
			"byteOffset":186000,
			"target":34962
		},
		{
			"buffer":0,
			"byteLength":432,
			"byteOffset":186432,
			"target":34962
		},
		{
			"buffer":0,
			"byteLength":288,
			"byteOffset":186864,
			"target":34962
		},
		{
			"buffer":0,
			"byteLength":288,
			"byteOffset":187152,
			"target":34962
		},
		{
			"buffer":0,
			"byteLength":288,
			"byteOffset":187440,
			"target":34962
		},
		{
			"buffer":0,
			"byteLength":192,
			"byteOffset":187728,
			"target":34963
		}
	],
	"samplers":[
		{
			"magFilter":9729,
			"minFilter":9987
		}
	],
	"buffers":[
		{
			"byteLength":187920,
			"uri":"mdl_hub_vintagechair.bin"
		}
	]
}
