{
	"asset":{
		"generator":"Khronos glTF Blender I/O v4.2.57",
		"version":"2.0"
	},
	"extensionsUsed":[
		"KHR_materials_specular"
	],
	"scene":0,
	"scenes":[
		{
			"name":"Scene",
			"nodes":[
				4
			]
		}
	],
	"nodes":[
		{
			"mesh":0,
			"name":"Classic_Leather Armchair_(High-Poly)_Material_0.002"
		},
		{
			"children":[
				0
			],
			"name":"Classic_Leather Armchair_(High-Poly)",
			"rotation":[
				-0.70710688829422,
				0,
				0,
				0.7071066498756409
			],
			"scale":[
				100,
				99.99996948242188,
				99.99996948242188
			]
		},
		{
			"children":[
				1
			],
			"name":"RootNode"
		},
		{
			"children":[
				2
			],
			"name":"fd61a980f8e94edd96a3b7fc8370faef.fbx",
			"rotation":[
				0.70710688829422,
				0,
				0,
				0.7071066498756409
			]
		},
		{
			"children":[
				3
			],
			"name":"Sketchfab_model",
			"rotation":[
				-0.70710688829422,
				0,
				0,
				0.7071066498756409
			]
		}
	],
	"materials":[
		{
			"doubleSided":true,
			"extensions":{
				"KHR_materials_specular":{
					"specularFactor":0
				}
			},
			"name":"Material.100",
			"normalTexture":{
				"index":0
			},
			"pbrMetallicRoughness":{
				"baseColorTexture":{
					"index":1
				},
				"metallicFactor":0,
				"roughnessFactor":0.7637089490890503
			}
		},
		{
			"doubleSided":true,
			"extensions":{
				"KHR_materials_specular":{
					"specularFactor":0,
					"specularColorFactor":[
						0.33858269453048706,
						0.33858269453048706,
						0.33858269453048706
					]
				}
			},
			"name":"Material.101",
			"pbrMetallicRoughness":{
				"baseColorTexture":{
					"index":2
				},
				"metallicFactor":0,
				"roughnessFactor":0.831818163394928
			}
		}
	],
	"meshes":[
		{
			"name":"Classic_Leather Armchair_(High-Poly)_Material_0.004",
			"primitives":[
				{
					"attributes":{
						"POSITION":0,
						"NORMAL":1,
						"TEXCOORD_0":2
					},
					"indices":3,
					"material":0
				},
				{
					"attributes":{
						"POSITION":4,
						"NORMAL":5,
						"TEXCOORD_0":6
					},
					"indices":7,
					"material":1
				}
			]
		}
	],
	"textures":[
		{
			"sampler":0,
			"source":0
		},
		{
			"sampler":0,
			"source":1
		},
		{
			"sampler":0,
			"source":2
		}
	],
	"images":[
		{
			"mimeType":"image/png",
			"name":"tx_brush_armchairnormal",
			"uri":"tx_brush_armchairnormal.png"
		},
		{
			"mimeType":"image/png",
			"name":"tx_hub_leatherarmchairColor",
			"uri":"tx_hub_leatherarmchairColor.png"
		},
		{
			"mimeType":"image/png",
			"name":"tx_hubAccentWoodColor",
			"uri":"tx_hubAccentWoodColor.png"
		}
	],
	"accessors":[
		{
			"bufferView":0,
			"componentType":5126,
			"count":3471,
			"max":[
				0.6966874003410339,
				0.5147928595542908,
				0.7775800228118896
			],
			"min":[
				-0.6510881185531616,
				-0.5012115836143494,
				0.08611073344945908
			],
			"type":"VEC3"
		},
		{
			"bufferView":1,
			"componentType":5126,
			"count":3471,
			"type":"VEC3"
		},
		{
			"bufferView":2,
			"componentType":5126,
			"count":3471,
			"type":"VEC2"
		},
		{
			"bufferView":3,
			"componentType":5123,
			"count":17781,
			"type":"SCALAR"
		},
		{
			"bufferView":4,
			"componentType":5126,
			"count":211,
			"max":[
				0.5136919617652893,
				0.33040210604667664,
				0.0922871083021164
			],
			"min":[
				-0.46679505705833435,
				-0.41330522298812866,
				0.005151687189936638
			],
			"type":"VEC3"
		},
		{
			"bufferView":5,
			"componentType":5126,
			"count":211,
			"type":"VEC3"
		},
		{
			"bufferView":6,
			"componentType":5126,
			"count":211,
			"type":"VEC2"
		},
		{
			"bufferView":7,
			"componentType":5123,
			"count":738,
			"type":"SCALAR"
		}
	],
	"bufferViews":[
		{
			"buffer":0,
			"byteLength":41652,
			"byteOffset":0,
			"target":34962
		},
		{
			"buffer":0,
			"byteLength":41652,
			"byteOffset":41652,
			"target":34962
		},
		{
			"buffer":0,
			"byteLength":27768,
			"byteOffset":83304,
			"target":34962
		},
		{
			"buffer":0,
			"byteLength":35562,
			"byteOffset":111072,
			"target":34963
		},
		{
			"buffer":0,
			"byteLength":2532,
			"byteOffset":146636,
			"target":34962
		},
		{
			"buffer":0,
			"byteLength":2532,
			"byteOffset":149168,
			"target":34962
		},
		{
			"buffer":0,
			"byteLength":1688,
			"byteOffset":151700,
			"target":34962
		},
		{
			"buffer":0,
			"byteLength":1476,
			"byteOffset":153388,
			"target":34963
		}
	],
	"samplers":[
		{
			"magFilter":9729,
			"minFilter":9987
		}
	],
	"buffers":[
		{
			"byteLength":154864,
			"uri":"mdl_hub_leatherarmchair.bin"
		}
	]
}
