{
	"asset":{
		"generator":"Khronos glTF Blender I/O v4.1.62",
		"version":"2.0"
	},
	"extensionsUsed":[
		"KHR_materials_specular"
	],
	"scene":0,
	"scenes":[
		{
			"name":"Scene",
			"nodes":[
				4
			]
		}
	],
	"nodes":[
		{
			"mesh":0,
			"name":"Object_4"
		},
		{
			"children":[
				0
			],
			"name":"Telescope_0"
		},
		{
			"children":[
				1
			],
			"name":"GLTF_SceneRootNode",
			"rotation":[
				0.70710688829422,
				0,
				0,
				0.7071066498756409
			]
		},
		{
			"children":[
				2
			],
			"name":"root"
		},
		{
			"children":[
				3
			],
			"name":"Sketchfab_model",
			"rotation":[
				-0.70710688829422,
				0,
				0,
				0.7071066498756409
			]
		}
	],
	"materials":[
		{
			"doubleSided":true,
			"extensions":{
				"KHR_materials_specular":{
					"specularFactor":0.019999999552965164
				}
			},
			"name":"Telescope-Material.003",
			"normalTexture":{
				"index":0
			},
			"pbrMetallicRoughness":{
				"baseColorTexture":{
					"index":1
				},
				"metallicRoughnessTexture":{
					"index":2
				}
			}
		}
	],
	"meshes":[
		{
			"name":"Object_0.035",
			"primitives":[
				{
					"attributes":{
						"POSITION":0,
						"NORMAL":1,
						"TEXCOORD_0":2,
						"TEXCOORD_1":3,
						"TEXCOORD_2":4,
						"TEXCOORD_3":5
					},
					"indices":6,
					"material":0
				}
			]
		}
	],
	"textures":[
		{
			"sampler":0,
			"source":0
		},
		{
			"sampler":0,
			"source":1
		},
		{
			"sampler":0,
			"source":2
		}
	],
	"images":[
		{
			"mimeType":"image/png",
			"name":"tx_hub_vintagetelescopeColor",
			"uri":"tx_hub_vintagetelescopeColor.png"
		},
		{
			"mimeType":"image/jpeg",
			"name":"tx_hub_vintagetelescopeColor",
			"uri":"tx_hub_vintagetelescopeColor.jpg"
		},
		{
			"mimeType":"image/png",
			"name":"tx_hub_vintagetelescopeMetallic",
			"uri":"tx_hub_vintagetelescopeMetallic.png"
		}
	],
	"accessors":[
		{
			"bufferView":0,
			"componentType":5126,
			"count":13361,
			"max":[
				0.10684619843959808,
				0.24959354102611542,
				0.6788851618766785
			],
			"min":[
				-0.10684619843959808,
				-0.2538566291332245,
				-0.8233006000518799
			],
			"type":"VEC3"
		},
		{
			"bufferView":1,
			"componentType":5126,
			"count":13361,
			"type":"VEC3"
		},
		{
			"bufferView":2,
			"componentType":5126,
			"count":13361,
			"type":"VEC2"
		},
		{
			"bufferView":3,
			"componentType":5126,
			"count":13361,
			"type":"VEC2"
		},
		{
			"bufferView":4,
			"componentType":5126,
			"count":13361,
			"type":"VEC2"
		},
		{
			"bufferView":5,
			"componentType":5126,
			"count":13361,
			"type":"VEC2"
		},
		{
			"bufferView":6,
			"componentType":5123,
			"count":44586,
			"type":"SCALAR"
		}
	],
	"bufferViews":[
		{
			"buffer":0,
			"byteLength":160332,
			"byteOffset":0,
			"target":34962
		},
		{
			"buffer":0,
			"byteLength":160332,
			"byteOffset":160332,
			"target":34962
		},
		{
			"buffer":0,
			"byteLength":106888,
			"byteOffset":320664,
			"target":34962
		},
		{
			"buffer":0,
			"byteLength":106888,
			"byteOffset":427552,
			"target":34962
		},
		{
			"buffer":0,
			"byteLength":106888,
			"byteOffset":534440,
			"target":34962
		},
		{
			"buffer":0,
			"byteLength":106888,
			"byteOffset":641328,
			"target":34962
		},
		{
			"buffer":0,
			"byteLength":89172,
			"byteOffset":748216,
			"target":34963
		}
	],
	"samplers":[
		{
			"magFilter":9729,
			"minFilter":9987
		}
	],
	"buffers":[
		{
			"byteLength":837388,
			"uri":"mdl_hub_vintagetelescope.bin"
		}
	]
}
