{
	"asset":{
		"copyright":"apa-games.com",
		"generator":"Khronos glTF Blender I/O v4.0.44",
		"version":"2.0"
	},
	"extensionsUsed":[
		"KHR_texture_transform"
	],
	"extensionsRequired":[
		"KHR_texture_transform"
	],
	"scene":0,
	"scenes":[
		{
			"name":"Scene",
			"nodes":[
				0
			]
		}
	],
	"nodes":[
		{
			"mesh":0,
			"name":"mdl_apa_roman_couch"
		}
	],
	"materials":[
		{
			"doubleSided":true,
			"name":"Material.007",
			"normalTexture":{
				"extensions":{
					"KHR_texture_transform":{
						"offset":[
							0,
							-9
						],
						"scale":[
							10,
							10
						]
					}
				},
				"index":0
			},
			"pbrMetallicRoughness":{
				"baseColorTexture":{
					"extensions":{
						"KHR_texture_transform":{
							"offset":[
								0,
								-9
							],
							"scale":[
								10,
								10
							]
						}
					},
					"index":1
				},
				"metallicFactor":0,
				"metallicRoughnessTexture":{
					"extensions":{
						"KHR_texture_transform":{
							"offset":[
								0,
								-9
							],
							"scale":[
								10,
								10
							]
						}
					},
					"index":2
				}
			}
		},
		{
			"doubleSided":true,
			"name":"Material.008",
			"normalTexture":{
				"extensions":{
					"KHR_texture_transform":{
						"offset":[
							0,
							-4
						],
						"scale":[
							5,
							5
						]
					}
				},
				"index":3
			},
			"pbrMetallicRoughness":{
				"baseColorTexture":{
					"extensions":{
						"KHR_texture_transform":{
							"offset":[
								0,
								-4
							],
							"scale":[
								5,
								5
							]
						}
					},
					"index":4
				},
				"metallicFactor":0,
				"metallicRoughnessTexture":{
					"extensions":{
						"KHR_texture_transform":{
							"offset":[
								0,
								-4
							],
							"scale":[
								5,
								5
							]
						}
					},
					"index":5
				}
			}
		}
	],
	"meshes":[
		{
			"name":"mdl_apa_roman_couch",
			"primitives":[
				{
					"attributes":{
						"POSITION":0,
						"NORMAL":1,
						"TEXCOORD_0":2
					},
					"indices":3,
					"material":0
				},
				{
					"attributes":{
						"POSITION":4,
						"NORMAL":5,
						"TEXCOORD_0":6
					},
					"indices":7,
					"material":1
				}
			]
		}
	],
	"textures":[
		{
			"sampler":0,
			"source":0
		},
		{
			"sampler":0,
			"source":1
		},
		{
			"sampler":0,
			"source":2
		},
		{
			"sampler":0,
			"source":3
		},
		{
			"sampler":0,
			"source":4
		},
		{
			"sampler":0,
			"source":5
		}
	],
	"images":[
		{
			"mimeType":"image/png",
			"name":"tx_apa_slab_tiles_nor_gl_1k",
			"uri":"tx_apa_slab_tiles_nor_gl_1k.png"
		},
		{
			"mimeType":"image/jpeg",
			"name":"tx_apa_slab_tiles_diff_1k",
			"uri":"tx_apa_slab_tiles_diff_1k.jpg"
		},
		{
			"mimeType":"image/png",
			"name":"tx_apa_slab_tiles_rough_1k",
			"uri":"tx_apa_slab_tiles_rough_1k.png"
		},
		{
			"mimeType":"image/png",
			"name":"tx_apa_marble_mosaic_tiles_nor_gl_1k",
			"uri":"tx_apa_marble_mosaic_tiles_nor_gl_1k.png"
		},
		{
			"mimeType":"image/jpeg",
			"name":"tx_apa_marble_mosaic_tiles_diff_1k",
			"uri":"tx_apa_marble_mosaic_tiles_diff_1k.jpg"
		},
		{
			"mimeType":"image/png",
			"name":"tx_apa_marble_mosaic_tiles_rough_1k",
			"uri":"tx_apa_marble_mosaic_tiles_rough_1k.png"
		}
	],
	"accessors":[
		{
			"bufferView":0,
			"componentType":5126,
			"count":2151,
			"max":[
				49.17057800292969,
				43.88482666015625,
				26.55002212524414
			],
			"min":[
				-49.17057800292969,
				0,
				-26.55002212524414
			],
			"type":"VEC3"
		},
		{
			"bufferView":1,
			"componentType":5126,
			"count":2151,
			"type":"VEC3"
		},
		{
			"bufferView":2,
			"componentType":5126,
			"count":2151,
			"type":"VEC2"
		},
		{
			"bufferView":3,
			"componentType":5123,
			"count":9792,
			"type":"SCALAR"
		},
		{
			"bufferView":4,
			"componentType":5126,
			"count":120,
			"max":[
				48.898406982421875,
				43.54706573486328,
				23.017873764038086
			],
			"min":[
				-48.898406982421875,
				24.430021286010742,
				-23.017873764038086
			],
			"type":"VEC3"
		},
		{
			"bufferView":5,
			"componentType":5126,
			"count":120,
			"type":"VEC3"
		},
		{
			"bufferView":6,
			"componentType":5126,
			"count":120,
			"type":"VEC2"
		},
		{
			"bufferView":7,
			"componentType":5123,
			"count":312,
			"type":"SCALAR"
		}
	],
	"bufferViews":[
		{
			"buffer":0,
			"byteLength":25812,
			"byteOffset":0,
			"target":34962
		},
		{
			"buffer":0,
			"byteLength":25812,
			"byteOffset":25812,
			"target":34962
		},
		{
			"buffer":0,
			"byteLength":17208,
			"byteOffset":51624,
			"target":34962
		},
		{
			"buffer":0,
			"byteLength":19584,
			"byteOffset":68832,
			"target":34963
		},
		{
			"buffer":0,
			"byteLength":1440,
			"byteOffset":88416,
			"target":34962
		},
		{
			"buffer":0,
			"byteLength":1440,
			"byteOffset":89856,
			"target":34962
		},
		{
			"buffer":0,
			"byteLength":960,
			"byteOffset":91296,
			"target":34962
		},
		{
			"buffer":0,
			"byteLength":624,
			"byteOffset":92256,
			"target":34963
		}
	],
	"samplers":[
		{
			"magFilter":9729,
			"minFilter":9987
		}
	],
	"buffers":[
		{
			"byteLength":92880,
			"uri":"mdl_apa_roman_couch.bin"
		}
	]
}
