{
	"asset":{
		"generator":"Khronos glTF Blender I/O v4.1.62",
		"version":"2.0"
	},
	"scene":0,
	"scenes":[
		{
			"name":"Scene",
			"nodes":[
				6
			]
		}
	],
	"nodes":[
		{
			"mesh":0,
			"name":"Object097_Material #25_0"
		},
		{
			"mesh":1,
			"name":"Object097_Material #37_0"
		},
		{
			"children":[
				0,
				1
			],
			"name":"Object097",
			"rotation":[
				-0.70710688829422,
				0,
				0,
				0.7071066498756409
			],
			"scale":[
				100,
				100.00001525878906,
				100.00001525878906
			],
			"translation":[
				-5484.99072265625,
				745.9095458984375,
				3371.498046875
			]
		},
		{
			"children":[
				2
			],
			"name":"RootNode"
		},
		{
			"children":[
				3
			],
			"name":"Object_2"
		},
		{
			"children":[
				4
			],
			"name":"8660614b18ce4f4289c5d9e36a17904f.fbx",
			"rotation":[
				0.70710688829422,
				0,
				0,
				0.7071066498756409
			]
		},
		{
			"children":[
				5
			],
			"name":"Sketchfab_model",
			"rotation":[
				-0.70710688829422,
				0,
				0,
				0.7071066498756409
			]
		}
	],
	"materials":[
		{
			"doubleSided":true,
			"name":"Material_25",
			"pbrMetallicRoughness":{
				"baseColorTexture":{
					"index":0
				},
				"metallicFactor":0,
				"roughnessFactor":0.6000000238418579
			}
		},
		{
			"alphaMode":"BLEND",
			"doubleSided":true,
			"name":"Material_37",
			"pbrMetallicRoughness":{
				"baseColorTexture":{
					"index":1
				},
				"metallicFactor":0,
				"roughnessFactor":0.6000000238418579
			}
		}
	],
	"meshes":[
		{
			"name":"Object097_Material #25_0",
			"primitives":[
				{
					"attributes":{
						"POSITION":0,
						"NORMAL":1,
						"TEXCOORD_0":2
					},
					"indices":3,
					"material":0
				}
			]
		},
		{
			"name":"Object097_Material #37_0",
			"primitives":[
				{
					"attributes":{
						"POSITION":4,
						"NORMAL":5,
						"TEXCOORD_0":6,
						"TEXCOORD_1":7
					},
					"indices":8,
					"material":1
				}
			]
		}
	],
	"textures":[
		{
			"sampler":0,
			"source":0
		},
		{
			"sampler":0,
			"source":1
		}
	],
	"images":[
		{
			"mimeType":"image/png",
			"name":"tx_hub_ChinaArch1Color",
			"uri":"tx_hub_ChinaArch1Color.png"
		},
		{
			"mimeType":"image/png",
			"name":"tx_hub_ChinaArch2Color",
			"uri":"tx_hub_ChinaArch2Color.png"
		}
	],
	"accessors":[
		{
			"bufferView":0,
			"componentType":5126,
			"count":2243,
			"max":[
				7.235849380493164,
				2.297609806060791,
				3.2667245864868164
			],
			"min":[
				-7.1235151290893555,
				-2.1459474563598633,
				-6.626369476318359
			],
			"type":"VEC3"
		},
		{
			"bufferView":1,
			"componentType":5126,
			"count":2243,
			"type":"VEC3"
		},
		{
			"bufferView":2,
			"componentType":5126,
			"count":2243,
			"type":"VEC2"
		},
		{
			"bufferView":3,
			"componentType":5123,
			"count":2796,
			"type":"SCALAR"
		},
		{
			"bufferView":4,
			"componentType":5126,
			"count":13,
			"max":[
				5.990348815917969,
				-0.0244978666305542,
				-0.16092698276042938
			],
			"min":[
				-6.004864692687988,
				-0.02449798583984375,
				-0.9734857082366943
			],
			"type":"VEC3"
		},
		{
			"bufferView":5,
			"componentType":5126,
			"count":13,
			"type":"VEC3"
		},
		{
			"bufferView":6,
			"componentType":5126,
			"count":13,
			"type":"VEC2"
		},
		{
			"bufferView":7,
			"componentType":5126,
			"count":13,
			"type":"VEC2"
		},
		{
			"bufferView":8,
			"componentType":5123,
			"count":18,
			"type":"SCALAR"
		}
	],
	"bufferViews":[
		{
			"buffer":0,
			"byteLength":26916,
			"byteOffset":0,
			"target":34962
		},
		{
			"buffer":0,
			"byteLength":26916,
			"byteOffset":26916,
			"target":34962
		},
		{
			"buffer":0,
			"byteLength":17944,
			"byteOffset":53832,
			"target":34962
		},
		{
			"buffer":0,
			"byteLength":5592,
			"byteOffset":71776,
			"target":34963
		},
		{
			"buffer":0,
			"byteLength":156,
			"byteOffset":77368,
			"target":34962
		},
		{
			"buffer":0,
			"byteLength":156,
			"byteOffset":77524,
			"target":34962
		},
		{
			"buffer":0,
			"byteLength":104,
			"byteOffset":77680,
			"target":34962
		},
		{
			"buffer":0,
			"byteLength":104,
			"byteOffset":77784,
			"target":34962
		},
		{
			"buffer":0,
			"byteLength":36,
			"byteOffset":77888,
			"target":34963
		}
	],
	"samplers":[
		{
			"magFilter":9729,
			"minFilter":9987
		}
	],
	"buffers":[
		{
			"byteLength":77924,
			"uri":"mdl_hub_chinesearchitecture.bin"
		}
	]
}
