{
	"asset":{
		"generator":"Khronos glTF Blender I/O v4.1.62",
		"version":"2.0"
	},
	"extensionsUsed":[
		"KHR_materials_specular"
	],
	"scene":0,
	"scenes":[
		{
			"name":"Scene",
			"nodes":[
				3
			]
		}
	],
	"nodes":[
		{
			"mesh":0,
			"name":"defaultMaterial"
		},
		{
			"children":[
				0
			],
			"name":"polySurface18"
		},
		{
			"children":[
				1
			],
			"name":"Collada visual scene group",
			"rotation":[
				0.70710688829422,
				0,
				0,
				0.7071066498756409
			]
		},
		{
			"children":[
				2
			],
			"name":"Sketchfab_model",
			"rotation":[
				0,
				0.7071068286895752,
				0.7071068286895752,
				1.00153539642818e-16
			]
		}
	],
	"materials":[
		{
			"doubleSided":true,
			"extensions":{
				"KHR_materials_specular":{
					"specularFactor":0,
					"specularColorTexture":{
						"index":0
					}
				}
			},
			"name":"lambert1.009",
			"normalTexture":{
				"index":1
			},
			"occlusionTexture":{
				"index":2
			},
			"pbrMetallicRoughness":{
				"baseColorTexture":{
					"index":3
				},
				"metallicFactor":0
			}
		}
	],
	"meshes":[
		{
			"name":"defaultMaterial.026",
			"primitives":[
				{
					"attributes":{
						"POSITION":0,
						"NORMAL":1,
						"TEXCOORD_0":2
					},
					"indices":3,
					"material":0
				}
			]
		}
	],
	"textures":[
		{
			"sampler":0,
			"source":0
		},
		{
			"sampler":0,
			"source":1
		},
		{
			"sampler":0,
			"source":2
		},
		{
			"sampler":0,
			"source":3
		}
	],
	"images":[
		{
			"mimeType":"image/png",
			"name":"tx_hub_oldworldglobeSpecular",
			"uri":"tx_hub_oldworldglobeSpecular.png"
		},
		{
			"mimeType":"image/png",
			"name":"tx_hub_oldworldglobeNormal",
			"uri":"tx_hub_oldworldglobeNormal.png"
		},
		{
			"mimeType":"image/png",
			"name":"tx_hub_oldworldglobeMetallic",
			"uri":"tx_hub_oldworldglobeMetallic.png"
		},
		{
			"mimeType":"image/jpeg",
			"name":"tx_hub_oldworldglobeColor",
			"uri":"tx_hub_oldworldglobeColor.jpg"
		}
	],
	"accessors":[
		{
			"bufferView":0,
			"componentType":5126,
			"count":8019,
			"max":[
				76.62089538574219,
				80.10408020019531,
				61.228214263916016
			],
			"min":[
				-60.903690338134766,
				-127.13274383544922,
				-61.22823715209961
			],
			"type":"VEC3"
		},
		{
			"bufferView":1,
			"componentType":5126,
			"count":8019,
			"type":"VEC3"
		},
		{
			"bufferView":2,
			"componentType":5126,
			"count":8019,
			"type":"VEC2"
		},
		{
			"bufferView":3,
			"componentType":5123,
			"count":42114,
			"type":"SCALAR"
		}
	],
	"bufferViews":[
		{
			"buffer":0,
			"byteLength":96228,
			"byteOffset":0,
			"target":34962
		},
		{
			"buffer":0,
			"byteLength":96228,
			"byteOffset":96228,
			"target":34962
		},
		{
			"buffer":0,
			"byteLength":64152,
			"byteOffset":192456,
			"target":34962
		},
		{
			"buffer":0,
			"byteLength":84228,
			"byteOffset":256608,
			"target":34963
		}
	],
	"samplers":[
		{
			"magFilter":9729,
			"minFilter":9987
		}
	],
	"buffers":[
		{
			"byteLength":340836,
			"uri":"mdl_hub_oldworldglobe.bin"
		}
	]
}
