{
	"asset":{
		"copyright":"apa-games.com",
		"generator":"Khronos glTF Blender I/O v4.0.44",
		"version":"2.0"
	},
	"extensionsUsed":[
		"KHR_texture_transform"
	],
	"extensionsRequired":[
		"KHR_texture_transform"
	],
	"scene":0,
	"scenes":[
		{
			"name":"Scene",
			"nodes":[
				0
			]
		}
	],
	"nodes":[
		{
			"mesh":0,
			"name":"Impluvium",
			"scale":[
				1.9552358388900757,
				1,
				1
			]
		}
	],
	"materials":[
		{
			"doubleSided":true,
			"name":"BathOuter",
			"normalTexture":{
				"extensions":{
					"KHR_texture_transform":{
						"offset":[
							0,
							-4
						],
						"scale":[
							5,
							5
						]
					}
				},
				"index":0
			},
			"pbrMetallicRoughness":{
				"baseColorTexture":{
					"extensions":{
						"KHR_texture_transform":{
							"offset":[
								0,
								-4
							],
							"scale":[
								5,
								5
							]
						}
					},
					"index":1
				},
				"metallicFactor":0,
				"metallicRoughnessTexture":{
					"extensions":{
						"KHR_texture_transform":{
							"offset":[
								0,
								-4
							],
							"scale":[
								5,
								5
							]
						}
					},
					"index":2
				}
			}
		},
		{
			"doubleSided":true,
			"name":"BathInner",
			"normalTexture":{
				"extensions":{
					"KHR_texture_transform":{
						"offset":[
							0,
							-4
						],
						"scale":[
							2.5,
							5
						]
					}
				},
				"index":3
			},
			"pbrMetallicRoughness":{
				"baseColorTexture":{
					"extensions":{
						"KHR_texture_transform":{
							"offset":[
								0,
								-4
							],
							"scale":[
								2.5,
								5
							]
						}
					},
					"index":4
				},
				"metallicFactor":0,
				"metallicRoughnessTexture":{
					"extensions":{
						"KHR_texture_transform":{
							"offset":[
								0,
								-4
							],
							"scale":[
								2.5,
								5
							]
						}
					},
					"index":5
				}
			}
		},
		{
			"doubleSided":true,
			"name":"Mosaic",
			"pbrMetallicRoughness":{
				"baseColorTexture":{
					"index":6
				},
				"metallicFactor":0,
				"roughnessFactor":0.5
			}
		}
	],
	"meshes":[
		{
			"name":"Plane",
			"primitives":[
				{
					"attributes":{
						"POSITION":0,
						"NORMAL":1,
						"TEXCOORD_0":2
					},
					"indices":3,
					"material":0
				},
				{
					"attributes":{
						"POSITION":4,
						"NORMAL":5,
						"TEXCOORD_0":6
					},
					"indices":7,
					"material":1
				},
				{
					"attributes":{
						"POSITION":8,
						"NORMAL":9,
						"TEXCOORD_0":10
					},
					"indices":11,
					"material":2
				}
			]
		}
	],
	"textures":[
		{
			"sampler":0,
			"source":0
		},
		{
			"sampler":0,
			"source":1
		},
		{
			"sampler":0,
			"source":2
		},
		{
			"sampler":0,
			"source":3
		},
		{
			"sampler":0,
			"source":4
		},
		{
			"sampler":0,
			"source":5
		},
		{
			"sampler":0,
			"source":6
		}
	],
	"images":[
		{
			"mimeType":"image/png",
			"name":"tx_apa_gravel_road_nor_gl_1k",
			"uri":"tx_apa_gravel_road_nor_gl_1k.png"
		},
		{
			"mimeType":"image/jpeg",
			"name":"tx_apa_gravel_road_diff_1k",
			"uri":"tx_apa_gravel_road_diff_1k.jpg"
		},
		{
			"mimeType":"image/png",
			"name":"tx_apa_gravel_road_rough_1k",
			"uri":"tx_apa_gravel_road_rough_1k.png"
		},
		{
			"mimeType":"image/png",
			"name":"tx_apa_grey_cartago_02_nor_gl_1k",
			"uri":"tx_apa_grey_cartago_02_nor_gl_1k.png"
		},
		{
			"mimeType":"image/jpeg",
			"name":"tx_apa_grey_cartago_02_diff_1k",
			"uri":"tx_apa_grey_cartago_02_diff_1k.jpg"
		},
		{
			"mimeType":"image/png",
			"name":"tx_apa_grey_cartago_02_rough_1k",
			"uri":"tx_apa_grey_cartago_02_rough_1k.png"
		},
		{
			"mimeType":"image/jpeg",
			"name":"tx_apa_DP140137",
			"uri":"tx_apa_DP140137.jpg"
		}
	],
	"accessors":[
		{
			"bufferView":0,
			"componentType":5126,
			"count":683,
			"max":[
				1.454909086227417,
				1.378006100654602,
				1.1683849096298218
			],
			"min":[
				-1.4015332460403442,
				0,
				-1.1683849096298218
			],
			"type":"VEC3"
		},
		{
			"bufferView":1,
			"componentType":5126,
			"count":683,
			"type":"VEC3"
		},
		{
			"bufferView":2,
			"componentType":5126,
			"count":683,
			"type":"VEC2"
		},
		{
			"bufferView":3,
			"componentType":5123,
			"count":1560,
			"type":"SCALAR"
		},
		{
			"bufferView":4,
			"componentType":5126,
			"count":46,
			"max":[
				1.454909086227417,
				0.9878780841827393,
				1
			],
			"min":[
				-1.4015332460403442,
				0,
				-1
			],
			"type":"VEC3"
		},
		{
			"bufferView":5,
			"componentType":5126,
			"count":46,
			"type":"VEC3"
		},
		{
			"bufferView":6,
			"componentType":5126,
			"count":46,
			"type":"VEC2"
		},
		{
			"bufferView":7,
			"componentType":5123,
			"count":168,
			"type":"SCALAR"
		},
		{
			"bufferView":8,
			"componentType":5126,
			"count":4,
			"max":[
				0.4725436270236969,
				0,
				0.8927067518234253
			],
			"min":[
				-0.4692881405353546,
				0,
				-0.893440842628479
			],
			"type":"VEC3"
		},
		{
			"bufferView":9,
			"componentType":5126,
			"count":4,
			"type":"VEC3"
		},
		{
			"bufferView":10,
			"componentType":5126,
			"count":4,
			"type":"VEC2"
		},
		{
			"bufferView":11,
			"componentType":5123,
			"count":6,
			"type":"SCALAR"
		}
	],
	"bufferViews":[
		{
			"buffer":0,
			"byteLength":8196,
			"byteOffset":0,
			"target":34962
		},
		{
			"buffer":0,
			"byteLength":8196,
			"byteOffset":8196,
			"target":34962
		},
		{
			"buffer":0,
			"byteLength":5464,
			"byteOffset":16392,
			"target":34962
		},
		{
			"buffer":0,
			"byteLength":3120,
			"byteOffset":21856,
			"target":34963
		},
		{
			"buffer":0,
			"byteLength":552,
			"byteOffset":24976,
			"target":34962
		},
		{
			"buffer":0,
			"byteLength":552,
			"byteOffset":25528,
			"target":34962
		},
		{
			"buffer":0,
			"byteLength":368,
			"byteOffset":26080,
			"target":34962
		},
		{
			"buffer":0,
			"byteLength":336,
			"byteOffset":26448,
			"target":34963
		},
		{
			"buffer":0,
			"byteLength":48,
			"byteOffset":26784,
			"target":34962
		},
		{
			"buffer":0,
			"byteLength":48,
			"byteOffset":26832,
			"target":34962
		},
		{
			"buffer":0,
			"byteLength":32,
			"byteOffset":26880,
			"target":34962
		},
		{
			"buffer":0,
			"byteLength":12,
			"byteOffset":26912,
			"target":34963
		}
	],
	"samplers":[
		{
			"magFilter":9729,
			"minFilter":9987
		}
	],
	"buffers":[
		{
			"byteLength":26924,
			"uri":"mdl_apa_impluviuml.bin"
		}
	]
}
