{
	"asset":{
		"generator":"Khronos glTF Blender I/O v4.1.62",
		"version":"2.0"
	},
	"extensionsUsed":[
		"KHR_materials_specular"
	],
	"scene":0,
	"scenes":[
		{
			"name":"Scene",
			"nodes":[
				12
			]
		}
	],
	"nodes":[
		{
			"mesh":0,
			"name":"pCube15_standardSurface2_0"
		},
		{
			"children":[
				0
			],
			"name":"pCube15"
		},
		{
			"mesh":1,
			"name":"pCube29_standardSurface2_0"
		},
		{
			"children":[
				2
			],
			"name":"pCube29"
		},
		{
			"mesh":2,
			"name":"pCube30_standardSurface2_0"
		},
		{
			"children":[
				4
			],
			"name":"pCube30"
		},
		{
			"mesh":3,
			"name":"pCube31_standardSurface2_0"
		},
		{
			"children":[
				6
			],
			"name":"pCube31"
		},
		{
			"mesh":4,
			"name":"pCube32_standardSurface2_0"
		},
		{
			"children":[
				8
			],
			"name":"pCube32"
		},
		{
			"children":[
				1,
				3,
				5,
				7,
				9
			],
			"name":"RootNode"
		},
		{
			"children":[
				10
			],
			"name":"lantern.fbx",
			"rotation":[
				0.70710688829422,
				0,
				0,
				0.7071066498756409
			],
			"scale":[
				0.009999999776482582,
				0.009999998845160007,
				0.009999998845160007
			]
		},
		{
			"children":[
				11
			],
			"name":"Sketchfab_model",
			"rotation":[
				-0.70710688829422,
				0,
				0,
				0.7071066498756409
			]
		}
	],
	"materials":[
		{
			"doubleSided":true,
			"emissiveFactor":[
				1,
				1,
				1
			],
			"emissiveTexture":{
				"index":0
			},
			"extensions":{
				"KHR_materials_specular":{
					"specularFactor":0
				}
			},
			"name":"standardSurface2.003",
			"normalTexture":{
				"index":1
			},
			"pbrMetallicRoughness":{
				"baseColorTexture":{
					"index":2
				},
				"metallicFactor":0,
				"roughnessFactor":0.6000000238418579
			}
		}
	],
	"meshes":[
		{
			"name":"pCube15_standardSurface2_0.003",
			"primitives":[
				{
					"attributes":{
						"POSITION":0,
						"NORMAL":1,
						"TEXCOORD_0":2
					},
					"indices":3,
					"material":0
				}
			]
		},
		{
			"name":"pCube29_standardSurface2_0.003",
			"primitives":[
				{
					"attributes":{
						"POSITION":4,
						"NORMAL":5,
						"TEXCOORD_0":6
					},
					"indices":7,
					"material":0
				}
			]
		},
		{
			"name":"pCube30_standardSurface2_0.003",
			"primitives":[
				{
					"attributes":{
						"POSITION":8,
						"NORMAL":9,
						"TEXCOORD_0":10
					},
					"indices":7,
					"material":0
				}
			]
		},
		{
			"name":"pCube31_standardSurface2_0.003",
			"primitives":[
				{
					"attributes":{
						"POSITION":11,
						"NORMAL":12,
						"TEXCOORD_0":13
					},
					"indices":7,
					"material":0
				}
			]
		},
		{
			"name":"pCube32_standardSurface2_0.003",
			"primitives":[
				{
					"attributes":{
						"POSITION":14,
						"NORMAL":15,
						"TEXCOORD_0":16
					},
					"indices":7,
					"material":0
				}
			]
		}
	],
	"textures":[
		{
			"sampler":0,
			"source":0
		},
		{
			"sampler":0,
			"source":1
		},
		{
			"sampler":0,
			"source":2
		}
	],
	"images":[
		{
			"mimeType":"image/png",
			"name":"tx_hub_japaneslanternEmission",
			"uri":"tx_hub_japaneslanternEmission.png"
		},
		{
			"mimeType":"image/png",
			"name":"tx_hub_japaneselantern_Normal",
			"uri":"tx_hub_japaneselantern_Normal.png"
		},
		{
			"mimeType":"image/png",
			"name":"tx_hub_japaneselantern_Color",
			"uri":"tx_hub_japaneselantern_Color.png"
		}
	],
	"accessors":[
		{
			"bufferView":0,
			"componentType":5126,
			"count":406,
			"max":[
				153.38661193847656,
				688.0791015625,
				187.43173217773438
			],
			"min":[
				-111.99472045898438,
				-168.20001220703125,
				-126.83045196533203
			],
			"type":"VEC3"
		},
		{
			"bufferView":1,
			"componentType":5126,
			"count":406,
			"type":"VEC3"
		},
		{
			"bufferView":2,
			"componentType":5126,
			"count":406,
			"type":"VEC2"
		},
		{
			"bufferView":3,
			"componentType":5123,
			"count":678,
			"type":"SCALAR"
		},
		{
			"bufferView":4,
			"componentType":5126,
			"count":276,
			"max":[
				146.45578002929688,
				645.6439208984375,
				166.77841186523438
			],
			"min":[
				141.85055541992188,
				10.51317310333252,
				-106.1309585571289
			],
			"type":"VEC3"
		},
		{
			"bufferView":5,
			"componentType":5126,
			"count":276,
			"type":"VEC3"
		},
		{
			"bufferView":6,
			"componentType":5126,
			"count":276,
			"type":"VEC2"
		},
		{
			"bufferView":7,
			"componentType":5123,
			"count":414,
			"type":"SCALAR"
		},
		{
			"bufferView":8,
			"componentType":5126,
			"count":276,
			"max":[
				-100.09595489501953,
				645.6439208984375,
				166.77841186523438
			],
			"min":[
				-104.70118713378906,
				10.513168334960938,
				-106.13095092773438
			],
			"type":"VEC3"
		},
		{
			"bufferView":9,
			"componentType":5126,
			"count":276,
			"type":"VEC3"
		},
		{
			"bufferView":10,
			"componentType":5126,
			"count":276,
			"type":"VEC2"
		},
		{
			"bufferView":11,
			"componentType":5126,
			"count":276,
			"max":[
				143.2905731201172,
				645.6439208984375,
				-116.15034484863281
			],
			"min":[
				-102.89933013916016,
				10.51317310333252,
				-120.75557708740234
			],
			"type":"VEC3"
		},
		{
			"bufferView":12,
			"componentType":5126,
			"count":276,
			"type":"VEC3"
		},
		{
			"bufferView":13,
			"componentType":5126,
			"count":276,
			"type":"VEC2"
		},
		{
			"bufferView":14,
			"componentType":5126,
			"count":276,
			"max":[
				143.2905731201172,
				645.6439208984375,
				182.24642944335938
			],
			"min":[
				-102.89932250976562,
				10.51317310333252,
				177.64120483398438
			],
			"type":"VEC3"
		},
		{
			"bufferView":15,
			"componentType":5126,
			"count":276,
			"type":"VEC3"
		},
		{
			"bufferView":16,
			"componentType":5126,
			"count":276,
			"type":"VEC2"
		}
	],
	"bufferViews":[
		{
			"buffer":0,
			"byteLength":4872,
			"byteOffset":0,
			"target":34962
		},
		{
			"buffer":0,
			"byteLength":4872,
			"byteOffset":4872,
			"target":34962
		},
		{
			"buffer":0,
			"byteLength":3248,
			"byteOffset":9744,
			"target":34962
		},
		{
			"buffer":0,
			"byteLength":1356,
			"byteOffset":12992,
			"target":34963
		},
		{
			"buffer":0,
			"byteLength":3312,
			"byteOffset":14348,
			"target":34962
		},
		{
			"buffer":0,
			"byteLength":3312,
			"byteOffset":17660,
			"target":34962
		},
		{
			"buffer":0,
			"byteLength":2208,
			"byteOffset":20972,
			"target":34962
		},
		{
			"buffer":0,
			"byteLength":828,
			"byteOffset":23180,
			"target":34963
		},
		{
			"buffer":0,
			"byteLength":3312,
			"byteOffset":24008,
			"target":34962
		},
		{
			"buffer":0,
			"byteLength":3312,
			"byteOffset":27320,
			"target":34962
		},
		{
			"buffer":0,
			"byteLength":2208,
			"byteOffset":30632,
			"target":34962
		},
		{
			"buffer":0,
			"byteLength":3312,
			"byteOffset":32840,
			"target":34962
		},
		{
			"buffer":0,
			"byteLength":3312,
			"byteOffset":36152,
			"target":34962
		},
		{
			"buffer":0,
			"byteLength":2208,
			"byteOffset":39464,
			"target":34962
		},
		{
			"buffer":0,
			"byteLength":3312,
			"byteOffset":41672,
			"target":34962
		},
		{
			"buffer":0,
			"byteLength":3312,
			"byteOffset":44984,
			"target":34962
		},
		{
			"buffer":0,
			"byteLength":2208,
			"byteOffset":48296,
			"target":34962
		}
	],
	"samplers":[
		{
			"magFilter":9729,
			"minFilter":9987
		}
	],
	"buffers":[
		{
			"byteLength":50504,
			"uri":"mdl_hub_japaneselantern.bin"
		}
	]
}
