{
	"asset":{
		"generator":"Khronos glTF Blender I/O v4.1.62",
		"version":"2.0"
	},
	"extensionsUsed":[
		"KHR_materials_specular"
	],
	"scene":0,
	"scenes":[
		{
			"name":"Scene",
			"nodes":[
				14
			]
		}
	],
	"nodes":[
		{
			"name":"Object_14",
			"translation":[
				-3.337860107421875e-06,
				2.384185791015625e-06,
				4.3417749111540616e-06
			]
		},
		{
			"children":[
				0
			],
			"name":"Camera",
			"rotation":[
				-0.07028601318597794,
				0.3241841793060303,
				-0.1998860090970993,
				0.9219598770141602
			],
			"scale":[
				100.00001525878906,
				99.99998474121094,
				100.0000228881836
			],
			"translation":[
				-1813.8822021484375,
				1571.5599365234375,
				1363.0076904296875
			]
		},
		{
			"mesh":0,
			"name":"Cube_Material.002_0"
		},
		{
			"mesh":1,
			"name":"Cube_Material.003_0"
		},
		{
			"mesh":2,
			"name":"Cube_Material_0"
		},
		{
			"children":[
				2,
				3,
				4
			],
			"name":"Cube",
			"rotation":[
				-0.70710688829422,
				0,
				0,
				0.7071066498756409
			],
			"scale":[
				100,
				99.99998474121094,
				99.99998474121094
			]
		},
		{
			"name":"Object_12"
		},
		{
			"children":[
				6
			],
			"name":"Object_11",
			"rotation":[
				0.70710688829422,
				0,
				0,
				0.7071066498756409
			]
		},
		{
			"children":[
				7
			],
			"name":"Lamp",
			"rotation":[
				0.16907571256160736,
				0.7558803558349609,
				-0.27217134833335876,
				0.5709474682807922
			],
			"scale":[
				100.00000762939453,
				100,
				100
			],
			"translation":[
				407.6245422363281,
				590.38623046875,
				290.5654296875
			]
		},
		{
			"name":"Object_5"
		},
		{
			"children":[
				9
			],
			"name":"Object_4",
			"rotation":[
				0.70710688829422,
				0,
				0,
				0.7071066498756409
			]
		},
		{
			"children":[
				10
			],
			"name":"Lamp.001",
			"rotation":[
				0.2758277654647827,
				-0.5501840710639954,
				0.1628551036119461,
				0.7711645364761353
			],
			"scale":[
				99.9999771118164,
				100,
				99.99999237060547
			],
			"translation":[
				407.6245422363281,
				590.38623046875,
				290.5654296875
			]
		},
		{
			"children":[
				1,
				5,
				8,
				11
			],
			"name":"RootNode"
		},
		{
			"children":[
				12
			],
			"name":"767b25964a0f4335a4da8d6295f50915.fbx",
			"rotation":[
				0.70710688829422,
				0,
				0,
				0.7071066498756409
			]
		},
		{
			"children":[
				13
			],
			"name":"Sketchfab_model",
			"rotation":[
				-0.70710688829422,
				0,
				0,
				0.7071066498756409
			]
		}
	],
	"materials":[
		{
			"doubleSided":true,
			"extensions":{
				"KHR_materials_specular":{
					"specularFactor":0
				}
			},
			"name":"Material.005",
			"pbrMetallicRoughness":{
				"baseColorTexture":{
					"index":0
				},
				"metallicFactor":0,
				"roughnessFactor":0.9000000357627869
			}
		},
		{
			"doubleSided":true,
			"extensions":{
				"KHR_materials_specular":{
					"specularFactor":0
				}
			},
			"name":"Material.006",
			"pbrMetallicRoughness":{
				"baseColorTexture":{
					"index":1
				},
				"metallicFactor":0,
				"roughnessFactor":0.8272727131843567
			}
		},
		{
			"doubleSided":true,
			"extensions":{
				"KHR_materials_specular":{
					"specularFactor":0
				}
			},
			"name":"Material.007",
			"pbrMetallicRoughness":{
				"baseColorTexture":{
					"index":2
				},
				"metallicFactor":0,
				"roughnessFactor":0.9272727370262146
			}
		}
	],
	"meshes":[
		{
			"name":"Cube_Material.002_0.001",
			"primitives":[
				{
					"attributes":{
						"POSITION":0,
						"NORMAL":1,
						"TEXCOORD_0":2,
						"TEXCOORD_1":3
					},
					"indices":4,
					"material":0
				}
			]
		},
		{
			"name":"Cube_Material.003_0.001",
			"primitives":[
				{
					"attributes":{
						"POSITION":5,
						"NORMAL":6,
						"TEXCOORD_0":7
					},
					"indices":8,
					"material":1
				}
			]
		},
		{
			"name":"Cube_Material_0.001",
			"primitives":[
				{
					"attributes":{
						"POSITION":9,
						"NORMAL":10,
						"TEXCOORD_0":11,
						"TEXCOORD_1":12
					},
					"indices":13,
					"material":2
				}
			]
		}
	],
	"textures":[
		{
			"sampler":0,
			"source":0
		},
		{
			"sampler":0,
			"source":1
		},
		{
			"sampler":0,
			"source":2
		}
	],
	"images":[
		{
			"mimeType":"image/jpeg",
			"name":"tx_hub_BigBenClockColor",
			"uri":"tx_hub_BigBenClockColor.jpg"
		},
		{
			"mimeType":"image/jpeg",
			"name":"tx_hub_BigBenRoofColor",
			"uri":"tx_hub_BigBenRoofColor.jpg"
		},
		{
			"mimeType":"image/jpeg",
			"name":"tx_hub_BigBenBaseColor",
			"uri":"tx_hub_BigBenBaseColor.jpg"
		}
	],
	"accessors":[
		{
			"bufferView":0,
			"componentType":5126,
			"count":16,
			"max":[
				1.120764970779419,
				1.1207644939422607,
				7.739662170410156
			],
			"min":[
				-1.1207647323608398,
				-1.120764970779419,
				5.548933029174805
			],
			"type":"VEC3"
		},
		{
			"bufferView":1,
			"componentType":5126,
			"count":16,
			"type":"VEC3"
		},
		{
			"bufferView":2,
			"componentType":5126,
			"count":16,
			"type":"VEC2"
		},
		{
			"bufferView":3,
			"componentType":5126,
			"count":16,
			"type":"VEC2"
		},
		{
			"bufferView":4,
			"componentType":5123,
			"count":24,
			"type":"SCALAR"
		},
		{
			"bufferView":5,
			"componentType":5126,
			"count":32,
			"max":[
				1.0000004768371582,
				1,
				11.033856391906738
			],
			"min":[
				-1.0000003576278687,
				-1.0000005960464478,
				8.251988410949707
			],
			"type":"VEC3"
		},
		{
			"bufferView":6,
			"componentType":5126,
			"count":32,
			"type":"VEC3"
		},
		{
			"bufferView":7,
			"componentType":5126,
			"count":32,
			"type":"VEC2"
		},
		{
			"bufferView":8,
			"componentType":5123,
			"count":48,
			"type":"SCALAR"
		},
		{
			"bufferView":9,
			"componentType":5126,
			"count":104,
			"max":[
				1.120764970779419,
				1.1207644939422607,
				11.600157737731934
			],
			"min":[
				-1.1207647323608398,
				-1.120764970779419,
				-2.438540458679199
			],
			"type":"VEC3"
		},
		{
			"bufferView":10,
			"componentType":5126,
			"count":104,
			"type":"VEC3"
		},
		{
			"bufferView":11,
			"componentType":5126,
			"count":104,
			"type":"VEC2"
		},
		{
			"bufferView":12,
			"componentType":5126,
			"count":104,
			"type":"VEC2"
		},
		{
			"bufferView":13,
			"componentType":5123,
			"count":156,
			"type":"SCALAR"
		}
	],
	"bufferViews":[
		{
			"buffer":0,
			"byteLength":192,
			"byteOffset":0,
			"target":34962
		},
		{
			"buffer":0,
			"byteLength":192,
			"byteOffset":192,
			"target":34962
		},
		{
			"buffer":0,
			"byteLength":128,
			"byteOffset":384,
			"target":34962
		},
		{
			"buffer":0,
			"byteLength":128,
			"byteOffset":512,
			"target":34962
		},
		{
			"buffer":0,
			"byteLength":48,
			"byteOffset":640,
			"target":34963
		},
		{
			"buffer":0,
			"byteLength":384,
			"byteOffset":688,
			"target":34962
		},
		{
			"buffer":0,
			"byteLength":384,
			"byteOffset":1072,
			"target":34962
		},
		{
			"buffer":0,
			"byteLength":256,
			"byteOffset":1456,
			"target":34962
		},
		{
			"buffer":0,
			"byteLength":96,
			"byteOffset":1712,
			"target":34963
		},
		{
			"buffer":0,
			"byteLength":1248,
			"byteOffset":1808,
			"target":34962
		},
		{
			"buffer":0,
			"byteLength":1248,
			"byteOffset":3056,
			"target":34962
		},
		{
			"buffer":0,
			"byteLength":832,
			"byteOffset":4304,
			"target":34962
		},
		{
			"buffer":0,
			"byteLength":832,
			"byteOffset":5136,
			"target":34962
		},
		{
			"buffer":0,
			"byteLength":312,
			"byteOffset":5968,
			"target":34963
		}
	],
	"samplers":[
		{
			"magFilter":9729,
			"minFilter":9987
		}
	],
	"buffers":[
		{
			"byteLength":6280,
			"uri":"mdl_hub_BigBen.bin"
		}
	]
}
