{
	"asset":{
		"generator":"Khronos glTF Blender I/O v4.2.57",
		"version":"2.0"
	},
	"extensionsUsed":[
		"KHR_materials_clearcoat",
		"KHR_materials_transmission",
		"KHR_materials_emissive_strength",
		"KHR_materials_specular",
		"KHR_materials_sheen",
		"KHR_materials_anisotropy",
		"KHR_materials_ior"
	],
	"scene":0,
	"scenes":[
		{
			"name":"Scene",
			"nodes":[
				3,
				4,
				5
			]
		}
	],
	"nodes":[
		{
			"name":"Sphere",
			"rotation":[
				-0.70710688829422,
				0,
				0,
				0.7071066498756409
			],
			"scale":[
				99.99999237060547,
				99.99999237060547,
				99.99999237060547
			]
		},
		{
			"children":[
				0
			],
			"name":"RootNode",
			"scale":[
				0.5220043659210205,
				0.5220043659210205,
				0.5220043659210205
			]
		},
		{
			"children":[
				1
			],
			"name":"8a888f66473549c99c3f97fb5030482f.fbx",
			"rotation":[
				0.70710688829422,
				0,
				0,
				0.7071066498756409
			]
		},
		{
			"children":[
				2
			],
			"name":"Sketchfab_model",
			"rotation":[
				-0.70710688829422,
				0,
				0,
				0.7071066498756409
			]
		},
		{
			"mesh":0,
			"name":"Sphere.001",
			"rotation":[
				1,
				0,
				0,
				0
			],
			"scale":[
				0.5220043659210205,
				0.5220043659210205,
				0.5220043659210205
			]
		},
		{
			"mesh":1,
			"name":"Sphere.003",
			"scale":[
				0.5170619487762451,
				0.5170619487762451,
				0.5170619487762451
			]
		}
	],
	"materials":[
		{
			"extensions":{
				"KHR_materials_specular":{
					"specularColorFactor":[
						0.0,
						0.0,
						0.0
					]
				},
				"KHR_materials_sheen":{
					"sheenRoughnessFactor":1
				},
				"KHR_materials_ior":{
					"ior":1
				}
			},
			"name":"Matte AB",
			"normalTexture":{
				"index":0
			},
			"pbrMetallicRoughness":{
				"baseColorTexture":{
					"index":1
				},
				"metallicFactor":0
			}
		},
		{
			"alphaMode":"BLEND",
			"doubleSided":true,
			"emissiveFactor":[
				1,
				1,
				1
			],
			"extensions":{
				"KHR_materials_clearcoat":{
					"clearcoatFactor":1,
					"clearcoatRoughnessFactor":0.2980412244796753
				},
				"KHR_materials_transmission":{
					"transmissionFactor":0.8041236996650696
				},
				"KHR_materials_emissive_strength":{
					"emissiveStrength":1.0698188205209505
				},
				"KHR_materials_specular":{
					"specularColorFactor":[
						0.0,
						0.0,
						0.0
					]
				},
				"KHR_materials_sheen":{
					"sheenColorFactor":[
						0.010392126627266407,
						0.010392126627266407,
						0.010392126627266407
					],
					"sheenRoughnessFactor":0.5
				},
				"KHR_materials_anisotropy":{
					"anisotropyStrength":1
				},
				"KHR_materials_ior":{
					"ior":1
				}
			},
			"name":"Material.001",
			"pbrMetallicRoughness":{
				"baseColorFactor":[
					0,
					0,
					0,
					0.9714285731315613
				],
				"metallicFactor":0.14432989060878754,
				"roughnessFactor":0.500981867313385
			}
		}
	],
	"meshes":[
		{
			"name":"Sphere",
			"primitives":[
				{
					"attributes":{
						"POSITION":0,
						"NORMAL":1,
						"TEXCOORD_0":2
					},
					"indices":3,
					"material":0
				}
			]
		},
		{
			"name":"Sphere.002",
			"primitives":[
				{
					"attributes":{
						"POSITION":4,
						"NORMAL":5,
						"TEXCOORD_0":6
					},
					"indices":7,
					"material":1
				}
			]
		}
	],
	"textures":[
		{
			"sampler":0,
			"source":0
		},
		{
			"sampler":1,
			"source":1
		}
	],
	"images":[
		{
			"mimeType":"image/png",
			"name":"tx_travelicon_n",
			"uri":"tx_travelicon_n.png"
		},
		{
			"mimeType":"image/png",
			"name":"tx_travelicon_a",
			"uri":"tx_travelicon_a.png"
		}
	],
	"accessors":[
		{
			"bufferView":0,
			"componentType":5126,
			"count":1118,
			"max":[
				0.9999997019767761,
				1,
				0.9999993443489075
			],
			"min":[
				-0.9999990463256836,
				-1,
				-1
			],
			"type":"VEC3"
		},
		{
			"bufferView":1,
			"componentType":5126,
			"count":1118,
			"type":"VEC3"
		},
		{
			"bufferView":2,
			"componentType":5126,
			"count":1118,
			"type":"VEC2"
		},
		{
			"bufferView":3,
			"componentType":5123,
			"count":5760,
			"type":"SCALAR"
		},
		{
			"bufferView":4,
			"componentType":5126,
			"count":559,
			"max":[
				0.9999997019767761,
				1,
				0.9999993443489075
			],
			"min":[
				-0.9999990463256836,
				-1,
				-1
			],
			"type":"VEC3"
		},
		{
			"bufferView":5,
			"componentType":5126,
			"count":559,
			"type":"VEC3"
		},
		{
			"bufferView":6,
			"componentType":5126,
			"count":559,
			"type":"VEC2"
		},
		{
			"bufferView":7,
			"componentType":5123,
			"count":2880,
			"type":"SCALAR"
		}
	],
	"bufferViews":[
		{
			"buffer":0,
			"byteLength":13416,
			"byteOffset":0,
			"target":34962
		},
		{
			"buffer":0,
			"byteLength":13416,
			"byteOffset":13416,
			"target":34962
		},
		{
			"buffer":0,
			"byteLength":8944,
			"byteOffset":26832,
			"target":34962
		},
		{
			"buffer":0,
			"byteLength":11520,
			"byteOffset":35776,
			"target":34963
		},
		{
			"buffer":0,
			"byteLength":6708,
			"byteOffset":47296,
			"target":34962
		},
		{
			"buffer":0,
			"byteLength":6708,
			"byteOffset":54004,
			"target":34962
		},
		{
			"buffer":0,
			"byteLength":4472,
			"byteOffset":60712,
			"target":34962
		},
		{
			"buffer":0,
			"byteLength":5760,
			"byteOffset":65184,
			"target":34963
		}
	],
	"samplers":[
		{
			"magFilter":9729,
			"minFilter":9987
		},
		{
			"magFilter":9729,
			"minFilter":9987,
			"wrapS":33071,
			"wrapT":33071
		}
	],
	"buffers":[
		{
			"byteLength":70944,
			"uri":"mdl_travelicon.bin"
		}
	]
}
