{
	"asset":{
		"generator":"Khronos glTF Blender I/O v4.1.62",
		"version":"2.0"
	},
	"extensionsUsed":[
		"KHR_materials_specular"
	],
	"scene":0,
	"scenes":[
		{
			"name":"Scene",
			"nodes":[
				0,
				1
			]
		}
	],
	"nodes":[
		{
			"mesh":0,
			"name":"Cylinder",
			"scale":[
				0.015678411349654198,
				0.0014494694769382477,
				0.015678411349654198
			],
			"translation":[
				0,
				0.0014990189811214805,
				0
			]
		},
		{
			"mesh":1,
			"name":"Cylinder.001",
			"scale":[
				-0.0009153275168500841,
				-0.000268840289209038,
				-0.0009153275168500841
			],
			"translation":[
				0,
				0.0015873797237873077,
				0
			]
		}
	],
	"materials":[
		{
			"doubleSided":true,
			"name":"Material.123",
			"pbrMetallicRoughness":{
				"baseColorTexture":{
					"index":0
				},
				"metallicFactor":0,
				"roughnessFactor":0.5
			}
		},
		{
			"doubleSided":true,
			"extensions":{
				"KHR_materials_specular":{
					"specularFactor":0
				}
			},
			"name":"Material.124",
			"normalTexture":{
				"index":1
			},
			"pbrMetallicRoughness":{
				"baseColorTexture":{
					"index":2
				},
				"metallicFactor":0,
				"roughnessFactor":0.5
			}
		}
	],
	"meshes":[
		{
			"name":"Cylinder.034",
			"primitives":[
				{
					"attributes":{
						"POSITION":0,
						"NORMAL":1,
						"TEXCOORD_0":2
					},
					"indices":3,
					"material":0
				},
				{
					"attributes":{
						"POSITION":4,
						"NORMAL":5,
						"TEXCOORD_0":6
					},
					"indices":7,
					"material":1
				}
			]
		},
		{
			"name":"Cylinder.035",
			"primitives":[
				{
					"attributes":{
						"POSITION":8,
						"NORMAL":9,
						"TEXCOORD_0":10
					},
					"indices":11,
					"material":1
				}
			]
		}
	],
	"textures":[
		{
			"sampler":0,
			"source":0
		},
		{
			"sampler":0,
			"source":1
		},
		{
			"sampler":0,
			"source":2
		}
	],
	"images":[
		{
			"mimeType":"image/png",
			"name":"tx_hub_wickerclockface",
			"uri":"tx_hub_wickerclockface.png"
		},
		{
			"mimeType":"image/png",
			"name":"tx_hub_wicker006Normal",
			"uri":"tx_hub_wicker006Normal.png"
		},
		{
			"mimeType":"image/png",
			"name":"tx_hub_wicker006Color",
			"uri":"tx_hub_wicker006Color.png"
		}
	],
	"accessors":[
		{
			"bufferView":0,
			"componentType":5126,
			"count":32,
			"max":[
				0.9053551554679871,
				-0.02692413330078125,
				0.9053551554679871
			],
			"min":[
				-0.9053551554679871,
				-0.02692413330078125,
				-0.9053551554679871
			],
			"type":"VEC3"
		},
		{
			"bufferView":1,
			"componentType":5126,
			"count":32,
			"type":"VEC3"
		},
		{
			"bufferView":2,
			"componentType":5126,
			"count":32,
			"type":"VEC2"
		},
		{
			"bufferView":3,
			"componentType":5123,
			"count":90,
			"type":"SCALAR"
		},
		{
			"bufferView":4,
			"componentType":5126,
			"count":180,
			"max":[
				1,
				0.6184984445571899,
				1
			],
			"min":[
				-1,
				-1.1519525051116943,
				-1
			],
			"type":"VEC3"
		},
		{
			"bufferView":5,
			"componentType":5126,
			"count":180,
			"type":"VEC3"
		},
		{
			"bufferView":6,
			"componentType":5126,
			"count":180,
			"type":"VEC2"
		},
		{
			"bufferView":7,
			"componentType":5123,
			"count":576,
			"type":"SCALAR"
		},
		{
			"bufferView":8,
			"componentType":5126,
			"count":130,
			"max":[
				1,
				1,
				1
			],
			"min":[
				-1,
				-1,
				-1
			],
			"type":"VEC3"
		},
		{
			"bufferView":9,
			"componentType":5126,
			"count":130,
			"type":"VEC3"
		},
		{
			"bufferView":10,
			"componentType":5126,
			"count":130,
			"type":"VEC2"
		},
		{
			"bufferView":11,
			"componentType":5123,
			"count":372,
			"type":"SCALAR"
		}
	],
	"bufferViews":[
		{
			"buffer":0,
			"byteLength":384,
			"byteOffset":0,
			"target":34962
		},
		{
			"buffer":0,
			"byteLength":384,
			"byteOffset":384,
			"target":34962
		},
		{
			"buffer":0,
			"byteLength":256,
			"byteOffset":768,
			"target":34962
		},
		{
			"buffer":0,
			"byteLength":180,
			"byteOffset":1024,
			"target":34963
		},
		{
			"buffer":0,
			"byteLength":2160,
			"byteOffset":1204,
			"target":34962
		},
		{
			"buffer":0,
			"byteLength":2160,
			"byteOffset":3364,
			"target":34962
		},
		{
			"buffer":0,
			"byteLength":1440,
			"byteOffset":5524,
			"target":34962
		},
		{
			"buffer":0,
			"byteLength":1152,
			"byteOffset":6964,
			"target":34963
		},
		{
			"buffer":0,
			"byteLength":1560,
			"byteOffset":8116,
			"target":34962
		},
		{
			"buffer":0,
			"byteLength":1560,
			"byteOffset":9676,
			"target":34962
		},
		{
			"buffer":0,
			"byteLength":1040,
			"byteOffset":11236,
			"target":34962
		},
		{
			"buffer":0,
			"byteLength":744,
			"byteOffset":12276,
			"target":34963
		}
	],
	"samplers":[
		{
			"magFilter":9729,
			"minFilter":9987
		}
	],
	"buffers":[
		{
			"byteLength":13020,
			"uri":"mdl_hub_wickerclock.bin"
		}
	]
}
