{
	"asset":{
		"generator":"Khronos glTF Blender I/O v3.5.30",
		"version":"2.0"
	},
	"extensionsUsed":[
		"KHR_materials_specular",
		"KHR_materials_ior"
	],
	"scene":0,
	"scenes":[
		{
			"name":"Scene",
			"nodes":[
				0
			]
		}
	],
	"nodes":[
		{
			"mesh":0,
			"name":"Left",
			"scale":[
				0.1875,
				0.1875,
				0.1875
			]
		}
	],
	"materials":[
		{
			"doubleSided":true,
			"extensions":{
				"KHR_materials_specular":{
					"specularColorFactor":[
						0.02371357561437425,
						0.02371357561437425,
						0.02371357561437425
					]
				},
				"KHR_materials_ior":{
					"ior":1.4500000476837158
				}
			},
			"name":"Front",
			"pbrMetallicRoughness":{
				"baseColorTexture":{
					"index":0
				},
				"metallicFactor":0,
				"roughnessFactor":0.75
			}
		},
		{
			"doubleSided":true,
			"extensions":{
				"KHR_materials_specular":{
					"specularColorFactor":[
						0.02371357561437425,
						0.02371357561437425,
						0.02371357561437425
					]
				},
				"KHR_materials_ior":{
					"ior":1.4500000476837158
				}
			},
			"name":"Back",
			"pbrMetallicRoughness":{
				"baseColorTexture":{
					"index":1
				},
				"metallicFactor":0,
				"roughnessFactor":0.75
			}
		}
	],
	"meshes":[
		{
			"name":"Plane.009",
			"primitives":[
				{
					"attributes":{
						"POSITION":0,
						"TEXCOORD_0":1,
						"NORMAL":2
					},
					"indices":3,
					"material":0
				},
				{
					"attributes":{
						"POSITION":4,
						"TEXCOORD_0":5,
						"NORMAL":6
					},
					"indices":7,
					"material":1
				}
			]
		}
	],
	"textures":[
		{
			"sampler":0,
			"source":0
		},
		{
			"sampler":0,
			"source":1
		}
	],
	"images":[
		{
			"mimeType":"image/png",
			"name":"pamphlet_front",
			"uri":"pamphlet_front.png"
		},
		{
			"mimeType":"image/png",
			"name":"pamphlet_back",
			"uri":"pamphlet_back.png"
		}
	],
	"accessors":[
		{
			"bufferView":0,
			"componentType":5126,
			"count":205,
			"max":[
				0.9952145218849182,
				1.0068944692611694,
				0.007326274644583464
			],
			"min":[
				5.7406323321629316e-06,
				-0.9931058287620544,
				-0.03661279007792473
			],
			"type":"VEC3"
		},
		{
			"bufferView":1,
			"componentType":5126,
			"count":205,
			"type":"VEC2"
		},
		{
			"bufferView":2,
			"componentType":5126,
			"count":205,
			"type":"VEC3"
		},
		{
			"bufferView":3,
			"componentType":5123,
			"count":702,
			"type":"SCALAR"
		},
		{
			"bufferView":4,
			"componentType":5126,
			"count":59,
			"max":[
				0.9951967597007751,
				1.0068652629852295,
				0.0073555707931518555
			],
			"min":[
				2.37412350543309e-05,
				-0.993076503276825,
				-0.035675521939992905
			],
			"type":"VEC3"
		},
		{
			"bufferView":5,
			"componentType":5126,
			"count":59,
			"type":"VEC2"
		},
		{
			"bufferView":6,
			"componentType":5126,
			"count":59,
			"type":"VEC3"
		},
		{
			"bufferView":7,
			"componentType":5123,
			"count":198,
			"type":"SCALAR"
		}
	],
	"bufferViews":[
		{
			"buffer":0,
			"byteLength":2460,
			"byteOffset":0,
			"target":34962
		},
		{
			"buffer":0,
			"byteLength":1640,
			"byteOffset":2460,
			"target":34962
		},
		{
			"buffer":0,
			"byteLength":2460,
			"byteOffset":4100,
			"target":34962
		},
		{
			"buffer":0,
			"byteLength":1404,
			"byteOffset":6560,
			"target":34963
		},
		{
			"buffer":0,
			"byteLength":708,
			"byteOffset":7964,
			"target":34962
		},
		{
			"buffer":0,
			"byteLength":472,
			"byteOffset":8672,
			"target":34962
		},
		{
			"buffer":0,
			"byteLength":708,
			"byteOffset":9144,
			"target":34962
		},
		{
			"buffer":0,
			"byteLength":396,
			"byteOffset":9852,
			"target":34963
		}
	],
	"samplers":[
		{
			"magFilter":9729,
			"minFilter":9987
		}
	],
	"buffers":[
		{
			"byteLength":10248,
			"uri":"pamphlet_left.bin"
		}
	]
}
