{
	"asset":{
		"generator":"Khronos glTF Blender I/O v3.5.30",
		"version":"2.0"
	},
	"extensionsUsed":[
		"KHR_materials_specular",
		"KHR_materials_ior"
	],
	"scene":0,
	"scenes":[
		{
			"name":"Scene",
			"nodes":[
				0
			]
		}
	],
	"nodes":[
		{
			"mesh":0,
			"name":"Right",
			"scale":[
				0.1875,
				0.1875,
				0.1875
			]
		}
	],
	"materials":[
		{
			"doubleSided":true,
			"extensions":{
				"KHR_materials_specular":{
					"specularColorFactor":[
						0.02371357561437425,
						0.02371357561437425,
						0.02371357561437425
					]
				},
				"KHR_materials_ior":{
					"ior":1.4500000476837158
				}
			},
			"name":"Front",
			"pbrMetallicRoughness":{
				"baseColorTexture":{
					"index":0
				},
				"metallicFactor":0,
				"roughnessFactor":0.75
			}
		},
		{
			"doubleSided":true,
			"extensions":{
				"KHR_materials_specular":{
					"specularColorFactor":[
						0.02371357561437425,
						0.02371357561437425,
						0.02371357561437425
					]
				},
				"KHR_materials_ior":{
					"ior":1.4500000476837158
				}
			},
			"name":"Back",
			"pbrMetallicRoughness":{
				"baseColorTexture":{
					"index":1
				},
				"metallicFactor":0,
				"roughnessFactor":0.75
			}
		}
	],
	"meshes":[
		{
			"name":"Plane.010",
			"primitives":[
				{
					"attributes":{
						"POSITION":0,
						"TEXCOORD_0":1,
						"NORMAL":2
					},
					"indices":3,
					"material":0
				},
				{
					"attributes":{
						"POSITION":4,
						"TEXCOORD_0":5,
						"NORMAL":6
					},
					"indices":7,
					"material":1
				}
			]
		}
	],
	"textures":[
		{
			"sampler":0,
			"source":0
		},
		{
			"sampler":0,
			"source":1
		}
	],
	"images":[
		{
			"mimeType":"image/png",
			"name":"pamphlet_front",
			"uri":"pamphlet_front.png"
		},
		{
			"mimeType":"image/png",
			"name":"pamphlet_back",
			"uri":"pamphlet_back.png"
		}
	],
	"accessors":[
		{
			"bufferView":0,
			"componentType":5126,
			"count":204,
			"max":[
				5.861278623342514e-06,
				1.0068947076797485,
				0.007461162284016609
			],
			"min":[
				-0.9973497986793518,
				-0.9931055903434753,
				-0.02577217109501362
			],
			"type":"VEC3"
		},
		{
			"bufferView":1,
			"componentType":5126,
			"count":204,
			"type":"VEC2"
		},
		{
			"bufferView":2,
			"componentType":5126,
			"count":204,
			"type":"VEC3"
		},
		{
			"bufferView":3,
			"componentType":5123,
			"count":702,
			"type":"SCALAR"
		},
		{
			"bufferView":4,
			"componentType":5126,
			"count":67,
			"max":[
				-1.5000347048044205e-05,
				1.006865382194519,
				0.0074904561042785645
			],
			"min":[
				-0.99732905626297,
				-0.9930763244628906,
				-0.02482760138809681
			],
			"type":"VEC3"
		},
		{
			"bufferView":5,
			"componentType":5126,
			"count":67,
			"type":"VEC2"
		},
		{
			"bufferView":6,
			"componentType":5126,
			"count":67,
			"type":"VEC3"
		},
		{
			"bufferView":7,
			"componentType":5123,
			"count":198,
			"type":"SCALAR"
		}
	],
	"bufferViews":[
		{
			"buffer":0,
			"byteLength":2448,
			"byteOffset":0,
			"target":34962
		},
		{
			"buffer":0,
			"byteLength":1632,
			"byteOffset":2448,
			"target":34962
		},
		{
			"buffer":0,
			"byteLength":2448,
			"byteOffset":4080,
			"target":34962
		},
		{
			"buffer":0,
			"byteLength":1404,
			"byteOffset":6528,
			"target":34963
		},
		{
			"buffer":0,
			"byteLength":804,
			"byteOffset":7932,
			"target":34962
		},
		{
			"buffer":0,
			"byteLength":536,
			"byteOffset":8736,
			"target":34962
		},
		{
			"buffer":0,
			"byteLength":804,
			"byteOffset":9272,
			"target":34962
		},
		{
			"buffer":0,
			"byteLength":396,
			"byteOffset":10076,
			"target":34963
		}
	],
	"samplers":[
		{
			"magFilter":9729,
			"minFilter":9987
		}
	],
	"buffers":[
		{
			"byteLength":10472,
			"uri":"pamphlet_right.bin"
		}
	]
}
