{
	"asset":{
		"generator":"Khronos glTF Blender I/O v4.1.62",
		"version":"2.0"
	},
	"extensionsUsed":[
		"KHR_materials_specular"
	],
	"scene":0,
	"scenes":[
		{
			"name":"Scene",
			"nodes":[
				5
			]
		}
	],
	"nodes":[
		{
			"mesh":0,
			"name":"SM_mask_Material #126_0"
		},
		{
			"children":[
				0
			],
			"name":"Object_4",
			"translation":[
				91.96943664550781,
				267.2549743652344,
				33.125484466552734
			]
		},
		{
			"children":[
				1
			],
			"name":"SM_mask",
			"rotation":[
				0,
				0.13052618503570557,
				0,
				0.9914448857307434
			],
			"translation":[
				15.951416015625,
				0,
				-40.97802734375
			]
		},
		{
			"children":[
				2
			],
			"name":"RootNode"
		},
		{
			"children":[
				3
			],
			"name":"913c049ce45743f4b3228885146ace80.fbx",
			"rotation":[
				0.70710688829422,
				0,
				0,
				0.7071066498756409
			],
			"scale":[
				0.009999999776482582,
				0.010000000707805157,
				0.010000000707805157
			]
		},
		{
			"children":[
				4
			],
			"name":"Sketchfab_model",
			"rotation":[
				-0.70710688829422,
				0,
				0,
				0.7071066498756409
			]
		}
	],
	"materials":[
		{
			"doubleSided":true,
			"extensions":{
				"KHR_materials_specular":{
					"specularFactor":0
				}
			},
			"name":"Material_126",
			"normalTexture":{
				"index":0
			},
			"pbrMetallicRoughness":{
				"baseColorTexture":{
					"index":1
				},
				"metallicFactor":0,
				"roughnessFactor":0.8055306077003479
			}
		}
	],
	"meshes":[
		{
			"name":"SM_mask_Material #126_0",
			"primitives":[
				{
					"attributes":{
						"POSITION":0,
						"NORMAL":1,
						"TEXCOORD_0":2,
						"TEXCOORD_1":3
					},
					"indices":4,
					"material":0
				}
			]
		}
	],
	"textures":[
		{
			"sampler":0,
			"source":0
		},
		{
			"sampler":0,
			"source":0
		}
	],
	"images":[
		{
			"mimeType":"image/png",
			"name":"tx_hub_africanmaskColor",
			"uri":"tx_hub_africanmaskColor.png"
		}
	],
	"accessors":[
		{
			"bufferView":0,
			"componentType":5126,
			"count":3972,
			"max":[
				140.5770263671875,
				423.6936340332031,
				58.015445709228516
			],
			"min":[
				-323.36602783203125,
				-267.2548522949219,
				-113.47264862060547
			],
			"type":"VEC3"
		},
		{
			"bufferView":1,
			"componentType":5126,
			"count":3972,
			"type":"VEC3"
		},
		{
			"bufferView":2,
			"componentType":5126,
			"count":3972,
			"type":"VEC2"
		},
		{
			"bufferView":3,
			"componentType":5126,
			"count":3972,
			"type":"VEC2"
		},
		{
			"bufferView":4,
			"componentType":5123,
			"count":10122,
			"type":"SCALAR"
		}
	],
	"bufferViews":[
		{
			"buffer":0,
			"byteLength":47664,
			"byteOffset":0,
			"target":34962
		},
		{
			"buffer":0,
			"byteLength":47664,
			"byteOffset":47664,
			"target":34962
		},
		{
			"buffer":0,
			"byteLength":31776,
			"byteOffset":95328,
			"target":34962
		},
		{
			"buffer":0,
			"byteLength":31776,
			"byteOffset":127104,
			"target":34962
		},
		{
			"buffer":0,
			"byteLength":20244,
			"byteOffset":158880,
			"target":34963
		}
	],
	"samplers":[
		{
			"magFilter":9729,
			"minFilter":9987
		}
	],
	"buffers":[
		{
			"byteLength":179124,
			"uri":"tx_hub_africanmask.bin"
		}
	]
}
