{
	"asset":{
		"generator":"Khronos glTF Blender I/O v4.0.44",
		"version":"2.0"
	},
	"scene":0,
	"scenes":[
		{
			"name":"Scene",
			"nodes":[
				0,
				1
			]
		}
	],
	"nodes":[
		{
			"mesh":0,
			"name":"sign"
		},
		{
			"mesh":1,
			"name":"frame-regular"
		}
	],
	"materials":[
		{
			"doubleSided":true,
			"name":"Concrete--PAINT1.002",
			"pbrMetallicRoughness":{
				"baseColorTexture":{
					"index":0
				},
				"metallicFactor":0,
				"roughnessFactor":0.6000000238418579
			}
		},
		{
			"doubleSided":true,
			"name":"Concrete--PAINT2.002",
			"pbrMetallicRoughness":{
				"baseColorTexture":{
					"index":1
				},
				"metallicFactor":0,
				"roughnessFactor":0.6000000238418579
			}
		},
		{
			"doubleSided":true,
			"name":"Grass_7--PAINTED.002",
			"pbrMetallicRoughness":{
				"baseColorTexture":{
					"index":2
				},
				"metallicFactor":0,
				"roughnessFactor":0.6000000238418579
			}
		}
	],
	"meshes":[
		{
			"name":"Object_4.004",
			"primitives":[
				{
					"attributes":{
						"POSITION":0,
						"NORMAL":1,
						"TEXCOORD_0":2
					},
					"indices":3,
					"material":0
				},
				{
					"attributes":{
						"POSITION":4,
						"NORMAL":5,
						"TEXCOORD_0":6
					},
					"indices":7,
					"material":1
				}
			]
		},
		{
			"name":"Object_4.005",
			"primitives":[
				{
					"attributes":{
						"POSITION":8,
						"NORMAL":9,
						"TEXCOORD_0":10
					},
					"indices":11,
					"material":2
				},
				{
					"attributes":{
						"POSITION":12,
						"NORMAL":13,
						"TEXCOORD_0":14
					},
					"indices":15,
					"material":0
				}
			]
		}
	],
	"textures":[
		{
			"sampler":0,
			"source":0
		},
		{
			"sampler":0,
			"source":1
		},
		{
			"sampler":0,
			"source":2
		}
	],
	"images":[
		{
			"mimeType":"image/png",
			"name":"Concrete--PAINT1_baseColor.png",
			"uri":"Concrete--PAINT1_baseColor_png.png"
		},
		{
			"mimeType":"image/png",
			"name":"Concrete--PAINT2_baseColor.png",
			"uri":"Concrete--PAINT2_baseColor_png.png"
		},
		{
			"mimeType":"image/png",
			"name":"Grass_7--PAINTED_baseColor.png",
			"uri":"Grass_7--PAINTED_baseColor_png.png"
		}
	],
	"accessors":[
		{
			"bufferView":0,
			"componentType":5126,
			"count":164,
			"max":[
				0.6180464625358582,
				2.0002520084381104,
				0.13365352153778076
			],
			"min":[
				-0.6180464625358582,
				-9.055762362208952e-09,
				-0.13365352153778076
			],
			"type":"VEC3"
		},
		{
			"bufferView":1,
			"componentType":5126,
			"count":164,
			"type":"VEC3"
		},
		{
			"bufferView":2,
			"componentType":5126,
			"count":164,
			"type":"VEC2"
		},
		{
			"bufferView":3,
			"componentType":5123,
			"count":312,
			"type":"SCALAR"
		},
		{
			"bufferView":4,
			"componentType":5126,
			"count":20,
			"max":[
				0.6106724739074707,
				1.9928618669509888,
				0.13365352153778076
			],
			"min":[
				-0.6106724739074707,
				1.7918789386749268,
				-0.13365352153778076
			],
			"type":"VEC3"
		},
		{
			"bufferView":5,
			"componentType":5126,
			"count":20,
			"type":"VEC3"
		},
		{
			"bufferView":6,
			"componentType":5126,
			"count":20,
			"type":"VEC2"
		},
		{
			"bufferView":7,
			"componentType":5123,
			"count":48,
			"type":"SCALAR"
		},
		{
			"bufferView":8,
			"componentType":5126,
			"count":4,
			"max":[
				0,
				1.7845048904418945,
				0.13365352153778076
			],
			"min":[
				0,
				1.7771309614181519,
				-0.13365352153778076
			],
			"type":"VEC3"
		},
		{
			"bufferView":9,
			"componentType":5126,
			"count":4,
			"type":"VEC3"
		},
		{
			"bufferView":10,
			"componentType":5126,
			"count":4,
			"type":"VEC2"
		},
		{
			"bufferView":11,
			"componentType":5123,
			"count":6,
			"type":"SCALAR"
		},
		{
			"bufferView":12,
			"componentType":5126,
			"count":60,
			"max":[
				0.45133501291275024,
				1.7845048904418945,
				0.13365352153778076
			],
			"min":[
				-0.45133501291275024,
				0.8996264338493347,
				-0.13365352153778076
			],
			"type":"VEC3"
		},
		{
			"bufferView":13,
			"componentType":5126,
			"count":60,
			"type":"VEC3"
		},
		{
			"bufferView":14,
			"componentType":5126,
			"count":60,
			"type":"VEC2"
		},
		{
			"bufferView":15,
			"componentType":5123,
			"count":120,
			"type":"SCALAR"
		}
	],
	"bufferViews":[
		{
			"buffer":0,
			"byteLength":1968,
			"byteOffset":0,
			"target":34962
		},
		{
			"buffer":0,
			"byteLength":1968,
			"byteOffset":1968,
			"target":34962
		},
		{
			"buffer":0,
			"byteLength":1312,
			"byteOffset":3936,
			"target":34962
		},
		{
			"buffer":0,
			"byteLength":624,
			"byteOffset":5248,
			"target":34963
		},
		{
			"buffer":0,
			"byteLength":240,
			"byteOffset":5872,
			"target":34962
		},
		{
			"buffer":0,
			"byteLength":240,
			"byteOffset":6112,
			"target":34962
		},
		{
			"buffer":0,
			"byteLength":160,
			"byteOffset":6352,
			"target":34962
		},
		{
			"buffer":0,
			"byteLength":96,
			"byteOffset":6512,
			"target":34963
		},
		{
			"buffer":0,
			"byteLength":48,
			"byteOffset":6608,
			"target":34962
		},
		{
			"buffer":0,
			"byteLength":48,
			"byteOffset":6656,
			"target":34962
		},
		{
			"buffer":0,
			"byteLength":32,
			"byteOffset":6704,
			"target":34962
		},
		{
			"buffer":0,
			"byteLength":12,
			"byteOffset":6736,
			"target":34963
		},
		{
			"buffer":0,
			"byteLength":720,
			"byteOffset":6748,
			"target":34962
		},
		{
			"buffer":0,
			"byteLength":720,
			"byteOffset":7468,
			"target":34962
		},
		{
			"buffer":0,
			"byteLength":480,
			"byteOffset":8188,
			"target":34962
		},
		{
			"buffer":0,
			"byteLength":240,
			"byteOffset":8668,
			"target":34963
		}
	],
	"samplers":[
		{
			"magFilter":9729,
			"minFilter":9987
		}
	],
	"buffers":[
		{
			"byteLength":8908,
			"uri":"sign-regular.bin"
		}
	]
}
