{
	"asset":{
		"generator":"Khronos glTF Blender I/O v4.0.44",
		"version":"2.0"
	},
	"scene":0,
	"scenes":[
		{
			"name":"Scene",
			"nodes":[
				4
			]
		}
	],
	"nodes":[
		{
			"mesh":0,
			"name":"Object_4"
		},
		{
			"children":[
				0
			],
			"name":"Lathe_2",
			"rotation":[
				0.70710688829422,
				0,
				0,
				0.7071066498756409
			],
			"scale":[
				0.009999999776482582,
				0.009999996982514858,
				0.009999996982514858
			],
			"translation":[
				-0.0018662611255422235,
				-0.23434410989284515,
				-0.0065253134816884995
			]
		},
		{
			"children":[
				1
			],
			"name":"GLTF_SceneRootNode",
			"rotation":[
				0.70710688829422,
				0,
				0,
				0.7071066498756409
			]
		},
		{
			"children":[
				2
			],
			"name":"root"
		},
		{
			"children":[
				3
			],
			"name":"Sketchfab_model",
			"rotation":[
				-0.70710688829422,
				0,
				0,
				0.7071066498756409
			],
			"scale":[
				0.17943613231182098,
				0.17943613231182098,
				0.17943613231182098
			]
		}
	],
	"materials":[
		{
			"doubleSided":true,
			"name":"Material.097",
			"normalTexture":{
				"index":0
			},
			"pbrMetallicRoughness":{
				"baseColorTexture":{
					"index":1
				},
				"metallicRoughnessTexture":{
					"index":2
				}
			}
		}
	],
	"meshes":[
		{
			"name":"Object_0.028",
			"primitives":[
				{
					"attributes":{
						"POSITION":0,
						"NORMAL":1,
						"TEXCOORD_0":2
					},
					"indices":3,
					"material":0
				}
			]
		}
	],
	"textures":[
		{
			"sampler":0,
			"source":0
		},
		{
			"sampler":0,
			"source":1
		},
		{
			"sampler":0,
			"source":2
		}
	],
	"images":[
		{
			"mimeType":"image/png",
			"name":"Image_2",
			"uri":"Image_2.png"
		},
		{
			"mimeType":"image/png",
			"name":"Image_0",
			"uri":"Image_0.png"
		},
		{
			"mimeType":"image/png",
			"name":"Image_1",
			"uri":"Image_1.png"
		}
	],
	"accessors":[
		{
			"bufferView":0,
			"componentType":5126,
			"count":14804,
			"max":[
				100.1866226196289,
				100.65253448486328,
				149.70162963867188
			],
			"min":[
				-99.8133773803711,
				-99.34746551513672,
				-119.01730346679688
			],
			"type":"VEC3"
		},
		{
			"bufferView":1,
			"componentType":5126,
			"count":14804,
			"type":"VEC3"
		},
		{
			"bufferView":2,
			"componentType":5126,
			"count":14804,
			"type":"VEC2"
		},
		{
			"bufferView":3,
			"componentType":5123,
			"count":48438,
			"type":"SCALAR"
		}
	],
	"bufferViews":[
		{
			"buffer":0,
			"byteLength":177648,
			"byteOffset":0,
			"target":34962
		},
		{
			"buffer":0,
			"byteLength":177648,
			"byteOffset":177648,
			"target":34962
		},
		{
			"buffer":0,
			"byteLength":118432,
			"byteOffset":355296,
			"target":34962
		},
		{
			"buffer":0,
			"byteLength":96876,
			"byteOffset":473728,
			"target":34963
		}
	],
	"samplers":[
		{
			"magFilter":9729,
			"minFilter":9987
		}
	],
	"buffers":[
		{
			"byteLength":570604,
			"uri":"armillary_sphere.bin"
		}
	]
}
