{
	"asset":{
		"generator":"Khronos glTF Blender I/O v4.1.63",
		"version":"2.0"
	},
	"extensionsUsed":[
		"KHR_materials_specular",
		"KHR_materials_ior"
	],
	"scene":0,
	"scenes":[
		{
			"name":"Scene",
			"nodes":[
				0
			]
		}
	],
	"nodes":[
		{
			"mesh":0,
			"name":"Object_2",
			"rotation":[
				0.5555057525634766,
				0.5555055141448975,
				-0.43750837445259094,
				0.4375084340572357
			],
			"scale":[
				-0.005546300206333399,
				-0.008276495151221752,
				-0.005546298809349537
			],
			"translation":[
				0.0024868634063750505,
				0.0044002532958984375,
				-0.004154205322265625
			]
		}
	],
	"materials":[
		{
			"doubleSided":true,
			"extensions":{
				"KHR_materials_specular":{
					"specularFactor":0
				},
				"KHR_materials_ior":{
					"ior":1.4500000476837158
				}
			},
			"name":"Spiral",
			"pbrMetallicRoughness":{
				"baseColorFactor":[
					0.8001565933227539,
					0.33427757024765015,
					0.04617781937122345,
					1
				],
				"roughnessFactor":0.27165353298187256
			}
		}
	],
	"meshes":[
		{
			"name":"Object_0.001",
			"primitives":[
				{
					"attributes":{
						"POSITION":0,
						"NORMAL":1,
						"TEXCOORD_0":2
					},
					"indices":3,
					"material":0
				}
			]
		}
	],
	"accessors":[
		{
			"bufferView":0,
			"componentType":5126,
			"count":1532,
			"max":[
				1.9532421827316284,
				18.971797943115234,
				1.9542514085769653
			],
			"min":[
				-1.9508793354034424,
				-18.0086727142334,
				-1.9160019159317017
			],
			"type":"VEC3"
		},
		{
			"bufferView":1,
			"componentType":5126,
			"count":1532,
			"type":"VEC3"
		},
		{
			"bufferView":2,
			"componentType":5126,
			"count":1532,
			"type":"VEC2"
		},
		{
			"bufferView":3,
			"componentType":5123,
			"count":8346,
			"type":"SCALAR"
		}
	],
	"bufferViews":[
		{
			"buffer":0,
			"byteLength":18384,
			"byteOffset":0,
			"target":34962
		},
		{
			"buffer":0,
			"byteLength":18384,
			"byteOffset":18384,
			"target":34962
		},
		{
			"buffer":0,
			"byteLength":12256,
			"byteOffset":36768,
			"target":34962
		},
		{
			"buffer":0,
			"byteLength":16692,
			"byteOffset":49024,
			"target":34963
		}
	],
	"buffers":[
		{
			"byteLength":65716,
			"uri":"mdl_Robin_ScrapbookSpiral.bin"
		}
	]
}
