{
	"asset":{
		"generator":"Khronos glTF Blender I/O v4.1.63",
		"version":"2.0"
	},
	"scene":0,
	"scenes":[
		{
			"name":"Scene",
			"nodes":[
				3
			]
		}
	],
	"nodes":[
		{
			"mesh":0,
			"name":"defaultMaterial"
		},
		{
			"children":[
				0
			],
			"name":"g"
		},
		{
			"children":[
				1
			],
			"name":"Collada visual scene group",
			"rotation":[
				0.70710688829422,
				0,
				0,
				0.7071066498756409
			]
		},
		{
			"children":[
				2
			],
			"name":"Sketchfab_model",
			"rotation":[
				-0.70710688829422,
				0,
				0,
				0.7071066498756409
			],
			"translation":[
				-0.04325297474861145,
				0.3171052038669586,
				-0.505134642124176
			]
		}
	],
	"materials":[
		{
			"doubleSided":true,
			"name":"initialShadingGroup",
			"normalTexture":{
				"index":0
			},
			"pbrMetallicRoughness":{
				"baseColorTexture":{
					"index":1
				},
				"metallicRoughnessTexture":{
					"index":2
				}
			}
		}
	],
	"meshes":[
		{
			"name":"defaultMaterial",
			"primitives":[
				{
					"attributes":{
						"POSITION":0,
						"NORMAL":1,
						"TEXCOORD_0":2
					},
					"indices":3,
					"material":0
				}
			]
		}
	],
	"textures":[
		{
			"sampler":0,
			"source":0
		},
		{
			"sampler":0,
			"source":1
		},
		{
			"sampler":0,
			"source":2
		}
	],
	"images":[
		{
			"mimeType":"image/jpeg",
			"name":"initialShadingGroup_normal",
			"uri":"initialShadingGroup_normal.jpg"
		},
		{
			"mimeType":"image/jpeg",
			"name":"initialShadingGroup_baseColor",
			"uri":"initialShadingGroup_baseColor.jpg"
		},
		{
			"mimeType":"image/png",
			"name":"initialShadingGroup_metallicRoughness",
			"uri":"initialShadingGroup_metallicRoughness.png"
		}
	],
	"accessors":[
		{
			"bufferView":0,
			"componentType":5126,
			"count":1644,
			"max":[
				0.06514249742031097,
				-0.2947869896888733,
				1
			],
			"min":[
				-0.054916899651288986,
				-0.546966016292572,
				0.5046219825744629
			],
			"type":"VEC3"
		},
		{
			"bufferView":1,
			"componentType":5126,
			"count":1644,
			"type":"VEC3"
		},
		{
			"bufferView":2,
			"componentType":5126,
			"count":1644,
			"type":"VEC2"
		},
		{
			"bufferView":3,
			"componentType":5123,
			"count":7560,
			"type":"SCALAR"
		}
	],
	"bufferViews":[
		{
			"buffer":0,
			"byteLength":19728,
			"byteOffset":0,
			"target":34962
		},
		{
			"buffer":0,
			"byteLength":19728,
			"byteOffset":19728,
			"target":34962
		},
		{
			"buffer":0,
			"byteLength":13152,
			"byteOffset":39456,
			"target":34962
		},
		{
			"buffer":0,
			"byteLength":15120,
			"byteOffset":52608,
			"target":34963
		}
	],
	"samplers":[
		{
			"magFilter":9729,
			"minFilter":9987
		}
	],
	"buffers":[
		{
			"byteLength":67728,
			"uri":"crank.bin"
		}
	]
}
