{
	"asset":{
		"generator":"Khronos glTF Blender I/O v4.0.44",
		"version":"2.0"
	},
	"extensionsUsed":[
		"KHR_materials_specular"
	],
	"scene":0,
	"scenes":[
		{
			"name":"Scene",
			"nodes":[
				4
			]
		}
	],
	"nodes":[
		{
			"mesh":0,
			"name":"Object_4"
		},
		{
			"children":[
				0
			],
			"name":"Telescope_0"
		},
		{
			"children":[
				1
			],
			"name":"GLTF_SceneRootNode",
			"rotation":[
				0.70710688829422,
				0,
				0,
				0.7071066498756409
			]
		},
		{
			"children":[
				2
			],
			"name":"root"
		},
		{
			"children":[
				3
			],
			"name":"Sketchfab_model",
			"rotation":[
				-0.70710688829422,
				0,
				0,
				0.7071066498756409
			]
		}
	],
	"materials":[
		{
			"doubleSided":true,
			"extensions":{
				"KHR_materials_specular":{
					"specularColorTexture":{
						"index":0
					}
				}
			},
			"name":"Telescope-Material.003",
			"normalTexture":{
				"index":1
			},
			"pbrMetallicRoughness":{
				"baseColorTexture":{
					"index":2
				},
				"metallicRoughnessTexture":{
					"index":3
				}
			}
		}
	],
	"meshes":[
		{
			"name":"Object_0.035",
			"primitives":[
				{
					"attributes":{
						"POSITION":0,
						"NORMAL":1,
						"TEXCOORD_0":2,
						"TEXCOORD_1":3,
						"TEXCOORD_2":4,
						"TEXCOORD_3":5
					},
					"indices":6,
					"material":0
				}
			]
		}
	],
	"textures":[
		{
			"sampler":0,
			"source":0
		},
		{
			"sampler":0,
			"source":1
		},
		{
			"sampler":0,
			"source":2
		},
		{
			"sampler":0,
			"source":3
		}
	],
	"images":[
		{
			"mimeType":"image/png",
			"name":"Image",
			"uri":"Image.png"
		},
		{
			"mimeType":"image/png",
			"name":"Image_2",
			"uri":"Image_2.png"
		},
		{
			"mimeType":"image/jpeg",
			"name":"Image_0",
			"uri":"Image_0.jpg"
		},
		{
			"mimeType":"image/png",
			"name":"Image_1",
			"uri":"Image_1.png"
		}
	],
	"accessors":[
		{
			"bufferView":0,
			"componentType":5126,
			"count":13333,
			"max":[
				0.10684619843959808,
				0.24959354102611542,
				0.6788851618766785
			],
			"min":[
				-0.10684619843959808,
				-0.2538566291332245,
				-0.8233006000518799
			],
			"type":"VEC3"
		},
		{
			"bufferView":1,
			"componentType":5126,
			"count":13333,
			"type":"VEC3"
		},
		{
			"bufferView":2,
			"componentType":5126,
			"count":13333,
			"type":"VEC2"
		},
		{
			"bufferView":3,
			"componentType":5126,
			"count":13333,
			"type":"VEC2"
		},
		{
			"bufferView":4,
			"componentType":5126,
			"count":13333,
			"type":"VEC2"
		},
		{
			"bufferView":5,
			"componentType":5126,
			"count":13333,
			"type":"VEC2"
		},
		{
			"bufferView":6,
			"componentType":5123,
			"count":44586,
			"type":"SCALAR"
		}
	],
	"bufferViews":[
		{
			"buffer":0,
			"byteLength":159996,
			"byteOffset":0,
			"target":34962
		},
		{
			"buffer":0,
			"byteLength":159996,
			"byteOffset":159996,
			"target":34962
		},
		{
			"buffer":0,
			"byteLength":106664,
			"byteOffset":319992,
			"target":34962
		},
		{
			"buffer":0,
			"byteLength":106664,
			"byteOffset":426656,
			"target":34962
		},
		{
			"buffer":0,
			"byteLength":106664,
			"byteOffset":533320,
			"target":34962
		},
		{
			"buffer":0,
			"byteLength":106664,
			"byteOffset":639984,
			"target":34962
		},
		{
			"buffer":0,
			"byteLength":89172,
			"byteOffset":746648,
			"target":34963
		}
	],
	"samplers":[
		{
			"magFilter":9729,
			"minFilter":9987
		}
	],
	"buffers":[
		{
			"byteLength":835820,
			"uri":"vintage_telescope.bin"
		}
	]
}
