{
	"asset":{
		"generator":"Khronos glTF Blender I/O v4.1.63",
		"version":"2.0"
	},
	"extensionsUsed":[
		"KHR_materials_specular"
	],
	"scene":0,
	"scenes":[
		{
			"name":"Scene",
			"nodes":[
				8,
				9,
				10
			]
		}
	],
	"nodes":[
		{
			"name":"Western_Camel",
			"rotation":[
				0,
				1,
				0,
				3.45328800277489e-13
			],
			"scale":[
				99.99999237060547,
				99.99999237060547,
				99.99999237060547
			],
			"translation":[
				0,
				-0.001953125,
				0.00048828125
			]
		},
		{
			"children":[
				0
			],
			"name":"Geometry",
			"translation":[
				0,
				-0.001953125,
				0.00048828125
			]
		},
		{
			"name":"DeformationSystem",
			"translation":[
				0,
				-0.001953125,
				0.00048828125
			]
		},
		{
			"children":[
				2
			],
			"name":"Main",
			"translation":[
				0,
				-0.001953125,
				0.00048828125
			]
		},
		{
			"children":[
				1,
				3
			],
			"name":"WesternCamel",
			"translation":[
				0,
				-0.001953125,
				0.00048828125
			]
		},
		{
			"children":[
				4
			],
			"name":"RootNode",
			"translation":[
				0,
				-0.001953125,
				0.00048828125
			]
		},
		{
			"children":[
				5
			],
			"name":"Object_2",
			"translation":[
				0,
				-0.001953125,
				0.00048828125
			]
		},
		{
			"children":[
				6
			],
			"name":"f39b64a8c11c4ec3afc135656116d9fa.fbx",
			"rotation":[
				0.70710688829422,
				0,
				0,
				0.7071066498756409
			],
			"translation":[
				0,
				-0.00028347037732601166,
				-0.0011537685059010983
			]
		},
		{
			"children":[
				7
			],
			"name":"Sketchfab_model",
			"rotation":[
				-0.70710688829422,
				0,
				0,
				0.7071066498756409
			],
			"scale":[
				0.003223288105800748,
				0.0032232878729701042,
				0.0032232878729701042
			],
			"translation":[
				0.5382176637649536,
				52.370609283447266,
				-8.504993438720703
			]
		},
		{
			"name":"Object_11",
			"rotation":[
				0,
				1,
				0,
				3.453287460673804e-13
			],
			"scale":[
				33.978675842285156,
				33.978675842285156,
				33.978675842285156
			],
			"translation":[
				0.5382324457168579,
				52.370609283447266,
				-8.504993438720703
			]
		},
		{
			"mesh":0,
			"name":"Cylinder",
			"rotation":[
				-0.4868810176849365,
				0.5127835273742676,
				0.4868811070919037,
				0.5127834677696228
			],
			"scale":[
				15.163674354553223,
				13.074585914611816,
				19.412893295288086
			],
			"translation":[
				1.3930789232254028,
				58.769798278808594,
				1.3213789463043213
			]
		}
	],
	"materials":[
		{
			"doubleSided":true,
			"name":"GOLDnoletters",
			"pbrMetallicRoughness":{
				"baseColorFactor":[
					0.3346957266330719,
					0.14224810898303986,
					0.012387624010443687,
					1
				],
				"roughnessFactor":0.32677164673805237
			}
		},
		{
			"doubleSided":true,
			"extensions":{
				"KHR_materials_specular":{
					"specularFactor":0
				}
			},
			"name":"Material.002",
			"normalTexture":{
				"index":0
			},
			"pbrMetallicRoughness":{
				"baseColorTexture":{
					"index":1
				},
				"metallicFactor":0
			}
		},
		{
			"doubleSided":true,
			"name":"GOLD",
			"normalTexture":{
				"index":2,
				"scale":0.5
			},
			"pbrMetallicRoughness":{
				"baseColorTexture":{
					"index":3
				},
				"roughnessFactor":0.21653541922569275
			}
		}
	],
	"meshes":[
		{
			"name":"Cylinder",
			"primitives":[
				{
					"attributes":{
						"POSITION":0,
						"NORMAL":1,
						"TEXCOORD_0":2
					},
					"indices":3,
					"material":0
				},
				{
					"attributes":{
						"POSITION":4,
						"NORMAL":5,
						"TEXCOORD_0":6
					},
					"indices":7,
					"material":1
				},
				{
					"attributes":{
						"POSITION":8,
						"NORMAL":9,
						"TEXCOORD_0":10
					},
					"indices":11,
					"material":2
				}
			]
		}
	],
	"textures":[
		{
			"sampler":0,
			"source":0
		},
		{
			"sampler":0,
			"source":1
		},
		{
			"sampler":0,
			"source":2
		},
		{
			"sampler":0,
			"source":3
		}
	],
	"images":[
		{
			"mimeType":"image/png",
			"name":"txt_franch_oldstone_Normal",
			"uri":"textures/txt_franch_oldstone_Normal.png"
		},
		{
			"mimeType":"image/jpeg",
			"name":"txt_franch_oldstone",
			"uri":"textures/txt_franch_oldstone.jpg"
		},
		{
			"mimeType":"image/jpeg",
			"name":"txt_franch_PeruPlateNormal",
			"uri":"textures/txt_franch_PeruPlateNormal.jpg"
		},
		{
			"mimeType":"image/jpeg",
			"name":"txt_franch_PeruPlate",
			"uri":"textures/txt_franch_PeruPlate.jpg"
		}
	],
	"accessors":[
		{
			"bufferView":0,
			"componentType":5126,
			"count":312,
			"max":[
				1.310888409614563,
				2.922758102416992,
				1
			],
			"min":[
				-1.4992311000823975,
				-3.238102912902832,
				-4.302080154418945
			],
			"type":"VEC3"
		},
		{
			"bufferView":1,
			"componentType":5126,
			"count":312,
			"type":"VEC3"
		},
		{
			"bufferView":2,
			"componentType":5126,
			"count":312,
			"type":"VEC2"
		},
		{
			"bufferView":3,
			"componentType":5123,
			"count":732,
			"type":"SCALAR"
		},
		{
			"bufferView":4,
			"componentType":5126,
			"count":1131,
			"max":[
				1.525972604751587,
				3.1161460876464844,
				1.9810030460357666
			],
			"min":[
				-1.7097115516662598,
				-4.422085762023926,
				-4.537882328033447
			],
			"type":"VEC3"
		},
		{
			"bufferView":5,
			"componentType":5126,
			"count":1131,
			"type":"VEC3"
		},
		{
			"bufferView":6,
			"componentType":5126,
			"count":1131,
			"type":"VEC2"
		},
		{
			"bufferView":7,
			"componentType":5123,
			"count":2172,
			"type":"SCALAR"
		},
		{
			"bufferView":8,
			"componentType":5126,
			"count":32,
			"max":[
				1.3576807975769043,
				1.4922620058059692,
				-3.2204623222351074
			],
			"min":[
				0.8744997978210449,
				-1.7797341346740723,
				-4.01523494720459
			],
			"type":"VEC3"
		},
		{
			"bufferView":9,
			"componentType":5126,
			"count":32,
			"type":"VEC3"
		},
		{
			"bufferView":10,
			"componentType":5126,
			"count":32,
			"type":"VEC2"
		},
		{
			"bufferView":11,
			"componentType":5123,
			"count":60,
			"type":"SCALAR"
		}
	],
	"bufferViews":[
		{
			"buffer":0,
			"byteLength":3744,
			"byteOffset":0,
			"target":34962
		},
		{
			"buffer":0,
			"byteLength":3744,
			"byteOffset":3744,
			"target":34962
		},
		{
			"buffer":0,
			"byteLength":2496,
			"byteOffset":7488,
			"target":34962
		},
		{
			"buffer":0,
			"byteLength":1464,
			"byteOffset":9984,
			"target":34963
		},
		{
			"buffer":0,
			"byteLength":13572,
			"byteOffset":11448,
			"target":34962
		},
		{
			"buffer":0,
			"byteLength":13572,
			"byteOffset":25020,
			"target":34962
		},
		{
			"buffer":0,
			"byteLength":9048,
			"byteOffset":38592,
			"target":34962
		},
		{
			"buffer":0,
			"byteLength":4344,
			"byteOffset":47640,
			"target":34963
		},
		{
			"buffer":0,
			"byteLength":384,
			"byteOffset":51984,
			"target":34962
		},
		{
			"buffer":0,
			"byteLength":384,
			"byteOffset":52368,
			"target":34962
		},
		{
			"buffer":0,
			"byteLength":256,
			"byteOffset":52752,
			"target":34962
		},
		{
			"buffer":0,
			"byteLength":120,
			"byteOffset":53008,
			"target":34963
		}
	],
	"samplers":[
		{
			"magFilter":9729,
			"minFilter":9987
		}
	],
	"buffers":[
		{
			"byteLength":53128,
			"uri":"mdl_franch_Souvenir.bin"
		}
	]
}
