{
	"asset":{
		"generator":"Khronos glTF Blender I/O v4.1.63",
		"version":"2.0"
	},
	"extensionsUsed":[
		"KHR_materials_specular"
	],
	"scene":0,
	"scenes":[
		{
			"name":"Scene",
			"nodes":[
				0,
				1
			]
		}
	],
	"nodes":[
		{
			"mesh":0,
			"name":"Lp_Normal_Map_0",
			"rotation":[
				-0.7071070671081543,
				0,
				0,
				0.7071065306663513
			],
			"scale":[
				100,
				99.99996185302734,
				99.99996185302734
			]
		},
		{
			"mesh":1,
			"name":"Cube.001",
			"rotation":[
				0,
				-0.4769662618637085,
				0,
				0.878921627998352
			],
			"scale":[
				1,
				1.0136563777923584,
				1
			]
		}
	],
	"materials":[
		{
			"doubleSided":true,
			"extensions":{
				"KHR_materials_specular":{
					"specularFactor":0
				}
			},
			"name":"Normal_Map.001",
			"normalTexture":{
				"index":0
			},
			"pbrMetallicRoughness":{
				"baseColorTexture":{
					"index":1
				},
				"metallicFactor":0
			}
		},
		{
			"doubleSided":true,
			"extensions":{
				"KHR_materials_specular":{
					"specularFactor":0
				}
			},
			"name":"Material.001",
			"pbrMetallicRoughness":{
				"baseColorTexture":{
					"index":2
				},
				"metallicFactor":0
			}
		}
	],
	"meshes":[
		{
			"name":"Lp_Normal_Map_0.001",
			"primitives":[
				{
					"attributes":{
						"POSITION":0,
						"NORMAL":1,
						"TEXCOORD_0":2,
						"TEXCOORD_1":3,
						"TEXCOORD_2":4
					},
					"indices":5,
					"material":0
				}
			]
		},
		{
			"name":"Cube.002",
			"primitives":[
				{
					"attributes":{
						"POSITION":6,
						"NORMAL":7,
						"TEXCOORD_0":8
					},
					"indices":9,
					"material":1
				}
			]
		}
	],
	"textures":[
		{
			"sampler":0,
			"source":0
		},
		{
			"sampler":0,
			"source":1
		},
		{
			"sampler":0,
			"source":2
		}
	],
	"images":[
		{
			"mimeType":"image/png",
			"name":"txt_franch_cylinder_baseNormal",
			"uri":"textures/txt_franch_cylinder_baseNormal.png"
		},
		{
			"mimeType":"image/png",
			"name":"txt_franch_cylinder_base",
			"uri":"textures/txt_franch_cylinder_base.png"
		},
		{
			"mimeType":"image/jpeg",
			"name":"txt_franch_oldstone",
			"uri":"textures/txt_franch_oldstone.jpg"
		}
	],
	"accessors":[
		{
			"bufferView":0,
			"componentType":5126,
			"count":657,
			"max":[
				0.2994268536567688,
				0.29863810539245605,
				0.07500001043081284
			],
			"min":[
				-0.29943838715553284,
				-0.29849886894226074,
				-0.07500001043081284
			],
			"type":"VEC3"
		},
		{
			"bufferView":1,
			"componentType":5126,
			"count":657,
			"type":"VEC3"
		},
		{
			"bufferView":2,
			"componentType":5126,
			"count":657,
			"type":"VEC2"
		},
		{
			"bufferView":3,
			"componentType":5126,
			"count":657,
			"type":"VEC2"
		},
		{
			"bufferView":4,
			"componentType":5126,
			"count":657,
			"type":"VEC2"
		},
		{
			"bufferView":5,
			"componentType":5123,
			"count":2928,
			"type":"SCALAR"
		},
		{
			"bufferView":6,
			"componentType":5126,
			"count":96,
			"max":[
				30.02447509765625,
				7.3441548347473145,
				30.20425033569336
			],
			"min":[
				-30.187915802001953,
				-7.23773717880249,
				-30.034955978393555
			],
			"type":"VEC3"
		},
		{
			"bufferView":7,
			"componentType":5126,
			"count":96,
			"type":"VEC3"
		},
		{
			"bufferView":8,
			"componentType":5126,
			"count":96,
			"type":"VEC2"
		},
		{
			"bufferView":9,
			"componentType":5123,
			"count":144,
			"type":"SCALAR"
		}
	],
	"bufferViews":[
		{
			"buffer":0,
			"byteLength":7884,
			"byteOffset":0,
			"target":34962
		},
		{
			"buffer":0,
			"byteLength":7884,
			"byteOffset":7884,
			"target":34962
		},
		{
			"buffer":0,
			"byteLength":5256,
			"byteOffset":15768,
			"target":34962
		},
		{
			"buffer":0,
			"byteLength":5256,
			"byteOffset":21024,
			"target":34962
		},
		{
			"buffer":0,
			"byteLength":5256,
			"byteOffset":26280,
			"target":34962
		},
		{
			"buffer":0,
			"byteLength":5856,
			"byteOffset":31536,
			"target":34963
		},
		{
			"buffer":0,
			"byteLength":1152,
			"byteOffset":37392,
			"target":34962
		},
		{
			"buffer":0,
			"byteLength":1152,
			"byteOffset":38544,
			"target":34962
		},
		{
			"buffer":0,
			"byteLength":768,
			"byteOffset":39696,
			"target":34962
		},
		{
			"buffer":0,
			"byteLength":288,
			"byteOffset":40464,
			"target":34963
		}
	],
	"samplers":[
		{
			"magFilter":9729,
			"minFilter":9987
		}
	],
	"buffers":[
		{
			"byteLength":40752,
			"uri":"mdl_franch_snake_cylinder.bin"
		}
	]
}
