{
	"asset":{
		"generator":"Khronos glTF Blender I/O v4.1.63",
		"version":"2.0"
	},
	"extensionsUsed":[
		"KHR_materials_specular"
	],
	"scene":0,
	"scenes":[
		{
			"name":"Scene",
			"nodes":[
				0
			]
		}
	],
	"nodes":[
		{
			"mesh":0,
			"name":"Cylinder.001"
		}
	],
	"materials":[
		{
			"doubleSided":true,
			"extensions":{
				"KHR_materials_specular":{
					"specularFactor":0
				}
			},
			"name":"Material.001",
			"normalTexture":{
				"index":0
			},
			"pbrMetallicRoughness":{
				"baseColorTexture":{
					"index":1
				},
				"metallicFactor":0
			}
		}
	],
	"meshes":[
		{
			"name":"Cylinder.003",
			"primitives":[
				{
					"attributes":{
						"POSITION":0,
						"NORMAL":1,
						"TEXCOORD_0":2
					},
					"indices":3,
					"material":0
				}
			]
		}
	],
	"textures":[
		{
			"sampler":0,
			"source":0
		},
		{
			"sampler":0,
			"source":1
		}
	],
	"images":[
		{
			"mimeType":"image/png",
			"name":"txt_franch_oldstone_Normal",
			"uri":"textures/txt_franch_oldstone_Normal.png"
		},
		{
			"mimeType":"image/jpeg",
			"name":"txt_franch_oldstone",
			"uri":"textures/txt_franch_oldstone.jpg"
		}
	],
	"accessors":[
		{
			"bufferView":0,
			"componentType":5126,
			"count":198,
			"max":[
				0.3350546360015869,
				0.24955052137374878,
				0.9837611317634583
			],
			"min":[
				-0.6668128967285156,
				-0.25061970949172974,
				-1.0162389278411865
			],
			"type":"VEC3"
		},
		{
			"bufferView":1,
			"componentType":5126,
			"count":198,
			"type":"VEC3"
		},
		{
			"bufferView":2,
			"componentType":5126,
			"count":198,
			"type":"VEC2"
		},
		{
			"bufferView":3,
			"componentType":5123,
			"count":624,
			"type":"SCALAR"
		}
	],
	"bufferViews":[
		{
			"buffer":0,
			"byteLength":2376,
			"byteOffset":0,
			"target":34962
		},
		{
			"buffer":0,
			"byteLength":2376,
			"byteOffset":2376,
			"target":34962
		},
		{
			"buffer":0,
			"byteLength":1584,
			"byteOffset":4752,
			"target":34962
		},
		{
			"buffer":0,
			"byteLength":1248,
			"byteOffset":6336,
			"target":34963
		}
	],
	"samplers":[
		{
			"magFilter":9729,
			"minFilter":9987
		}
	],
	"buffers":[
		{
			"byteLength":7584,
			"uri":"mdl_franch_Snake_Half.bin"
		}
	]
}
