{
	"asset":{
		"generator":"Khronos glTF Blender I/O v4.1.63",
		"version":"2.0"
	},
	"extensionsUsed":[
		"KHR_materials_specular"
	],
	"scene":0,
	"scenes":[
		{
			"name":"Scene",
			"nodes":[
				0,
				1,
				2,
				3,
				4,
				5,
				6
			]
		}
	],
	"nodes":[
		{
			"mesh":0,
			"name":"top",
			"translation":[
				-0.22581756114959717,
				0.40943431854248047,
				-0.0033325988333672285
			]
		},
		{
			"mesh":1,
			"name":"goldedge"
		},
		{
			"mesh":2,
			"name":"symbols"
		},
		{
			"mesh":3,
			"name":"goldedge2",
			"translation":[
				-0.2799883186817169,
				0.7713308930397034,
				-0.8465484380722046
			]
		},
		{
			"mesh":4,
			"name":"goldedge2.001",
			"translation":[
				-0.2799883186817169,
				0.7713308930397034,
				-0.24116376042366028
			]
		},
		{
			"mesh":5,
			"name":"goldedge2.002",
			"translation":[
				-0.2799883186817169,
				0.7713308930397034,
				0.36421000957489014
			]
		},
		{
			"mesh":6,
			"name":"goldedge2.003",
			"translation":[
				-0.2799883186817169,
				0.7713308930397034,
				0.9695947766304016
			]
		}
	],
	"materials":[
		{
			"doubleSided":true,
			"extensions":{
				"KHR_materials_specular":{
					"specularFactor":0
				}
			},
			"name":"Material.002",
			"normalTexture":{
				"index":0
			},
			"pbrMetallicRoughness":{
				"baseColorTexture":{
					"index":1
				},
				"metallicFactor":0
			}
		},
		{
			"doubleSided":true,
			"extensions":{
				"KHR_materials_specular":{
					"specularFactor":0.7007874250411987
				}
			},
			"name":"metal",
			"pbrMetallicRoughness":{
				"baseColorFactor":[
					0.8003076910972595,
					0.4356294870376587,
					0.18434640765190125,
					1
				],
				"metallicFactor":0.874015748500824,
				"roughnessFactor":0.10629919916391373
			}
		},
		{
			"doubleSided":true,
			"extensions":{
				"KHR_materials_specular":{
					"specularFactor":0
				}
			},
			"name":"symbols",
			"normalTexture":{
				"index":2
			},
			"pbrMetallicRoughness":{
				"baseColorTexture":{
					"index":3
				},
				"metallicFactor":0
			}
		}
	],
	"meshes":[
		{
			"name":"Cube",
			"primitives":[
				{
					"attributes":{
						"POSITION":0,
						"NORMAL":1,
						"TEXCOORD_0":2
					},
					"indices":3,
					"material":0
				}
			]
		},
		{
			"name":"Cube.011",
			"primitives":[
				{
					"attributes":{
						"POSITION":4,
						"NORMAL":5,
						"TEXCOORD_0":6
					},
					"indices":7,
					"material":1
				}
			]
		},
		{
			"name":"Cube.012",
			"primitives":[
				{
					"attributes":{
						"POSITION":8,
						"NORMAL":9,
						"TEXCOORD_0":10
					},
					"indices":11,
					"material":2
				}
			]
		},
		{
			"name":"Cube.013",
			"primitives":[
				{
					"attributes":{
						"POSITION":12,
						"NORMAL":13,
						"TEXCOORD_0":14
					},
					"indices":15,
					"material":1
				}
			]
		},
		{
			"name":"Cube.017",
			"primitives":[
				{
					"attributes":{
						"POSITION":16,
						"NORMAL":17,
						"TEXCOORD_0":18
					},
					"indices":15,
					"material":1
				}
			]
		},
		{
			"name":"Cube.018",
			"primitives":[
				{
					"attributes":{
						"POSITION":19,
						"NORMAL":20,
						"TEXCOORD_0":21
					},
					"indices":15,
					"material":1
				}
			]
		},
		{
			"name":"Cube.019",
			"primitives":[
				{
					"attributes":{
						"POSITION":22,
						"NORMAL":23,
						"TEXCOORD_0":24
					},
					"indices":15,
					"material":1
				}
			]
		}
	],
	"textures":[
		{
			"sampler":0,
			"source":0
		},
		{
			"sampler":0,
			"source":1
		},
		{
			"sampler":0,
			"source":2
		},
		{
			"sampler":0,
			"source":3
		}
	],
	"images":[
		{
			"mimeType":"image/png",
			"name":"txt_franch_oldstone_Normal",
			"uri":"textures/txt_franch_oldstone_Normal.png"
		},
		{
			"mimeType":"image/jpeg",
			"name":"txt_franch_oldstone",
			"uri":"textures/txt_franch_oldstone.jpg"
		},
		{
			"mimeType":"image/jpeg",
			"name":"txt_franch_oldstone_condorsymbols_normal",
			"uri":"textures/txt_franch_oldstone_condorsymbols_normal.jpg"
		},
		{
			"mimeType":"image/jpeg",
			"name":"txt_franch_oldstone_condorsymbols",
			"uri":"textures/txt_franch_oldstone_condorsymbols.jpg"
		}
	],
	"accessors":[
		{
			"bufferView":0,
			"componentType":5126,
			"count":1360,
			"max":[
				0.8763079643249512,
				1.1821296215057373,
				1.430404782295227
			],
			"min":[
				-1.0892767906188965,
				-3.3263580799102783,
				-1.4237395524978638
			],
			"type":"VEC3"
		},
		{
			"bufferView":1,
			"componentType":5126,
			"count":1360,
			"type":"VEC3"
		},
		{
			"bufferView":2,
			"componentType":5126,
			"count":1360,
			"type":"VEC2"
		},
		{
			"bufferView":3,
			"componentType":5123,
			"count":3594,
			"type":"SCALAR"
		},
		{
			"bufferView":4,
			"componentType":5126,
			"count":40,
			"max":[
				0.48000746965408325,
				1.3884944915771484,
				1.2429203987121582
			],
			"min":[
				-1.1063385009765625,
				0.24632634222507477,
				-1.2429203987121582
			],
			"type":"VEC3"
		},
		{
			"bufferView":5,
			"componentType":5126,
			"count":40,
			"type":"VEC3"
		},
		{
			"bufferView":6,
			"componentType":5126,
			"count":40,
			"type":"VEC2"
		},
		{
			"bufferView":7,
			"componentType":5123,
			"count":144,
			"type":"SCALAR"
		},
		{
			"bufferView":8,
			"componentType":5126,
			"count":64,
			"max":[
				0.32363706827163696,
				1.179652452468872,
				1.1279228925704956
			],
			"min":[
				-0.8586822748184204,
				0.3283829092979431,
				-1.0057098865509033
			],
			"type":"VEC3"
		},
		{
			"bufferView":9,
			"componentType":5126,
			"count":64,
			"type":"VEC3"
		},
		{
			"bufferView":10,
			"componentType":5126,
			"count":64,
			"type":"VEC2"
		},
		{
			"bufferView":11,
			"componentType":5123,
			"count":168,
			"type":"SCALAR"
		},
		{
			"bufferView":12,
			"componentType":5126,
			"count":200,
			"max":[
				0.6036254167556763,
				0.4563654661178589,
				0.1591617465019226
			],
			"min":[
				-0.6132856607437134,
				-0.44294798374176025,
				-0.15916144847869873
			],
			"type":"VEC3"
		},
		{
			"bufferView":13,
			"componentType":5126,
			"count":200,
			"type":"VEC3"
		},
		{
			"bufferView":14,
			"componentType":5126,
			"count":200,
			"type":"VEC2"
		},
		{
			"bufferView":15,
			"componentType":5123,
			"count":576,
			"type":"SCALAR"
		},
		{
			"bufferView":16,
			"componentType":5126,
			"count":200,
			"max":[
				0.6036254167556763,
				0.4563654661178589,
				0.1591617465019226
			],
			"min":[
				-0.6132856607437134,
				-0.44294798374176025,
				-0.15916144847869873
			],
			"type":"VEC3"
		},
		{
			"bufferView":17,
			"componentType":5126,
			"count":200,
			"type":"VEC3"
		},
		{
			"bufferView":18,
			"componentType":5126,
			"count":200,
			"type":"VEC2"
		},
		{
			"bufferView":19,
			"componentType":5126,
			"count":200,
			"max":[
				0.6036254167556763,
				0.4563654661178589,
				0.1591617465019226
			],
			"min":[
				-0.6132856607437134,
				-0.44294798374176025,
				-0.15916144847869873
			],
			"type":"VEC3"
		},
		{
			"bufferView":20,
			"componentType":5126,
			"count":200,
			"type":"VEC3"
		},
		{
			"bufferView":21,
			"componentType":5126,
			"count":200,
			"type":"VEC2"
		},
		{
			"bufferView":22,
			"componentType":5126,
			"count":200,
			"max":[
				0.6036254167556763,
				0.4563654661178589,
				0.1591617465019226
			],
			"min":[
				-0.6132856607437134,
				-0.44294798374176025,
				-0.15916144847869873
			],
			"type":"VEC3"
		},
		{
			"bufferView":23,
			"componentType":5126,
			"count":200,
			"type":"VEC3"
		},
		{
			"bufferView":24,
			"componentType":5126,
			"count":200,
			"type":"VEC2"
		}
	],
	"bufferViews":[
		{
			"buffer":0,
			"byteLength":16320,
			"byteOffset":0,
			"target":34962
		},
		{
			"buffer":0,
			"byteLength":16320,
			"byteOffset":16320,
			"target":34962
		},
		{
			"buffer":0,
			"byteLength":10880,
			"byteOffset":32640,
			"target":34962
		},
		{
			"buffer":0,
			"byteLength":7188,
			"byteOffset":43520,
			"target":34963
		},
		{
			"buffer":0,
			"byteLength":480,
			"byteOffset":50708,
			"target":34962
		},
		{
			"buffer":0,
			"byteLength":480,
			"byteOffset":51188,
			"target":34962
		},
		{
			"buffer":0,
			"byteLength":320,
			"byteOffset":51668,
			"target":34962
		},
		{
			"buffer":0,
			"byteLength":288,
			"byteOffset":51988,
			"target":34963
		},
		{
			"buffer":0,
			"byteLength":768,
			"byteOffset":52276,
			"target":34962
		},
		{
			"buffer":0,
			"byteLength":768,
			"byteOffset":53044,
			"target":34962
		},
		{
			"buffer":0,
			"byteLength":512,
			"byteOffset":53812,
			"target":34962
		},
		{
			"buffer":0,
			"byteLength":336,
			"byteOffset":54324,
			"target":34963
		},
		{
			"buffer":0,
			"byteLength":2400,
			"byteOffset":54660,
			"target":34962
		},
		{
			"buffer":0,
			"byteLength":2400,
			"byteOffset":57060,
			"target":34962
		},
		{
			"buffer":0,
			"byteLength":1600,
			"byteOffset":59460,
			"target":34962
		},
		{
			"buffer":0,
			"byteLength":1152,
			"byteOffset":61060,
			"target":34963
		},
		{
			"buffer":0,
			"byteLength":2400,
			"byteOffset":62212,
			"target":34962
		},
		{
			"buffer":0,
			"byteLength":2400,
			"byteOffset":64612,
			"target":34962
		},
		{
			"buffer":0,
			"byteLength":1600,
			"byteOffset":67012,
			"target":34962
		},
		{
			"buffer":0,
			"byteLength":2400,
			"byteOffset":68612,
			"target":34962
		},
		{
			"buffer":0,
			"byteLength":2400,
			"byteOffset":71012,
			"target":34962
		},
		{
			"buffer":0,
			"byteLength":1600,
			"byteOffset":73412,
			"target":34962
		},
		{
			"buffer":0,
			"byteLength":2400,
			"byteOffset":75012,
			"target":34962
		},
		{
			"buffer":0,
			"byteLength":2400,
			"byteOffset":77412,
			"target":34962
		},
		{
			"buffer":0,
			"byteLength":1600,
			"byteOffset":79812,
			"target":34962
		}
	],
	"samplers":[
		{
			"magFilter":9729,
			"minFilter":9987
		}
	],
	"buffers":[
		{
			"byteLength":81412,
			"uri":"mdl_franch_CondorInterface_Top.bin"
		}
	]
}
