{
	"asset":{
		"generator":"Khronos glTF Blender I/O v4.1.63",
		"version":"2.0"
	},
	"extensionsUsed":[
		"KHR_materials_specular"
	],
	"scene":0,
	"scenes":[
		{
			"name":"Scene",
			"nodes":[
				0
			]
		}
	],
	"nodes":[
		{
			"mesh":0,
			"name":"head",
			"rotation":[
				-0.000788068282417953,
				0.003059633309021592,
				-0.9999740719795227,
				0.006470848340541124
			],
			"scale":[
				0.026656145229935646,
				0.026842337101697922,
				0.02665603905916214
			],
			"translation":[
				0.09170687198638916,
				0.01649099588394165,
				0.07285357266664505
			]
		}
	],
	"materials":[
		{
			"doubleSided":true,
			"extensions":{
				"KHR_materials_specular":{
					"specularFactor":0
				}
			},
			"name":"Material.001",
			"normalTexture":{
				"index":0
			},
			"pbrMetallicRoughness":{
				"baseColorTexture":{
					"index":1
				},
				"metallicFactor":0
			}
		}
	],
	"meshes":[
		{
			"name":"pPlane15_snake_statue_0.002",
			"primitives":[
				{
					"attributes":{
						"POSITION":0,
						"NORMAL":1,
						"TEXCOORD_0":2
					},
					"indices":3,
					"material":0
				}
			]
		}
	],
	"textures":[
		{
			"sampler":0,
			"source":0
		},
		{
			"sampler":0,
			"source":1
		}
	],
	"images":[
		{
			"mimeType":"image/png",
			"name":"txt_franch_oldstone_Normal",
			"uri":"textures/txt_franch_oldstone_Normal.png"
		},
		{
			"mimeType":"image/jpeg",
			"name":"txt_franch_oldstone",
			"uri":"textures/txt_franch_oldstone.jpg"
		}
	],
	"accessors":[
		{
			"bufferView":0,
			"componentType":5126,
			"count":1928,
			"max":[
				39.501365661621094,
				11.677935600280762,
				25.425249099731445
			],
			"min":[
				-20.654029846191406,
				-11.677935600280762,
				-17.69442367553711
			],
			"type":"VEC3"
		},
		{
			"bufferView":1,
			"componentType":5126,
			"count":1928,
			"type":"VEC3"
		},
		{
			"bufferView":2,
			"componentType":5126,
			"count":1928,
			"type":"VEC2"
		},
		{
			"bufferView":3,
			"componentType":5123,
			"count":4242,
			"type":"SCALAR"
		}
	],
	"bufferViews":[
		{
			"buffer":0,
			"byteLength":23136,
			"byteOffset":0,
			"target":34962
		},
		{
			"buffer":0,
			"byteLength":23136,
			"byteOffset":23136,
			"target":34962
		},
		{
			"buffer":0,
			"byteLength":15424,
			"byteOffset":46272,
			"target":34962
		},
		{
			"buffer":0,
			"byteLength":8484,
			"byteOffset":61696,
			"target":34963
		}
	],
	"samplers":[
		{
			"magFilter":9729,
			"minFilter":9987
		}
	],
	"buffers":[
		{
			"byteLength":70180,
			"uri":"mdl_franch_Snake_Head.bin"
		}
	]
}
