{
	"asset":{
		"generator":"Khronos glTF Blender I/O v3.6.27",
		"version":"2.0"
	},
	"extensionsUsed":[
		"KHR_materials_specular"
	],
	"scene":0,
	"scenes":[
		{
			"name":"Scene",
			"nodes":[
				0
			]
		}
	],
	"nodes":[
		{
			"mesh":0,
			"name":"testpuma"
		}
	],
	"materials":[
		{
			"doubleSided":true,
			"extensions":{
				"KHR_materials_specular":{
					"specularColorTexture":{
						"index":0
					},
					"specularColorFactor":[
						1.0677965879440305,
						1,
						1
					]
				}
			},
			"name":"Material.001",
			"normalTexture":{
				"index":1
			},
			"pbrMetallicRoughness":{
				"baseColorTexture":{
					"index":2
				},
				"metallicFactor":0
			}
		}
	],
	"meshes":[
		{
			"name":"pPlane15_snake_statue_0.009",
			"primitives":[
				{
					"attributes":{
						"POSITION":0,
						"NORMAL":1,
						"TEXCOORD_0":2
					},
					"indices":3,
					"material":0
				}
			]
		}
	],
	"textures":[
		{
			"sampler":0,
			"source":0
		},
		{
			"sampler":0,
			"source":1
		},
		{
			"sampler":0,
			"source":2
		}
	],
	"images":[
		{
			"mimeType":"image/png",
			"name":"Image",
			"uri":"Image.png"
		},
		{
			"mimeType":"image/png",
			"name":"txt_franch_oldstone_Normal",
			"uri":"textures/txt_franch_oldstone_Normal.png"
		},
		{
			"mimeType":"image/jpeg",
			"name":"txt_franch_oldstone",
			"uri":"textures/txt_franch_oldstone.jpg"
		}
	],
	"accessors":[
		{
			"bufferView":0,
			"componentType":5126,
			"count":3959,
			"max":[
				1.1755657196044922,
				1.2409746646881104,
				0.7834141254425049
			],
			"min":[
				-1.9075170755386353,
				-0.036759376525878906,
				-0.8199650049209595
			],
			"type":"VEC3"
		},
		{
			"bufferView":1,
			"componentType":5126,
			"count":3959,
			"type":"VEC3"
		},
		{
			"bufferView":2,
			"componentType":5126,
			"count":3959,
			"type":"VEC2"
		},
		{
			"bufferView":3,
			"componentType":5123,
			"count":9891,
			"type":"SCALAR"
		}
	],
	"bufferViews":[
		{
			"buffer":0,
			"byteLength":47508,
			"byteOffset":0,
			"target":34962
		},
		{
			"buffer":0,
			"byteLength":47508,
			"byteOffset":47508,
			"target":34962
		},
		{
			"buffer":0,
			"byteLength":31672,
			"byteOffset":95016,
			"target":34962
		},
		{
			"buffer":0,
			"byteLength":19782,
			"byteOffset":126688,
			"target":34963
		}
	],
	"samplers":[
		{
			"magFilter":9729,
			"minFilter":9987
		}
	],
	"buffers":[
		{
			"byteLength":146472,
			"uri":"mdl_franch_Meta_Puma.bin"
		}
	]
}
