{
	"asset":{
		"generator":"Khronos glTF Blender I/O v4.1.63",
		"version":"2.0"
	},
	"extensionsUsed":[
		"KHR_materials_specular"
	],
	"scene":0,
	"scenes":[
		{
			"name":"Scene",
			"nodes":[
				0,
				1,
				2
			]
		}
	],
	"nodes":[
		{
			"mesh":0,
			"name":"BasePlinth"
		},
		{
			"mesh":1,
			"name":"CHAKANA"
		},
		{
			"mesh":2,
			"name":"Plane",
			"rotation":[
				0,
				-0.7071068286895752,
				0.7071068286895752,
				3.122524461218745e-08
			],
			"scale":[
				1.413926124572754,
				1.413926124572754,
				1.4362763166427612
			],
			"translation":[
				-0.02373613975942135,
				2.4743778705596924,
				-0.08042535185813904
			]
		}
	],
	"materials":[
		{
			"doubleSided":true,
			"extensions":{
				"KHR_materials_specular":{
					"specularFactor":0
				}
			},
			"name":"Material.001",
			"normalTexture":{
				"index":0
			},
			"pbrMetallicRoughness":{
				"baseColorTexture":{
					"index":1
				},
				"metallicFactor":0
			}
		},
		{
			"alphaMode":"BLEND",
			"doubleSided":true,
			"extensions":{
				"KHR_materials_specular":{
					"specularFactor":0
				}
			},
			"name":"Material.002",
			"pbrMetallicRoughness":{
				"baseColorTexture":{
					"index":2
				},
				"metallicFactor":0
			}
		}
	],
	"meshes":[
		{
			"name":"Cube.001",
			"primitives":[
				{
					"attributes":{
						"POSITION":0,
						"NORMAL":1,
						"TEXCOORD_0":2
					},
					"indices":3,
					"material":0
				}
			]
		},
		{
			"name":"Cube",
			"primitives":[
				{
					"attributes":{
						"POSITION":4,
						"NORMAL":5,
						"TEXCOORD_0":6
					},
					"indices":7,
					"material":0
				}
			]
		},
		{
			"name":"Plane",
			"primitives":[
				{
					"attributes":{
						"POSITION":8,
						"NORMAL":9,
						"TEXCOORD_0":10
					},
					"indices":11,
					"material":1
				}
			]
		}
	],
	"textures":[
		{
			"sampler":0,
			"source":0
		},
		{
			"sampler":0,
			"source":1
		},
		{
			"sampler":0,
			"source":2
		}
	],
	"images":[
		{
			"mimeType":"image/png",
			"name":"txt_franch_oldstone_Normal",
			"uri":"textures/txt_franch_oldstone_Normal.png"
		},
		{
			"mimeType":"image/jpeg",
			"name":"txt_franch_oldstone",
			"uri":"textures/txt_franch_oldstone.jpg"
		},
		{
			"mimeType":"image/png",
			"name":"txt_franch_chakana_texture",
			"uri":"textures/txt_franch_chakana_texture.png"
		}
	],
	"accessors":[
		{
			"bufferView":0,
			"componentType":5126,
			"count":684,
			"max":[
				1.1004388332366943,
				0.3784154951572418,
				1.1009517908096313
			],
			"min":[
				-1.1015605926513672,
				-0.5753744840621948,
				-1.100388765335083
			],
			"type":"VEC3"
		},
		{
			"bufferView":1,
			"componentType":5126,
			"count":684,
			"type":"VEC3"
		},
		{
			"bufferView":2,
			"componentType":5126,
			"count":684,
			"type":"VEC2"
		},
		{
			"bufferView":3,
			"componentType":5123,
			"count":1242,
			"type":"SCALAR"
		},
		{
			"bufferView":4,
			"componentType":5126,
			"count":1616,
			"max":[
				1.4902291297912598,
				3.96101975440979,
				0.33711832761764526
			],
			"min":[
				-1.5097708702087402,
				0.3116607666015625,
				-0.19488732516765594
			],
			"type":"VEC3"
		},
		{
			"bufferView":5,
			"componentType":5126,
			"count":1616,
			"type":"VEC3"
		},
		{
			"bufferView":6,
			"componentType":5126,
			"count":1616,
			"type":"VEC2"
		},
		{
			"bufferView":7,
			"componentType":5123,
			"count":3888,
			"type":"SCALAR"
		},
		{
			"bufferView":8,
			"componentType":5126,
			"count":4,
			"max":[
				1,
				0,
				1
			],
			"min":[
				-1,
				0,
				-1
			],
			"type":"VEC3"
		},
		{
			"bufferView":9,
			"componentType":5126,
			"count":4,
			"type":"VEC3"
		},
		{
			"bufferView":10,
			"componentType":5126,
			"count":4,
			"type":"VEC2"
		},
		{
			"bufferView":11,
			"componentType":5123,
			"count":6,
			"type":"SCALAR"
		}
	],
	"bufferViews":[
		{
			"buffer":0,
			"byteLength":8208,
			"byteOffset":0,
			"target":34962
		},
		{
			"buffer":0,
			"byteLength":8208,
			"byteOffset":8208,
			"target":34962
		},
		{
			"buffer":0,
			"byteLength":5472,
			"byteOffset":16416,
			"target":34962
		},
		{
			"buffer":0,
			"byteLength":2484,
			"byteOffset":21888,
			"target":34963
		},
		{
			"buffer":0,
			"byteLength":19392,
			"byteOffset":24372,
			"target":34962
		},
		{
			"buffer":0,
			"byteLength":19392,
			"byteOffset":43764,
			"target":34962
		},
		{
			"buffer":0,
			"byteLength":12928,
			"byteOffset":63156,
			"target":34962
		},
		{
			"buffer":0,
			"byteLength":7776,
			"byteOffset":76084,
			"target":34963
		},
		{
			"buffer":0,
			"byteLength":48,
			"byteOffset":83860,
			"target":34962
		},
		{
			"buffer":0,
			"byteLength":48,
			"byteOffset":83908,
			"target":34962
		},
		{
			"buffer":0,
			"byteLength":32,
			"byteOffset":83956,
			"target":34962
		},
		{
			"buffer":0,
			"byteLength":12,
			"byteOffset":83988,
			"target":34963
		}
	],
	"samplers":[
		{
			"magFilter":9729,
			"minFilter":9987
		}
	],
	"buffers":[
		{
			"byteLength":84000,
			"uri":"mdl_franch_Meta_ChakanaBase.bin"
		}
	]
}
