{
	"asset":{
		"generator":"Khronos glTF Blender I/O v4.1.63",
		"version":"2.0"
	},
	"extensionsUsed":[
		"KHR_materials_specular",
		"KHR_materials_ior"
	],
	"scene":0,
	"scenes":[
		{
			"name":"Scene",
			"nodes":[
				0,
				1
			]
		}
	],
	"nodes":[
		{
			"mesh":0,
			"name":"interior"
		},
		{
			"mesh":1,
			"name":"exterior"
		}
	],
	"materials":[
		{
			"doubleSided":true,
			"extensions":{
				"KHR_materials_specular":{
					"specularFactor":0
				},
				"KHR_materials_ior":{
					"ior":1.4500000476837158
				}
			},
			"name":"Material",
			"normalTexture":{
				"index":0,
				"scale":0.699999988079071
			},
			"pbrMetallicRoughness":{
				"baseColorTexture":{
					"index":1
				},
				"metallicFactor":0
			}
		},
		{
			"alphaMode":"BLEND",
			"doubleSided":true,
			"extensions":{
				"KHR_materials_specular":{
					"specularFactor":0
				},
				"KHR_materials_ior":{
					"ior":1.4500000476837158
				}
			},
			"name":"outsideprint",
			"normalTexture":{
				"index":2,
				"scale":0.5
			},
			"pbrMetallicRoughness":{
				"baseColorTexture":{
					"index":3
				},
				"metallicFactor":0
			}
		}
	],
	"meshes":[
		{
			"name":"Cube.004",
			"primitives":[
				{
					"attributes":{
						"POSITION":0,
						"NORMAL":1,
						"TEXCOORD_0":2
					},
					"indices":3,
					"material":0
				}
			]
		},
		{
			"name":"Cube.005",
			"primitives":[
				{
					"attributes":{
						"POSITION":4,
						"NORMAL":5,
						"TEXCOORD_0":6
					},
					"indices":7,
					"material":1
				}
			]
		}
	],
	"textures":[
		{
			"sampler":0,
			"source":0
		},
		{
			"sampler":0,
			"source":1
		},
		{
			"sampler":0,
			"source":2
		},
		{
			"sampler":0,
			"source":3
		}
	],
	"images":[
		{
			"mimeType":"image/png",
			"name":"txt_franch_oldstone_Normal",
			"uri":"textures/txt_franch_oldstone_Normal.png"
		},
		{
			"mimeType":"image/jpeg",
			"name":"txt_franch_oldstone",
			"uri":"textures/txt_franch_oldstone.jpg"
		},
		{
			"mimeType":"image/png",
			"name":"txt_franch_yupana_exterior_Normal",
			"uri":"textures/txt_franch_yupana_exterior_Normal.png"
		},
		{
			"mimeType":"image/png",
			"name":"txt_franch_yupana_exterior",
			"uri":"textures/txt_franch_yupana_exterior.png"
		}
	],
	"accessors":[
		{
			"bufferView":0,
			"componentType":5126,
			"count":3120,
			"max":[
				12.5,
				4.112940788269043,
				1.7000000476837158
			],
			"min":[
				-1.7000000476837158,
				-0.6582866907119751,
				-15.199999809265137
			],
			"type":"VEC3"
		},
		{
			"bufferView":1,
			"componentType":5126,
			"count":3120,
			"type":"VEC3"
		},
		{
			"bufferView":2,
			"componentType":5126,
			"count":3120,
			"type":"VEC2"
		},
		{
			"bufferView":3,
			"componentType":5123,
			"count":7014,
			"type":"SCALAR"
		},
		{
			"bufferView":4,
			"componentType":5126,
			"count":32,
			"max":[
				12.5,
				4.062941074371338,
				1.7000000476837158
			],
			"min":[
				-1.7000000476837158,
				-0.6082867383956909,
				-15.199999809265137
			],
			"type":"VEC3"
		},
		{
			"bufferView":5,
			"componentType":5126,
			"count":32,
			"type":"VEC3"
		},
		{
			"bufferView":6,
			"componentType":5126,
			"count":32,
			"type":"VEC2"
		},
		{
			"bufferView":7,
			"componentType":5123,
			"count":72,
			"type":"SCALAR"
		}
	],
	"bufferViews":[
		{
			"buffer":0,
			"byteLength":37440,
			"byteOffset":0,
			"target":34962
		},
		{
			"buffer":0,
			"byteLength":37440,
			"byteOffset":37440,
			"target":34962
		},
		{
			"buffer":0,
			"byteLength":24960,
			"byteOffset":74880,
			"target":34962
		},
		{
			"buffer":0,
			"byteLength":14028,
			"byteOffset":99840,
			"target":34963
		},
		{
			"buffer":0,
			"byteLength":384,
			"byteOffset":113868,
			"target":34962
		},
		{
			"buffer":0,
			"byteLength":384,
			"byteOffset":114252,
			"target":34962
		},
		{
			"buffer":0,
			"byteLength":256,
			"byteOffset":114636,
			"target":34962
		},
		{
			"buffer":0,
			"byteLength":144,
			"byteOffset":114892,
			"target":34963
		}
	],
	"samplers":[
		{
			"magFilter":9729,
			"minFilter":9987
		}
	],
	"buffers":[
		{
			"byteLength":115036,
			"uri":"mdl_franch_Yupana_Table.bin"
		}
	]
}
