{
	"asset":{
		"generator":"Khronos glTF Blender I/O v4.1.63",
		"version":"2.0"
	},
	"extensionsUsed":[
		"KHR_materials_specular"
	],
	"scene":0,
	"scenes":[
		{
			"name":"Scene",
			"nodes":[
				0
			]
		}
	],
	"nodes":[
		{
			"mesh":0,
			"name":"condor",
			"translation":[
				0.48128843307495117,
				1.7617928981781006,
				0.00025018284213729203
			]
		}
	],
	"materials":[
		{
			"doubleSided":true,
			"extensions":{
				"KHR_materials_specular":{
					"specularFactor":0
				}
			},
			"name":"Material.003",
			"normalTexture":{
				"index":0,
				"scale":0.6000000238418579
			},
			"pbrMetallicRoughness":{
				"baseColorTexture":{
					"index":1
				},
				"metallicFactor":0
			}
		}
	],
	"meshes":[
		{
			"name":"pPlane15_snake_statue_0.007",
			"primitives":[
				{
					"attributes":{
						"POSITION":0,
						"NORMAL":1,
						"TEXCOORD_0":2
					},
					"indices":3,
					"material":0
				}
			]
		}
	],
	"textures":[
		{
			"sampler":0,
			"source":0
		},
		{
			"sampler":0,
			"source":1
		}
	],
	"images":[
		{
			"mimeType":"image/png",
			"name":"txt_franch_oldstone_Normal",
			"uri":"textures/txt_franch_oldstone_Normal.png"
		},
		{
			"mimeType":"image/jpeg",
			"name":"txt_franch_oldstone",
			"uri":"textures/txt_franch_oldstone.jpg"
		}
	],
	"accessors":[
		{
			"bufferView":0,
			"componentType":5126,
			"count":1422,
			"max":[
				0.28679871559143066,
				0.23680639266967773,
				0.5321231484413147
			],
			"min":[
				-0.23319433629512787,
				-0.21557939052581787,
				-0.49895161390304565
			],
			"type":"VEC3"
		},
		{
			"bufferView":1,
			"componentType":5126,
			"count":1422,
			"type":"VEC3"
		},
		{
			"bufferView":2,
			"componentType":5126,
			"count":1422,
			"type":"VEC2"
		},
		{
			"bufferView":3,
			"componentType":5123,
			"count":3051,
			"type":"SCALAR"
		}
	],
	"bufferViews":[
		{
			"buffer":0,
			"byteLength":17064,
			"byteOffset":0,
			"target":34962
		},
		{
			"buffer":0,
			"byteLength":17064,
			"byteOffset":17064,
			"target":34962
		},
		{
			"buffer":0,
			"byteLength":11376,
			"byteOffset":34128,
			"target":34962
		},
		{
			"buffer":0,
			"byteLength":6102,
			"byteOffset":45504,
			"target":34963
		}
	],
	"samplers":[
		{
			"magFilter":9729,
			"minFilter":9987
		}
	],
	"buffers":[
		{
			"byteLength":51608,
			"uri":"mdl_franch_CondorInterface_BirdButton.bin"
		}
	]
}
