{
  "accessors": [
    {
      "bufferView": 2,
      "componentType": 5126,
      "count": 1176,
      "max": [
        5.022397994995117,
        4.547454833984375,
        31.2664794921875
      ],
      "min": [
        -4.547444820404053,
        -4.547451019287109,
        2.8610199933609692e-06
      ],
      "type": "VEC3"
    },
    {
      "bufferView": 2,
      "byteOffset": 14112,
      "componentType": 5126,
      "count": 1176,
      "max": [
        1.0,
        1.0,
        1.0
      ],
      "min": [
        -1.0,
        -1.0,
        -1.0
      ],
      "type": "VEC3"
    },
    {
      "bufferView": 1,
      "componentType": 5126,
      "count": 1176,
      "max": [
        0.9955443143844604,
        0.9963988065719604
      ],
      "min": [
        -0.9929196834564209,
        0.006256281863898039
      ],
      "type": "VEC2"
    },
    {
      "bufferView": 0,
      "componentType": 5125,
      "count": 2964,
      "type": "SCALAR"
    },
    {
      "bufferView": 2,
      "byteOffset": 28224,
      "componentType": 5126,
      "count": 203,
      "max": [
        3.0833280086517334,
        -0.08173180371522903,
        32.591548919677734
      ],
      "min": [
        -2.9508490562438965,
        -3.8353960514068604,
        23.943359375
      ],
      "type": "VEC3"
    },
    {
      "bufferView": 2,
      "byteOffset": 30660,
      "componentType": 5126,
      "count": 203,
      "max": [
        0.9978407025337219,
        0.9653043150901794,
        0.9566134810447693
      ],
      "min": [
        -0.9867933988571167,
        -0.9997245073318481,
        -0.990345299243927
      ],
      "type": "VEC3"
    },
    {
      "bufferView": 1,
      "byteOffset": 9408,
      "componentType": 5126,
      "count": 203,
      "max": [
        0.9924619793891907,
        0.9217516779899597
      ],
      "min": [
        0.011535819619894028,
        0.019424740225076675
      ],
      "type": "VEC2"
    },
    {
      "bufferView": 0,
      "byteOffset": 11856,
      "componentType": 5125,
      "count": 633,
      "type": "SCALAR"
    },
    {
      "bufferView": 2,
      "byteOffset": 33096,
      "componentType": 5126,
      "count": 203,
      "max": [
        3.0833280086517334,
        -0.08173180371522903,
        32.591548919677734
      ],
      "min": [
        -2.9508490562438965,
        -3.8353960514068604,
        23.943359375
      ],
      "type": "VEC3"
    },
    {
      "bufferView": 2,
      "byteOffset": 35532,
      "componentType": 5126,
      "count": 203,
      "max": [
        0.9978407025337219,
        0.9653043150901794,
        0.9566134810447693
      ],
      "min": [
        -0.9867933988571167,
        -0.9997245073318481,
        -0.990345299243927
      ],
      "type": "VEC3"
    },
    {
      "bufferView": 1,
      "byteOffset": 11032,
      "componentType": 5126,
      "count": 203,
      "max": [
        0.9924619793891907,
        0.9217516779899597
      ],
      "min": [
        0.011535819619894028,
        0.019424740225076675
      ],
      "type": "VEC2"
    },
    {
      "bufferView": 0,
      "byteOffset": 14388,
      "componentType": 5125,
      "count": 633,
      "type": "SCALAR"
    },
    {
      "bufferView": 2,
      "byteOffset": 37968,
      "componentType": 5126,
      "count": 1176,
      "max": [
        5.022397994995117,
        4.547454833984375,
        31.2664794921875
      ],
      "min": [
        -4.547444820404053,
        -4.547451019287109,
        2.8610199933609692e-06
      ],
      "type": "VEC3"
    },
    {
      "bufferView": 2,
      "byteOffset": 52080,
      "componentType": 5126,
      "count": 1176,
      "max": [
        1.0,
        1.0,
        1.0
      ],
      "min": [
        -1.0,
        -1.0,
        -1.0
      ],
      "type": "VEC3"
    },
    {
      "bufferView": 1,
      "byteOffset": 12656,
      "componentType": 5126,
      "count": 1176,
      "max": [
        0.9955443143844604,
        0.9963988065719604
      ],
      "min": [
        -0.9929196834564209,
        0.006256281863898039
      ],
      "type": "VEC2"
    },
    {
      "bufferView": 0,
      "byteOffset": 16920,
      "componentType": 5125,
      "count": 2964,
      "type": "SCALAR"
    }
  ],
  "asset": {
    "extras": {
      "author": "naviogutierrezdavid (https://sketchfab.com/naviogutierrezdavid)",
      "license": "CC-BY-4.0 (http://creativecommons.org/licenses/by/4.0/)",
      "source": "https://sketchfab.com/3d-models/statue-of-liberty-0072553b7b8b4a5680e3f4cfd3f434f3",
      "title": "Statue Of Liberty"
    },
    "generator": "Sketchfab-15.42.0",
    "version": "2.0"
  },
  "bufferViews": [
    {
      "buffer": 0,
      "byteLength": 28776,
      "name": "floatBufferViews",
      "target": 34963
    },
    {
      "buffer": 0,
      "byteLength": 22064,
      "byteOffset": 28776,
      "byteStride": 8,
      "name": "floatBufferViews",
      "target": 34962
    },
    {
      "buffer": 0,
      "byteLength": 66192,
      "byteOffset": 50840,
      "byteStride": 12,
      "name": "floatBufferViews",
      "target": 34962
    }
  ],
  "buffers": [
    {
      "byteLength": 117032,
      "uri": "scene.bin"
    }
  ],
  "extensionsUsed": [
    "KHR_materials_specular"
  ],
  "images": [
    {
      "uri": "textures/mBody_baseColor.png"
    },
    {
      "uri": "textures/mBody_metallicRoughness.png"
    },
    {
      "uri": "textures/mBody_specularf0.png"
    }
  ],
  "materials": [
    {
      "doubleSided": true,
      "extensions": {
        "KHR_materials_specular": {
          "specularColorFactor": [
            1.0,
            1.0,
            1.0
          ],
          "specularFactor": 1.0,
          "specularTexture": {
            "index": 2
          }
        }
      },
      "name": "mBody",
      "pbrMetallicRoughness": {
        "baseColorTexture": {
          "index": 0
        },
        "metallicRoughnessTexture": {
          "index": 1
        }
      }
    },
    {
      "doubleSided": true,
      "extensions": {
        "KHR_materials_specular": {
          "specularColorFactor": [
            1.0,
            1.0,
            1.0
          ],
          "specularFactor": 1.0,
          "specularTexture": {
            "index": 2
          }
        }
      },
      "name": "mLight",
      "pbrMetallicRoughness": {
        "baseColorTexture": {
          "index": 0
        },
        "metallicRoughnessTexture": {
          "index": 1
        }
      }
    }
  ],
  "meshes": [
    {
      "name": "Object_0",
      "primitives": [
        {
          "attributes": {
            "NORMAL": 1,
            "POSITION": 0,
            "TEXCOORD_0": 2
          },
          "indices": 3,
          "material": 0,
          "mode": 4
        }
      ]
    },
    {
      "name": "Object_1",
      "primitives": [
        {
          "attributes": {
            "NORMAL": 5,
            "POSITION": 4,
            "TEXCOORD_0": 6
          },
          "indices": 7,
          "material": 1,
          "mode": 4
        }
      ]
    },
    {
      "name": "Object_2",
      "primitives": [
        {
          "attributes": {
            "NORMAL": 9,
            "POSITION": 8,
            "TEXCOORD_0": 10
          },
          "indices": 11,
          "material": 1,
          "mode": 4
        }
      ]
    },
    {
      "name": "Object_3",
      "primitives": [
        {
          "attributes": {
            "NORMAL": 13,
            "POSITION": 12,
            "TEXCOORD_0": 14
          },
          "indices": 15,
          "material": 0,
          "mode": 4
        }
      ]
    }
  ],
  "nodes": [
    {
      "children": [
        1
      ],
      "matrix": [
        1.0,
        0.0,
        0.0,
        0.0,
        0.0,
        2.220446049250313e-16,
        -1.0,
        0.0,
        0.0,
        1.0,
        2.220446049250313e-16,
        0.0,
        0.0,
        0.0,
        0.0,
        1.0
      ],
      "name": "Sketchfab_model"
    },
    {
      "children": [
        2,
        7
      ],
      "name": "Collada visual scene group"
    },
    {
      "children": [
        3,
        4,
        5,
        6
      ],
      "name": "Object_2"
    },
    {
      "mesh": 0,
      "name": "Object_3"
    },
    {
      "mesh": 1,
      "name": "Object_4"
    },
    {
      "mesh": 2,
      "name": "Object_5"
    },
    {
      "mesh": 3,
      "name": "Object_6"
    },
    {
      "children": [
        8
      ],
      "name": "EnvironmentAmbientLight"
    },
    {
      "name": "EnvironmentAmbientLight"
    }
  ],
  "samplers": [
    {
      "magFilter": 9729,
      "minFilter": 9987,
      "wrapS": 10497,
      "wrapT": 10497
    }
  ],
  "scene": 0,
  "scenes": [
    {
      "name": "Sketchfab_Scene",
      "nodes": [
        0
      ]
    }
  ],
  "textures": [
    {
      "sampler": 0,
      "source": 0
    },
    {
      "sampler": 0,
      "source": 1
    },
    {
      "sampler": 0,
      "source": 2
    }
  ]
}
