{
	"asset":{
		"generator":"Khronos glTF Blender I/O v4.0.44",
		"version":"2.0"
	},
	"extensionsUsed":[
		"KHR_materials_specular",
		"KHR_materials_ior"
	],
	"scene":0,
	"scenes":[
		{
			"name":"Scene",
			"nodes":[
				4,
				5
			]
		}
	],
	"nodes":[
		{
			"mesh":0,
			"name":"SM_Wig_01a_MI_Wig_01a_0",
			"scale":[
				0.48099997639656067,
				0.4480000138282776,
				0.3099999725818634
			],
			"translation":[
				0.10231184959411621,
				-1.894797682762146,
				14.296838760375977
			]
		},
		{
			"children":[
				0
			],
			"name":"SM_Wig_01a",
			"rotation":[
				-0.70710688829422,
				0,
				0,
				0.7071066498756409
			]
		},
		{
			"children":[
				1
			],
			"name":"RootNode"
		},
		{
			"children":[
				2
			],
			"name":"uploads_files_2348854_SM_Wig_01a.fbx",
			"rotation":[
				0.70710688829422,
				0,
				0,
				0.7071066498756409
			],
			"scale":[
				0.009999999776482582,
				0.009999999776482582,
				0.009999999776482582
			]
		},
		{
			"children":[
				3
			],
			"name":"Sketchfab_model"
		},
		{
			"mesh":1,
			"name":"Cube.173",
			"rotation":[
				0.7071068286895752,
				0,
				0,
				0.7071068286895752
			]
		}
	],
	"materials":[
		{
			"doubleSided":true,
			"name":"MI_Wig_01a",
			"normalTexture":{
				"index":0
			},
			"pbrMetallicRoughness":{
				"baseColorFactor":[
					0.3186003565788269,
					0.31853291392326355,
					0.3185238242149353,
					1
				],
				"metallicFactor":0,
				"roughnessFactor":0.75
			}
		},
		{
			"doubleSided":true,
			"extensions":{
				"KHR_materials_specular":{
					"specularFactor":0
				},
				"KHR_materials_ior":{
					"ior":1.4500000476837158
				}
			},
			"name":"Material.002",
			"pbrMetallicRoughness":{
				"baseColorFactor":[
					0.13289065659046173,
					0.13286253809928894,
					0.1328587383031845,
					1
				],
				"metallicFactor":0,
				"roughnessFactor":0.75
			}
		},
		{
			"doubleSided":true,
			"name":"Material.001",
			"pbrMetallicRoughness":{
				"baseColorTexture":{
					"index":1
				},
				"metallicFactor":0,
				"roughnessFactor":0.5
			}
		}
	],
	"meshes":[
		{
			"name":"SM_Wig_01a_MI_Wig_01a_0",
			"primitives":[
				{
					"attributes":{
						"POSITION":0,
						"NORMAL":1,
						"TEXCOORD_0":2,
						"TEXCOORD_1":3
					},
					"indices":4,
					"material":0
				},
				{
					"attributes":{
						"POSITION":5,
						"NORMAL":6,
						"TEXCOORD_0":7,
						"TEXCOORD_1":8
					},
					"indices":9,
					"material":1
				}
			]
		},
		{
			"name":"Cube.173",
			"primitives":[
				{
					"attributes":{
						"POSITION":10,
						"NORMAL":11,
						"TEXCOORD_0":12
					},
					"indices":13,
					"material":2
				}
			]
		}
	],
	"textures":[
		{
			"sampler":0,
			"source":0
		},
		{
			"sampler":0,
			"source":1
		}
	],
	"images":[
		{
			"mimeType":"image/png",
			"name":"tx_wollo_wig_n",
			"uri":"tx_wollo_wig_n.png"
		},
		{
			"mimeType":"image/png",
			"name":"tx_wollo_ducky",
			"uri":"tx_wollo_ducky.png"
		}
	],
	"accessors":[
		{
			"bufferView":0,
			"componentType":5126,
			"count":2823,
			"max":[
				11.76476764678955,
				16.720611572265625,
				3.488485336303711
			],
			"min":[
				-12.208541870117188,
				-11.260578155517578,
				-28.41100311279297
			],
			"type":"VEC3"
		},
		{
			"bufferView":1,
			"componentType":5126,
			"count":2823,
			"type":"VEC3"
		},
		{
			"bufferView":2,
			"componentType":5126,
			"count":2823,
			"type":"VEC2"
		},
		{
			"bufferView":3,
			"componentType":5126,
			"count":2823,
			"type":"VEC2"
		},
		{
			"bufferView":4,
			"componentType":5123,
			"count":14742,
			"type":"SCALAR"
		},
		{
			"bufferView":5,
			"componentType":5126,
			"count":78,
			"max":[
				2.3244049549102783,
				11.845260620117188,
				-16.57223129272461
			],
			"min":[
				-2.2516026496887207,
				8.610612869262695,
				-19.96569061279297
			],
			"type":"VEC3"
		},
		{
			"bufferView":6,
			"componentType":5126,
			"count":78,
			"type":"VEC3"
		},
		{
			"bufferView":7,
			"componentType":5126,
			"count":78,
			"type":"VEC2"
		},
		{
			"bufferView":8,
			"componentType":5126,
			"count":78,
			"type":"VEC2"
		},
		{
			"bufferView":9,
			"componentType":5123,
			"count":312,
			"type":"SCALAR"
		},
		{
			"bufferView":10,
			"componentType":5126,
			"count":825,
			"max":[
				0.07547871768474579,
				0.13591264188289642,
				0.12065748870372772
			],
			"min":[
				-0.07547872513532639,
				-0.05248891934752464,
				-0.09681493788957596
			],
			"type":"VEC3"
		},
		{
			"bufferView":11,
			"componentType":5126,
			"count":825,
			"type":"VEC3"
		},
		{
			"bufferView":12,
			"componentType":5126,
			"count":825,
			"type":"VEC2"
		},
		{
			"bufferView":13,
			"componentType":5123,
			"count":4320,
			"type":"SCALAR"
		}
	],
	"bufferViews":[
		{
			"buffer":0,
			"byteLength":33876,
			"byteOffset":0,
			"target":34962
		},
		{
			"buffer":0,
			"byteLength":33876,
			"byteOffset":33876,
			"target":34962
		},
		{
			"buffer":0,
			"byteLength":22584,
			"byteOffset":67752,
			"target":34962
		},
		{
			"buffer":0,
			"byteLength":22584,
			"byteOffset":90336,
			"target":34962
		},
		{
			"buffer":0,
			"byteLength":29484,
			"byteOffset":112920,
			"target":34963
		},
		{
			"buffer":0,
			"byteLength":936,
			"byteOffset":142404,
			"target":34962
		},
		{
			"buffer":0,
			"byteLength":936,
			"byteOffset":143340,
			"target":34962
		},
		{
			"buffer":0,
			"byteLength":624,
			"byteOffset":144276,
			"target":34962
		},
		{
			"buffer":0,
			"byteLength":624,
			"byteOffset":144900,
			"target":34962
		},
		{
			"buffer":0,
			"byteLength":624,
			"byteOffset":145524,
			"target":34963
		},
		{
			"buffer":0,
			"byteLength":9900,
			"byteOffset":146148,
			"target":34962
		},
		{
			"buffer":0,
			"byteLength":9900,
			"byteOffset":156048,
			"target":34962
		},
		{
			"buffer":0,
			"byteLength":6600,
			"byteOffset":165948,
			"target":34962
		},
		{
			"buffer":0,
			"byteLength":8640,
			"byteOffset":172548,
			"target":34963
		}
	],
	"samplers":[
		{
			"magFilter":9729,
			"minFilter":9987
		}
	],
	"buffers":[
		{
			"byteLength":181188,
			"uri":"mdl_wollo_ducky.bin"
		}
	]
}
