{
    "asset" : {
        "generator" : "Khronos glTF Blender I/O v3.2.43",
        "version" : "2.0"
    },
    "scene" : 0,
    "scenes" : [
        {
            "name" : "Scene",
            "nodes" : [
                8
            ]
        }
    ],
    "nodes" : [
        {
            "mesh" : 0,
            "name" : "Object_6"
        },
        {
            "children" : [
                0
            ],
            "name" : "00Retopo_stone_fountain.002_1",
            "translation" : [
                0,
                0.2253265678882599,
                0
            ]
        },
        {
            "name" : "PODA.001_3",
            "translation" : [
                0,
                0.008936464786529541,
                0
            ]
        },
        {
            "name" : "Sphere.001_2",
            "scale" : [
                1,
                0.30666863918304443,
                1
            ],
            "translation" : [
                0,
                -0.045176684856414795,
                0
            ]
        },
        {
            "name" : "stone_fountain.001_4",
            "scale" : [
                1.0056953430175781,
                0.8204872608184814,
                1.0056953430175781
            ],
            "translation" : [
                0,
                0.2253265678882599,
                0
            ]
        },
        {
            "name" : "voda.001_0",
            "scale" : [
                0.8022260069847107,
                0.4394954741001129,
                0.8022260069847107
            ],
            "translation" : [
                0,
                1.1607556343078613,
                0
            ]
        },
        {
            "children" : [
                1,
                2,
                3,
                4,
                5
            ],
            "name" : "GLTF_SceneRootNode",
            "rotation" : [
                0.70710688829422,
                0,
                0,
                0.7071066498756409
            ]
        },
        {
            "children" : [
                6
            ],
            "name" : "root"
        },
        {
            "children" : [
                7
            ],
            "name" : "Sketchfab_model",
            "rotation" : [
                -0.70710688829422,
                0,
                0,
                0.7071066498756409
            ]
        }
    ],
    "materials" : [
        {
            "doubleSided" : true,
            "name" : "baked_fountain1",
            "pbrMetallicRoughness" : {
                "baseColorTexture" : {
                    "index" : 0
                },
                "metallicFactor" : 0,
                "roughnessFactor" : 0.5
            }
        },
        {
            "doubleSided" : true,
            "name" : "Material.004",
            "pbrMetallicRoughness" : {
                "baseColorTexture" : {
                    "index" : 1
                },
                "metallicFactor" : 0,
                "roughnessFactor" : 0.5
            }
        },
        {
            "doubleSided" : true,
            "name" : "Material.003",
            "pbrMetallicRoughness" : {
                "baseColorTexture" : {
                    "index" : 2
                },
                "metallicFactor" : 0,
                "roughnessFactor" : 0.5
            }
        }
    ],
    "meshes" : [
        {
            "name" : "Object_1.003",
            "primitives" : [
                {
                    "attributes" : {
                        "POSITION" : 0,
                        "NORMAL" : 1,
                        "TEXCOORD_0" : 2,
                        "TEXCOORD_1" : 3
                    },
                    "indices" : 4,
                    "material" : 0
                },
                {
                    "attributes" : {
                        "POSITION" : 5,
                        "NORMAL" : 6,
                        "TEXCOORD_0" : 7,
                        "TEXCOORD_1" : 8
                    },
                    "indices" : 9,
                    "material" : 1
                },
                {
                    "attributes" : {
                        "POSITION" : 10,
                        "NORMAL" : 11,
                        "TEXCOORD_0" : 12,
                        "TEXCOORD_1" : 13
                    },
                    "indices" : 14,
                    "material" : 2
                }
            ]
        }
    ],
    "textures" : [
        {
            "sampler" : 0,
            "source" : 0
        },
        {
            "sampler" : 0,
            "source" : 1
        },
        {
            "sampler" : 0,
            "source" : 2
        }
    ],
    "images" : [
        {
            "mimeType" : "image/jpeg",
            "name" : "baked_fountain1_baseColor",
            "uri" : "baked_fountain1_baseColor.jpg"
        },
        {
            "mimeType" : "image/jpeg",
            "name" : "Material_004_baseColor",
            "uri" : "Material_004_baseColor.jpg"
        },
        {
            "mimeType" : "image/jpeg",
            "name" : "Material_003_baseColor",
            "uri" : "Material_003_baseColor.jpg"
        }
    ],
    "accessors" : [
        {
            "bufferView" : 0,
            "componentType" : 5126,
            "count" : 20986,
            "max" : [
                4.096855163574219,
                0.9933542013168335,
                3.47086763381958
            ],
            "min" : [
                -4.092032432556152,
                -0.23182125389575958,
                -4.304760456085205
            ],
            "type" : "VEC3"
        },
        {
            "bufferView" : 1,
            "componentType" : 5126,
            "count" : 20986,
            "type" : "VEC3"
        },
        {
            "bufferView" : 2,
            "componentType" : 5126,
            "count" : 20986,
            "type" : "VEC2"
        },
        {
            "bufferView" : 3,
            "componentType" : 5126,
            "count" : 20986,
            "type" : "VEC2"
        },
        {
            "bufferView" : 4,
            "componentType" : 5123,
            "count" : 28512,
            "type" : "SCALAR"
        },
        {
            "bufferView" : 5,
            "componentType" : 5126,
            "count" : 4110,
            "max" : [
                5.743714809417725,
                -0.21638980507850647,
                5.743715763092041
            ],
            "min" : [
                -5.743713855743408,
                -0.344014436006546,
                -5.743716716766357
            ],
            "type" : "VEC3"
        },
        {
            "bufferView" : 6,
            "componentType" : 5126,
            "count" : 4110,
            "type" : "VEC3"
        },
        {
            "bufferView" : 7,
            "componentType" : 5126,
            "count" : 4110,
            "type" : "VEC2"
        },
        {
            "bufferView" : 8,
            "componentType" : 5126,
            "count" : 4110,
            "type" : "VEC2"
        },
        {
            "bufferView" : 9,
            "componentType" : 5123,
            "count" : 6144,
            "type" : "SCALAR"
        },
        {
            "bufferView" : 10,
            "componentType" : 5126,
            "count" : 9595,
            "max" : [
                1.226253628730774,
                2.265228509902954,
                1.2262535095214844
            ],
            "min" : [
                -1.2262535095214844,
                0.44250375032424927,
                -1.2262535095214844
            ],
            "type" : "VEC3"
        },
        {
            "bufferView" : 11,
            "componentType" : 5126,
            "count" : 9595,
            "type" : "VEC3"
        },
        {
            "bufferView" : 12,
            "componentType" : 5126,
            "count" : 9595,
            "type" : "VEC2"
        },
        {
            "bufferView" : 13,
            "componentType" : 5126,
            "count" : 9595,
            "type" : "VEC2"
        },
        {
            "bufferView" : 14,
            "componentType" : 5123,
            "count" : 24492,
            "type" : "SCALAR"
        }
    ],
    "bufferViews" : [
        {
            "buffer" : 0,
            "byteLength" : 251832,
            "byteOffset" : 0
        },
        {
            "buffer" : 0,
            "byteLength" : 251832,
            "byteOffset" : 251832
        },
        {
            "buffer" : 0,
            "byteLength" : 167888,
            "byteOffset" : 503664
        },
        {
            "buffer" : 0,
            "byteLength" : 167888,
            "byteOffset" : 671552
        },
        {
            "buffer" : 0,
            "byteLength" : 57024,
            "byteOffset" : 839440
        },
        {
            "buffer" : 0,
            "byteLength" : 49320,
            "byteOffset" : 896464
        },
        {
            "buffer" : 0,
            "byteLength" : 49320,
            "byteOffset" : 945784
        },
        {
            "buffer" : 0,
            "byteLength" : 32880,
            "byteOffset" : 995104
        },
        {
            "buffer" : 0,
            "byteLength" : 32880,
            "byteOffset" : 1027984
        },
        {
            "buffer" : 0,
            "byteLength" : 12288,
            "byteOffset" : 1060864
        },
        {
            "buffer" : 0,
            "byteLength" : 115140,
            "byteOffset" : 1073152
        },
        {
            "buffer" : 0,
            "byteLength" : 115140,
            "byteOffset" : 1188292
        },
        {
            "buffer" : 0,
            "byteLength" : 76760,
            "byteOffset" : 1303432
        },
        {
            "buffer" : 0,
            "byteLength" : 76760,
            "byteOffset" : 1380192
        },
        {
            "buffer" : 0,
            "byteLength" : 48984,
            "byteOffset" : 1456952
        }
    ],
    "samplers" : [
        {
            "magFilter" : 9729,
            "minFilter" : 9987
        }
    ],
    "buffers" : [
        {
            "byteLength" : 1505936,
            "uri" : "fountain.bin"
        }
    ]
}
