{
	"asset":{
		"generator":"Khronos glTF Blender I/O v4.1.63",
		"version":"2.0"
	},
	"scene":0,
	"scenes":[
		{
			"name":"Scene",
			"nodes":[
				8
			]
		}
	],
	"nodes":[
		{
			"name":"Unsmoothed_00",
			"rotation":[
				-8.881784197001252e-16,
				1.7763568394002505e-15,
				5.293955920339377e-23,
				1
			]
		},
		{
			"name":"Smoothed_01",
			"rotation":[
				-8.881784197001252e-16,
				1.7763568394002505e-15,
				5.293955920339377e-23,
				1
			]
		},
		{
			"children":[
				0,
				1
			],
			"name":"_rootJoint",
			"rotation":[
				-8.557136332854043e-09,
				1.7114272665708086e-08,
				-2.928983286277023e-16,
				1
			]
		},
		{
			"mesh":0,
			"name":"Object_5",
			"skin":0
		},
		{
			"mesh":1,
			"name":"Object_6",
			"skin":0
		},
		{
			"children":[
				3,
				4,
				2
			],
			"name":"Object_3"
		},
		{
			"children":[
				5
			],
			"name":"RootNode"
		},
		{
			"children":[
				6
			],
			"name":"Peter Joseph Krahe - Draft - Palace 1792.fbx",
			"rotation":[
				0.70710688829422,
				0,
				0,
				0.7071066498756409
			]
		},
		{
			"children":[
				7
			],
			"name":"Sketchfab_model",
			"rotation":[
				-0.70710688829422,
				0,
				0,
				0.7071066498756409
			]
		}
	],
	"materials":[
		{
			"name":"genericEU",
			"pbrMetallicRoughness":{
				"baseColorTexture":{
					"index":0
				},
				"metallicFactor":0
			}
		},
		{
			"doubleSided":true,
			"name":"genericEU_0",
			"pbrMetallicRoughness":{
				"baseColorTexture":{
					"index":1
				},
				"metallicFactor":0
			}
		}
	],
	"meshes":[
		{
			"name":"U3DMesh_genericEU_0",
			"primitives":[
				{
					"attributes":{
						"POSITION":0,
						"NORMAL":1,
						"TEXCOORD_0":2,
						"TEXCOORD_1":3,
						"JOINTS_0":4,
						"WEIGHTS_0":5
					},
					"indices":6,
					"material":0
				}
			]
		},
		{
			"name":"U3DMesh_genericEU_0.001",
			"primitives":[
				{
					"attributes":{
						"POSITION":8,
						"NORMAL":9,
						"TEXCOORD_0":10,
						"TEXCOORD_1":11,
						"JOINTS_0":12,
						"WEIGHTS_0":13
					},
					"indices":14,
					"material":1
				}
			]
		}
	],
	"textures":[
		{
			"sampler":0,
			"source":0
		},
		{
			"sampler":0,
			"source":0
		}
	],
	"images":[
		{
			"mimeType":"image/png",
			"name":"genericEU_baseColor",
			"uri":"genericEU_baseColor.png"
		}
	],
	"skins":[
		{
			"inverseBindMatrices":7,
			"joints":[
				2,
				0,
				1
			],
			"name":"Object_3"
		}
	],
	"accessors":[
		{
			"bufferView":0,
			"componentType":5126,
			"count":10568,
			"max":[
				91.10107421875,
				65.39718627929688,
				62.64120864868164
			],
			"min":[
				-89.81535339355469,
				-47.987056732177734,
				-38.04155349731445
			],
			"type":"VEC3"
		},
		{
			"bufferView":1,
			"componentType":5126,
			"count":10568,
			"type":"VEC3"
		},
		{
			"bufferView":2,
			"componentType":5126,
			"count":10568,
			"type":"VEC2"
		},
		{
			"bufferView":3,
			"componentType":5126,
			"count":10568,
			"type":"VEC2"
		},
		{
			"bufferView":4,
			"componentType":5121,
			"count":10568,
			"type":"VEC4"
		},
		{
			"bufferView":5,
			"componentType":5126,
			"count":10568,
			"type":"VEC4"
		},
		{
			"bufferView":6,
			"componentType":5123,
			"count":17172,
			"type":"SCALAR"
		},
		{
			"bufferView":7,
			"componentType":5126,
			"count":3,
			"type":"MAT4"
		},
		{
			"bufferView":8,
			"componentType":5126,
			"count":1328,
			"max":[
				80.57151794433594,
				53.5223388671875,
				55.55938720703125
			],
			"min":[
				-79.15717315673828,
				-27.62887191772461,
				-7.934557914733887
			],
			"type":"VEC3"
		},
		{
			"bufferView":9,
			"componentType":5126,
			"count":1328,
			"type":"VEC3"
		},
		{
			"bufferView":10,
			"componentType":5126,
			"count":1328,
			"type":"VEC2"
		},
		{
			"bufferView":11,
			"componentType":5126,
			"count":1328,
			"type":"VEC2"
		},
		{
			"bufferView":12,
			"componentType":5121,
			"count":1328,
			"type":"VEC4"
		},
		{
			"bufferView":13,
			"componentType":5126,
			"count":1328,
			"type":"VEC4"
		},
		{
			"bufferView":14,
			"componentType":5123,
			"count":3384,
			"type":"SCALAR"
		}
	],
	"bufferViews":[
		{
			"buffer":0,
			"byteLength":126816,
			"byteOffset":0,
			"target":34962
		},
		{
			"buffer":0,
			"byteLength":126816,
			"byteOffset":126816,
			"target":34962
		},
		{
			"buffer":0,
			"byteLength":84544,
			"byteOffset":253632,
			"target":34962
		},
		{
			"buffer":0,
			"byteLength":84544,
			"byteOffset":338176,
			"target":34962
		},
		{
			"buffer":0,
			"byteLength":42272,
			"byteOffset":422720,
			"target":34962
		},
		{
			"buffer":0,
			"byteLength":169088,
			"byteOffset":464992,
			"target":34962
		},
		{
			"buffer":0,
			"byteLength":34344,
			"byteOffset":634080,
			"target":34963
		},
		{
			"buffer":0,
			"byteLength":192,
			"byteOffset":668424
		},
		{
			"buffer":0,
			"byteLength":15936,
			"byteOffset":668616,
			"target":34962
		},
		{
			"buffer":0,
			"byteLength":15936,
			"byteOffset":684552,
			"target":34962
		},
		{
			"buffer":0,
			"byteLength":10624,
			"byteOffset":700488,
			"target":34962
		},
		{
			"buffer":0,
			"byteLength":10624,
			"byteOffset":711112,
			"target":34962
		},
		{
			"buffer":0,
			"byteLength":5312,
			"byteOffset":721736,
			"target":34962
		},
		{
			"buffer":0,
			"byteLength":21248,
			"byteOffset":727048,
			"target":34962
		},
		{
			"buffer":0,
			"byteLength":6768,
			"byteOffset":748296,
			"target":34963
		}
	],
	"samplers":[
		{
			"magFilter":9729,
			"minFilter":9987
		}
	],
	"buffers":[
		{
			"byteLength":755064,
			"uri":"mdl_wollo_palace.bin"
		}
	]
}
