{
	"asset":{
		"generator":"Khronos glTF Blender I/O v4.3.47",
		"version":"2.0"
	},
	"extensionsUsed":[
		"KHR_materials_transmission",
		"KHR_materials_ior"
	],
	"scene":0,
	"scenes":[
		{
			"name":"Scene",
			"nodes":[
				0
			]
		}
	],
	"nodes":[
		{
			"mesh":0,
			"name":"mdl_zesty_room_pillar",
			"scale":[
				0.850348949432373,
				1,
				0.850348949432373
			]
		}
	],
	"materials":[
		{
			"doubleSided":true,
			"name":"wall-white",
			"pbrMetallicRoughness":{
				"baseColorFactor":[
					0.800000011920929,
					0.800000011920929,
					0.800000011920929,
					1
				],
				"metallicFactor":0,
				"roughnessFactor":0.800000011920929
			}
		},
		{
			"doubleSided":true,
			"name":"gold",
			"pbrMetallicRoughness":{
				"baseColorFactor":[
					0.8016340732574463,
					0.5009856224060059,
					0.032477349042892456,
					1
				],
				"roughnessFactor":0.10000000149011612
			}
		},
		{
			"doubleSided":true,
			"name":"gold-dark",
			"pbrMetallicRoughness":{
				"baseColorFactor":[
					0.28291746973991394,
					0.16348318755626678,
					0.019985130056738853,
					1
				],
				"roughnessFactor":0.10000000149011612
			}
		},
		{
			"doubleSided":true,
			"name":"brushed-chrome",
			"pbrMetallicRoughness":{
				"baseColorFactor":[
					0.800000011920929,
					0.800000011920929,
					0.800000011920929,
					1
				],
				"metallicFactor":0.800000011920929,
				"roughnessFactor":0.25
			}
		},
		{
			"doubleSided":true,
			"name":"concrete",
			"pbrMetallicRoughness":{
				"baseColorTexture":{
					"index":0
				},
				"metallicFactor":0,
				"roughnessFactor":0.8003799915313721
			}
		},
		{
			"doubleSided":true,
			"extensions":{
				"KHR_materials_transmission":{
					"transmissionFactor":0.949999988079071
				},
				"KHR_materials_ior":{
					"ior":1.4500000476837158
				}
			},
			"name":"glass",
			"pbrMetallicRoughness":{
				"metallicFactor":0,
				"roughnessFactor":0
			}
		}
	],
	"meshes":[
		{
			"name":"Circle.001",
			"primitives":[
				{
					"attributes":{
						"POSITION":0,
						"NORMAL":1,
						"TEXCOORD_0":2
					},
					"indices":3,
					"material":0
				},
				{
					"attributes":{
						"POSITION":4,
						"NORMAL":5,
						"TEXCOORD_0":6
					},
					"indices":7,
					"material":1
				},
				{
					"attributes":{
						"POSITION":8,
						"NORMAL":9,
						"TEXCOORD_0":10
					},
					"indices":11,
					"material":2
				},
				{
					"attributes":{
						"POSITION":12,
						"NORMAL":13,
						"TEXCOORD_0":14
					},
					"indices":15,
					"material":3
				},
				{
					"attributes":{
						"POSITION":16,
						"NORMAL":17,
						"TEXCOORD_0":18
					},
					"indices":19,
					"material":4
				},
				{
					"attributes":{
						"POSITION":20,
						"NORMAL":21,
						"TEXCOORD_0":22
					},
					"indices":23,
					"material":5
				}
			]
		}
	],
	"textures":[
		{
			"sampler":0,
			"source":0
		}
	],
	"images":[
		{
			"mimeType":"image/jpeg",
			"name":"1K-concratetile_3_basecolor",
			"uri":"1K-concratetile_3_basecolor.jpg"
		}
	],
	"accessors":[
		{
			"bufferView":0,
			"componentType":5126,
			"count":36,
			"max":[
				4.483705043792725,
				0.8456608057022095,
				6.154035568237305
			],
			"min":[
				-6.335041522979736,
				0.7830281257629395,
				-5.89818000793457
			],
			"type":"VEC3"
		},
		{
			"bufferView":1,
			"componentType":5126,
			"count":36,
			"type":"VEC3"
		},
		{
			"bufferView":2,
			"componentType":5126,
			"count":36,
			"type":"VEC2"
		},
		{
			"bufferView":3,
			"componentType":5123,
			"count":72,
			"type":"SCALAR"
		},
		{
			"bufferView":4,
			"componentType":5126,
			"count":256,
			"max":[
				0.8833813667297363,
				-0.01086452603340149,
				0.8833813071250916
			],
			"min":[
				-0.8833812475204468,
				-0.5089696645736694,
				-0.8833813667297363
			],
			"type":"VEC3"
		},
		{
			"bufferView":5,
			"componentType":5126,
			"count":256,
			"type":"VEC3"
		},
		{
			"bufferView":6,
			"componentType":5126,
			"count":256,
			"type":"VEC2"
		},
		{
			"bufferView":7,
			"componentType":5123,
			"count":384,
			"type":"SCALAR"
		},
		{
			"bufferView":8,
			"componentType":5126,
			"count":96,
			"max":[
				0.7372592091560364,
				-0.01086452603340149,
				0.7372591495513916
			],
			"min":[
				-0.7372592687606812,
				-0.5089696645736694,
				-0.7372592091560364
			],
			"type":"VEC3"
		},
		{
			"bufferView":9,
			"componentType":5126,
			"count":96,
			"type":"VEC3"
		},
		{
			"bufferView":10,
			"componentType":5126,
			"count":96,
			"type":"VEC2"
		},
		{
			"bufferView":11,
			"componentType":5123,
			"count":186,
			"type":"SCALAR"
		},
		{
			"bufferView":12,
			"componentType":5126,
			"count":1128,
			"max":[
				4.483705043792725,
				0.8456608057022095,
				6.154035568237305
			],
			"min":[
				-6.385214328765869,
				-0.39736658334732056,
				-5.89818000793457
			],
			"type":"VEC3"
		},
		{
			"bufferView":13,
			"componentType":5126,
			"count":1128,
			"type":"VEC3"
		},
		{
			"bufferView":14,
			"componentType":5126,
			"count":1128,
			"type":"VEC2"
		},
		{
			"bufferView":15,
			"componentType":5123,
			"count":2340,
			"type":"SCALAR"
		},
		{
			"bufferView":16,
			"componentType":5126,
			"count":876,
			"max":[
				3.4640469551086426,
				-0.4912433624267578,
				3.202670097351074
			],
			"min":[
				-2.1453561782836914,
				-32.10602569580078,
				-3.202670097351074
			],
			"type":"VEC3"
		},
		{
			"bufferView":17,
			"componentType":5126,
			"count":876,
			"type":"VEC3"
		},
		{
			"bufferView":18,
			"componentType":5126,
			"count":876,
			"type":"VEC2"
		},
		{
			"bufferView":19,
			"componentType":5123,
			"count":1512,
			"type":"SCALAR"
		},
		{
			"bufferView":20,
			"componentType":5126,
			"count":48,
			"max":[
				4.334766864776611,
				0.7540522813796997,
				5.961049556732178
			],
			"min":[
				-6.185489654541016,
				0.01100061647593975,
				-5.6939921379089355
			],
			"type":"VEC3"
		},
		{
			"bufferView":21,
			"componentType":5126,
			"count":48,
			"type":"VEC3"
		},
		{
			"bufferView":22,
			"componentType":5126,
			"count":48,
			"type":"VEC2"
		},
		{
			"bufferView":23,
			"componentType":5123,
			"count":72,
			"type":"SCALAR"
		}
	],
	"bufferViews":[
		{
			"buffer":0,
			"byteLength":432,
			"byteOffset":0,
			"target":34962
		},
		{
			"buffer":0,
			"byteLength":432,
			"byteOffset":432,
			"target":34962
		},
		{
			"buffer":0,
			"byteLength":288,
			"byteOffset":864,
			"target":34962
		},
		{
			"buffer":0,
			"byteLength":144,
			"byteOffset":1152,
			"target":34963
		},
		{
			"buffer":0,
			"byteLength":3072,
			"byteOffset":1296,
			"target":34962
		},
		{
			"buffer":0,
			"byteLength":3072,
			"byteOffset":4368,
			"target":34962
		},
		{
			"buffer":0,
			"byteLength":2048,
			"byteOffset":7440,
			"target":34962
		},
		{
			"buffer":0,
			"byteLength":768,
			"byteOffset":9488,
			"target":34963
		},
		{
			"buffer":0,
			"byteLength":1152,
			"byteOffset":10256,
			"target":34962
		},
		{
			"buffer":0,
			"byteLength":1152,
			"byteOffset":11408,
			"target":34962
		},
		{
			"buffer":0,
			"byteLength":768,
			"byteOffset":12560,
			"target":34962
		},
		{
			"buffer":0,
			"byteLength":372,
			"byteOffset":13328,
			"target":34963
		},
		{
			"buffer":0,
			"byteLength":13536,
			"byteOffset":13700,
			"target":34962
		},
		{
			"buffer":0,
			"byteLength":13536,
			"byteOffset":27236,
			"target":34962
		},
		{
			"buffer":0,
			"byteLength":9024,
			"byteOffset":40772,
			"target":34962
		},
		{
			"buffer":0,
			"byteLength":4680,
			"byteOffset":49796,
			"target":34963
		},
		{
			"buffer":0,
			"byteLength":10512,
			"byteOffset":54476,
			"target":34962
		},
		{
			"buffer":0,
			"byteLength":10512,
			"byteOffset":64988,
			"target":34962
		},
		{
			"buffer":0,
			"byteLength":7008,
			"byteOffset":75500,
			"target":34962
		},
		{
			"buffer":0,
			"byteLength":3024,
			"byteOffset":82508,
			"target":34963
		},
		{
			"buffer":0,
			"byteLength":576,
			"byteOffset":85532,
			"target":34962
		},
		{
			"buffer":0,
			"byteLength":576,
			"byteOffset":86108,
			"target":34962
		},
		{
			"buffer":0,
			"byteLength":384,
			"byteOffset":86684,
			"target":34962
		},
		{
			"buffer":0,
			"byteLength":144,
			"byteOffset":87068,
			"target":34963
		}
	],
	"samplers":[
		{
			"magFilter":9729,
			"minFilter":9987
		}
	],
	"buffers":[
		{
			"byteLength":87212,
			"uri":"mdl_zesty_room_pillar.bin"
		}
	]
}
