{
	"asset":{
		"generator":"Khronos glTF Blender I/O v4.0.44",
		"version":"2.0"
	},
	"scene":0,
	"scenes":[
		{
			"name":"Scene",
			"nodes":[
				18
			]
		}
	],
	"nodes":[
		{
			"mesh":0,
			"name":"back _chair_0"
		},
		{
			"children":[
				0
			],
			"name":"back ",
			"rotation":[
				-0.7071020007133484,
				0.0026047108694911003,
				-0.002604711102321744,
				0.7071019411087036
			],
			"scale":[
				100.0000228881836,
				99.99998474121094,
				99.99999237060547
			]
		},
		{
			"mesh":1,
			"name":"cushion 1_cushions_0"
		},
		{
			"children":[
				2
			],
			"name":"cushion 1",
			"rotation":[
				-0.5881041884422302,
				0.3925986588001251,
				-0.39259839057922363,
				0.5881039500236511
			],
			"scale":[
				99.9999771118164,
				100.00000762939453,
				100
			]
		},
		{
			"mesh":2,
			"name":"cushion 2 _cushions_0"
		},
		{
			"children":[
				4
			],
			"name":"cushion 2 ",
			"rotation":[
				-0.7055173516273499,
				-0.04738654941320419,
				0.0473865382373333,
				0.7055171132087708
			],
			"scale":[
				100,
				100.00003051757812,
				100.00000762939453
			]
		},
		{
			"mesh":3,
			"name":"front _chair_0"
		},
		{
			"children":[
				6
			],
			"name":"front ",
			"rotation":[
				-0.7071020007133484,
				0.0026047108694911003,
				-0.002604711102321744,
				0.7071019411087036
			],
			"scale":[
				100.0000228881836,
				99.99998474121094,
				99.99999237060547
			]
		},
		{
			"mesh":4,
			"name":"Legs _chair_0"
		},
		{
			"children":[
				8
			],
			"name":"Legs ",
			"rotation":[
				-0.70710688829422,
				0,
				0,
				0.7071066498756409
			],
			"scale":[
				100,
				99.99998474121094,
				99.99998474121094
			]
		},
		{
			"mesh":5,
			"name":"Seat_chair_0"
		},
		{
			"children":[
				10
			],
			"name":"Seat",
			"rotation":[
				-0.7071020007133484,
				0.0026047108694911003,
				-0.002604711102321744,
				0.7071019411087036
			],
			"scale":[
				100.0000228881836,
				99.99998474121094,
				99.99999237060547
			]
		},
		{
			"mesh":6,
			"name":"Sides_chair_0"
		},
		{
			"children":[
				12
			],
			"name":"Sides",
			"rotation":[
				-0.7071020007133484,
				0.0026047108694911003,
				-0.002604711102321744,
				0.7071019411087036
			],
			"scale":[
				100.0000228881836,
				99.99998474121094,
				99.99999237060547
			]
		},
		{
			"mesh":7,
			"name":"top_chair_0"
		},
		{
			"children":[
				14
			],
			"name":"top",
			"rotation":[
				-0.7071020007133484,
				0.0026047108694911003,
				-0.002604711102321744,
				0.7071019411087036
			],
			"scale":[
				100.0000228881836,
				99.99998474121094,
				99.99999237060547
			]
		},
		{
			"children":[
				1,
				3,
				5,
				7,
				9,
				11,
				13,
				15
			],
			"name":"RootNode"
		},
		{
			"children":[
				16
			],
			"name":"Bovenkamp.fbx",
			"rotation":[
				0.70710688829422,
				0,
				0,
				0.7071066498756409
			],
			"scale":[
				0.009999999776482582,
				0.009999999776482582,
				0.009999999776482582
			]
		},
		{
			"children":[
				17
			],
			"name":"Sketchfab_model",
			"rotation":[
				-0.70710688829422,
				0,
				0,
				0.7071066498756409
			]
		}
	],
	"materials":[
		{
			"doubleSided":true,
			"name":"chair.003",
			"normalTexture":{
				"index":0
			},
			"pbrMetallicRoughness":{
				"baseColorTexture":{
					"index":1
				},
				"metallicFactor":0,
				"metallicRoughnessTexture":{
					"index":2
				}
			}
		},
		{
			"doubleSided":true,
			"name":"cushions.003",
			"normalTexture":{
				"index":3
			},
			"pbrMetallicRoughness":{
				"baseColorTexture":{
					"index":4
				},
				"metallicFactor":0,
				"metallicRoughnessTexture":{
					"index":5
				}
			}
		}
	],
	"meshes":[
		{
			"name":"back _chair_0.003",
			"primitives":[
				{
					"attributes":{
						"POSITION":0,
						"NORMAL":1,
						"TEXCOORD_0":2,
						"TEXCOORD_1":3,
						"TEXCOORD_2":4
					},
					"indices":5,
					"material":0
				}
			]
		},
		{
			"name":"cushion 1_cushions_0.003",
			"primitives":[
				{
					"attributes":{
						"POSITION":6,
						"NORMAL":7,
						"TEXCOORD_0":8,
						"TEXCOORD_1":9,
						"TEXCOORD_2":10
					},
					"indices":11,
					"material":1
				}
			]
		},
		{
			"name":"cushion 2 _cushions_0.003",
			"primitives":[
				{
					"attributes":{
						"POSITION":12,
						"NORMAL":13,
						"TEXCOORD_0":14,
						"TEXCOORD_1":15,
						"TEXCOORD_2":16
					},
					"indices":17,
					"material":1
				}
			]
		},
		{
			"name":"front _chair_0.003",
			"primitives":[
				{
					"attributes":{
						"POSITION":18,
						"NORMAL":19,
						"TEXCOORD_0":20,
						"TEXCOORD_1":21,
						"TEXCOORD_2":22
					},
					"indices":23,
					"material":0
				}
			]
		},
		{
			"name":"Legs _chair_0.003",
			"primitives":[
				{
					"attributes":{
						"POSITION":24,
						"NORMAL":25,
						"TEXCOORD_0":26,
						"TEXCOORD_1":27,
						"TEXCOORD_2":28
					},
					"indices":29,
					"material":0
				}
			]
		},
		{
			"name":"Seat_chair_0.003",
			"primitives":[
				{
					"attributes":{
						"POSITION":30,
						"NORMAL":31,
						"TEXCOORD_0":32,
						"TEXCOORD_1":33,
						"TEXCOORD_2":34
					},
					"indices":35,
					"material":0
				}
			]
		},
		{
			"name":"Sides_chair_0.003",
			"primitives":[
				{
					"attributes":{
						"POSITION":36,
						"NORMAL":37,
						"TEXCOORD_0":38,
						"TEXCOORD_1":39,
						"TEXCOORD_2":40
					},
					"indices":41,
					"material":0
				}
			]
		},
		{
			"name":"top_chair_0.003",
			"primitives":[
				{
					"attributes":{
						"POSITION":42,
						"NORMAL":43,
						"TEXCOORD_0":44,
						"TEXCOORD_1":45,
						"TEXCOORD_2":46
					},
					"indices":47,
					"material":0
				}
			]
		}
	],
	"textures":[
		{
			"sampler":0,
			"source":0
		},
		{
			"sampler":0,
			"source":1
		},
		{
			"sampler":0,
			"source":2
		},
		{
			"sampler":0,
			"source":3
		},
		{
			"sampler":0,
			"source":4
		},
		{
			"sampler":0,
			"source":5
		}
	],
	"images":[
		{
			"mimeType":"image/png",
			"name":"Image_2",
			"uri":"Image_2.png"
		},
		{
			"mimeType":"image/png",
			"name":"Image_0",
			"uri":"Image_0.png"
		},
		{
			"mimeType":"image/png",
			"name":"Image_1",
			"uri":"Image_1.png"
		},
		{
			"mimeType":"image/png",
			"name":"Image_5",
			"uri":"Image_5.png"
		},
		{
			"mimeType":"image/png",
			"name":"Image_3",
			"uri":"Image_3.png"
		},
		{
			"mimeType":"image/png",
			"name":"Image_4",
			"uri":"Image_4.png"
		}
	],
	"accessors":[
		{
			"bufferView":0,
			"componentType":5126,
			"count":156,
			"max":[
				-0.47737830877304077,
				0.2930571138858795,
				1.1106393337249756
			],
			"min":[
				-0.7367231845855713,
				-0.3011840283870697,
				0.418937087059021
			],
			"type":"VEC3"
		},
		{
			"bufferView":1,
			"componentType":5126,
			"count":156,
			"type":"VEC3"
		},
		{
			"bufferView":2,
			"componentType":5126,
			"count":156,
			"type":"VEC2"
		},
		{
			"bufferView":3,
			"componentType":5126,
			"count":156,
			"type":"VEC2"
		},
		{
			"bufferView":4,
			"componentType":5126,
			"count":156,
			"type":"VEC2"
		},
		{
			"bufferView":5,
			"componentType":5123,
			"count":432,
			"type":"SCALAR"
		},
		{
			"bufferView":6,
			"componentType":5126,
			"count":1015,
			"max":[
				-0.6456626653671265,
				0.4392712116241455,
				-0.04499535635113716
			],
			"min":[
				-1.458014965057373,
				-0.4334627091884613,
				-0.23606447875499725
			],
			"type":"VEC3"
		},
		{
			"bufferView":7,
			"componentType":5126,
			"count":1015,
			"type":"VEC3"
		},
		{
			"bufferView":8,
			"componentType":5126,
			"count":1015,
			"type":"VEC2"
		},
		{
			"bufferView":9,
			"componentType":5126,
			"count":1015,
			"type":"VEC2"
		},
		{
			"bufferView":10,
			"componentType":5126,
			"count":1015,
			"type":"VEC2"
		},
		{
			"bufferView":11,
			"componentType":5123,
			"count":4764,
			"type":"SCALAR"
		},
		{
			"bufferView":12,
			"componentType":5126,
			"count":902,
			"max":[
				0.5715944766998291,
				0.41532161831855774,
				0.6196715831756592
			],
			"min":[
				-0.3768694996833801,
				-0.43931010365486145,
				0.4399566650390625
			],
			"type":"VEC3"
		},
		{
			"bufferView":13,
			"componentType":5126,
			"count":902,
			"type":"VEC3"
		},
		{
			"bufferView":14,
			"componentType":5126,
			"count":902,
			"type":"VEC2"
		},
		{
			"bufferView":15,
			"componentType":5126,
			"count":902,
			"type":"VEC2"
		},
		{
			"bufferView":16,
			"componentType":5126,
			"count":902,
			"type":"VEC2"
		},
		{
			"bufferView":17,
			"componentType":5123,
			"count":4128,
			"type":"SCALAR"
		},
		{
			"bufferView":18,
			"componentType":5126,
			"count":100,
			"max":[
				0.5047863125801086,
				0.42968279123306274,
				0.5377976894378662
			],
			"min":[
				0.47100695967674255,
				-0.42968279123306274,
				0.48449164628982544
			],
			"type":"VEC3"
		},
		{
			"bufferView":19,
			"componentType":5126,
			"count":100,
			"type":"VEC3"
		},
		{
			"bufferView":20,
			"componentType":5126,
			"count":100,
			"type":"VEC2"
		},
		{
			"bufferView":21,
			"componentType":5126,
			"count":100,
			"type":"VEC2"
		},
		{
			"bufferView":22,
			"componentType":5126,
			"count":100,
			"type":"VEC2"
		},
		{
			"bufferView":23,
			"componentType":5123,
			"count":468,
			"type":"SCALAR"
		},
		{
			"bufferView":24,
			"componentType":5126,
			"count":350,
			"max":[
				0.5104116797447205,
				0.4305652976036072,
				0.4335649907588959
			],
			"min":[
				-0.4985475242137909,
				-0.4305652976036072,
				-0.0014811763539910316
			],
			"type":"VEC3"
		},
		{
			"bufferView":25,
			"componentType":5126,
			"count":350,
			"type":"VEC3"
		},
		{
			"bufferView":26,
			"componentType":5126,
			"count":350,
			"type":"VEC2"
		},
		{
			"bufferView":27,
			"componentType":5126,
			"count":350,
			"type":"VEC2"
		},
		{
			"bufferView":28,
			"componentType":5126,
			"count":350,
			"type":"VEC2"
		},
		{
			"bufferView":29,
			"componentType":5123,
			"count":1488,
			"type":"SCALAR"
		},
		{
			"bufferView":30,
			"componentType":5126,
			"count":62,
			"max":[
				0.48122233152389526,
				0.38254693150520325,
				0.5120267868041992
			],
			"min":[
				-0.5323432683944702,
				-0.38254693150520325,
				0.2756483256816864
			],
			"type":"VEC3"
		},
		{
			"bufferView":31,
			"componentType":5126,
			"count":62,
			"type":"VEC3"
		},
		{
			"bufferView":32,
			"componentType":5126,
			"count":62,
			"type":"VEC2"
		},
		{
			"bufferView":33,
			"componentType":5126,
			"count":62,
			"type":"VEC2"
		},
		{
			"bufferView":34,
			"componentType":5126,
			"count":62,
			"type":"VEC2"
		},
		{
			"bufferView":35,
			"componentType":5123,
			"count":168,
			"type":"SCALAR"
		},
		{
			"bufferView":36,
			"componentType":5126,
			"count":692,
			"max":[
				0.4823616147041321,
				0.42968276143074036,
				1.2513821125030518
			],
			"min":[
				-0.7982957363128662,
				-0.42968276143074036,
				0.27202075719833374
			],
			"type":"VEC3"
		},
		{
			"bufferView":37,
			"componentType":5126,
			"count":692,
			"type":"VEC3"
		},
		{
			"bufferView":38,
			"componentType":5126,
			"count":692,
			"type":"VEC2"
		},
		{
			"bufferView":39,
			"componentType":5126,
			"count":692,
			"type":"VEC2"
		},
		{
			"bufferView":40,
			"componentType":5126,
			"count":692,
			"type":"VEC2"
		},
		{
			"bufferView":41,
			"componentType":5123,
			"count":2880,
			"type":"SCALAR"
		},
		{
			"bufferView":42,
			"componentType":5126,
			"count":36,
			"max":[
				-0.6995911598205566,
				0.38847410678863525,
				1.241811990737915
			],
			"min":[
				-0.7870701551437378,
				-0.3886784017086029,
				1.0788036584854126
			],
			"type":"VEC3"
		},
		{
			"bufferView":43,
			"componentType":5126,
			"count":36,
			"type":"VEC3"
		},
		{
			"bufferView":44,
			"componentType":5126,
			"count":36,
			"type":"VEC2"
		},
		{
			"bufferView":45,
			"componentType":5126,
			"count":36,
			"type":"VEC2"
		},
		{
			"bufferView":46,
			"componentType":5126,
			"count":36,
			"type":"VEC2"
		},
		{
			"bufferView":47,
			"componentType":5123,
			"count":96,
			"type":"SCALAR"
		}
	],
	"bufferViews":[
		{
			"buffer":0,
			"byteLength":1872,
			"byteOffset":0,
			"target":34962
		},
		{
			"buffer":0,
			"byteLength":1872,
			"byteOffset":1872,
			"target":34962
		},
		{
			"buffer":0,
			"byteLength":1248,
			"byteOffset":3744,
			"target":34962
		},
		{
			"buffer":0,
			"byteLength":1248,
			"byteOffset":4992,
			"target":34962
		},
		{
			"buffer":0,
			"byteLength":1248,
			"byteOffset":6240,
			"target":34962
		},
		{
			"buffer":0,
			"byteLength":864,
			"byteOffset":7488,
			"target":34963
		},
		{
			"buffer":0,
			"byteLength":12180,
			"byteOffset":8352,
			"target":34962
		},
		{
			"buffer":0,
			"byteLength":12180,
			"byteOffset":20532,
			"target":34962
		},
		{
			"buffer":0,
			"byteLength":8120,
			"byteOffset":32712,
			"target":34962
		},
		{
			"buffer":0,
			"byteLength":8120,
			"byteOffset":40832,
			"target":34962
		},
		{
			"buffer":0,
			"byteLength":8120,
			"byteOffset":48952,
			"target":34962
		},
		{
			"buffer":0,
			"byteLength":9528,
			"byteOffset":57072,
			"target":34963
		},
		{
			"buffer":0,
			"byteLength":10824,
			"byteOffset":66600,
			"target":34962
		},
		{
			"buffer":0,
			"byteLength":10824,
			"byteOffset":77424,
			"target":34962
		},
		{
			"buffer":0,
			"byteLength":7216,
			"byteOffset":88248,
			"target":34962
		},
		{
			"buffer":0,
			"byteLength":7216,
			"byteOffset":95464,
			"target":34962
		},
		{
			"buffer":0,
			"byteLength":7216,
			"byteOffset":102680,
			"target":34962
		},
		{
			"buffer":0,
			"byteLength":8256,
			"byteOffset":109896,
			"target":34963
		},
		{
			"buffer":0,
			"byteLength":1200,
			"byteOffset":118152,
			"target":34962
		},
		{
			"buffer":0,
			"byteLength":1200,
			"byteOffset":119352,
			"target":34962
		},
		{
			"buffer":0,
			"byteLength":800,
			"byteOffset":120552,
			"target":34962
		},
		{
			"buffer":0,
			"byteLength":800,
			"byteOffset":121352,
			"target":34962
		},
		{
			"buffer":0,
			"byteLength":800,
			"byteOffset":122152,
			"target":34962
		},
		{
			"buffer":0,
			"byteLength":936,
			"byteOffset":122952,
			"target":34963
		},
		{
			"buffer":0,
			"byteLength":4200,
			"byteOffset":123888,
			"target":34962
		},
		{
			"buffer":0,
			"byteLength":4200,
			"byteOffset":128088,
			"target":34962
		},
		{
			"buffer":0,
			"byteLength":2800,
			"byteOffset":132288,
			"target":34962
		},
		{
			"buffer":0,
			"byteLength":2800,
			"byteOffset":135088,
			"target":34962
		},
		{
			"buffer":0,
			"byteLength":2800,
			"byteOffset":137888,
			"target":34962
		},
		{
			"buffer":0,
			"byteLength":2976,
			"byteOffset":140688,
			"target":34963
		},
		{
			"buffer":0,
			"byteLength":744,
			"byteOffset":143664,
			"target":34962
		},
		{
			"buffer":0,
			"byteLength":744,
			"byteOffset":144408,
			"target":34962
		},
		{
			"buffer":0,
			"byteLength":496,
			"byteOffset":145152,
			"target":34962
		},
		{
			"buffer":0,
			"byteLength":496,
			"byteOffset":145648,
			"target":34962
		},
		{
			"buffer":0,
			"byteLength":496,
			"byteOffset":146144,
			"target":34962
		},
		{
			"buffer":0,
			"byteLength":336,
			"byteOffset":146640,
			"target":34963
		},
		{
			"buffer":0,
			"byteLength":8304,
			"byteOffset":146976,
			"target":34962
		},
		{
			"buffer":0,
			"byteLength":8304,
			"byteOffset":155280,
			"target":34962
		},
		{
			"buffer":0,
			"byteLength":5536,
			"byteOffset":163584,
			"target":34962
		},
		{
			"buffer":0,
			"byteLength":5536,
			"byteOffset":169120,
			"target":34962
		},
		{
			"buffer":0,
			"byteLength":5536,
			"byteOffset":174656,
			"target":34962
		},
		{
			"buffer":0,
			"byteLength":5760,
			"byteOffset":180192,
			"target":34963
		},
		{
			"buffer":0,
			"byteLength":432,
			"byteOffset":185952,
			"target":34962
		},
		{
			"buffer":0,
			"byteLength":432,
			"byteOffset":186384,
			"target":34962
		},
		{
			"buffer":0,
			"byteLength":288,
			"byteOffset":186816,
			"target":34962
		},
		{
			"buffer":0,
			"byteLength":288,
			"byteOffset":187104,
			"target":34962
		},
		{
			"buffer":0,
			"byteLength":288,
			"byteOffset":187392,
			"target":34962
		},
		{
			"buffer":0,
			"byteLength":192,
			"byteOffset":187680,
			"target":34963
		}
	],
	"samplers":[
		{
			"magFilter":9729,
			"minFilter":9987
		}
	],
	"buffers":[
		{
			"byteLength":187872,
			"uri":"bovenkamp_vintage_chair_1950s.bin"
		}
	]
}
