{
	"asset":{
		"generator":"Khronos glTF Blender I/O v4.2.57",
		"version":"2.0"
	},
	"scene":0,
	"scenes":[
		{
			"name":"Scene",
			"nodes":[
				0
			]
		}
	],
	"nodes":[
		{
			"mesh":0,
			"name":"door-handle"
		}
	],
	"materials":[
		{
			"doubleSided":true,
			"name":"brass",
			"pbrMetallicRoughness":{
				"baseColorFactor":[
					0.6745278835296631,
					0.3603936433792114,
					0.09313913434743881,
					1
				],
				"roughnessFactor":0.39393937587738037
			}
		}
	],
	"meshes":[
		{
			"name":"BezierCurve",
			"primitives":[
				{
					"attributes":{
						"POSITION":0,
						"NORMAL":1,
						"TEXCOORD_0":2
					},
					"indices":3,
					"material":0
				}
			]
		}
	],
	"accessors":[
		{
			"bufferView":0,
			"componentType":5126,
			"count":786,
			"max":[
				0.025645572692155838,
				0.05157453566789627,
				0.0018364698626101017
			],
			"min":[
				-0.22734525799751282,
				-0.029551835730671883,
				-0.030709940940141678
			],
			"type":"VEC3"
		},
		{
			"bufferView":1,
			"componentType":5126,
			"count":786,
			"type":"VEC3"
		},
		{
			"bufferView":2,
			"componentType":5126,
			"count":786,
			"type":"VEC2"
		},
		{
			"bufferView":3,
			"componentType":5123,
			"count":3000,
			"type":"SCALAR"
		}
	],
	"bufferViews":[
		{
			"buffer":0,
			"byteLength":9432,
			"byteOffset":0,
			"target":34962
		},
		{
			"buffer":0,
			"byteLength":9432,
			"byteOffset":9432,
			"target":34962
		},
		{
			"buffer":0,
			"byteLength":6288,
			"byteOffset":18864,
			"target":34962
		},
		{
			"buffer":0,
			"byteLength":6000,
			"byteOffset":25152,
			"target":34963
		}
	],
	"buffers":[
		{
			"byteLength":31152,
			"uri":"tokendoorhandle.bin"
		}
	]
}
