{
	"asset":{
		"generator":"Khronos glTF Blender I/O v4.1.63",
		"version":"2.0"
	},
	"scene":0,
	"scenes":[
		{
			"name":"Scene",
			"nodes":[
				3
			]
		}
	],
	"nodes":[
		{
			"mesh":0,
			"name":"Object_2",
			"translation":[
				0,
				-27.09551429748535,
				-3.64052175427787e-06
			]
		},
		{
			"mesh":1,
			"name":"Object_8",
			"translation":[
				0,
				-27.09551429748535,
				-3.64052175427787e-06
			]
		},
		{
			"children":[
				0,
				1
			],
			"name":"sketch.obj.cleaner.materialmerger.gles"
		},
		{
			"children":[
				2
			],
			"name":"Sketchfab_model",
			"rotation":[
				0,
				-0.7071068286895752,
				-0.7071068286895752,
				1.00153539642818e-16
			]
		}
	],
	"materials":[
		{
			"alphaCutoff":0.38834714889526367,
			"alphaMode":"MASK",
			"name":"diffuse.001",
			"normalTexture":{
				"index":0
			},
			"pbrMetallicRoughness":{
				"baseColorTexture":{
					"index":1
				},
				"metallicFactor":0,
				"metallicRoughnessTexture":{
					"index":2
				}
			}
		}
	],
	"meshes":[
		{
			"name":"Object_0.001",
			"primitives":[
				{
					"attributes":{
						"POSITION":0,
						"NORMAL":1,
						"TEXCOORD_0":2
					},
					"indices":3,
					"material":0
				}
			]
		},
		{
			"name":"Object_6.003",
			"primitives":[
				{
					"attributes":{
						"POSITION":4,
						"NORMAL":5,
						"TEXCOORD_0":6
					},
					"indices":7,
					"material":0
				}
			]
		}
	],
	"textures":[
		{
			"sampler":0,
			"source":0
		},
		{
			"sampler":0,
			"source":1
		},
		{
			"sampler":0,
			"source":2
		}
	],
	"images":[
		{
			"mimeType":"image/png",
			"name":"diffuse_normal",
			"uri":"diffuse_normal.png"
		},
		{
			"mimeType":"image/png",
			"name":"diffuse_baseColor",
			"uri":"diffuse_baseColor.png"
		},
		{
			"mimeType":"image/png",
			"name":"diffuse_metallicRoughness",
			"uri":"diffuse_metallicRoughness.png"
		}
	],
	"accessors":[
		{
			"bufferView":0,
			"componentType":5126,
			"count":870,
			"max":[
				10.464509010314941,
				33.8470573425293,
				17.49673843383789
			],
			"min":[
				-10.680088996887207,
				21.142499923706055,
				0
			],
			"type":"VEC3"
		},
		{
			"bufferView":1,
			"componentType":5126,
			"count":870,
			"type":"VEC3"
		},
		{
			"bufferView":2,
			"componentType":5126,
			"count":870,
			"type":"VEC2"
		},
		{
			"bufferView":3,
			"componentType":5123,
			"count":1689,
			"type":"SCALAR"
		},
		{
			"bufferView":4,
			"componentType":5126,
			"count":8627,
			"max":[
				10.770874977111816,
				33.60670852661133,
				20.473739624023438
			],
			"min":[
				-10.515063285827637,
				21.35402488708496,
				0
			],
			"type":"VEC3"
		},
		{
			"bufferView":5,
			"componentType":5126,
			"count":8627,
			"type":"VEC3"
		},
		{
			"bufferView":6,
			"componentType":5126,
			"count":8627,
			"type":"VEC2"
		},
		{
			"bufferView":7,
			"componentType":5123,
			"count":16299,
			"type":"SCALAR"
		}
	],
	"bufferViews":[
		{
			"buffer":0,
			"byteLength":10440,
			"byteOffset":0,
			"target":34962
		},
		{
			"buffer":0,
			"byteLength":10440,
			"byteOffset":10440,
			"target":34962
		},
		{
			"buffer":0,
			"byteLength":6960,
			"byteOffset":20880,
			"target":34962
		},
		{
			"buffer":0,
			"byteLength":3378,
			"byteOffset":27840,
			"target":34963
		},
		{
			"buffer":0,
			"byteLength":103524,
			"byteOffset":31220,
			"target":34962
		},
		{
			"buffer":0,
			"byteLength":103524,
			"byteOffset":134744,
			"target":34962
		},
		{
			"buffer":0,
			"byteLength":69016,
			"byteOffset":238268,
			"target":34962
		},
		{
			"buffer":0,
			"byteLength":32598,
			"byteOffset":307284,
			"target":34963
		}
	],
	"samplers":[
		{
			"magFilter":9729,
			"minFilter":9987
		}
	],
	"buffers":[
		{
			"byteLength":339884,
			"uri":"mdl_wollo_rothenburg_5.bin"
		}
	]
}
