{
	"asset":{
		"generator":"Khronos glTF Blender I/O v4.1.63",
		"version":"2.0"
	},
	"scene":0,
	"scenes":[
		{
			"name":"Scene",
			"nodes":[
				3
			]
		}
	],
	"nodes":[
		{
			"mesh":0,
			"name":"Object_2"
		},
		{
			"mesh":1,
			"name":"Object_7"
		},
		{
			"children":[
				0,
				1
			],
			"name":"sketch.obj.cleaner.materialmerger.gles"
		},
		{
			"children":[
				2
			],
			"name":"Sketchfab_model",
			"rotation":[
				0,
				-0.7071068286895752,
				-0.7071068286895752,
				1.00153539642818e-16
			],
			"translation":[
				0,
				0,
				-14.212656021118164
			]
		}
	],
	"materials":[
		{
			"alphaCutoff":0.38834714889526367,
			"alphaMode":"MASK",
			"name":"diffuse.003",
			"normalTexture":{
				"index":0
			},
			"pbrMetallicRoughness":{
				"baseColorTexture":{
					"index":1
				},
				"metallicFactor":0,
				"metallicRoughnessTexture":{
					"index":2
				}
			}
		}
	],
	"meshes":[
		{
			"name":"Object_0.003",
			"primitives":[
				{
					"attributes":{
						"POSITION":0,
						"NORMAL":1,
						"TEXCOORD_0":2
					},
					"indices":3,
					"material":0
				}
			]
		},
		{
			"name":"Object_5.003",
			"primitives":[
				{
					"attributes":{
						"POSITION":4,
						"NORMAL":5,
						"TEXCOORD_0":6
					},
					"indices":7,
					"material":0
				}
			]
		}
	],
	"textures":[
		{
			"sampler":0,
			"source":0
		},
		{
			"sampler":0,
			"source":1
		},
		{
			"sampler":0,
			"source":2
		}
	],
	"images":[
		{
			"mimeType":"image/png",
			"name":"diffuse_normal",
			"uri":"diffuse_normal.png"
		},
		{
			"mimeType":"image/png",
			"name":"diffuse_baseColor",
			"uri":"diffuse_baseColor.png"
		},
		{
			"mimeType":"image/png",
			"name":"diffuse_metallicRoughness",
			"uri":"diffuse_metallicRoughness.png"
		}
	],
	"accessors":[
		{
			"bufferView":0,
			"componentType":5126,
			"count":960,
			"max":[
				6.411573886871338,
				20.094635009765625,
				15.4761962890625
			],
			"min":[
				-10.8873929977417,
				7.200285911560059,
				0
			],
			"type":"VEC3"
		},
		{
			"bufferView":1,
			"componentType":5126,
			"count":960,
			"type":"VEC3"
		},
		{
			"bufferView":2,
			"componentType":5126,
			"count":960,
			"type":"VEC2"
		},
		{
			"bufferView":3,
			"componentType":5123,
			"count":2019,
			"type":"SCALAR"
		},
		{
			"bufferView":4,
			"componentType":5126,
			"count":8329,
			"max":[
				6.449089050292969,
				19.8974609375,
				19.591638565063477
			],
			"min":[
				-9.799622535705566,
				7.397459983825684,
				0
			],
			"type":"VEC3"
		},
		{
			"bufferView":5,
			"componentType":5126,
			"count":8329,
			"type":"VEC3"
		},
		{
			"bufferView":6,
			"componentType":5126,
			"count":8329,
			"type":"VEC2"
		},
		{
			"bufferView":7,
			"componentType":5123,
			"count":14355,
			"type":"SCALAR"
		}
	],
	"bufferViews":[
		{
			"buffer":0,
			"byteLength":11520,
			"byteOffset":0,
			"target":34962
		},
		{
			"buffer":0,
			"byteLength":11520,
			"byteOffset":11520,
			"target":34962
		},
		{
			"buffer":0,
			"byteLength":7680,
			"byteOffset":23040,
			"target":34962
		},
		{
			"buffer":0,
			"byteLength":4038,
			"byteOffset":30720,
			"target":34963
		},
		{
			"buffer":0,
			"byteLength":99948,
			"byteOffset":34760,
			"target":34962
		},
		{
			"buffer":0,
			"byteLength":99948,
			"byteOffset":134708,
			"target":34962
		},
		{
			"buffer":0,
			"byteLength":66632,
			"byteOffset":234656,
			"target":34962
		},
		{
			"buffer":0,
			"byteLength":28710,
			"byteOffset":301288,
			"target":34963
		}
	],
	"samplers":[
		{
			"magFilter":9729,
			"minFilter":9987
		}
	],
	"buffers":[
		{
			"byteLength":330000,
			"uri":"mdl_wollo_rothenburg_4.bin"
		}
	]
}
