{
	"asset":{
		"generator":"Khronos glTF Blender I/O v4.1.63",
		"version":"2.0"
	},
	"scene":0,
	"scenes":[
		{
			"name":"Scene",
			"nodes":[
				3
			]
		}
	],
	"nodes":[
		{
			"mesh":0,
			"name":"Object_2"
		},
		{
			"mesh":1,
			"name":"Object_3"
		},
		{
			"children":[
				0,
				1
			],
			"name":"sketch.obj.cleaner.materialmerger.gles"
		},
		{
			"children":[
				2
			],
			"name":"Sketchfab_model",
			"rotation":[
				0,
				-0.7071068286895752,
				-0.7071068286895752,
				1.00153539642818e-16
			]
		}
	],
	"materials":[
		{
			"alphaCutoff":0.38834714889526367,
			"alphaMode":"MASK",
			"name":"diffuse",
			"normalTexture":{
				"index":0
			},
			"pbrMetallicRoughness":{
				"baseColorTexture":{
					"index":1
				},
				"metallicFactor":0,
				"metallicRoughnessTexture":{
					"index":2
				}
			}
		}
	],
	"meshes":[
		{
			"name":"Object_0",
			"primitives":[
				{
					"attributes":{
						"POSITION":0,
						"NORMAL":1,
						"TEXCOORD_0":2
					},
					"indices":3,
					"material":0
				}
			]
		},
		{
			"name":"Object_1",
			"primitives":[
				{
					"attributes":{
						"POSITION":4,
						"NORMAL":5,
						"TEXCOORD_0":6
					},
					"indices":7,
					"material":0
				}
			]
		}
	],
	"textures":[
		{
			"sampler":0,
			"source":0
		},
		{
			"sampler":0,
			"source":1
		},
		{
			"sampler":0,
			"source":2
		}
	],
	"images":[
		{
			"mimeType":"image/png",
			"name":"diffuse_normal",
			"uri":"diffuse_normal.png"
		},
		{
			"mimeType":"image/png",
			"name":"diffuse_baseColor",
			"uri":"diffuse_baseColor.png"
		},
		{
			"mimeType":"image/png",
			"name":"diffuse_metallicRoughness",
			"uri":"diffuse_metallicRoughness.png"
		}
	],
	"accessors":[
		{
			"bufferView":0,
			"componentType":5126,
			"count":963,
			"max":[
				10.019712448120117,
				5.515607833862305,
				16.382131576538086
			],
			"min":[
				-10.020903587341309,
				-5.433725357055664,
				0.2000042051076889
			],
			"type":"VEC3"
		},
		{
			"bufferView":1,
			"componentType":5126,
			"count":963,
			"type":"VEC3"
		},
		{
			"bufferView":2,
			"componentType":5126,
			"count":963,
			"type":"VEC2"
		},
		{
			"bufferView":3,
			"componentType":5123,
			"count":2541,
			"type":"SCALAR"
		},
		{
			"bufferView":4,
			"componentType":5126,
			"count":8181,
			"max":[
				10.019712448120117,
				5.336454391479492,
				20.240182876586914
			],
			"min":[
				-10.450433731079102,
				-5.254571914672852,
				4.2074366319866385e-06
			],
			"type":"VEC3"
		},
		{
			"bufferView":5,
			"componentType":5126,
			"count":8181,
			"type":"VEC3"
		},
		{
			"bufferView":6,
			"componentType":5126,
			"count":8181,
			"type":"VEC2"
		},
		{
			"bufferView":7,
			"componentType":5123,
			"count":18114,
			"type":"SCALAR"
		}
	],
	"bufferViews":[
		{
			"buffer":0,
			"byteLength":11556,
			"byteOffset":0,
			"target":34962
		},
		{
			"buffer":0,
			"byteLength":11556,
			"byteOffset":11556,
			"target":34962
		},
		{
			"buffer":0,
			"byteLength":7704,
			"byteOffset":23112,
			"target":34962
		},
		{
			"buffer":0,
			"byteLength":5082,
			"byteOffset":30816,
			"target":34963
		},
		{
			"buffer":0,
			"byteLength":98172,
			"byteOffset":35900,
			"target":34962
		},
		{
			"buffer":0,
			"byteLength":98172,
			"byteOffset":134072,
			"target":34962
		},
		{
			"buffer":0,
			"byteLength":65448,
			"byteOffset":232244,
			"target":34962
		},
		{
			"buffer":0,
			"byteLength":36228,
			"byteOffset":297692,
			"target":34963
		}
	],
	"samplers":[
		{
			"magFilter":9729,
			"minFilter":9987
		}
	],
	"buffers":[
		{
			"byteLength":333920,
			"uri":"mdl_wollo_rothenburg_1.bin"
		}
	]
}
