{
	"asset":{
		"generator":"Khronos glTF Blender I/O v4.1.63",
		"version":"2.0"
	},
	"scene":0,
	"scenes":[
		{
			"name":"Scene",
			"nodes":[
				5
			]
		}
	],
	"nodes":[
		{
			"mesh":0,
			"name":"Object_2"
		},
		{
			"name":"Object_3"
		},
		{
			"mesh":1,
			"name":"Object_4"
		},
		{
			"name":"Object_8"
		},
		{
			"children":[
				0,
				1,
				2,
				3
			],
			"name":"sketch.obj.cleaner.materialmerger.gles"
		},
		{
			"children":[
				4
			],
			"name":"Sketchfab_model",
			"rotation":[
				0,
				-0.7071068286895752,
				-0.7071068286895752,
				1.00153539642818e-16
			],
			"translation":[
				0,
				0,
				12.360663414001465
			]
		}
	],
	"materials":[
		{
			"alphaCutoff":0.38834714889526367,
			"alphaMode":"MASK",
			"name":"diffuse.004",
			"normalTexture":{
				"index":0
			},
			"pbrMetallicRoughness":{
				"baseColorTexture":{
					"index":1
				},
				"metallicFactor":0,
				"metallicRoughnessTexture":{
					"index":2
				}
			}
		}
	],
	"meshes":[
		{
			"name":"Object_0.004",
			"primitives":[
				{
					"attributes":{
						"POSITION":0,
						"NORMAL":1,
						"TEXCOORD_0":2
					},
					"indices":3,
					"material":0
				}
			]
		},
		{
			"name":"Object_2.004",
			"primitives":[
				{
					"attributes":{
						"POSITION":4,
						"NORMAL":5,
						"TEXCOORD_0":6
					},
					"indices":7,
					"material":0
				}
			]
		}
	],
	"textures":[
		{
			"sampler":0,
			"source":0
		},
		{
			"sampler":0,
			"source":1
		},
		{
			"sampler":0,
			"source":2
		}
	],
	"images":[
		{
			"mimeType":"image/png",
			"name":"diffuse_normal",
			"uri":"diffuse_normal.png"
		},
		{
			"mimeType":"image/png",
			"name":"diffuse_baseColor",
			"uri":"diffuse_baseColor.png"
		},
		{
			"mimeType":"image/png",
			"name":"diffuse_metallicRoughness",
			"uri":"diffuse_metallicRoughness.png"
		}
	],
	"accessors":[
		{
			"bufferView":0,
			"componentType":5126,
			"count":1939,
			"max":[
				8.543899536132812,
				-4.228490829467773,
				12.2673921585083
			],
			"min":[
				-10.025593757629395,
				-20.297508239746094,
				0
			],
			"type":"VEC3"
		},
		{
			"bufferView":1,
			"componentType":5126,
			"count":1939,
			"type":"VEC3"
		},
		{
			"bufferView":2,
			"componentType":5126,
			"count":1939,
			"type":"VEC2"
		},
		{
			"bufferView":3,
			"componentType":5123,
			"count":4716,
			"type":"SCALAR"
		},
		{
			"bufferView":4,
			"componentType":5126,
			"count":14706,
			"max":[
				7.9432268142700195,
				-4.1544189453125,
				19.05510902404785
			],
			"min":[
				-9.256999969482422,
				-20.371578216552734,
				0
			],
			"type":"VEC3"
		},
		{
			"bufferView":5,
			"componentType":5126,
			"count":14706,
			"type":"VEC3"
		},
		{
			"bufferView":6,
			"componentType":5126,
			"count":14706,
			"type":"VEC2"
		},
		{
			"bufferView":7,
			"componentType":5123,
			"count":29052,
			"type":"SCALAR"
		}
	],
	"bufferViews":[
		{
			"buffer":0,
			"byteLength":23268,
			"byteOffset":0,
			"target":34962
		},
		{
			"buffer":0,
			"byteLength":23268,
			"byteOffset":23268,
			"target":34962
		},
		{
			"buffer":0,
			"byteLength":15512,
			"byteOffset":46536,
			"target":34962
		},
		{
			"buffer":0,
			"byteLength":9432,
			"byteOffset":62048,
			"target":34963
		},
		{
			"buffer":0,
			"byteLength":176472,
			"byteOffset":71480,
			"target":34962
		},
		{
			"buffer":0,
			"byteLength":176472,
			"byteOffset":247952,
			"target":34962
		},
		{
			"buffer":0,
			"byteLength":117648,
			"byteOffset":424424,
			"target":34962
		},
		{
			"buffer":0,
			"byteLength":58104,
			"byteOffset":542072,
			"target":34963
		}
	],
	"samplers":[
		{
			"magFilter":9729,
			"minFilter":9987
		}
	],
	"buffers":[
		{
			"byteLength":600176,
			"uri":"mdl_wollo_rothenburg_3.bin"
		}
	]
}
