{
	"asset":{
		"generator":"Khronos glTF Blender I/O v4.0.44",
		"version":"2.0"
	},
	"extensionsUsed":[
		"KHR_materials_specular"
	],
	"scene":0,
	"scenes":[
		{
			"name":"Scene",
			"nodes":[
				14
			]
		}
	],
	"nodes":[
		{
			"mesh":0,
			"name":"Chair Arc_Chair Arc_0"
		},
		{
			"children":[
				0
			],
			"name":"Chair Arc",
			"rotation":[
				-0.6603619456291199,
				-0.2528282105922699,
				-0.2528282105922699,
				0.6603619456291199
			],
			"scale":[
				100.00000762939453,
				100.00000762939453,
				99.99999237060547
			],
			"translation":[
				0,
				-57.43579864501953,
				0
			]
		},
		{
			"mesh":1,
			"name":"Chair Details_Chair Details_0"
		},
		{
			"children":[
				2
			],
			"name":"Chair Details",
			"rotation":[
				-0.70710688829422,
				0,
				0,
				0.7071066498756409
			],
			"scale":[
				8.817643165588379,
				8.817639350891113,
				2.817641258239746
			],
			"translation":[
				0.8395434021949768,
				20.752548217773438,
				78.73443603515625
			]
		},
		{
			"mesh":2,
			"name":"Leather Seating_Leather Seating_0"
		},
		{
			"children":[
				4
			],
			"name":"Leather Seating",
			"rotation":[
				-0.70710688829422,
				0,
				0,
				0.7071066498756409
			],
			"scale":[
				119.50018310546875,
				99.5001449584961,
				24.410058975219727
			],
			"translation":[
				0,
				-41.917327880859375,
				25.35024642944336
			]
		},
		{
			"mesh":3,
			"name":"Leather Top_Leather Top_0"
		},
		{
			"children":[
				6
			],
			"name":"Leather Top",
			"rotation":[
				-0.6603619456291199,
				-0.2528282403945923,
				-0.2528281807899475,
				0.6603619456291199
			],
			"scale":[
				112.99998474121094,
				112.99998474121094,
				340.9999694824219
			],
			"translation":[
				0,
				61.977054595947266,
				-2.955054998397827
			]
		},
		{
			"mesh":4,
			"name":"Wood  Front_Wood  Front_0"
		},
		{
			"children":[
				8
			],
			"name":"Wood  Front",
			"rotation":[
				-0.70710688829422,
				0,
				0,
				0.7071066498756409
			],
			"scale":[
				9.984481811523438,
				4.415335178375244,
				16.876760482788086
			],
			"translation":[
				-132.62591552734375,
				57.32637023925781,
				-8.271736145019531
			]
		},
		{
			"mesh":5,
			"name":"Wood Legs_Wood Legs_0"
		},
		{
			"children":[
				10
			],
			"name":"Wood Legs",
			"rotation":[
				-0.70710688829422,
				0,
				0,
				0.7071066498756409
			],
			"scale":[
				9.692594528198242,
				9.692590713500977,
				7.692592144012451
			],
			"translation":[
				-117.25286102294922,
				-229.73025512695312,
				-52.292789459228516
			]
		},
		{
			"children":[
				1,
				3,
				5,
				7,
				9,
				11
			],
			"name":"RootNode"
		},
		{
			"children":[
				12
			],
			"name":"f27e29a9dbc3451abce397231ef49a48.fbx",
			"rotation":[
				0.70710688829422,
				0,
				0,
				0.7071066498756409
			],
			"scale":[
				0.009999999776482582,
				0.009999998845160007,
				0.009999998845160007
			]
		},
		{
			"children":[
				13
			],
			"name":"Sketchfab_model",
			"rotation":[
				-0.70710688829422,
				0,
				0,
				0.7071066498756409
			]
		}
	],
	"materials":[
		{
			"doubleSided":true,
			"name":"Chair_Arc.003",
			"normalTexture":{
				"index":0
			},
			"occlusionTexture":{
				"index":1
			},
			"pbrMetallicRoughness":{
				"baseColorTexture":{
					"index":2
				},
				"metallicFactor":0,
				"metallicRoughnessTexture":{
					"index":1
				}
			}
		},
		{
			"doubleSided":true,
			"name":"Chair_Details.003",
			"normalTexture":{
				"index":3
			},
			"occlusionTexture":{
				"index":4
			},
			"pbrMetallicRoughness":{
				"baseColorTexture":{
					"index":5
				},
				"metallicFactor":0,
				"metallicRoughnessTexture":{
					"index":4
				}
			}
		},
		{
			"doubleSided":true,
			"extensions":{
				"KHR_materials_specular":{
					"specularColorFactor":[
						0.6850394010543823,
						0.6850394010543823,
						0.6850394010543823
					]
				}
			},
			"name":"Leather_Seating.003",
			"normalTexture":{
				"index":6,
				"scale":1.6999999284744263
			},
			"occlusionTexture":{
				"index":7
			},
			"pbrMetallicRoughness":{
				"baseColorTexture":{
					"index":8
				},
				"metallicFactor":0.5,
				"roughnessFactor":0.5
			}
		},
		{
			"doubleSided":true,
			"extensions":{
				"KHR_materials_specular":{
					"specularColorFactor":[
						0.7165354490280151,
						0.7165354490280151,
						0.7165354490280151
					]
				}
			},
			"name":"Leather_Top.003",
			"normalTexture":{
				"index":9,
				"scale":2.3999998569488525
			},
			"occlusionTexture":{
				"index":10
			},
			"pbrMetallicRoughness":{
				"baseColorTexture":{
					"index":11
				},
				"metallicFactor":0.5,
				"roughnessFactor":0.5
			}
		},
		{
			"doubleSided":true,
			"name":"Wood__Front.003",
			"normalTexture":{
				"index":12
			},
			"occlusionTexture":{
				"index":13
			},
			"pbrMetallicRoughness":{
				"baseColorTexture":{
					"index":14
				},
				"metallicFactor":0,
				"metallicRoughnessTexture":{
					"index":13
				}
			}
		},
		{
			"doubleSided":true,
			"name":"Wood_Legs.003",
			"normalTexture":{
				"index":15
			},
			"occlusionTexture":{
				"index":16
			},
			"pbrMetallicRoughness":{
				"baseColorTexture":{
					"index":17
				},
				"metallicFactor":0,
				"metallicRoughnessTexture":{
					"index":16
				}
			}
		}
	],
	"meshes":[
		{
			"name":"Chair Arc_Chair Arc_0.003",
			"primitives":[
				{
					"attributes":{
						"POSITION":0,
						"NORMAL":1,
						"TEXCOORD_0":2
					},
					"indices":3,
					"material":0
				}
			]
		},
		{
			"name":"Chair Details_Chair Details_0.003",
			"primitives":[
				{
					"attributes":{
						"POSITION":4,
						"NORMAL":5,
						"TEXCOORD_0":6
					},
					"indices":7,
					"material":1
				}
			]
		},
		{
			"name":"Leather Seating_Leather Seating_0.003",
			"primitives":[
				{
					"attributes":{
						"POSITION":8,
						"NORMAL":9,
						"TEXCOORD_0":10
					},
					"indices":11,
					"material":2
				}
			]
		},
		{
			"name":"Leather Top_Leather Top_0.003",
			"primitives":[
				{
					"attributes":{
						"POSITION":12,
						"NORMAL":13,
						"TEXCOORD_0":14
					},
					"indices":15,
					"material":3
				}
			]
		},
		{
			"name":"Wood  Front_Wood  Front_0.003",
			"primitives":[
				{
					"attributes":{
						"POSITION":16,
						"NORMAL":17,
						"TEXCOORD_0":18
					},
					"indices":19,
					"material":4
				}
			]
		},
		{
			"name":"Wood Legs_Wood Legs_0.003",
			"primitives":[
				{
					"attributes":{
						"POSITION":20,
						"NORMAL":21,
						"TEXCOORD_0":22
					},
					"indices":23,
					"material":5
				}
			]
		}
	],
	"textures":[
		{
			"sampler":0,
			"source":0
		},
		{
			"sampler":0,
			"source":1
		},
		{
			"sampler":0,
			"source":2
		},
		{
			"sampler":0,
			"source":3
		},
		{
			"sampler":0,
			"source":4
		},
		{
			"sampler":0,
			"source":5
		},
		{
			"sampler":0,
			"source":6
		},
		{
			"sampler":0,
			"source":7
		},
		{
			"sampler":0,
			"source":8
		},
		{
			"sampler":0,
			"source":9
		},
		{
			"sampler":0,
			"source":10
		},
		{
			"sampler":0,
			"source":11
		},
		{
			"sampler":0,
			"source":12
		},
		{
			"sampler":0,
			"source":13
		},
		{
			"sampler":0,
			"source":14
		},
		{
			"sampler":0,
			"source":15
		},
		{
			"sampler":0,
			"source":16
		},
		{
			"sampler":0,
			"source":17
		}
	],
	"images":[
		{
			"mimeType":"image/png",
			"name":"Image_8",
			"uri":"Image_8.png"
		},
		{
			"mimeType":"image/png",
			"name":"Image_7",
			"uri":"Image_7.png"
		},
		{
			"mimeType":"image/png",
			"name":"Image_6",
			"uri":"Image_6.png"
		},
		{
			"mimeType":"image/png",
			"name":"Image_2",
			"uri":"Image_2.png"
		},
		{
			"mimeType":"image/png",
			"name":"Image_1",
			"uri":"Image_1.png"
		},
		{
			"mimeType":"image/png",
			"name":"Image_0",
			"uri":"Image_0.png"
		},
		{
			"mimeType":"image/png",
			"name":"Image_5",
			"uri":"Image_5.png"
		},
		{
			"mimeType":"image/png",
			"name":"Image_4",
			"uri":"Image_4.png"
		},
		{
			"mimeType":"image/png",
			"name":"Image_3",
			"uri":"Image_3.png"
		},
		{
			"mimeType":"image/png",
			"name":"Image_11",
			"uri":"Image_11.png"
		},
		{
			"mimeType":"image/png",
			"name":"Image_10",
			"uri":"Image_10.png"
		},
		{
			"mimeType":"image/png",
			"name":"Image_9",
			"uri":"Image_9.png"
		},
		{
			"mimeType":"image/png",
			"name":"Image_14",
			"uri":"Image_14.png"
		},
		{
			"mimeType":"image/png",
			"name":"Image_13",
			"uri":"Image_13.png"
		},
		{
			"mimeType":"image/png",
			"name":"Image_12",
			"uri":"Image_12.png"
		},
		{
			"mimeType":"image/png",
			"name":"Image_17",
			"uri":"Image_17.png"
		},
		{
			"mimeType":"image/png",
			"name":"Image_16",
			"uri":"Image_16.png"
		},
		{
			"mimeType":"image/png",
			"name":"Image_15",
			"uri":"Image_15.png"
		}
	],
	"accessors":[
		{
			"bufferView":0,
			"componentType":5126,
			"count":3517,
			"max":[
				1.4299712181091309,
				1.008734941482544,
				1.1166572570800781
			],
			"min":[
				-1.1152729988098145,
				-1.4298171997070312,
				-0.07000000029802322
			],
			"type":"VEC3"
		},
		{
			"bufferView":1,
			"componentType":5126,
			"count":3517,
			"type":"VEC3"
		},
		{
			"bufferView":2,
			"componentType":5126,
			"count":3517,
			"type":"VEC2"
		},
		{
			"bufferView":3,
			"componentType":5123,
			"count":4947,
			"type":"SCALAR"
		},
		{
			"bufferView":4,
			"componentType":5126,
			"count":9601,
			"max":[
				15.942300796508789,
				9.25181770324707,
				7.634591579437256
			],
			"min":[
				-16.225868225097656,
				-7.099384307861328,
				-26.213951110839844
			],
			"type":"VEC3"
		},
		{
			"bufferView":5,
			"componentType":5126,
			"count":9601,
			"type":"VEC3"
		},
		{
			"bufferView":6,
			"componentType":5126,
			"count":9601,
			"type":"VEC2"
		},
		{
			"bufferView":7,
			"componentType":5123,
			"count":24279,
			"type":"SCALAR"
		},
		{
			"bufferView":8,
			"componentType":5126,
			"count":822,
			"max":[
				0.9907265901565552,
				0.9985580444335938,
				1.0022828578948975
			],
			"min":[
				-0.9853322505950928,
				-0.9878554940223694,
				-0.9954860210418701
			],
			"type":"VEC3"
		},
		{
			"bufferView":9,
			"componentType":5126,
			"count":822,
			"type":"VEC3"
		},
		{
			"bufferView":10,
			"componentType":5126,
			"count":822,
			"type":"VEC2"
		},
		{
			"bufferView":11,
			"componentType":5123,
			"count":2040,
			"type":"SCALAR"
		},
		{
			"bufferView":12,
			"componentType":5126,
			"count":482,
			"max":[
				1.428439974784851,
				0.9840391874313354,
				0.09615357220172882
			],
			"min":[
				-1.0901535749435425,
				-1.4250699281692505,
				-0.07036375999450684
			],
			"type":"VEC3"
		},
		{
			"bufferView":13,
			"componentType":5126,
			"count":482,
			"type":"VEC3"
		},
		{
			"bufferView":14,
			"componentType":5126,
			"count":482,
			"type":"VEC2"
		},
		{
			"bufferView":15,
			"componentType":5123,
			"count":1812,
			"type":"SCALAR"
		},
		{
			"bufferView":16,
			"componentType":5126,
			"count":259,
			"max":[
				27.682769775390625,
				16.516572952270508,
				1.3826371431350708
			],
			"min":[
				-1.0956051349639893,
				-5.131980895996094,
				-7.32158899307251
			],
			"type":"VEC3"
		},
		{
			"bufferView":17,
			"componentType":5126,
			"count":259,
			"type":"VEC3"
		},
		{
			"bufferView":18,
			"componentType":5126,
			"count":259,
			"type":"VEC2"
		},
		{
			"bufferView":19,
			"componentType":5123,
			"count":360,
			"type":"SCALAR"
		},
		{
			"bufferView":20,
			"componentType":5126,
			"count":2812,
			"max":[
				26.092830657958984,
				1.5268275737762451,
				21.851743698120117
			],
			"min":[
				-1.5984232425689697,
				-18.280609130859375,
				-1
			],
			"type":"VEC3"
		},
		{
			"bufferView":21,
			"componentType":5126,
			"count":2812,
			"type":"VEC3"
		},
		{
			"bufferView":22,
			"componentType":5126,
			"count":2812,
			"type":"VEC2"
		},
		{
			"bufferView":23,
			"componentType":5123,
			"count":6744,
			"type":"SCALAR"
		}
	],
	"bufferViews":[
		{
			"buffer":0,
			"byteLength":42204,
			"byteOffset":0,
			"target":34962
		},
		{
			"buffer":0,
			"byteLength":42204,
			"byteOffset":42204,
			"target":34962
		},
		{
			"buffer":0,
			"byteLength":28136,
			"byteOffset":84408,
			"target":34962
		},
		{
			"buffer":0,
			"byteLength":9894,
			"byteOffset":112544,
			"target":34963
		},
		{
			"buffer":0,
			"byteLength":115212,
			"byteOffset":122440,
			"target":34962
		},
		{
			"buffer":0,
			"byteLength":115212,
			"byteOffset":237652,
			"target":34962
		},
		{
			"buffer":0,
			"byteLength":76808,
			"byteOffset":352864,
			"target":34962
		},
		{
			"buffer":0,
			"byteLength":48558,
			"byteOffset":429672,
			"target":34963
		},
		{
			"buffer":0,
			"byteLength":9864,
			"byteOffset":478232,
			"target":34962
		},
		{
			"buffer":0,
			"byteLength":9864,
			"byteOffset":488096,
			"target":34962
		},
		{
			"buffer":0,
			"byteLength":6576,
			"byteOffset":497960,
			"target":34962
		},
		{
			"buffer":0,
			"byteLength":4080,
			"byteOffset":504536,
			"target":34963
		},
		{
			"buffer":0,
			"byteLength":5784,
			"byteOffset":508616,
			"target":34962
		},
		{
			"buffer":0,
			"byteLength":5784,
			"byteOffset":514400,
			"target":34962
		},
		{
			"buffer":0,
			"byteLength":3856,
			"byteOffset":520184,
			"target":34962
		},
		{
			"buffer":0,
			"byteLength":3624,
			"byteOffset":524040,
			"target":34963
		},
		{
			"buffer":0,
			"byteLength":3108,
			"byteOffset":527664,
			"target":34962
		},
		{
			"buffer":0,
			"byteLength":3108,
			"byteOffset":530772,
			"target":34962
		},
		{
			"buffer":0,
			"byteLength":2072,
			"byteOffset":533880,
			"target":34962
		},
		{
			"buffer":0,
			"byteLength":720,
			"byteOffset":535952,
			"target":34963
		},
		{
			"buffer":0,
			"byteLength":33744,
			"byteOffset":536672,
			"target":34962
		},
		{
			"buffer":0,
			"byteLength":33744,
			"byteOffset":570416,
			"target":34962
		},
		{
			"buffer":0,
			"byteLength":22496,
			"byteOffset":604160,
			"target":34962
		},
		{
			"buffer":0,
			"byteLength":13488,
			"byteOffset":626656,
			"target":34963
		}
	],
	"samplers":[
		{
			"magFilter":9729,
			"minFilter":9987
		}
	],
	"buffers":[
		{
			"byteLength":640144,
			"uri":"worn_leather_office_chair.bin"
		}
	]
}
