{
	"asset":{
		"generator":"Khronos glTF Blender I/O v4.2.57",
		"version":"2.0"
	},
	"extensionsUsed":[
		"KHR_materials_specular",
		"KHR_materials_ior"
	],
	"scene":0,
	"scenes":[
		{
			"name":"Scene",
			"nodes":[
				0
			]
		}
	],
	"nodes":[
		{
			"mesh":0,
			"name":"door"
		}
	],
	"materials":[
		{
			"doubleSided":true,
			"name":"wood",
			"pbrMetallicRoughness":{
				"baseColorTexture":{
					"index":0
				},
				"metallicFactor":0,
				"metallicRoughnessTexture":{
					"index":1
				}
			}
		},
		{
			"doubleSided":true,
			"name":"brass",
			"pbrMetallicRoughness":{
				"baseColorFactor":[
					0.6745278835296631,
					0.3603936433792114,
					0.09313913434743881,
					1
				],
				"roughnessFactor":0.39393937587738037
			}
		},
		{
			"doubleSided":true,
			"extensions":{
				"KHR_materials_specular":{
					"specularFactor":0
				},
				"KHR_materials_ior":{
					"ior":1.4500000476837158
				}
			},
			"name":"coin-wood",
			"normalTexture":{
				"index":2,
				"scale":2.5
			},
			"pbrMetallicRoughness":{
				"baseColorTexture":{
					"index":3
				},
				"metallicFactor":0.05303030461072922,
				"roughnessFactor":0.334090918302536
			}
		}
	],
	"meshes":[
		{
			"name":"Cube.001",
			"primitives":[
				{
					"attributes":{
						"POSITION":0,
						"NORMAL":1,
						"TEXCOORD_0":2
					},
					"indices":3,
					"material":0
				},
				{
					"attributes":{
						"POSITION":4,
						"NORMAL":5,
						"TEXCOORD_0":6
					},
					"indices":7,
					"material":1
				},
				{
					"attributes":{
						"POSITION":8,
						"NORMAL":9,
						"TEXCOORD_0":10
					},
					"indices":11,
					"material":2
				}
			]
		}
	],
	"textures":[
		{
			"sampler":0,
			"source":0
		},
		{
			"sampler":0,
			"source":1
		},
		{
			"sampler":0,
			"source":2
		},
		{
			"sampler":0,
			"source":0
		}
	],
	"images":[
		{
			"mimeType":"image/jpeg",
			"name":"tx_hub_wood_1k",
			"uri":"tx_hub_wood_1k.jpg"
		},
		{
			"mimeType":"image/png",
			"name":"tx_hub_wood_1k",
			"uri":"tx_hub_wood_1k.png"
		},
		{
			"mimeType":"image/jpeg",
			"name":"cwt_token_low_Normal_1024",
			"uri":"cwt_token_low_Normal_1024.jpg"
		}
	],
	"accessors":[
		{
			"bufferView":0,
			"componentType":5126,
			"count":762,
			"max":[
				1.0719799995422363,
				2.299639940261841,
				0
			],
			"min":[
				0,
				0,
				-0.07737016677856445
			],
			"type":"VEC3"
		},
		{
			"bufferView":1,
			"componentType":5126,
			"count":762,
			"type":"VEC3"
		},
		{
			"bufferView":2,
			"componentType":5126,
			"count":762,
			"type":"VEC2"
		},
		{
			"bufferView":3,
			"componentType":5123,
			"count":1962,
			"type":"SCALAR"
		},
		{
			"bufferView":4,
			"componentType":5126,
			"count":98,
			"max":[
				1.0199366807937622,
				1.2066594362258911,
				-0.02862926572561264
			],
			"min":[
				0.9062578082084656,
				1.0929805040359497,
				-0.09198473393917084
			],
			"type":"VEC3"
		},
		{
			"bufferView":5,
			"componentType":5126,
			"count":98,
			"type":"VEC3"
		},
		{
			"bufferView":6,
			"componentType":5126,
			"count":98,
			"type":"VEC2"
		},
		{
			"bufferView":7,
			"componentType":5123,
			"count":282,
			"type":"SCALAR"
		},
		{
			"bufferView":8,
			"componentType":5126,
			"count":99,
			"max":[
				1.0727585554122925,
				1.465962529182434,
				-0.044248320162296295
			],
			"min":[
				0.6488806009292603,
				0.8391537666320801,
				-0.06377223134040833
			],
			"type":"VEC3"
		},
		{
			"bufferView":9,
			"componentType":5126,
			"count":99,
			"type":"VEC3"
		},
		{
			"bufferView":10,
			"componentType":5126,
			"count":99,
			"type":"VEC2"
		},
		{
			"bufferView":11,
			"componentType":5123,
			"count":279,
			"type":"SCALAR"
		}
	],
	"bufferViews":[
		{
			"buffer":0,
			"byteLength":9144,
			"byteOffset":0,
			"target":34962
		},
		{
			"buffer":0,
			"byteLength":9144,
			"byteOffset":9144,
			"target":34962
		},
		{
			"buffer":0,
			"byteLength":6096,
			"byteOffset":18288,
			"target":34962
		},
		{
			"buffer":0,
			"byteLength":3924,
			"byteOffset":24384,
			"target":34963
		},
		{
			"buffer":0,
			"byteLength":1176,
			"byteOffset":28308,
			"target":34962
		},
		{
			"buffer":0,
			"byteLength":1176,
			"byteOffset":29484,
			"target":34962
		},
		{
			"buffer":0,
			"byteLength":784,
			"byteOffset":30660,
			"target":34962
		},
		{
			"buffer":0,
			"byteLength":564,
			"byteOffset":31444,
			"target":34963
		},
		{
			"buffer":0,
			"byteLength":1188,
			"byteOffset":32008,
			"target":34962
		},
		{
			"buffer":0,
			"byteLength":1188,
			"byteOffset":33196,
			"target":34962
		},
		{
			"buffer":0,
			"byteLength":792,
			"byteOffset":34384,
			"target":34962
		},
		{
			"buffer":0,
			"byteLength":558,
			"byteOffset":35176,
			"target":34963
		}
	],
	"samplers":[
		{
			"magFilter":9729,
			"minFilter":9987
		}
	],
	"buffers":[
		{
			"byteLength":35736,
			"uri":"tokendoor.bin"
		}
	]
}
